%TF.GenerationSoftware,KiCad,Pcbnew,8.0.4*%
%TF.CreationDate,2024-10-04T20:54:15+09:00*%
%TF.ProjectId,FullHouse_Main_V6.0,46756c6c-486f-4757-9365-5f4d61696e5f,rev?*%
%TF.SameCoordinates,Original*%
%TF.FileFunction,Profile,NP*%
%FSLAX46Y46*%
G04 Gerber Fmt 4.6, Leading zero omitted, Abs format (unit mm)*
G04 Created by KiCad (PCBNEW 8.0.4) date 2024-10-04 20:54:15*
%MOMM*%
%LPD*%
G01*
G04 APERTURE LIST*
%TA.AperFunction,Profile*%
%ADD10C,0.050000*%
%TD*%
%TA.AperFunction,Profile*%
%ADD11C,0.100000*%
%TD*%
%ADD12C,0.750000*%
G04 APERTURE END LIST*
D10*
X36050000Y-171485000D02*
G75*
G02*
X34050000Y-169485000I0J2000000D01*
G01*
X358050000Y-65985000D02*
G75*
G02*
X360050000Y-67985000I0J-2000000D01*
G01*
X43050000Y-67985000D02*
G75*
G02*
X45050000Y-65985000I2000000J0D01*
G01*
X168050000Y-208865000D02*
X36050000Y-208865000D01*
X261550000Y-150985000D02*
X261550000Y-151985000D01*
X174050000Y-205865000D02*
X174050000Y-206865000D01*
X368550000Y-173485000D02*
X368550000Y-206865000D01*
X368550000Y-139985000D02*
G75*
G02*
X366550000Y-141985000I-2000000J0D01*
G01*
D11*
X41050000Y-151985000D02*
G75*
G02*
X37050000Y-151985000I-2000000J0D01*
G01*
X37050000Y-151985000D02*
G75*
G02*
X41050000Y-151985000I2000000J0D01*
G01*
D10*
X366550000Y-148985000D02*
G75*
G02*
X368550000Y-150985000I0J-2000000D01*
G01*
X36050000Y-141985000D02*
G75*
G02*
X34050000Y-139985000I0J2000000D01*
G01*
X366550000Y-208865000D02*
X176050000Y-208865000D01*
X360050000Y-146937500D02*
X360050000Y-145985000D01*
D11*
X41050000Y-205865000D02*
G75*
G02*
X37050000Y-205865000I-2000000J0D01*
G01*
X37050000Y-205865000D02*
G75*
G02*
X41050000Y-205865000I2000000J0D01*
G01*
D10*
X168050000Y-145985000D02*
G75*
G02*
X176050000Y-145985000I4000000J0D01*
G01*
X347200000Y-208865000D02*
X255540000Y-208865000D01*
D11*
X366050000Y-151985000D02*
G75*
G02*
X362050000Y-151985000I-2000000J0D01*
G01*
X362050000Y-151985000D02*
G75*
G02*
X366050000Y-151985000I2000000J0D01*
G01*
D10*
X43050000Y-146985000D02*
X43050000Y-145985000D01*
X168050000Y-146985000D02*
G75*
G02*
X166050000Y-148985000I-2000000J0D01*
G01*
X36050000Y-208865000D02*
G75*
G02*
X34050000Y-206865000I0J2000000D01*
G01*
X36050000Y-72985000D02*
X39050000Y-72985000D01*
X257550000Y-151985000D02*
X257550000Y-150985000D01*
X176050000Y-208865000D02*
G75*
G02*
X174050000Y-206865000I0J2000000D01*
G01*
X364050000Y-141985000D02*
X366550000Y-141985000D01*
X34050000Y-150985000D02*
G75*
G02*
X36050000Y-148985000I2000000J0D01*
G01*
X347200000Y-208865000D02*
X348040000Y-208865000D01*
X43050000Y-68985000D02*
G75*
G02*
X39050000Y-72985000I-3999980J-20D01*
G01*
X368550000Y-74985000D02*
X368550000Y-139985000D01*
X36050000Y-208865000D02*
X156040000Y-208865000D01*
D11*
X366050000Y-205865000D02*
G75*
G02*
X362050000Y-205865000I-2000000J0D01*
G01*
X362050000Y-205865000D02*
G75*
G02*
X366050000Y-205865000I2000000J0D01*
G01*
D10*
X368550000Y-206865000D02*
G75*
G02*
X366550000Y-208865000I-2000000J0D01*
G01*
X360050000Y-146937500D02*
G75*
G02*
X358050000Y-148985052I-2000000J-47000D01*
G01*
X364050000Y-72985000D02*
X366550000Y-72985000D01*
X39050000Y-141985000D02*
G75*
G02*
X43050000Y-145985000I0J-4000000D01*
G01*
X253550000Y-65985000D02*
X45050000Y-65985000D01*
X366550000Y-171485000D02*
X36050000Y-171485000D01*
X366550000Y-171485000D02*
G75*
G02*
X368550000Y-173485000I0J-2000000D01*
G01*
X261550000Y-150985000D02*
G75*
G02*
X263550000Y-148985000I2000000J0D01*
G01*
X360050000Y-145985000D02*
G75*
G02*
X364050000Y-141985000I4000000J0D01*
G01*
X170050000Y-205865000D02*
G75*
G02*
X174050000Y-205865000I2000000J0D01*
G01*
X168050000Y-146985000D02*
X168050000Y-145985000D01*
X178050000Y-148985000D02*
G75*
G02*
X176050000Y-146985000I0J2000000D01*
G01*
X263550000Y-67985000D02*
G75*
G02*
X265550000Y-65985000I2000000J0D01*
G01*
X263550000Y-68985000D02*
G75*
G02*
X255550000Y-68985000I-4000000J0D01*
G01*
X45050000Y-148985000D02*
G75*
G02*
X43050000Y-146985000I0J2000000D01*
G01*
X265550000Y-65985000D02*
X358050000Y-65985000D01*
X43050000Y-67985000D02*
X43050000Y-68985000D01*
X364050000Y-72985000D02*
G75*
G02*
X360050000Y-68985000I0J4000000D01*
G01*
X170050000Y-206865000D02*
X170050000Y-205865000D01*
X34050000Y-74985000D02*
G75*
G02*
X36050000Y-72985000I2000000J0D01*
G01*
X368550000Y-150985000D02*
X368550000Y-169485000D01*
X366550000Y-72985000D02*
G75*
G02*
X368550000Y-74985000I0J-2000000D01*
G01*
X255550000Y-148985000D02*
G75*
G02*
X257550000Y-150985000I0J-2000000D01*
G01*
X263550000Y-67985000D02*
X263550000Y-68985000D01*
X255550000Y-68985000D02*
X255550000Y-67985000D01*
X34050000Y-150985000D02*
X34050000Y-169485000D01*
X360050000Y-67985000D02*
X360050000Y-68985000D01*
X366550000Y-148985000D02*
X36050000Y-148985000D01*
X261550000Y-151985000D02*
G75*
G02*
X257550000Y-151985000I-2000000J0D01*
G01*
X253550000Y-65985000D02*
G75*
G02*
X255550000Y-67985000I0J-2000000D01*
G01*
X34050000Y-173485000D02*
X34050000Y-206865000D01*
X176050000Y-146985000D02*
X176050000Y-145985000D01*
X368550000Y-169485000D02*
G75*
G02*
X366550000Y-171485000I-2000000J0D01*
G01*
X347200000Y-208865000D02*
X255540000Y-208865000D01*
X34050000Y-74985000D02*
X34050000Y-139985000D01*
X347200000Y-208865000D02*
X348040000Y-208865000D01*
X170050000Y-206865000D02*
G75*
G02*
X168050000Y-208865000I-2000000J0D01*
G01*
X34050000Y-173485000D02*
G75*
G02*
X36050000Y-171485000I2000000J0D01*
G01*
X39050000Y-141985000D02*
X36050000Y-141985000D01*
D12*
X378340205Y-146314509D02*
X380006872Y-151314509D01*
X380006872Y-151314509D02*
X381673538Y-146314509D01*
X383340205Y-149409747D02*
X387149729Y-149409747D01*
X392387824Y-150838318D02*
X392149728Y-151076414D01*
X392149728Y-151076414D02*
X391435443Y-151314509D01*
X391435443Y-151314509D02*
X390959252Y-151314509D01*
X390959252Y-151314509D02*
X390244966Y-151076414D01*
X390244966Y-151076414D02*
X389768776Y-150600223D01*
X389768776Y-150600223D02*
X389530681Y-150124033D01*
X389530681Y-150124033D02*
X389292585Y-149171652D01*
X389292585Y-149171652D02*
X389292585Y-148457366D01*
X389292585Y-148457366D02*
X389530681Y-147504985D01*
X389530681Y-147504985D02*
X389768776Y-147028794D01*
X389768776Y-147028794D02*
X390244966Y-146552604D01*
X390244966Y-146552604D02*
X390959252Y-146314509D01*
X390959252Y-146314509D02*
X391435443Y-146314509D01*
X391435443Y-146314509D02*
X392149728Y-146552604D01*
X392149728Y-146552604D02*
X392387824Y-146790699D01*
X394530681Y-146314509D02*
X394530681Y-150362128D01*
X394530681Y-150362128D02*
X394768776Y-150838318D01*
X394768776Y-150838318D02*
X395006871Y-151076414D01*
X395006871Y-151076414D02*
X395483062Y-151314509D01*
X395483062Y-151314509D02*
X396435443Y-151314509D01*
X396435443Y-151314509D02*
X396911633Y-151076414D01*
X396911633Y-151076414D02*
X397149728Y-150838318D01*
X397149728Y-150838318D02*
X397387824Y-150362128D01*
X397387824Y-150362128D02*
X397387824Y-146314509D01*
X399054490Y-146314509D02*
X401911633Y-146314509D01*
X400483061Y-151314509D02*
X400483061Y-146314509D01*
M02*
