M48
; DRILL file {KiCad 8.0.4} date 2024-10-04T20:53:57+0900
; FORMAT={-:-/ absolute / inch / decimal}
; #@! TF.CreationDate,2024-10-04T20:53:57+09:00
; #@! TF.GenerationSoftware,Kicad,Pcbnew,8.0.4
; #@! TF.FileFunction,Plated,1,2,PTH
FMAT,2
INCH
; #@! TA.AperFunction,Plated,PTH,ViaDrill
T1C0.0157
; #@! TA.AperFunction,Plated,PTH,ComponentDrill
T2C0.0157
; #@! TA.AperFunction,Plated,PTH,ComponentDrill
T3C0.0228
; #@! TA.AperFunction,Plated,PTH,ComponentDrill
T4C0.0276
; #@! TA.AperFunction,Plated,PTH,ComponentDrill
T5C0.0295
; #@! TA.AperFunction,Plated,PTH,ComponentDrill
T6C0.0315
; #@! TA.AperFunction,Plated,PTH,ComponentDrill
T7C0.0354
; #@! TA.AperFunction,Plated,PTH,ComponentDrill
T8C0.0394
; #@! TA.AperFunction,Plated,PTH,ComponentDrill
T9C0.0413
; #@! TA.AperFunction,Plated,PTH,ComponentDrill
T10C0.0433
; #@! TA.AperFunction,Plated,PTH,ComponentDrill
T11C0.0492
; #@! TA.AperFunction,Plated,PTH,ComponentDrill
T12C0.0512
; #@! TA.AperFunction,Plated,PTH,ComponentDrill
T13C0.0551
; #@! TA.AperFunction,Plated,PTH,ComponentDrill
T14C0.0827
; #@! TA.AperFunction,Plated,PTH,ComponentDrill
T15C0.1260
; #@! TA.AperFunction,Plated,PTH,ComponentDrill
T16C0.2165
%
G90
G05
T1
X1.3868Y-5.5453
X1.4004Y-3.2293
X1.4071Y-5.5115
X1.4736Y-3.2715
X1.5213Y-3.7219
X1.6693Y-3.4921
X1.8878Y-2.6604
X2.0268Y-4.0675
X2.0955Y-3.1549
X2.0955Y-3.6732
X2.1201Y-4.4281
X2.1201Y-4.5281
X2.1201Y-4.6281
X2.2201Y-4.4281
X2.2201Y-4.5281
X2.2201Y-4.6281
X2.3201Y-4.4281
X2.3201Y-4.5281
X2.3201Y-4.6281
X2.365Y-3.4171
X2.365Y-4.1644
X2.3898Y-5.6909
X2.4201Y-4.4281
X2.4201Y-4.5281
X2.4201Y-4.6281
X2.4587Y-3.7687
X2.5335Y-3.877
X2.5344Y-3.497
X2.5344Y-3.6024
X2.5764Y-4.4278
X2.5764Y-4.5278
X2.5764Y-4.6278
X2.5819Y-3.4163
X2.626Y-3.4232
X2.676Y-3.7435
X2.6827Y-4.2852
X2.6882Y-3.0002
X2.6929Y-3.3848
X2.7224Y-2.627
X2.7268Y-4.9474
X2.7268Y-5.0425
X2.7268Y-5.1354
X2.7268Y-5.2311
X2.7268Y-5.3256
X2.7374Y-4.0364
X2.7866Y-4.0364
X2.8358Y-3.2829
X2.8358Y-4.0364
X2.885Y-3.4435
X2.885Y-4.0364
X2.9028Y-3.2226
X2.9343Y-3.4754
X2.9343Y-4.0364
X2.9512Y-3.2841
X2.9835Y-3.5061
X2.9835Y-4.0364
X2.9992Y-3.2604
X3.0524Y-3.4435
X3.1059Y-3.2789
X3.1063Y-3.4435
X3.1496Y-3.4754
X3.2043Y-3.2356
X3.2496Y-3.5061
X3.2728Y-4.0364
X3.322Y-4.0364
X3.3224Y-3.2545
X3.3713Y-3.4435
X3.3713Y-4.0364
X3.4205Y-2.9939
X3.4205Y-4.0364
X3.4697Y-2.9321
X3.4697Y-4.036
X3.7234Y-2.69
X3.7461Y-4.3514
X3.7949Y-3.5707
X3.7949Y-3.7006
X3.8016Y-4.7502
X3.8016Y-4.8093
X3.8016Y-4.8683
X3.8047Y-4.0329
X3.8189Y-2.6919
X3.8598Y-4.5565
X3.8803Y-4.7502
X3.8803Y-4.8093
X3.8803Y-4.8683
X3.9043Y-4.473
X3.9043Y-4.5203
X3.9043Y-4.5911
X3.9043Y-4.6404
X3.9591Y-4.7502
X3.9591Y-4.8093
X3.9591Y-4.8683
X3.9642Y-5.2549
X3.9732Y-4.473
X3.9732Y-4.6404
X4.0421Y-4.473
X4.0421Y-4.5203
X4.0421Y-4.5911
X4.0421Y-4.6404
X4.1186Y-3.9264
X4.2776Y-4.3514
X4.3311Y-4.0683
X4.3441Y-4.7502
X4.3441Y-4.8093
X4.3441Y-4.8683
X4.3819Y-3.5766
X4.3819Y-3.6348
X4.3964Y-4.5565
X4.4228Y-4.7502
X4.4228Y-4.8093
X4.4228Y-4.8683
X4.4441Y-4.473
X4.4441Y-4.5203
X4.4441Y-4.5911
X4.4441Y-4.6404
X4.4957Y-5.2549
X4.5016Y-4.7502
X4.5016Y-4.8093
X4.5016Y-4.8683
X4.513Y-4.473
X4.513Y-4.6404
X4.5283Y-3.9833
X4.5819Y-4.473
X4.5819Y-4.5203
X4.5819Y-4.5911
X4.5819Y-4.6404
X4.6548Y-3.9618
X4.8051Y-4.3514
X4.8504Y-3.0167
X4.8504Y-3.9264
X4.8642Y-4.0711
X4.8756Y-4.7502
X4.8756Y-4.8093
X4.8756Y-4.8683
X4.9193Y-2.9715
X4.9309Y-4.5565
X4.9543Y-4.7502
X4.9543Y-4.8093
X4.9543Y-4.8683
X4.9685Y-3.0699
X4.9756Y-4.473
X4.9756Y-4.5203
X4.9756Y-4.5911
X4.9756Y-4.6404
X5.0177Y-2.9419
X5.0178Y-3.3132
X5.0272Y-5.2549
X5.0331Y-4.7502
X5.0331Y-4.8093
X5.0331Y-4.8683
X5.0445Y-4.473
X5.0445Y-4.6404
X5.0638Y-3.1612
X5.0846Y-3.0974
X5.1134Y-4.473
X5.1134Y-4.5203
X5.1134Y-4.5911
X5.1134Y-4.6404
X5.1339Y-3.1801
X5.1732Y-3.1289
X5.2461Y-3.1703
X5.3169Y-2.9675
X5.3178Y-3.701
X5.3209Y-4.1447
X5.3386Y-4.3514
X5.3705Y-4.0754
X5.3992Y-4.7502
X5.3992Y-4.8093
X5.3992Y-4.8683
X5.4173Y-3.0994
X5.4553Y-4.5565
X5.478Y-4.7502
X5.478Y-4.8093
X5.478Y-4.8683
X5.4843Y-3.0659
X5.4996Y-4.473
X5.4996Y-4.5203
X5.4996Y-4.5911
X5.4996Y-4.6404
X5.5165Y-3.8667
X5.5567Y-4.7502
X5.5567Y-4.8093
X5.5567Y-4.8683
X5.5587Y-5.2549
X5.5685Y-4.473
X5.5685Y-4.6404
X5.5764Y-3.7285
X5.5783Y-3.7955
X5.6374Y-4.473
X5.6374Y-4.5203
X5.6374Y-4.5911
X5.6374Y-4.6404
X5.8685Y-3.5533
X5.8701Y-4.3514
X5.9287Y-3.8967
X5.9327Y-4.7502
X5.9327Y-4.8093
X5.9327Y-4.8683
X5.9736Y-4.1175
X5.988Y-4.5565
X6.0114Y-4.7502
X6.0114Y-4.8093
X6.0114Y-4.8683
X6.0319Y-4.473
X6.0319Y-4.5203
X6.0319Y-4.5911
X6.0319Y-4.6404
X6.035Y-3.7207
X6.035Y-3.9577
X6.0661Y-3.8325
X6.0661Y-3.9884
X6.0902Y-4.7502
X6.0902Y-4.8093
X6.0902Y-4.8683
X6.0902Y-5.2549
X6.0965Y-3.7207
X6.0965Y-4.0211
X6.1008Y-4.473
X6.1008Y-4.6404
X6.1697Y-4.473
X6.1697Y-4.5203
X6.1697Y-4.5911
X6.1697Y-4.6404
X6.3437Y-3.5675
X6.3543Y-3.7774
X6.4055Y-4.3514
X6.4341Y-2.9931
X6.4341Y-3.7146
X6.4579Y-4.7502
X6.4579Y-4.8093
X6.4579Y-4.8683
X6.4583Y-3.8526
X6.5098Y-3.5691
X6.5132Y-4.5565
X6.5169Y-3.927
X6.5366Y-4.7502
X6.5366Y-4.8093
X6.5366Y-4.8683
X6.5575Y-4.4726
X6.5575Y-4.5199
X6.5575Y-4.5907
X6.5575Y-4.64
X6.6154Y-4.7502
X6.6154Y-4.8093
X6.6154Y-4.8683
X6.622Y-5.2549
X6.6264Y-4.4726
X6.6264Y-4.64
X6.6953Y-4.4726
X6.6953Y-4.5199
X6.6953Y-4.5907
X6.6953Y-4.64
X6.8657Y-3.7793
X6.9795Y-3.2112
X6.9902Y-2.7618
X7.1551Y-3.5758
X7.2293Y-2.688
X7.2827Y-4.0254
X7.31Y-2.9459
X7.31Y-3.6348
X7.3425Y-5.2559
X7.4193Y-3.6634
X7.4222Y-3.803
X7.438Y-2.687
X7.5266Y-3.6467
X7.5817Y-2.9124
X7.6378Y-3.8957
X7.739Y-3.9994
X7.8004Y-3.4242
X7.8142Y-4.0073
X7.8504Y-3.9272
X7.9459Y-5.2549
X7.9508Y-3.5482
X8.0Y-2.6663
X8.1014Y-3.5157
X8.2004Y-3.4469
X8.25Y-3.7884
X8.2654Y-3.4675
X8.3445Y-3.9876
X8.3514Y-2.6535
X8.4004Y-3.4833
X8.4016Y-2.749
X8.5Y-3.5807
X8.5004Y-3.2317
X8.5453Y-5.2549
X8.6004Y-2.7687
X8.6004Y-3.5561
X8.6831Y-3.9577
X8.7004Y-3.2522
X8.8012Y-3.6033
X8.8756Y-3.968
X8.9006Y-3.6033
X8.902Y-3.2494
X8.9882Y-2.7293
X9.0Y-3.6033
X9.0004Y-3.3829
X9.0996Y-3.6746
X9.1004Y-3.3829
X9.1348Y-3.0394
X9.1358Y-2.9089
X9.1457Y-5.2549
X9.1496Y-3.1132
X9.1693Y-2.7303
X9.2008Y-3.0384
X9.2508Y-3.6329
X9.2539Y-3.5659
X9.3004Y-2.9439
X9.3012Y-3.0384
X9.3248Y-2.7323
X9.3504Y-3.0059
X9.4006Y-3.0374
X9.4079Y-3.9483
X9.448Y-3.6699
X9.5008Y-2.6994
X9.5423Y-3.6417
X9.5591Y-2.6262
X9.625Y-3.0217
X9.626Y-2.7348
X9.6772Y-3.8494
X9.7461Y-5.2549
X9.798Y-3.6136
X9.8012Y-3.0167
X9.8102Y-2.803
X9.8327Y-3.5394
X9.8553Y-3.6516
X9.8799Y-2.9478
X9.8799Y-3.5404
X9.9358Y-2.803
X9.9518Y-3.7156
X9.9567Y-3.4695
X9.9587Y-3.2179
X10.0148Y-3.1722
X10.0433Y-3.8455
X10.0955Y-3.0246
X10.1592Y-3.1468
X10.2402Y-3.8474
X10.251Y-3.689
X10.2535Y-4.2293
X10.2592Y-3.1189
X10.2736Y-4.0778
X10.3232Y-4.1864
X10.3455Y-5.2559
X10.3953Y-4.1864
X10.398Y-3.1376
X10.4555Y-2.7884
X10.4774Y-3.689
X10.5217Y-3.2392
X10.528Y-4.1864
X10.5594Y-3.1514
X10.5915Y-4.0758
X10.6516Y-3.8839
X10.6592Y-3.1002
X10.6592Y-3.3677
X10.6606Y-4.1864
X10.6713Y-2.8494
X10.6752Y-3.6791
X10.6831Y-4.0561
X10.7087Y-3.1722
X10.7313Y-3.9065
X10.7328Y-4.4776
X10.7592Y-3.0696
X10.7592Y-3.3283
X10.778Y-4.3293
X10.7843Y-3.8789
X10.8268Y-5.2238
X10.8592Y-3.087
X10.8612Y-3.3484
X10.8711Y-4.5157
X10.9016Y-4.3947
X10.939Y-3.6427
X10.9449Y-2.7687
X10.9475Y-2.9203
X10.9475Y-2.999
X10.9764Y-3.7431
X10.9783Y-4.2618
X10.9846Y-5.3793
X10.9862Y-2.625
X10.9862Y-2.8868
X10.9902Y-4.4439
X11.008Y-4.1931
X11.063Y-4.314
X11.063Y-4.3939
X11.0669Y-3.0581
X11.0674Y-4.0783
X11.1004Y-2.9636
X11.119Y-4.1772
X11.163Y-4.314
X11.163Y-4.3939
X11.167Y-4.0595
X11.2008Y-3.1841
X11.2382Y-3.2116
X11.263Y-4.314
X11.263Y-4.3939
X11.2678Y-4.0398
X11.2717Y-3.2943
X11.272Y-4.5167
X11.272Y-5.1659
X11.2756Y-3.3967
X11.2953Y-2.9262
X11.2972Y-3.0797
X11.3297Y-3.7382
X11.3622Y-2.9636
X11.3622Y-3.06
X11.363Y-4.314
X11.363Y-4.3939
X11.3642Y-5.3793
X11.3678Y-4.0193
X11.3957Y-3.2569
X11.3996Y-3.0738
X11.4173Y-3.19
X11.4587Y-3.7185
X11.463Y-4.314
X11.463Y-4.3939
X11.5177Y-2.9577
X11.5442Y-4.798
X11.5442Y-4.8689
X11.5442Y-4.9398
X11.5445Y-4.2297
X11.563Y-4.314
X11.563Y-4.3939
X11.5768Y-3.1348
X11.615Y-4.798
X11.615Y-4.8689
X11.615Y-4.9398
X11.6209Y-4.5106
X11.6209Y-4.5914
X11.6241Y-4.1878
X11.6328Y-5.2213
X11.6516Y-3.3967
X11.6614Y-4.0187
X11.663Y-4.314
X11.663Y-4.3939
X11.6859Y-4.798
X11.6859Y-4.8689
X11.6859Y-4.9398
X11.7509Y-5.365
X11.7697Y-3.1939
X11.7706Y-3.7386
X11.7706Y-4.6484
X11.8335Y-4.5106
X11.8524Y-3.7254
X11.8602Y-4.3061
X11.8614Y-3.9888
X11.9221Y-4.5736
X11.9241Y-4.8197
X11.9614Y-3.3955
X11.963Y-5.4388
X11.9634Y-5.7781
X11.9753Y-4.113
X11.9753Y-4.4949
X12.015Y-3.99
X12.0713Y-3.7693
X12.089Y-4.6829
X12.0969Y-5.0411
X12.1028Y-3.8764
X12.1205Y-4.6238
X12.1283Y-4.9388
X12.1343Y-4.5746
X12.1382Y-4.5313
X12.152Y-4.8285
X12.1559Y-5.2222
X12.1559Y-5.2222
X12.1559Y-5.2222
X12.1559Y-5.2222
X12.1835Y-3.4163
X12.1835Y-4.5411
X12.1894Y-5.3187
X12.2496Y-3.864
X12.272Y-4.5707
X12.2785Y-3.2608
X12.2785Y-3.5226
X12.3159Y-4.4567
X12.3169Y-3.5453
X12.3252Y-5.4801
X12.3444Y-4.4978
X12.3449Y-4.5746
X12.3469Y-4.8148
X12.3941Y-3.438
X12.3941Y-4.5411
X12.4217Y-4.9368
X12.4217Y-5.0372
X12.4262Y-3.5679
X12.4461Y-2.6431
X12.4616Y-3.5935
X12.474Y-3.8632
X12.4773Y-2.6671
X12.499Y-4.31
X12.5358Y-5.2222
X12.5358Y-5.2222
X12.5358Y-5.2222
X12.5358Y-5.2222
X12.563Y-4.3996
X12.5699Y-3.4124
X12.5811Y-5.3187
X12.6201Y-4.187
X12.751Y-5.2205
X12.752Y-4.4581
X12.7776Y-3.188
X12.8091Y-4.8596
X12.8819Y-4.1703
X12.8822Y-4.4581
X12.8858Y-3.1329
X12.999Y-2.6234
X13.0453Y-4.3179
X13.0482Y-2.7116
X13.0728Y-4.1703
X13.1004Y-2.626
X13.1402Y-5.3541
X13.1447Y-4.5256
X13.1481Y-4.2504
X13.1486Y-2.6722
X13.1913Y-5.1328
X13.1913Y-5.1328
X13.1913Y-5.1328
X13.1913Y-5.1328
X13.1913Y-5.2706
X13.1913Y-5.436
X13.2795Y-4.4581
X13.2937Y-4.1309
X13.3449Y-4.2199
X13.411Y-4.4582
X13.439Y-5.314
X13.4398Y-5.2156
X13.497Y-5.0202
X13.5315Y-3.2372
X13.5315Y-3.3396
X13.5738Y-3.8494
X13.5748Y-3.6211
X13.6171Y-4.2913
X13.6191Y-3.7156
X13.6717Y-5.3541
X13.6791Y-4.2494
X13.6939Y-3.8494
X13.7126Y-2.9203
X13.7189Y-5.1337
X13.7189Y-5.2715
X13.7189Y-5.4368
X13.7736Y-3.5994
X13.811Y-4.4581
X13.8764Y-4.2199
X13.9035Y-4.1093
X13.9075Y-3.5935
X13.9413Y-4.4582
X13.9764Y-5.2159
X13.9764Y-5.3144
X14.0221Y-5.2591
X14.0666Y-5.3138
X14.067Y-5.0953
X14.1166Y-5.4933
X14.122Y-3.1319
X14.152Y-5.2213
X14.1535Y-5.0896
X14.1604Y-3.6752
T3
X1.9728Y-3.3626
X1.9728Y-3.4626
X1.9728Y-3.5626
X1.9728Y-3.7799
X1.9728Y-3.8799
X1.9728Y-3.9799
X2.2012Y-3.3626
X2.2012Y-3.4626
X2.2012Y-3.5626
X2.2012Y-3.7799
X2.2012Y-3.8799
X2.2012Y-3.9799
T4
X7.0209Y-4.5382
X7.4146Y-4.5382
X7.5524Y-4.5382
X7.9461Y-4.5382
X8.0839Y-4.5382
X8.4776Y-4.5382
X8.6154Y-4.5382
X9.0091Y-4.5382
X9.1469Y-4.5382
X9.5406Y-4.5382
X12.6201Y-4.4552
X13.0138Y-4.4552
X13.1482Y-4.4552
X13.5419Y-4.4552
X13.6417Y-3.5933
X14.0354Y-3.5933
T5
X7.7004Y-2.8482
X7.7004Y-3.8482
X7.8004Y-2.8482
X7.8004Y-3.8482
X7.9004Y-2.8482
X7.9004Y-3.8482
X8.0004Y-2.8482
X8.0004Y-3.8482
X8.1004Y-2.8482
X8.1004Y-3.8482
X8.2004Y-2.8482
X8.2004Y-3.8482
X8.3004Y-2.8482
X8.3004Y-3.8482
X8.4004Y-2.8482
X8.4004Y-3.8482
X8.5004Y-2.8482
X8.5004Y-3.8482
X8.6004Y-2.8482
X8.6004Y-3.8482
X8.7004Y-2.8482
X8.7004Y-3.8482
X8.8004Y-2.8482
X8.8004Y-3.8482
X8.9004Y-2.8482
X8.9004Y-3.8482
X9.0004Y-2.8482
X9.0004Y-3.8482
X9.1004Y-2.8482
X9.1004Y-3.8482
X9.2004Y-2.8482
X9.2004Y-3.8482
X9.3004Y-2.8482
X9.3004Y-3.8482
X9.4004Y-2.8482
X9.4004Y-3.8482
X9.5004Y-2.8482
X9.5004Y-3.8482
X9.6004Y-2.8482
X9.6004Y-3.8482
T6
X1.4193Y-3.0616
X1.4193Y-3.1616
X1.7193Y-3.0616
X1.7193Y-3.1616
X2.8012Y-2.8354
X2.8012Y-2.9354
X2.9012Y-2.8354
X2.9012Y-2.9354
X3.0012Y-2.8354
X3.0012Y-2.9354
X3.1012Y-2.8354
X3.1012Y-2.9354
X3.2012Y-2.8354
X3.2012Y-2.9354
X3.3012Y-2.8354
X3.3012Y-2.9354
X4.3819Y-3.8769
X4.3819Y-3.9753
X11.2323Y-2.8673
X11.3307Y-2.8673
X11.4291Y-2.8673
X11.5276Y-2.8673
X13.6797Y-4.4582
X14.0734Y-4.4582
T7
X4.9178Y-3.8268
X4.9178Y-3.9268
X5.0178Y-3.8268
X5.0178Y-3.9268
X5.1178Y-3.8268
X5.1178Y-3.9268
X5.2178Y-3.8268
X5.2178Y-3.9268
X5.3178Y-3.8268
X5.3178Y-3.9268
X5.4178Y-3.8268
X5.4178Y-3.9268
X9.9592Y-2.9719
X10.0592Y-2.9719
X10.1592Y-2.9719
X10.2592Y-2.9719
X10.3592Y-2.9719
X10.4592Y-2.9719
X10.5592Y-2.9719
X10.6592Y-2.9719
X10.7592Y-2.9719
X10.8592Y-2.9719
X11.0674Y-3.8268
X11.0674Y-3.9268
X11.1674Y-3.8268
X11.1674Y-3.9268
X11.2674Y-3.8268
X11.2674Y-3.9268
X11.3674Y-3.8268
X11.3674Y-3.9268
X11.4674Y-3.8268
X11.4674Y-3.9268
X11.5674Y-3.8268
X11.5674Y-3.9268
X12.8963Y-3.3392
X12.9463Y-3.2392
X12.9963Y-3.3392
X13.0463Y-3.2392
X13.0963Y-3.3392
X13.1463Y-3.2392
X13.1963Y-3.3392
X13.2463Y-3.2392
X13.6303Y-3.338
X13.6803Y-3.238
X13.7303Y-3.338
X13.7803Y-3.238
X13.8303Y-3.338
X13.8803Y-3.238
X13.9303Y-3.338
X13.9803Y-3.238
T8
X10.5457Y-4.5358
X10.593Y-4.7366
T9
X1.5579Y-4.0144
X1.5579Y-4.1644
X1.5579Y-4.3144
X2.161Y-5.55
X2.311Y-5.55
X2.461Y-5.55
X2.611Y-5.55
X10.8882Y-5.5497
X11.0382Y-5.5497
X11.2681Y-5.5497
X11.4181Y-5.5497
X11.6638Y-5.5497
X11.8138Y-5.5497
X12.0476Y-5.5497
X12.1976Y-5.5497
X12.4315Y-5.5497
X12.5815Y-5.5497
X12.8094Y-5.5497
X12.9594Y-5.5497
X13.197Y-5.5497
X13.347Y-5.5497
X13.497Y-5.5497
X13.7285Y-5.5497
X13.8785Y-5.5497
X14.0285Y-5.5497
X14.3668Y-4.1271
X14.3668Y-4.2771
X14.3678Y-3.5643
X14.3678Y-3.7143
T10
X7.0209Y-4.1366
X7.2177Y-4.6366
X7.4146Y-4.1366
X7.5524Y-4.1366
X7.7492Y-4.6366
X7.9461Y-4.1366
X8.0839Y-4.1366
X8.2807Y-4.6366
X8.4776Y-4.1366
X8.6154Y-4.1366
X8.8122Y-4.6366
X9.0091Y-4.1366
X9.1469Y-4.1366
X9.3438Y-4.6366
X9.5406Y-4.1366
X12.6201Y-4.8568
X12.8169Y-4.3568
X13.0138Y-4.8568
X13.1482Y-4.8568
X13.3451Y-4.3568
X13.5419Y-4.8568
X13.6417Y-3.9949
X13.6797Y-4.8597
X13.8386Y-3.4949
X13.8766Y-4.3597
X14.0354Y-3.9949
X14.0734Y-4.8597
T11
X9.7075Y-4.4742
X9.7154Y-4.6907
X9.7232Y-4.1041
X9.9437Y-4.1041
X9.9594Y-4.4742
T12
X3.6244Y-5.4762
X3.8244Y-5.4762
X4.1543Y-5.4762
X4.3543Y-5.4762
X4.6858Y-5.4762
X4.8858Y-5.4762
X5.2173Y-5.4762
X5.4173Y-5.4762
X5.7472Y-5.4762
X5.9472Y-5.4762
X6.2803Y-5.4762
X6.4803Y-5.4762
T13
X7.1014Y-5.4695
X7.4014Y-5.4695
X7.7014Y-5.4695
X8.0014Y-5.4695
X8.3014Y-5.4695
X8.6014Y-5.4695
X8.9014Y-5.4695
X9.2014Y-5.4695
X9.5014Y-5.4695
X9.8014Y-5.4695
X10.1014Y-5.4695
X10.4014Y-5.4695
T14
X1.5728Y-4.6209
X1.5728Y-5.1563
X1.8681Y-4.6209
X1.8681Y-5.1563
X2.9059Y-5.0073
X2.9059Y-5.5427
X3.2012Y-5.0073
X3.2012Y-5.5427
T15
X2.2854Y-3.0506
X2.2854Y-4.827
X2.2854Y-6.3183
X2.2854Y-7.1844
X6.7736Y-3.0506
X6.7736Y-5.3144
X6.7736Y-6.3183
X6.7736Y-7.6719
X10.2957Y-7.2093
X10.623Y-5.2185
X14.3327Y-3.0506
X14.3327Y-4.836
X14.3327Y-6.3183
X14.3327Y-7.1935
T16
X1.7205Y-4.8886
X3.0535Y-5.275
T2
G00X3.5988Y-4.7947
M15
G01X3.65Y-4.7947
M16
G05
G00X3.5988Y-4.9404
M15
G01X3.65Y-4.9404
M16
G05
G00X3.5988Y-5.1096
M15
G01X3.65Y-5.1096
M16
G05
G00X3.5988Y-5.2553
M15
G01X3.65Y-5.2553
M16
G05
G00X4.1303Y-4.7947
M15
G01X4.1815Y-4.7947
M16
G05
G00X4.1303Y-4.9404
M15
G01X4.1815Y-4.9404
M16
G05
G00X4.1303Y-5.1096
M15
G01X4.1815Y-5.1096
M16
G05
G00X4.1303Y-5.2553
M15
G01X4.1815Y-5.2553
M16
G05
G00X4.6618Y-4.7947
M15
G01X4.713Y-4.7947
M16
G05
G00X4.6618Y-4.9404
M15
G01X4.713Y-4.9404
M16
G05
G00X4.6618Y-5.1096
M15
G01X4.713Y-5.1096
M16
G05
G00X4.6618Y-5.2553
M15
G01X4.713Y-5.2553
M16
G05
G00X5.1933Y-4.7947
M15
G01X5.2445Y-4.7947
M16
G05
G00X5.1933Y-4.9404
M15
G01X5.2445Y-4.9404
M16
G05
G00X5.1933Y-5.1096
M15
G01X5.2445Y-5.1096
M16
G05
G00X5.1933Y-5.2553
M15
G01X5.2445Y-5.2553
M16
G05
G00X5.7248Y-4.7947
M15
G01X5.776Y-4.7947
M16
G05
G00X5.7248Y-4.9404
M15
G01X5.776Y-4.9404
M16
G05
G00X5.7248Y-5.1096
M15
G01X5.776Y-5.1096
M16
G05
G00X5.7248Y-5.2553
M15
G01X5.776Y-5.2553
M16
G05
G00X6.2563Y-4.7947
M15
G01X6.3075Y-4.7947
M16
G05
G00X6.2563Y-4.9404
M15
G01X6.3075Y-4.9404
M16
G05
G00X6.2563Y-5.1096
M15
G01X6.3075Y-5.1096
M16
G05
G00X6.2563Y-5.2553
M15
G01X6.3075Y-5.2553
M16
G05
G00X7.0118Y-4.8059
M15
G01X7.063Y-4.8059
M16
G05
G00X7.0118Y-4.9516
M15
G01X7.063Y-4.9516
M16
G05
G00X7.0118Y-5.1209
M15
G01X7.063Y-5.1209
M16
G05
G00X7.0118Y-5.2665
M15
G01X7.063Y-5.2665
M16
G05
G00X7.6053Y-4.8069
M15
G01X7.6565Y-4.8069
M16
G05
G00X7.6053Y-4.9526
M15
G01X7.6565Y-4.9526
M16
G05
G00X7.6053Y-5.1219
M15
G01X7.6565Y-5.1219
M16
G05
G00X7.6053Y-5.2675
M15
G01X7.6565Y-5.2675
M16
G05
G00X8.2047Y-4.8069
M15
G01X8.2559Y-4.8069
M16
G05
G00X8.2047Y-4.9526
M15
G01X8.2559Y-4.9526
M16
G05
G00X8.2047Y-5.1219
M15
G01X8.2559Y-5.1219
M16
G05
G00X8.2047Y-5.2675
M15
G01X8.2559Y-5.2675
M16
G05
G00X8.8081Y-4.8059
M15
G01X8.8593Y-4.8059
M16
G05
G00X8.8081Y-4.9516
M15
G01X8.8593Y-4.9516
M16
G05
G00X8.8081Y-5.1209
M15
G01X8.8593Y-5.1209
M16
G05
G00X8.8081Y-5.2665
M15
G01X8.8593Y-5.2665
M16
G05
G00X9.4173Y-4.8051
M15
G01X9.4685Y-4.8051
M16
G05
G00X9.4173Y-4.9508
M15
G01X9.4685Y-4.9508
M16
G05
G00X9.4173Y-5.1201
M15
G01X9.4685Y-5.1201
M16
G05
G00X9.4173Y-5.2657
M15
G01X9.4685Y-5.2657
M16
G05
G00X10.0049Y-4.8061
M15
G01X10.0561Y-4.8061
M16
G05
G00X10.0049Y-4.9518
M15
G01X10.0561Y-4.9518
M16
G05
G00X10.0049Y-5.1211
M15
G01X10.0561Y-5.1211
M16
G05
G00X10.0049Y-5.2667
M15
G01X10.0561Y-5.2667
M16
G05
G00X12.7659Y-2.7864
M15
G01X12.7659Y-2.9124
M16
G05
G00X13.3772Y-2.7864
M15
G01X13.3772Y-2.9124
M16
G05
G00X13.5Y-2.7852
M15
G01X13.5Y-2.9112
M16
G05
G00X14.1112Y-2.7852
M15
G01X14.1112Y-2.9112
M16
G05
M30
