M48
; DRILL file {KiCad 8.0.7} date 2025-01-14T19:51:50+0900
; FORMAT={-:-/ absolute / inch / decimal}
; #@! TF.CreationDate,2025-01-14T19:51:50+09:00
; #@! TF.GenerationSoftware,Kicad,Pcbnew,8.0.7
; #@! TF.FileFunction,Plated,1,2,PTH
FMAT,2
INCH
; #@! TA.AperFunction,Plated,PTH,ViaDrill
T1C0.0157
; #@! TA.AperFunction,Plated,PTH,ComponentDrill
T2C0.0157
; #@! TA.AperFunction,Plated,PTH,ComponentDrill
T3C0.0228
; #@! TA.AperFunction,Plated,PTH,ComponentDrill
T4C0.0276
; #@! TA.AperFunction,Plated,PTH,ComponentDrill
T5C0.0295
; #@! TA.AperFunction,Plated,PTH,ComponentDrill
T6C0.0315
; #@! TA.AperFunction,Plated,PTH,ComponentDrill
T7C0.0354
; #@! TA.AperFunction,Plated,PTH,ComponentDrill
T8C0.0413
; #@! TA.AperFunction,Plated,PTH,ComponentDrill
T9C0.0425
; #@! TA.AperFunction,Plated,PTH,ComponentDrill
T10C0.0433
; #@! TA.AperFunction,Plated,PTH,ComponentDrill
T11C0.0512
; #@! TA.AperFunction,Plated,PTH,ComponentDrill
T12C0.0551
; #@! TA.AperFunction,Plated,PTH,ComponentDrill
T13C0.0827
; #@! TA.AperFunction,Plated,PTH,ComponentDrill
T14C0.1260
; #@! TA.AperFunction,Plated,PTH,ComponentDrill
T15C0.2165
%
G90
G05
T1
X2.3492Y-3.7455
X2.3492Y-3.8427
X2.3492Y-7.3675
X2.3492Y-7.4648
X2.5268Y-3.7313
X2.5268Y-7.3533
X2.8406Y-3.5541
X2.8406Y-7.1762
X2.8957Y-3.4754
X2.8957Y-7.0974
X2.9839Y-3.9211
X2.9839Y-7.5431
X3.2992Y-3.8644
X3.2992Y-7.4864
X3.4772Y-4.5844
X3.4772Y-8.2065
X3.626Y-2.3148
X3.626Y-5.9368
X3.6264Y-3.1742
X3.6264Y-6.7963
X3.6717Y-4.5848
X3.6717Y-8.2069
X3.6882Y-3.7533
X3.6882Y-7.3754
X3.7622Y-3.3254
X3.7622Y-6.9474
X3.7661Y-3.2226
X3.7661Y-6.8447
X3.8118Y-3.2573
X3.8118Y-6.8793
X3.8449Y-3.7841
X3.8449Y-7.4061
X3.8535Y-1.8927
X3.8535Y-5.5148
X3.8654Y-3.3254
X3.8654Y-6.9474
X3.8752Y-4.4526
X3.8752Y-4.5116
X3.8752Y-4.5707
X3.8752Y-8.0746
X3.8752Y-8.1337
X3.8752Y-8.1927
X3.8894Y-2.8163
X3.8894Y-6.4384
X3.939Y-2.9896
X3.939Y-6.6116
X3.9539Y-4.4526
X3.9539Y-4.5116
X3.9539Y-4.5707
X3.9539Y-8.0746
X3.9539Y-8.1337
X3.9539Y-8.1927
X3.9604Y-3.8258
X3.9604Y-7.4479
X3.9622Y-3.5608
X3.9622Y-7.1829
X3.9835Y-2.6766
X3.9835Y-6.2986
X3.985Y-4.188
X3.985Y-7.81
X3.9852Y-4.227
X3.9852Y-4.2663
X3.9852Y-4.3057
X3.9852Y-7.849
X3.9852Y-7.8884
X3.9852Y-7.9277
X3.9897Y-4.1153
X3.9897Y-7.7373
X4.0114Y-3.5608
X4.0114Y-7.1829
X4.0209Y-3.8848
X4.0209Y-7.5069
X4.0246Y-4.3196
X4.0246Y-7.9416
X4.0268Y-2.9896
X4.0268Y-3.1919
X4.0268Y-6.6116
X4.0268Y-6.814
X4.0327Y-4.4526
X4.0327Y-4.5116
X4.0327Y-4.5707
X4.0327Y-8.0746
X4.0327Y-8.1337
X4.0327Y-8.1927
X4.0555Y-2.5888
X4.0555Y-6.2108
X4.0571Y-3.2841
X4.0571Y-6.9061
X4.0606Y-3.5604
X4.0606Y-7.1825
X4.0679Y-4.3196
X4.0679Y-7.9416
X4.0756Y-4.1566
X4.0756Y-7.7786
X4.0996Y-3.9132
X4.0996Y-7.5352
X4.1031Y-4.1881
X4.1031Y-7.8101
X4.1033Y-4.227
X4.1033Y-4.2664
X4.1033Y-4.3058
X4.1033Y-7.8491
X4.1033Y-7.8885
X4.1033Y-7.9278
X4.1169Y-2.9892
X4.1169Y-6.6112
X4.1268Y-2.9341
X4.1268Y-6.5561
X4.135Y-3.5474
X4.135Y-7.1695
X4.1622Y-4.5844
X4.1622Y-8.2065
X4.1634Y-3.5171
X4.1634Y-7.1392
X4.1657Y-3.3896
X4.1657Y-7.0116
X4.1713Y-2.925
X4.1713Y-6.547
X4.2087Y-3.553
X4.2087Y-7.175
X4.2094Y-3.36
X4.2094Y-6.9821
X4.2169Y-2.9892
X4.2169Y-6.6112
X4.2276Y-2.5888
X4.2276Y-6.2108
X4.2713Y-3.038
X4.2713Y-6.66
X4.3031Y-1.8919
X4.3031Y-5.514
X4.3504Y-3.7608
X4.3504Y-7.3829
X4.3567Y-4.5848
X4.3567Y-8.2069
X4.5331Y-3.0388
X4.5331Y-3.553
X4.5331Y-6.6608
X4.5331Y-7.175
X4.5823Y-2.8837
X4.5823Y-3.553
X4.5823Y-6.5057
X4.5823Y-7.175
X4.6035Y-4.453
X4.6035Y-4.512
X4.6035Y-4.5711
X4.6035Y-8.075
X4.6035Y-8.1341
X4.6035Y-8.1931
X4.6315Y-3.553
X4.6315Y-7.175
X4.6701Y-3.7974
X4.6701Y-7.4195
X4.6807Y-3.553
X4.6807Y-7.175
X4.6823Y-4.453
X4.6823Y-4.512
X4.6823Y-4.5711
X4.6823Y-8.075
X4.6823Y-8.1341
X4.6823Y-8.1931
X4.7133Y-4.188
X4.7133Y-7.81
X4.7136Y-4.227
X4.7136Y-4.2663
X4.7136Y-4.3057
X4.7136Y-7.849
X4.7136Y-7.8884
X4.7136Y-7.9277
X4.718Y-4.1151
X4.718Y-7.7371
X4.7299Y-3.5522
X4.7299Y-7.1742
X4.7524Y-3.8797
X4.7524Y-7.5018
X4.753Y-4.3196
X4.753Y-7.9416
X4.761Y-4.453
X4.761Y-4.512
X4.761Y-4.5711
X4.761Y-8.075
X4.761Y-8.1341
X4.761Y-8.1931
X4.7622Y-3.3608
X4.7622Y-6.9829
X4.774Y-2.4656
X4.774Y-6.0876
X4.7963Y-4.3196
X4.7963Y-7.9416
X4.8039Y-4.1566
X4.8039Y-7.7786
X4.8314Y-4.1881
X4.8314Y-7.8101
X4.8317Y-4.227
X4.8317Y-4.2664
X4.8317Y-4.3058
X4.8317Y-7.8491
X4.8317Y-7.8885
X4.8317Y-7.9278
X4.8752Y-2.4337
X4.8752Y-6.0557
X4.8831Y-4.5844
X4.8831Y-8.2065
X4.9661Y-2.1955
X4.9661Y-5.8175
X4.9738Y-2.1094
X4.9738Y-5.7315
X4.9754Y-1.9553
X4.9754Y-5.5774
X5.0079Y-3.3254
X5.0079Y-6.9474
X5.0579Y-2.9628
X5.0579Y-6.5848
X5.0742Y-2.0839
X5.0742Y-5.7059
X5.0748Y-2.012
X5.0748Y-5.6341
X5.0776Y-4.5848
X5.0776Y-8.2069
X5.1303Y-3.3907
X5.1303Y-7.0128
X5.1614Y-1.9557
X5.1614Y-5.5778
X5.1654Y-2.0167
X5.1654Y-5.6388
X5.2287Y-2.1455
X5.2287Y-5.7675
X5.2559Y-1.9959
X5.2559Y-5.6179
X5.2789Y-2.1116
X5.2789Y-5.7337
X5.3075Y-2.9246
X5.3075Y-6.5467
X5.3256Y-1.8081
X5.3256Y-5.4301
X5.3319Y-4.4328
X5.3319Y-4.4918
X5.3319Y-4.5509
X5.3319Y-8.0548
X5.3319Y-8.1139
X5.3319Y-8.1729
X5.3439Y-2.0994
X5.3439Y-5.7215
X5.3563Y-3.1931
X5.3563Y-6.8152
X5.3579Y-2.4746
X5.3579Y-6.0967
X5.4Y-1.9565
X5.4Y-5.5785
X5.4075Y-2.5675
X5.4075Y-6.1896
X5.4083Y-3.2801
X5.4083Y-6.9022
X5.4106Y-3.4447
X5.4106Y-4.4328
X5.4106Y-4.4918
X5.4106Y-4.5509
X5.4106Y-7.0667
X5.4106Y-8.0548
X5.4106Y-8.1139
X5.4106Y-8.1729
X5.4417Y-4.1875
X5.4417Y-7.8095
X5.4419Y-4.2265
X5.4419Y-4.2658
X5.4419Y-4.3052
X5.4419Y-7.8485
X5.4419Y-7.8879
X5.4419Y-7.9273
X5.4503Y-4.1145
X5.4503Y-7.7365
X5.476Y-2.0018
X5.476Y-5.6238
X5.4813Y-4.3191
X5.4813Y-7.9411
X5.4854Y-3.8608
X5.4854Y-7.4829
X5.4894Y-4.4328
X5.4894Y-4.4918
X5.4894Y-4.5509
X5.4894Y-8.0548
X5.4894Y-8.1139
X5.4894Y-8.1729
X5.5075Y-2.6549
X5.5075Y-2.9325
X5.5075Y-6.277
X5.5075Y-6.5545
X5.5246Y-4.3191
X5.5246Y-7.9411
X5.5323Y-4.1561
X5.5323Y-7.7781
X5.5583Y-2.4431
X5.5583Y-6.0652
X5.5598Y-4.1876
X5.5598Y-7.8096
X5.56Y-4.2265
X5.56Y-4.2659
X5.56Y-4.3053
X5.56Y-7.8486
X5.56Y-7.888
X5.56Y-7.9273
X5.5673Y-3.2199
X5.5673Y-6.8419
X5.5689Y-4.5844
X5.5689Y-8.2065
X5.6083Y-3.4703
X5.6083Y-7.0923
X5.6154Y-1.9569
X5.6154Y-5.5789
X5.6209Y-2.0577
X5.6209Y-5.6797
X5.7083Y-3.9482
X5.7083Y-7.5703
X5.7634Y-4.5848
X5.7634Y-8.2069
X5.8091Y-3.923
X5.8091Y-7.5451
X5.8567Y-3.536
X5.8567Y-7.1581
X5.8571Y-3.1612
X5.8571Y-6.7833
X5.8583Y-2.1978
X5.8583Y-3.0738
X5.8583Y-5.8199
X5.8583Y-6.6959
X5.9083Y-3.9045
X5.9083Y-7.5266
X6.0098Y-3.5451
X6.0098Y-7.1671
X6.0587Y-3.8829
X6.0587Y-7.5049
X6.1161Y-3.0049
X6.1161Y-6.627
X6.1579Y-2.7841
X6.1579Y-6.4061
X6.1925Y-1.8041
X6.1925Y-5.4262
X6.2512Y-2.9305
X6.2512Y-6.5526
X6.2583Y-1.797
X6.2583Y-5.4191
X6.302Y-3.2494
X6.302Y-6.8715
X6.3031Y-3.5817
X6.3031Y-7.2037
X6.3437Y-2.9573
X6.3437Y-6.5793
X6.3575Y-2.3931
X6.3575Y-6.0152
X6.4165Y-2.4915
X6.4165Y-6.1136
X6.4217Y-2.1148
X6.4217Y-5.7368
X6.4575Y-3.1341
X6.4575Y-6.7561
X6.4579Y-3.4045
X6.4579Y-7.0266
X6.4925Y-2.0809
X6.4925Y-5.703
X6.5071Y-2.4915
X6.5071Y-6.1136
X6.5087Y-2.8297
X6.5087Y-6.4518
X6.5504Y-1.775
X6.5504Y-5.397
X6.6079Y-3.0738
X6.6079Y-6.6959
X6.6087Y-2.4923
X6.6087Y-6.1144
X6.6366Y-4.5844
X6.6366Y-8.2065
X6.6575Y-2.6289
X6.6575Y-6.251
X6.749Y-2.5567
X6.749Y-6.1787
X6.8091Y-3.0478
X6.8091Y-6.6699
X6.8311Y-4.5848
X6.8311Y-8.2069
X6.8398Y-3.9514
X6.8398Y-7.5734
X6.9Y-2.8722
X6.9Y-6.4943
X6.9032Y-2.3407
X6.9032Y-5.9628
X6.952Y-2.7774
X6.952Y-6.3994
X6.9665Y-3.7411
X6.9665Y-7.3632
X7.0508Y-3.1884
X7.0508Y-6.8104
X7.0543Y-4.453
X7.0543Y-4.512
X7.0543Y-4.5711
X7.0543Y-8.075
X7.0543Y-8.1341
X7.0543Y-8.1931
X7.0638Y-3.9415
X7.0638Y-7.5636
X7.0709Y-1.9695
X7.0709Y-5.5915
X7.0996Y-3.1888
X7.0996Y-6.8108
X7.1012Y-3.4045
X7.1012Y-7.0266
X7.1331Y-4.453
X7.1331Y-4.512
X7.1331Y-4.5711
X7.1331Y-8.075
X7.1331Y-8.1341
X7.1331Y-8.1931
X7.1339Y-2.1285
X7.1339Y-5.7506
X7.1641Y-4.188
X7.1641Y-7.81
X7.1644Y-4.2269
X7.1644Y-4.2663
X7.1644Y-4.3057
X7.1644Y-7.849
X7.1644Y-7.8883
X7.1644Y-7.9277
X7.1693Y-4.1156
X7.1693Y-7.7376
X7.1764Y-3.6884
X7.1764Y-7.3104
X7.1835Y-3.9014
X7.1835Y-7.5234
X7.1984Y-3.1904
X7.1984Y-6.8124
X7.2037Y-4.3195
X7.2037Y-7.9416
X7.2118Y-4.453
X7.2118Y-4.512
X7.2118Y-4.5711
X7.2118Y-8.075
X7.2118Y-8.1341
X7.2118Y-8.1931
X7.2232Y-2.4608
X7.2232Y-6.0829
X7.2264Y-2.6285
X7.2264Y-6.2506
X7.2311Y-2.1014
X7.2311Y-5.7234
X7.237Y-3.4892
X7.237Y-7.1112
X7.247Y-4.3195
X7.247Y-7.9416
X7.2547Y-4.1565
X7.2547Y-7.7786
X7.2819Y-2.464
X7.2819Y-6.086
X7.2822Y-4.188
X7.2822Y-7.8101
X7.2825Y-4.227
X7.2825Y-4.2664
X7.2825Y-4.3057
X7.2825Y-7.8491
X7.2825Y-7.8884
X7.2825Y-7.9278
X7.2835Y-2.8163
X7.2835Y-6.4384
X7.2969Y-3.188
X7.2969Y-6.81
X7.3012Y-4.5844
X7.3012Y-8.2065
X7.3313Y-2.201
X7.3313Y-5.823
X7.3563Y-2.5931
X7.3563Y-2.9762
X7.3563Y-6.2152
X7.3563Y-6.5982
X7.3567Y-2.3049
X7.3567Y-5.927
X7.3571Y-2.4742
X7.3571Y-6.0963
X7.3921Y-3.2797
X7.3921Y-6.9018
X7.437Y-3.0297
X7.437Y-6.6518
X7.4843Y-3.3018
X7.4843Y-6.9238
X7.4957Y-4.5848
X7.4957Y-8.2069
X7.5839Y-3.8337
X7.5839Y-7.4557
X7.5866Y-3.397
X7.5866Y-7.0191
X7.637Y-2.3132
X7.637Y-5.9352
X7.6705Y-3.1825
X7.6705Y-6.8045
X7.7335Y-2.4443
X7.7335Y-6.0663
X7.7343Y-2.8533
X7.7343Y-6.4754
X7.735Y-3.1089
X7.735Y-6.7309
X7.7628Y-4.4333
X7.7628Y-4.4924
X7.7628Y-4.5514
X7.7628Y-8.0554
X7.7628Y-8.1144
X7.7628Y-8.1735
X7.7689Y-3.1829
X7.7689Y-6.8049
X7.7756Y-3.0384
X7.7756Y-6.6604
X7.787Y-3.3242
X7.787Y-3.6888
X7.787Y-6.9463
X7.787Y-7.3108
X7.8008Y-2.4435
X7.8008Y-6.0656
X7.8181Y-2.9671
X7.8181Y-6.5892
X7.8185Y-3.1825
X7.8185Y-6.8045
X7.8409Y-2.4435
X7.8409Y-6.0656
X7.8415Y-4.4333
X7.8415Y-4.4924
X7.8415Y-4.5514
X7.8415Y-8.0554
X7.8415Y-8.1144
X7.8415Y-8.1735
X7.8453Y-3.9683
X7.8453Y-7.5904
X7.8571Y-4.0089
X7.8571Y-7.6309
X7.8727Y-4.188
X7.8727Y-7.81
X7.873Y-4.2269
X7.873Y-4.2663
X7.873Y-4.3057
X7.873Y-7.849
X7.873Y-7.8883
X7.873Y-7.9277
X7.8756Y-2.2348
X7.8756Y-5.8569
X7.8789Y-4.1156
X7.8789Y-7.7376
X7.8917Y-3.1805
X7.8917Y-6.8026
X7.8929Y-2.0943
X7.8929Y-5.7163
X7.9124Y-4.3195
X7.9124Y-7.9416
X7.9202Y-4.4333
X7.9202Y-4.4924
X7.9202Y-4.5514
X7.9202Y-8.0554
X7.9202Y-8.1144
X7.9202Y-8.1735
X7.9557Y-4.3195
X7.9557Y-7.9416
X7.9633Y-4.1565
X7.9633Y-7.7786
X7.9815Y-2.6746
X7.9815Y-6.2967
X7.9908Y-4.188
X7.9908Y-7.8101
X7.9911Y-4.227
X7.9911Y-4.2664
X7.9911Y-4.3057
X7.9911Y-7.8491
X7.9911Y-7.8884
X7.9911Y-7.9278
X8.0142Y-4.5844
X8.0142Y-8.2065
X8.1Y-3.5864
X8.1Y-7.2085
X8.1024Y-2.551
X8.1024Y-6.173
X8.1346Y-2.1935
X8.1346Y-5.8156
X8.1449Y-2.9864
X8.1449Y-6.6085
X8.2087Y-4.5848
X8.2087Y-8.2069
X8.322Y-3.0596
X8.322Y-6.6817
X8.4709Y-4.4333
X8.4709Y-4.4923
X8.4709Y-4.5514
X8.4709Y-8.0553
X8.4709Y-8.1144
X8.4709Y-8.1734
X8.5496Y-3.9506
X8.5496Y-4.4333
X8.5496Y-4.4923
X8.5496Y-4.5514
X8.5496Y-7.5726
X8.5496Y-8.0553
X8.5496Y-8.1144
X8.5496Y-8.1734
X8.5816Y-4.1879
X8.5816Y-7.81
X8.5819Y-4.2269
X8.5819Y-4.2663
X8.5819Y-4.3056
X8.5819Y-7.8489
X8.5819Y-7.8883
X8.5819Y-7.9277
X8.589Y-4.1156
X8.589Y-7.7376
X8.6098Y-3.2967
X8.6098Y-6.9187
X8.6213Y-4.3195
X8.6213Y-7.9415
X8.624Y-3.597
X8.624Y-7.2191
X8.6283Y-4.4333
X8.6283Y-4.4923
X8.6283Y-4.5514
X8.6283Y-8.0553
X8.6283Y-8.1144
X8.6283Y-8.1734
X8.6646Y-4.3195
X8.6646Y-7.9415
X8.6722Y-4.1565
X8.6722Y-7.7785
X8.6929Y-3.5478
X8.6929Y-7.1699
X8.6997Y-4.188
X8.6997Y-7.81
X8.7Y-4.227
X8.7Y-4.2663
X8.7Y-4.3057
X8.7Y-7.849
X8.7Y-7.8884
X8.7Y-7.9278
X8.7268Y-3.5152
X8.7268Y-7.1372
X8.7358Y-4.5844
X8.7358Y-8.2065
X8.7697Y-4.2179
X8.7697Y-7.84
X8.7803Y-4.0691
X8.7803Y-7.6911
X8.9303Y-4.5848
X8.9303Y-8.2069
X9.0854Y-4.7423
X9.0854Y-4.8132
X9.0854Y-8.3644
X9.0854Y-8.4352
X9.1563Y-4.7423
X9.1563Y-4.8132
X9.1563Y-8.3644
X9.1563Y-8.4352
X9.2272Y-4.7423
X9.2272Y-4.8132
X9.2272Y-8.3644
X9.2272Y-8.4352
X9.298Y-4.7423
X9.298Y-4.8132
X9.298Y-8.3644
X9.298Y-8.4352
X9.6768Y-2.2569
X9.6768Y-5.8789
X9.7335Y-2.9691
X9.7335Y-6.5911
X9.7339Y-3.5691
X9.7339Y-7.1911
X9.8933Y-2.2557
X9.8933Y-5.8778
T3
X3.4811Y-2.8158
X3.4811Y-6.4379
X3.5811Y-2.8158
X3.5811Y-6.4379
X3.6811Y-2.8158
X3.6811Y-6.4379
T4
X8.4205Y-2.1994
X8.4205Y-2.5931
X8.4205Y-2.7262
X8.4205Y-3.1199
X8.4205Y-3.2506
X8.4205Y-3.6443
X8.4205Y-5.8215
X8.4205Y-6.2152
X8.4205Y-6.3482
X8.4205Y-6.7419
X8.4205Y-6.8726
X8.4205Y-7.2663
T5
X4.9083Y-2.738
X4.9083Y-3.738
X4.9083Y-6.36
X4.9083Y-7.36
X5.0083Y-2.738
X5.0083Y-3.738
X5.0083Y-6.36
X5.0083Y-7.36
X5.1083Y-2.738
X5.1083Y-3.738
X5.1083Y-6.36
X5.1083Y-7.36
X5.2083Y-2.738
X5.2083Y-3.738
X5.2083Y-6.36
X5.2083Y-7.36
X5.3083Y-2.738
X5.3083Y-3.738
X5.3083Y-6.36
X5.3083Y-7.36
X5.4083Y-2.738
X5.4083Y-3.738
X5.4083Y-6.36
X5.4083Y-7.36
X5.5083Y-2.738
X5.5083Y-3.738
X5.5083Y-6.36
X5.5083Y-7.36
X5.6083Y-2.738
X5.6083Y-3.738
X5.6083Y-6.36
X5.6083Y-7.36
X5.7083Y-2.738
X5.7083Y-3.738
X5.7083Y-6.36
X5.7083Y-7.36
X5.8083Y-2.738
X5.8083Y-3.738
X5.8083Y-6.36
X5.8083Y-7.36
X5.9083Y-2.738
X5.9083Y-3.738
X5.9083Y-6.36
X5.9083Y-7.36
X6.0083Y-2.738
X6.0083Y-3.738
X6.0083Y-6.36
X6.0083Y-7.36
X6.1083Y-2.738
X6.1083Y-3.738
X6.1083Y-6.36
X6.1083Y-7.36
X6.2083Y-2.738
X6.2083Y-3.738
X6.2083Y-6.36
X6.2083Y-7.36
X6.3083Y-2.738
X6.3083Y-3.738
X6.3083Y-6.36
X6.3083Y-7.36
X6.4083Y-2.738
X6.4083Y-3.738
X6.4083Y-6.36
X6.4083Y-7.36
X6.5083Y-2.738
X6.5083Y-3.738
X6.5083Y-6.36
X6.5083Y-7.36
X6.6083Y-2.738
X6.6083Y-3.738
X6.6083Y-6.36
X6.6083Y-7.36
X6.7083Y-2.738
X6.7083Y-3.738
X6.7083Y-6.36
X6.7083Y-7.36
X6.8083Y-2.738
X6.8083Y-3.738
X6.8083Y-6.36
X6.8083Y-7.36
T6
X3.4961Y-1.9805
X3.4961Y-5.6026
X3.5945Y-1.9805
X3.5945Y-5.6026
X4.1276Y-2.6761
X4.1276Y-2.7761
X4.1276Y-6.2981
X4.1276Y-6.3981
X4.2276Y-2.6761
X4.2276Y-2.7761
X4.2276Y-6.2981
X4.2276Y-6.3981
X4.3276Y-2.6761
X4.3276Y-2.7761
X4.3276Y-6.2981
X4.3276Y-6.3981
X4.4276Y-2.6761
X4.4276Y-2.7761
X4.4276Y-6.2981
X4.4276Y-6.3981
X4.5276Y-2.6761
X4.5276Y-2.7761
X4.5276Y-6.2981
X4.5276Y-6.3981
X4.6276Y-2.6761
X4.6276Y-2.7761
X4.6276Y-6.2981
X4.6276Y-6.3981
X6.41Y-1.9815
X6.41Y-5.6035
X6.5085Y-1.9815
X6.5085Y-5.6035
X6.6069Y-1.9815
X6.6069Y-5.6035
X6.7053Y-1.9815
X6.7053Y-5.6035
X7.237Y-3.6385
X7.237Y-3.7385
X7.237Y-7.2605
X7.237Y-7.3605
X7.337Y-3.6385
X7.337Y-3.7385
X7.337Y-7.2605
X7.337Y-7.3605
X7.437Y-3.6385
X7.437Y-3.7385
X7.437Y-7.2605
X7.437Y-7.3605
X7.537Y-3.6385
X7.537Y-3.7385
X7.537Y-7.2605
X7.537Y-7.3605
X7.637Y-3.6385
X7.637Y-3.7385
X7.637Y-7.2605
X7.637Y-7.3605
X7.737Y-3.6385
X7.737Y-3.7385
X7.737Y-7.2605
X7.737Y-7.3605
X7.837Y-3.6385
X7.837Y-3.7385
X7.837Y-7.2605
X7.837Y-7.3605
T7
X4.7754Y-1.8631
X4.7754Y-5.4852
X4.8754Y-1.8631
X4.8754Y-5.4852
X4.9754Y-1.8631
X4.9754Y-5.4852
X5.0754Y-1.8631
X5.0754Y-5.4852
X5.1754Y-1.8631
X5.1754Y-5.4852
X5.2754Y-1.8631
X5.2754Y-5.4852
X5.3754Y-1.8631
X5.3754Y-5.4852
X5.4754Y-1.8631
X5.4754Y-5.4852
X5.5754Y-1.8631
X5.5754Y-5.4852
X5.6754Y-1.8631
X5.6754Y-5.4852
T8
X9.6239Y-4.0679
X9.6239Y-4.2179
X9.6239Y-7.69
X9.6239Y-7.84
X9.6286Y-2.4211
X9.6286Y-2.5711
X9.6286Y-6.0431
X9.6286Y-6.1931
T9
X2.7713Y-3.1754
X2.7713Y-3.3254
X2.7713Y-3.4754
X2.7713Y-3.6254
X2.7713Y-6.7974
X2.7713Y-6.9474
X2.7713Y-7.0974
X2.7713Y-7.2474
X3.2437Y-3.136
X3.2437Y-3.286
X3.2437Y-3.5148
X3.2437Y-3.6648
X3.2437Y-6.7581
X3.2437Y-6.9081
X3.2437Y-7.1368
X3.2437Y-7.2868
T10
X8.322Y-2.3963
X8.322Y-2.923
X8.322Y-3.4474
X8.322Y-6.0183
X8.322Y-6.5451
X8.322Y-7.0695
X8.822Y-2.1994
X8.822Y-2.5931
X8.822Y-2.7262
X8.822Y-3.1199
X8.822Y-3.2506
X8.822Y-3.6443
X8.822Y-5.8215
X8.822Y-6.2152
X8.822Y-6.3482
X8.822Y-6.7419
X8.822Y-6.8726
X8.822Y-7.2663
T11
X3.148Y-4.0282
X3.148Y-7.6503
X3.3685Y-4.0282
X3.3685Y-7.6503
X6.2823Y-4.0283
X6.2823Y-7.6503
X6.5028Y-4.0283
X6.5028Y-7.6503
T12
X3.1323Y-4.3983
X3.1323Y-8.0204
X3.1402Y-4.6148
X3.1402Y-8.2369
X3.3409Y-4.9691
X3.3409Y-8.5911
X3.3843Y-4.3983
X3.3843Y-8.0204
X3.6409Y-4.9691
X3.6409Y-8.5911
X3.9409Y-4.9691
X3.9409Y-8.5911
X4.2409Y-4.9691
X4.2409Y-8.5911
X4.5409Y-4.9691
X4.5409Y-8.5911
X4.8409Y-4.9691
X4.8409Y-8.5911
X5.1409Y-4.9691
X5.1409Y-8.5911
X5.4409Y-4.9691
X5.4409Y-8.5911
X6.2665Y-4.3983
X6.2665Y-8.0204
X6.2744Y-4.6149
X6.2744Y-8.2369
X6.4711Y-4.964
X6.4711Y-8.586
X6.5185Y-4.3983
X6.5185Y-8.0204
X6.7711Y-4.964
X6.7711Y-8.586
X7.0711Y-4.964
X7.0711Y-8.586
X7.3711Y-4.964
X7.3711Y-8.586
X7.6711Y-4.964
X7.6711Y-8.586
X7.9711Y-4.964
X7.9711Y-8.586
X8.2711Y-4.964
X8.2711Y-8.586
X8.5711Y-4.964
X8.5711Y-8.586
X9.5417Y-2.8687
X9.5417Y-3.1687
X9.5417Y-3.4687
X9.5417Y-3.7687
X9.5417Y-6.4907
X9.5417Y-6.7907
X9.5417Y-7.0907
X9.5417Y-7.3907
T13
X2.3376Y-4.2671
X2.3376Y-4.5624
X2.3376Y-7.8892
X2.3376Y-8.1844
X2.3386Y-2.4262
X2.3386Y-2.7215
X2.3386Y-6.0482
X2.3386Y-6.3435
X2.873Y-4.2671
X2.873Y-4.5624
X2.873Y-7.8892
X2.873Y-8.1844
X2.874Y-2.4262
X2.874Y-2.7215
X2.874Y-6.0482
X2.874Y-6.3435
T14
X3.0896Y-1.9738
X3.0896Y-5.5959
X5.9776Y-4.4148
X5.9776Y-8.0368
X8.8002Y-1.9738
X8.8002Y-5.5959
T15
X2.6053Y-4.4148
X2.6053Y-8.0368
X2.6063Y-2.5738
X2.6063Y-6.1959
T2
G00X3.1114Y-4.7959
M15
G01X3.1114Y-4.7447
M16
G05
G00X3.1114Y-8.4179
M15
G01X3.1114Y-8.3667
M16
G05
G00X3.2571Y-4.7959
M15
G01X3.2571Y-4.7447
M16
G05
G00X3.2571Y-8.4179
M15
G01X3.2571Y-8.3667
M16
G05
G00X3.4264Y-4.7959
M15
G01X3.4264Y-4.7447
M16
G05
G00X3.4264Y-8.4179
M15
G01X3.4264Y-8.3667
M16
G05
G00X3.572Y-4.7959
M15
G01X3.572Y-4.7447
M16
G05
G00X3.572Y-8.4179
M15
G01X3.572Y-8.3667
M16
G05
G00X3.8837Y-4.7959
M15
G01X3.8837Y-4.7447
M16
G05
G00X3.8837Y-8.4179
M15
G01X3.8837Y-8.3667
M16
G05
G00X4.0293Y-4.7959
M15
G01X4.0293Y-4.7447
M16
G05
G00X4.0293Y-8.4179
M15
G01X4.0293Y-8.3667
M16
G05
G00X4.1986Y-4.7959
M15
G01X4.1986Y-4.7447
M16
G05
G00X4.1986Y-8.4179
M15
G01X4.1986Y-8.3667
M16
G05
G00X4.3443Y-4.7959
M15
G01X4.3443Y-4.7447
M16
G05
G00X4.3443Y-8.4179
M15
G01X4.3443Y-8.3667
M16
G05
G00X4.612Y-4.7959
M15
G01X4.612Y-4.7447
M16
G05
G00X4.612Y-8.4179
M15
G01X4.612Y-8.3667
M16
G05
G00X4.7577Y-4.7959
M15
G01X4.7577Y-4.7447
M16
G05
G00X4.7577Y-8.4179
M15
G01X4.7577Y-8.3667
M16
G05
G00X4.927Y-4.7959
M15
G01X4.927Y-4.7447
M16
G05
G00X4.927Y-8.4179
M15
G01X4.927Y-8.3667
M16
G05
G00X5.0726Y-4.7959
M15
G01X5.0726Y-4.7447
M16
G05
G00X5.0726Y-8.4179
M15
G01X5.0726Y-8.3667
M16
G05
G00X5.3404Y-4.7959
M15
G01X5.3404Y-4.7447
M16
G05
G00X5.3404Y-8.4179
M15
G01X5.3404Y-8.3667
M16
G05
G00X5.486Y-4.7959
M15
G01X5.486Y-4.7447
M16
G05
G00X5.486Y-8.4179
M15
G01X5.486Y-8.3667
M16
G05
G00X5.6553Y-4.7959
M15
G01X5.6553Y-4.7447
M16
G05
G00X5.6553Y-8.4179
M15
G01X5.6553Y-8.3667
M16
G05
G00X5.801Y-4.7959
M15
G01X5.801Y-4.7447
M16
G05
G00X5.801Y-8.4179
M15
G01X5.801Y-8.3667
M16
G05
G00X6.252Y-4.7959
M15
G01X6.252Y-4.7447
M16
G05
G00X6.252Y-8.4179
M15
G01X6.252Y-8.3667
M16
G05
G00X6.3976Y-4.7959
M15
G01X6.3976Y-4.7447
M16
G05
G00X6.3976Y-8.4179
M15
G01X6.3976Y-8.3667
M16
G05
G00X6.5669Y-4.7959
M15
G01X6.5669Y-4.7447
M16
G05
G00X6.5669Y-8.4179
M15
G01X6.5669Y-8.3667
M16
G05
G00X6.7126Y-4.7959
M15
G01X6.7126Y-4.7447
M16
G05
G00X6.7126Y-8.4179
M15
G01X6.7126Y-8.3667
M16
G05
G00X7.0632Y-4.7959
M15
G01X7.0632Y-4.7447
M16
G05
G00X7.0632Y-8.4179
M15
G01X7.0632Y-8.3667
M16
G05
G00X7.2089Y-4.7959
M15
G01X7.2089Y-4.7447
M16
G05
G00X7.2089Y-8.4179
M15
G01X7.2089Y-8.3667
M16
G05
G00X7.3781Y-4.7959
M15
G01X7.3781Y-4.7447
M16
G05
G00X7.3781Y-8.4179
M15
G01X7.3781Y-8.3667
M16
G05
G00X7.5238Y-4.7959
M15
G01X7.5238Y-4.7447
M16
G05
G00X7.5238Y-8.4179
M15
G01X7.5238Y-8.3667
M16
G05
G00X7.7719Y-4.7959
M15
G01X7.7719Y-4.7447
M16
G05
G00X7.7719Y-8.4179
M15
G01X7.7719Y-8.3667
M16
G05
G00X7.9175Y-4.7959
M15
G01X7.9175Y-4.7447
M16
G05
G00X7.9175Y-8.4179
M15
G01X7.9175Y-8.3667
M16
G05
G00X8.0868Y-4.7959
M15
G01X8.0868Y-4.7447
M16
G05
G00X8.0868Y-8.4179
M15
G01X8.0868Y-8.3667
M16
G05
G00X8.2325Y-4.7959
M15
G01X8.2325Y-4.7447
M16
G05
G00X8.2325Y-8.4179
M15
G01X8.2325Y-8.3667
M16
G05
G00X8.4805Y-4.7959
M15
G01X8.4805Y-4.7447
M16
G05
G00X8.4805Y-8.4179
M15
G01X8.4805Y-8.3667
M16
G05
G00X8.6262Y-4.7959
M15
G01X8.6262Y-4.7447
M16
G05
G00X8.6262Y-8.4179
M15
G01X8.6262Y-8.3667
M16
G05
G00X8.7955Y-4.7959
M15
G01X8.7955Y-4.7447
M16
G05
G00X8.7955Y-8.4179
M15
G01X8.7955Y-8.3667
M16
G05
G00X8.9411Y-4.7959
M15
G01X8.9411Y-4.7447
M16
G05
G00X8.9411Y-8.4179
M15
G01X8.9411Y-8.3667
M16
G05
G00X9.1972Y-2.7805
M15
G01X9.1461Y-2.7805
M16
G05
G00X9.1972Y-2.9262
M15
G01X9.1461Y-2.9262
M16
G05
G00X9.1972Y-3.0955
M15
G01X9.1461Y-3.0955
M16
G05
G00X9.1972Y-3.2411
M15
G01X9.1461Y-3.2411
M16
G05
G00X9.1972Y-3.4254
M15
G01X9.1461Y-3.4254
M16
G05
G00X9.1972Y-3.5711
M15
G01X9.1461Y-3.5711
M16
G05
G00X9.1972Y-3.7404
M15
G01X9.1461Y-3.7404
M16
G05
G00X9.1972Y-3.886
M15
G01X9.1461Y-3.886
M16
G05
G00X9.1972Y-6.4026
M15
G01X9.1461Y-6.4026
M16
G05
G00X9.1972Y-6.5482
M15
G01X9.1461Y-6.5482
M16
G05
G00X9.1972Y-6.7175
M15
G01X9.1461Y-6.7175
M16
G05
G00X9.1972Y-6.8632
M15
G01X9.1461Y-6.8632
M16
G05
G00X9.1972Y-7.0474
M15
G01X9.1461Y-7.0474
M16
G05
G00X9.1972Y-7.1931
M15
G01X9.1461Y-7.1931
M16
G05
G00X9.1972Y-7.3624
M15
G01X9.1461Y-7.3624
M16
G05
G00X9.1972Y-7.5081
M15
G01X9.1461Y-7.5081
M16
G05
M30
