%TF.GenerationSoftware,KiCad,Pcbnew,8.0.4*%
%TF.CreationDate,2024-09-25T08:52:03+09:00*%
%TF.ProjectId,FullHouse_Cover_V6.0,46756c6c-486f-4757-9365-5f436f766572,rev?*%
%TF.SameCoordinates,Original*%
%TF.FileFunction,Profile,NP*%
%FSLAX46Y46*%
G04 Gerber Fmt 4.6, Leading zero omitted, Abs format (unit mm)*
G04 Created by KiCad (PCBNEW 8.0.4) date 2024-09-25 08:52:03*
%MOMM*%
%LPD*%
G01*
G04 APERTURE LIST*
%TA.AperFunction,Profile*%
%ADD10C,0.050000*%
%TD*%
%TA.AperFunction,Profile*%
%ADD11C,0.120000*%
%TD*%
G04 APERTURE END LIST*
D10*
X79912000Y-213250000D02*
X263150000Y-213250000D01*
X370640000Y-156450000D02*
X373140000Y-156450000D01*
X50640000Y-219830000D02*
X50640000Y-215250000D01*
X52650000Y-198250000D02*
G75*
G02*
X50650000Y-196250000I0J2000000D01*
G01*
X267650000Y-221830000D02*
G75*
G02*
X265650000Y-219830000I0J2000000D01*
G01*
X373140000Y-156450000D02*
G75*
G02*
X375140000Y-158450000I0J-2000000D01*
G01*
X59750000Y-209250000D02*
X59750000Y-200250000D01*
X373140000Y-170780000D02*
X367910000Y-170780000D01*
X370640000Y-156450000D02*
G75*
G02*
X366640000Y-152450000I0J4000000D01*
G01*
X270140000Y-151450000D02*
X270140000Y-152450000D01*
X52640000Y-221830000D02*
G75*
G02*
X50640000Y-219830000I0J2000000D01*
G01*
X95750000Y-205250000D02*
G75*
G02*
X97750000Y-203250000I2000000J0D01*
G01*
X366640000Y-151450000D02*
X366640000Y-152450000D01*
X265650000Y-205250000D02*
X265650000Y-214308000D01*
X363800000Y-149450000D02*
X272140000Y-149450000D01*
X366610000Y-172080000D02*
G75*
G02*
X367910000Y-170780000I1300000J0D01*
G01*
X367910000Y-195375000D02*
G75*
G02*
X366610000Y-194075000I0J1300000D01*
G01*
X263150000Y-213250000D02*
G75*
G02*
X263650000Y-213750000I0J-500000D01*
G01*
X373140000Y-195375000D02*
G75*
G02*
X375140000Y-197375000I0J-2000000D01*
G01*
X174640000Y-152450000D02*
X174640000Y-151450000D01*
X74388000Y-213250000D02*
X52640000Y-213250000D01*
X260140000Y-149450000D02*
X184640000Y-149450000D01*
X50650000Y-151450000D02*
X50650000Y-196250000D01*
X97750000Y-203250000D02*
X263650000Y-203250000D01*
X267650000Y-221830000D02*
X373140000Y-221830000D01*
X182640000Y-152450000D02*
G75*
G02*
X174640000Y-152450000I-4000000J0D01*
G01*
X263650000Y-213750000D02*
X263650000Y-214308000D01*
X95750000Y-209250000D02*
G75*
G02*
X93750000Y-211250000I-2000000J0D01*
G01*
X79912000Y-211250000D02*
X93750000Y-211250000D01*
X270140000Y-152450000D02*
G75*
G02*
X262140000Y-152450000I-4000000J0D01*
G01*
X260140000Y-149450000D02*
G75*
G02*
X262140000Y-151450000I0J-2000000D01*
G01*
X375140000Y-158450000D02*
X375140000Y-168780000D01*
X375140000Y-219830000D02*
G75*
G02*
X373140000Y-221830000I-2000000J0D01*
G01*
X263650000Y-203250000D02*
G75*
G02*
X265650000Y-205250000I0J-2000000D01*
G01*
X375140000Y-197375000D02*
X375140000Y-219830000D01*
X366610000Y-172080000D02*
X366610000Y-194075000D01*
X270140000Y-151450000D02*
G75*
G02*
X272140000Y-149450000I2000000J0D01*
G01*
X50650000Y-151450000D02*
G75*
G02*
X52650000Y-149450000I2000000J0D01*
G01*
X52650000Y-198250000D02*
X57750000Y-198250000D01*
X364640000Y-149450000D02*
G75*
G02*
X366640000Y-151450000I0J-2000000D01*
G01*
X61750000Y-211250000D02*
G75*
G02*
X59750000Y-209250000I0J2000000D01*
G01*
X261650000Y-221830000D02*
X52640000Y-221830000D01*
X182640000Y-151450000D02*
X182640000Y-152450000D01*
X263650000Y-219830000D02*
G75*
G02*
X261650000Y-221830000I-2000000J0D01*
G01*
X50640000Y-215250000D02*
G75*
G02*
X52640000Y-213250000I2000000J0D01*
G01*
X373140000Y-195375000D02*
X367910000Y-195375000D01*
X57750000Y-198250000D02*
G75*
G02*
X59750000Y-200250000I0J-2000000D01*
G01*
X74388000Y-211250000D02*
X61750000Y-211250000D01*
X52650000Y-149450000D02*
X172640000Y-149450000D01*
X375140000Y-168780000D02*
G75*
G02*
X373140000Y-170780000I-2000000J0D01*
G01*
X182640000Y-151450000D02*
G75*
G02*
X184640000Y-149450000I2000000J0D01*
G01*
X95750000Y-209250000D02*
X95750000Y-205250000D01*
X363800000Y-149450000D02*
X364640000Y-149450000D01*
X262140000Y-152450000D02*
X262140000Y-151450000D01*
X172640000Y-149450000D02*
G75*
G02*
X174640000Y-151450000I0J-2000000D01*
G01*
D11*
%TO.C,SF1*%
X142920000Y-153710197D02*
X142920000Y-154710197D01*
X142920000Y-153710197D02*
X146720000Y-153710197D01*
X142920000Y-164710197D02*
X142920000Y-163710197D01*
X142920000Y-164710197D02*
X146720000Y-164710197D01*
X143170000Y-154710197D02*
X142920000Y-154710197D01*
X143170000Y-163710197D02*
X142920000Y-163710197D01*
X143170000Y-163710197D02*
X143170000Y-154710197D01*
X146470000Y-154710197D02*
X146720000Y-154710197D01*
X146470000Y-163710197D02*
X146470000Y-154710197D01*
X146470000Y-163710197D02*
X146720000Y-163710197D01*
X146720000Y-154710197D02*
X146720000Y-153710197D01*
X146720000Y-164710197D02*
X146720000Y-163710197D01*
D10*
%TO.C,SW19*%
X86450000Y-200020000D02*
X86450000Y-208780001D01*
X86670000Y-199800000D02*
X90230000Y-199799999D01*
X86670000Y-209000001D02*
X90230001Y-209000000D01*
X90450000Y-200019999D02*
X90450001Y-208780000D01*
X86450000Y-200020000D02*
G75*
G02*
X86670000Y-199800000I0J220000D01*
G01*
X86670000Y-209000001D02*
G75*
G02*
X86450000Y-208780001I-220000J0D01*
G01*
X90230000Y-199799999D02*
G75*
G02*
X90450000Y-200020000I220000J-1D01*
G01*
X90450001Y-208780000D02*
G75*
G02*
X90230000Y-209000000I-1J-220000D01*
G01*
D11*
%TO.C,SF4*%
X166920000Y-153710197D02*
X166920000Y-154710197D01*
X166920000Y-153710197D02*
X170720000Y-153710197D01*
X166920000Y-164710197D02*
X166920000Y-163710197D01*
X166920000Y-164710197D02*
X170720000Y-164710197D01*
X167170000Y-154710197D02*
X166920000Y-154710197D01*
X167170000Y-163710197D02*
X166920000Y-163710197D01*
X167170000Y-163710197D02*
X167170000Y-154710197D01*
X170470000Y-154710197D02*
X170720000Y-154710197D01*
X170470000Y-163710197D02*
X170470000Y-154710197D01*
X170470000Y-163710197D02*
X170720000Y-163710197D01*
X170720000Y-154710197D02*
X170720000Y-153710197D01*
X170720000Y-164710197D02*
X170720000Y-163710197D01*
%TO.C,SF3*%
X158920000Y-153710197D02*
X158920000Y-154710197D01*
X158920000Y-153710197D02*
X162720000Y-153710197D01*
X158920000Y-164710197D02*
X158920000Y-163710197D01*
X158920000Y-164710197D02*
X162720000Y-164710197D01*
X159170000Y-154710197D02*
X158920000Y-154710197D01*
X159170000Y-163710197D02*
X158920000Y-163710197D01*
X159170000Y-163710197D02*
X159170000Y-154710197D01*
X162470000Y-154710197D02*
X162720000Y-154710197D01*
X162470000Y-163710197D02*
X162470000Y-154710197D01*
X162470000Y-163710197D02*
X162720000Y-163710197D01*
X162720000Y-154710197D02*
X162720000Y-153710197D01*
X162720000Y-164710197D02*
X162720000Y-163710197D01*
%TO.C,SF2*%
X150920000Y-153710197D02*
X150920000Y-154710197D01*
X150920000Y-153710197D02*
X154720000Y-153710197D01*
X150920000Y-164710197D02*
X150920000Y-163710197D01*
X150920000Y-164710197D02*
X154720000Y-164710197D01*
X151170000Y-154710197D02*
X150920000Y-154710197D01*
X151170000Y-163710197D02*
X150920000Y-163710197D01*
X151170000Y-163710197D02*
X151170000Y-154710197D01*
X154470000Y-154710197D02*
X154720000Y-154710197D01*
X154470000Y-163710197D02*
X154470000Y-154710197D01*
X154470000Y-163710197D02*
X154720000Y-163710197D01*
X154720000Y-154710197D02*
X154720000Y-153710197D01*
X154720000Y-164710197D02*
X154720000Y-163710197D01*
%TO.C,U4*%
X99350000Y-157130000D02*
X97350000Y-157130000D01*
X97350000Y-178130000D01*
X99350000Y-178130000D01*
X99350000Y-157130000D01*
D10*
%TO.C,mouse-bite-2mm-slot*%
X74388000Y-211250000D02*
G75*
G02*
X74388000Y-213250000I0J-1000000D01*
G01*
X79912000Y-213250000D02*
G75*
G02*
X79912000Y-211250000I0J1000000D01*
G01*
X263650000Y-219818000D02*
G75*
G02*
X265650000Y-219818000I1000000J0D01*
G01*
X265650000Y-214294000D02*
G75*
G02*
X263650000Y-214294000I-1000000J0D01*
G01*
%TD*%
M02*
