%TF.GenerationSoftware,KiCad,Pcbnew,8.0.4*%
%TF.CreationDate,2024-09-25T08:52:03+09:00*%
%TF.ProjectId,FullHouse_Cover_V6.0,46756c6c-486f-4757-9365-5f436f766572,rev?*%
%TF.SameCoordinates,Original*%
%TF.FileFunction,Legend,Bot*%
%TF.FilePolarity,Positive*%
%FSLAX46Y46*%
G04 Gerber Fmt 4.6, Leading zero omitted, Abs format (unit mm)*
G04 Created by KiCad (PCBNEW 8.0.4) date 2024-09-25 08:52:03*
%MOMM*%
%LPD*%
G01*
G04 APERTURE LIST*
%ADD10C,0.150000*%
%ADD11C,0.200000*%
%ADD12C,0.120000*%
%ADD13C,0.100000*%
%ADD14C,0.350000*%
G04 APERTURE END LIST*
D10*
X278281666Y-170859819D02*
X278853094Y-170859819D01*
X278567380Y-170859819D02*
X278567380Y-169859819D01*
X278567380Y-169859819D02*
X278662618Y-170002676D01*
X278662618Y-170002676D02*
X278757856Y-170097914D01*
X278757856Y-170097914D02*
X278853094Y-170145533D01*
X277662618Y-169859819D02*
X277567380Y-169859819D01*
X277567380Y-169859819D02*
X277472142Y-169907438D01*
X277472142Y-169907438D02*
X277424523Y-169955057D01*
X277424523Y-169955057D02*
X277376904Y-170050295D01*
X277376904Y-170050295D02*
X277329285Y-170240771D01*
X277329285Y-170240771D02*
X277329285Y-170478866D01*
X277329285Y-170478866D02*
X277376904Y-170669342D01*
X277376904Y-170669342D02*
X277424523Y-170764580D01*
X277424523Y-170764580D02*
X277472142Y-170812200D01*
X277472142Y-170812200D02*
X277567380Y-170859819D01*
X277567380Y-170859819D02*
X277662618Y-170859819D01*
X277662618Y-170859819D02*
X277757856Y-170812200D01*
X277757856Y-170812200D02*
X277805475Y-170764580D01*
X277805475Y-170764580D02*
X277853094Y-170669342D01*
X277853094Y-170669342D02*
X277900713Y-170478866D01*
X277900713Y-170478866D02*
X277900713Y-170240771D01*
X277900713Y-170240771D02*
X277853094Y-170050295D01*
X277853094Y-170050295D02*
X277805475Y-169955057D01*
X277805475Y-169955057D02*
X277757856Y-169907438D01*
X277757856Y-169907438D02*
X277662618Y-169859819D01*
X276472142Y-170193152D02*
X276472142Y-170859819D01*
X276710237Y-169812200D02*
X276948332Y-170526485D01*
X276948332Y-170526485D02*
X276329285Y-170526485D01*
X316999819Y-170818333D02*
X316999819Y-170246905D01*
X316999819Y-170532619D02*
X315999819Y-170532619D01*
X315999819Y-170532619D02*
X316142676Y-170437381D01*
X316142676Y-170437381D02*
X316237914Y-170342143D01*
X316237914Y-170342143D02*
X316285533Y-170246905D01*
X315999819Y-171437381D02*
X315999819Y-171532619D01*
X315999819Y-171532619D02*
X316047438Y-171627857D01*
X316047438Y-171627857D02*
X316095057Y-171675476D01*
X316095057Y-171675476D02*
X316190295Y-171723095D01*
X316190295Y-171723095D02*
X316380771Y-171770714D01*
X316380771Y-171770714D02*
X316618866Y-171770714D01*
X316618866Y-171770714D02*
X316809342Y-171723095D01*
X316809342Y-171723095D02*
X316904580Y-171675476D01*
X316904580Y-171675476D02*
X316952200Y-171627857D01*
X316952200Y-171627857D02*
X316999819Y-171532619D01*
X316999819Y-171532619D02*
X316999819Y-171437381D01*
X316999819Y-171437381D02*
X316952200Y-171342143D01*
X316952200Y-171342143D02*
X316904580Y-171294524D01*
X316904580Y-171294524D02*
X316809342Y-171246905D01*
X316809342Y-171246905D02*
X316618866Y-171199286D01*
X316618866Y-171199286D02*
X316380771Y-171199286D01*
X316380771Y-171199286D02*
X316190295Y-171246905D01*
X316190295Y-171246905D02*
X316095057Y-171294524D01*
X316095057Y-171294524D02*
X316047438Y-171342143D01*
X316047438Y-171342143D02*
X315999819Y-171437381D01*
X316333152Y-172627857D02*
X316999819Y-172627857D01*
X315952200Y-172389762D02*
X316666485Y-172151667D01*
X316666485Y-172151667D02*
X316666485Y-172770714D01*
X293115332Y-203199819D02*
X292496285Y-203199819D01*
X292496285Y-203199819D02*
X292829618Y-203580771D01*
X292829618Y-203580771D02*
X292686761Y-203580771D01*
X292686761Y-203580771D02*
X292591523Y-203628390D01*
X292591523Y-203628390D02*
X292543904Y-203676009D01*
X292543904Y-203676009D02*
X292496285Y-203771247D01*
X292496285Y-203771247D02*
X292496285Y-204009342D01*
X292496285Y-204009342D02*
X292543904Y-204104580D01*
X292543904Y-204104580D02*
X292591523Y-204152200D01*
X292591523Y-204152200D02*
X292686761Y-204199819D01*
X292686761Y-204199819D02*
X292972475Y-204199819D01*
X292972475Y-204199819D02*
X293067713Y-204152200D01*
X293067713Y-204152200D02*
X293115332Y-204104580D01*
X297643904Y-203194243D02*
X298120094Y-203194243D01*
X298120094Y-203194243D02*
X298167713Y-203670433D01*
X298167713Y-203670433D02*
X298120094Y-203622814D01*
X298120094Y-203622814D02*
X298024856Y-203575195D01*
X298024856Y-203575195D02*
X297786761Y-203575195D01*
X297786761Y-203575195D02*
X297691523Y-203622814D01*
X297691523Y-203622814D02*
X297643904Y-203670433D01*
X297643904Y-203670433D02*
X297596285Y-203765671D01*
X297596285Y-203765671D02*
X297596285Y-204003766D01*
X297596285Y-204003766D02*
X297643904Y-204099004D01*
X297643904Y-204099004D02*
X297691523Y-204146624D01*
X297691523Y-204146624D02*
X297786761Y-204194243D01*
X297786761Y-204194243D02*
X298024856Y-204194243D01*
X298024856Y-204194243D02*
X298120094Y-204146624D01*
X298120094Y-204146624D02*
X298167713Y-204099004D01*
X290527713Y-203295057D02*
X290480094Y-203247438D01*
X290480094Y-203247438D02*
X290384856Y-203199819D01*
X290384856Y-203199819D02*
X290146761Y-203199819D01*
X290146761Y-203199819D02*
X290051523Y-203247438D01*
X290051523Y-203247438D02*
X290003904Y-203295057D01*
X290003904Y-203295057D02*
X289956285Y-203390295D01*
X289956285Y-203390295D02*
X289956285Y-203485533D01*
X289956285Y-203485533D02*
X290003904Y-203628390D01*
X290003904Y-203628390D02*
X290575332Y-204199819D01*
X290575332Y-204199819D02*
X289956285Y-204199819D01*
X295131523Y-203533152D02*
X295131523Y-204199819D01*
X295369618Y-203152200D02*
X295607713Y-203866485D01*
X295607713Y-203866485D02*
X294988666Y-203866485D01*
X300231523Y-203194243D02*
X300421999Y-203194243D01*
X300421999Y-203194243D02*
X300517237Y-203241862D01*
X300517237Y-203241862D02*
X300564856Y-203289481D01*
X300564856Y-203289481D02*
X300660094Y-203432338D01*
X300660094Y-203432338D02*
X300707713Y-203622814D01*
X300707713Y-203622814D02*
X300707713Y-204003766D01*
X300707713Y-204003766D02*
X300660094Y-204099004D01*
X300660094Y-204099004D02*
X300612475Y-204146624D01*
X300612475Y-204146624D02*
X300517237Y-204194243D01*
X300517237Y-204194243D02*
X300326761Y-204194243D01*
X300326761Y-204194243D02*
X300231523Y-204146624D01*
X300231523Y-204146624D02*
X300183904Y-204099004D01*
X300183904Y-204099004D02*
X300136285Y-204003766D01*
X300136285Y-204003766D02*
X300136285Y-203765671D01*
X300136285Y-203765671D02*
X300183904Y-203670433D01*
X300183904Y-203670433D02*
X300231523Y-203622814D01*
X300231523Y-203622814D02*
X300326761Y-203575195D01*
X300326761Y-203575195D02*
X300517237Y-203575195D01*
X300517237Y-203575195D02*
X300612475Y-203622814D01*
X300612475Y-203622814D02*
X300660094Y-203670433D01*
X300660094Y-203670433D02*
X300707713Y-203765671D01*
X287416285Y-204199819D02*
X287987713Y-204199819D01*
X287701999Y-204199819D02*
X287701999Y-203199819D01*
X287701999Y-203199819D02*
X287797237Y-203342676D01*
X287797237Y-203342676D02*
X287892475Y-203437914D01*
X287892475Y-203437914D02*
X287987713Y-203485533D01*
X156696666Y-187010057D02*
X156649047Y-186962438D01*
X156649047Y-186962438D02*
X156553809Y-186914819D01*
X156553809Y-186914819D02*
X156315714Y-186914819D01*
X156315714Y-186914819D02*
X156220476Y-186962438D01*
X156220476Y-186962438D02*
X156172857Y-187010057D01*
X156172857Y-187010057D02*
X156125238Y-187105295D01*
X156125238Y-187105295D02*
X156125238Y-187200533D01*
X156125238Y-187200533D02*
X156172857Y-187343390D01*
X156172857Y-187343390D02*
X156744285Y-187914819D01*
X156744285Y-187914819D02*
X156125238Y-187914819D01*
X155506190Y-186914819D02*
X155410952Y-186914819D01*
X155410952Y-186914819D02*
X155315714Y-186962438D01*
X155315714Y-186962438D02*
X155268095Y-187010057D01*
X155268095Y-187010057D02*
X155220476Y-187105295D01*
X155220476Y-187105295D02*
X155172857Y-187295771D01*
X155172857Y-187295771D02*
X155172857Y-187533866D01*
X155172857Y-187533866D02*
X155220476Y-187724342D01*
X155220476Y-187724342D02*
X155268095Y-187819580D01*
X155268095Y-187819580D02*
X155315714Y-187867200D01*
X155315714Y-187867200D02*
X155410952Y-187914819D01*
X155410952Y-187914819D02*
X155506190Y-187914819D01*
X155506190Y-187914819D02*
X155601428Y-187867200D01*
X155601428Y-187867200D02*
X155649047Y-187819580D01*
X155649047Y-187819580D02*
X155696666Y-187724342D01*
X155696666Y-187724342D02*
X155744285Y-187533866D01*
X155744285Y-187533866D02*
X155744285Y-187295771D01*
X155744285Y-187295771D02*
X155696666Y-187105295D01*
X155696666Y-187105295D02*
X155649047Y-187010057D01*
X155649047Y-187010057D02*
X155601428Y-186962438D01*
X155601428Y-186962438D02*
X155506190Y-186914819D01*
X154791904Y-187010057D02*
X154744285Y-186962438D01*
X154744285Y-186962438D02*
X154649047Y-186914819D01*
X154649047Y-186914819D02*
X154410952Y-186914819D01*
X154410952Y-186914819D02*
X154315714Y-186962438D01*
X154315714Y-186962438D02*
X154268095Y-187010057D01*
X154268095Y-187010057D02*
X154220476Y-187105295D01*
X154220476Y-187105295D02*
X154220476Y-187200533D01*
X154220476Y-187200533D02*
X154268095Y-187343390D01*
X154268095Y-187343390D02*
X154839523Y-187914819D01*
X154839523Y-187914819D02*
X154220476Y-187914819D01*
X153458571Y-187391009D02*
X153791904Y-187391009D01*
X153791904Y-187914819D02*
X153791904Y-186914819D01*
X153791904Y-186914819D02*
X153315714Y-186914819D01*
X58974819Y-181196667D02*
X57974819Y-181196667D01*
X57974819Y-181196667D02*
X58689104Y-181530000D01*
X58689104Y-181530000D02*
X57974819Y-181863333D01*
X57974819Y-181863333D02*
X58974819Y-181863333D01*
X57974819Y-182530000D02*
X57974819Y-182720476D01*
X57974819Y-182720476D02*
X58022438Y-182815714D01*
X58022438Y-182815714D02*
X58117676Y-182910952D01*
X58117676Y-182910952D02*
X58308152Y-182958571D01*
X58308152Y-182958571D02*
X58641485Y-182958571D01*
X58641485Y-182958571D02*
X58831961Y-182910952D01*
X58831961Y-182910952D02*
X58927200Y-182815714D01*
X58927200Y-182815714D02*
X58974819Y-182720476D01*
X58974819Y-182720476D02*
X58974819Y-182530000D01*
X58974819Y-182530000D02*
X58927200Y-182434762D01*
X58927200Y-182434762D02*
X58831961Y-182339524D01*
X58831961Y-182339524D02*
X58641485Y-182291905D01*
X58641485Y-182291905D02*
X58308152Y-182291905D01*
X58308152Y-182291905D02*
X58117676Y-182339524D01*
X58117676Y-182339524D02*
X58022438Y-182434762D01*
X58022438Y-182434762D02*
X57974819Y-182530000D01*
X58974819Y-183910952D02*
X58974819Y-183339524D01*
X58974819Y-183625238D02*
X57974819Y-183625238D01*
X57974819Y-183625238D02*
X58117676Y-183530000D01*
X58117676Y-183530000D02*
X58212914Y-183434762D01*
X58212914Y-183434762D02*
X58260533Y-183339524D01*
D11*
X54591266Y-173699673D02*
X54591266Y-174461578D01*
X54972219Y-174080625D02*
X54210314Y-174080625D01*
X53972219Y-175413958D02*
X53972219Y-174937768D01*
X53972219Y-174937768D02*
X54448409Y-174890149D01*
X54448409Y-174890149D02*
X54400790Y-174937768D01*
X54400790Y-174937768D02*
X54353171Y-175033006D01*
X54353171Y-175033006D02*
X54353171Y-175271101D01*
X54353171Y-175271101D02*
X54400790Y-175366339D01*
X54400790Y-175366339D02*
X54448409Y-175413958D01*
X54448409Y-175413958D02*
X54543647Y-175461577D01*
X54543647Y-175461577D02*
X54781742Y-175461577D01*
X54781742Y-175461577D02*
X54876980Y-175413958D01*
X54876980Y-175413958D02*
X54924600Y-175366339D01*
X54924600Y-175366339D02*
X54972219Y-175271101D01*
X54972219Y-175271101D02*
X54972219Y-175033006D01*
X54972219Y-175033006D02*
X54924600Y-174937768D01*
X54924600Y-174937768D02*
X54876980Y-174890149D01*
X53972219Y-175747292D02*
X54972219Y-176080625D01*
X54972219Y-176080625D02*
X53972219Y-176413958D01*
X54591266Y-190018095D02*
X54591266Y-190780000D01*
X54972219Y-190399047D02*
X54210314Y-190399047D01*
X54972219Y-191779999D02*
X54972219Y-191208571D01*
X54972219Y-191494285D02*
X53972219Y-191494285D01*
X53972219Y-191494285D02*
X54115076Y-191399047D01*
X54115076Y-191399047D02*
X54210314Y-191303809D01*
X54210314Y-191303809D02*
X54257933Y-191208571D01*
X54067457Y-192160952D02*
X54019838Y-192208571D01*
X54019838Y-192208571D02*
X53972219Y-192303809D01*
X53972219Y-192303809D02*
X53972219Y-192541904D01*
X53972219Y-192541904D02*
X54019838Y-192637142D01*
X54019838Y-192637142D02*
X54067457Y-192684761D01*
X54067457Y-192684761D02*
X54162695Y-192732380D01*
X54162695Y-192732380D02*
X54257933Y-192732380D01*
X54257933Y-192732380D02*
X54400790Y-192684761D01*
X54400790Y-192684761D02*
X54972219Y-192113333D01*
X54972219Y-192113333D02*
X54972219Y-192732380D01*
X53972219Y-193018095D02*
X54972219Y-193351428D01*
X54972219Y-193351428D02*
X53972219Y-193684761D01*
X59591266Y-191149048D02*
X59591266Y-191910953D01*
X59972219Y-191530000D02*
X59210314Y-191530000D01*
X59591266Y-173149048D02*
X59591266Y-173910953D01*
X59972219Y-173530000D02*
X59210314Y-173530000D01*
X68411266Y-191179048D02*
X68411266Y-191940953D01*
X68411266Y-173179048D02*
X68411266Y-173940953D01*
D10*
X72094819Y-162953333D02*
X72094819Y-162381905D01*
X72094819Y-162667619D02*
X71094819Y-162667619D01*
X71094819Y-162667619D02*
X71237676Y-162572381D01*
X71237676Y-162572381D02*
X71332914Y-162477143D01*
X71332914Y-162477143D02*
X71380533Y-162381905D01*
X71094819Y-163572381D02*
X71094819Y-163667619D01*
X71094819Y-163667619D02*
X71142438Y-163762857D01*
X71142438Y-163762857D02*
X71190057Y-163810476D01*
X71190057Y-163810476D02*
X71285295Y-163858095D01*
X71285295Y-163858095D02*
X71475771Y-163905714D01*
X71475771Y-163905714D02*
X71713866Y-163905714D01*
X71713866Y-163905714D02*
X71904342Y-163858095D01*
X71904342Y-163858095D02*
X71999580Y-163810476D01*
X71999580Y-163810476D02*
X72047200Y-163762857D01*
X72047200Y-163762857D02*
X72094819Y-163667619D01*
X72094819Y-163667619D02*
X72094819Y-163572381D01*
X72094819Y-163572381D02*
X72047200Y-163477143D01*
X72047200Y-163477143D02*
X71999580Y-163429524D01*
X71999580Y-163429524D02*
X71904342Y-163381905D01*
X71904342Y-163381905D02*
X71713866Y-163334286D01*
X71713866Y-163334286D02*
X71475771Y-163334286D01*
X71475771Y-163334286D02*
X71285295Y-163381905D01*
X71285295Y-163381905D02*
X71190057Y-163429524D01*
X71190057Y-163429524D02*
X71142438Y-163477143D01*
X71142438Y-163477143D02*
X71094819Y-163572381D01*
X71094819Y-164762857D02*
X71094819Y-164572381D01*
X71094819Y-164572381D02*
X71142438Y-164477143D01*
X71142438Y-164477143D02*
X71190057Y-164429524D01*
X71190057Y-164429524D02*
X71332914Y-164334286D01*
X71332914Y-164334286D02*
X71523390Y-164286667D01*
X71523390Y-164286667D02*
X71904342Y-164286667D01*
X71904342Y-164286667D02*
X71999580Y-164334286D01*
X71999580Y-164334286D02*
X72047200Y-164381905D01*
X72047200Y-164381905D02*
X72094819Y-164477143D01*
X72094819Y-164477143D02*
X72094819Y-164667619D01*
X72094819Y-164667619D02*
X72047200Y-164762857D01*
X72047200Y-164762857D02*
X71999580Y-164810476D01*
X71999580Y-164810476D02*
X71904342Y-164858095D01*
X71904342Y-164858095D02*
X71666247Y-164858095D01*
X71666247Y-164858095D02*
X71571009Y-164810476D01*
X71571009Y-164810476D02*
X71523390Y-164762857D01*
X71523390Y-164762857D02*
X71475771Y-164667619D01*
X71475771Y-164667619D02*
X71475771Y-164477143D01*
X71475771Y-164477143D02*
X71523390Y-164381905D01*
X71523390Y-164381905D02*
X71571009Y-164334286D01*
X71571009Y-164334286D02*
X71666247Y-164286667D01*
X257586666Y-189360057D02*
X257539047Y-189312438D01*
X257539047Y-189312438D02*
X257443809Y-189264819D01*
X257443809Y-189264819D02*
X257205714Y-189264819D01*
X257205714Y-189264819D02*
X257110476Y-189312438D01*
X257110476Y-189312438D02*
X257062857Y-189360057D01*
X257062857Y-189360057D02*
X257015238Y-189455295D01*
X257015238Y-189455295D02*
X257015238Y-189550533D01*
X257015238Y-189550533D02*
X257062857Y-189693390D01*
X257062857Y-189693390D02*
X257634285Y-190264819D01*
X257634285Y-190264819D02*
X257015238Y-190264819D01*
X256396190Y-189264819D02*
X256300952Y-189264819D01*
X256300952Y-189264819D02*
X256205714Y-189312438D01*
X256205714Y-189312438D02*
X256158095Y-189360057D01*
X256158095Y-189360057D02*
X256110476Y-189455295D01*
X256110476Y-189455295D02*
X256062857Y-189645771D01*
X256062857Y-189645771D02*
X256062857Y-189883866D01*
X256062857Y-189883866D02*
X256110476Y-190074342D01*
X256110476Y-190074342D02*
X256158095Y-190169580D01*
X256158095Y-190169580D02*
X256205714Y-190217200D01*
X256205714Y-190217200D02*
X256300952Y-190264819D01*
X256300952Y-190264819D02*
X256396190Y-190264819D01*
X256396190Y-190264819D02*
X256491428Y-190217200D01*
X256491428Y-190217200D02*
X256539047Y-190169580D01*
X256539047Y-190169580D02*
X256586666Y-190074342D01*
X256586666Y-190074342D02*
X256634285Y-189883866D01*
X256634285Y-189883866D02*
X256634285Y-189645771D01*
X256634285Y-189645771D02*
X256586666Y-189455295D01*
X256586666Y-189455295D02*
X256539047Y-189360057D01*
X256539047Y-189360057D02*
X256491428Y-189312438D01*
X256491428Y-189312438D02*
X256396190Y-189264819D01*
X255729523Y-189264819D02*
X255110476Y-189264819D01*
X255110476Y-189264819D02*
X255443809Y-189645771D01*
X255443809Y-189645771D02*
X255300952Y-189645771D01*
X255300952Y-189645771D02*
X255205714Y-189693390D01*
X255205714Y-189693390D02*
X255158095Y-189741009D01*
X255158095Y-189741009D02*
X255110476Y-189836247D01*
X255110476Y-189836247D02*
X255110476Y-190074342D01*
X255110476Y-190074342D02*
X255158095Y-190169580D01*
X255158095Y-190169580D02*
X255205714Y-190217200D01*
X255205714Y-190217200D02*
X255300952Y-190264819D01*
X255300952Y-190264819D02*
X255586666Y-190264819D01*
X255586666Y-190264819D02*
X255681904Y-190217200D01*
X255681904Y-190217200D02*
X255729523Y-190169580D01*
X254348571Y-189741009D02*
X254681904Y-189741009D01*
X254681904Y-190264819D02*
X254681904Y-189264819D01*
X254681904Y-189264819D02*
X254205714Y-189264819D01*
X285511428Y-187344819D02*
X285320952Y-187344819D01*
X285320952Y-187344819D02*
X285225714Y-187297200D01*
X285225714Y-187297200D02*
X285178095Y-187249580D01*
X285178095Y-187249580D02*
X285082857Y-187106723D01*
X285082857Y-187106723D02*
X285035238Y-186916247D01*
X285035238Y-186916247D02*
X285035238Y-186535295D01*
X285035238Y-186535295D02*
X285082857Y-186440057D01*
X285082857Y-186440057D02*
X285130476Y-186392438D01*
X285130476Y-186392438D02*
X285225714Y-186344819D01*
X285225714Y-186344819D02*
X285416190Y-186344819D01*
X285416190Y-186344819D02*
X285511428Y-186392438D01*
X285511428Y-186392438D02*
X285559047Y-186440057D01*
X285559047Y-186440057D02*
X285606666Y-186535295D01*
X285606666Y-186535295D02*
X285606666Y-186773390D01*
X285606666Y-186773390D02*
X285559047Y-186868628D01*
X285559047Y-186868628D02*
X285511428Y-186916247D01*
X285511428Y-186916247D02*
X285416190Y-186963866D01*
X285416190Y-186963866D02*
X285225714Y-186963866D01*
X285225714Y-186963866D02*
X285130476Y-186916247D01*
X285130476Y-186916247D02*
X285082857Y-186868628D01*
X285082857Y-186868628D02*
X285035238Y-186773390D01*
X284654285Y-186440057D02*
X284606666Y-186392438D01*
X284606666Y-186392438D02*
X284511428Y-186344819D01*
X284511428Y-186344819D02*
X284273333Y-186344819D01*
X284273333Y-186344819D02*
X284178095Y-186392438D01*
X284178095Y-186392438D02*
X284130476Y-186440057D01*
X284130476Y-186440057D02*
X284082857Y-186535295D01*
X284082857Y-186535295D02*
X284082857Y-186630533D01*
X284082857Y-186630533D02*
X284130476Y-186773390D01*
X284130476Y-186773390D02*
X284701904Y-187344819D01*
X284701904Y-187344819D02*
X284082857Y-187344819D01*
X283178095Y-187344819D02*
X283654285Y-187344819D01*
X283654285Y-187344819D02*
X283654285Y-186344819D01*
X203676666Y-187030057D02*
X203629047Y-186982438D01*
X203629047Y-186982438D02*
X203533809Y-186934819D01*
X203533809Y-186934819D02*
X203295714Y-186934819D01*
X203295714Y-186934819D02*
X203200476Y-186982438D01*
X203200476Y-186982438D02*
X203152857Y-187030057D01*
X203152857Y-187030057D02*
X203105238Y-187125295D01*
X203105238Y-187125295D02*
X203105238Y-187220533D01*
X203105238Y-187220533D02*
X203152857Y-187363390D01*
X203152857Y-187363390D02*
X203724285Y-187934819D01*
X203724285Y-187934819D02*
X203105238Y-187934819D01*
X202486190Y-186934819D02*
X202390952Y-186934819D01*
X202390952Y-186934819D02*
X202295714Y-186982438D01*
X202295714Y-186982438D02*
X202248095Y-187030057D01*
X202248095Y-187030057D02*
X202200476Y-187125295D01*
X202200476Y-187125295D02*
X202152857Y-187315771D01*
X202152857Y-187315771D02*
X202152857Y-187553866D01*
X202152857Y-187553866D02*
X202200476Y-187744342D01*
X202200476Y-187744342D02*
X202248095Y-187839580D01*
X202248095Y-187839580D02*
X202295714Y-187887200D01*
X202295714Y-187887200D02*
X202390952Y-187934819D01*
X202390952Y-187934819D02*
X202486190Y-187934819D01*
X202486190Y-187934819D02*
X202581428Y-187887200D01*
X202581428Y-187887200D02*
X202629047Y-187839580D01*
X202629047Y-187839580D02*
X202676666Y-187744342D01*
X202676666Y-187744342D02*
X202724285Y-187553866D01*
X202724285Y-187553866D02*
X202724285Y-187315771D01*
X202724285Y-187315771D02*
X202676666Y-187125295D01*
X202676666Y-187125295D02*
X202629047Y-187030057D01*
X202629047Y-187030057D02*
X202581428Y-186982438D01*
X202581428Y-186982438D02*
X202486190Y-186934819D01*
X201771904Y-187030057D02*
X201724285Y-186982438D01*
X201724285Y-186982438D02*
X201629047Y-186934819D01*
X201629047Y-186934819D02*
X201390952Y-186934819D01*
X201390952Y-186934819D02*
X201295714Y-186982438D01*
X201295714Y-186982438D02*
X201248095Y-187030057D01*
X201248095Y-187030057D02*
X201200476Y-187125295D01*
X201200476Y-187125295D02*
X201200476Y-187220533D01*
X201200476Y-187220533D02*
X201248095Y-187363390D01*
X201248095Y-187363390D02*
X201819523Y-187934819D01*
X201819523Y-187934819D02*
X201200476Y-187934819D01*
X200438571Y-187411009D02*
X200771904Y-187411009D01*
X200771904Y-187934819D02*
X200771904Y-186934819D01*
X200771904Y-186934819D02*
X200295714Y-186934819D01*
X308724819Y-177473333D02*
X308724819Y-176901905D01*
X308724819Y-177187619D02*
X307724819Y-177187619D01*
X307724819Y-177187619D02*
X307867676Y-177092381D01*
X307867676Y-177092381D02*
X307962914Y-176997143D01*
X307962914Y-176997143D02*
X308010533Y-176901905D01*
X307724819Y-178092381D02*
X307724819Y-178187619D01*
X307724819Y-178187619D02*
X307772438Y-178282857D01*
X307772438Y-178282857D02*
X307820057Y-178330476D01*
X307820057Y-178330476D02*
X307915295Y-178378095D01*
X307915295Y-178378095D02*
X308105771Y-178425714D01*
X308105771Y-178425714D02*
X308343866Y-178425714D01*
X308343866Y-178425714D02*
X308534342Y-178378095D01*
X308534342Y-178378095D02*
X308629580Y-178330476D01*
X308629580Y-178330476D02*
X308677200Y-178282857D01*
X308677200Y-178282857D02*
X308724819Y-178187619D01*
X308724819Y-178187619D02*
X308724819Y-178092381D01*
X308724819Y-178092381D02*
X308677200Y-177997143D01*
X308677200Y-177997143D02*
X308629580Y-177949524D01*
X308629580Y-177949524D02*
X308534342Y-177901905D01*
X308534342Y-177901905D02*
X308343866Y-177854286D01*
X308343866Y-177854286D02*
X308105771Y-177854286D01*
X308105771Y-177854286D02*
X307915295Y-177901905D01*
X307915295Y-177901905D02*
X307820057Y-177949524D01*
X307820057Y-177949524D02*
X307772438Y-177997143D01*
X307772438Y-177997143D02*
X307724819Y-178092381D01*
X308058152Y-179282857D02*
X308724819Y-179282857D01*
X307677200Y-179044762D02*
X308391485Y-178806667D01*
X308391485Y-178806667D02*
X308391485Y-179425714D01*
X280974819Y-170828333D02*
X280974819Y-170256905D01*
X280974819Y-170542619D02*
X279974819Y-170542619D01*
X279974819Y-170542619D02*
X280117676Y-170447381D01*
X280117676Y-170447381D02*
X280212914Y-170352143D01*
X280212914Y-170352143D02*
X280260533Y-170256905D01*
X279974819Y-171447381D02*
X279974819Y-171542619D01*
X279974819Y-171542619D02*
X280022438Y-171637857D01*
X280022438Y-171637857D02*
X280070057Y-171685476D01*
X280070057Y-171685476D02*
X280165295Y-171733095D01*
X280165295Y-171733095D02*
X280355771Y-171780714D01*
X280355771Y-171780714D02*
X280593866Y-171780714D01*
X280593866Y-171780714D02*
X280784342Y-171733095D01*
X280784342Y-171733095D02*
X280879580Y-171685476D01*
X280879580Y-171685476D02*
X280927200Y-171637857D01*
X280927200Y-171637857D02*
X280974819Y-171542619D01*
X280974819Y-171542619D02*
X280974819Y-171447381D01*
X280974819Y-171447381D02*
X280927200Y-171352143D01*
X280927200Y-171352143D02*
X280879580Y-171304524D01*
X280879580Y-171304524D02*
X280784342Y-171256905D01*
X280784342Y-171256905D02*
X280593866Y-171209286D01*
X280593866Y-171209286D02*
X280355771Y-171209286D01*
X280355771Y-171209286D02*
X280165295Y-171256905D01*
X280165295Y-171256905D02*
X280070057Y-171304524D01*
X280070057Y-171304524D02*
X280022438Y-171352143D01*
X280022438Y-171352143D02*
X279974819Y-171447381D01*
X280308152Y-172637857D02*
X280974819Y-172637857D01*
X279927200Y-172399762D02*
X280641485Y-172161667D01*
X280641485Y-172161667D02*
X280641485Y-172780714D01*
X75104819Y-168236666D02*
X75819104Y-168236666D01*
X75819104Y-168236666D02*
X75961961Y-168189047D01*
X75961961Y-168189047D02*
X76057200Y-168093809D01*
X76057200Y-168093809D02*
X76104819Y-167950952D01*
X76104819Y-167950952D02*
X76104819Y-167855714D01*
X75438152Y-169141428D02*
X76104819Y-169141428D01*
X75057200Y-168903333D02*
X75771485Y-168665238D01*
X75771485Y-168665238D02*
X75771485Y-169284285D01*
X77544295Y-162717029D02*
X77544295Y-162259886D01*
X77544295Y-162488458D02*
X76744295Y-162488458D01*
X76744295Y-162488458D02*
X76858580Y-162412267D01*
X76858580Y-162412267D02*
X76934771Y-162336077D01*
X76934771Y-162336077D02*
X76972866Y-162259886D01*
X77087152Y-163174172D02*
X77049057Y-163097982D01*
X77049057Y-163097982D02*
X77010961Y-163059887D01*
X77010961Y-163059887D02*
X76934771Y-163021791D01*
X76934771Y-163021791D02*
X76896676Y-163021791D01*
X76896676Y-163021791D02*
X76820485Y-163059887D01*
X76820485Y-163059887D02*
X76782390Y-163097982D01*
X76782390Y-163097982D02*
X76744295Y-163174172D01*
X76744295Y-163174172D02*
X76744295Y-163326553D01*
X76744295Y-163326553D02*
X76782390Y-163402744D01*
X76782390Y-163402744D02*
X76820485Y-163440839D01*
X76820485Y-163440839D02*
X76896676Y-163478934D01*
X76896676Y-163478934D02*
X76934771Y-163478934D01*
X76934771Y-163478934D02*
X77010961Y-163440839D01*
X77010961Y-163440839D02*
X77049057Y-163402744D01*
X77049057Y-163402744D02*
X77087152Y-163326553D01*
X77087152Y-163326553D02*
X77087152Y-163174172D01*
X77087152Y-163174172D02*
X77125247Y-163097982D01*
X77125247Y-163097982D02*
X77163342Y-163059887D01*
X77163342Y-163059887D02*
X77239533Y-163021791D01*
X77239533Y-163021791D02*
X77391914Y-163021791D01*
X77391914Y-163021791D02*
X77468104Y-163059887D01*
X77468104Y-163059887D02*
X77506200Y-163097982D01*
X77506200Y-163097982D02*
X77544295Y-163174172D01*
X77544295Y-163174172D02*
X77544295Y-163326553D01*
X77544295Y-163326553D02*
X77506200Y-163402744D01*
X77506200Y-163402744D02*
X77468104Y-163440839D01*
X77468104Y-163440839D02*
X77391914Y-163478934D01*
X77391914Y-163478934D02*
X77239533Y-163478934D01*
X77239533Y-163478934D02*
X77163342Y-163440839D01*
X77163342Y-163440839D02*
X77125247Y-163402744D01*
X77125247Y-163402744D02*
X77087152Y-163326553D01*
X77554295Y-174683207D02*
X77554295Y-174226064D01*
X77554295Y-174454636D02*
X76754295Y-174454636D01*
X76754295Y-174454636D02*
X76868580Y-174378445D01*
X76868580Y-174378445D02*
X76944771Y-174302255D01*
X76944771Y-174302255D02*
X76982866Y-174226064D01*
X360090476Y-195263152D02*
X360090476Y-195929819D01*
X360328571Y-194882200D02*
X360566666Y-195596485D01*
X360566666Y-195596485D02*
X359947619Y-195596485D01*
X359661904Y-194929819D02*
X358995238Y-194929819D01*
X358995238Y-194929819D02*
X359423809Y-195929819D01*
X358709523Y-194929819D02*
X358090476Y-194929819D01*
X358090476Y-194929819D02*
X358423809Y-195310771D01*
X358423809Y-195310771D02*
X358280952Y-195310771D01*
X358280952Y-195310771D02*
X358185714Y-195358390D01*
X358185714Y-195358390D02*
X358138095Y-195406009D01*
X358138095Y-195406009D02*
X358090476Y-195501247D01*
X358090476Y-195501247D02*
X358090476Y-195739342D01*
X358090476Y-195739342D02*
X358138095Y-195834580D01*
X358138095Y-195834580D02*
X358185714Y-195882200D01*
X358185714Y-195882200D02*
X358280952Y-195929819D01*
X358280952Y-195929819D02*
X358566666Y-195929819D01*
X358566666Y-195929819D02*
X358661904Y-195882200D01*
X358661904Y-195882200D02*
X358709523Y-195834580D01*
X357328571Y-195406009D02*
X357661904Y-195406009D01*
X357661904Y-195929819D02*
X357661904Y-194929819D01*
X357661904Y-194929819D02*
X357185714Y-194929819D01*
X299049819Y-170828333D02*
X299049819Y-170256905D01*
X299049819Y-170542619D02*
X298049819Y-170542619D01*
X298049819Y-170542619D02*
X298192676Y-170447381D01*
X298192676Y-170447381D02*
X298287914Y-170352143D01*
X298287914Y-170352143D02*
X298335533Y-170256905D01*
X298049819Y-171447381D02*
X298049819Y-171542619D01*
X298049819Y-171542619D02*
X298097438Y-171637857D01*
X298097438Y-171637857D02*
X298145057Y-171685476D01*
X298145057Y-171685476D02*
X298240295Y-171733095D01*
X298240295Y-171733095D02*
X298430771Y-171780714D01*
X298430771Y-171780714D02*
X298668866Y-171780714D01*
X298668866Y-171780714D02*
X298859342Y-171733095D01*
X298859342Y-171733095D02*
X298954580Y-171685476D01*
X298954580Y-171685476D02*
X299002200Y-171637857D01*
X299002200Y-171637857D02*
X299049819Y-171542619D01*
X299049819Y-171542619D02*
X299049819Y-171447381D01*
X299049819Y-171447381D02*
X299002200Y-171352143D01*
X299002200Y-171352143D02*
X298954580Y-171304524D01*
X298954580Y-171304524D02*
X298859342Y-171256905D01*
X298859342Y-171256905D02*
X298668866Y-171209286D01*
X298668866Y-171209286D02*
X298430771Y-171209286D01*
X298430771Y-171209286D02*
X298240295Y-171256905D01*
X298240295Y-171256905D02*
X298145057Y-171304524D01*
X298145057Y-171304524D02*
X298097438Y-171352143D01*
X298097438Y-171352143D02*
X298049819Y-171447381D01*
X298383152Y-172637857D02*
X299049819Y-172637857D01*
X298002200Y-172399762D02*
X298716485Y-172161667D01*
X298716485Y-172161667D02*
X298716485Y-172780714D01*
X90086666Y-195395057D02*
X90039047Y-195347438D01*
X90039047Y-195347438D02*
X89943809Y-195299819D01*
X89943809Y-195299819D02*
X89705714Y-195299819D01*
X89705714Y-195299819D02*
X89610476Y-195347438D01*
X89610476Y-195347438D02*
X89562857Y-195395057D01*
X89562857Y-195395057D02*
X89515238Y-195490295D01*
X89515238Y-195490295D02*
X89515238Y-195585533D01*
X89515238Y-195585533D02*
X89562857Y-195728390D01*
X89562857Y-195728390D02*
X90134285Y-196299819D01*
X90134285Y-196299819D02*
X89515238Y-196299819D01*
X88896190Y-195299819D02*
X88800952Y-195299819D01*
X88800952Y-195299819D02*
X88705714Y-195347438D01*
X88705714Y-195347438D02*
X88658095Y-195395057D01*
X88658095Y-195395057D02*
X88610476Y-195490295D01*
X88610476Y-195490295D02*
X88562857Y-195680771D01*
X88562857Y-195680771D02*
X88562857Y-195918866D01*
X88562857Y-195918866D02*
X88610476Y-196109342D01*
X88610476Y-196109342D02*
X88658095Y-196204580D01*
X88658095Y-196204580D02*
X88705714Y-196252200D01*
X88705714Y-196252200D02*
X88800952Y-196299819D01*
X88800952Y-196299819D02*
X88896190Y-196299819D01*
X88896190Y-196299819D02*
X88991428Y-196252200D01*
X88991428Y-196252200D02*
X89039047Y-196204580D01*
X89039047Y-196204580D02*
X89086666Y-196109342D01*
X89086666Y-196109342D02*
X89134285Y-195918866D01*
X89134285Y-195918866D02*
X89134285Y-195680771D01*
X89134285Y-195680771D02*
X89086666Y-195490295D01*
X89086666Y-195490295D02*
X89039047Y-195395057D01*
X89039047Y-195395057D02*
X88991428Y-195347438D01*
X88991428Y-195347438D02*
X88896190Y-195299819D01*
X88229523Y-195299819D02*
X87610476Y-195299819D01*
X87610476Y-195299819D02*
X87943809Y-195680771D01*
X87943809Y-195680771D02*
X87800952Y-195680771D01*
X87800952Y-195680771D02*
X87705714Y-195728390D01*
X87705714Y-195728390D02*
X87658095Y-195776009D01*
X87658095Y-195776009D02*
X87610476Y-195871247D01*
X87610476Y-195871247D02*
X87610476Y-196109342D01*
X87610476Y-196109342D02*
X87658095Y-196204580D01*
X87658095Y-196204580D02*
X87705714Y-196252200D01*
X87705714Y-196252200D02*
X87800952Y-196299819D01*
X87800952Y-196299819D02*
X88086666Y-196299819D01*
X88086666Y-196299819D02*
X88181904Y-196252200D01*
X88181904Y-196252200D02*
X88229523Y-196204580D01*
X86848571Y-195776009D02*
X87181904Y-195776009D01*
X87181904Y-196299819D02*
X87181904Y-195299819D01*
X87181904Y-195299819D02*
X86705714Y-195299819D01*
X284674819Y-176374761D02*
X284674819Y-175803333D01*
X284674819Y-176089047D02*
X283674819Y-176089047D01*
X283674819Y-176089047D02*
X283817676Y-175993809D01*
X283817676Y-175993809D02*
X283912914Y-175898571D01*
X283912914Y-175898571D02*
X283960533Y-175803333D01*
X283674819Y-176993809D02*
X283674819Y-177089047D01*
X283674819Y-177089047D02*
X283722438Y-177184285D01*
X283722438Y-177184285D02*
X283770057Y-177231904D01*
X283770057Y-177231904D02*
X283865295Y-177279523D01*
X283865295Y-177279523D02*
X284055771Y-177327142D01*
X284055771Y-177327142D02*
X284293866Y-177327142D01*
X284293866Y-177327142D02*
X284484342Y-177279523D01*
X284484342Y-177279523D02*
X284579580Y-177231904D01*
X284579580Y-177231904D02*
X284627200Y-177184285D01*
X284627200Y-177184285D02*
X284674819Y-177089047D01*
X284674819Y-177089047D02*
X284674819Y-176993809D01*
X284674819Y-176993809D02*
X284627200Y-176898571D01*
X284627200Y-176898571D02*
X284579580Y-176850952D01*
X284579580Y-176850952D02*
X284484342Y-176803333D01*
X284484342Y-176803333D02*
X284293866Y-176755714D01*
X284293866Y-176755714D02*
X284055771Y-176755714D01*
X284055771Y-176755714D02*
X283865295Y-176803333D01*
X283865295Y-176803333D02*
X283770057Y-176850952D01*
X283770057Y-176850952D02*
X283722438Y-176898571D01*
X283722438Y-176898571D02*
X283674819Y-176993809D01*
X283770057Y-177708095D02*
X283722438Y-177755714D01*
X283722438Y-177755714D02*
X283674819Y-177850952D01*
X283674819Y-177850952D02*
X283674819Y-178089047D01*
X283674819Y-178089047D02*
X283722438Y-178184285D01*
X283722438Y-178184285D02*
X283770057Y-178231904D01*
X283770057Y-178231904D02*
X283865295Y-178279523D01*
X283865295Y-178279523D02*
X283960533Y-178279523D01*
X283960533Y-178279523D02*
X284103390Y-178231904D01*
X284103390Y-178231904D02*
X284674819Y-177660476D01*
X284674819Y-177660476D02*
X284674819Y-178279523D01*
X284151009Y-179041428D02*
X284151009Y-178708095D01*
X284674819Y-178708095D02*
X283674819Y-178708095D01*
X283674819Y-178708095D02*
X283674819Y-179184285D01*
X286949819Y-170399761D02*
X286949819Y-169828333D01*
X286949819Y-170114047D02*
X285949819Y-170114047D01*
X285949819Y-170114047D02*
X286092676Y-170018809D01*
X286092676Y-170018809D02*
X286187914Y-169923571D01*
X286187914Y-169923571D02*
X286235533Y-169828333D01*
X285949819Y-171018809D02*
X285949819Y-171114047D01*
X285949819Y-171114047D02*
X285997438Y-171209285D01*
X285997438Y-171209285D02*
X286045057Y-171256904D01*
X286045057Y-171256904D02*
X286140295Y-171304523D01*
X286140295Y-171304523D02*
X286330771Y-171352142D01*
X286330771Y-171352142D02*
X286568866Y-171352142D01*
X286568866Y-171352142D02*
X286759342Y-171304523D01*
X286759342Y-171304523D02*
X286854580Y-171256904D01*
X286854580Y-171256904D02*
X286902200Y-171209285D01*
X286902200Y-171209285D02*
X286949819Y-171114047D01*
X286949819Y-171114047D02*
X286949819Y-171018809D01*
X286949819Y-171018809D02*
X286902200Y-170923571D01*
X286902200Y-170923571D02*
X286854580Y-170875952D01*
X286854580Y-170875952D02*
X286759342Y-170828333D01*
X286759342Y-170828333D02*
X286568866Y-170780714D01*
X286568866Y-170780714D02*
X286330771Y-170780714D01*
X286330771Y-170780714D02*
X286140295Y-170828333D01*
X286140295Y-170828333D02*
X286045057Y-170875952D01*
X286045057Y-170875952D02*
X285997438Y-170923571D01*
X285997438Y-170923571D02*
X285949819Y-171018809D01*
X286045057Y-171733095D02*
X285997438Y-171780714D01*
X285997438Y-171780714D02*
X285949819Y-171875952D01*
X285949819Y-171875952D02*
X285949819Y-172114047D01*
X285949819Y-172114047D02*
X285997438Y-172209285D01*
X285997438Y-172209285D02*
X286045057Y-172256904D01*
X286045057Y-172256904D02*
X286140295Y-172304523D01*
X286140295Y-172304523D02*
X286235533Y-172304523D01*
X286235533Y-172304523D02*
X286378390Y-172256904D01*
X286378390Y-172256904D02*
X286949819Y-171685476D01*
X286949819Y-171685476D02*
X286949819Y-172304523D01*
X286426009Y-173066428D02*
X286426009Y-172733095D01*
X286949819Y-172733095D02*
X285949819Y-172733095D01*
X285949819Y-172733095D02*
X285949819Y-173209285D01*
X302574819Y-176374761D02*
X302574819Y-175803333D01*
X302574819Y-176089047D02*
X301574819Y-176089047D01*
X301574819Y-176089047D02*
X301717676Y-175993809D01*
X301717676Y-175993809D02*
X301812914Y-175898571D01*
X301812914Y-175898571D02*
X301860533Y-175803333D01*
X301574819Y-176993809D02*
X301574819Y-177089047D01*
X301574819Y-177089047D02*
X301622438Y-177184285D01*
X301622438Y-177184285D02*
X301670057Y-177231904D01*
X301670057Y-177231904D02*
X301765295Y-177279523D01*
X301765295Y-177279523D02*
X301955771Y-177327142D01*
X301955771Y-177327142D02*
X302193866Y-177327142D01*
X302193866Y-177327142D02*
X302384342Y-177279523D01*
X302384342Y-177279523D02*
X302479580Y-177231904D01*
X302479580Y-177231904D02*
X302527200Y-177184285D01*
X302527200Y-177184285D02*
X302574819Y-177089047D01*
X302574819Y-177089047D02*
X302574819Y-176993809D01*
X302574819Y-176993809D02*
X302527200Y-176898571D01*
X302527200Y-176898571D02*
X302479580Y-176850952D01*
X302479580Y-176850952D02*
X302384342Y-176803333D01*
X302384342Y-176803333D02*
X302193866Y-176755714D01*
X302193866Y-176755714D02*
X301955771Y-176755714D01*
X301955771Y-176755714D02*
X301765295Y-176803333D01*
X301765295Y-176803333D02*
X301670057Y-176850952D01*
X301670057Y-176850952D02*
X301622438Y-176898571D01*
X301622438Y-176898571D02*
X301574819Y-176993809D01*
X301670057Y-177708095D02*
X301622438Y-177755714D01*
X301622438Y-177755714D02*
X301574819Y-177850952D01*
X301574819Y-177850952D02*
X301574819Y-178089047D01*
X301574819Y-178089047D02*
X301622438Y-178184285D01*
X301622438Y-178184285D02*
X301670057Y-178231904D01*
X301670057Y-178231904D02*
X301765295Y-178279523D01*
X301765295Y-178279523D02*
X301860533Y-178279523D01*
X301860533Y-178279523D02*
X302003390Y-178231904D01*
X302003390Y-178231904D02*
X302574819Y-177660476D01*
X302574819Y-177660476D02*
X302574819Y-178279523D01*
X302051009Y-179041428D02*
X302051009Y-178708095D01*
X302574819Y-178708095D02*
X301574819Y-178708095D01*
X301574819Y-178708095D02*
X301574819Y-179184285D01*
X344580476Y-195263152D02*
X344580476Y-195929819D01*
X344818571Y-194882200D02*
X345056666Y-195596485D01*
X345056666Y-195596485D02*
X344437619Y-195596485D01*
X344151904Y-194929819D02*
X343485238Y-194929819D01*
X343485238Y-194929819D02*
X343913809Y-195929819D01*
X343199523Y-194929819D02*
X342580476Y-194929819D01*
X342580476Y-194929819D02*
X342913809Y-195310771D01*
X342913809Y-195310771D02*
X342770952Y-195310771D01*
X342770952Y-195310771D02*
X342675714Y-195358390D01*
X342675714Y-195358390D02*
X342628095Y-195406009D01*
X342628095Y-195406009D02*
X342580476Y-195501247D01*
X342580476Y-195501247D02*
X342580476Y-195739342D01*
X342580476Y-195739342D02*
X342628095Y-195834580D01*
X342628095Y-195834580D02*
X342675714Y-195882200D01*
X342675714Y-195882200D02*
X342770952Y-195929819D01*
X342770952Y-195929819D02*
X343056666Y-195929819D01*
X343056666Y-195929819D02*
X343151904Y-195882200D01*
X343151904Y-195882200D02*
X343199523Y-195834580D01*
X341818571Y-195406009D02*
X342151904Y-195406009D01*
X342151904Y-195929819D02*
X342151904Y-194929819D01*
X342151904Y-194929819D02*
X341675714Y-194929819D01*
X134325713Y-165170057D02*
X134278094Y-165122438D01*
X134278094Y-165122438D02*
X134182856Y-165074819D01*
X134182856Y-165074819D02*
X133944761Y-165074819D01*
X133944761Y-165074819D02*
X133849523Y-165122438D01*
X133849523Y-165122438D02*
X133801904Y-165170057D01*
X133801904Y-165170057D02*
X133754285Y-165265295D01*
X133754285Y-165265295D02*
X133754285Y-165360533D01*
X133754285Y-165360533D02*
X133801904Y-165503390D01*
X133801904Y-165503390D02*
X134373332Y-166074819D01*
X134373332Y-166074819D02*
X133754285Y-166074819D01*
X136913332Y-165074819D02*
X136294285Y-165074819D01*
X136294285Y-165074819D02*
X136627618Y-165455771D01*
X136627618Y-165455771D02*
X136484761Y-165455771D01*
X136484761Y-165455771D02*
X136389523Y-165503390D01*
X136389523Y-165503390D02*
X136341904Y-165551009D01*
X136341904Y-165551009D02*
X136294285Y-165646247D01*
X136294285Y-165646247D02*
X136294285Y-165884342D01*
X136294285Y-165884342D02*
X136341904Y-165979580D01*
X136341904Y-165979580D02*
X136389523Y-166027200D01*
X136389523Y-166027200D02*
X136484761Y-166074819D01*
X136484761Y-166074819D02*
X136770475Y-166074819D01*
X136770475Y-166074819D02*
X136865713Y-166027200D01*
X136865713Y-166027200D02*
X136913332Y-165979580D01*
X141441904Y-165069243D02*
X141918094Y-165069243D01*
X141918094Y-165069243D02*
X141965713Y-165545433D01*
X141965713Y-165545433D02*
X141918094Y-165497814D01*
X141918094Y-165497814D02*
X141822856Y-165450195D01*
X141822856Y-165450195D02*
X141584761Y-165450195D01*
X141584761Y-165450195D02*
X141489523Y-165497814D01*
X141489523Y-165497814D02*
X141441904Y-165545433D01*
X141441904Y-165545433D02*
X141394285Y-165640671D01*
X141394285Y-165640671D02*
X141394285Y-165878766D01*
X141394285Y-165878766D02*
X141441904Y-165974004D01*
X141441904Y-165974004D02*
X141489523Y-166021624D01*
X141489523Y-166021624D02*
X141584761Y-166069243D01*
X141584761Y-166069243D02*
X141822856Y-166069243D01*
X141822856Y-166069243D02*
X141918094Y-166021624D01*
X141918094Y-166021624D02*
X141965713Y-165974004D01*
X131214285Y-166074819D02*
X131785713Y-166074819D01*
X131499999Y-166074819D02*
X131499999Y-165074819D01*
X131499999Y-165074819D02*
X131595237Y-165217676D01*
X131595237Y-165217676D02*
X131690475Y-165312914D01*
X131690475Y-165312914D02*
X131785713Y-165360533D01*
X144029523Y-165069243D02*
X144219999Y-165069243D01*
X144219999Y-165069243D02*
X144315237Y-165116862D01*
X144315237Y-165116862D02*
X144362856Y-165164481D01*
X144362856Y-165164481D02*
X144458094Y-165307338D01*
X144458094Y-165307338D02*
X144505713Y-165497814D01*
X144505713Y-165497814D02*
X144505713Y-165878766D01*
X144505713Y-165878766D02*
X144458094Y-165974004D01*
X144458094Y-165974004D02*
X144410475Y-166021624D01*
X144410475Y-166021624D02*
X144315237Y-166069243D01*
X144315237Y-166069243D02*
X144124761Y-166069243D01*
X144124761Y-166069243D02*
X144029523Y-166021624D01*
X144029523Y-166021624D02*
X143981904Y-165974004D01*
X143981904Y-165974004D02*
X143934285Y-165878766D01*
X143934285Y-165878766D02*
X143934285Y-165640671D01*
X143934285Y-165640671D02*
X143981904Y-165545433D01*
X143981904Y-165545433D02*
X144029523Y-165497814D01*
X144029523Y-165497814D02*
X144124761Y-165450195D01*
X144124761Y-165450195D02*
X144315237Y-165450195D01*
X144315237Y-165450195D02*
X144410475Y-165497814D01*
X144410475Y-165497814D02*
X144458094Y-165545433D01*
X144458094Y-165545433D02*
X144505713Y-165640671D01*
X138929523Y-165408152D02*
X138929523Y-166074819D01*
X139167618Y-165027200D02*
X139405713Y-165741485D01*
X139405713Y-165741485D02*
X138786666Y-165741485D01*
X364666666Y-195025057D02*
X364619047Y-194977438D01*
X364619047Y-194977438D02*
X364523809Y-194929819D01*
X364523809Y-194929819D02*
X364285714Y-194929819D01*
X364285714Y-194929819D02*
X364190476Y-194977438D01*
X364190476Y-194977438D02*
X364142857Y-195025057D01*
X364142857Y-195025057D02*
X364095238Y-195120295D01*
X364095238Y-195120295D02*
X364095238Y-195215533D01*
X364095238Y-195215533D02*
X364142857Y-195358390D01*
X364142857Y-195358390D02*
X364714285Y-195929819D01*
X364714285Y-195929819D02*
X364095238Y-195929819D01*
X363476190Y-194929819D02*
X363380952Y-194929819D01*
X363380952Y-194929819D02*
X363285714Y-194977438D01*
X363285714Y-194977438D02*
X363238095Y-195025057D01*
X363238095Y-195025057D02*
X363190476Y-195120295D01*
X363190476Y-195120295D02*
X363142857Y-195310771D01*
X363142857Y-195310771D02*
X363142857Y-195548866D01*
X363142857Y-195548866D02*
X363190476Y-195739342D01*
X363190476Y-195739342D02*
X363238095Y-195834580D01*
X363238095Y-195834580D02*
X363285714Y-195882200D01*
X363285714Y-195882200D02*
X363380952Y-195929819D01*
X363380952Y-195929819D02*
X363476190Y-195929819D01*
X363476190Y-195929819D02*
X363571428Y-195882200D01*
X363571428Y-195882200D02*
X363619047Y-195834580D01*
X363619047Y-195834580D02*
X363666666Y-195739342D01*
X363666666Y-195739342D02*
X363714285Y-195548866D01*
X363714285Y-195548866D02*
X363714285Y-195310771D01*
X363714285Y-195310771D02*
X363666666Y-195120295D01*
X363666666Y-195120295D02*
X363619047Y-195025057D01*
X363619047Y-195025057D02*
X363571428Y-194977438D01*
X363571428Y-194977438D02*
X363476190Y-194929819D01*
X362761904Y-195025057D02*
X362714285Y-194977438D01*
X362714285Y-194977438D02*
X362619047Y-194929819D01*
X362619047Y-194929819D02*
X362380952Y-194929819D01*
X362380952Y-194929819D02*
X362285714Y-194977438D01*
X362285714Y-194977438D02*
X362238095Y-195025057D01*
X362238095Y-195025057D02*
X362190476Y-195120295D01*
X362190476Y-195120295D02*
X362190476Y-195215533D01*
X362190476Y-195215533D02*
X362238095Y-195358390D01*
X362238095Y-195358390D02*
X362809523Y-195929819D01*
X362809523Y-195929819D02*
X362190476Y-195929819D01*
X361428571Y-195406009D02*
X361761904Y-195406009D01*
X361761904Y-195929819D02*
X361761904Y-194929819D01*
X361761904Y-194929819D02*
X361285714Y-194929819D01*
X203666666Y-189370057D02*
X203619047Y-189322438D01*
X203619047Y-189322438D02*
X203523809Y-189274819D01*
X203523809Y-189274819D02*
X203285714Y-189274819D01*
X203285714Y-189274819D02*
X203190476Y-189322438D01*
X203190476Y-189322438D02*
X203142857Y-189370057D01*
X203142857Y-189370057D02*
X203095238Y-189465295D01*
X203095238Y-189465295D02*
X203095238Y-189560533D01*
X203095238Y-189560533D02*
X203142857Y-189703390D01*
X203142857Y-189703390D02*
X203714285Y-190274819D01*
X203714285Y-190274819D02*
X203095238Y-190274819D01*
X202476190Y-189274819D02*
X202380952Y-189274819D01*
X202380952Y-189274819D02*
X202285714Y-189322438D01*
X202285714Y-189322438D02*
X202238095Y-189370057D01*
X202238095Y-189370057D02*
X202190476Y-189465295D01*
X202190476Y-189465295D02*
X202142857Y-189655771D01*
X202142857Y-189655771D02*
X202142857Y-189893866D01*
X202142857Y-189893866D02*
X202190476Y-190084342D01*
X202190476Y-190084342D02*
X202238095Y-190179580D01*
X202238095Y-190179580D02*
X202285714Y-190227200D01*
X202285714Y-190227200D02*
X202380952Y-190274819D01*
X202380952Y-190274819D02*
X202476190Y-190274819D01*
X202476190Y-190274819D02*
X202571428Y-190227200D01*
X202571428Y-190227200D02*
X202619047Y-190179580D01*
X202619047Y-190179580D02*
X202666666Y-190084342D01*
X202666666Y-190084342D02*
X202714285Y-189893866D01*
X202714285Y-189893866D02*
X202714285Y-189655771D01*
X202714285Y-189655771D02*
X202666666Y-189465295D01*
X202666666Y-189465295D02*
X202619047Y-189370057D01*
X202619047Y-189370057D02*
X202571428Y-189322438D01*
X202571428Y-189322438D02*
X202476190Y-189274819D01*
X201809523Y-189274819D02*
X201190476Y-189274819D01*
X201190476Y-189274819D02*
X201523809Y-189655771D01*
X201523809Y-189655771D02*
X201380952Y-189655771D01*
X201380952Y-189655771D02*
X201285714Y-189703390D01*
X201285714Y-189703390D02*
X201238095Y-189751009D01*
X201238095Y-189751009D02*
X201190476Y-189846247D01*
X201190476Y-189846247D02*
X201190476Y-190084342D01*
X201190476Y-190084342D02*
X201238095Y-190179580D01*
X201238095Y-190179580D02*
X201285714Y-190227200D01*
X201285714Y-190227200D02*
X201380952Y-190274819D01*
X201380952Y-190274819D02*
X201666666Y-190274819D01*
X201666666Y-190274819D02*
X201761904Y-190227200D01*
X201761904Y-190227200D02*
X201809523Y-190179580D01*
X200428571Y-189751009D02*
X200761904Y-189751009D01*
X200761904Y-190274819D02*
X200761904Y-189274819D01*
X200761904Y-189274819D02*
X200285714Y-189274819D01*
X314266666Y-161379819D02*
X314838094Y-161379819D01*
X314552380Y-161379819D02*
X314552380Y-160379819D01*
X314552380Y-160379819D02*
X314647618Y-160522676D01*
X314647618Y-160522676D02*
X314742856Y-160617914D01*
X314742856Y-160617914D02*
X314838094Y-160665533D01*
X313647618Y-160379819D02*
X313552380Y-160379819D01*
X313552380Y-160379819D02*
X313457142Y-160427438D01*
X313457142Y-160427438D02*
X313409523Y-160475057D01*
X313409523Y-160475057D02*
X313361904Y-160570295D01*
X313361904Y-160570295D02*
X313314285Y-160760771D01*
X313314285Y-160760771D02*
X313314285Y-160998866D01*
X313314285Y-160998866D02*
X313361904Y-161189342D01*
X313361904Y-161189342D02*
X313409523Y-161284580D01*
X313409523Y-161284580D02*
X313457142Y-161332200D01*
X313457142Y-161332200D02*
X313552380Y-161379819D01*
X313552380Y-161379819D02*
X313647618Y-161379819D01*
X313647618Y-161379819D02*
X313742856Y-161332200D01*
X313742856Y-161332200D02*
X313790475Y-161284580D01*
X313790475Y-161284580D02*
X313838094Y-161189342D01*
X313838094Y-161189342D02*
X313885713Y-160998866D01*
X313885713Y-160998866D02*
X313885713Y-160760771D01*
X313885713Y-160760771D02*
X313838094Y-160570295D01*
X313838094Y-160570295D02*
X313790475Y-160475057D01*
X313790475Y-160475057D02*
X313742856Y-160427438D01*
X313742856Y-160427438D02*
X313647618Y-160379819D01*
X312980951Y-160379819D02*
X312361904Y-160379819D01*
X312361904Y-160379819D02*
X312695237Y-160760771D01*
X312695237Y-160760771D02*
X312552380Y-160760771D01*
X312552380Y-160760771D02*
X312457142Y-160808390D01*
X312457142Y-160808390D02*
X312409523Y-160856009D01*
X312409523Y-160856009D02*
X312361904Y-160951247D01*
X312361904Y-160951247D02*
X312361904Y-161189342D01*
X312361904Y-161189342D02*
X312409523Y-161284580D01*
X312409523Y-161284580D02*
X312457142Y-161332200D01*
X312457142Y-161332200D02*
X312552380Y-161379819D01*
X312552380Y-161379819D02*
X312838094Y-161379819D01*
X312838094Y-161379819D02*
X312933332Y-161332200D01*
X312933332Y-161332200D02*
X312980951Y-161284580D01*
X230736666Y-187020057D02*
X230689047Y-186972438D01*
X230689047Y-186972438D02*
X230593809Y-186924819D01*
X230593809Y-186924819D02*
X230355714Y-186924819D01*
X230355714Y-186924819D02*
X230260476Y-186972438D01*
X230260476Y-186972438D02*
X230212857Y-187020057D01*
X230212857Y-187020057D02*
X230165238Y-187115295D01*
X230165238Y-187115295D02*
X230165238Y-187210533D01*
X230165238Y-187210533D02*
X230212857Y-187353390D01*
X230212857Y-187353390D02*
X230784285Y-187924819D01*
X230784285Y-187924819D02*
X230165238Y-187924819D01*
X229546190Y-186924819D02*
X229450952Y-186924819D01*
X229450952Y-186924819D02*
X229355714Y-186972438D01*
X229355714Y-186972438D02*
X229308095Y-187020057D01*
X229308095Y-187020057D02*
X229260476Y-187115295D01*
X229260476Y-187115295D02*
X229212857Y-187305771D01*
X229212857Y-187305771D02*
X229212857Y-187543866D01*
X229212857Y-187543866D02*
X229260476Y-187734342D01*
X229260476Y-187734342D02*
X229308095Y-187829580D01*
X229308095Y-187829580D02*
X229355714Y-187877200D01*
X229355714Y-187877200D02*
X229450952Y-187924819D01*
X229450952Y-187924819D02*
X229546190Y-187924819D01*
X229546190Y-187924819D02*
X229641428Y-187877200D01*
X229641428Y-187877200D02*
X229689047Y-187829580D01*
X229689047Y-187829580D02*
X229736666Y-187734342D01*
X229736666Y-187734342D02*
X229784285Y-187543866D01*
X229784285Y-187543866D02*
X229784285Y-187305771D01*
X229784285Y-187305771D02*
X229736666Y-187115295D01*
X229736666Y-187115295D02*
X229689047Y-187020057D01*
X229689047Y-187020057D02*
X229641428Y-186972438D01*
X229641428Y-186972438D02*
X229546190Y-186924819D01*
X228831904Y-187020057D02*
X228784285Y-186972438D01*
X228784285Y-186972438D02*
X228689047Y-186924819D01*
X228689047Y-186924819D02*
X228450952Y-186924819D01*
X228450952Y-186924819D02*
X228355714Y-186972438D01*
X228355714Y-186972438D02*
X228308095Y-187020057D01*
X228308095Y-187020057D02*
X228260476Y-187115295D01*
X228260476Y-187115295D02*
X228260476Y-187210533D01*
X228260476Y-187210533D02*
X228308095Y-187353390D01*
X228308095Y-187353390D02*
X228879523Y-187924819D01*
X228879523Y-187924819D02*
X228260476Y-187924819D01*
X227498571Y-187401009D02*
X227831904Y-187401009D01*
X227831904Y-187924819D02*
X227831904Y-186924819D01*
X227831904Y-186924819D02*
X227355714Y-186924819D01*
X290724819Y-177478333D02*
X290724819Y-176906905D01*
X290724819Y-177192619D02*
X289724819Y-177192619D01*
X289724819Y-177192619D02*
X289867676Y-177097381D01*
X289867676Y-177097381D02*
X289962914Y-177002143D01*
X289962914Y-177002143D02*
X290010533Y-176906905D01*
X289724819Y-178097381D02*
X289724819Y-178192619D01*
X289724819Y-178192619D02*
X289772438Y-178287857D01*
X289772438Y-178287857D02*
X289820057Y-178335476D01*
X289820057Y-178335476D02*
X289915295Y-178383095D01*
X289915295Y-178383095D02*
X290105771Y-178430714D01*
X290105771Y-178430714D02*
X290343866Y-178430714D01*
X290343866Y-178430714D02*
X290534342Y-178383095D01*
X290534342Y-178383095D02*
X290629580Y-178335476D01*
X290629580Y-178335476D02*
X290677200Y-178287857D01*
X290677200Y-178287857D02*
X290724819Y-178192619D01*
X290724819Y-178192619D02*
X290724819Y-178097381D01*
X290724819Y-178097381D02*
X290677200Y-178002143D01*
X290677200Y-178002143D02*
X290629580Y-177954524D01*
X290629580Y-177954524D02*
X290534342Y-177906905D01*
X290534342Y-177906905D02*
X290343866Y-177859286D01*
X290343866Y-177859286D02*
X290105771Y-177859286D01*
X290105771Y-177859286D02*
X289915295Y-177906905D01*
X289915295Y-177906905D02*
X289820057Y-177954524D01*
X289820057Y-177954524D02*
X289772438Y-178002143D01*
X289772438Y-178002143D02*
X289724819Y-178097381D01*
X290058152Y-179287857D02*
X290724819Y-179287857D01*
X289677200Y-179049762D02*
X290391485Y-178811667D01*
X290391485Y-178811667D02*
X290391485Y-179430714D01*
X116096666Y-189360057D02*
X116049047Y-189312438D01*
X116049047Y-189312438D02*
X115953809Y-189264819D01*
X115953809Y-189264819D02*
X115715714Y-189264819D01*
X115715714Y-189264819D02*
X115620476Y-189312438D01*
X115620476Y-189312438D02*
X115572857Y-189360057D01*
X115572857Y-189360057D02*
X115525238Y-189455295D01*
X115525238Y-189455295D02*
X115525238Y-189550533D01*
X115525238Y-189550533D02*
X115572857Y-189693390D01*
X115572857Y-189693390D02*
X116144285Y-190264819D01*
X116144285Y-190264819D02*
X115525238Y-190264819D01*
X114906190Y-189264819D02*
X114810952Y-189264819D01*
X114810952Y-189264819D02*
X114715714Y-189312438D01*
X114715714Y-189312438D02*
X114668095Y-189360057D01*
X114668095Y-189360057D02*
X114620476Y-189455295D01*
X114620476Y-189455295D02*
X114572857Y-189645771D01*
X114572857Y-189645771D02*
X114572857Y-189883866D01*
X114572857Y-189883866D02*
X114620476Y-190074342D01*
X114620476Y-190074342D02*
X114668095Y-190169580D01*
X114668095Y-190169580D02*
X114715714Y-190217200D01*
X114715714Y-190217200D02*
X114810952Y-190264819D01*
X114810952Y-190264819D02*
X114906190Y-190264819D01*
X114906190Y-190264819D02*
X115001428Y-190217200D01*
X115001428Y-190217200D02*
X115049047Y-190169580D01*
X115049047Y-190169580D02*
X115096666Y-190074342D01*
X115096666Y-190074342D02*
X115144285Y-189883866D01*
X115144285Y-189883866D02*
X115144285Y-189645771D01*
X115144285Y-189645771D02*
X115096666Y-189455295D01*
X115096666Y-189455295D02*
X115049047Y-189360057D01*
X115049047Y-189360057D02*
X115001428Y-189312438D01*
X115001428Y-189312438D02*
X114906190Y-189264819D01*
X114239523Y-189264819D02*
X113620476Y-189264819D01*
X113620476Y-189264819D02*
X113953809Y-189645771D01*
X113953809Y-189645771D02*
X113810952Y-189645771D01*
X113810952Y-189645771D02*
X113715714Y-189693390D01*
X113715714Y-189693390D02*
X113668095Y-189741009D01*
X113668095Y-189741009D02*
X113620476Y-189836247D01*
X113620476Y-189836247D02*
X113620476Y-190074342D01*
X113620476Y-190074342D02*
X113668095Y-190169580D01*
X113668095Y-190169580D02*
X113715714Y-190217200D01*
X113715714Y-190217200D02*
X113810952Y-190264819D01*
X113810952Y-190264819D02*
X114096666Y-190264819D01*
X114096666Y-190264819D02*
X114191904Y-190217200D01*
X114191904Y-190217200D02*
X114239523Y-190169580D01*
X112858571Y-189741009D02*
X113191904Y-189741009D01*
X113191904Y-190264819D02*
X113191904Y-189264819D01*
X113191904Y-189264819D02*
X112715714Y-189264819D01*
X257646666Y-187010057D02*
X257599047Y-186962438D01*
X257599047Y-186962438D02*
X257503809Y-186914819D01*
X257503809Y-186914819D02*
X257265714Y-186914819D01*
X257265714Y-186914819D02*
X257170476Y-186962438D01*
X257170476Y-186962438D02*
X257122857Y-187010057D01*
X257122857Y-187010057D02*
X257075238Y-187105295D01*
X257075238Y-187105295D02*
X257075238Y-187200533D01*
X257075238Y-187200533D02*
X257122857Y-187343390D01*
X257122857Y-187343390D02*
X257694285Y-187914819D01*
X257694285Y-187914819D02*
X257075238Y-187914819D01*
X256456190Y-186914819D02*
X256360952Y-186914819D01*
X256360952Y-186914819D02*
X256265714Y-186962438D01*
X256265714Y-186962438D02*
X256218095Y-187010057D01*
X256218095Y-187010057D02*
X256170476Y-187105295D01*
X256170476Y-187105295D02*
X256122857Y-187295771D01*
X256122857Y-187295771D02*
X256122857Y-187533866D01*
X256122857Y-187533866D02*
X256170476Y-187724342D01*
X256170476Y-187724342D02*
X256218095Y-187819580D01*
X256218095Y-187819580D02*
X256265714Y-187867200D01*
X256265714Y-187867200D02*
X256360952Y-187914819D01*
X256360952Y-187914819D02*
X256456190Y-187914819D01*
X256456190Y-187914819D02*
X256551428Y-187867200D01*
X256551428Y-187867200D02*
X256599047Y-187819580D01*
X256599047Y-187819580D02*
X256646666Y-187724342D01*
X256646666Y-187724342D02*
X256694285Y-187533866D01*
X256694285Y-187533866D02*
X256694285Y-187295771D01*
X256694285Y-187295771D02*
X256646666Y-187105295D01*
X256646666Y-187105295D02*
X256599047Y-187010057D01*
X256599047Y-187010057D02*
X256551428Y-186962438D01*
X256551428Y-186962438D02*
X256456190Y-186914819D01*
X255741904Y-187010057D02*
X255694285Y-186962438D01*
X255694285Y-186962438D02*
X255599047Y-186914819D01*
X255599047Y-186914819D02*
X255360952Y-186914819D01*
X255360952Y-186914819D02*
X255265714Y-186962438D01*
X255265714Y-186962438D02*
X255218095Y-187010057D01*
X255218095Y-187010057D02*
X255170476Y-187105295D01*
X255170476Y-187105295D02*
X255170476Y-187200533D01*
X255170476Y-187200533D02*
X255218095Y-187343390D01*
X255218095Y-187343390D02*
X255789523Y-187914819D01*
X255789523Y-187914819D02*
X255170476Y-187914819D01*
X254408571Y-187391009D02*
X254741904Y-187391009D01*
X254741904Y-187914819D02*
X254741904Y-186914819D01*
X254741904Y-186914819D02*
X254265714Y-186914819D01*
X349156666Y-195025057D02*
X349109047Y-194977438D01*
X349109047Y-194977438D02*
X349013809Y-194929819D01*
X349013809Y-194929819D02*
X348775714Y-194929819D01*
X348775714Y-194929819D02*
X348680476Y-194977438D01*
X348680476Y-194977438D02*
X348632857Y-195025057D01*
X348632857Y-195025057D02*
X348585238Y-195120295D01*
X348585238Y-195120295D02*
X348585238Y-195215533D01*
X348585238Y-195215533D02*
X348632857Y-195358390D01*
X348632857Y-195358390D02*
X349204285Y-195929819D01*
X349204285Y-195929819D02*
X348585238Y-195929819D01*
X347966190Y-194929819D02*
X347870952Y-194929819D01*
X347870952Y-194929819D02*
X347775714Y-194977438D01*
X347775714Y-194977438D02*
X347728095Y-195025057D01*
X347728095Y-195025057D02*
X347680476Y-195120295D01*
X347680476Y-195120295D02*
X347632857Y-195310771D01*
X347632857Y-195310771D02*
X347632857Y-195548866D01*
X347632857Y-195548866D02*
X347680476Y-195739342D01*
X347680476Y-195739342D02*
X347728095Y-195834580D01*
X347728095Y-195834580D02*
X347775714Y-195882200D01*
X347775714Y-195882200D02*
X347870952Y-195929819D01*
X347870952Y-195929819D02*
X347966190Y-195929819D01*
X347966190Y-195929819D02*
X348061428Y-195882200D01*
X348061428Y-195882200D02*
X348109047Y-195834580D01*
X348109047Y-195834580D02*
X348156666Y-195739342D01*
X348156666Y-195739342D02*
X348204285Y-195548866D01*
X348204285Y-195548866D02*
X348204285Y-195310771D01*
X348204285Y-195310771D02*
X348156666Y-195120295D01*
X348156666Y-195120295D02*
X348109047Y-195025057D01*
X348109047Y-195025057D02*
X348061428Y-194977438D01*
X348061428Y-194977438D02*
X347966190Y-194929819D01*
X347251904Y-195025057D02*
X347204285Y-194977438D01*
X347204285Y-194977438D02*
X347109047Y-194929819D01*
X347109047Y-194929819D02*
X346870952Y-194929819D01*
X346870952Y-194929819D02*
X346775714Y-194977438D01*
X346775714Y-194977438D02*
X346728095Y-195025057D01*
X346728095Y-195025057D02*
X346680476Y-195120295D01*
X346680476Y-195120295D02*
X346680476Y-195215533D01*
X346680476Y-195215533D02*
X346728095Y-195358390D01*
X346728095Y-195358390D02*
X347299523Y-195929819D01*
X347299523Y-195929819D02*
X346680476Y-195929819D01*
X345918571Y-195406009D02*
X346251904Y-195406009D01*
X346251904Y-195929819D02*
X346251904Y-194929819D01*
X346251904Y-194929819D02*
X345775714Y-194929819D01*
X323199819Y-170399761D02*
X323199819Y-169828333D01*
X323199819Y-170114047D02*
X322199819Y-170114047D01*
X322199819Y-170114047D02*
X322342676Y-170018809D01*
X322342676Y-170018809D02*
X322437914Y-169923571D01*
X322437914Y-169923571D02*
X322485533Y-169828333D01*
X322199819Y-171018809D02*
X322199819Y-171114047D01*
X322199819Y-171114047D02*
X322247438Y-171209285D01*
X322247438Y-171209285D02*
X322295057Y-171256904D01*
X322295057Y-171256904D02*
X322390295Y-171304523D01*
X322390295Y-171304523D02*
X322580771Y-171352142D01*
X322580771Y-171352142D02*
X322818866Y-171352142D01*
X322818866Y-171352142D02*
X323009342Y-171304523D01*
X323009342Y-171304523D02*
X323104580Y-171256904D01*
X323104580Y-171256904D02*
X323152200Y-171209285D01*
X323152200Y-171209285D02*
X323199819Y-171114047D01*
X323199819Y-171114047D02*
X323199819Y-171018809D01*
X323199819Y-171018809D02*
X323152200Y-170923571D01*
X323152200Y-170923571D02*
X323104580Y-170875952D01*
X323104580Y-170875952D02*
X323009342Y-170828333D01*
X323009342Y-170828333D02*
X322818866Y-170780714D01*
X322818866Y-170780714D02*
X322580771Y-170780714D01*
X322580771Y-170780714D02*
X322390295Y-170828333D01*
X322390295Y-170828333D02*
X322295057Y-170875952D01*
X322295057Y-170875952D02*
X322247438Y-170923571D01*
X322247438Y-170923571D02*
X322199819Y-171018809D01*
X322295057Y-171733095D02*
X322247438Y-171780714D01*
X322247438Y-171780714D02*
X322199819Y-171875952D01*
X322199819Y-171875952D02*
X322199819Y-172114047D01*
X322199819Y-172114047D02*
X322247438Y-172209285D01*
X322247438Y-172209285D02*
X322295057Y-172256904D01*
X322295057Y-172256904D02*
X322390295Y-172304523D01*
X322390295Y-172304523D02*
X322485533Y-172304523D01*
X322485533Y-172304523D02*
X322628390Y-172256904D01*
X322628390Y-172256904D02*
X323199819Y-171685476D01*
X323199819Y-171685476D02*
X323199819Y-172304523D01*
X322676009Y-173066428D02*
X322676009Y-172733095D01*
X323199819Y-172733095D02*
X322199819Y-172733095D01*
X322199819Y-172733095D02*
X322199819Y-173209285D01*
X230746666Y-189370057D02*
X230699047Y-189322438D01*
X230699047Y-189322438D02*
X230603809Y-189274819D01*
X230603809Y-189274819D02*
X230365714Y-189274819D01*
X230365714Y-189274819D02*
X230270476Y-189322438D01*
X230270476Y-189322438D02*
X230222857Y-189370057D01*
X230222857Y-189370057D02*
X230175238Y-189465295D01*
X230175238Y-189465295D02*
X230175238Y-189560533D01*
X230175238Y-189560533D02*
X230222857Y-189703390D01*
X230222857Y-189703390D02*
X230794285Y-190274819D01*
X230794285Y-190274819D02*
X230175238Y-190274819D01*
X229556190Y-189274819D02*
X229460952Y-189274819D01*
X229460952Y-189274819D02*
X229365714Y-189322438D01*
X229365714Y-189322438D02*
X229318095Y-189370057D01*
X229318095Y-189370057D02*
X229270476Y-189465295D01*
X229270476Y-189465295D02*
X229222857Y-189655771D01*
X229222857Y-189655771D02*
X229222857Y-189893866D01*
X229222857Y-189893866D02*
X229270476Y-190084342D01*
X229270476Y-190084342D02*
X229318095Y-190179580D01*
X229318095Y-190179580D02*
X229365714Y-190227200D01*
X229365714Y-190227200D02*
X229460952Y-190274819D01*
X229460952Y-190274819D02*
X229556190Y-190274819D01*
X229556190Y-190274819D02*
X229651428Y-190227200D01*
X229651428Y-190227200D02*
X229699047Y-190179580D01*
X229699047Y-190179580D02*
X229746666Y-190084342D01*
X229746666Y-190084342D02*
X229794285Y-189893866D01*
X229794285Y-189893866D02*
X229794285Y-189655771D01*
X229794285Y-189655771D02*
X229746666Y-189465295D01*
X229746666Y-189465295D02*
X229699047Y-189370057D01*
X229699047Y-189370057D02*
X229651428Y-189322438D01*
X229651428Y-189322438D02*
X229556190Y-189274819D01*
X228889523Y-189274819D02*
X228270476Y-189274819D01*
X228270476Y-189274819D02*
X228603809Y-189655771D01*
X228603809Y-189655771D02*
X228460952Y-189655771D01*
X228460952Y-189655771D02*
X228365714Y-189703390D01*
X228365714Y-189703390D02*
X228318095Y-189751009D01*
X228318095Y-189751009D02*
X228270476Y-189846247D01*
X228270476Y-189846247D02*
X228270476Y-190084342D01*
X228270476Y-190084342D02*
X228318095Y-190179580D01*
X228318095Y-190179580D02*
X228365714Y-190227200D01*
X228365714Y-190227200D02*
X228460952Y-190274819D01*
X228460952Y-190274819D02*
X228746666Y-190274819D01*
X228746666Y-190274819D02*
X228841904Y-190227200D01*
X228841904Y-190227200D02*
X228889523Y-190179580D01*
X227508571Y-189751009D02*
X227841904Y-189751009D01*
X227841904Y-190274819D02*
X227841904Y-189274819D01*
X227841904Y-189274819D02*
X227365714Y-189274819D01*
X305099819Y-170389761D02*
X305099819Y-169818333D01*
X305099819Y-170104047D02*
X304099819Y-170104047D01*
X304099819Y-170104047D02*
X304242676Y-170008809D01*
X304242676Y-170008809D02*
X304337914Y-169913571D01*
X304337914Y-169913571D02*
X304385533Y-169818333D01*
X304099819Y-171008809D02*
X304099819Y-171104047D01*
X304099819Y-171104047D02*
X304147438Y-171199285D01*
X304147438Y-171199285D02*
X304195057Y-171246904D01*
X304195057Y-171246904D02*
X304290295Y-171294523D01*
X304290295Y-171294523D02*
X304480771Y-171342142D01*
X304480771Y-171342142D02*
X304718866Y-171342142D01*
X304718866Y-171342142D02*
X304909342Y-171294523D01*
X304909342Y-171294523D02*
X305004580Y-171246904D01*
X305004580Y-171246904D02*
X305052200Y-171199285D01*
X305052200Y-171199285D02*
X305099819Y-171104047D01*
X305099819Y-171104047D02*
X305099819Y-171008809D01*
X305099819Y-171008809D02*
X305052200Y-170913571D01*
X305052200Y-170913571D02*
X305004580Y-170865952D01*
X305004580Y-170865952D02*
X304909342Y-170818333D01*
X304909342Y-170818333D02*
X304718866Y-170770714D01*
X304718866Y-170770714D02*
X304480771Y-170770714D01*
X304480771Y-170770714D02*
X304290295Y-170818333D01*
X304290295Y-170818333D02*
X304195057Y-170865952D01*
X304195057Y-170865952D02*
X304147438Y-170913571D01*
X304147438Y-170913571D02*
X304099819Y-171008809D01*
X304195057Y-171723095D02*
X304147438Y-171770714D01*
X304147438Y-171770714D02*
X304099819Y-171865952D01*
X304099819Y-171865952D02*
X304099819Y-172104047D01*
X304099819Y-172104047D02*
X304147438Y-172199285D01*
X304147438Y-172199285D02*
X304195057Y-172246904D01*
X304195057Y-172246904D02*
X304290295Y-172294523D01*
X304290295Y-172294523D02*
X304385533Y-172294523D01*
X304385533Y-172294523D02*
X304528390Y-172246904D01*
X304528390Y-172246904D02*
X305099819Y-171675476D01*
X305099819Y-171675476D02*
X305099819Y-172294523D01*
X304576009Y-173056428D02*
X304576009Y-172723095D01*
X305099819Y-172723095D02*
X304099819Y-172723095D01*
X304099819Y-172723095D02*
X304099819Y-173199285D01*
X116096666Y-187010057D02*
X116049047Y-186962438D01*
X116049047Y-186962438D02*
X115953809Y-186914819D01*
X115953809Y-186914819D02*
X115715714Y-186914819D01*
X115715714Y-186914819D02*
X115620476Y-186962438D01*
X115620476Y-186962438D02*
X115572857Y-187010057D01*
X115572857Y-187010057D02*
X115525238Y-187105295D01*
X115525238Y-187105295D02*
X115525238Y-187200533D01*
X115525238Y-187200533D02*
X115572857Y-187343390D01*
X115572857Y-187343390D02*
X116144285Y-187914819D01*
X116144285Y-187914819D02*
X115525238Y-187914819D01*
X114906190Y-186914819D02*
X114810952Y-186914819D01*
X114810952Y-186914819D02*
X114715714Y-186962438D01*
X114715714Y-186962438D02*
X114668095Y-187010057D01*
X114668095Y-187010057D02*
X114620476Y-187105295D01*
X114620476Y-187105295D02*
X114572857Y-187295771D01*
X114572857Y-187295771D02*
X114572857Y-187533866D01*
X114572857Y-187533866D02*
X114620476Y-187724342D01*
X114620476Y-187724342D02*
X114668095Y-187819580D01*
X114668095Y-187819580D02*
X114715714Y-187867200D01*
X114715714Y-187867200D02*
X114810952Y-187914819D01*
X114810952Y-187914819D02*
X114906190Y-187914819D01*
X114906190Y-187914819D02*
X115001428Y-187867200D01*
X115001428Y-187867200D02*
X115049047Y-187819580D01*
X115049047Y-187819580D02*
X115096666Y-187724342D01*
X115096666Y-187724342D02*
X115144285Y-187533866D01*
X115144285Y-187533866D02*
X115144285Y-187295771D01*
X115144285Y-187295771D02*
X115096666Y-187105295D01*
X115096666Y-187105295D02*
X115049047Y-187010057D01*
X115049047Y-187010057D02*
X115001428Y-186962438D01*
X115001428Y-186962438D02*
X114906190Y-186914819D01*
X114191904Y-187010057D02*
X114144285Y-186962438D01*
X114144285Y-186962438D02*
X114049047Y-186914819D01*
X114049047Y-186914819D02*
X113810952Y-186914819D01*
X113810952Y-186914819D02*
X113715714Y-186962438D01*
X113715714Y-186962438D02*
X113668095Y-187010057D01*
X113668095Y-187010057D02*
X113620476Y-187105295D01*
X113620476Y-187105295D02*
X113620476Y-187200533D01*
X113620476Y-187200533D02*
X113668095Y-187343390D01*
X113668095Y-187343390D02*
X114239523Y-187914819D01*
X114239523Y-187914819D02*
X113620476Y-187914819D01*
X112858571Y-187391009D02*
X113191904Y-187391009D01*
X113191904Y-187914819D02*
X113191904Y-186914819D01*
X113191904Y-186914819D02*
X112715714Y-186914819D01*
X87634286Y-177404366D02*
X87681905Y-177451985D01*
X87681905Y-177451985D02*
X87777143Y-177499604D01*
X87777143Y-177499604D02*
X88015238Y-177499604D01*
X88015238Y-177499604D02*
X88110476Y-177451985D01*
X88110476Y-177451985D02*
X88158095Y-177404366D01*
X88158095Y-177404366D02*
X88205714Y-177309128D01*
X88205714Y-177309128D02*
X88205714Y-177213890D01*
X88205714Y-177213890D02*
X88158095Y-177071033D01*
X88158095Y-177071033D02*
X87586667Y-176499604D01*
X87586667Y-176499604D02*
X88205714Y-176499604D01*
X77930476Y-177505180D02*
X77740000Y-177505180D01*
X77740000Y-177505180D02*
X77644762Y-177457561D01*
X77644762Y-177457561D02*
X77597143Y-177409942D01*
X77597143Y-177409942D02*
X77501905Y-177267085D01*
X77501905Y-177267085D02*
X77454286Y-177076609D01*
X77454286Y-177076609D02*
X77454286Y-176695657D01*
X77454286Y-176695657D02*
X77501905Y-176600419D01*
X77501905Y-176600419D02*
X77549524Y-176552800D01*
X77549524Y-176552800D02*
X77644762Y-176505180D01*
X77644762Y-176505180D02*
X77835238Y-176505180D01*
X77835238Y-176505180D02*
X77930476Y-176552800D01*
X77930476Y-176552800D02*
X77978095Y-176600419D01*
X77978095Y-176600419D02*
X78025714Y-176695657D01*
X78025714Y-176695657D02*
X78025714Y-176933752D01*
X78025714Y-176933752D02*
X77978095Y-177028990D01*
X77978095Y-177028990D02*
X77930476Y-177076609D01*
X77930476Y-177076609D02*
X77835238Y-177124228D01*
X77835238Y-177124228D02*
X77644762Y-177124228D01*
X77644762Y-177124228D02*
X77549524Y-177076609D01*
X77549524Y-177076609D02*
X77501905Y-177028990D01*
X77501905Y-177028990D02*
X77454286Y-176933752D01*
X85046667Y-177499604D02*
X85665714Y-177499604D01*
X85665714Y-177499604D02*
X85332381Y-177118652D01*
X85332381Y-177118652D02*
X85475238Y-177118652D01*
X85475238Y-177118652D02*
X85570476Y-177071033D01*
X85570476Y-177071033D02*
X85618095Y-177023414D01*
X85618095Y-177023414D02*
X85665714Y-176928176D01*
X85665714Y-176928176D02*
X85665714Y-176690081D01*
X85665714Y-176690081D02*
X85618095Y-176594843D01*
X85618095Y-176594843D02*
X85570476Y-176547224D01*
X85570476Y-176547224D02*
X85475238Y-176499604D01*
X85475238Y-176499604D02*
X85189524Y-176499604D01*
X85189524Y-176499604D02*
X85094286Y-176547224D01*
X85094286Y-176547224D02*
X85046667Y-176594843D01*
X80518095Y-177505180D02*
X80041905Y-177505180D01*
X80041905Y-177505180D02*
X79994286Y-177028990D01*
X79994286Y-177028990D02*
X80041905Y-177076609D01*
X80041905Y-177076609D02*
X80137143Y-177124228D01*
X80137143Y-177124228D02*
X80375238Y-177124228D01*
X80375238Y-177124228D02*
X80470476Y-177076609D01*
X80470476Y-177076609D02*
X80518095Y-177028990D01*
X80518095Y-177028990D02*
X80565714Y-176933752D01*
X80565714Y-176933752D02*
X80565714Y-176695657D01*
X80565714Y-176695657D02*
X80518095Y-176600419D01*
X80518095Y-176600419D02*
X80470476Y-176552800D01*
X80470476Y-176552800D02*
X80375238Y-176505180D01*
X80375238Y-176505180D02*
X80137143Y-176505180D01*
X80137143Y-176505180D02*
X80041905Y-176552800D01*
X80041905Y-176552800D02*
X79994286Y-176600419D01*
X90745714Y-176499604D02*
X90174286Y-176499604D01*
X90460000Y-176499604D02*
X90460000Y-177499604D01*
X90460000Y-177499604D02*
X90364762Y-177356747D01*
X90364762Y-177356747D02*
X90269524Y-177261509D01*
X90269524Y-177261509D02*
X90174286Y-177213890D01*
X83030476Y-177166271D02*
X83030476Y-176499604D01*
X82792381Y-177547224D02*
X82554286Y-176832938D01*
X82554286Y-176832938D02*
X83173333Y-176832938D01*
X278638094Y-160435057D02*
X278590475Y-160387438D01*
X278590475Y-160387438D02*
X278495237Y-160339819D01*
X278495237Y-160339819D02*
X278257142Y-160339819D01*
X278257142Y-160339819D02*
X278161904Y-160387438D01*
X278161904Y-160387438D02*
X278114285Y-160435057D01*
X278114285Y-160435057D02*
X278066666Y-160530295D01*
X278066666Y-160530295D02*
X278066666Y-160625533D01*
X278066666Y-160625533D02*
X278114285Y-160768390D01*
X278114285Y-160768390D02*
X278685713Y-161339819D01*
X278685713Y-161339819D02*
X278066666Y-161339819D01*
X277447618Y-160339819D02*
X277352380Y-160339819D01*
X277352380Y-160339819D02*
X277257142Y-160387438D01*
X277257142Y-160387438D02*
X277209523Y-160435057D01*
X277209523Y-160435057D02*
X277161904Y-160530295D01*
X277161904Y-160530295D02*
X277114285Y-160720771D01*
X277114285Y-160720771D02*
X277114285Y-160958866D01*
X277114285Y-160958866D02*
X277161904Y-161149342D01*
X277161904Y-161149342D02*
X277209523Y-161244580D01*
X277209523Y-161244580D02*
X277257142Y-161292200D01*
X277257142Y-161292200D02*
X277352380Y-161339819D01*
X277352380Y-161339819D02*
X277447618Y-161339819D01*
X277447618Y-161339819D02*
X277542856Y-161292200D01*
X277542856Y-161292200D02*
X277590475Y-161244580D01*
X277590475Y-161244580D02*
X277638094Y-161149342D01*
X277638094Y-161149342D02*
X277685713Y-160958866D01*
X277685713Y-160958866D02*
X277685713Y-160720771D01*
X277685713Y-160720771D02*
X277638094Y-160530295D01*
X277638094Y-160530295D02*
X277590475Y-160435057D01*
X277590475Y-160435057D02*
X277542856Y-160387438D01*
X277542856Y-160387438D02*
X277447618Y-160339819D01*
X276733332Y-160435057D02*
X276685713Y-160387438D01*
X276685713Y-160387438D02*
X276590475Y-160339819D01*
X276590475Y-160339819D02*
X276352380Y-160339819D01*
X276352380Y-160339819D02*
X276257142Y-160387438D01*
X276257142Y-160387438D02*
X276209523Y-160435057D01*
X276209523Y-160435057D02*
X276161904Y-160530295D01*
X276161904Y-160530295D02*
X276161904Y-160625533D01*
X276161904Y-160625533D02*
X276209523Y-160768390D01*
X276209523Y-160768390D02*
X276780951Y-161339819D01*
X276780951Y-161339819D02*
X276161904Y-161339819D01*
X296291666Y-161379819D02*
X296863094Y-161379819D01*
X296577380Y-161379819D02*
X296577380Y-160379819D01*
X296577380Y-160379819D02*
X296672618Y-160522676D01*
X296672618Y-160522676D02*
X296767856Y-160617914D01*
X296767856Y-160617914D02*
X296863094Y-160665533D01*
X295672618Y-160379819D02*
X295577380Y-160379819D01*
X295577380Y-160379819D02*
X295482142Y-160427438D01*
X295482142Y-160427438D02*
X295434523Y-160475057D01*
X295434523Y-160475057D02*
X295386904Y-160570295D01*
X295386904Y-160570295D02*
X295339285Y-160760771D01*
X295339285Y-160760771D02*
X295339285Y-160998866D01*
X295339285Y-160998866D02*
X295386904Y-161189342D01*
X295386904Y-161189342D02*
X295434523Y-161284580D01*
X295434523Y-161284580D02*
X295482142Y-161332200D01*
X295482142Y-161332200D02*
X295577380Y-161379819D01*
X295577380Y-161379819D02*
X295672618Y-161379819D01*
X295672618Y-161379819D02*
X295767856Y-161332200D01*
X295767856Y-161332200D02*
X295815475Y-161284580D01*
X295815475Y-161284580D02*
X295863094Y-161189342D01*
X295863094Y-161189342D02*
X295910713Y-160998866D01*
X295910713Y-160998866D02*
X295910713Y-160760771D01*
X295910713Y-160760771D02*
X295863094Y-160570295D01*
X295863094Y-160570295D02*
X295815475Y-160475057D01*
X295815475Y-160475057D02*
X295767856Y-160427438D01*
X295767856Y-160427438D02*
X295672618Y-160379819D01*
X295005951Y-160379819D02*
X294386904Y-160379819D01*
X294386904Y-160379819D02*
X294720237Y-160760771D01*
X294720237Y-160760771D02*
X294577380Y-160760771D01*
X294577380Y-160760771D02*
X294482142Y-160808390D01*
X294482142Y-160808390D02*
X294434523Y-160856009D01*
X294434523Y-160856009D02*
X294386904Y-160951247D01*
X294386904Y-160951247D02*
X294386904Y-161189342D01*
X294386904Y-161189342D02*
X294434523Y-161284580D01*
X294434523Y-161284580D02*
X294482142Y-161332200D01*
X294482142Y-161332200D02*
X294577380Y-161379819D01*
X294577380Y-161379819D02*
X294863094Y-161379819D01*
X294863094Y-161379819D02*
X294958332Y-161332200D01*
X294958332Y-161332200D02*
X295005951Y-161284580D01*
X303511428Y-187344819D02*
X303320952Y-187344819D01*
X303320952Y-187344819D02*
X303225714Y-187297200D01*
X303225714Y-187297200D02*
X303178095Y-187249580D01*
X303178095Y-187249580D02*
X303082857Y-187106723D01*
X303082857Y-187106723D02*
X303035238Y-186916247D01*
X303035238Y-186916247D02*
X303035238Y-186535295D01*
X303035238Y-186535295D02*
X303082857Y-186440057D01*
X303082857Y-186440057D02*
X303130476Y-186392438D01*
X303130476Y-186392438D02*
X303225714Y-186344819D01*
X303225714Y-186344819D02*
X303416190Y-186344819D01*
X303416190Y-186344819D02*
X303511428Y-186392438D01*
X303511428Y-186392438D02*
X303559047Y-186440057D01*
X303559047Y-186440057D02*
X303606666Y-186535295D01*
X303606666Y-186535295D02*
X303606666Y-186773390D01*
X303606666Y-186773390D02*
X303559047Y-186868628D01*
X303559047Y-186868628D02*
X303511428Y-186916247D01*
X303511428Y-186916247D02*
X303416190Y-186963866D01*
X303416190Y-186963866D02*
X303225714Y-186963866D01*
X303225714Y-186963866D02*
X303130476Y-186916247D01*
X303130476Y-186916247D02*
X303082857Y-186868628D01*
X303082857Y-186868628D02*
X303035238Y-186773390D01*
X302654285Y-186440057D02*
X302606666Y-186392438D01*
X302606666Y-186392438D02*
X302511428Y-186344819D01*
X302511428Y-186344819D02*
X302273333Y-186344819D01*
X302273333Y-186344819D02*
X302178095Y-186392438D01*
X302178095Y-186392438D02*
X302130476Y-186440057D01*
X302130476Y-186440057D02*
X302082857Y-186535295D01*
X302082857Y-186535295D02*
X302082857Y-186630533D01*
X302082857Y-186630533D02*
X302130476Y-186773390D01*
X302130476Y-186773390D02*
X302701904Y-187344819D01*
X302701904Y-187344819D02*
X302082857Y-187344819D01*
X301178095Y-187344819D02*
X301654285Y-187344819D01*
X301654285Y-187344819D02*
X301654285Y-186344819D01*
X156696666Y-189360057D02*
X156649047Y-189312438D01*
X156649047Y-189312438D02*
X156553809Y-189264819D01*
X156553809Y-189264819D02*
X156315714Y-189264819D01*
X156315714Y-189264819D02*
X156220476Y-189312438D01*
X156220476Y-189312438D02*
X156172857Y-189360057D01*
X156172857Y-189360057D02*
X156125238Y-189455295D01*
X156125238Y-189455295D02*
X156125238Y-189550533D01*
X156125238Y-189550533D02*
X156172857Y-189693390D01*
X156172857Y-189693390D02*
X156744285Y-190264819D01*
X156744285Y-190264819D02*
X156125238Y-190264819D01*
X155506190Y-189264819D02*
X155410952Y-189264819D01*
X155410952Y-189264819D02*
X155315714Y-189312438D01*
X155315714Y-189312438D02*
X155268095Y-189360057D01*
X155268095Y-189360057D02*
X155220476Y-189455295D01*
X155220476Y-189455295D02*
X155172857Y-189645771D01*
X155172857Y-189645771D02*
X155172857Y-189883866D01*
X155172857Y-189883866D02*
X155220476Y-190074342D01*
X155220476Y-190074342D02*
X155268095Y-190169580D01*
X155268095Y-190169580D02*
X155315714Y-190217200D01*
X155315714Y-190217200D02*
X155410952Y-190264819D01*
X155410952Y-190264819D02*
X155506190Y-190264819D01*
X155506190Y-190264819D02*
X155601428Y-190217200D01*
X155601428Y-190217200D02*
X155649047Y-190169580D01*
X155649047Y-190169580D02*
X155696666Y-190074342D01*
X155696666Y-190074342D02*
X155744285Y-189883866D01*
X155744285Y-189883866D02*
X155744285Y-189645771D01*
X155744285Y-189645771D02*
X155696666Y-189455295D01*
X155696666Y-189455295D02*
X155649047Y-189360057D01*
X155649047Y-189360057D02*
X155601428Y-189312438D01*
X155601428Y-189312438D02*
X155506190Y-189264819D01*
X154839523Y-189264819D02*
X154220476Y-189264819D01*
X154220476Y-189264819D02*
X154553809Y-189645771D01*
X154553809Y-189645771D02*
X154410952Y-189645771D01*
X154410952Y-189645771D02*
X154315714Y-189693390D01*
X154315714Y-189693390D02*
X154268095Y-189741009D01*
X154268095Y-189741009D02*
X154220476Y-189836247D01*
X154220476Y-189836247D02*
X154220476Y-190074342D01*
X154220476Y-190074342D02*
X154268095Y-190169580D01*
X154268095Y-190169580D02*
X154315714Y-190217200D01*
X154315714Y-190217200D02*
X154410952Y-190264819D01*
X154410952Y-190264819D02*
X154696666Y-190264819D01*
X154696666Y-190264819D02*
X154791904Y-190217200D01*
X154791904Y-190217200D02*
X154839523Y-190169580D01*
X153458571Y-189741009D02*
X153791904Y-189741009D01*
X153791904Y-190264819D02*
X153791904Y-189264819D01*
X153791904Y-189264819D02*
X153315714Y-189264819D01*
X321611428Y-187344819D02*
X321420952Y-187344819D01*
X321420952Y-187344819D02*
X321325714Y-187297200D01*
X321325714Y-187297200D02*
X321278095Y-187249580D01*
X321278095Y-187249580D02*
X321182857Y-187106723D01*
X321182857Y-187106723D02*
X321135238Y-186916247D01*
X321135238Y-186916247D02*
X321135238Y-186535295D01*
X321135238Y-186535295D02*
X321182857Y-186440057D01*
X321182857Y-186440057D02*
X321230476Y-186392438D01*
X321230476Y-186392438D02*
X321325714Y-186344819D01*
X321325714Y-186344819D02*
X321516190Y-186344819D01*
X321516190Y-186344819D02*
X321611428Y-186392438D01*
X321611428Y-186392438D02*
X321659047Y-186440057D01*
X321659047Y-186440057D02*
X321706666Y-186535295D01*
X321706666Y-186535295D02*
X321706666Y-186773390D01*
X321706666Y-186773390D02*
X321659047Y-186868628D01*
X321659047Y-186868628D02*
X321611428Y-186916247D01*
X321611428Y-186916247D02*
X321516190Y-186963866D01*
X321516190Y-186963866D02*
X321325714Y-186963866D01*
X321325714Y-186963866D02*
X321230476Y-186916247D01*
X321230476Y-186916247D02*
X321182857Y-186868628D01*
X321182857Y-186868628D02*
X321135238Y-186773390D01*
X320754285Y-186440057D02*
X320706666Y-186392438D01*
X320706666Y-186392438D02*
X320611428Y-186344819D01*
X320611428Y-186344819D02*
X320373333Y-186344819D01*
X320373333Y-186344819D02*
X320278095Y-186392438D01*
X320278095Y-186392438D02*
X320230476Y-186440057D01*
X320230476Y-186440057D02*
X320182857Y-186535295D01*
X320182857Y-186535295D02*
X320182857Y-186630533D01*
X320182857Y-186630533D02*
X320230476Y-186773390D01*
X320230476Y-186773390D02*
X320801904Y-187344819D01*
X320801904Y-187344819D02*
X320182857Y-187344819D01*
X319278095Y-187344819D02*
X319754285Y-187344819D01*
X319754285Y-187344819D02*
X319754285Y-186344819D01*
X320769819Y-176389761D02*
X320769819Y-175818333D01*
X320769819Y-176104047D02*
X319769819Y-176104047D01*
X319769819Y-176104047D02*
X319912676Y-176008809D01*
X319912676Y-176008809D02*
X320007914Y-175913571D01*
X320007914Y-175913571D02*
X320055533Y-175818333D01*
X319769819Y-177008809D02*
X319769819Y-177104047D01*
X319769819Y-177104047D02*
X319817438Y-177199285D01*
X319817438Y-177199285D02*
X319865057Y-177246904D01*
X319865057Y-177246904D02*
X319960295Y-177294523D01*
X319960295Y-177294523D02*
X320150771Y-177342142D01*
X320150771Y-177342142D02*
X320388866Y-177342142D01*
X320388866Y-177342142D02*
X320579342Y-177294523D01*
X320579342Y-177294523D02*
X320674580Y-177246904D01*
X320674580Y-177246904D02*
X320722200Y-177199285D01*
X320722200Y-177199285D02*
X320769819Y-177104047D01*
X320769819Y-177104047D02*
X320769819Y-177008809D01*
X320769819Y-177008809D02*
X320722200Y-176913571D01*
X320722200Y-176913571D02*
X320674580Y-176865952D01*
X320674580Y-176865952D02*
X320579342Y-176818333D01*
X320579342Y-176818333D02*
X320388866Y-176770714D01*
X320388866Y-176770714D02*
X320150771Y-176770714D01*
X320150771Y-176770714D02*
X319960295Y-176818333D01*
X319960295Y-176818333D02*
X319865057Y-176865952D01*
X319865057Y-176865952D02*
X319817438Y-176913571D01*
X319817438Y-176913571D02*
X319769819Y-177008809D01*
X319865057Y-177723095D02*
X319817438Y-177770714D01*
X319817438Y-177770714D02*
X319769819Y-177865952D01*
X319769819Y-177865952D02*
X319769819Y-178104047D01*
X319769819Y-178104047D02*
X319817438Y-178199285D01*
X319817438Y-178199285D02*
X319865057Y-178246904D01*
X319865057Y-178246904D02*
X319960295Y-178294523D01*
X319960295Y-178294523D02*
X320055533Y-178294523D01*
X320055533Y-178294523D02*
X320198390Y-178246904D01*
X320198390Y-178246904D02*
X320769819Y-177675476D01*
X320769819Y-177675476D02*
X320769819Y-178294523D01*
X320246009Y-179056428D02*
X320246009Y-178723095D01*
X320769819Y-178723095D02*
X319769819Y-178723095D01*
X319769819Y-178723095D02*
X319769819Y-179199285D01*
X330390476Y-195293152D02*
X330390476Y-195959819D01*
X330628571Y-194912200D02*
X330866666Y-195626485D01*
X330866666Y-195626485D02*
X330247619Y-195626485D01*
X329961904Y-194959819D02*
X329295238Y-194959819D01*
X329295238Y-194959819D02*
X329723809Y-195959819D01*
X329009523Y-194959819D02*
X328390476Y-194959819D01*
X328390476Y-194959819D02*
X328723809Y-195340771D01*
X328723809Y-195340771D02*
X328580952Y-195340771D01*
X328580952Y-195340771D02*
X328485714Y-195388390D01*
X328485714Y-195388390D02*
X328438095Y-195436009D01*
X328438095Y-195436009D02*
X328390476Y-195531247D01*
X328390476Y-195531247D02*
X328390476Y-195769342D01*
X328390476Y-195769342D02*
X328438095Y-195864580D01*
X328438095Y-195864580D02*
X328485714Y-195912200D01*
X328485714Y-195912200D02*
X328580952Y-195959819D01*
X328580952Y-195959819D02*
X328866666Y-195959819D01*
X328866666Y-195959819D02*
X328961904Y-195912200D01*
X328961904Y-195912200D02*
X329009523Y-195864580D01*
X327628571Y-195436009D02*
X327961904Y-195436009D01*
X327961904Y-195959819D02*
X327961904Y-194959819D01*
X327961904Y-194959819D02*
X327485714Y-194959819D01*
X334966666Y-195055057D02*
X334919047Y-195007438D01*
X334919047Y-195007438D02*
X334823809Y-194959819D01*
X334823809Y-194959819D02*
X334585714Y-194959819D01*
X334585714Y-194959819D02*
X334490476Y-195007438D01*
X334490476Y-195007438D02*
X334442857Y-195055057D01*
X334442857Y-195055057D02*
X334395238Y-195150295D01*
X334395238Y-195150295D02*
X334395238Y-195245533D01*
X334395238Y-195245533D02*
X334442857Y-195388390D01*
X334442857Y-195388390D02*
X335014285Y-195959819D01*
X335014285Y-195959819D02*
X334395238Y-195959819D01*
X333776190Y-194959819D02*
X333680952Y-194959819D01*
X333680952Y-194959819D02*
X333585714Y-195007438D01*
X333585714Y-195007438D02*
X333538095Y-195055057D01*
X333538095Y-195055057D02*
X333490476Y-195150295D01*
X333490476Y-195150295D02*
X333442857Y-195340771D01*
X333442857Y-195340771D02*
X333442857Y-195578866D01*
X333442857Y-195578866D02*
X333490476Y-195769342D01*
X333490476Y-195769342D02*
X333538095Y-195864580D01*
X333538095Y-195864580D02*
X333585714Y-195912200D01*
X333585714Y-195912200D02*
X333680952Y-195959819D01*
X333680952Y-195959819D02*
X333776190Y-195959819D01*
X333776190Y-195959819D02*
X333871428Y-195912200D01*
X333871428Y-195912200D02*
X333919047Y-195864580D01*
X333919047Y-195864580D02*
X333966666Y-195769342D01*
X333966666Y-195769342D02*
X334014285Y-195578866D01*
X334014285Y-195578866D02*
X334014285Y-195340771D01*
X334014285Y-195340771D02*
X333966666Y-195150295D01*
X333966666Y-195150295D02*
X333919047Y-195055057D01*
X333919047Y-195055057D02*
X333871428Y-195007438D01*
X333871428Y-195007438D02*
X333776190Y-194959819D01*
X333061904Y-195055057D02*
X333014285Y-195007438D01*
X333014285Y-195007438D02*
X332919047Y-194959819D01*
X332919047Y-194959819D02*
X332680952Y-194959819D01*
X332680952Y-194959819D02*
X332585714Y-195007438D01*
X332585714Y-195007438D02*
X332538095Y-195055057D01*
X332538095Y-195055057D02*
X332490476Y-195150295D01*
X332490476Y-195150295D02*
X332490476Y-195245533D01*
X332490476Y-195245533D02*
X332538095Y-195388390D01*
X332538095Y-195388390D02*
X333109523Y-195959819D01*
X333109523Y-195959819D02*
X332490476Y-195959819D01*
X331728571Y-195436009D02*
X332061904Y-195436009D01*
X332061904Y-195959819D02*
X332061904Y-194959819D01*
X332061904Y-194959819D02*
X331585714Y-194959819D01*
D12*
%TO.C,D2*%
X299240000Y-159605000D02*
X299240000Y-155705000D01*
D13*
X300240000Y-157105000D02*
X300240000Y-156605000D01*
X300240000Y-157705000D02*
X299690000Y-157705000D01*
X300240000Y-157705000D02*
X300790000Y-157705000D01*
X300240000Y-158105000D02*
X300240000Y-157705000D01*
D12*
X301240000Y-159605000D02*
X299240000Y-159605000D01*
X301240000Y-159605000D02*
X301240000Y-155705000D01*
D13*
X300240000Y-157705000D02*
X299740000Y-157105000D01*
X300740000Y-157105000D01*
X300240000Y-157705000D01*
G36*
X300240000Y-157705000D02*
G01*
X299740000Y-157105000D01*
X300740000Y-157105000D01*
X300240000Y-157705000D01*
G37*
D12*
%TO.C,D14*%
X288607000Y-213625000D02*
X288607000Y-209725000D01*
D13*
X289607000Y-211125000D02*
X289607000Y-210625000D01*
X289607000Y-211725000D02*
X289057000Y-211725000D01*
X289607000Y-211725000D02*
X290157000Y-211725000D01*
X289607000Y-212125000D02*
X289607000Y-211725000D01*
D12*
X290607000Y-213625000D02*
X288607000Y-213625000D01*
X290607000Y-213625000D02*
X290607000Y-209725000D01*
D13*
X289607000Y-211725000D02*
X289107000Y-211125000D01*
X290107000Y-211125000D01*
X289607000Y-211725000D01*
G36*
X289607000Y-211725000D02*
G01*
X289107000Y-211125000D01*
X290107000Y-211125000D01*
X289607000Y-211725000D01*
G37*
D10*
%TO.C,U1*%
X273695000Y-173355000D02*
X280045000Y-173355000D01*
X273695000Y-178435000D02*
X273695000Y-173355000D01*
X279410000Y-175895000D02*
X280045000Y-175260000D01*
X280045000Y-173355000D02*
X280045000Y-178435000D01*
X280045000Y-176530000D02*
X279410000Y-175895000D01*
X280045000Y-178435000D02*
X273695000Y-178435000D01*
D12*
%TO.C,C4*%
X271495000Y-169420000D02*
X275995000Y-169420000D01*
X271495000Y-171420000D02*
X271495000Y-169420000D01*
X273245000Y-169570000D02*
X274245000Y-169570000D01*
X273595000Y-170420000D02*
X273320000Y-170420000D01*
X273595000Y-170770000D02*
X273595000Y-170070000D01*
X273895000Y-170770000D02*
X273895000Y-170070000D01*
X273945000Y-170420000D02*
X274170000Y-170420000D01*
X274245000Y-171270000D02*
X273245000Y-171270000D01*
X275995000Y-169420000D02*
X275995000Y-171420000D01*
X275995000Y-171420000D02*
X271495000Y-171420000D01*
%TO.C,C9*%
X317375000Y-169245000D02*
X319375000Y-169245000D01*
X317375000Y-173745000D02*
X317375000Y-169245000D01*
X317525000Y-171995000D02*
X317525000Y-170995000D01*
X318025000Y-171345000D02*
X318725000Y-171345000D01*
X318025000Y-171645000D02*
X318725000Y-171645000D01*
X318375000Y-171345000D02*
X318375000Y-171070000D01*
X318375000Y-171695000D02*
X318375000Y-171920000D01*
X319225000Y-170995000D02*
X319225000Y-171995000D01*
X319375000Y-169245000D02*
X319375000Y-173745000D01*
X319375000Y-173745000D02*
X317375000Y-173745000D01*
D10*
%TO.C,U2*%
X291695000Y-173355000D02*
X298045000Y-173355000D01*
X291695000Y-178435000D02*
X291695000Y-173355000D01*
X297410000Y-175895000D02*
X298045000Y-175260000D01*
X298045000Y-173355000D02*
X298045000Y-178435000D01*
X298045000Y-176530000D02*
X297410000Y-175895000D01*
X298045000Y-178435000D02*
X291695000Y-178435000D01*
D12*
%TO.C,R2*%
X157125000Y-186460000D02*
X161825000Y-186460000D01*
X157125000Y-188460000D02*
X157125000Y-186460000D01*
D11*
X159225000Y-187710000D02*
X159025000Y-187260000D01*
X159475000Y-187210000D02*
X159225000Y-187710000D01*
X159725000Y-187710000D02*
X159475000Y-187210000D01*
X159925000Y-187260000D02*
X159725000Y-187710000D01*
D12*
X161825000Y-186460000D02*
X161825000Y-188460000D01*
X161825000Y-188460000D02*
X157125000Y-188460000D01*
%TO.C,D13*%
X286067000Y-213625000D02*
X286067000Y-209725000D01*
D13*
X287067000Y-211125000D02*
X287067000Y-210625000D01*
X287067000Y-211725000D02*
X286517000Y-211725000D01*
X287067000Y-211725000D02*
X287617000Y-211725000D01*
X287067000Y-212125000D02*
X287067000Y-211725000D01*
D12*
X288067000Y-213625000D02*
X286067000Y-213625000D01*
X288067000Y-213625000D02*
X288067000Y-209725000D01*
D13*
X287067000Y-211725000D02*
X286567000Y-211125000D01*
X287567000Y-211125000D01*
X287067000Y-211725000D01*
G36*
X287067000Y-211725000D02*
G01*
X286567000Y-211125000D01*
X287567000Y-211125000D01*
X287067000Y-211725000D01*
G37*
D12*
%TO.C,D16*%
X293687000Y-213625000D02*
X293687000Y-209725000D01*
D13*
X294687000Y-211125000D02*
X294687000Y-210625000D01*
X294687000Y-211725000D02*
X294137000Y-211725000D01*
X294687000Y-211725000D02*
X295237000Y-211725000D01*
X294687000Y-212125000D02*
X294687000Y-211725000D01*
D12*
X295687000Y-213625000D02*
X293687000Y-213625000D01*
X295687000Y-213625000D02*
X295687000Y-209725000D01*
D13*
X294687000Y-211725000D02*
X294187000Y-211125000D01*
X295187000Y-211125000D01*
X294687000Y-211725000D01*
G36*
X294687000Y-211725000D02*
G01*
X294187000Y-211125000D01*
X295187000Y-211125000D01*
X294687000Y-211725000D01*
G37*
D12*
%TO.C,Q7*%
X231845000Y-193640000D02*
X231845000Y-191480000D01*
X231845000Y-193640000D02*
X232775000Y-193640000D01*
X235005000Y-193640000D02*
X234075000Y-193640000D01*
X235005000Y-193640000D02*
X235005000Y-192180000D01*
%TO.C,D20*%
X292200000Y-187955000D02*
X296100000Y-187955000D01*
X292200000Y-189955000D02*
X292200000Y-187955000D01*
X292200000Y-189955000D02*
X296100000Y-189955000D01*
D13*
X293700000Y-188955000D02*
X294100000Y-188955000D01*
X294100000Y-188955000D02*
X294100000Y-188405000D01*
X294100000Y-188955000D02*
X294100000Y-189505000D01*
X294700000Y-188955000D02*
X295200000Y-188955000D01*
X294700000Y-189455000D02*
X294100000Y-188955000D01*
X294700000Y-188455000D01*
X294700000Y-189455000D01*
G36*
X294700000Y-189455000D02*
G01*
X294100000Y-188955000D01*
X294700000Y-188455000D01*
X294700000Y-189455000D01*
G37*
D12*
%TO.C,MO1*%
X56020000Y-171780000D02*
X56020000Y-193280000D01*
X56020000Y-193280000D02*
X72020000Y-193280000D01*
X62020000Y-185030000D02*
X63020000Y-185030000D01*
X62020000Y-186030000D02*
X63520000Y-186030000D01*
X62020000Y-188030000D02*
X63020000Y-188030000D01*
X63520000Y-187030000D02*
X62020000Y-187030000D01*
X65520000Y-187030000D02*
X66520000Y-187030000D01*
X65520000Y-188030000D02*
X66520000Y-188030000D01*
X66520000Y-185030000D02*
X65520000Y-185030000D01*
X66520000Y-186030000D02*
X65520000Y-186030000D01*
D14*
X69520000Y-184530000D02*
X68520000Y-186030000D01*
X69520000Y-184530000D02*
X70520000Y-186030000D01*
X69520000Y-188030000D02*
X69520000Y-184530000D01*
D12*
X72020000Y-171780000D02*
X56020000Y-171780000D01*
X72020000Y-193280000D02*
X72020000Y-171780000D01*
D13*
X69020000Y-181030000D02*
X63020000Y-181030000D01*
X63020000Y-174530000D01*
X69020000Y-174530000D01*
X69020000Y-181030000D01*
G36*
X69020000Y-181030000D02*
G01*
X63020000Y-181030000D01*
X63020000Y-174530000D01*
X69020000Y-174530000D01*
X69020000Y-181030000D01*
G37*
X65520000Y-188530000D02*
X63020000Y-188530000D01*
X63020000Y-184530000D01*
X65520000Y-184530000D01*
X65520000Y-188530000D01*
G36*
X65520000Y-188530000D02*
G01*
X63020000Y-188530000D01*
X63020000Y-184530000D01*
X65520000Y-184530000D01*
X65520000Y-188530000D01*
G37*
D12*
%TO.C,D8*%
X132407000Y-190795000D02*
X132407000Y-186895000D01*
D13*
X133407000Y-188295000D02*
X133407000Y-187795000D01*
X133407000Y-188895000D02*
X132857000Y-188895000D01*
X133407000Y-188895000D02*
X133957000Y-188895000D01*
X133407000Y-189295000D02*
X133407000Y-188895000D01*
D12*
X134407000Y-190795000D02*
X132407000Y-190795000D01*
X134407000Y-190795000D02*
X134407000Y-186895000D01*
D13*
X133407000Y-188895000D02*
X132907000Y-188295000D01*
X133907000Y-188295000D01*
X133407000Y-188895000D01*
G36*
X133407000Y-188895000D02*
G01*
X132907000Y-188295000D01*
X133907000Y-188295000D01*
X133407000Y-188895000D01*
G37*
D12*
%TO.C,C10*%
X72590000Y-161370000D02*
X74590000Y-161370000D01*
X72590000Y-165870000D02*
X72590000Y-161370000D01*
X72740000Y-164120000D02*
X72740000Y-163120000D01*
X73240000Y-163470000D02*
X73940000Y-163470000D01*
X73240000Y-163770000D02*
X73940000Y-163770000D01*
X73590000Y-163470000D02*
X73590000Y-163195000D01*
X73590000Y-163820000D02*
X73590000Y-164045000D01*
X74440000Y-163120000D02*
X74440000Y-164120000D01*
X74590000Y-161370000D02*
X74590000Y-165870000D01*
X74590000Y-165870000D02*
X72590000Y-165870000D01*
%TO.C,R19*%
X258075000Y-188810000D02*
X262775000Y-188810000D01*
X258075000Y-190810000D02*
X258075000Y-188810000D01*
D11*
X259975000Y-190010000D02*
X260175000Y-189560000D01*
X260175000Y-189560000D02*
X260425000Y-190060000D01*
X260425000Y-190060000D02*
X260675000Y-189560000D01*
X260675000Y-189560000D02*
X260875000Y-190010000D01*
D12*
X262775000Y-188810000D02*
X262775000Y-190810000D01*
X262775000Y-190810000D02*
X258075000Y-190810000D01*
%TO.C,Q3*%
X283680000Y-182560000D02*
X283680000Y-183490000D01*
X283680000Y-182560000D02*
X285840000Y-182560000D01*
X283680000Y-185720000D02*
X283680000Y-184790000D01*
X283680000Y-185720000D02*
X285140000Y-185720000D01*
%TO.C,R14*%
X204075000Y-186460000D02*
X208775000Y-186460000D01*
X204075000Y-188460000D02*
X204075000Y-186460000D01*
D11*
X206175000Y-187710000D02*
X205975000Y-187260000D01*
X206425000Y-187210000D02*
X206175000Y-187710000D01*
X206675000Y-187710000D02*
X206425000Y-187210000D01*
X206875000Y-187260000D02*
X206675000Y-187710000D01*
D12*
X208775000Y-186460000D02*
X208775000Y-188460000D01*
X208775000Y-188460000D02*
X204075000Y-188460000D01*
%TO.C,D5*%
X301850000Y-159605000D02*
X301850000Y-155705000D01*
D13*
X302850000Y-157105000D02*
X302850000Y-156605000D01*
X302850000Y-157705000D02*
X302300000Y-157705000D01*
X302850000Y-157705000D02*
X303400000Y-157705000D01*
X302850000Y-158105000D02*
X302850000Y-157705000D01*
D12*
X303850000Y-159605000D02*
X301850000Y-159605000D01*
X303850000Y-159605000D02*
X303850000Y-155705000D01*
D13*
X302850000Y-157705000D02*
X302350000Y-157105000D01*
X303350000Y-157105000D01*
X302850000Y-157705000D01*
G36*
X302850000Y-157705000D02*
G01*
X302350000Y-157105000D01*
X303350000Y-157105000D01*
X302850000Y-157705000D01*
G37*
D12*
%TO.C,D15*%
X291147000Y-213625000D02*
X291147000Y-209725000D01*
D13*
X292147000Y-211125000D02*
X292147000Y-210625000D01*
X292147000Y-211725000D02*
X291597000Y-211725000D01*
X292147000Y-211725000D02*
X292697000Y-211725000D01*
X292147000Y-212125000D02*
X292147000Y-211725000D01*
D12*
X293147000Y-213625000D02*
X291147000Y-213625000D01*
X293147000Y-213625000D02*
X293147000Y-209725000D01*
D13*
X292147000Y-211725000D02*
X291647000Y-211125000D01*
X292647000Y-211125000D01*
X292147000Y-211725000D01*
G36*
X292147000Y-211725000D02*
G01*
X291647000Y-211125000D01*
X292647000Y-211125000D01*
X292147000Y-211725000D01*
G37*
D12*
%TO.C,C6*%
X307295000Y-171715000D02*
X309295000Y-171715000D01*
X307295000Y-176215000D02*
X307295000Y-171715000D01*
X307445000Y-174465000D02*
X307445000Y-173465000D01*
X308295000Y-173765000D02*
X308295000Y-173540000D01*
X308295000Y-174115000D02*
X308295000Y-174390000D01*
X308645000Y-173815000D02*
X307945000Y-173815000D01*
X308645000Y-174115000D02*
X307945000Y-174115000D01*
X309145000Y-173465000D02*
X309145000Y-174465000D01*
X309295000Y-171715000D02*
X309295000Y-176215000D01*
X309295000Y-176215000D02*
X307295000Y-176215000D01*
%TO.C,C8*%
X281270000Y-169245000D02*
X283270000Y-169245000D01*
X281270000Y-173745000D02*
X281270000Y-169245000D01*
X281420000Y-171995000D02*
X281420000Y-170995000D01*
X281920000Y-171345000D02*
X282620000Y-171345000D01*
X281920000Y-171645000D02*
X282620000Y-171645000D01*
X282270000Y-171345000D02*
X282270000Y-171070000D01*
X282270000Y-171695000D02*
X282270000Y-171920000D01*
X283120000Y-170995000D02*
X283120000Y-171995000D01*
X283270000Y-169245000D02*
X283270000Y-173745000D01*
X283270000Y-173745000D02*
X281270000Y-173745000D01*
%TO.C,J4*%
X78050000Y-162420000D02*
X79390000Y-162420000D01*
X78050000Y-163910000D02*
X78050000Y-162420000D01*
X78050000Y-173230000D02*
X76850000Y-173230000D01*
X78050000Y-173230000D02*
X78050000Y-174720000D01*
X78050000Y-174720000D02*
X79390000Y-174720000D01*
X82110000Y-162420000D02*
X83850000Y-162420000D01*
X83850000Y-162420000D02*
X83850000Y-174720000D01*
X83850000Y-174720000D02*
X82110000Y-174720000D01*
%TO.C,D3*%
X317240000Y-159605000D02*
X317240000Y-155705000D01*
D13*
X318240000Y-157105000D02*
X318240000Y-156605000D01*
X318240000Y-157705000D02*
X317690000Y-157705000D01*
X318240000Y-157705000D02*
X318790000Y-157705000D01*
X318240000Y-158105000D02*
X318240000Y-157705000D01*
D12*
X319240000Y-159605000D02*
X317240000Y-159605000D01*
X319240000Y-159605000D02*
X319240000Y-155705000D01*
D13*
X318240000Y-157705000D02*
X317740000Y-157105000D01*
X318740000Y-157105000D01*
X318240000Y-157705000D01*
G36*
X318240000Y-157705000D02*
G01*
X317740000Y-157105000D01*
X318740000Y-157105000D01*
X318240000Y-157705000D01*
G37*
D12*
%TO.C,D18*%
X298767000Y-213620000D02*
X298767000Y-209720000D01*
D13*
X299767000Y-211120000D02*
X299767000Y-210620000D01*
X299767000Y-211720000D02*
X299217000Y-211720000D01*
X299767000Y-211720000D02*
X300317000Y-211720000D01*
X299767000Y-212120000D02*
X299767000Y-211720000D01*
D12*
X300767000Y-213620000D02*
X298767000Y-213620000D01*
X300767000Y-213620000D02*
X300767000Y-209720000D01*
D13*
X299767000Y-211720000D02*
X299267000Y-211120000D01*
X300267000Y-211120000D01*
X299767000Y-211720000D01*
G36*
X299767000Y-211720000D02*
G01*
X299267000Y-211120000D01*
X300267000Y-211120000D01*
X299767000Y-211720000D01*
G37*
D12*
%TO.C,R24*%
X357900000Y-196325000D02*
X359900000Y-196325000D01*
X357900000Y-201025000D02*
X357900000Y-196325000D01*
D11*
X358650000Y-198675000D02*
X359150000Y-198925000D01*
X358700000Y-198225000D02*
X359150000Y-198425000D01*
X359150000Y-198425000D02*
X358650000Y-198675000D01*
X359150000Y-198925000D02*
X358700000Y-199125000D01*
D12*
X359900000Y-196325000D02*
X359900000Y-201025000D01*
X359900000Y-201025000D02*
X357900000Y-201025000D01*
%TO.C,C7*%
X299370000Y-169245000D02*
X301370000Y-169245000D01*
X299370000Y-173745000D02*
X299370000Y-169245000D01*
X299520000Y-171995000D02*
X299520000Y-170995000D01*
X300020000Y-171345000D02*
X300720000Y-171345000D01*
X300020000Y-171645000D02*
X300720000Y-171645000D01*
X300370000Y-171345000D02*
X300370000Y-171070000D01*
X300370000Y-171695000D02*
X300370000Y-171920000D01*
X301220000Y-170995000D02*
X301220000Y-171995000D01*
X301370000Y-169245000D02*
X301370000Y-173745000D01*
X301370000Y-173745000D02*
X299370000Y-173745000D01*
%TO.C,J7*%
X79440000Y-184000000D02*
X88740000Y-184000000D01*
X79440000Y-185740000D02*
X79440000Y-184000000D01*
X79440000Y-189800000D02*
X79440000Y-188460000D01*
X80930000Y-189800000D02*
X79440000Y-189800000D01*
X80930000Y-189800000D02*
X80930000Y-191000000D01*
X87250000Y-189800000D02*
X88740000Y-189800000D01*
X88740000Y-184000000D02*
X88740000Y-185740000D01*
X88740000Y-189800000D02*
X88740000Y-188460000D01*
%TO.C,R22*%
X86070000Y-196620000D02*
X90770000Y-196620000D01*
X86070000Y-198620000D02*
X86070000Y-196620000D01*
D11*
X87970000Y-197820000D02*
X88170000Y-197370000D01*
X88170000Y-197370000D02*
X88420000Y-197870000D01*
X88420000Y-197870000D02*
X88670000Y-197370000D01*
X88670000Y-197370000D02*
X88870000Y-197820000D01*
D12*
X90770000Y-196620000D02*
X90770000Y-198620000D01*
X90770000Y-198620000D02*
X86070000Y-198620000D01*
%TO.C,R8*%
X281270000Y-175120000D02*
X283270000Y-175120000D01*
X281270000Y-179820000D02*
X281270000Y-175120000D01*
D11*
X282020000Y-177220000D02*
X282470000Y-177020000D01*
X282020000Y-177720000D02*
X282520000Y-177470000D01*
X282470000Y-177920000D02*
X282020000Y-177720000D01*
X282520000Y-177470000D02*
X282020000Y-177220000D01*
D12*
X283270000Y-175120000D02*
X283270000Y-179820000D01*
X283270000Y-179820000D02*
X281270000Y-179820000D01*
%TO.C,D6*%
X319870000Y-159590000D02*
X319870000Y-155690000D01*
D13*
X320870000Y-157090000D02*
X320870000Y-156590000D01*
X320870000Y-157690000D02*
X320320000Y-157690000D01*
X320870000Y-157690000D02*
X321420000Y-157690000D01*
X320870000Y-158090000D02*
X320870000Y-157690000D01*
D12*
X321870000Y-159590000D02*
X319870000Y-159590000D01*
X321870000Y-159590000D02*
X321870000Y-155690000D01*
D13*
X320870000Y-157690000D02*
X320370000Y-157090000D01*
X321370000Y-157090000D01*
X320870000Y-157690000D01*
G36*
X320870000Y-157690000D02*
G01*
X320370000Y-157090000D01*
X321370000Y-157090000D01*
X320870000Y-157690000D01*
G37*
D12*
%TO.C,R5*%
X283570000Y-169145000D02*
X285570000Y-169145000D01*
X283570000Y-173845000D02*
X283570000Y-169145000D01*
D11*
X284320000Y-171245000D02*
X284770000Y-171045000D01*
X284320000Y-171745000D02*
X284820000Y-171495000D01*
X284770000Y-171945000D02*
X284320000Y-171745000D01*
X284820000Y-171495000D02*
X284320000Y-171245000D01*
D12*
X285570000Y-169145000D02*
X285570000Y-173845000D01*
X285570000Y-173845000D02*
X283570000Y-173845000D01*
%TO.C,R9*%
X299370000Y-175120000D02*
X301370000Y-175120000D01*
X299370000Y-179820000D02*
X299370000Y-175120000D01*
D11*
X300120000Y-177220000D02*
X300570000Y-177020000D01*
X300120000Y-177720000D02*
X300620000Y-177470000D01*
X300570000Y-177920000D02*
X300120000Y-177720000D01*
X300620000Y-177470000D02*
X300120000Y-177220000D01*
D12*
X301370000Y-175120000D02*
X301370000Y-179820000D01*
X301370000Y-179820000D02*
X299370000Y-179820000D01*
%TO.C,R21*%
X342390000Y-196325000D02*
X344390000Y-196325000D01*
X342390000Y-201025000D02*
X342390000Y-196325000D01*
D11*
X343140000Y-198675000D02*
X343640000Y-198925000D01*
X343190000Y-198225000D02*
X343640000Y-198425000D01*
X343640000Y-198425000D02*
X343140000Y-198675000D01*
X343640000Y-198925000D02*
X343190000Y-199125000D01*
D12*
X344390000Y-196325000D02*
X344390000Y-201025000D01*
X344390000Y-201025000D02*
X342390000Y-201025000D01*
%TO.C,R23*%
X362000000Y-196325000D02*
X364000000Y-196325000D01*
X362000000Y-201025000D02*
X362000000Y-196325000D01*
D11*
X362750000Y-198675000D02*
X363250000Y-198925000D01*
X362800000Y-198225000D02*
X363250000Y-198425000D01*
X363250000Y-198425000D02*
X362750000Y-198675000D01*
X363250000Y-198925000D02*
X362800000Y-199125000D01*
D12*
X364000000Y-196325000D02*
X364000000Y-201025000D01*
X364000000Y-201025000D02*
X362000000Y-201025000D01*
%TO.C,D11*%
X140027000Y-190795000D02*
X140027000Y-186895000D01*
D13*
X141027000Y-188295000D02*
X141027000Y-187795000D01*
X141027000Y-188895000D02*
X140477000Y-188895000D01*
X141027000Y-188895000D02*
X141577000Y-188895000D01*
X141027000Y-189295000D02*
X141027000Y-188895000D01*
D12*
X142027000Y-190795000D02*
X140027000Y-190795000D01*
X142027000Y-190795000D02*
X142027000Y-186895000D01*
D13*
X141027000Y-188895000D02*
X140527000Y-188295000D01*
X141527000Y-188295000D01*
X141027000Y-188895000D01*
G36*
X141027000Y-188895000D02*
G01*
X140527000Y-188295000D01*
X141527000Y-188295000D01*
X141027000Y-188895000D01*
G37*
D12*
%TO.C,R17*%
X204075000Y-188810000D02*
X208775000Y-188810000D01*
X204075000Y-190810000D02*
X204075000Y-188810000D01*
D11*
X205975000Y-190010000D02*
X206175000Y-189560000D01*
X206175000Y-189560000D02*
X206425000Y-190060000D01*
X206425000Y-190060000D02*
X206675000Y-189560000D01*
X206675000Y-189560000D02*
X206875000Y-190010000D01*
D12*
X208775000Y-188810000D02*
X208775000Y-190810000D01*
X208775000Y-190810000D02*
X204075000Y-190810000D01*
%TO.C,D21*%
X274200000Y-187955000D02*
X278100000Y-187955000D01*
X274200000Y-189955000D02*
X274200000Y-187955000D01*
X274200000Y-189955000D02*
X278100000Y-189955000D01*
D13*
X275700000Y-188955000D02*
X276100000Y-188955000D01*
X276100000Y-188955000D02*
X276100000Y-188405000D01*
X276100000Y-188955000D02*
X276100000Y-189505000D01*
X276700000Y-188955000D02*
X277200000Y-188955000D01*
X276700000Y-189455000D02*
X276100000Y-188955000D01*
X276700000Y-188455000D01*
X276700000Y-189455000D01*
G36*
X276700000Y-189455000D02*
G01*
X276100000Y-188955000D01*
X276700000Y-188455000D01*
X276700000Y-189455000D01*
G37*
D12*
%TO.C,C3*%
X311340000Y-157945000D02*
X315840000Y-157945000D01*
X311340000Y-159945000D02*
X311340000Y-157945000D01*
X313090000Y-158095000D02*
X314090000Y-158095000D01*
X313390000Y-158945000D02*
X313165000Y-158945000D01*
X313440000Y-158595000D02*
X313440000Y-159295000D01*
X313740000Y-158595000D02*
X313740000Y-159295000D01*
X313740000Y-158945000D02*
X314015000Y-158945000D01*
X314090000Y-159795000D02*
X313090000Y-159795000D01*
X315840000Y-157945000D02*
X315840000Y-159945000D01*
X315840000Y-159945000D02*
X311340000Y-159945000D01*
%TO.C,R15*%
X231075000Y-186460000D02*
X235775000Y-186460000D01*
X231075000Y-188460000D02*
X231075000Y-186460000D01*
D11*
X233175000Y-187710000D02*
X232975000Y-187260000D01*
X233425000Y-187210000D02*
X233175000Y-187710000D01*
X233675000Y-187710000D02*
X233425000Y-187210000D01*
X233875000Y-187260000D02*
X233675000Y-187710000D01*
D12*
X235775000Y-186460000D02*
X235775000Y-188460000D01*
X235775000Y-188460000D02*
X231075000Y-188460000D01*
%TO.C,Q9*%
X338780000Y-197095000D02*
X338780000Y-198025000D01*
X338780000Y-197095000D02*
X340940000Y-197095000D01*
X338780000Y-200255000D02*
X338780000Y-199325000D01*
X338780000Y-200255000D02*
X340240000Y-200255000D01*
%TO.C,C5*%
X289295000Y-171720000D02*
X291295000Y-171720000D01*
X289295000Y-176220000D02*
X289295000Y-171720000D01*
X289445000Y-174470000D02*
X289445000Y-173470000D01*
X290295000Y-173770000D02*
X290295000Y-173545000D01*
X290295000Y-174120000D02*
X290295000Y-174395000D01*
X290645000Y-173820000D02*
X289945000Y-173820000D01*
X290645000Y-174120000D02*
X289945000Y-174120000D01*
X291145000Y-173470000D02*
X291145000Y-174470000D01*
X291295000Y-171720000D02*
X291295000Y-176220000D01*
X291295000Y-176220000D02*
X289295000Y-176220000D01*
%TO.C,Q6*%
X204845000Y-193640000D02*
X204845000Y-191480000D01*
X204845000Y-193640000D02*
X205775000Y-193640000D01*
X208005000Y-193640000D02*
X207075000Y-193640000D01*
X208005000Y-193640000D02*
X208005000Y-192180000D01*
%TO.C,J5*%
X289400000Y-195350000D02*
X289400000Y-196690000D01*
X289400000Y-201150000D02*
X289400000Y-199410000D01*
X290890000Y-195350000D02*
X289400000Y-195350000D01*
X297210000Y-195350000D02*
X297210000Y-194150000D01*
X297210000Y-195350000D02*
X298700000Y-195350000D01*
X298700000Y-195350000D02*
X298700000Y-196690000D01*
X298700000Y-199410000D02*
X298700000Y-201150000D01*
X298700000Y-201150000D02*
X289400000Y-201150000D01*
%TO.C,Q8*%
X258845000Y-193640000D02*
X258845000Y-191480000D01*
X258845000Y-193640000D02*
X259775000Y-193640000D01*
X262005000Y-193640000D02*
X261075000Y-193640000D01*
X262005000Y-193640000D02*
X262005000Y-192180000D01*
%TO.C,R3*%
X116625000Y-188810000D02*
X121325000Y-188810000D01*
X116625000Y-190810000D02*
X116625000Y-188810000D01*
D11*
X118525000Y-190010000D02*
X118725000Y-189560000D01*
X118725000Y-189560000D02*
X118975000Y-190060000D01*
X118975000Y-190060000D02*
X119225000Y-189560000D01*
X119225000Y-189560000D02*
X119425000Y-190010000D01*
D12*
X121325000Y-188810000D02*
X121325000Y-190810000D01*
X121325000Y-190810000D02*
X116625000Y-190810000D01*
%TO.C,R16*%
X258075000Y-186460000D02*
X262775000Y-186460000D01*
X258075000Y-188460000D02*
X258075000Y-186460000D01*
D11*
X260175000Y-187710000D02*
X259975000Y-187260000D01*
X260425000Y-187210000D02*
X260175000Y-187710000D01*
X260675000Y-187710000D02*
X260425000Y-187210000D01*
X260875000Y-187260000D02*
X260675000Y-187710000D01*
D12*
X262775000Y-186460000D02*
X262775000Y-188460000D01*
X262775000Y-188460000D02*
X258075000Y-188460000D01*
%TO.C,R20*%
X346490000Y-196325000D02*
X348490000Y-196325000D01*
X346490000Y-201025000D02*
X346490000Y-196325000D01*
D11*
X347240000Y-198425000D02*
X347690000Y-198225000D01*
X347240000Y-198925000D02*
X347740000Y-198675000D01*
X347690000Y-199125000D02*
X347240000Y-198925000D01*
X347740000Y-198675000D02*
X347240000Y-198425000D01*
D12*
X348490000Y-196325000D02*
X348490000Y-201025000D01*
X348490000Y-201025000D02*
X346490000Y-201025000D01*
%TO.C,Q11*%
X324530000Y-197075000D02*
X324530000Y-198005000D01*
X324530000Y-197075000D02*
X326690000Y-197075000D01*
X324530000Y-200235000D02*
X324530000Y-199305000D01*
X324530000Y-200235000D02*
X325990000Y-200235000D01*
%TO.C,D1*%
X281015000Y-159605000D02*
X281015000Y-155705000D01*
D13*
X282015000Y-157105000D02*
X282015000Y-156605000D01*
X282015000Y-157705000D02*
X281465000Y-157705000D01*
X282015000Y-157705000D02*
X282565000Y-157705000D01*
X282015000Y-158105000D02*
X282015000Y-157705000D01*
D12*
X283015000Y-159605000D02*
X281015000Y-159605000D01*
X283015000Y-159605000D02*
X283015000Y-155705000D01*
D13*
X282015000Y-157705000D02*
X281515000Y-157105000D01*
X282515000Y-157105000D01*
X282015000Y-157705000D01*
G36*
X282015000Y-157705000D02*
G01*
X281515000Y-157105000D01*
X282515000Y-157105000D01*
X282015000Y-157705000D01*
G37*
D12*
%TO.C,R7*%
X319665000Y-169145000D02*
X321665000Y-169145000D01*
X319665000Y-173845000D02*
X319665000Y-169145000D01*
D11*
X320415000Y-171245000D02*
X320865000Y-171045000D01*
X320415000Y-171745000D02*
X320915000Y-171495000D01*
X320865000Y-171945000D02*
X320415000Y-171745000D01*
X320915000Y-171495000D02*
X320415000Y-171245000D01*
D12*
X321665000Y-169145000D02*
X321665000Y-173845000D01*
X321665000Y-173845000D02*
X319665000Y-173845000D01*
%TO.C,Q1*%
X117395000Y-193640000D02*
X117395000Y-191480000D01*
X117395000Y-193640000D02*
X118325000Y-193640000D01*
X120555000Y-193640000D02*
X119625000Y-193640000D01*
X120555000Y-193640000D02*
X120555000Y-192180000D01*
%TO.C,R18*%
X231075000Y-188810000D02*
X235775000Y-188810000D01*
X231075000Y-190810000D02*
X231075000Y-188810000D01*
D11*
X232975000Y-190010000D02*
X233175000Y-189560000D01*
X233175000Y-189560000D02*
X233425000Y-190060000D01*
X233425000Y-190060000D02*
X233675000Y-189560000D01*
X233675000Y-189560000D02*
X233875000Y-190010000D01*
D12*
X235775000Y-188810000D02*
X235775000Y-190810000D01*
X235775000Y-190810000D02*
X231075000Y-190810000D01*
%TO.C,A1*%
X198540000Y-160800000D02*
X198540000Y-162800000D01*
X198540000Y-160800000D02*
X219940000Y-160800000D01*
X198540000Y-162800000D02*
X219940000Y-162800000D01*
X212140000Y-155800000D02*
X212140000Y-158300000D01*
X212140000Y-158300000D02*
X219940000Y-158300000D01*
X212140000Y-165300000D02*
X212140000Y-167800000D01*
X212140000Y-165300000D02*
X219940000Y-165300000D01*
X219940000Y-158300000D02*
X219940000Y-160800000D01*
X219940000Y-162800000D02*
X219940000Y-165300000D01*
X220640000Y-158300000D02*
X220640000Y-160800000D01*
X220640000Y-158300000D02*
X221140000Y-158300000D01*
X220640000Y-162800000D02*
X220640000Y-165300000D01*
X220640000Y-165300000D02*
X221140000Y-165300000D01*
X221140000Y-155800000D02*
X212140000Y-155800000D01*
X221140000Y-158300000D02*
X221140000Y-155800000D01*
X221140000Y-167800000D02*
X212140000Y-167800000D01*
X221140000Y-167800000D02*
X221140000Y-165300000D01*
X221540000Y-160800000D02*
X220640000Y-160800000D01*
X221540000Y-160800000D02*
X221540000Y-162800000D01*
X221540000Y-162800000D02*
X220640000Y-162800000D01*
X223340000Y-155300000D02*
X223340000Y-168300000D01*
X224340000Y-157300000D02*
X224340000Y-158300000D01*
X224340000Y-157300000D02*
X232840000Y-157300000D01*
X224340000Y-165300000D02*
X224340000Y-166300000D01*
X232840000Y-155300000D02*
X223340000Y-155300000D01*
X232840000Y-157300000D02*
X232840000Y-155300000D01*
X232840000Y-166300000D02*
X224340000Y-166300000D01*
X232840000Y-166300000D02*
X232840000Y-168300000D01*
X232840000Y-168300000D02*
X223340000Y-168300000D01*
X235740000Y-155300000D02*
X235740000Y-158300000D01*
X235740000Y-158300000D02*
X224340000Y-158300000D01*
X235740000Y-165300000D02*
X224340000Y-165300000D01*
X235740000Y-165300000D02*
X235740000Y-168300000D01*
X243740000Y-155300000D02*
X235740000Y-155300000D01*
X243740000Y-155300000D02*
X243740000Y-168300000D01*
X243740000Y-168300000D02*
X235740000Y-168300000D01*
%TO.C,R6*%
X301670000Y-169145000D02*
X303670000Y-169145000D01*
X301670000Y-173845000D02*
X301670000Y-169145000D01*
D11*
X302420000Y-171245000D02*
X302870000Y-171045000D01*
X302420000Y-171745000D02*
X302920000Y-171495000D01*
X302870000Y-171945000D02*
X302420000Y-171745000D01*
X302920000Y-171495000D02*
X302420000Y-171245000D01*
D12*
X303670000Y-169145000D02*
X303670000Y-173845000D01*
X303670000Y-173845000D02*
X301670000Y-173845000D01*
%TO.C,Q10*%
X354300000Y-197095000D02*
X354300000Y-198025000D01*
X354300000Y-197095000D02*
X356460000Y-197095000D01*
X354300000Y-200255000D02*
X354300000Y-199325000D01*
X354300000Y-200255000D02*
X355760000Y-200255000D01*
%TO.C,Q2*%
X157895000Y-193640000D02*
X157895000Y-191480000D01*
X157895000Y-193640000D02*
X158825000Y-193640000D01*
X161055000Y-193640000D02*
X160125000Y-193640000D01*
X161055000Y-193640000D02*
X161055000Y-192180000D01*
%TO.C,R1*%
X116625000Y-186460000D02*
X121325000Y-186460000D01*
X116625000Y-188460000D02*
X116625000Y-186460000D01*
D11*
X118725000Y-187710000D02*
X118525000Y-187260000D01*
X118975000Y-187210000D02*
X118725000Y-187710000D01*
X119225000Y-187710000D02*
X118975000Y-187210000D01*
X119425000Y-187260000D02*
X119225000Y-187710000D01*
D12*
X121325000Y-186460000D02*
X121325000Y-188460000D01*
X121325000Y-188460000D02*
X116625000Y-188460000D01*
%TO.C,C1*%
X275140000Y-157905000D02*
X279640000Y-157905000D01*
X275140000Y-159905000D02*
X275140000Y-157905000D01*
X276890000Y-158055000D02*
X277890000Y-158055000D01*
X277190000Y-158905000D02*
X276965000Y-158905000D01*
X277240000Y-158555000D02*
X277240000Y-159255000D01*
X277540000Y-158555000D02*
X277540000Y-159255000D01*
X277540000Y-158905000D02*
X277815000Y-158905000D01*
X277890000Y-159755000D02*
X276890000Y-159755000D01*
X279640000Y-157905000D02*
X279640000Y-159905000D01*
X279640000Y-159905000D02*
X275140000Y-159905000D01*
%TO.C,D17*%
X296227000Y-213625000D02*
X296227000Y-209725000D01*
D13*
X297227000Y-211125000D02*
X297227000Y-210625000D01*
X297227000Y-211725000D02*
X296677000Y-211725000D01*
X297227000Y-211725000D02*
X297777000Y-211725000D01*
X297227000Y-212125000D02*
X297227000Y-211725000D01*
D12*
X298227000Y-213625000D02*
X296227000Y-213625000D01*
X298227000Y-213625000D02*
X298227000Y-209725000D01*
D13*
X297227000Y-211725000D02*
X296727000Y-211125000D01*
X297727000Y-211125000D01*
X297227000Y-211725000D01*
G36*
X297227000Y-211725000D02*
G01*
X296727000Y-211125000D01*
X297727000Y-211125000D01*
X297227000Y-211725000D01*
G37*
D12*
%TO.C,C2*%
X293365000Y-157945000D02*
X297865000Y-157945000D01*
X293365000Y-159945000D02*
X293365000Y-157945000D01*
X295115000Y-158095000D02*
X296115000Y-158095000D01*
X295415000Y-158945000D02*
X295190000Y-158945000D01*
X295465000Y-158595000D02*
X295465000Y-159295000D01*
X295765000Y-158595000D02*
X295765000Y-159295000D01*
X295765000Y-158945000D02*
X296040000Y-158945000D01*
X296115000Y-159795000D02*
X295115000Y-159795000D01*
X297865000Y-157945000D02*
X297865000Y-159945000D01*
X297865000Y-159945000D02*
X293365000Y-159945000D01*
%TO.C,Q4*%
X301680000Y-182560000D02*
X301680000Y-183490000D01*
X301680000Y-182560000D02*
X303840000Y-182560000D01*
X301680000Y-185720000D02*
X301680000Y-184790000D01*
X301680000Y-185720000D02*
X303140000Y-185720000D01*
%TO.C,D22*%
X310150000Y-187955000D02*
X314050000Y-187955000D01*
X310150000Y-189955000D02*
X310150000Y-187955000D01*
X310150000Y-189955000D02*
X314050000Y-189955000D01*
D13*
X311650000Y-188955000D02*
X312050000Y-188955000D01*
X312050000Y-188955000D02*
X312050000Y-188405000D01*
X312050000Y-188955000D02*
X312050000Y-189505000D01*
X312650000Y-188955000D02*
X313150000Y-188955000D01*
X312650000Y-189455000D02*
X312050000Y-188955000D01*
X312650000Y-188455000D01*
X312650000Y-189455000D01*
G36*
X312650000Y-189455000D02*
G01*
X312050000Y-188955000D01*
X312650000Y-188455000D01*
X312650000Y-189455000D01*
G37*
D12*
%TO.C,D12*%
X142567000Y-190795000D02*
X142567000Y-186895000D01*
D13*
X143567000Y-188295000D02*
X143567000Y-187795000D01*
X143567000Y-188895000D02*
X143017000Y-188895000D01*
X143567000Y-188895000D02*
X144117000Y-188895000D01*
X143567000Y-189295000D02*
X143567000Y-188895000D01*
D12*
X144567000Y-190795000D02*
X142567000Y-190795000D01*
X144567000Y-190795000D02*
X144567000Y-186895000D01*
D13*
X143567000Y-188895000D02*
X143067000Y-188295000D01*
X144067000Y-188295000D01*
X143567000Y-188895000D01*
G36*
X143567000Y-188895000D02*
G01*
X143067000Y-188295000D01*
X144067000Y-188295000D01*
X143567000Y-188895000D01*
G37*
D12*
%TO.C,R4*%
X157125000Y-188810000D02*
X161825000Y-188810000D01*
X157125000Y-190810000D02*
X157125000Y-188810000D01*
D11*
X159025000Y-190010000D02*
X159225000Y-189560000D01*
X159225000Y-189560000D02*
X159475000Y-190060000D01*
X159475000Y-190060000D02*
X159725000Y-189560000D01*
X159725000Y-189560000D02*
X159925000Y-190010000D01*
D12*
X161825000Y-188810000D02*
X161825000Y-190810000D01*
X161825000Y-190810000D02*
X157125000Y-190810000D01*
D10*
%TO.C,U3*%
X309700000Y-173355000D02*
X316050000Y-173355000D01*
X309700000Y-178435000D02*
X309700000Y-173355000D01*
X315415000Y-175895000D02*
X316050000Y-175260000D01*
X316050000Y-173355000D02*
X316050000Y-178435000D01*
X316050000Y-176530000D02*
X315415000Y-175895000D01*
X316050000Y-178435000D02*
X309700000Y-178435000D01*
D12*
%TO.C,D10*%
X137487000Y-190795000D02*
X137487000Y-186895000D01*
D13*
X138487000Y-188295000D02*
X138487000Y-187795000D01*
X138487000Y-188895000D02*
X137937000Y-188895000D01*
X138487000Y-188895000D02*
X139037000Y-188895000D01*
X138487000Y-189295000D02*
X138487000Y-188895000D01*
D12*
X139487000Y-190795000D02*
X137487000Y-190795000D01*
X139487000Y-190795000D02*
X139487000Y-186895000D01*
D13*
X138487000Y-188895000D02*
X137987000Y-188295000D01*
X138987000Y-188295000D01*
X138487000Y-188895000D01*
G36*
X138487000Y-188895000D02*
G01*
X137987000Y-188295000D01*
X138987000Y-188295000D01*
X138487000Y-188895000D01*
G37*
D12*
%TO.C,Q5*%
X319780000Y-182560000D02*
X319780000Y-183490000D01*
X319780000Y-182560000D02*
X321940000Y-182560000D01*
X319780000Y-185720000D02*
X319780000Y-184790000D01*
X319780000Y-185720000D02*
X321240000Y-185720000D01*
%TO.C,J6*%
X133200000Y-174500000D02*
X133200000Y-175840000D01*
X133200000Y-180300000D02*
X133200000Y-178560000D01*
X134690000Y-174500000D02*
X133200000Y-174500000D01*
X141010000Y-174500000D02*
X141010000Y-173300000D01*
X141010000Y-174500000D02*
X142500000Y-174500000D01*
X142500000Y-174500000D02*
X142500000Y-175840000D01*
X142500000Y-178560000D02*
X142500000Y-180300000D01*
X142500000Y-180300000D02*
X133200000Y-180300000D01*
%TO.C,R10*%
X317375000Y-175125000D02*
X319375000Y-175125000D01*
X317375000Y-179825000D02*
X317375000Y-175125000D01*
D11*
X318125000Y-177225000D02*
X318575000Y-177025000D01*
X318125000Y-177725000D02*
X318625000Y-177475000D01*
X318575000Y-177925000D02*
X318125000Y-177725000D01*
X318625000Y-177475000D02*
X318125000Y-177225000D01*
D12*
X319375000Y-175125000D02*
X319375000Y-179825000D01*
X319375000Y-179825000D02*
X317375000Y-179825000D01*
%TO.C,R26*%
X328200000Y-196355000D02*
X330200000Y-196355000D01*
X328200000Y-201055000D02*
X328200000Y-196355000D01*
D11*
X328950000Y-198705000D02*
X329450000Y-198955000D01*
X329000000Y-198255000D02*
X329450000Y-198455000D01*
X329450000Y-198455000D02*
X328950000Y-198705000D01*
X329450000Y-198955000D02*
X329000000Y-199155000D01*
D12*
X330200000Y-196355000D02*
X330200000Y-201055000D01*
X330200000Y-201055000D02*
X328200000Y-201055000D01*
%TO.C,R25*%
X332300000Y-196355000D02*
X334300000Y-196355000D01*
X332300000Y-201055000D02*
X332300000Y-196355000D01*
D11*
X333050000Y-198705000D02*
X333550000Y-198955000D01*
X333100000Y-198255000D02*
X333550000Y-198455000D01*
X333550000Y-198455000D02*
X333050000Y-198705000D01*
X333550000Y-198955000D02*
X333100000Y-199155000D01*
D12*
X334300000Y-196355000D02*
X334300000Y-201055000D01*
X334300000Y-201055000D02*
X332300000Y-201055000D01*
%TO.C,D4*%
X283670000Y-159600000D02*
X283670000Y-155700000D01*
D13*
X284670000Y-157100000D02*
X284670000Y-156600000D01*
X284670000Y-157700000D02*
X284120000Y-157700000D01*
X284670000Y-157700000D02*
X285220000Y-157700000D01*
X284670000Y-158100000D02*
X284670000Y-157700000D01*
D12*
X285670000Y-159600000D02*
X283670000Y-159600000D01*
X285670000Y-159600000D02*
X285670000Y-155700000D01*
D13*
X284670000Y-157700000D02*
X284170000Y-157100000D01*
X285170000Y-157100000D01*
X284670000Y-157700000D01*
G36*
X284670000Y-157700000D02*
G01*
X284170000Y-157100000D01*
X285170000Y-157100000D01*
X284670000Y-157700000D01*
G37*
D12*
%TO.C,JP1*%
X92400000Y-196850000D02*
X92400000Y-198250000D01*
X93100000Y-198950000D02*
X93700000Y-198950000D01*
X93700000Y-196150000D02*
X93100000Y-196150000D01*
X94400000Y-198250000D02*
X94400000Y-196850000D01*
X92400000Y-196850000D02*
G75*
G02*
X93100000Y-196150000I700000J0D01*
G01*
X93100000Y-198950000D02*
G75*
G02*
X92400000Y-198250000I-1J699999D01*
G01*
X93700000Y-196150000D02*
G75*
G02*
X94400000Y-196850000I0J-700000D01*
G01*
X94400000Y-198250000D02*
G75*
G02*
X93700000Y-198950000I-699999J-1D01*
G01*
%TO.C,D7*%
X129867000Y-190795000D02*
X129867000Y-186895000D01*
D13*
X130867000Y-188295000D02*
X130867000Y-187795000D01*
X130867000Y-188895000D02*
X130317000Y-188895000D01*
X130867000Y-188895000D02*
X131417000Y-188895000D01*
X130867000Y-189295000D02*
X130867000Y-188895000D01*
D12*
X131867000Y-190795000D02*
X129867000Y-190795000D01*
X131867000Y-190795000D02*
X131867000Y-186895000D01*
D13*
X130867000Y-188895000D02*
X130367000Y-188295000D01*
X131367000Y-188295000D01*
X130867000Y-188895000D01*
G36*
X130867000Y-188895000D02*
G01*
X130367000Y-188295000D01*
X131367000Y-188295000D01*
X130867000Y-188895000D01*
G37*
D12*
%TO.C,D9*%
X134947000Y-190795000D02*
X134947000Y-186895000D01*
D13*
X135947000Y-188295000D02*
X135947000Y-187795000D01*
X135947000Y-188895000D02*
X135397000Y-188895000D01*
X135947000Y-188895000D02*
X136497000Y-188895000D01*
X135947000Y-189295000D02*
X135947000Y-188895000D01*
D12*
X136947000Y-190795000D02*
X134947000Y-190795000D01*
X136947000Y-190795000D02*
X136947000Y-186895000D01*
D13*
X135947000Y-188895000D02*
X135447000Y-188295000D01*
X136447000Y-188295000D01*
X135947000Y-188895000D01*
G36*
X135947000Y-188895000D02*
G01*
X135447000Y-188295000D01*
X136447000Y-188295000D01*
X135947000Y-188895000D01*
G37*
%TD*%
M02*
