M48
; DRILL file {KiCad 8.0.4} date 2024-09-25T08:51:58+0900
; FORMAT={-:-/ absolute / inch / decimal}
; #@! TF.CreationDate,2024-09-25T08:51:58+09:00
; #@! TF.GenerationSoftware,Kicad,Pcbnew,8.0.4
; #@! TF.FileFunction,NonPlated,1,2,NPTH
FMAT,2
INCH
; #@! TA.AperFunction,NonPlated,NPTH,ComponentDrill
T1C0.0197
%
G90
G05
T1
X2.9779Y-8.3268
X2.9779Y-8.3858
X3.0074Y-8.3268
X3.0074Y-8.3858
X3.0369Y-8.3268
X3.0369Y-8.3858
X3.0674Y-8.3268
X3.0674Y-8.3858
X3.0974Y-8.3268
X3.0974Y-8.3858
X10.3898Y-8.486
X10.3898Y-8.5155
X10.3898Y-8.545
X10.3898Y-8.5755
X10.3898Y-8.6055
X10.4488Y-8.486
X10.4488Y-8.5155
X10.4488Y-8.545
X10.4488Y-8.5755
X10.4488Y-8.6055
M30
