M48
; DRILL file {KiCad 8.0.4} date 2024-09-25T08:51:58+0900
; FORMAT={-:-/ absolute / inch / decimal}
; #@! TF.CreationDate,2024-09-25T08:51:58+09:00
; #@! TF.GenerationSoftware,Kicad,Pcbnew,8.0.4
; #@! TF.FileFunction,Plated,1,2,PTH
FMAT,2
INCH
; #@! TA.AperFunction,Plated,PTH,ViaDrill
T1C0.0157
; #@! TA.AperFunction,Plated,PTH,ComponentDrill
T2C0.0354
; #@! TA.AperFunction,Plated,PTH,ComponentDrill
T3C0.0394
; #@! TA.AperFunction,Plated,PTH,ComponentDrill
T4C0.0827
; #@! TA.AperFunction,Plated,PTH,ComponentDrill
T5C0.1260
%
G90
G05
T1
X2.952Y-6.7646
X2.9528Y-6.489
X3.0354Y-6.8996
X3.0886Y-7.5433
X3.1102Y-6.9744
X3.1161Y-6.4921
X3.1356Y-7.1518
X3.1358Y-7.4409
X3.1476Y-6.7343
X3.187Y-6.5972
X3.187Y-6.9469
X3.2181Y-8.1457
X3.2185Y-6.7835
X3.2303Y-7.2165
X3.2356Y-6.9843
X3.2402Y-6.6161
X3.2402Y-6.7185
X3.2854Y-6.6476
X3.2856Y-6.7187
X3.2856Y-6.9862
X3.3303Y-7.2835
X3.3386Y-6.9055
X3.3445Y-8.1457
X3.3543Y-7.2461
X3.3799Y-6.6299
X3.3856Y-7.0079
X3.3869Y-7.7805
X3.3898Y-7.4193
X3.437Y-7.2874
X3.4843Y-7.1594
X3.4843Y-7.4469
X3.5354Y-7.2736
X3.5843Y-7.7594
X3.5846Y-6.7835
X3.6858Y-7.8953
X3.7421Y-7.8386
X4.0803Y-7.5724
X4.3961Y-7.5752
X4.4283Y-6.7953
X4.6685Y-6.7949
X5.0484Y-7.8421
X5.1522Y-6.8484
X5.1783Y-7.6516
X5.1829Y-6.8797
X5.2874Y-6.8484
X5.3031Y-6.7441
X5.3898Y-6.75
X5.4134Y-7.589
X5.4193Y-6.7854
X5.4429Y-7.7984
X5.4508Y-6.7067
X5.4508Y-6.9055
X5.5Y-7.2165
X5.5118Y-6.9823
X5.5571Y-6.7854
X5.5669Y-7.5575
X5.5799Y-7.8437
X5.6122Y-7.2165
X5.6201Y-6.8346
X5.7043Y-7.585
X5.9878Y-7.8185
X6.5339Y-7.8197
X7.5366Y-7.5705
X7.8602Y-7.5705
X8.1827Y-7.6138
X8.5803Y-7.5835
X8.8996Y-7.5846
X9.1252Y-7.6268
X9.248Y-7.6142
X9.6626Y-7.5862
X10.189Y-7.6811
X10.4909Y-7.4079
X10.4909Y-7.6181
X11.0569Y-6.8498
X11.1356Y-6.6136
X11.25Y-7.5787
X11.25Y-8.2028
X11.2894Y-7.6319
X11.3563Y-7.624
X11.3563Y-8.0374
X11.4035Y-7.7106
X11.4528Y-7.5925
X11.4567Y-8.0472
X11.5512Y-8.2028
X11.6043Y-7.7894
X11.6457Y-7.7283
X11.6516Y-8.2008
X11.7047Y-7.8819
X11.752Y-7.5787
X11.752Y-8.2008
X11.7656Y-6.8498
X11.8071Y-7.8996
X11.8443Y-6.6136
X12.2752Y-7.947
X12.4681Y-7.949
X12.4742Y-6.8498
X12.553Y-6.6136
X12.9612Y-8.0228
X13.3283Y-7.8644
X13.3283Y-8.3352
X13.5203Y-8.0219
T2
X3.7902Y-7.6965
X4.1642Y-7.7811
X4.3199Y-7.6965
X4.6939Y-7.7811
X4.8514Y-7.6965
X5.2254Y-7.7811
X5.3829Y-7.6965
X5.7569Y-7.7811
X5.9144Y-7.6965
X6.2884Y-7.7811
X6.4459Y-7.6965
X6.8199Y-7.7811
X7.2325Y-7.6965
X7.6065Y-7.7811
X7.7628Y-7.6965
X8.1368Y-7.7811
X8.2943Y-7.6965
X8.6683Y-7.7811
X8.8258Y-7.6965
X9.1998Y-7.7811
X9.3593Y-7.6965
X9.7333Y-7.7811
X9.8888Y-7.6965
X10.2628Y-7.7811
X10.6846Y-7.3585
X11.0587Y-7.4431
X11.3933Y-7.3585
X11.7673Y-7.4431
X12.102Y-7.3585
X12.476Y-7.4431
X12.7677Y-7.3583
X13.1417Y-7.4429
X13.3484Y-7.3583
X13.7224Y-7.4429
X13.9187Y-7.3583
X14.2927Y-7.4429
T3
X10.7732Y-6.1301
X10.8717Y-6.1301
X10.9701Y-6.1301
X11.4907Y-6.1301
X11.5892Y-6.1301
X11.6876Y-6.1301
X12.1994Y-6.1301
X12.2978Y-6.1301
X12.3963Y-6.1301
T4
X10.6748Y-6.4057
X11.0685Y-6.4057
X11.3923Y-6.4057
X11.786Y-6.4057
X12.101Y-6.4057
X12.4947Y-6.4057
T5
X2.5449Y-6.3366
X2.5449Y-8.122
X7.0331Y-6.3366
X10.8825Y-8.5045
X14.5921Y-6.3366
X14.5921Y-8.122
M30
