%TF.GenerationSoftware,KiCad,Pcbnew,8.0.7*%
%TF.CreationDate,2025-01-08T09:33:51+09:00*%
%TF.ProjectId,CarInd-Main-V3.0,43617249-6e64-42d4-9d61-696e2d56332e,rev?*%
%TF.SameCoordinates,Original*%
%TF.FileFunction,Profile,NP*%
%FSLAX46Y46*%
G04 Gerber Fmt 4.6, Leading zero omitted, Abs format (unit mm)*
G04 Created by KiCad (PCBNEW 8.0.7) date 2025-01-08 09:33:51*
%MOMM*%
%LPD*%
G01*
G04 APERTURE LIST*
%TA.AperFunction,Profile*%
%ADD10C,0.100000*%
%TD*%
%TA.AperFunction,Profile*%
%ADD11C,0.050000*%
%TD*%
%ADD12C,1.000000*%
%TA.AperFunction,Profile*%
%ADD13C,0.120000*%
%TD*%
G04 APERTURE END LIST*
D10*
X94305000Y-240940000D02*
G75*
G02*
X90305000Y-240940000I-2000000J0D01*
G01*
X90305000Y-240940000D02*
G75*
G02*
X94305000Y-240940000I2000000J0D01*
G01*
D11*
X105490000Y-166220000D02*
X105490000Y-167420000D01*
X107490000Y-167420000D02*
X105490000Y-167420000D01*
X209300000Y-243930000D02*
X209300000Y-147930000D01*
D10*
X206295000Y-240940000D02*
G75*
G02*
X202295000Y-240940000I-2000000J0D01*
G01*
X202295000Y-240940000D02*
G75*
G02*
X206295000Y-240940000I2000000J0D01*
G01*
D11*
X87300000Y-186200000D02*
X87300000Y-243930000D01*
X209300000Y-243930000D02*
G75*
G02*
X207300000Y-245930000I-2000000J0D01*
G01*
X105490000Y-166220000D02*
X102590000Y-166220000D01*
X102590000Y-165520000D02*
X102590000Y-166220000D01*
X105490000Y-184310000D02*
X107490000Y-184310000D01*
X109595000Y-166220000D02*
X107490000Y-166220000D01*
X89300000Y-245930000D02*
G75*
G02*
X87300000Y-243930000I0J2000000D01*
G01*
X89300000Y-245930000D02*
X207300000Y-245930000D01*
X207300000Y-145930000D02*
G75*
G02*
X209300000Y-147930000I0J-2000000D01*
G01*
X109595000Y-166220000D02*
X109595000Y-185510000D01*
D10*
X94310000Y-150930000D02*
G75*
G02*
X90310000Y-150930000I-2000000J0D01*
G01*
X90310000Y-150930000D02*
G75*
G02*
X94310000Y-150930000I2000000J0D01*
G01*
D11*
X102590000Y-165520000D02*
X87300000Y-165520000D01*
X89300000Y-145930000D02*
X207300000Y-145930000D01*
X87300000Y-147930000D02*
G75*
G02*
X89300000Y-145930000I2000000J0D01*
G01*
D10*
X206295000Y-150930000D02*
G75*
G02*
X202295000Y-150930000I-2000000J0D01*
G01*
X202295000Y-150930000D02*
G75*
G02*
X206295000Y-150930000I2000000J0D01*
G01*
D11*
X102590000Y-185510000D02*
X102590000Y-186210000D01*
X109595000Y-185510000D02*
X107490000Y-185510000D01*
X107490000Y-184310000D02*
X107490000Y-185510000D01*
X105490000Y-185510000D02*
X102590000Y-185510000D01*
X87300000Y-186210000D02*
X102590000Y-186210000D01*
X107490000Y-166220000D02*
X107490000Y-167420000D01*
X105490000Y-184310000D02*
X105490000Y-185510000D01*
X87300000Y-147930000D02*
X87300000Y-165520000D01*
X89300000Y-145930000D02*
G75*
G02*
X87300000Y-143930000I0J2000000D01*
G01*
X209300000Y-143930000D02*
G75*
G02*
X207300000Y-145930000I-2000000J0D01*
G01*
X87300000Y-86210000D02*
X102590000Y-86210000D01*
X102590000Y-65520000D02*
X87300000Y-65520000D01*
X109595000Y-85510000D02*
X107490000Y-85510000D01*
X107490000Y-84310000D02*
X107490000Y-85510000D01*
X107490000Y-66220000D02*
X107490000Y-67420000D01*
D10*
X94310000Y-50930000D02*
G75*
G02*
X90310000Y-50930000I-2000000J0D01*
G01*
X90310000Y-50930000D02*
G75*
G02*
X94310000Y-50930000I2000000J0D01*
G01*
D11*
X109595000Y-66220000D02*
X107490000Y-66220000D01*
X102590000Y-85510000D02*
X102590000Y-86210000D01*
X105490000Y-84310000D02*
X105490000Y-85510000D01*
X107490000Y-67420000D02*
X105490000Y-67420000D01*
X89300000Y-45930000D02*
X207300000Y-45930000D01*
X87300000Y-86200000D02*
X87300000Y-143930000D01*
D10*
X206295000Y-50930000D02*
G75*
G02*
X202295000Y-50930000I-2000000J0D01*
G01*
X202295000Y-50930000D02*
G75*
G02*
X206295000Y-50930000I2000000J0D01*
G01*
D11*
X87300000Y-47930000D02*
G75*
G02*
X89300000Y-45930000I2000000J0D01*
G01*
X102590000Y-65520000D02*
X102590000Y-66220000D01*
X109595000Y-66220000D02*
X109595000Y-85510000D01*
X207300000Y-45930000D02*
G75*
G02*
X209300000Y-47930000I0J-2000000D01*
G01*
X209300000Y-143930000D02*
X209300000Y-47930000D01*
X89300000Y-145930000D02*
X207300000Y-145930000D01*
X105490000Y-66220000D02*
X105490000Y-67420000D01*
X87300000Y-47930000D02*
X87300000Y-65520000D01*
X105490000Y-85510000D02*
X102590000Y-85510000D01*
D10*
X206295000Y-140940000D02*
G75*
G02*
X202295000Y-140940000I-2000000J0D01*
G01*
X202295000Y-140940000D02*
G75*
G02*
X206295000Y-140940000I2000000J0D01*
G01*
D11*
X105490000Y-84310000D02*
X107490000Y-84310000D01*
X105490000Y-66220000D02*
X102590000Y-66220000D01*
D10*
X94305000Y-140940000D02*
G75*
G02*
X90305000Y-140940000I-2000000J0D01*
G01*
X90305000Y-140940000D02*
G75*
G02*
X94305000Y-140940000I2000000J0D01*
G01*
D12*
X239754084Y-140946095D02*
X241420751Y-145946095D01*
X241420751Y-145946095D02*
X243087417Y-140946095D01*
X248563608Y-144041333D02*
X252373132Y-144041333D01*
X261420751Y-145469904D02*
X261182655Y-145708000D01*
X261182655Y-145708000D02*
X260468370Y-145946095D01*
X260468370Y-145946095D02*
X259992179Y-145946095D01*
X259992179Y-145946095D02*
X259277893Y-145708000D01*
X259277893Y-145708000D02*
X258801703Y-145231809D01*
X258801703Y-145231809D02*
X258563608Y-144755619D01*
X258563608Y-144755619D02*
X258325512Y-143803238D01*
X258325512Y-143803238D02*
X258325512Y-143088952D01*
X258325512Y-143088952D02*
X258563608Y-142136571D01*
X258563608Y-142136571D02*
X258801703Y-141660380D01*
X258801703Y-141660380D02*
X259277893Y-141184190D01*
X259277893Y-141184190D02*
X259992179Y-140946095D01*
X259992179Y-140946095D02*
X260468370Y-140946095D01*
X260468370Y-140946095D02*
X261182655Y-141184190D01*
X261182655Y-141184190D02*
X261420751Y-141422285D01*
X263563608Y-140946095D02*
X263563608Y-144993714D01*
X263563608Y-144993714D02*
X263801703Y-145469904D01*
X263801703Y-145469904D02*
X264039798Y-145708000D01*
X264039798Y-145708000D02*
X264515989Y-145946095D01*
X264515989Y-145946095D02*
X265468370Y-145946095D01*
X265468370Y-145946095D02*
X265944560Y-145708000D01*
X265944560Y-145708000D02*
X266182655Y-145469904D01*
X266182655Y-145469904D02*
X266420751Y-144993714D01*
X266420751Y-144993714D02*
X266420751Y-140946095D01*
X268087417Y-140946095D02*
X270944560Y-140946095D01*
X269515988Y-145946095D02*
X269515988Y-140946095D01*
D13*
%TO.C,J11*%
X108560000Y-207190000D02*
G75*
G02*
X105960000Y-207190000I-1300000J0D01*
G01*
X105960000Y-207190000D02*
G75*
G02*
X108560000Y-207190000I1300000J0D01*
G01*
X108560000Y-107190000D02*
G75*
G02*
X105960000Y-107190000I-1300000J0D01*
G01*
X105960000Y-107190000D02*
G75*
G02*
X108560000Y-107190000I1300000J0D01*
G01*
%TD*%
M02*
