%TF.GenerationSoftware,KiCad,Pcbnew,8.0.7*%
%TF.CreationDate,2025-01-08T09:33:51+09:00*%
%TF.ProjectId,CarInd-Main-V3.0,43617249-6e64-42d4-9d61-696e2d56332e,rev?*%
%TF.SameCoordinates,Original*%
%TF.FileFunction,Soldermask,Bot*%
%TF.FilePolarity,Negative*%
%FSLAX46Y46*%
G04 Gerber Fmt 4.6, Leading zero omitted, Abs format (unit mm)*
G04 Created by KiCad (PCBNEW 8.0.7) date 2025-01-08 09:33:51*
%MOMM*%
%LPD*%
G01*
G04 APERTURE LIST*
G04 Aperture macros list*
%AMRoundRect*
0 Rectangle with rounded corners*
0 $1 Rounding radius*
0 $2 $3 $4 $5 $6 $7 $8 $9 X,Y pos of 4 corners*
0 Add a 4 corners polygon primitive as box body*
4,1,4,$2,$3,$4,$5,$6,$7,$8,$9,$2,$3,0*
0 Add four circle primitives for the rounded corners*
1,1,$1+$1,$2,$3*
1,1,$1+$1,$4,$5*
1,1,$1+$1,$6,$7*
1,1,$1+$1,$8,$9*
0 Add four rect primitives between the rounded corners*
20,1,$1+$1,$2,$3,$4,$5,0*
20,1,$1+$1,$4,$5,$6,$7,0*
20,1,$1+$1,$6,$7,$8,$9,0*
20,1,$1+$1,$8,$9,$2,$3,0*%
G04 Aperture macros list end*
%ADD10R,1.100000X1.000000*%
%ADD11RoundRect,0.325000X-0.325000X0.325000X-0.325000X-0.325000X0.325000X-0.325000X0.325000X0.325000X0*%
%ADD12RoundRect,0.312500X0.312500X-0.437500X0.312500X0.437500X-0.312500X0.437500X-0.312500X-0.437500X0*%
%ADD13RoundRect,0.325000X-0.325000X-0.325000X0.325000X-0.325000X0.325000X0.325000X-0.325000X0.325000X0*%
%ADD14R,1.200000X0.900000*%
%ADD15RoundRect,0.325000X0.325000X0.325000X-0.325000X0.325000X-0.325000X-0.325000X0.325000X-0.325000X0*%
%ADD16R,1.800000X2.500000*%
%ADD17R,3.000000X2.000000*%
%ADD18R,2.500000X1.500000*%
%ADD19R,6.400000X5.800000*%
%ADD20R,1.000000X1.100000*%
%ADD21RoundRect,0.500000X-0.500000X1.250000X-0.500000X-1.250000X0.500000X-1.250000X0.500000X1.250000X0*%
%ADD22C,0.800000*%
%ADD23O,4.600000X1.500000*%
%ADD24C,1.500000*%
%ADD25R,1.500000X1.500000*%
%ADD26C,3.100000*%
%ADD27C,2.500000*%
%ADD28C,3.500000*%
%ADD29C,4.500000*%
%ADD30C,13.500000*%
%ADD31C,1.600000*%
%ADD32R,1.600000X1.600000*%
%ADD33O,1.700000X1.850000*%
%ADD34RoundRect,0.249900X-0.600100X-0.675100X0.600100X-0.675100X0.600100X0.675100X-0.600100X0.675100X0*%
G04 APERTURE END LIST*
D10*
%TO.C,D25*%
X207300000Y-170525000D03*
X205300000Y-169575000D03*
X205300000Y-171475000D03*
%TD*%
D11*
%TO.C,R19*%
X166625000Y-242385000D03*
X166625000Y-240085000D03*
%TD*%
%TO.C,R25*%
X165650000Y-157215000D03*
X165650000Y-154915000D03*
%TD*%
D10*
%TO.C,Q5*%
X162375000Y-221310000D03*
X164375000Y-222260000D03*
X164375000Y-220360000D03*
%TD*%
D11*
%TO.C,R17*%
X169125000Y-242385000D03*
X169125000Y-240085000D03*
%TD*%
%TO.C,R13*%
X166625000Y-222460000D03*
X166625000Y-220160000D03*
%TD*%
D12*
%TO.C,C7*%
X115745000Y-163060000D03*
X115745000Y-165460000D03*
%TD*%
D13*
%TO.C,R32*%
X131005000Y-195740000D03*
X128705000Y-195740000D03*
%TD*%
D14*
%TO.C,D19*%
X164555000Y-201510000D03*
X164555000Y-198210000D03*
%TD*%
D11*
%TO.C,R27*%
X188975000Y-226225000D03*
X188975000Y-223925000D03*
%TD*%
%TO.C,R18*%
X166625000Y-232510000D03*
X166625000Y-230210000D03*
%TD*%
D12*
%TO.C,C6*%
X117995000Y-163060000D03*
X117995000Y-165460000D03*
%TD*%
D13*
%TO.C,R33*%
X172785000Y-191935000D03*
X170485000Y-191935000D03*
%TD*%
%TO.C,R24*%
X207005000Y-189640000D03*
X204705000Y-189640000D03*
%TD*%
D15*
%TO.C,R45*%
X196505000Y-171705000D03*
X198805000Y-171705000D03*
%TD*%
D10*
%TO.C,Q15*%
X160550000Y-181925000D03*
X162550000Y-182875000D03*
X162550000Y-180975000D03*
%TD*%
D13*
%TO.C,R44*%
X198805000Y-174065000D03*
X196505000Y-174065000D03*
%TD*%
D14*
%TO.C,D16*%
X164560000Y-176170000D03*
X164560000Y-172870000D03*
%TD*%
D16*
%TO.C,D27*%
X124580000Y-180285000D03*
X124580000Y-176285000D03*
%TD*%
D17*
%TO.C,Q2*%
X158357000Y-213720000D03*
D18*
X158357000Y-209154000D03*
D19*
X151050000Y-211440000D03*
%TD*%
D20*
%TO.C,Q18*%
X171635000Y-196100000D03*
X172585000Y-194100000D03*
X170685000Y-194100000D03*
%TD*%
D13*
%TO.C,R15*%
X131050000Y-213880000D03*
X128750000Y-213880000D03*
%TD*%
%TO.C,R46*%
X198805000Y-169315000D03*
X196505000Y-169315000D03*
%TD*%
D10*
%TO.C,Q4*%
X161250000Y-156065000D03*
X163250000Y-157015000D03*
X163250000Y-155115000D03*
%TD*%
D14*
%TO.C,D14*%
X164570000Y-163215000D03*
X164570000Y-159915000D03*
%TD*%
D17*
%TO.C,Q7*%
X158357000Y-223595000D03*
D18*
X158357000Y-219029000D03*
D19*
X151050000Y-221315000D03*
%TD*%
D10*
%TO.C,Q16*%
X160550000Y-194860000D03*
X162550000Y-195810000D03*
X162550000Y-193910000D03*
%TD*%
D21*
%TO.C,F6*%
X128780000Y-162765000D03*
X132480000Y-162765000D03*
X136780000Y-162765000D03*
X140480000Y-162765000D03*
%TD*%
D22*
%TO.C,SW4*%
X206230000Y-203470000D03*
%TD*%
D21*
%TO.C,F7*%
X128780000Y-180285000D03*
X132480000Y-180285000D03*
X136780000Y-180285000D03*
X140480000Y-180285000D03*
%TD*%
%TO.C,F1*%
X128755000Y-209140000D03*
X132455000Y-209140000D03*
X136755000Y-209140000D03*
X140455000Y-209140000D03*
%TD*%
D23*
%TO.C,J12*%
X202825000Y-163950000D03*
X202825000Y-179475000D03*
D24*
X190385000Y-167260000D03*
X192925000Y-168530000D03*
X190385000Y-169800000D03*
X192925000Y-171070000D03*
X190385000Y-172340000D03*
X192925000Y-173610000D03*
X190385000Y-174880000D03*
D25*
X192925000Y-176150000D03*
D26*
X199275000Y-165990000D03*
X199275000Y-177420000D03*
%TD*%
D16*
%TO.C,D5*%
X181105000Y-155915000D03*
X181105000Y-151915000D03*
%TD*%
D10*
%TO.C,Q17*%
X161240000Y-169020000D03*
X163240000Y-169970000D03*
X163240000Y-168070000D03*
%TD*%
%TO.C,Q8*%
X162375000Y-231360000D03*
X164375000Y-232310000D03*
X164375000Y-230410000D03*
%TD*%
D13*
%TO.C,R41*%
X183582500Y-174205000D03*
X181282500Y-174205000D03*
%TD*%
D16*
%TO.C,D23*%
X124580000Y-189140000D03*
X124580000Y-185140000D03*
%TD*%
D13*
%TO.C,R31*%
X131030000Y-185270000D03*
X128730000Y-185270000D03*
%TD*%
D11*
%TO.C,R8*%
X169125000Y-212585000D03*
X169125000Y-210285000D03*
%TD*%
D13*
%TO.C,R22*%
X131050000Y-222390000D03*
X128750000Y-222390000D03*
%TD*%
D14*
%TO.C,D3*%
X173650000Y-201500000D03*
X173650000Y-198200000D03*
%TD*%
D13*
%TO.C,R23*%
X131050000Y-230930000D03*
X128750000Y-230930000D03*
%TD*%
D12*
%TO.C,C8*%
X113495000Y-163060000D03*
X113495000Y-165460000D03*
%TD*%
D20*
%TO.C,Q14*%
X171625000Y-183150000D03*
X172575000Y-181150000D03*
X170675000Y-181150000D03*
%TD*%
D13*
%TO.C,R43*%
X183582500Y-169580000D03*
X181282500Y-169580000D03*
%TD*%
D11*
%TO.C,R29*%
X165640000Y-170170000D03*
X165640000Y-167870000D03*
%TD*%
%TO.C,R26*%
X186700000Y-226225000D03*
X186700000Y-223925000D03*
%TD*%
D17*
%TO.C,Q13*%
X158357000Y-243520000D03*
D18*
X158357000Y-238954000D03*
D19*
X151050000Y-241240000D03*
%TD*%
D10*
%TO.C,Q9*%
X162375000Y-241235000D03*
X164375000Y-242185000D03*
X164375000Y-240285000D03*
%TD*%
D14*
%TO.C,D26*%
X173650000Y-188585000D03*
X173650000Y-185285000D03*
%TD*%
D16*
%TO.C,D24*%
X124580000Y-162765000D03*
X124580000Y-158765000D03*
%TD*%
D12*
%TO.C,C9*%
X111245000Y-163060000D03*
X111245000Y-165460000D03*
%TD*%
D10*
%TO.C,Q3*%
X162375000Y-211435000D03*
X164375000Y-212385000D03*
X164375000Y-210485000D03*
%TD*%
D11*
%TO.C,R7*%
X166625000Y-212585000D03*
X166625000Y-210285000D03*
%TD*%
D14*
%TO.C,D15*%
X164555000Y-188585000D03*
X164555000Y-185285000D03*
%TD*%
D13*
%TO.C,R40*%
X131055000Y-158900000D03*
X128755000Y-158900000D03*
%TD*%
%TO.C,R11*%
X172775000Y-179050000D03*
X170475000Y-179050000D03*
%TD*%
%TO.C,R1*%
X207005000Y-187265000D03*
X204705000Y-187265000D03*
%TD*%
%TO.C,R12*%
X131005000Y-199650000D03*
X128705000Y-199650000D03*
%TD*%
%TO.C,R28*%
X131055000Y-167520000D03*
X128755000Y-167520000D03*
%TD*%
%TO.C,R30*%
X131055000Y-176315000D03*
X128755000Y-176315000D03*
%TD*%
D11*
%TO.C,R9*%
X169125000Y-222460000D03*
X169125000Y-220160000D03*
%TD*%
D16*
%TO.C,D18*%
X124580000Y-171340000D03*
X124580000Y-167340000D03*
%TD*%
D11*
%TO.C,R16*%
X169125000Y-232510000D03*
X169125000Y-230210000D03*
%TD*%
D13*
%TO.C,R42*%
X183582500Y-171895000D03*
X181282500Y-171895000D03*
%TD*%
D17*
%TO.C,Q11*%
X158357000Y-233645000D03*
D18*
X158357000Y-229079000D03*
D19*
X151050000Y-231365000D03*
%TD*%
D13*
%TO.C,R10*%
X207005000Y-184840000D03*
X204705000Y-184840000D03*
%TD*%
%TO.C,R6*%
X131050000Y-205330000D03*
X128750000Y-205330000D03*
%TD*%
D21*
%TO.C,F5*%
X128780000Y-171340000D03*
X132480000Y-171340000D03*
X136780000Y-171340000D03*
X140480000Y-171340000D03*
%TD*%
D27*
%TO.C,K8*%
X164900000Y-181935000D03*
X177600000Y-186935000D03*
D24*
X175100000Y-191935000D03*
X175100000Y-181935000D03*
D27*
X164900000Y-191935000D03*
%TD*%
D21*
%TO.C,F4*%
X128755000Y-234690000D03*
X132455000Y-234690000D03*
X136755000Y-234690000D03*
X140455000Y-234690000D03*
%TD*%
%TO.C,F2*%
X128755000Y-217690000D03*
X132455000Y-217690000D03*
X136755000Y-217690000D03*
X140455000Y-217690000D03*
%TD*%
D28*
%TO.C,J10*%
X117055000Y-169870000D03*
X112055000Y-169870000D03*
X112055000Y-173870000D03*
X112055000Y-177870000D03*
X117055000Y-181870000D03*
X112055000Y-181870000D03*
%TD*%
D27*
%TO.C,K2*%
X148455000Y-156085000D03*
X161155000Y-161085000D03*
D24*
X158655000Y-166085000D03*
X158655000Y-156085000D03*
D27*
X148455000Y-166085000D03*
%TD*%
D29*
%TO.C,J14*%
X114105000Y-239615000D03*
X114105000Y-232115000D03*
D30*
X107305000Y-235865000D03*
D29*
X100505000Y-239615000D03*
X100505000Y-232115000D03*
%TD*%
D27*
%TO.C,K5*%
X148440000Y-194860000D03*
X161140000Y-199860000D03*
D24*
X158640000Y-204860000D03*
X158640000Y-194860000D03*
D27*
X148440000Y-204860000D03*
%TD*%
%TO.C,K3*%
X148445000Y-169020000D03*
X161145000Y-174020000D03*
D24*
X158645000Y-179020000D03*
X158645000Y-169020000D03*
D27*
X148445000Y-179020000D03*
%TD*%
%TO.C,K1*%
X148440000Y-181935000D03*
X161140000Y-186935000D03*
D24*
X158640000Y-191935000D03*
X158640000Y-181935000D03*
D27*
X148440000Y-191935000D03*
%TD*%
D29*
%TO.C,J13*%
X114105000Y-159090000D03*
X114105000Y-151590000D03*
D30*
X107305000Y-155340000D03*
D29*
X100505000Y-159090000D03*
X100505000Y-151590000D03*
%TD*%
D28*
%TO.C,J11*%
X118260000Y-193190000D03*
X113260000Y-193190000D03*
X118260000Y-197190000D03*
X113260000Y-197190000D03*
X118260000Y-201190000D03*
X113260000Y-201190000D03*
X113260000Y-205190000D03*
X113260000Y-209190000D03*
X118260000Y-213190000D03*
X113260000Y-213190000D03*
X118260000Y-217190000D03*
X113260000Y-217190000D03*
X118260000Y-221190000D03*
X113260000Y-221190000D03*
%TD*%
D27*
%TO.C,K7*%
X164900000Y-194850000D03*
X177600000Y-199850000D03*
D24*
X175100000Y-204850000D03*
X175100000Y-194850000D03*
D27*
X164900000Y-204850000D03*
%TD*%
D31*
%TO.C,C4*%
X169610000Y-153155000D03*
D32*
X172110000Y-153155000D03*
%TD*%
D21*
%TO.C,F8*%
X128755000Y-189140000D03*
X132455000Y-189140000D03*
X136755000Y-189140000D03*
X140455000Y-189140000D03*
%TD*%
%TO.C,F3*%
X128755000Y-226225000D03*
X132455000Y-226225000D03*
X136755000Y-226225000D03*
X140455000Y-226225000D03*
%TD*%
D33*
%TO.C,J1*%
X195430000Y-243240000D03*
X192930000Y-243240000D03*
X190430000Y-243240000D03*
D34*
X187930000Y-243240000D03*
%TD*%
D27*
%TO.C,K3*%
X148445000Y-69020000D03*
X161145000Y-74020000D03*
D24*
X158645000Y-79020000D03*
X158645000Y-69020000D03*
D27*
X148445000Y-79020000D03*
%TD*%
%TO.C,K7*%
X164900000Y-94850000D03*
X177600000Y-99850000D03*
D24*
X175100000Y-104850000D03*
X175100000Y-94850000D03*
D27*
X164900000Y-104850000D03*
%TD*%
D31*
%TO.C,C4*%
X169610000Y-53155000D03*
D32*
X172110000Y-53155000D03*
%TD*%
D21*
%TO.C,F3*%
X128755000Y-126225000D03*
X132455000Y-126225000D03*
X136755000Y-126225000D03*
X140455000Y-126225000D03*
%TD*%
%TO.C,F8*%
X128755000Y-89140000D03*
X132455000Y-89140000D03*
X136755000Y-89140000D03*
X140455000Y-89140000D03*
%TD*%
D29*
%TO.C,J13*%
X114105000Y-59090000D03*
X114105000Y-51590000D03*
D30*
X107305000Y-55340000D03*
D29*
X100505000Y-59090000D03*
X100505000Y-51590000D03*
%TD*%
D27*
%TO.C,K1*%
X148440000Y-81935000D03*
X161140000Y-86935000D03*
D24*
X158640000Y-91935000D03*
X158640000Y-81935000D03*
D27*
X148440000Y-91935000D03*
%TD*%
D28*
%TO.C,J11*%
X118260000Y-93190000D03*
X113260000Y-93190000D03*
X118260000Y-97190000D03*
X113260000Y-97190000D03*
X118260000Y-101190000D03*
X113260000Y-101190000D03*
X113260000Y-105190000D03*
X113260000Y-109190000D03*
X118260000Y-113190000D03*
X113260000Y-113190000D03*
X118260000Y-117190000D03*
X113260000Y-117190000D03*
X118260000Y-121190000D03*
X113260000Y-121190000D03*
%TD*%
D21*
%TO.C,F5*%
X128780000Y-71340000D03*
X132480000Y-71340000D03*
X136780000Y-71340000D03*
X140480000Y-71340000D03*
%TD*%
D27*
%TO.C,K2*%
X148455000Y-56085000D03*
X161155000Y-61085000D03*
D24*
X158655000Y-66085000D03*
X158655000Y-56085000D03*
D27*
X148455000Y-66085000D03*
%TD*%
%TO.C,K8*%
X164900000Y-81935000D03*
X177600000Y-86935000D03*
D24*
X175100000Y-91935000D03*
X175100000Y-81935000D03*
D27*
X164900000Y-91935000D03*
%TD*%
D21*
%TO.C,F2*%
X128755000Y-117690000D03*
X132455000Y-117690000D03*
X136755000Y-117690000D03*
X140455000Y-117690000D03*
%TD*%
D29*
%TO.C,J14*%
X114105000Y-139615000D03*
X114105000Y-132115000D03*
D30*
X107305000Y-135865000D03*
D29*
X100505000Y-139615000D03*
X100505000Y-132115000D03*
%TD*%
D33*
%TO.C,J1*%
X195430000Y-143240000D03*
X192930000Y-143240000D03*
X190430000Y-143240000D03*
D34*
X187930000Y-143240000D03*
%TD*%
D21*
%TO.C,F4*%
X128755000Y-134690000D03*
X132455000Y-134690000D03*
X136755000Y-134690000D03*
X140455000Y-134690000D03*
%TD*%
D28*
%TO.C,J10*%
X117055000Y-69870000D03*
X112055000Y-69870000D03*
X112055000Y-73870000D03*
X112055000Y-77870000D03*
X117055000Y-81870000D03*
X112055000Y-81870000D03*
%TD*%
D27*
%TO.C,K5*%
X148440000Y-94860000D03*
X161140000Y-99860000D03*
D24*
X158640000Y-104860000D03*
X158640000Y-94860000D03*
D27*
X148440000Y-104860000D03*
%TD*%
D21*
%TO.C,F7*%
X128780000Y-80285000D03*
X132480000Y-80285000D03*
X136780000Y-80285000D03*
X140480000Y-80285000D03*
%TD*%
D22*
%TO.C,SW4*%
X206230000Y-103470000D03*
%TD*%
D21*
%TO.C,F1*%
X128755000Y-109140000D03*
X132455000Y-109140000D03*
X136755000Y-109140000D03*
X140455000Y-109140000D03*
%TD*%
D23*
%TO.C,J12*%
X202825000Y-63950000D03*
X202825000Y-79475000D03*
D24*
X190385000Y-67260000D03*
X192925000Y-68530000D03*
X190385000Y-69800000D03*
X192925000Y-71070000D03*
X190385000Y-72340000D03*
X192925000Y-73610000D03*
X190385000Y-74880000D03*
D25*
X192925000Y-76150000D03*
D26*
X199275000Y-65990000D03*
X199275000Y-77420000D03*
%TD*%
D21*
%TO.C,F6*%
X128780000Y-62765000D03*
X132480000Y-62765000D03*
X136780000Y-62765000D03*
X140480000Y-62765000D03*
%TD*%
D20*
%TO.C,Q18*%
X171635000Y-96100000D03*
X172585000Y-94100000D03*
X170685000Y-94100000D03*
%TD*%
D14*
%TO.C,D14*%
X164570000Y-63215000D03*
X164570000Y-59915000D03*
%TD*%
D17*
%TO.C,Q2*%
X158357000Y-113720000D03*
D18*
X158357000Y-109154000D03*
D19*
X151050000Y-111440000D03*
%TD*%
D10*
%TO.C,Q4*%
X161250000Y-56065000D03*
X163250000Y-57015000D03*
X163250000Y-55115000D03*
%TD*%
D17*
%TO.C,Q7*%
X158357000Y-123595000D03*
D18*
X158357000Y-119029000D03*
D19*
X151050000Y-121315000D03*
%TD*%
D10*
%TO.C,Q16*%
X160550000Y-94860000D03*
X162550000Y-95810000D03*
X162550000Y-93910000D03*
%TD*%
D13*
%TO.C,R46*%
X198805000Y-69315000D03*
X196505000Y-69315000D03*
%TD*%
D16*
%TO.C,D27*%
X124580000Y-80285000D03*
X124580000Y-76285000D03*
%TD*%
D13*
%TO.C,R15*%
X131050000Y-113880000D03*
X128750000Y-113880000D03*
%TD*%
%TO.C,R44*%
X198805000Y-74065000D03*
X196505000Y-74065000D03*
%TD*%
%TO.C,R32*%
X131005000Y-95740000D03*
X128705000Y-95740000D03*
%TD*%
D14*
%TO.C,D16*%
X164560000Y-76170000D03*
X164560000Y-72870000D03*
%TD*%
D11*
%TO.C,R13*%
X166625000Y-122460000D03*
X166625000Y-120160000D03*
%TD*%
%TO.C,R18*%
X166625000Y-132510000D03*
X166625000Y-130210000D03*
%TD*%
%TO.C,R25*%
X165650000Y-57215000D03*
X165650000Y-54915000D03*
%TD*%
D15*
%TO.C,R45*%
X196505000Y-71705000D03*
X198805000Y-71705000D03*
%TD*%
D10*
%TO.C,Q15*%
X160550000Y-81925000D03*
X162550000Y-82875000D03*
X162550000Y-80975000D03*
%TD*%
D13*
%TO.C,R24*%
X207005000Y-89640000D03*
X204705000Y-89640000D03*
%TD*%
%TO.C,R33*%
X172785000Y-91935000D03*
X170485000Y-91935000D03*
%TD*%
D12*
%TO.C,C6*%
X117995000Y-63060000D03*
X117995000Y-65460000D03*
%TD*%
D11*
%TO.C,R19*%
X166625000Y-142385000D03*
X166625000Y-140085000D03*
%TD*%
D14*
%TO.C,D19*%
X164555000Y-101510000D03*
X164555000Y-98210000D03*
%TD*%
D11*
%TO.C,R17*%
X169125000Y-142385000D03*
X169125000Y-140085000D03*
%TD*%
%TO.C,R27*%
X188975000Y-126225000D03*
X188975000Y-123925000D03*
%TD*%
D12*
%TO.C,C7*%
X115745000Y-63060000D03*
X115745000Y-65460000D03*
%TD*%
D10*
%TO.C,Q5*%
X162375000Y-121310000D03*
X164375000Y-122260000D03*
X164375000Y-120360000D03*
%TD*%
%TO.C,D25*%
X207300000Y-70525000D03*
X205300000Y-69575000D03*
X205300000Y-71475000D03*
%TD*%
D12*
%TO.C,C9*%
X111245000Y-63060000D03*
X111245000Y-65460000D03*
%TD*%
D11*
%TO.C,R9*%
X169125000Y-122460000D03*
X169125000Y-120160000D03*
%TD*%
D13*
%TO.C,R10*%
X207005000Y-84840000D03*
X204705000Y-84840000D03*
%TD*%
D16*
%TO.C,D24*%
X124580000Y-62765000D03*
X124580000Y-58765000D03*
%TD*%
D13*
%TO.C,R6*%
X131050000Y-105330000D03*
X128750000Y-105330000D03*
%TD*%
D17*
%TO.C,Q11*%
X158357000Y-133645000D03*
D18*
X158357000Y-129079000D03*
D19*
X151050000Y-131365000D03*
%TD*%
D13*
%TO.C,R28*%
X131055000Y-67520000D03*
X128755000Y-67520000D03*
%TD*%
%TO.C,R42*%
X183582500Y-71895000D03*
X181282500Y-71895000D03*
%TD*%
D11*
%TO.C,R7*%
X166625000Y-112585000D03*
X166625000Y-110285000D03*
%TD*%
D10*
%TO.C,Q3*%
X162375000Y-111435000D03*
X164375000Y-112385000D03*
X164375000Y-110485000D03*
%TD*%
D11*
%TO.C,R16*%
X169125000Y-132510000D03*
X169125000Y-130210000D03*
%TD*%
D16*
%TO.C,D18*%
X124580000Y-71340000D03*
X124580000Y-67340000D03*
%TD*%
D13*
%TO.C,R12*%
X131005000Y-99650000D03*
X128705000Y-99650000D03*
%TD*%
%TO.C,R30*%
X131055000Y-76315000D03*
X128755000Y-76315000D03*
%TD*%
%TO.C,R1*%
X207005000Y-87265000D03*
X204705000Y-87265000D03*
%TD*%
%TO.C,R11*%
X172775000Y-79050000D03*
X170475000Y-79050000D03*
%TD*%
%TO.C,R40*%
X131055000Y-58900000D03*
X128755000Y-58900000D03*
%TD*%
D14*
%TO.C,D15*%
X164555000Y-88585000D03*
X164555000Y-85285000D03*
%TD*%
D11*
%TO.C,R26*%
X186700000Y-126225000D03*
X186700000Y-123925000D03*
%TD*%
D13*
%TO.C,R23*%
X131050000Y-130930000D03*
X128750000Y-130930000D03*
%TD*%
%TO.C,R41*%
X183582500Y-74205000D03*
X181282500Y-74205000D03*
%TD*%
D11*
%TO.C,R29*%
X165640000Y-70170000D03*
X165640000Y-67870000D03*
%TD*%
D13*
%TO.C,R43*%
X183582500Y-69580000D03*
X181282500Y-69580000D03*
%TD*%
D10*
%TO.C,Q9*%
X162375000Y-141235000D03*
X164375000Y-142185000D03*
X164375000Y-140285000D03*
%TD*%
D20*
%TO.C,Q14*%
X171625000Y-83150000D03*
X172575000Y-81150000D03*
X170675000Y-81150000D03*
%TD*%
D13*
%TO.C,R31*%
X131030000Y-85270000D03*
X128730000Y-85270000D03*
%TD*%
D12*
%TO.C,C8*%
X113495000Y-63060000D03*
X113495000Y-65460000D03*
%TD*%
D16*
%TO.C,D5*%
X181105000Y-55915000D03*
X181105000Y-51915000D03*
%TD*%
D14*
%TO.C,D3*%
X173650000Y-101500000D03*
X173650000Y-98200000D03*
%TD*%
D10*
%TO.C,Q17*%
X161240000Y-69020000D03*
X163240000Y-69970000D03*
X163240000Y-68070000D03*
%TD*%
D16*
%TO.C,D23*%
X124580000Y-89140000D03*
X124580000Y-85140000D03*
%TD*%
D10*
%TO.C,Q8*%
X162375000Y-131360000D03*
X164375000Y-132310000D03*
X164375000Y-130410000D03*
%TD*%
D11*
%TO.C,R8*%
X169125000Y-112585000D03*
X169125000Y-110285000D03*
%TD*%
D14*
%TO.C,D26*%
X173650000Y-88585000D03*
X173650000Y-85285000D03*
%TD*%
D17*
%TO.C,Q13*%
X158357000Y-143520000D03*
D18*
X158357000Y-138954000D03*
D19*
X151050000Y-141240000D03*
%TD*%
D13*
%TO.C,R22*%
X131050000Y-122390000D03*
X128750000Y-122390000D03*
%TD*%
M02*
