M48
; DRILL file {KiCad 8.0.7} date 2025-01-08T09:33:48+0900
; FORMAT={-:-/ absolute / inch / decimal}
; #@! TF.CreationDate,2025-01-08T09:33:48+09:00
; #@! TF.GenerationSoftware,Kicad,Pcbnew,8.0.7
; #@! TF.FileFunction,Plated,1,2,PTH
FMAT,2
INCH
; #@! TA.AperFunction,Plated,PTH,ViaDrill
T1C0.0157
; #@! TA.AperFunction,Plated,PTH,ComponentDrill
T2C0.0157
; #@! TA.AperFunction,Plated,PTH,ComponentDrill
T3C0.0276
; #@! TA.AperFunction,Plated,PTH,ComponentDrill
T4C0.0315
; #@! TA.AperFunction,Plated,PTH,ComponentDrill
T5C0.0354
; #@! TA.AperFunction,Plated,PTH,ComponentDrill
T6C0.0433
; #@! TA.AperFunction,Plated,PTH,ComponentDrill
T7C0.0472
; #@! TA.AperFunction,Plated,PTH,ComponentDrill
T8C0.0827
; #@! TA.AperFunction,Plated,PTH,ComponentDrill
T9C0.2165
%
G90
G05
T1
X4.3459Y-3.5406
X4.3459Y-7.4776
X4.4106Y-3.428
X4.4106Y-7.365
X4.4114Y-3.3748
X4.4114Y-7.3118
X4.4752Y-3.3748
X4.4752Y-7.3118
X4.476Y-3.4291
X4.476Y-7.3661
X4.7486Y-3.1673
X4.7486Y-7.1043
X4.7632Y-3.5291
X4.7632Y-7.4661
X4.7636Y-4.0268
X4.7636Y-7.9638
X4.925Y-3.9496
X4.925Y-7.8866
X4.9305Y-2.8087
X4.9305Y-6.7457
X4.9413Y-2.4711
X4.9413Y-6.4081
X4.9443Y-3.5094
X4.9443Y-7.4465
X4.9484Y-3.1608
X4.9484Y-7.0978
X4.964Y-3.3461
X4.964Y-7.2831
X5.1093Y-3.9807
X5.1093Y-7.9177
X5.2069Y-3.7693
X5.2069Y-3.923
X5.2069Y-7.7063
X5.2069Y-7.86
X5.2079Y-3.3565
X5.2079Y-7.2935
X5.2087Y-2.3195
X5.2087Y-4.1467
X5.2087Y-4.4833
X5.2087Y-4.8183
X5.2087Y-5.1545
X5.2087Y-6.2565
X5.2087Y-8.0837
X5.2087Y-8.4203
X5.2087Y-8.7553
X5.2087Y-9.0915
X5.2091Y-2.6585
X5.2091Y-3.0045
X5.2091Y-6.5955
X5.2091Y-6.9415
X5.3018Y-3.6335
X5.3018Y-7.5705
X5.303Y-3.3528
X5.303Y-7.2898
X5.5463Y-3.9354
X5.5463Y-7.8724
X5.6557Y-3.9783
X5.6557Y-7.9154
X5.9114Y-4.3087
X5.9114Y-4.3874
X5.9114Y-4.4661
X5.9114Y-4.6974
X5.9114Y-4.7762
X5.9114Y-4.8549
X5.9114Y-5.0931
X5.9114Y-5.1719
X5.9114Y-5.2506
X5.9114Y-5.4819
X5.9114Y-5.5606
X5.9114Y-5.6394
X5.9114Y-8.2457
X5.9114Y-8.3244
X5.9114Y-8.4031
X5.9114Y-8.6344
X5.9114Y-8.7132
X5.9114Y-8.7919
X5.9114Y-9.0301
X5.9114Y-9.1089
X5.9114Y-9.1876
X5.9114Y-9.4189
X5.9114Y-9.4976
X5.9114Y-9.5764
X5.9705Y-4.3087
X5.9705Y-4.3874
X5.9705Y-4.4661
X5.9705Y-4.6974
X5.9705Y-4.7762
X5.9705Y-4.8549
X5.9705Y-5.0931
X5.9705Y-5.1719
X5.9705Y-5.2506
X5.9705Y-5.4819
X5.9705Y-5.5606
X5.9705Y-5.6394
X5.9705Y-8.2457
X5.9705Y-8.3244
X5.9705Y-8.4031
X5.9705Y-8.6344
X5.9705Y-8.7132
X5.9705Y-8.7919
X5.9705Y-9.0301
X5.9705Y-9.1089
X5.9705Y-9.1876
X5.9705Y-9.4189
X5.9705Y-9.4976
X5.9705Y-9.5764
X6.0295Y-4.3087
X6.0295Y-4.3874
X6.0295Y-4.4661
X6.0295Y-4.6974
X6.0295Y-4.7762
X6.0295Y-4.8549
X6.0295Y-5.0931
X6.0295Y-5.1719
X6.0295Y-5.2506
X6.0295Y-5.4819
X6.0295Y-5.5606
X6.0295Y-5.6394
X6.0295Y-8.2457
X6.0295Y-8.3244
X6.0295Y-8.4031
X6.0295Y-8.6344
X6.0295Y-8.7132
X6.0295Y-8.7919
X6.0295Y-9.0301
X6.0295Y-9.1089
X6.0295Y-9.1876
X6.0295Y-9.4189
X6.0295Y-9.4976
X6.0295Y-9.5764
X6.1527Y-4.2789
X6.1527Y-4.3222
X6.1527Y-4.6666
X6.1527Y-4.7099
X6.1527Y-5.0627
X6.1527Y-5.106
X6.1527Y-5.4516
X6.1527Y-5.4949
X6.1527Y-8.2159
X6.1527Y-8.2593
X6.1527Y-8.6036
X6.1527Y-8.6469
X6.1527Y-8.9997
X6.1527Y-9.043
X6.1527Y-9.3886
X6.1527Y-9.4319
X6.1665Y-4.2396
X6.1665Y-4.3577
X6.1665Y-4.6273
X6.1665Y-4.7454
X6.1665Y-5.0233
X6.1665Y-5.1414
X6.1665Y-5.4122
X6.1665Y-5.5303
X6.1665Y-8.1766
X6.1665Y-8.2947
X6.1665Y-8.5643
X6.1665Y-8.6824
X6.1665Y-8.9603
X6.1665Y-9.0784
X6.1665Y-9.3492
X6.1665Y-9.4673
X6.2055Y-4.3577
X6.2055Y-4.7454
X6.2055Y-5.1414
X6.2055Y-5.5303
X6.2055Y-8.2947
X6.2055Y-8.6824
X6.2055Y-9.0784
X6.2055Y-9.4673
X6.2056Y-4.2396
X6.2056Y-4.6273
X6.2056Y-5.0233
X6.2056Y-5.4122
X6.2056Y-8.1766
X6.2056Y-8.5643
X6.2056Y-8.9603
X6.2056Y-9.3492
X6.2409Y-4.7981
X6.2409Y-8.7351
X6.2441Y-4.4096
X6.2441Y-5.1938
X6.2441Y-8.3467
X6.2441Y-9.1308
X6.245Y-4.2396
X6.245Y-4.6273
X6.245Y-5.0233
X6.245Y-5.4122
X6.245Y-8.1766
X6.245Y-8.5643
X6.245Y-8.9603
X6.245Y-9.3492
X6.2461Y-5.5791
X6.2461Y-9.5161
X6.2839Y-4.3574
X6.2839Y-4.7451
X6.2839Y-5.1412
X6.2839Y-5.5301
X6.2839Y-8.2944
X6.2839Y-8.6821
X6.2839Y-9.0782
X6.2839Y-9.4671
X6.2839Y-4.2393
X6.2839Y-4.627
X6.2839Y-5.0231
X6.2839Y-5.412
X6.2839Y-8.1763
X6.2839Y-8.564
X6.2839Y-8.9601
X6.2839Y-9.349
X6.3154Y-4.3299
X6.3154Y-4.7176
X6.3154Y-5.1137
X6.3154Y-5.5026
X6.3154Y-8.2669
X6.3154Y-8.6546
X6.3154Y-9.0507
X6.3154Y-9.4396
X6.3157Y-4.2789
X6.3157Y-4.6666
X6.3157Y-5.0627
X6.3157Y-5.4516
X6.3157Y-8.2159
X6.3157Y-8.6036
X6.3157Y-8.9997
X6.3157Y-9.3886
X6.3415Y-3.6122
X6.3415Y-7.5492
X6.3539Y-4.4325
X6.3539Y-4.8213
X6.3539Y-8.3695
X6.3539Y-8.7583
X6.3567Y-5.2169
X6.3567Y-9.1539
X6.3575Y-5.6057
X6.3575Y-9.5427
X6.3996Y-3.1486
X6.3996Y-7.0856
X6.4301Y-3.8051
X6.4301Y-7.7421
X6.4343Y-2.2935
X6.4343Y-6.2305
X6.4439Y-3.4262
X6.4439Y-7.3632
X6.448Y-2.8089
X6.448Y-6.7459
X6.4646Y-4.2163
X6.4646Y-8.1533
X6.4673Y-4.5919
X6.4673Y-4.9817
X6.4673Y-5.3896
X6.4673Y-5.6923
X6.4673Y-8.5289
X6.4673Y-8.9187
X6.4673Y-9.3266
X6.4673Y-9.6293
X6.5217Y-2.2935
X6.5217Y-6.2305
X6.5413Y-4.0463
X6.5413Y-7.9833
X6.5591Y-3.3071
X6.5591Y-7.2441
X6.5931Y-3.2254
X6.5931Y-4.0138
X6.5931Y-7.1624
X6.5931Y-7.9508
X6.5965Y-4.2163
X6.5965Y-8.1533
X6.5992Y-4.5919
X6.5992Y-4.9817
X6.5992Y-5.3896
X6.5992Y-5.6923
X6.5992Y-8.5289
X6.5992Y-8.9187
X6.5992Y-9.3266
X6.5992Y-9.6293
X6.6587Y-4.8628
X6.6587Y-8.7998
X6.7075Y-4.9124
X6.7075Y-8.8494
X6.7142Y-4.812
X6.7142Y-8.749
X6.739Y-4.962
X6.739Y-8.899
X6.7618Y-5.1526
X6.7618Y-9.0896
X6.7854Y-3.8661
X6.7854Y-7.8031
X6.7982Y-3.9459
X6.7982Y-7.8829
X6.8Y-2.8583
X6.8Y-6.7953
X6.8081Y-3.7411
X6.8081Y-7.6781
X6.8376Y-3.5453
X6.8376Y-7.4823
X6.8425Y-3.1122
X6.8425Y-7.0492
X6.9488Y-4.5118
X6.9488Y-8.4488
X6.9961Y-4.0394
X6.9961Y-7.9764
X7.0467Y-5.0043
X7.0467Y-8.9413
X7.0484Y-2.3226
X7.0484Y-6.2596
X7.0726Y-4.328
X7.0726Y-8.265
X7.0884Y-4.2843
X7.0884Y-8.2213
X7.1037Y-2.7508
X7.1037Y-6.6878
X7.125Y-4.2626
X7.125Y-8.1996
X7.1301Y-2.2014
X7.1301Y-6.1384
X7.1366Y-2.8892
X7.1366Y-6.8262
X7.1378Y-2.801
X7.1378Y-6.738
X7.1614Y-3.6553
X7.1614Y-7.5923
X7.1618Y-5.5321
X7.1618Y-9.4691
X7.1953Y-3.477
X7.1953Y-7.414
X7.2366Y-5.6226
X7.2366Y-9.5596
X7.237Y-5.0919
X7.237Y-9.0289
X7.239Y-4.3833
X7.239Y-8.3203
X7.2392Y-3.2854
X7.2392Y-7.2224
X7.2646Y-2.7541
X7.2646Y-6.6911
X7.2766Y-3.1506
X7.2766Y-7.0876
X7.3219Y-3.1122
X7.3219Y-7.0492
X7.3494Y-5.0138
X7.3494Y-8.9508
X7.3563Y-3.3268
X7.3563Y-7.2638
X7.3614Y-2.7128
X7.3614Y-2.8514
X7.3614Y-6.6498
X7.3614Y-6.7884
X7.3976Y-5.1594
X7.3976Y-9.0965
X7.4063Y-2.2026
X7.4063Y-2.5766
X7.4063Y-2.6341
X7.4063Y-2.7518
X7.4063Y-6.1396
X7.4063Y-6.5136
X7.4063Y-6.5711
X7.4063Y-6.6888
X7.4071Y-3.8923
X7.4071Y-7.8293
X7.422Y-4.4386
X7.422Y-8.3756
X7.4429Y-5.0148
X7.4429Y-8.9518
X7.4539Y-3.5291
X7.4539Y-7.4661
X7.4705Y-4.439
X7.4705Y-8.376
X7.5049Y-3.3632
X7.5049Y-7.3002
X7.5213Y-4.4394
X7.5213Y-8.3764
X7.5476Y-5.5433
X7.5476Y-9.4803
X7.5732Y-3.7533
X7.5732Y-7.6904
X7.5935Y-3.4085
X7.5935Y-7.3455
X7.5955Y-3.253
X7.5955Y-7.19
X7.6717Y-4.2675
X7.6717Y-4.438
X7.6717Y-8.2045
X7.6717Y-8.375
X7.7126Y-2.5862
X7.7126Y-6.5232
X7.7224Y-4.2896
X7.7224Y-4.4384
X7.7224Y-8.2266
X7.7224Y-8.3754
X7.8217Y-3.7128
X7.8217Y-4.3281
X7.8217Y-7.6498
X7.8217Y-8.2652
X7.872Y-4.0945
X7.872Y-4.3274
X7.872Y-8.0315
X7.872Y-8.2644
X7.8764Y-3.5634
X7.8764Y-7.5004
X7.8772Y-3.4356
X7.8772Y-7.3726
X7.8878Y-5.0104
X7.8878Y-8.9474
X7.9217Y-3.5852
X7.9217Y-7.5222
X7.9498Y-3.9833
X7.9498Y-7.9203
X7.9518Y-4.1031
X7.9518Y-8.0402
X7.9624Y-2.774
X7.9624Y-6.711
X7.963Y-3.5156
X7.963Y-7.4526
X7.9976Y-3.4459
X7.9976Y-7.3829
X7.9988Y-3.34
X7.9988Y-7.277
X8.0211Y-3.8937
X8.0211Y-7.8307
X8.0215Y-3.7533
X8.0215Y-7.6904
X8.0551Y-3.5837
X8.0551Y-7.5207
X8.1988Y-3.3404
X8.1988Y-3.4352
X8.1988Y-7.2774
X8.1988Y-7.3722
X8.1992Y-3.5293
X8.1992Y-7.4663
T3
X6.2457Y-3.2258
X6.2457Y-3.6195
X6.2457Y-3.7346
X6.2457Y-4.1283
X6.2457Y-7.1628
X6.2457Y-7.5565
X6.2457Y-7.6717
X6.2457Y-8.0654
X6.2459Y-2.7173
X6.2459Y-3.111
X6.2459Y-6.6543
X6.2459Y-7.048
X6.2463Y-2.2081
X6.2463Y-2.6018
X6.2463Y-6.1451
X6.2463Y-6.5388
X6.8937Y-3.2258
X6.8937Y-3.6195
X6.8937Y-3.7343
X6.8937Y-4.128
X6.8937Y-7.1628
X6.8937Y-7.5565
X6.8937Y-7.6713
X6.8937Y-8.065
T4
X6.6776Y-2.0927
X6.6776Y-6.0297
X6.776Y-2.0927
X6.776Y-6.0297
X7.3988Y-5.6394
X7.3988Y-9.5764
X7.4972Y-5.6394
X7.4972Y-9.5764
X7.5957Y-5.6394
X7.5957Y-9.5764
X7.6941Y-5.6394
X7.6941Y-9.5764
T5
X7.4955Y-2.648
X7.4955Y-2.748
X7.4955Y-2.848
X7.4955Y-2.948
X7.4955Y-6.585
X7.4955Y-6.685
X7.4955Y-6.785
X7.4955Y-6.885
X7.5955Y-2.698
X7.5955Y-2.798
X7.5955Y-2.898
X7.5955Y-2.998
X7.5955Y-6.635
X7.5955Y-6.735
X7.5955Y-6.835
X7.5955Y-6.935
T6
X5.8441Y-3.2258
X5.8441Y-3.6195
X5.8441Y-3.7346
X5.8441Y-4.1283
X5.8441Y-7.1628
X5.8441Y-7.5565
X5.8441Y-7.6717
X5.8441Y-8.0654
X5.8443Y-2.7173
X5.8443Y-3.111
X5.8443Y-6.6543
X5.8443Y-7.048
X5.8447Y-2.2081
X5.8447Y-2.6018
X5.8447Y-6.1451
X5.8447Y-6.5388
X6.3441Y-3.4226
X6.3441Y-3.9315
X6.3441Y-7.3596
X6.3441Y-7.8685
X6.3443Y-2.9142
X6.3443Y-6.8512
X6.3447Y-2.4049
X6.3447Y-6.3419
X6.4921Y-3.2258
X6.4921Y-3.6195
X6.4921Y-3.7343
X6.4921Y-4.128
X6.4921Y-7.1628
X6.4921Y-7.5565
X6.4921Y-7.6713
X6.4921Y-8.065
X6.9921Y-3.4226
X6.9921Y-3.9311
X6.9921Y-7.3596
X6.9921Y-7.8681
T7
X4.4116Y-2.7508
X4.4116Y-2.9083
X4.4116Y-3.0657
X4.4116Y-3.2232
X4.4116Y-6.6878
X4.4116Y-6.8453
X4.4116Y-7.0028
X4.4116Y-7.1602
X4.4591Y-3.6689
X4.4591Y-3.8264
X4.4591Y-3.9839
X4.4591Y-4.1413
X4.4591Y-4.2988
X4.4591Y-4.4563
X4.4591Y-4.6138
X4.4591Y-4.7713
X4.4591Y-7.6059
X4.4591Y-7.7634
X4.4591Y-7.9209
X4.4591Y-8.0783
X4.4591Y-8.2358
X4.4591Y-8.3933
X4.4591Y-8.5508
X4.4591Y-8.7083
X4.6085Y-2.7508
X4.6085Y-3.2232
X4.6085Y-6.6878
X4.6085Y-7.1602
X4.6559Y-3.6689
X4.6559Y-3.8264
X4.6559Y-3.9839
X4.6559Y-4.4563
X4.6559Y-4.6138
X4.6559Y-4.7713
X4.6559Y-7.6059
X4.6559Y-7.7634
X4.6559Y-7.9209
X4.6559Y-8.3933
X4.6559Y-8.5508
X4.6559Y-8.7083
T8
X3.9569Y-2.0311
X3.9569Y-2.3264
X3.9569Y-5.2014
X3.9569Y-5.4967
X3.9569Y-5.9681
X3.9569Y-6.2634
X3.9569Y-9.1384
X3.9569Y-9.4337
X4.4923Y-2.0311
X4.4923Y-2.3264
X4.4923Y-5.2014
X4.4923Y-5.4967
X4.4923Y-5.9681
X4.4923Y-6.2634
X4.4923Y-9.1384
X4.4923Y-9.4337
T9
X4.2246Y-2.1787
X4.2246Y-5.349
X4.2246Y-6.1157
X4.2246Y-9.286
T2
G00X5.0691Y-3.4839
M15
G01X5.0691Y-3.535
M16
G05
G00X5.0691Y-4.2713
M15
G01X5.0691Y-4.3224
M16
G05
G00X5.0691Y-4.6079
M15
G01X5.0691Y-4.6591
M16
G05
G00X5.0691Y-4.9439
M15
G01X5.0691Y-4.9951
M16
G05
G00X5.0691Y-5.2772
M15
G01X5.0691Y-5.3283
M16
G05
G00X5.0691Y-7.4209
M15
G01X5.0691Y-7.472
M16
G05
G00X5.0691Y-8.2083
M15
G01X5.0691Y-8.2594
M16
G05
G00X5.0691Y-8.5449
M15
G01X5.0691Y-8.5961
M16
G05
G00X5.0691Y-8.8809
M15
G01X5.0691Y-8.9321
M16
G05
G00X5.0691Y-9.2142
M15
G01X5.0691Y-9.2654
M16
G05
G00X5.0701Y-2.4455
M15
G01X5.0701Y-2.4967
M16
G05
G00X5.0701Y-2.7831
M15
G01X5.0701Y-2.8343
M16
G05
G00X5.0701Y-3.1352
M15
G01X5.0701Y-3.1864
M16
G05
G00X5.0701Y-6.3825
M15
G01X5.0701Y-6.4337
M16
G05
G00X5.0701Y-6.7201
M15
G01X5.0701Y-6.7713
M16
G05
G00X5.0701Y-7.0722
M15
G01X5.0701Y-7.1234
M16
G05
G00X5.2148Y-3.4839
M15
G01X5.2148Y-3.535
M16
G05
G00X5.2148Y-4.2713
M15
G01X5.2148Y-4.3224
M16
G05
G00X5.2148Y-4.6079
M15
G01X5.2148Y-4.6591
M16
G05
G00X5.2148Y-4.9439
M15
G01X5.2148Y-4.9951
M16
G05
G00X5.2148Y-5.2772
M15
G01X5.2148Y-5.3283
M16
G05
G00X5.2148Y-7.4209
M15
G01X5.2148Y-7.472
M16
G05
G00X5.2148Y-8.2083
M15
G01X5.2148Y-8.2594
M16
G05
G00X5.2148Y-8.5449
M15
G01X5.2148Y-8.5961
M16
G05
G00X5.2148Y-8.8809
M15
G01X5.2148Y-8.9321
M16
G05
G00X5.2148Y-9.2142
M15
G01X5.2148Y-9.2654
M16
G05
G00X5.2157Y-2.4455
M15
G01X5.2157Y-2.4967
M16
G05
G00X5.2157Y-2.7831
M15
G01X5.2157Y-2.8343
M16
G05
G00X5.2157Y-3.1352
M15
G01X5.2157Y-3.1864
M16
G05
G00X5.2157Y-6.3825
M15
G01X5.2157Y-6.4337
M16
G05
G00X5.2157Y-6.7201
M15
G01X5.2157Y-6.7713
M16
G05
G00X5.2157Y-7.0722
M15
G01X5.2157Y-7.1234
M16
G05
G00X5.3841Y-3.4839
M15
G01X5.3841Y-3.535
M16
G05
G00X5.3841Y-4.2713
M15
G01X5.3841Y-4.3224
M16
G05
G00X5.3841Y-4.6079
M15
G01X5.3841Y-4.6591
M16
G05
G00X5.3841Y-4.9439
M15
G01X5.3841Y-4.9951
M16
G05
G00X5.3841Y-5.2772
M15
G01X5.3841Y-5.3283
M16
G05
G00X5.3841Y-7.4209
M15
G01X5.3841Y-7.472
M16
G05
G00X5.3841Y-8.2083
M15
G01X5.3841Y-8.2594
M16
G05
G00X5.3841Y-8.5449
M15
G01X5.3841Y-8.5961
M16
G05
G00X5.3841Y-8.8809
M15
G01X5.3841Y-8.9321
M16
G05
G00X5.3841Y-9.2142
M15
G01X5.3841Y-9.2654
M16
G05
G00X5.385Y-2.4455
M15
G01X5.385Y-2.4967
M16
G05
G00X5.385Y-2.7831
M15
G01X5.385Y-2.8343
M16
G05
G00X5.385Y-3.1352
M15
G01X5.385Y-3.1864
M16
G05
G00X5.385Y-6.3825
M15
G01X5.385Y-6.4337
M16
G05
G00X5.385Y-6.7201
M15
G01X5.385Y-6.7713
M16
G05
G00X5.385Y-7.0722
M15
G01X5.385Y-7.1234
M16
G05
G00X5.5297Y-3.4839
M15
G01X5.5297Y-3.535
M16
G05
G00X5.5297Y-4.2713
M15
G01X5.5297Y-4.3224
M16
G05
G00X5.5297Y-4.6079
M15
G01X5.5297Y-4.6591
M16
G05
G00X5.5297Y-4.9439
M15
G01X5.5297Y-4.9951
M16
G05
G00X5.5297Y-5.2772
M15
G01X5.5297Y-5.3283
M16
G05
G00X5.5297Y-7.4209
M15
G01X5.5297Y-7.472
M16
G05
G00X5.5297Y-8.2083
M15
G01X5.5297Y-8.2594
M16
G05
G00X5.5297Y-8.5449
M15
G01X5.5297Y-8.5961
M16
G05
G00X5.5297Y-8.8809
M15
G01X5.5297Y-8.9321
M16
G05
G00X5.5297Y-9.2142
M15
G01X5.5297Y-9.2654
M16
G05
G00X5.5307Y-2.4455
M15
G01X5.5307Y-2.4967
M16
G05
G00X5.5307Y-2.7831
M15
G01X5.5307Y-2.8343
M16
G05
G00X5.5307Y-3.1352
M15
G01X5.5307Y-3.1864
M16
G05
G00X5.5307Y-6.3825
M15
G01X5.5307Y-6.4337
M16
G05
G00X5.5307Y-6.7201
M15
G01X5.5307Y-6.7713
M16
G05
G00X5.5307Y-7.0722
M15
G01X5.5307Y-7.1234
M16
G05
G00X8.0482Y-2.5177
M15
G01X7.9222Y-2.5177
M16
G05
G00X8.0482Y-3.1289
M15
G01X7.9222Y-3.1289
M16
G05
G00X8.0482Y-6.4547
M15
G01X7.9222Y-6.4547
M16
G05
G00X8.0482Y-7.0659
M15
G01X7.9222Y-7.0659
M16
G05
M30
