%TF.GenerationSoftware,KiCad,Pcbnew,8.0.7*%
%TF.CreationDate,2025-01-08T09:33:51+09:00*%
%TF.ProjectId,CarInd-Main-V3.0,43617249-6e64-42d4-9d61-696e2d56332e,rev?*%
%TF.SameCoordinates,Original*%
%TF.FileFunction,Soldermask,Top*%
%TF.FilePolarity,Negative*%
%FSLAX46Y46*%
G04 Gerber Fmt 4.6, Leading zero omitted, Abs format (unit mm)*
G04 Created by KiCad (PCBNEW 8.0.7) date 2025-01-08 09:33:51*
%MOMM*%
%LPD*%
G01*
G04 APERTURE LIST*
G04 Aperture macros list*
%AMRoundRect*
0 Rectangle with rounded corners*
0 $1 Rounding radius*
0 $2 $3 $4 $5 $6 $7 $8 $9 X,Y pos of 4 corners*
0 Add a 4 corners polygon primitive as box body*
4,1,4,$2,$3,$4,$5,$6,$7,$8,$9,$2,$3,0*
0 Add four circle primitives for the rounded corners*
1,1,$1+$1,$2,$3*
1,1,$1+$1,$4,$5*
1,1,$1+$1,$6,$7*
1,1,$1+$1,$8,$9*
0 Add four rect primitives between the rounded corners*
20,1,$1+$1,$2,$3,$4,$5,0*
20,1,$1+$1,$4,$5,$6,$7,0*
20,1,$1+$1,$6,$7,$8,$9,0*
20,1,$1+$1,$8,$9,$2,$3,0*%
G04 Aperture macros list end*
%ADD10RoundRect,0.312500X0.437500X0.312500X-0.437500X0.312500X-0.437500X-0.312500X0.437500X-0.312500X0*%
%ADD11RoundRect,0.325000X0.325000X0.325000X-0.325000X0.325000X-0.325000X-0.325000X0.325000X-0.325000X0*%
%ADD12RoundRect,0.500000X-0.500000X1.250000X-0.500000X-1.250000X0.500000X-1.250000X0.500000X1.250000X0*%
%ADD13R,1.000000X1.200000*%
%ADD14R,1.600000X0.800000*%
%ADD15C,0.800000*%
%ADD16RoundRect,0.300000X-1.450000X-0.950000X1.450000X-0.950000X1.450000X0.950000X-1.450000X0.950000X0*%
%ADD17RoundRect,0.163800X-0.711200X-0.136200X0.711200X-0.136200X0.711200X0.136200X-0.711200X0.136200X0*%
%ADD18R,1.500000X1.250000*%
%ADD19RoundRect,0.250000X0.550000X-1.500000X0.550000X1.500000X-0.550000X1.500000X-0.550000X-1.500000X0*%
%ADD20O,4.600000X1.500000*%
%ADD21C,1.500000*%
%ADD22R,1.500000X1.500000*%
%ADD23C,3.100000*%
%ADD24R,3.000000X2.000000*%
%ADD25R,2.500000X1.500000*%
%ADD26R,6.400000X5.800000*%
%ADD27R,5.000000X5.000000*%
%ADD28RoundRect,0.225000X-0.225000X0.775000X-0.225000X-0.775000X0.225000X-0.775000X0.225000X0.775000X0*%
%ADD29RoundRect,0.225000X-0.775000X-0.225000X0.775000X-0.225000X0.775000X0.225000X-0.775000X0.225000X0*%
%ADD30RoundRect,0.325000X-0.325000X0.325000X-0.325000X-0.325000X0.325000X-0.325000X0.325000X0.325000X0*%
%ADD31R,1.100000X0.700000*%
%ADD32C,2.500000*%
%ADD33C,3.500000*%
%ADD34C,4.500000*%
%ADD35C,13.500000*%
%ADD36RoundRect,0.325000X-0.325000X-0.325000X0.325000X-0.325000X0.325000X0.325000X-0.325000X0.325000X0*%
%ADD37R,2.000000X3.800000*%
%ADD38R,2.000000X1.500000*%
%ADD39RoundRect,0.190000X0.190000X-0.610000X0.190000X0.610000X-0.190000X0.610000X-0.190000X-0.610000X0*%
%ADD40C,1.600000*%
%ADD41R,1.600000X1.600000*%
%ADD42O,1.700000X1.850000*%
%ADD43RoundRect,0.249900X-0.600100X-0.675100X0.600100X-0.675100X0.600100X0.675100X-0.600100X0.675100X0*%
G04 APERTURE END LIST*
D10*
%TO.C,C2*%
X183780000Y-195090000D03*
X186180000Y-195090000D03*
%TD*%
D11*
%TO.C,R2*%
X183830000Y-190590000D03*
X186130000Y-190590000D03*
%TD*%
D12*
%TO.C,F6*%
X128780000Y-162765000D03*
X132480000Y-162765000D03*
X136780000Y-162765000D03*
X140480000Y-162765000D03*
%TD*%
D13*
%TO.C,SW4*%
X205130000Y-205870000D03*
X207330000Y-205870000D03*
X205130000Y-198070000D03*
X207330000Y-198070000D03*
D14*
X203930000Y-199770000D03*
X203930000Y-201220000D03*
X203930000Y-204220000D03*
D15*
X206230000Y-203470000D03*
%TD*%
D16*
%TO.C,MO3*%
X192240000Y-156505000D03*
X192240000Y-147915000D03*
X177110000Y-156505000D03*
X177140000Y-147935000D03*
%TD*%
D17*
%TO.C,U4*%
X185707500Y-169880000D03*
X185707500Y-171150000D03*
X185707500Y-172420000D03*
X185707500Y-173690000D03*
X179357500Y-173690000D03*
X179357500Y-172420000D03*
X179357500Y-171150000D03*
X179357500Y-169880000D03*
%TD*%
D12*
%TO.C,F7*%
X128780000Y-180285000D03*
X132480000Y-180285000D03*
X136780000Y-180285000D03*
X140480000Y-180285000D03*
%TD*%
D18*
%TO.C,D6*%
X207105000Y-184840000D03*
X204605000Y-184840000D03*
%TD*%
%TO.C,D8*%
X131150000Y-213880000D03*
X128650000Y-213880000D03*
%TD*%
D19*
%TO.C,C1*%
X197550000Y-199025000D03*
X197550000Y-204625000D03*
%TD*%
D12*
%TO.C,F1*%
X128755000Y-209140000D03*
X132455000Y-209140000D03*
X136755000Y-209140000D03*
X140455000Y-209140000D03*
%TD*%
D20*
%TO.C,J12*%
X202825000Y-163950000D03*
X202825000Y-179475000D03*
D21*
X190385000Y-167260000D03*
X192925000Y-168530000D03*
X190385000Y-169800000D03*
X192925000Y-171070000D03*
X190385000Y-172340000D03*
X192925000Y-173610000D03*
X190385000Y-174880000D03*
D22*
X192925000Y-176150000D03*
D23*
X199275000Y-165990000D03*
X199275000Y-177420000D03*
%TD*%
D24*
%TO.C,Q10*%
X158357000Y-229085000D03*
D25*
X158357000Y-233651000D03*
D26*
X151050000Y-231365000D03*
%TD*%
D27*
%TO.C,U2*%
X193700000Y-219325000D03*
D28*
X201205000Y-229315000D03*
X199935000Y-229315000D03*
X198665000Y-229315000D03*
X197395000Y-229315000D03*
X196125000Y-229315000D03*
X194855000Y-229315000D03*
X193585000Y-229315000D03*
X192315000Y-229315000D03*
X191045000Y-229315000D03*
X189775000Y-229315000D03*
X188505000Y-229315000D03*
X187235000Y-229315000D03*
X185965000Y-229315000D03*
X184695000Y-229315000D03*
D29*
X183185000Y-227305000D03*
X183185000Y-226035000D03*
X183185000Y-224770000D03*
X183185000Y-223495000D03*
X183185000Y-222225000D03*
X183185000Y-220955000D03*
X183185000Y-219685000D03*
X183185000Y-218425000D03*
X183185000Y-217155000D03*
X183185000Y-215885000D03*
X183185000Y-214610000D03*
X183185000Y-213335000D03*
D28*
X184705000Y-211325000D03*
X185975000Y-211325000D03*
X187245000Y-211325000D03*
X188515000Y-211325000D03*
X189785000Y-211325000D03*
X191055000Y-211325000D03*
X192325000Y-211325000D03*
X193595000Y-211325000D03*
X194865000Y-211325000D03*
X196135000Y-211325000D03*
X197405000Y-211325000D03*
X198675000Y-211325000D03*
X199945000Y-211325000D03*
X201215000Y-211325000D03*
%TD*%
D11*
%TO.C,R3*%
X183830000Y-192840000D03*
X186130000Y-192840000D03*
%TD*%
D30*
%TO.C,R21*%
X162350000Y-242385000D03*
X162350000Y-240085000D03*
%TD*%
D18*
%TO.C,D17*%
X131155000Y-167520000D03*
X128655000Y-167520000D03*
%TD*%
%TO.C,D2*%
X131150000Y-205330000D03*
X128650000Y-205330000D03*
%TD*%
D30*
%TO.C,R14*%
X162350000Y-222460000D03*
X162350000Y-220160000D03*
%TD*%
D18*
%TO.C,D20*%
X131155000Y-176315000D03*
X128655000Y-176315000D03*
%TD*%
%TO.C,D1*%
X207105000Y-187265000D03*
X204605000Y-187265000D03*
%TD*%
D12*
%TO.C,F5*%
X128780000Y-171340000D03*
X132480000Y-171340000D03*
X136780000Y-171340000D03*
X140480000Y-171340000D03*
%TD*%
D31*
%TO.C,SW5*%
X181980000Y-242815000D03*
X177780000Y-242815000D03*
X181980000Y-245015000D03*
X177780000Y-245015000D03*
%TD*%
D32*
%TO.C,K8*%
X164900000Y-181935000D03*
X177600000Y-186935000D03*
D21*
X175100000Y-191935000D03*
X175100000Y-181935000D03*
D32*
X164900000Y-191935000D03*
%TD*%
D30*
%TO.C,R5*%
X162350000Y-212585000D03*
X162350000Y-210285000D03*
%TD*%
D18*
%TO.C,D10*%
X131150000Y-222390000D03*
X128650000Y-222390000D03*
%TD*%
%TO.C,D21*%
X131130000Y-185270000D03*
X128630000Y-185270000D03*
%TD*%
D12*
%TO.C,F4*%
X128755000Y-234690000D03*
X132455000Y-234690000D03*
X136755000Y-234690000D03*
X140455000Y-234690000D03*
%TD*%
D24*
%TO.C,Q12*%
X158357000Y-238960000D03*
D25*
X158357000Y-243526000D03*
D26*
X151050000Y-241240000D03*
%TD*%
D12*
%TO.C,F2*%
X128755000Y-217690000D03*
X132455000Y-217690000D03*
X136755000Y-217690000D03*
X140455000Y-217690000D03*
%TD*%
D33*
%TO.C,J10*%
X117055000Y-169870000D03*
X112055000Y-169870000D03*
X112055000Y-173870000D03*
X112055000Y-177870000D03*
X117055000Y-181870000D03*
X112055000Y-181870000D03*
%TD*%
D18*
%TO.C,D9*%
X131105000Y-195740000D03*
X128605000Y-195740000D03*
%TD*%
D32*
%TO.C,K2*%
X148455000Y-156085000D03*
X161155000Y-161085000D03*
D21*
X158655000Y-166085000D03*
X158655000Y-156085000D03*
D32*
X148455000Y-166085000D03*
%TD*%
D34*
%TO.C,J14*%
X114105000Y-239615000D03*
X114105000Y-232115000D03*
D35*
X107305000Y-235865000D03*
D34*
X100505000Y-239615000D03*
X100505000Y-232115000D03*
%TD*%
D24*
%TO.C,Q1*%
X158357000Y-209160000D03*
D25*
X158357000Y-213726000D03*
D26*
X151050000Y-211440000D03*
%TD*%
D10*
%TO.C,C3*%
X183307500Y-166880000D03*
X185707500Y-166880000D03*
%TD*%
D32*
%TO.C,K5*%
X148440000Y-194860000D03*
X161140000Y-199860000D03*
D21*
X158640000Y-204860000D03*
X158640000Y-194860000D03*
D32*
X148440000Y-204860000D03*
%TD*%
D36*
%TO.C,R4*%
X186130000Y-188315000D03*
X183830000Y-188315000D03*
%TD*%
D32*
%TO.C,K3*%
X148445000Y-169020000D03*
X161145000Y-174020000D03*
D21*
X158645000Y-179020000D03*
X158645000Y-169020000D03*
D32*
X148445000Y-179020000D03*
%TD*%
%TO.C,K1*%
X148440000Y-181935000D03*
X161140000Y-186935000D03*
D21*
X158640000Y-191935000D03*
X158640000Y-181935000D03*
D32*
X148440000Y-191935000D03*
%TD*%
D34*
%TO.C,J13*%
X114105000Y-159090000D03*
X114105000Y-151590000D03*
D35*
X107305000Y-155340000D03*
D34*
X100505000Y-159090000D03*
X100505000Y-151590000D03*
%TD*%
D31*
%TO.C,SW2*%
X181980000Y-238890000D03*
X177780000Y-238890000D03*
X181980000Y-241090000D03*
X177780000Y-241090000D03*
%TD*%
D33*
%TO.C,J11*%
X118260000Y-193190000D03*
X113260000Y-193190000D03*
X118260000Y-197190000D03*
X113260000Y-197190000D03*
X118260000Y-201190000D03*
X113260000Y-201190000D03*
X113260000Y-205190000D03*
X113260000Y-209190000D03*
X118260000Y-213190000D03*
X113260000Y-213190000D03*
X118260000Y-217190000D03*
X113260000Y-217190000D03*
X118260000Y-221190000D03*
X113260000Y-221190000D03*
%TD*%
D32*
%TO.C,K7*%
X164900000Y-194850000D03*
X177600000Y-199850000D03*
D21*
X175100000Y-204850000D03*
X175100000Y-194850000D03*
D32*
X164900000Y-204850000D03*
%TD*%
D37*
%TO.C,U1*%
X183180000Y-201175000D03*
D38*
X189480000Y-198875000D03*
X189480000Y-201175000D03*
X189480000Y-203475000D03*
%TD*%
D24*
%TO.C,Q6*%
X158357000Y-219035000D03*
D25*
X158357000Y-223601000D03*
D26*
X151050000Y-221315000D03*
%TD*%
D30*
%TO.C,R20*%
X162350000Y-232510000D03*
X162350000Y-230210000D03*
%TD*%
D18*
%TO.C,D4*%
X131105000Y-199650000D03*
X128605000Y-199650000D03*
%TD*%
D39*
%TO.C,SW1*%
X191585000Y-185425000D03*
X192855000Y-185425000D03*
X194125000Y-185425000D03*
X195395000Y-185425000D03*
X195395000Y-193125000D03*
X194125000Y-193125000D03*
X192855000Y-193125000D03*
X191585000Y-193125000D03*
%TD*%
D18*
%TO.C,D11*%
X131150000Y-230930000D03*
X128650000Y-230930000D03*
%TD*%
D40*
%TO.C,C4*%
X169610000Y-153155000D03*
D41*
X172110000Y-153155000D03*
%TD*%
D12*
%TO.C,F8*%
X128755000Y-189140000D03*
X132455000Y-189140000D03*
X136755000Y-189140000D03*
X140455000Y-189140000D03*
%TD*%
D18*
%TO.C,D7*%
X207105000Y-189640000D03*
X204605000Y-189640000D03*
%TD*%
D12*
%TO.C,F3*%
X128755000Y-226225000D03*
X132455000Y-226225000D03*
X136755000Y-226225000D03*
X140455000Y-226225000D03*
%TD*%
D18*
%TO.C,D22*%
X131155000Y-158900000D03*
X128655000Y-158900000D03*
%TD*%
D42*
%TO.C,J1*%
X195430000Y-243240000D03*
X192930000Y-243240000D03*
X190430000Y-243240000D03*
D43*
X187930000Y-243240000D03*
%TD*%
D18*
%TO.C,D22*%
X131155000Y-58900000D03*
X128655000Y-58900000D03*
%TD*%
D11*
%TO.C,R2*%
X183830000Y-90590000D03*
X186130000Y-90590000D03*
%TD*%
D10*
%TO.C,C2*%
X183780000Y-95090000D03*
X186180000Y-95090000D03*
%TD*%
D32*
%TO.C,K3*%
X148445000Y-69020000D03*
X161145000Y-74020000D03*
D21*
X158645000Y-79020000D03*
X158645000Y-69020000D03*
D32*
X148445000Y-79020000D03*
%TD*%
D18*
%TO.C,D4*%
X131105000Y-99650000D03*
X128605000Y-99650000D03*
%TD*%
D32*
%TO.C,K7*%
X164900000Y-94850000D03*
X177600000Y-99850000D03*
D21*
X175100000Y-104850000D03*
X175100000Y-94850000D03*
D32*
X164900000Y-104850000D03*
%TD*%
D40*
%TO.C,C4*%
X169610000Y-53155000D03*
D41*
X172110000Y-53155000D03*
%TD*%
D31*
%TO.C,SW2*%
X181980000Y-138890000D03*
X177780000Y-138890000D03*
X181980000Y-141090000D03*
X177780000Y-141090000D03*
%TD*%
D18*
%TO.C,D11*%
X131150000Y-130930000D03*
X128650000Y-130930000D03*
%TD*%
%TO.C,D7*%
X207105000Y-89640000D03*
X204605000Y-89640000D03*
%TD*%
D36*
%TO.C,R4*%
X186130000Y-88315000D03*
X183830000Y-88315000D03*
%TD*%
D12*
%TO.C,F3*%
X128755000Y-126225000D03*
X132455000Y-126225000D03*
X136755000Y-126225000D03*
X140455000Y-126225000D03*
%TD*%
%TO.C,F8*%
X128755000Y-89140000D03*
X132455000Y-89140000D03*
X136755000Y-89140000D03*
X140455000Y-89140000D03*
%TD*%
D39*
%TO.C,SW1*%
X191585000Y-85425000D03*
X192855000Y-85425000D03*
X194125000Y-85425000D03*
X195395000Y-85425000D03*
X195395000Y-93125000D03*
X194125000Y-93125000D03*
X192855000Y-93125000D03*
X191585000Y-93125000D03*
%TD*%
D30*
%TO.C,R20*%
X162350000Y-132510000D03*
X162350000Y-130210000D03*
%TD*%
D34*
%TO.C,J13*%
X114105000Y-59090000D03*
X114105000Y-51590000D03*
D35*
X107305000Y-55340000D03*
D34*
X100505000Y-59090000D03*
X100505000Y-51590000D03*
%TD*%
D32*
%TO.C,K1*%
X148440000Y-81935000D03*
X161140000Y-86935000D03*
D21*
X158640000Y-91935000D03*
X158640000Y-81935000D03*
D32*
X148440000Y-91935000D03*
%TD*%
D24*
%TO.C,Q6*%
X158357000Y-119035000D03*
D25*
X158357000Y-123601000D03*
D26*
X151050000Y-121315000D03*
%TD*%
D33*
%TO.C,J11*%
X118260000Y-93190000D03*
X113260000Y-93190000D03*
X118260000Y-97190000D03*
X113260000Y-97190000D03*
X118260000Y-101190000D03*
X113260000Y-101190000D03*
X113260000Y-105190000D03*
X113260000Y-109190000D03*
X118260000Y-113190000D03*
X113260000Y-113190000D03*
X118260000Y-117190000D03*
X113260000Y-117190000D03*
X118260000Y-121190000D03*
X113260000Y-121190000D03*
%TD*%
D37*
%TO.C,U1*%
X183180000Y-101175000D03*
D38*
X189480000Y-98875000D03*
X189480000Y-101175000D03*
X189480000Y-103475000D03*
%TD*%
D12*
%TO.C,F5*%
X128780000Y-71340000D03*
X132480000Y-71340000D03*
X136780000Y-71340000D03*
X140480000Y-71340000D03*
%TD*%
D31*
%TO.C,SW5*%
X181980000Y-142815000D03*
X177780000Y-142815000D03*
X181980000Y-145015000D03*
X177780000Y-145015000D03*
%TD*%
D30*
%TO.C,R5*%
X162350000Y-112585000D03*
X162350000Y-110285000D03*
%TD*%
D32*
%TO.C,K2*%
X148455000Y-56085000D03*
X161155000Y-61085000D03*
D21*
X158655000Y-66085000D03*
X158655000Y-56085000D03*
D32*
X148455000Y-66085000D03*
%TD*%
D24*
%TO.C,Q12*%
X158357000Y-138960000D03*
D25*
X158357000Y-143526000D03*
D26*
X151050000Y-141240000D03*
%TD*%
D32*
%TO.C,K8*%
X164900000Y-81935000D03*
X177600000Y-86935000D03*
D21*
X175100000Y-91935000D03*
X175100000Y-81935000D03*
D32*
X164900000Y-91935000D03*
%TD*%
D12*
%TO.C,F2*%
X128755000Y-117690000D03*
X132455000Y-117690000D03*
X136755000Y-117690000D03*
X140455000Y-117690000D03*
%TD*%
D34*
%TO.C,J14*%
X114105000Y-139615000D03*
X114105000Y-132115000D03*
D35*
X107305000Y-135865000D03*
D34*
X100505000Y-139615000D03*
X100505000Y-132115000D03*
%TD*%
D42*
%TO.C,J1*%
X195430000Y-143240000D03*
X192930000Y-143240000D03*
X190430000Y-143240000D03*
D43*
X187930000Y-143240000D03*
%TD*%
D18*
%TO.C,D9*%
X131105000Y-95740000D03*
X128605000Y-95740000D03*
%TD*%
D12*
%TO.C,F4*%
X128755000Y-134690000D03*
X132455000Y-134690000D03*
X136755000Y-134690000D03*
X140455000Y-134690000D03*
%TD*%
D18*
%TO.C,D1*%
X207105000Y-87265000D03*
X204605000Y-87265000D03*
%TD*%
D33*
%TO.C,J10*%
X117055000Y-69870000D03*
X112055000Y-69870000D03*
X112055000Y-73870000D03*
X112055000Y-77870000D03*
X117055000Y-81870000D03*
X112055000Y-81870000D03*
%TD*%
D18*
%TO.C,D21*%
X131130000Y-85270000D03*
X128630000Y-85270000D03*
%TD*%
%TO.C,D10*%
X131150000Y-122390000D03*
X128650000Y-122390000D03*
%TD*%
D32*
%TO.C,K5*%
X148440000Y-94860000D03*
X161140000Y-99860000D03*
D21*
X158640000Y-104860000D03*
X158640000Y-94860000D03*
D32*
X148440000Y-104860000D03*
%TD*%
D10*
%TO.C,C3*%
X183307500Y-66880000D03*
X185707500Y-66880000D03*
%TD*%
D24*
%TO.C,Q1*%
X158357000Y-109160000D03*
D25*
X158357000Y-113726000D03*
D26*
X151050000Y-111440000D03*
%TD*%
D30*
%TO.C,R21*%
X162350000Y-142385000D03*
X162350000Y-140085000D03*
%TD*%
D12*
%TO.C,F7*%
X128780000Y-80285000D03*
X132480000Y-80285000D03*
X136780000Y-80285000D03*
X140480000Y-80285000D03*
%TD*%
D18*
%TO.C,D8*%
X131150000Y-113880000D03*
X128650000Y-113880000D03*
%TD*%
D24*
%TO.C,Q10*%
X158357000Y-129085000D03*
D25*
X158357000Y-133651000D03*
D26*
X151050000Y-131365000D03*
%TD*%
D11*
%TO.C,R3*%
X183830000Y-92840000D03*
X186130000Y-92840000D03*
%TD*%
D16*
%TO.C,MO3*%
X192240000Y-56505000D03*
X192240000Y-47915000D03*
X177110000Y-56505000D03*
X177140000Y-47935000D03*
%TD*%
D27*
%TO.C,U2*%
X193700000Y-119325000D03*
D28*
X201205000Y-129315000D03*
X199935000Y-129315000D03*
X198665000Y-129315000D03*
X197395000Y-129315000D03*
X196125000Y-129315000D03*
X194855000Y-129315000D03*
X193585000Y-129315000D03*
X192315000Y-129315000D03*
X191045000Y-129315000D03*
X189775000Y-129315000D03*
X188505000Y-129315000D03*
X187235000Y-129315000D03*
X185965000Y-129315000D03*
X184695000Y-129315000D03*
D29*
X183185000Y-127305000D03*
X183185000Y-126035000D03*
X183185000Y-124770000D03*
X183185000Y-123495000D03*
X183185000Y-122225000D03*
X183185000Y-120955000D03*
X183185000Y-119685000D03*
X183185000Y-118425000D03*
X183185000Y-117155000D03*
X183185000Y-115885000D03*
X183185000Y-114610000D03*
X183185000Y-113335000D03*
D28*
X184705000Y-111325000D03*
X185975000Y-111325000D03*
X187245000Y-111325000D03*
X188515000Y-111325000D03*
X189785000Y-111325000D03*
X191055000Y-111325000D03*
X192325000Y-111325000D03*
X193595000Y-111325000D03*
X194865000Y-111325000D03*
X196135000Y-111325000D03*
X197405000Y-111325000D03*
X198675000Y-111325000D03*
X199945000Y-111325000D03*
X201215000Y-111325000D03*
%TD*%
D13*
%TO.C,SW4*%
X205130000Y-105870000D03*
X207330000Y-105870000D03*
X205130000Y-98070000D03*
X207330000Y-98070000D03*
D14*
X203930000Y-99770000D03*
X203930000Y-101220000D03*
X203930000Y-104220000D03*
D15*
X206230000Y-103470000D03*
%TD*%
D12*
%TO.C,F1*%
X128755000Y-109140000D03*
X132455000Y-109140000D03*
X136755000Y-109140000D03*
X140455000Y-109140000D03*
%TD*%
D20*
%TO.C,J12*%
X202825000Y-63950000D03*
X202825000Y-79475000D03*
D21*
X190385000Y-67260000D03*
X192925000Y-68530000D03*
X190385000Y-69800000D03*
X192925000Y-71070000D03*
X190385000Y-72340000D03*
X192925000Y-73610000D03*
X190385000Y-74880000D03*
D22*
X192925000Y-76150000D03*
D23*
X199275000Y-65990000D03*
X199275000Y-77420000D03*
%TD*%
D12*
%TO.C,F6*%
X128780000Y-62765000D03*
X132480000Y-62765000D03*
X136780000Y-62765000D03*
X140480000Y-62765000D03*
%TD*%
D18*
%TO.C,D2*%
X131150000Y-105330000D03*
X128650000Y-105330000D03*
%TD*%
D30*
%TO.C,R14*%
X162350000Y-122460000D03*
X162350000Y-120160000D03*
%TD*%
D19*
%TO.C,C1*%
X197550000Y-99025000D03*
X197550000Y-104625000D03*
%TD*%
D17*
%TO.C,U4*%
X185707500Y-69880000D03*
X185707500Y-71150000D03*
X185707500Y-72420000D03*
X185707500Y-73690000D03*
X179357500Y-73690000D03*
X179357500Y-72420000D03*
X179357500Y-71150000D03*
X179357500Y-69880000D03*
%TD*%
D18*
%TO.C,D6*%
X207105000Y-84840000D03*
X204605000Y-84840000D03*
%TD*%
%TO.C,D20*%
X131155000Y-76315000D03*
X128655000Y-76315000D03*
%TD*%
%TO.C,D17*%
X131155000Y-67520000D03*
X128655000Y-67520000D03*
%TD*%
M02*
