%TF.GenerationSoftware,KiCad,Pcbnew,8.0.7*%
%TF.CreationDate,2025-01-14T20:12:34+09:00*%
%TF.ProjectId,POP_UP_Board_NEW V7.0,504f505f-5550-45f4-926f-6172645f4e45,rev?*%
%TF.SameCoordinates,Original*%
%TF.FileFunction,Paste,Bot*%
%TF.FilePolarity,Positive*%
%FSLAX46Y46*%
G04 Gerber Fmt 4.6, Leading zero omitted, Abs format (unit mm)*
G04 Created by KiCad (PCBNEW 8.0.7) date 2025-01-14 20:12:34*
%MOMM*%
%LPD*%
G01*
G04 APERTURE LIST*
G04 Aperture macros list*
%AMRoundRect*
0 Rectangle with rounded corners*
0 $1 Rounding radius*
0 $2 $3 $4 $5 $6 $7 $8 $9 X,Y pos of 4 corners*
0 Add a 4 corners polygon primitive as box body*
4,1,4,$2,$3,$4,$5,$6,$7,$8,$9,$2,$3,0*
0 Add four circle primitives for the rounded corners*
1,1,$1+$1,$2,$3*
1,1,$1+$1,$4,$5*
1,1,$1+$1,$6,$7*
1,1,$1+$1,$8,$9*
0 Add four rect primitives between the rounded corners*
20,1,$1+$1,$2,$3,$4,$5,0*
20,1,$1+$1,$4,$5,$6,$7,0*
20,1,$1+$1,$6,$7,$8,$9,0*
20,1,$1+$1,$8,$9,$2,$3,0*%
G04 Aperture macros list end*
%ADD10RoundRect,0.325000X-0.325000X-0.325000X0.325000X-0.325000X0.325000X0.325000X-0.325000X0.325000X0*%
%ADD11RoundRect,0.325000X0.325000X-0.325000X0.325000X0.325000X-0.325000X0.325000X-0.325000X-0.325000X0*%
%ADD12R,0.900000X1.200000*%
%ADD13RoundRect,0.325000X-0.325000X0.325000X-0.325000X-0.325000X0.325000X-0.325000X0.325000X0.325000X0*%
%ADD14R,1.000000X1.100000*%
%ADD15R,1.100000X1.000000*%
%ADD16R,1.200000X0.900000*%
G04 APERTURE END LIST*
D10*
%TO.C,R3*%
X149341250Y-99331250D03*
X151641250Y-99331250D03*
%TD*%
D11*
%TO.C,R8*%
X128626250Y-118201250D03*
X128626250Y-115901250D03*
%TD*%
%TO.C,R1*%
X128626250Y-107881250D03*
X128626250Y-105581250D03*
%TD*%
D12*
%TO.C,D12*%
X142466250Y-70611250D03*
X139166250Y-70611250D03*
%TD*%
D11*
%TO.C,R14*%
X143863750Y-102801250D03*
X143863750Y-100501250D03*
%TD*%
D10*
%TO.C,R7*%
X144666250Y-78751250D03*
X146966250Y-78751250D03*
%TD*%
D13*
%TO.C,R12*%
X168846250Y-67081250D03*
X168846250Y-69381250D03*
%TD*%
D11*
%TO.C,R4*%
X145231250Y-128551250D03*
X145231250Y-126251250D03*
%TD*%
D14*
%TO.C,Q2*%
X163826250Y-76231250D03*
X161926250Y-76231250D03*
X162876250Y-74231250D03*
%TD*%
D13*
%TO.C,R9*%
X131306250Y-67081250D03*
X131306250Y-69381250D03*
%TD*%
D10*
%TO.C,R2*%
X149321250Y-101691250D03*
X151621250Y-101691250D03*
%TD*%
D14*
%TO.C,Q1*%
X146766250Y-76231250D03*
X144866250Y-76231250D03*
X145816250Y-74231250D03*
%TD*%
D11*
%TO.C,R13*%
X138036250Y-114721250D03*
X138036250Y-112421250D03*
%TD*%
D15*
%TO.C,Q5*%
X140246250Y-114521250D03*
X140246250Y-112621250D03*
X142246250Y-113571250D03*
%TD*%
D10*
%TO.C,R10*%
X161726250Y-78751250D03*
X164026250Y-78751250D03*
%TD*%
D16*
%TO.C,D16*%
X144576250Y-113571250D03*
X144576250Y-116871250D03*
%TD*%
D12*
%TO.C,D13*%
X159526250Y-70611250D03*
X156226250Y-70611250D03*
%TD*%
%TO.C,D13*%
X109526250Y-70611250D03*
X106226250Y-70611250D03*
%TD*%
D10*
%TO.C,R10*%
X111726250Y-78751250D03*
X114026250Y-78751250D03*
%TD*%
D16*
%TO.C,D16*%
X94576250Y-113571250D03*
X94576250Y-116871250D03*
%TD*%
D10*
%TO.C,R2*%
X99321250Y-101691250D03*
X101621250Y-101691250D03*
%TD*%
D11*
%TO.C,R13*%
X88036250Y-114721250D03*
X88036250Y-112421250D03*
%TD*%
%TO.C,R8*%
X78626250Y-118201250D03*
X78626250Y-115901250D03*
%TD*%
D14*
%TO.C,Q2*%
X113826250Y-76231250D03*
X111926250Y-76231250D03*
X112876250Y-74231250D03*
%TD*%
D13*
%TO.C,R9*%
X81306250Y-67081250D03*
X81306250Y-69381250D03*
%TD*%
D12*
%TO.C,D12*%
X92466250Y-70611250D03*
X89166250Y-70611250D03*
%TD*%
D11*
%TO.C,R4*%
X95231250Y-128551250D03*
X95231250Y-126251250D03*
%TD*%
D13*
%TO.C,R12*%
X118846250Y-67081250D03*
X118846250Y-69381250D03*
%TD*%
D11*
%TO.C,R14*%
X93863750Y-102801250D03*
X93863750Y-100501250D03*
%TD*%
D15*
%TO.C,Q5*%
X90246250Y-114521250D03*
X90246250Y-112621250D03*
X92246250Y-113571250D03*
%TD*%
D14*
%TO.C,Q1*%
X96766250Y-76231250D03*
X94866250Y-76231250D03*
X95816250Y-74231250D03*
%TD*%
D11*
%TO.C,R1*%
X78626250Y-107881250D03*
X78626250Y-105581250D03*
%TD*%
D10*
%TO.C,R7*%
X94666250Y-78751250D03*
X96966250Y-78751250D03*
%TD*%
%TO.C,R3*%
X99341250Y-99331250D03*
X101641250Y-99331250D03*
%TD*%
M02*
