M48
; DRILL file {KiCad 8.0.7} date 2025-01-14T20:12:31+0900
; FORMAT={-:-/ absolute / inch / decimal}
; #@! TF.CreationDate,2025-01-14T20:12:31+09:00
; #@! TF.GenerationSoftware,Kicad,Pcbnew,8.0.7
; #@! TF.FileFunction,Plated,1,2,PTH
FMAT,2
INCH
; #@! TA.AperFunction,Plated,PTH,ViaDrill
T1C0.0157
; #@! TA.AperFunction,Plated,PTH,ComponentDrill
T2C0.0157
; #@! TA.AperFunction,Plated,PTH,ComponentDrill
T3C0.0276
; #@! TA.AperFunction,Plated,PTH,ComponentDrill
T4C0.0413
; #@! TA.AperFunction,Plated,PTH,ComponentDrill
T5C0.0421
; #@! TA.AperFunction,Plated,PTH,ComponentDrill
T6C0.0433
; #@! TA.AperFunction,Plated,PTH,ComponentDrill
T7C0.0512
%
G90
G05
T1
X3.0922Y-4.3886
X3.0955Y-4.1044
X3.0955Y-4.5126
X3.1469Y-3.9575
X3.1469Y-4.654
X3.201Y-2.7784
X3.2158Y-4.693
X3.2534Y-2.9268
X3.2597Y-4.0465
X3.2601Y-4.5162
X3.3339Y-4.5485
X3.3953Y-4.2067
X3.6386Y-4.6658
X3.6414Y-2.2067
X3.7095Y-4.967
X3.78Y-4.0044
X3.817Y-3.1497
X3.8276Y-3.9182
X3.8445Y-3.5012
X3.9117Y-3.0497
X3.9119Y-3.8697
X4.3103Y-2.2067
X4.631Y-2.9264
X4.6536Y-4.0205
X4.679Y-2.7776
X5.0607Y-4.3886
X5.064Y-4.1044
X5.064Y-4.5126
X5.1154Y-3.9575
X5.1154Y-4.654
X5.1695Y-2.7784
X5.1843Y-4.693
X5.2219Y-2.9268
X5.2282Y-4.0465
X5.2286Y-4.5162
X5.3024Y-4.5485
X5.3638Y-4.2067
X5.6071Y-4.6658
X5.6099Y-2.2067
X5.678Y-4.967
X5.7485Y-4.0044
X5.7855Y-3.1497
X5.7961Y-3.9182
X5.813Y-3.5012
X5.8802Y-3.0497
X5.8804Y-3.8697
X6.2788Y-2.2067
X6.5995Y-2.9264
X6.6221Y-4.0205
X6.6475Y-2.7776
T3
X3.3786Y-2.8207
X3.7587Y-4.339
X3.7587Y-4.7327
X3.7723Y-2.8207
X4.0502Y-2.8207
X4.4439Y-2.8207
X5.3471Y-2.8207
X5.7272Y-4.339
X5.7272Y-4.7327
X5.7408Y-2.8207
X6.0187Y-2.8207
X6.4125Y-2.8207
T4
X4.0952Y-3.2271
X4.2452Y-3.2271
X4.3952Y-3.2271
X4.5886Y-3.7662
X4.5886Y-3.9162
X6.0637Y-3.2271
X6.2137Y-3.2271
X6.3637Y-3.2271
X6.5571Y-3.7662
X6.5571Y-3.9162
T5
X3.3954Y-3.8047
X3.4236Y-3.2271
X3.5454Y-3.8047
X3.5736Y-3.2271
X3.6954Y-3.8047
X3.7236Y-3.2271
X3.8454Y-3.8047
X5.3639Y-3.8047
X5.3921Y-3.2271
X5.5139Y-3.8047
X5.5421Y-3.2271
X5.6639Y-3.8047
X5.6921Y-3.2271
X5.8139Y-3.8047
T6
X3.3571Y-4.339
X3.3571Y-4.7327
X3.3786Y-2.4191
X3.5754Y-2.9191
X3.7723Y-2.4191
X3.8571Y-4.5359
X4.0502Y-2.4191
X4.2471Y-2.9191
X4.4439Y-2.4191
X5.3256Y-4.339
X5.3256Y-4.7327
X5.3471Y-2.4191
X5.5439Y-2.9191
X5.7408Y-2.4191
X5.8256Y-4.5359
X6.0187Y-2.4191
X6.2156Y-2.9191
X6.4125Y-2.4191
T7
X4.5902Y-4.2938
X4.5902Y-4.4937
X4.5902Y-4.6937
X6.5587Y-4.2938
X6.5587Y-4.4937
X6.5587Y-4.6937
T2
G00X4.0296Y-4.99
M15
G01X4.0296Y-5.0412
M16
G05
G00X4.1752Y-4.99
M15
G01X4.1752Y-5.0412
M16
G05
G00X4.3445Y-4.99
M15
G01X4.3445Y-5.0412
M16
G05
G00X4.4902Y-4.99
M15
G01X4.4902Y-5.0412
M16
G05
G00X5.9981Y-4.99
M15
G01X5.9981Y-5.0412
M16
G05
G00X6.1437Y-4.99
M15
G01X6.1437Y-5.0412
M16
G05
G00X6.313Y-4.99
M15
G01X6.313Y-5.0412
M16
G05
G00X6.4587Y-4.99
M15
G01X6.4587Y-5.0412
M16
G05
M30
