%TF.GenerationSoftware,KiCad,Pcbnew,8.0.7*%
%TF.CreationDate,2025-01-14T20:12:34+09:00*%
%TF.ProjectId,POP_UP_Board_NEW V7.0,504f505f-5550-45f4-926f-6172645f4e45,rev?*%
%TF.SameCoordinates,Original*%
%TF.FileFunction,Soldermask,Top*%
%TF.FilePolarity,Negative*%
%FSLAX46Y46*%
G04 Gerber Fmt 4.6, Leading zero omitted, Abs format (unit mm)*
G04 Created by KiCad (PCBNEW 8.0.7) date 2025-01-14 20:12:34*
%MOMM*%
%LPD*%
G01*
G04 APERTURE LIST*
G04 Aperture macros list*
%AMRoundRect*
0 Rectangle with rounded corners*
0 $1 Rounding radius*
0 $2 $3 $4 $5 $6 $7 $8 $9 X,Y pos of 4 corners*
0 Add a 4 corners polygon primitive as box body*
4,1,4,$2,$3,$4,$5,$6,$7,$8,$9,$2,$3,0*
0 Add four circle primitives for the rounded corners*
1,1,$1+$1,$2,$3*
1,1,$1+$1,$4,$5*
1,1,$1+$1,$6,$7*
1,1,$1+$1,$8,$9*
0 Add four rect primitives between the rounded corners*
20,1,$1+$1,$2,$3,$4,$5,0*
20,1,$1+$1,$4,$5,$6,$7,0*
20,1,$1+$1,$6,$7,$8,$9,0*
20,1,$1+$1,$8,$9,$2,$3,0*%
G04 Aperture macros list end*
%ADD10RoundRect,0.250000X0.750000X0.750000X-0.750000X0.750000X-0.750000X-0.750000X0.750000X-0.750000X0*%
%ADD11RoundRect,0.500000X-0.500000X1.250000X-0.500000X-1.250000X0.500000X-1.250000X0.500000X1.250000X0*%
%ADD12R,1.250000X1.500000*%
%ADD13RoundRect,0.500000X0.500000X0.500000X-0.500000X0.500000X-0.500000X-0.500000X0.500000X-0.500000X0*%
%ADD14RoundRect,0.249600X-1.550400X0.790400X-1.550400X-0.790400X1.550400X-0.790400X1.550400X0.790400X0*%
%ADD15O,3.600000X2.080000*%
%ADD16C,2.500000*%
%ADD17C,1.500000*%
%ADD18RoundRect,0.500000X0.500000X-0.500000X0.500000X0.500000X-0.500000X0.500000X-0.500000X-0.500000X0*%
G04 APERTURE END LIST*
D10*
%TO.C,SW4*%
X164071250Y-56061250D03*
X158071250Y-56061250D03*
%TD*%
D11*
%TO.C,F2*%
X164051250Y-127396250D03*
X160351250Y-127396250D03*
X156051250Y-127396250D03*
X152351250Y-127396250D03*
%TD*%
D12*
%TO.C,D20*%
X131306250Y-74341250D03*
X131306250Y-71841250D03*
%TD*%
D13*
%TO.C,J4*%
X147673750Y-96638750D03*
X143863750Y-96638750D03*
X140053750Y-96638750D03*
X136243750Y-96638750D03*
%TD*%
D12*
%TO.C,D1*%
X128626250Y-107981250D03*
X128626250Y-105481250D03*
%TD*%
%TO.C,D2*%
X143181250Y-128651250D03*
X143181250Y-126151250D03*
%TD*%
%TO.C,D22*%
X168846250Y-74336250D03*
X168846250Y-71836250D03*
%TD*%
D14*
%TO.C,J1*%
X166591250Y-109061250D03*
D15*
X166591250Y-114141250D03*
X166591250Y-119221250D03*
%TD*%
D16*
%TO.C,K6*%
X135816250Y-61446250D03*
D17*
X145816250Y-71646250D03*
X135816250Y-71646250D03*
D16*
X140816250Y-74146250D03*
X145816250Y-61446250D03*
%TD*%
D18*
%TO.C,J3*%
X166551250Y-99471250D03*
X166551250Y-95661250D03*
%TD*%
D12*
%TO.C,D17*%
X128626250Y-118301250D03*
X128626250Y-115801250D03*
%TD*%
D16*
%TO.C,K5*%
X152876250Y-61446250D03*
D17*
X162876250Y-71646250D03*
X152876250Y-71646250D03*
D16*
X157876250Y-74146250D03*
X162876250Y-61446250D03*
%TD*%
%TO.C,K7*%
X135271250Y-120211250D03*
D17*
X145471250Y-110211250D03*
X145471250Y-120211250D03*
D16*
X147971250Y-115211250D03*
X135271250Y-110211250D03*
%TD*%
D10*
%TO.C,SW3*%
X147011250Y-56061250D03*
X141011250Y-56061250D03*
%TD*%
D13*
%TO.C,J2*%
X161638750Y-81968750D03*
X157828750Y-81968750D03*
X154018750Y-81968750D03*
%TD*%
%TO.C,J7*%
X144578750Y-81968750D03*
X140768750Y-81968750D03*
X136958750Y-81968750D03*
%TD*%
D10*
%TO.C,SW3*%
X97011250Y-56061250D03*
X91011250Y-56061250D03*
%TD*%
D13*
%TO.C,J4*%
X97673750Y-96638750D03*
X93863750Y-96638750D03*
X90053750Y-96638750D03*
X86243750Y-96638750D03*
%TD*%
D18*
%TO.C,J3*%
X116551250Y-99471250D03*
X116551250Y-95661250D03*
%TD*%
D16*
%TO.C,K6*%
X85816250Y-61446250D03*
D17*
X95816250Y-71646250D03*
X85816250Y-71646250D03*
D16*
X90816250Y-74146250D03*
X95816250Y-61446250D03*
%TD*%
D14*
%TO.C,J1*%
X116591250Y-109061250D03*
D15*
X116591250Y-114141250D03*
X116591250Y-119221250D03*
%TD*%
D12*
%TO.C,D22*%
X118846250Y-74336250D03*
X118846250Y-71836250D03*
%TD*%
%TO.C,D1*%
X78626250Y-107981250D03*
X78626250Y-105481250D03*
%TD*%
%TO.C,D20*%
X81306250Y-74341250D03*
X81306250Y-71841250D03*
%TD*%
D10*
%TO.C,SW4*%
X114071250Y-56061250D03*
X108071250Y-56061250D03*
%TD*%
D13*
%TO.C,J7*%
X94578750Y-81968750D03*
X90768750Y-81968750D03*
X86958750Y-81968750D03*
%TD*%
D12*
%TO.C,D2*%
X93181250Y-128651250D03*
X93181250Y-126151250D03*
%TD*%
D11*
%TO.C,F2*%
X114051250Y-127396250D03*
X110351250Y-127396250D03*
X106051250Y-127396250D03*
X102351250Y-127396250D03*
%TD*%
D12*
%TO.C,D17*%
X78626250Y-118301250D03*
X78626250Y-115801250D03*
%TD*%
D16*
%TO.C,K7*%
X85271250Y-120211250D03*
D17*
X95471250Y-110211250D03*
X95471250Y-120211250D03*
D16*
X97971250Y-115211250D03*
X85271250Y-110211250D03*
%TD*%
%TO.C,K5*%
X102876250Y-61446250D03*
D17*
X112876250Y-71646250D03*
X102876250Y-71646250D03*
D16*
X107876250Y-74146250D03*
X112876250Y-61446250D03*
%TD*%
D13*
%TO.C,J2*%
X111638750Y-81968750D03*
X107828750Y-81968750D03*
X104018750Y-81968750D03*
%TD*%
M02*
