M48
; DRILL file {KiCad 8.0.7} date 2025-01-14T19:54:03+0900
; FORMAT={-:-/ absolute / inch / decimal}
; #@! TF.CreationDate,2025-01-14T19:54:03+09:00
; #@! TF.GenerationSoftware,Kicad,Pcbnew,8.0.7
; #@! TF.FileFunction,Plated,1,2,PTH
FMAT,2
INCH
; #@! TA.AperFunction,Plated,PTH,ViaDrill
T1C0.0157
; #@! TA.AperFunction,Plated,PTH,ComponentDrill
T2C0.0354
; #@! TA.AperFunction,Plated,PTH,ComponentDrill
T3C0.1260
%
G90
G05
T1
X1.6809Y-3.6961
X1.6809Y-6.5701
X1.7597Y-1.572
X1.7597Y-4.4461
X1.8042Y-3.5902
X1.8042Y-6.4642
X1.888Y-2.1878
X1.888Y-5.0618
X1.892Y-2.7528
X1.892Y-5.6268
X1.8979Y-3.0795
X1.8979Y-5.9535
X1.9581Y-2.8122
X1.9581Y-5.6862
X1.9738Y-1.572
X1.9738Y-4.4461
X2.0138Y-1.987
X2.0138Y-4.861
X2.0148Y-2.7724
X2.0148Y-5.6465
X2.0652Y-2.1795
X2.0652Y-5.0535
X2.0691Y-2.7362
X2.0691Y-5.6102
X2.1077Y-2.7016
X2.1077Y-5.5756
X2.112Y-3.0087
X2.112Y-5.8827
X2.1183Y-1.989
X2.1183Y-4.863
X2.1242Y-2.3291
X2.1242Y-5.2031
X2.1349Y-2.0531
X2.1349Y-4.9272
X2.1443Y-2.9441
X2.1443Y-5.8181
X2.1857Y-2.6634
X2.1857Y-5.5374
X2.2286Y-2.626
X2.2286Y-5.5
X2.2798Y-2.5795
X2.2798Y-5.4535
X2.2888Y-2.9622
X2.2888Y-5.8362
X2.2998Y-2.0283
X2.2998Y-4.9024
X2.3053Y-2.3079
X2.3053Y-5.1819
X2.3636Y-3.6673
X2.3636Y-6.5413
X2.3644Y-2.3079
X2.3644Y-5.1819
X2.3924Y-2.028
X2.3924Y-4.902
X2.4136Y-2.3484
X2.4136Y-5.2224
X2.4443Y-2.811
X2.4443Y-5.685
X2.4451Y-2.2902
X2.4451Y-5.1642
X2.4455Y-2.0567
X2.4455Y-4.9307
X2.4904Y-2.5677
X2.4904Y-5.4417
X2.4943Y-2.9657
X2.4943Y-5.8398
X2.5435Y-2.2902
X2.5435Y-5.1642
X2.5443Y-2.7728
X2.5443Y-5.6469
X2.5609Y-2.1594
X2.5609Y-5.0335
X2.5947Y-2.2902
X2.5947Y-5.1642
X2.6077Y-2.1811
X2.6077Y-5.0551
X2.6439Y-2.2902
X2.6439Y-5.1642
X2.6443Y-2.7008
X2.6443Y-5.5748
X2.6573Y-2.2059
X2.6573Y-5.0799
X2.6912Y-2.5697
X2.6912Y-5.4437
X2.6939Y-2.7362
X2.6939Y-5.6102
X2.7345Y-2.2449
X2.7345Y-5.1189
X2.7439Y-3.011
X2.7439Y-5.885
X2.8211Y-2.9965
X2.8211Y-5.8705
X2.8443Y-2.6634
X2.8443Y-5.5374
X2.8943Y-2.8902
X2.8943Y-5.7642
X2.9435Y-2.348
X2.9435Y-5.222
X2.9443Y-2.6252
X2.9443Y-5.4992
X3.0778Y-3.6673
X3.0778Y-6.5413
X3.3132Y-2.3787
X3.3132Y-5.2528
X3.3152Y-2.1701
X3.3152Y-5.0441
X3.7219Y-3.7059
X3.7219Y-6.5799
X4.8357Y-3.7177
X4.8357Y-6.5917
X5.427Y-2.7484
X5.427Y-5.6224
X5.4904Y-2.4083
X5.4904Y-5.2823
X5.4987Y-3.1543
X5.4987Y-6.0283
X5.5353Y-3.8091
X5.5353Y-6.6831
X5.5396Y-2.6402
X5.5396Y-5.5142
X5.5526Y-3.5161
X5.5526Y-6.3902
X5.5542Y-2.3346
X5.5542Y-5.2087
X5.5805Y-3.3937
X5.5805Y-6.2677
X5.5809Y-2.6701
X5.5809Y-5.5441
X5.6046Y-2.5941
X5.6046Y-3.5362
X5.6046Y-5.4681
X5.6046Y-6.4102
X5.6266Y-3.4323
X5.6266Y-6.3063
X5.6337Y-2.7012
X5.6337Y-5.5752
X5.6546Y-2.4047
X5.6546Y-5.2787
X5.7408Y-2.6039
X5.7408Y-5.478
X5.7534Y-3.537
X5.7534Y-6.411
X5.7546Y-2.4303
X5.7546Y-5.3043
X5.777Y-3.1551
X5.777Y-6.0291
X5.8042Y-2.7008
X5.8042Y-5.5748
X5.8053Y-3.4374
X5.8053Y-6.3114
X5.8168Y-3.7815
X5.8168Y-6.6555
X5.8546Y-2.4476
X5.8546Y-5.3217
X5.9046Y-3.3937
X5.9046Y-6.2677
X5.9057Y-2.6701
X5.9057Y-5.5441
X5.955Y-2.9894
X5.955Y-5.8634
X6.001Y-2.2795
X6.001Y-5.1535
X6.003Y-2.6307
X6.003Y-5.5047
X6.0038Y-3.5165
X6.0038Y-6.3906
X6.0546Y-2.7508
X6.0546Y-5.6248
X6.1447Y-2.3717
X6.1447Y-5.2457
X6.1522Y-2.9898
X6.1522Y-5.8638
X6.1967Y-2.4476
X6.1967Y-5.3217
X6.2518Y-2.4299
X6.2518Y-5.3039
X6.2695Y-3.6622
X6.2695Y-6.5362
X6.2912Y-2.2689
X6.2912Y-5.1429
X6.299Y-2.4008
X6.299Y-5.2748
X6.3353Y-2.3366
X6.3353Y-5.2106
X6.3679Y-2.3709
X6.3679Y-5.2449
T2
X1.6085Y-3.7559
X1.6085Y-6.6299
X1.9825Y-3.8406
X1.9825Y-6.7146
X2.2081Y-3.7555
X2.2081Y-6.6295
X2.5821Y-3.8402
X2.5821Y-6.7142
X2.8069Y-3.7559
X2.8069Y-6.6299
X3.1809Y-3.8406
X3.1809Y-6.7146
X3.4085Y-3.7559
X3.4085Y-6.6299
X3.7825Y-3.8406
X3.7825Y-6.7146
X4.738Y-3.7559
X4.738Y-6.6299
X5.112Y-3.8406
X5.112Y-6.7146
X5.338Y-3.7559
X5.338Y-6.6299
X5.712Y-3.8406
X5.712Y-6.7146
X5.9392Y-3.7563
X5.9392Y-6.6303
X6.3132Y-3.8409
X6.3132Y-6.715
X6.5427Y-2.228
X6.5427Y-2.7181
X6.5427Y-3.235
X6.5427Y-3.7555
X6.5427Y-5.102
X6.5427Y-5.5921
X6.5427Y-6.1091
X6.5427Y-6.6295
X6.9168Y-2.3126
X6.9168Y-2.8028
X6.9168Y-3.3197
X6.9168Y-3.8402
X6.9168Y-5.1866
X6.9168Y-5.6768
X6.9168Y-6.1937
X6.9168Y-6.7142
T3
X1.3821Y-1.7035
X1.3821Y-4.5776
X4.2699Y-4.1445
X4.2699Y-7.0185
X7.0927Y-1.7035
X7.0927Y-4.5776
M30
