%TF.GenerationSoftware,KiCad,Pcbnew,8.0.7*%
%TF.CreationDate,2025-01-14T19:54:10+09:00*%
%TF.ProjectId,AutoHome-S-Cover_V7.0,4175746f-486f-46d6-952d-532d436f7665,rev?*%
%TF.SameCoordinates,Original*%
%TF.FileFunction,Profile,NP*%
%FSLAX46Y46*%
G04 Gerber Fmt 4.6, Leading zero omitted, Abs format (unit mm)*
G04 Created by KiCad (PCBNEW 8.0.7) date 2025-01-14 19:54:10*
%MOMM*%
%LPD*%
G01*
G04 APERTURE LIST*
%TA.AperFunction,Profile*%
%ADD10C,0.050000*%
%TD*%
%TA.AperFunction,Profile*%
%ADD11C,0.120000*%
%TD*%
G04 APERTURE END LIST*
D10*
X164325788Y-112270000D02*
G75*
G02*
X166325788Y-110270000I2000000J0D01*
G01*
X42765739Y-142689951D02*
G75*
G02*
X43775837Y-143700000I-51J-1010149D01*
G01*
X42765739Y-142689951D02*
X31105788Y-142689951D01*
X164325788Y-112270000D02*
X164325788Y-122700000D01*
X29105788Y-112270000D02*
G75*
G02*
X31105788Y-110270000I2000000J0D01*
G01*
X148305788Y-122700000D02*
X148305788Y-112270000D01*
X29105788Y-164320000D02*
X29105788Y-181290000D01*
X31105788Y-110270000D02*
X146305788Y-110270000D01*
X31105788Y-183270000D02*
X184155788Y-183270000D01*
X42765739Y-162320000D02*
X31105788Y-162320000D01*
X164325788Y-122700000D02*
G75*
G02*
X162325788Y-124700000I-2000000J0D01*
G01*
X31105788Y-142689951D02*
G75*
G02*
X29105737Y-140689951I0J2000051D01*
G01*
X146305788Y-110270000D02*
G75*
G02*
X148305788Y-112270000I0J-2000000D01*
G01*
X43775788Y-161309951D02*
G75*
G02*
X42765739Y-162320000I-1010100J51D01*
G01*
X150305788Y-124700000D02*
G75*
G02*
X148305788Y-122700000I0J2000000D01*
G01*
X29105788Y-140690000D02*
X29105788Y-112270000D01*
X29105788Y-164320000D02*
G75*
G02*
X31105788Y-162320000I2000000J0D01*
G01*
X184155788Y-110270000D02*
X166325788Y-110270000D01*
X43775788Y-161310000D02*
X43775788Y-143700000D01*
X162325788Y-124700000D02*
X150305788Y-124700000D01*
X186155788Y-112270000D02*
X186155788Y-181270000D01*
X31105788Y-183270000D02*
G75*
G02*
X29105788Y-181270000I0J2000000D01*
G01*
X184155788Y-110270000D02*
G75*
G02*
X186155788Y-112270000I0J-2000000D01*
G01*
X186155788Y-181270000D02*
G75*
G02*
X184155788Y-183270000I-2000000J0D01*
G01*
X164325788Y-39270000D02*
G75*
G02*
X166325788Y-37270000I2000000J0D01*
G01*
X164325788Y-39270000D02*
X164325788Y-49700000D01*
X42765739Y-69689951D02*
X31105788Y-69689951D01*
X42765739Y-69689951D02*
G75*
G02*
X43775837Y-70700000I-51J-1010149D01*
G01*
X31105788Y-110270000D02*
G75*
G02*
X29105788Y-108270000I0J2000000D01*
G01*
X186155788Y-39270000D02*
X186155788Y-108270000D01*
X186155788Y-108270000D02*
G75*
G02*
X184155788Y-110270000I-2000000J0D01*
G01*
X184155788Y-37270000D02*
G75*
G02*
X186155788Y-39270000I0J-2000000D01*
G01*
X162325788Y-51700000D02*
X150305788Y-51700000D01*
X29105788Y-39270000D02*
G75*
G02*
X31105788Y-37270000I2000000J0D01*
G01*
X43775788Y-88310000D02*
X43775788Y-70700000D01*
X29105788Y-91320000D02*
G75*
G02*
X31105788Y-89320000I2000000J0D01*
G01*
X29105788Y-67690000D02*
X29105788Y-39270000D01*
X150305788Y-51700000D02*
G75*
G02*
X148305788Y-49700000I0J2000000D01*
G01*
X31105788Y-69689951D02*
G75*
G02*
X29105737Y-67689951I0J2000051D01*
G01*
X148305788Y-49700000D02*
X148305788Y-39270000D01*
X164325788Y-49700000D02*
G75*
G02*
X162325788Y-51700000I-2000000J0D01*
G01*
X29105788Y-91320000D02*
X29105788Y-108290000D01*
X184155788Y-37270000D02*
X166325788Y-37270000D01*
X31105788Y-110270000D02*
X184155788Y-110270000D01*
X146305788Y-37270000D02*
G75*
G02*
X148305788Y-39270000I0J-2000000D01*
G01*
X31105788Y-37270000D02*
X146305788Y-37270000D01*
X43775788Y-88309951D02*
G75*
G02*
X42765739Y-89320000I-1010100J51D01*
G01*
X42765739Y-89320000D02*
X31105788Y-89320000D01*
%TO.C,SW6*%
X45650788Y-116590000D02*
X45650788Y-125350001D01*
X45870788Y-116370000D02*
X49430788Y-116369999D01*
X45870788Y-125570001D02*
X49430789Y-125570000D01*
X49650788Y-116589999D02*
X49650789Y-125350000D01*
X45650788Y-116590000D02*
G75*
G02*
X45870788Y-116370000I0J220000D01*
G01*
X45870788Y-125570001D02*
G75*
G02*
X45650788Y-125350001I-220000J0D01*
G01*
X49430788Y-116369999D02*
G75*
G02*
X49650788Y-116590000I220000J-1D01*
G01*
X49650789Y-125350000D02*
G75*
G02*
X49430788Y-125570000I-1J-220000D01*
G01*
%TO.C,U1*%
D11*
X77955788Y-118150000D02*
X75955788Y-118150000D01*
X75955788Y-139150000D01*
X77955788Y-139150000D01*
X77955788Y-118150000D01*
X77955788Y-45150000D02*
X75955788Y-45150000D01*
X75955788Y-66150000D01*
X77955788Y-66150000D01*
X77955788Y-45150000D01*
D10*
%TO.C,SW6*%
X45650788Y-43590000D02*
X45650788Y-52350001D01*
X45870788Y-43370000D02*
X49430788Y-43369999D01*
X45870788Y-52570001D02*
X49430789Y-52570000D01*
X49650788Y-43589999D02*
X49650789Y-52350000D01*
X45650788Y-43590000D02*
G75*
G02*
X45870788Y-43370000I0J220000D01*
G01*
X45870788Y-52570001D02*
G75*
G02*
X45650788Y-52350001I-220000J0D01*
G01*
X49430788Y-43369999D02*
G75*
G02*
X49650788Y-43590000I220000J-1D01*
G01*
X49650789Y-52350000D02*
G75*
G02*
X49430788Y-52570000I-1J-220000D01*
G01*
%TD*%
M02*
