%TF.GenerationSoftware,KiCad,Pcbnew,8.0.7*%
%TF.CreationDate,2025-01-14T19:54:10+09:00*%
%TF.ProjectId,AutoHome-S-Cover_V7.0,4175746f-486f-46d6-952d-532d436f7665,rev?*%
%TF.SameCoordinates,Original*%
%TF.FileFunction,Legend,Bot*%
%TF.FilePolarity,Positive*%
%FSLAX46Y46*%
G04 Gerber Fmt 4.6, Leading zero omitted, Abs format (unit mm)*
G04 Created by KiCad (PCBNEW 8.0.7) date 2025-01-14 19:54:10*
%MOMM*%
%LPD*%
G01*
G04 APERTURE LIST*
%ADD10C,0.150000*%
%ADD11C,0.120000*%
%ADD12C,0.100000*%
%ADD13C,0.200000*%
G04 APERTURE END LIST*
D10*
X55541492Y-133841792D02*
X55541492Y-134298935D01*
X55541492Y-134070363D02*
X56341492Y-134070363D01*
X56341492Y-134070363D02*
X56227207Y-134146554D01*
X56227207Y-134146554D02*
X56151016Y-134222744D01*
X56151016Y-134222744D02*
X56112921Y-134298935D01*
X55541492Y-123632970D02*
X55541492Y-124090113D01*
X55541492Y-123861541D02*
X56341492Y-123861541D01*
X56341492Y-123861541D02*
X56227207Y-123937732D01*
X56227207Y-123937732D02*
X56151016Y-124013922D01*
X56151016Y-124013922D02*
X56112921Y-124090113D01*
X55998635Y-123175827D02*
X56036730Y-123252017D01*
X56036730Y-123252017D02*
X56074826Y-123290112D01*
X56074826Y-123290112D02*
X56151016Y-123328208D01*
X56151016Y-123328208D02*
X56189111Y-123328208D01*
X56189111Y-123328208D02*
X56265302Y-123290112D01*
X56265302Y-123290112D02*
X56303397Y-123252017D01*
X56303397Y-123252017D02*
X56341492Y-123175827D01*
X56341492Y-123175827D02*
X56341492Y-123023446D01*
X56341492Y-123023446D02*
X56303397Y-122947255D01*
X56303397Y-122947255D02*
X56265302Y-122909160D01*
X56265302Y-122909160D02*
X56189111Y-122871065D01*
X56189111Y-122871065D02*
X56151016Y-122871065D01*
X56151016Y-122871065D02*
X56074826Y-122909160D01*
X56074826Y-122909160D02*
X56036730Y-122947255D01*
X56036730Y-122947255D02*
X55998635Y-123023446D01*
X55998635Y-123023446D02*
X55998635Y-123175827D01*
X55998635Y-123175827D02*
X55960540Y-123252017D01*
X55960540Y-123252017D02*
X55922445Y-123290112D01*
X55922445Y-123290112D02*
X55846254Y-123328208D01*
X55846254Y-123328208D02*
X55693873Y-123328208D01*
X55693873Y-123328208D02*
X55617683Y-123290112D01*
X55617683Y-123290112D02*
X55579588Y-123252017D01*
X55579588Y-123252017D02*
X55541492Y-123175827D01*
X55541492Y-123175827D02*
X55541492Y-123023446D01*
X55541492Y-123023446D02*
X55579588Y-122947255D01*
X55579588Y-122947255D02*
X55617683Y-122909160D01*
X55617683Y-122909160D02*
X55693873Y-122871065D01*
X55693873Y-122871065D02*
X55846254Y-122871065D01*
X55846254Y-122871065D02*
X55922445Y-122909160D01*
X55922445Y-122909160D02*
X55960540Y-122947255D01*
X55960540Y-122947255D02*
X55998635Y-123023446D01*
X68737455Y-149505180D02*
X69356502Y-149505180D01*
X69356502Y-149505180D02*
X69023169Y-149124228D01*
X69023169Y-149124228D02*
X69166026Y-149124228D01*
X69166026Y-149124228D02*
X69261264Y-149076609D01*
X69261264Y-149076609D02*
X69308883Y-149028990D01*
X69308883Y-149028990D02*
X69356502Y-148933752D01*
X69356502Y-148933752D02*
X69356502Y-148695657D01*
X69356502Y-148695657D02*
X69308883Y-148600419D01*
X69308883Y-148600419D02*
X69261264Y-148552800D01*
X69261264Y-148552800D02*
X69166026Y-148505180D01*
X69166026Y-148505180D02*
X68880312Y-148505180D01*
X68880312Y-148505180D02*
X68785074Y-148552800D01*
X68785074Y-148552800D02*
X68737455Y-148600419D01*
X71325074Y-149409942D02*
X71372693Y-149457561D01*
X71372693Y-149457561D02*
X71467931Y-149505180D01*
X71467931Y-149505180D02*
X71706026Y-149505180D01*
X71706026Y-149505180D02*
X71801264Y-149457561D01*
X71801264Y-149457561D02*
X71848883Y-149409942D01*
X71848883Y-149409942D02*
X71896502Y-149314704D01*
X71896502Y-149314704D02*
X71896502Y-149219466D01*
X71896502Y-149219466D02*
X71848883Y-149076609D01*
X71848883Y-149076609D02*
X71277455Y-148505180D01*
X71277455Y-148505180D02*
X71896502Y-148505180D01*
X64208883Y-149510756D02*
X63732693Y-149510756D01*
X63732693Y-149510756D02*
X63685074Y-149034566D01*
X63685074Y-149034566D02*
X63732693Y-149082185D01*
X63732693Y-149082185D02*
X63827931Y-149129804D01*
X63827931Y-149129804D02*
X64066026Y-149129804D01*
X64066026Y-149129804D02*
X64161264Y-149082185D01*
X64161264Y-149082185D02*
X64208883Y-149034566D01*
X64208883Y-149034566D02*
X64256502Y-148939328D01*
X64256502Y-148939328D02*
X64256502Y-148701233D01*
X64256502Y-148701233D02*
X64208883Y-148605995D01*
X64208883Y-148605995D02*
X64161264Y-148558376D01*
X64161264Y-148558376D02*
X64066026Y-148510756D01*
X64066026Y-148510756D02*
X63827931Y-148510756D01*
X63827931Y-148510756D02*
X63732693Y-148558376D01*
X63732693Y-148558376D02*
X63685074Y-148605995D01*
X66721264Y-149171847D02*
X66721264Y-148505180D01*
X66483169Y-149552800D02*
X66245074Y-148838514D01*
X66245074Y-148838514D02*
X66864121Y-148838514D01*
X74436502Y-148505180D02*
X73865074Y-148505180D01*
X74150788Y-148505180D02*
X74150788Y-149505180D01*
X74150788Y-149505180D02*
X74055550Y-149362323D01*
X74055550Y-149362323D02*
X73960312Y-149267085D01*
X73960312Y-149267085D02*
X73865074Y-149219466D01*
X61621264Y-149510756D02*
X61430788Y-149510756D01*
X61430788Y-149510756D02*
X61335550Y-149463137D01*
X61335550Y-149463137D02*
X61287931Y-149415518D01*
X61287931Y-149415518D02*
X61192693Y-149272661D01*
X61192693Y-149272661D02*
X61145074Y-149082185D01*
X61145074Y-149082185D02*
X61145074Y-148701233D01*
X61145074Y-148701233D02*
X61192693Y-148605995D01*
X61192693Y-148605995D02*
X61240312Y-148558376D01*
X61240312Y-148558376D02*
X61335550Y-148510756D01*
X61335550Y-148510756D02*
X61526026Y-148510756D01*
X61526026Y-148510756D02*
X61621264Y-148558376D01*
X61621264Y-148558376D02*
X61668883Y-148605995D01*
X61668883Y-148605995D02*
X61716502Y-148701233D01*
X61716502Y-148701233D02*
X61716502Y-148939328D01*
X61716502Y-148939328D02*
X61668883Y-149034566D01*
X61668883Y-149034566D02*
X61621264Y-149082185D01*
X61621264Y-149082185D02*
X61526026Y-149129804D01*
X61526026Y-149129804D02*
X61335550Y-149129804D01*
X61335550Y-149129804D02*
X61240312Y-149082185D01*
X61240312Y-149082185D02*
X61192693Y-149034566D01*
X61192693Y-149034566D02*
X61145074Y-148939328D01*
X62849130Y-163099429D02*
X62820559Y-163042287D01*
X62820559Y-163042287D02*
X62820559Y-162956572D01*
X62820559Y-162956572D02*
X62849130Y-162870858D01*
X62849130Y-162870858D02*
X62906273Y-162813715D01*
X62906273Y-162813715D02*
X62963416Y-162785144D01*
X62963416Y-162785144D02*
X63077702Y-162756572D01*
X63077702Y-162756572D02*
X63163416Y-162756572D01*
X63163416Y-162756572D02*
X63277702Y-162785144D01*
X63277702Y-162785144D02*
X63334845Y-162813715D01*
X63334845Y-162813715D02*
X63391988Y-162870858D01*
X63391988Y-162870858D02*
X63420559Y-162956572D01*
X63420559Y-162956572D02*
X63420559Y-163013715D01*
X63420559Y-163013715D02*
X63391988Y-163099429D01*
X63391988Y-163099429D02*
X63363416Y-163128001D01*
X63363416Y-163128001D02*
X63163416Y-163128001D01*
X63163416Y-163128001D02*
X63163416Y-163013715D01*
X63420559Y-163385144D02*
X62820559Y-163385144D01*
X62820559Y-163385144D02*
X63420559Y-163728001D01*
X63420559Y-163728001D02*
X62820559Y-163728001D01*
X63420559Y-164013715D02*
X62820559Y-164013715D01*
X62820559Y-164013715D02*
X62820559Y-164156572D01*
X62820559Y-164156572D02*
X62849130Y-164242286D01*
X62849130Y-164242286D02*
X62906273Y-164299429D01*
X62906273Y-164299429D02*
X62963416Y-164328000D01*
X62963416Y-164328000D02*
X63077702Y-164356572D01*
X63077702Y-164356572D02*
X63163416Y-164356572D01*
X63163416Y-164356572D02*
X63277702Y-164328000D01*
X63277702Y-164328000D02*
X63334845Y-164299429D01*
X63334845Y-164299429D02*
X63391988Y-164242286D01*
X63391988Y-164242286D02*
X63420559Y-164156572D01*
X63420559Y-164156572D02*
X63420559Y-164013715D01*
X64441988Y-162785144D02*
X64441988Y-163242287D01*
X64670559Y-163013715D02*
X64213416Y-163013715D01*
X64070559Y-163470858D02*
X64070559Y-163842286D01*
X64070559Y-163842286D02*
X64299130Y-163642286D01*
X64299130Y-163642286D02*
X64299130Y-163728001D01*
X64299130Y-163728001D02*
X64327702Y-163785144D01*
X64327702Y-163785144D02*
X64356273Y-163813715D01*
X64356273Y-163813715D02*
X64413416Y-163842286D01*
X64413416Y-163842286D02*
X64556273Y-163842286D01*
X64556273Y-163842286D02*
X64613416Y-163813715D01*
X64613416Y-163813715D02*
X64641988Y-163785144D01*
X64641988Y-163785144D02*
X64670559Y-163728001D01*
X64670559Y-163728001D02*
X64670559Y-163556572D01*
X64670559Y-163556572D02*
X64641988Y-163499429D01*
X64641988Y-163499429D02*
X64613416Y-163470858D01*
X64613416Y-164099430D02*
X64641988Y-164128001D01*
X64641988Y-164128001D02*
X64670559Y-164099430D01*
X64670559Y-164099430D02*
X64641988Y-164070858D01*
X64641988Y-164070858D02*
X64613416Y-164099430D01*
X64613416Y-164099430D02*
X64670559Y-164099430D01*
X64070559Y-164328001D02*
X64070559Y-164699429D01*
X64070559Y-164699429D02*
X64299130Y-164499429D01*
X64299130Y-164499429D02*
X64299130Y-164585144D01*
X64299130Y-164585144D02*
X64327702Y-164642287D01*
X64327702Y-164642287D02*
X64356273Y-164670858D01*
X64356273Y-164670858D02*
X64413416Y-164699429D01*
X64413416Y-164699429D02*
X64556273Y-164699429D01*
X64556273Y-164699429D02*
X64613416Y-164670858D01*
X64613416Y-164670858D02*
X64641988Y-164642287D01*
X64641988Y-164642287D02*
X64670559Y-164585144D01*
X64670559Y-164585144D02*
X64670559Y-164413715D01*
X64670559Y-164413715D02*
X64641988Y-164356572D01*
X64641988Y-164356572D02*
X64613416Y-164328001D01*
X64070559Y-164870858D02*
X64670559Y-165070858D01*
X64670559Y-165070858D02*
X64070559Y-165270858D01*
X65891988Y-162756572D02*
X65920559Y-162842287D01*
X65920559Y-162842287D02*
X65920559Y-162985144D01*
X65920559Y-162985144D02*
X65891988Y-163042287D01*
X65891988Y-163042287D02*
X65863416Y-163070858D01*
X65863416Y-163070858D02*
X65806273Y-163099429D01*
X65806273Y-163099429D02*
X65749130Y-163099429D01*
X65749130Y-163099429D02*
X65691988Y-163070858D01*
X65691988Y-163070858D02*
X65663416Y-163042287D01*
X65663416Y-163042287D02*
X65634845Y-162985144D01*
X65634845Y-162985144D02*
X65606273Y-162870858D01*
X65606273Y-162870858D02*
X65577702Y-162813715D01*
X65577702Y-162813715D02*
X65549130Y-162785144D01*
X65549130Y-162785144D02*
X65491988Y-162756572D01*
X65491988Y-162756572D02*
X65434845Y-162756572D01*
X65434845Y-162756572D02*
X65377702Y-162785144D01*
X65377702Y-162785144D02*
X65349130Y-162813715D01*
X65349130Y-162813715D02*
X65320559Y-162870858D01*
X65320559Y-162870858D02*
X65320559Y-163013715D01*
X65320559Y-163013715D02*
X65349130Y-163099429D01*
X65920559Y-163356573D02*
X65320559Y-163356573D01*
X65320559Y-163356573D02*
X65320559Y-163499430D01*
X65320559Y-163499430D02*
X65349130Y-163585144D01*
X65349130Y-163585144D02*
X65406273Y-163642287D01*
X65406273Y-163642287D02*
X65463416Y-163670858D01*
X65463416Y-163670858D02*
X65577702Y-163699430D01*
X65577702Y-163699430D02*
X65663416Y-163699430D01*
X65663416Y-163699430D02*
X65777702Y-163670858D01*
X65777702Y-163670858D02*
X65834845Y-163642287D01*
X65834845Y-163642287D02*
X65891988Y-163585144D01*
X65891988Y-163585144D02*
X65920559Y-163499430D01*
X65920559Y-163499430D02*
X65920559Y-163356573D01*
X65749130Y-163928001D02*
X65749130Y-164213716D01*
X65920559Y-163870858D02*
X65320559Y-164070858D01*
X65320559Y-164070858D02*
X65920559Y-164270858D01*
X67113416Y-163128001D02*
X67141988Y-163099429D01*
X67141988Y-163099429D02*
X67170559Y-163013715D01*
X67170559Y-163013715D02*
X67170559Y-162956572D01*
X67170559Y-162956572D02*
X67141988Y-162870858D01*
X67141988Y-162870858D02*
X67084845Y-162813715D01*
X67084845Y-162813715D02*
X67027702Y-162785144D01*
X67027702Y-162785144D02*
X66913416Y-162756572D01*
X66913416Y-162756572D02*
X66827702Y-162756572D01*
X66827702Y-162756572D02*
X66713416Y-162785144D01*
X66713416Y-162785144D02*
X66656273Y-162813715D01*
X66656273Y-162813715D02*
X66599130Y-162870858D01*
X66599130Y-162870858D02*
X66570559Y-162956572D01*
X66570559Y-162956572D02*
X66570559Y-163013715D01*
X66570559Y-163013715D02*
X66599130Y-163099429D01*
X66599130Y-163099429D02*
X66627702Y-163128001D01*
X67141988Y-163356572D02*
X67170559Y-163442287D01*
X67170559Y-163442287D02*
X67170559Y-163585144D01*
X67170559Y-163585144D02*
X67141988Y-163642287D01*
X67141988Y-163642287D02*
X67113416Y-163670858D01*
X67113416Y-163670858D02*
X67056273Y-163699429D01*
X67056273Y-163699429D02*
X66999130Y-163699429D01*
X66999130Y-163699429D02*
X66941988Y-163670858D01*
X66941988Y-163670858D02*
X66913416Y-163642287D01*
X66913416Y-163642287D02*
X66884845Y-163585144D01*
X66884845Y-163585144D02*
X66856273Y-163470858D01*
X66856273Y-163470858D02*
X66827702Y-163413715D01*
X66827702Y-163413715D02*
X66799130Y-163385144D01*
X66799130Y-163385144D02*
X66741988Y-163356572D01*
X66741988Y-163356572D02*
X66684845Y-163356572D01*
X66684845Y-163356572D02*
X66627702Y-163385144D01*
X66627702Y-163385144D02*
X66599130Y-163413715D01*
X66599130Y-163413715D02*
X66570559Y-163470858D01*
X66570559Y-163470858D02*
X66570559Y-163613715D01*
X66570559Y-163613715D02*
X66599130Y-163699429D01*
X67820559Y-162699429D02*
X67820559Y-163042287D01*
X68420559Y-162870858D02*
X67820559Y-162870858D01*
X68420559Y-163242287D02*
X67820559Y-163242287D01*
X67820559Y-163242287D02*
X67820559Y-163470858D01*
X67820559Y-163470858D02*
X67849130Y-163528001D01*
X67849130Y-163528001D02*
X67877702Y-163556572D01*
X67877702Y-163556572D02*
X67934845Y-163585144D01*
X67934845Y-163585144D02*
X68020559Y-163585144D01*
X68020559Y-163585144D02*
X68077702Y-163556572D01*
X68077702Y-163556572D02*
X68106273Y-163528001D01*
X68106273Y-163528001D02*
X68134845Y-163470858D01*
X68134845Y-163470858D02*
X68134845Y-163242287D01*
X68191988Y-163842287D02*
X68191988Y-164299430D01*
X68391988Y-164556572D02*
X68420559Y-164642287D01*
X68420559Y-164642287D02*
X68420559Y-164785144D01*
X68420559Y-164785144D02*
X68391988Y-164842287D01*
X68391988Y-164842287D02*
X68363416Y-164870858D01*
X68363416Y-164870858D02*
X68306273Y-164899429D01*
X68306273Y-164899429D02*
X68249130Y-164899429D01*
X68249130Y-164899429D02*
X68191988Y-164870858D01*
X68191988Y-164870858D02*
X68163416Y-164842287D01*
X68163416Y-164842287D02*
X68134845Y-164785144D01*
X68134845Y-164785144D02*
X68106273Y-164670858D01*
X68106273Y-164670858D02*
X68077702Y-164613715D01*
X68077702Y-164613715D02*
X68049130Y-164585144D01*
X68049130Y-164585144D02*
X67991988Y-164556572D01*
X67991988Y-164556572D02*
X67934845Y-164556572D01*
X67934845Y-164556572D02*
X67877702Y-164585144D01*
X67877702Y-164585144D02*
X67849130Y-164613715D01*
X67849130Y-164613715D02*
X67820559Y-164670858D01*
X67820559Y-164670858D02*
X67820559Y-164813715D01*
X67820559Y-164813715D02*
X67849130Y-164899429D01*
X68363416Y-165499430D02*
X68391988Y-165470858D01*
X68391988Y-165470858D02*
X68420559Y-165385144D01*
X68420559Y-165385144D02*
X68420559Y-165328001D01*
X68420559Y-165328001D02*
X68391988Y-165242287D01*
X68391988Y-165242287D02*
X68334845Y-165185144D01*
X68334845Y-165185144D02*
X68277702Y-165156573D01*
X68277702Y-165156573D02*
X68163416Y-165128001D01*
X68163416Y-165128001D02*
X68077702Y-165128001D01*
X68077702Y-165128001D02*
X67963416Y-165156573D01*
X67963416Y-165156573D02*
X67906273Y-165185144D01*
X67906273Y-165185144D02*
X67849130Y-165242287D01*
X67849130Y-165242287D02*
X67820559Y-165328001D01*
X67820559Y-165328001D02*
X67820559Y-165385144D01*
X67820559Y-165385144D02*
X67849130Y-165470858D01*
X67849130Y-165470858D02*
X67877702Y-165499430D01*
X68420559Y-166042287D02*
X68420559Y-165756573D01*
X68420559Y-165756573D02*
X67820559Y-165756573D01*
X69070559Y-162699429D02*
X69070559Y-163042287D01*
X69670559Y-162870858D02*
X69070559Y-162870858D01*
X69670559Y-163242287D02*
X69070559Y-163242287D01*
X69070559Y-163242287D02*
X69070559Y-163470858D01*
X69070559Y-163470858D02*
X69099130Y-163528001D01*
X69099130Y-163528001D02*
X69127702Y-163556572D01*
X69127702Y-163556572D02*
X69184845Y-163585144D01*
X69184845Y-163585144D02*
X69270559Y-163585144D01*
X69270559Y-163585144D02*
X69327702Y-163556572D01*
X69327702Y-163556572D02*
X69356273Y-163528001D01*
X69356273Y-163528001D02*
X69384845Y-163470858D01*
X69384845Y-163470858D02*
X69384845Y-163242287D01*
X69441988Y-163842287D02*
X69441988Y-164299430D01*
X69070559Y-164499429D02*
X69070559Y-164842287D01*
X69670559Y-164670858D02*
X69070559Y-164670858D01*
X69670559Y-165385144D02*
X69384845Y-165185144D01*
X69670559Y-165042287D02*
X69070559Y-165042287D01*
X69070559Y-165042287D02*
X69070559Y-165270858D01*
X69070559Y-165270858D02*
X69099130Y-165328001D01*
X69099130Y-165328001D02*
X69127702Y-165356572D01*
X69127702Y-165356572D02*
X69184845Y-165385144D01*
X69184845Y-165385144D02*
X69270559Y-165385144D01*
X69270559Y-165385144D02*
X69327702Y-165356572D01*
X69327702Y-165356572D02*
X69356273Y-165328001D01*
X69356273Y-165328001D02*
X69384845Y-165270858D01*
X69384845Y-165270858D02*
X69384845Y-165042287D01*
X69641988Y-165613715D02*
X69670559Y-165699430D01*
X69670559Y-165699430D02*
X69670559Y-165842287D01*
X69670559Y-165842287D02*
X69641988Y-165899430D01*
X69641988Y-165899430D02*
X69613416Y-165928001D01*
X69613416Y-165928001D02*
X69556273Y-165956572D01*
X69556273Y-165956572D02*
X69499130Y-165956572D01*
X69499130Y-165956572D02*
X69441988Y-165928001D01*
X69441988Y-165928001D02*
X69413416Y-165899430D01*
X69413416Y-165899430D02*
X69384845Y-165842287D01*
X69384845Y-165842287D02*
X69356273Y-165728001D01*
X69356273Y-165728001D02*
X69327702Y-165670858D01*
X69327702Y-165670858D02*
X69299130Y-165642287D01*
X69299130Y-165642287D02*
X69241988Y-165613715D01*
X69241988Y-165613715D02*
X69184845Y-165613715D01*
X69184845Y-165613715D02*
X69127702Y-165642287D01*
X69127702Y-165642287D02*
X69099130Y-165670858D01*
X69099130Y-165670858D02*
X69070559Y-165728001D01*
X69070559Y-165728001D02*
X69070559Y-165870858D01*
X69070559Y-165870858D02*
X69099130Y-165956572D01*
X69070559Y-166128001D02*
X69070559Y-166470859D01*
X69670559Y-166299430D02*
X69070559Y-166299430D01*
X56670607Y-146373333D02*
X56670607Y-145801905D01*
X56670607Y-146087619D02*
X55670607Y-146087619D01*
X55670607Y-146087619D02*
X55813464Y-145992381D01*
X55813464Y-145992381D02*
X55908702Y-145897143D01*
X55908702Y-145897143D02*
X55956321Y-145801905D01*
X55670607Y-146992381D02*
X55670607Y-147087619D01*
X55670607Y-147087619D02*
X55718226Y-147182857D01*
X55718226Y-147182857D02*
X55765845Y-147230476D01*
X55765845Y-147230476D02*
X55861083Y-147278095D01*
X55861083Y-147278095D02*
X56051559Y-147325714D01*
X56051559Y-147325714D02*
X56289654Y-147325714D01*
X56289654Y-147325714D02*
X56480130Y-147278095D01*
X56480130Y-147278095D02*
X56575368Y-147230476D01*
X56575368Y-147230476D02*
X56622988Y-147182857D01*
X56622988Y-147182857D02*
X56670607Y-147087619D01*
X56670607Y-147087619D02*
X56670607Y-146992381D01*
X56670607Y-146992381D02*
X56622988Y-146897143D01*
X56622988Y-146897143D02*
X56575368Y-146849524D01*
X56575368Y-146849524D02*
X56480130Y-146801905D01*
X56480130Y-146801905D02*
X56289654Y-146754286D01*
X56289654Y-146754286D02*
X56051559Y-146754286D01*
X56051559Y-146754286D02*
X55861083Y-146801905D01*
X55861083Y-146801905D02*
X55765845Y-146849524D01*
X55765845Y-146849524D02*
X55718226Y-146897143D01*
X55718226Y-146897143D02*
X55670607Y-146992381D01*
X55670607Y-148182857D02*
X55670607Y-147992381D01*
X55670607Y-147992381D02*
X55718226Y-147897143D01*
X55718226Y-147897143D02*
X55765845Y-147849524D01*
X55765845Y-147849524D02*
X55908702Y-147754286D01*
X55908702Y-147754286D02*
X56099178Y-147706667D01*
X56099178Y-147706667D02*
X56480130Y-147706667D01*
X56480130Y-147706667D02*
X56575368Y-147754286D01*
X56575368Y-147754286D02*
X56622988Y-147801905D01*
X56622988Y-147801905D02*
X56670607Y-147897143D01*
X56670607Y-147897143D02*
X56670607Y-148087619D01*
X56670607Y-148087619D02*
X56622988Y-148182857D01*
X56622988Y-148182857D02*
X56575368Y-148230476D01*
X56575368Y-148230476D02*
X56480130Y-148278095D01*
X56480130Y-148278095D02*
X56242035Y-148278095D01*
X56242035Y-148278095D02*
X56146797Y-148230476D01*
X56146797Y-148230476D02*
X56099178Y-148182857D01*
X56099178Y-148182857D02*
X56051559Y-148087619D01*
X56051559Y-148087619D02*
X56051559Y-147897143D01*
X56051559Y-147897143D02*
X56099178Y-147801905D01*
X56099178Y-147801905D02*
X56146797Y-147754286D01*
X56146797Y-147754286D02*
X56242035Y-147706667D01*
X145834120Y-134134819D02*
X145215073Y-134134819D01*
X145215073Y-134134819D02*
X145548406Y-134515771D01*
X145548406Y-134515771D02*
X145405549Y-134515771D01*
X145405549Y-134515771D02*
X145310311Y-134563390D01*
X145310311Y-134563390D02*
X145262692Y-134611009D01*
X145262692Y-134611009D02*
X145215073Y-134706247D01*
X145215073Y-134706247D02*
X145215073Y-134944342D01*
X145215073Y-134944342D02*
X145262692Y-135039580D01*
X145262692Y-135039580D02*
X145310311Y-135087200D01*
X145310311Y-135087200D02*
X145405549Y-135134819D01*
X145405549Y-135134819D02*
X145691263Y-135134819D01*
X145691263Y-135134819D02*
X145786501Y-135087200D01*
X145786501Y-135087200D02*
X145834120Y-135039580D01*
X155989120Y-134124819D02*
X155322454Y-134124819D01*
X155322454Y-134124819D02*
X155751025Y-135124819D01*
X143246501Y-134230057D02*
X143198882Y-134182438D01*
X143198882Y-134182438D02*
X143103644Y-134134819D01*
X143103644Y-134134819D02*
X142865549Y-134134819D01*
X142865549Y-134134819D02*
X142770311Y-134182438D01*
X142770311Y-134182438D02*
X142722692Y-134230057D01*
X142722692Y-134230057D02*
X142675073Y-134325295D01*
X142675073Y-134325295D02*
X142675073Y-134420533D01*
X142675073Y-134420533D02*
X142722692Y-134563390D01*
X142722692Y-134563390D02*
X143294120Y-135134819D01*
X143294120Y-135134819D02*
X142675073Y-135134819D01*
X150362692Y-134129243D02*
X150838882Y-134129243D01*
X150838882Y-134129243D02*
X150886501Y-134605433D01*
X150886501Y-134605433D02*
X150838882Y-134557814D01*
X150838882Y-134557814D02*
X150743644Y-134510195D01*
X150743644Y-134510195D02*
X150505549Y-134510195D01*
X150505549Y-134510195D02*
X150410311Y-134557814D01*
X150410311Y-134557814D02*
X150362692Y-134605433D01*
X150362692Y-134605433D02*
X150315073Y-134700671D01*
X150315073Y-134700671D02*
X150315073Y-134938766D01*
X150315073Y-134938766D02*
X150362692Y-135034004D01*
X150362692Y-135034004D02*
X150410311Y-135081624D01*
X150410311Y-135081624D02*
X150505549Y-135129243D01*
X150505549Y-135129243D02*
X150743644Y-135129243D01*
X150743644Y-135129243D02*
X150838882Y-135081624D01*
X150838882Y-135081624D02*
X150886501Y-135034004D01*
X140135073Y-135134819D02*
X140706501Y-135134819D01*
X140420787Y-135134819D02*
X140420787Y-134134819D01*
X140420787Y-134134819D02*
X140516025Y-134277676D01*
X140516025Y-134277676D02*
X140611263Y-134372914D01*
X140611263Y-134372914D02*
X140706501Y-134420533D01*
X152950311Y-134129243D02*
X153140787Y-134129243D01*
X153140787Y-134129243D02*
X153236025Y-134176862D01*
X153236025Y-134176862D02*
X153283644Y-134224481D01*
X153283644Y-134224481D02*
X153378882Y-134367338D01*
X153378882Y-134367338D02*
X153426501Y-134557814D01*
X153426501Y-134557814D02*
X153426501Y-134938766D01*
X153426501Y-134938766D02*
X153378882Y-135034004D01*
X153378882Y-135034004D02*
X153331263Y-135081624D01*
X153331263Y-135081624D02*
X153236025Y-135129243D01*
X153236025Y-135129243D02*
X153045549Y-135129243D01*
X153045549Y-135129243D02*
X152950311Y-135081624D01*
X152950311Y-135081624D02*
X152902692Y-135034004D01*
X152902692Y-135034004D02*
X152855073Y-134938766D01*
X152855073Y-134938766D02*
X152855073Y-134700671D01*
X152855073Y-134700671D02*
X152902692Y-134605433D01*
X152902692Y-134605433D02*
X152950311Y-134557814D01*
X152950311Y-134557814D02*
X153045549Y-134510195D01*
X153045549Y-134510195D02*
X153236025Y-134510195D01*
X153236025Y-134510195D02*
X153331263Y-134557814D01*
X153331263Y-134557814D02*
X153378882Y-134605433D01*
X153378882Y-134605433D02*
X153426501Y-134700671D01*
X147850311Y-134468152D02*
X147850311Y-135134819D01*
X148088406Y-134087200D02*
X148326501Y-134801485D01*
X148326501Y-134801485D02*
X147707454Y-134801485D01*
X140165559Y-156045714D02*
X140165559Y-156160000D01*
X140165559Y-156160000D02*
X140194130Y-156217143D01*
X140194130Y-156217143D02*
X140251273Y-156274286D01*
X140251273Y-156274286D02*
X140365559Y-156302857D01*
X140365559Y-156302857D02*
X140565559Y-156302857D01*
X140565559Y-156302857D02*
X140679845Y-156274286D01*
X140679845Y-156274286D02*
X140736988Y-156217143D01*
X140736988Y-156217143D02*
X140765559Y-156160000D01*
X140765559Y-156160000D02*
X140765559Y-156045714D01*
X140765559Y-156045714D02*
X140736988Y-155988572D01*
X140736988Y-155988572D02*
X140679845Y-155931429D01*
X140679845Y-155931429D02*
X140565559Y-155902857D01*
X140565559Y-155902857D02*
X140365559Y-155902857D01*
X140365559Y-155902857D02*
X140251273Y-155931429D01*
X140251273Y-155931429D02*
X140194130Y-155988572D01*
X140194130Y-155988572D02*
X140165559Y-156045714D01*
X140165559Y-156560000D02*
X140651273Y-156560000D01*
X140651273Y-156560000D02*
X140708416Y-156588571D01*
X140708416Y-156588571D02*
X140736988Y-156617143D01*
X140736988Y-156617143D02*
X140765559Y-156674285D01*
X140765559Y-156674285D02*
X140765559Y-156788571D01*
X140765559Y-156788571D02*
X140736988Y-156845714D01*
X140736988Y-156845714D02*
X140708416Y-156874285D01*
X140708416Y-156874285D02*
X140651273Y-156902857D01*
X140651273Y-156902857D02*
X140165559Y-156902857D01*
X140165559Y-157102856D02*
X140165559Y-157445714D01*
X140765559Y-157274285D02*
X140165559Y-157274285D01*
X140165559Y-158360000D02*
X140165559Y-158245714D01*
X140165559Y-158245714D02*
X140194130Y-158188571D01*
X140194130Y-158188571D02*
X140222702Y-158160000D01*
X140222702Y-158160000D02*
X140308416Y-158102857D01*
X140308416Y-158102857D02*
X140422702Y-158074285D01*
X140422702Y-158074285D02*
X140651273Y-158074285D01*
X140651273Y-158074285D02*
X140708416Y-158102857D01*
X140708416Y-158102857D02*
X140736988Y-158131428D01*
X140736988Y-158131428D02*
X140765559Y-158188571D01*
X140765559Y-158188571D02*
X140765559Y-158302857D01*
X140765559Y-158302857D02*
X140736988Y-158360000D01*
X140736988Y-158360000D02*
X140708416Y-158388571D01*
X140708416Y-158388571D02*
X140651273Y-158417142D01*
X140651273Y-158417142D02*
X140508416Y-158417142D01*
X140508416Y-158417142D02*
X140451273Y-158388571D01*
X140451273Y-158388571D02*
X140422702Y-158360000D01*
X140422702Y-158360000D02*
X140394130Y-158302857D01*
X140394130Y-158302857D02*
X140394130Y-158188571D01*
X140394130Y-158188571D02*
X140422702Y-158131428D01*
X140422702Y-158131428D02*
X140451273Y-158102857D01*
X140451273Y-158102857D02*
X140508416Y-158074285D01*
X141415559Y-156045714D02*
X141415559Y-156160000D01*
X141415559Y-156160000D02*
X141444130Y-156217143D01*
X141444130Y-156217143D02*
X141501273Y-156274286D01*
X141501273Y-156274286D02*
X141615559Y-156302857D01*
X141615559Y-156302857D02*
X141815559Y-156302857D01*
X141815559Y-156302857D02*
X141929845Y-156274286D01*
X141929845Y-156274286D02*
X141986988Y-156217143D01*
X141986988Y-156217143D02*
X142015559Y-156160000D01*
X142015559Y-156160000D02*
X142015559Y-156045714D01*
X142015559Y-156045714D02*
X141986988Y-155988572D01*
X141986988Y-155988572D02*
X141929845Y-155931429D01*
X141929845Y-155931429D02*
X141815559Y-155902857D01*
X141815559Y-155902857D02*
X141615559Y-155902857D01*
X141615559Y-155902857D02*
X141501273Y-155931429D01*
X141501273Y-155931429D02*
X141444130Y-155988572D01*
X141444130Y-155988572D02*
X141415559Y-156045714D01*
X141415559Y-156560000D02*
X141901273Y-156560000D01*
X141901273Y-156560000D02*
X141958416Y-156588571D01*
X141958416Y-156588571D02*
X141986988Y-156617143D01*
X141986988Y-156617143D02*
X142015559Y-156674285D01*
X142015559Y-156674285D02*
X142015559Y-156788571D01*
X142015559Y-156788571D02*
X141986988Y-156845714D01*
X141986988Y-156845714D02*
X141958416Y-156874285D01*
X141958416Y-156874285D02*
X141901273Y-156902857D01*
X141901273Y-156902857D02*
X141415559Y-156902857D01*
X141415559Y-157102856D02*
X141415559Y-157445714D01*
X142015559Y-157274285D02*
X141415559Y-157274285D01*
X141415559Y-158388571D02*
X141415559Y-158102857D01*
X141415559Y-158102857D02*
X141701273Y-158074285D01*
X141701273Y-158074285D02*
X141672702Y-158102857D01*
X141672702Y-158102857D02*
X141644130Y-158160000D01*
X141644130Y-158160000D02*
X141644130Y-158302857D01*
X141644130Y-158302857D02*
X141672702Y-158360000D01*
X141672702Y-158360000D02*
X141701273Y-158388571D01*
X141701273Y-158388571D02*
X141758416Y-158417142D01*
X141758416Y-158417142D02*
X141901273Y-158417142D01*
X141901273Y-158417142D02*
X141958416Y-158388571D01*
X141958416Y-158388571D02*
X141986988Y-158360000D01*
X141986988Y-158360000D02*
X142015559Y-158302857D01*
X142015559Y-158302857D02*
X142015559Y-158160000D01*
X142015559Y-158160000D02*
X141986988Y-158102857D01*
X141986988Y-158102857D02*
X141958416Y-158074285D01*
X143915559Y-156045714D02*
X143915559Y-156160000D01*
X143915559Y-156160000D02*
X143944130Y-156217143D01*
X143944130Y-156217143D02*
X144001273Y-156274286D01*
X144001273Y-156274286D02*
X144115559Y-156302857D01*
X144115559Y-156302857D02*
X144315559Y-156302857D01*
X144315559Y-156302857D02*
X144429845Y-156274286D01*
X144429845Y-156274286D02*
X144486988Y-156217143D01*
X144486988Y-156217143D02*
X144515559Y-156160000D01*
X144515559Y-156160000D02*
X144515559Y-156045714D01*
X144515559Y-156045714D02*
X144486988Y-155988572D01*
X144486988Y-155988572D02*
X144429845Y-155931429D01*
X144429845Y-155931429D02*
X144315559Y-155902857D01*
X144315559Y-155902857D02*
X144115559Y-155902857D01*
X144115559Y-155902857D02*
X144001273Y-155931429D01*
X144001273Y-155931429D02*
X143944130Y-155988572D01*
X143944130Y-155988572D02*
X143915559Y-156045714D01*
X143915559Y-156560000D02*
X144401273Y-156560000D01*
X144401273Y-156560000D02*
X144458416Y-156588571D01*
X144458416Y-156588571D02*
X144486988Y-156617143D01*
X144486988Y-156617143D02*
X144515559Y-156674285D01*
X144515559Y-156674285D02*
X144515559Y-156788571D01*
X144515559Y-156788571D02*
X144486988Y-156845714D01*
X144486988Y-156845714D02*
X144458416Y-156874285D01*
X144458416Y-156874285D02*
X144401273Y-156902857D01*
X144401273Y-156902857D02*
X143915559Y-156902857D01*
X143915559Y-157102856D02*
X143915559Y-157445714D01*
X144515559Y-157274285D02*
X143915559Y-157274285D01*
X143915559Y-158045714D02*
X143915559Y-158417142D01*
X143915559Y-158417142D02*
X144144130Y-158217142D01*
X144144130Y-158217142D02*
X144144130Y-158302857D01*
X144144130Y-158302857D02*
X144172702Y-158360000D01*
X144172702Y-158360000D02*
X144201273Y-158388571D01*
X144201273Y-158388571D02*
X144258416Y-158417142D01*
X144258416Y-158417142D02*
X144401273Y-158417142D01*
X144401273Y-158417142D02*
X144458416Y-158388571D01*
X144458416Y-158388571D02*
X144486988Y-158360000D01*
X144486988Y-158360000D02*
X144515559Y-158302857D01*
X144515559Y-158302857D02*
X144515559Y-158131428D01*
X144515559Y-158131428D02*
X144486988Y-158074285D01*
X144486988Y-158074285D02*
X144458416Y-158045714D01*
X142665559Y-156045714D02*
X142665559Y-156160000D01*
X142665559Y-156160000D02*
X142694130Y-156217143D01*
X142694130Y-156217143D02*
X142751273Y-156274286D01*
X142751273Y-156274286D02*
X142865559Y-156302857D01*
X142865559Y-156302857D02*
X143065559Y-156302857D01*
X143065559Y-156302857D02*
X143179845Y-156274286D01*
X143179845Y-156274286D02*
X143236988Y-156217143D01*
X143236988Y-156217143D02*
X143265559Y-156160000D01*
X143265559Y-156160000D02*
X143265559Y-156045714D01*
X143265559Y-156045714D02*
X143236988Y-155988572D01*
X143236988Y-155988572D02*
X143179845Y-155931429D01*
X143179845Y-155931429D02*
X143065559Y-155902857D01*
X143065559Y-155902857D02*
X142865559Y-155902857D01*
X142865559Y-155902857D02*
X142751273Y-155931429D01*
X142751273Y-155931429D02*
X142694130Y-155988572D01*
X142694130Y-155988572D02*
X142665559Y-156045714D01*
X142665559Y-156560000D02*
X143151273Y-156560000D01*
X143151273Y-156560000D02*
X143208416Y-156588571D01*
X143208416Y-156588571D02*
X143236988Y-156617143D01*
X143236988Y-156617143D02*
X143265559Y-156674285D01*
X143265559Y-156674285D02*
X143265559Y-156788571D01*
X143265559Y-156788571D02*
X143236988Y-156845714D01*
X143236988Y-156845714D02*
X143208416Y-156874285D01*
X143208416Y-156874285D02*
X143151273Y-156902857D01*
X143151273Y-156902857D02*
X142665559Y-156902857D01*
X142665559Y-157102856D02*
X142665559Y-157445714D01*
X143265559Y-157274285D02*
X142665559Y-157274285D01*
X142865559Y-158360000D02*
X143265559Y-158360000D01*
X142636988Y-158217142D02*
X143065559Y-158074285D01*
X143065559Y-158074285D02*
X143065559Y-158445714D01*
X145165559Y-156045714D02*
X145165559Y-156160000D01*
X145165559Y-156160000D02*
X145194130Y-156217143D01*
X145194130Y-156217143D02*
X145251273Y-156274286D01*
X145251273Y-156274286D02*
X145365559Y-156302857D01*
X145365559Y-156302857D02*
X145565559Y-156302857D01*
X145565559Y-156302857D02*
X145679845Y-156274286D01*
X145679845Y-156274286D02*
X145736988Y-156217143D01*
X145736988Y-156217143D02*
X145765559Y-156160000D01*
X145765559Y-156160000D02*
X145765559Y-156045714D01*
X145765559Y-156045714D02*
X145736988Y-155988572D01*
X145736988Y-155988572D02*
X145679845Y-155931429D01*
X145679845Y-155931429D02*
X145565559Y-155902857D01*
X145565559Y-155902857D02*
X145365559Y-155902857D01*
X145365559Y-155902857D02*
X145251273Y-155931429D01*
X145251273Y-155931429D02*
X145194130Y-155988572D01*
X145194130Y-155988572D02*
X145165559Y-156045714D01*
X145165559Y-156560000D02*
X145651273Y-156560000D01*
X145651273Y-156560000D02*
X145708416Y-156588571D01*
X145708416Y-156588571D02*
X145736988Y-156617143D01*
X145736988Y-156617143D02*
X145765559Y-156674285D01*
X145765559Y-156674285D02*
X145765559Y-156788571D01*
X145765559Y-156788571D02*
X145736988Y-156845714D01*
X145736988Y-156845714D02*
X145708416Y-156874285D01*
X145708416Y-156874285D02*
X145651273Y-156902857D01*
X145651273Y-156902857D02*
X145165559Y-156902857D01*
X145165559Y-157102856D02*
X145165559Y-157445714D01*
X145765559Y-157274285D02*
X145165559Y-157274285D01*
X145222702Y-158074285D02*
X145194130Y-158102857D01*
X145194130Y-158102857D02*
X145165559Y-158160000D01*
X145165559Y-158160000D02*
X145165559Y-158302857D01*
X145165559Y-158302857D02*
X145194130Y-158360000D01*
X145194130Y-158360000D02*
X145222702Y-158388571D01*
X145222702Y-158388571D02*
X145279845Y-158417142D01*
X145279845Y-158417142D02*
X145336988Y-158417142D01*
X145336988Y-158417142D02*
X145422702Y-158388571D01*
X145422702Y-158388571D02*
X145765559Y-158045714D01*
X145765559Y-158045714D02*
X145765559Y-158417142D01*
X146415559Y-156045714D02*
X146415559Y-156160000D01*
X146415559Y-156160000D02*
X146444130Y-156217143D01*
X146444130Y-156217143D02*
X146501273Y-156274286D01*
X146501273Y-156274286D02*
X146615559Y-156302857D01*
X146615559Y-156302857D02*
X146815559Y-156302857D01*
X146815559Y-156302857D02*
X146929845Y-156274286D01*
X146929845Y-156274286D02*
X146986988Y-156217143D01*
X146986988Y-156217143D02*
X147015559Y-156160000D01*
X147015559Y-156160000D02*
X147015559Y-156045714D01*
X147015559Y-156045714D02*
X146986988Y-155988572D01*
X146986988Y-155988572D02*
X146929845Y-155931429D01*
X146929845Y-155931429D02*
X146815559Y-155902857D01*
X146815559Y-155902857D02*
X146615559Y-155902857D01*
X146615559Y-155902857D02*
X146501273Y-155931429D01*
X146501273Y-155931429D02*
X146444130Y-155988572D01*
X146444130Y-155988572D02*
X146415559Y-156045714D01*
X146415559Y-156560000D02*
X146901273Y-156560000D01*
X146901273Y-156560000D02*
X146958416Y-156588571D01*
X146958416Y-156588571D02*
X146986988Y-156617143D01*
X146986988Y-156617143D02*
X147015559Y-156674285D01*
X147015559Y-156674285D02*
X147015559Y-156788571D01*
X147015559Y-156788571D02*
X146986988Y-156845714D01*
X146986988Y-156845714D02*
X146958416Y-156874285D01*
X146958416Y-156874285D02*
X146901273Y-156902857D01*
X146901273Y-156902857D02*
X146415559Y-156902857D01*
X146415559Y-157102856D02*
X146415559Y-157445714D01*
X147015559Y-157274285D02*
X146415559Y-157274285D01*
X147015559Y-158417142D02*
X147015559Y-158074285D01*
X147015559Y-158245714D02*
X146415559Y-158245714D01*
X146415559Y-158245714D02*
X146501273Y-158188571D01*
X146501273Y-158188571D02*
X146558416Y-158131428D01*
X146558416Y-158131428D02*
X146586988Y-158074285D01*
X49565559Y-162660857D02*
X49565559Y-163003715D01*
X50165559Y-162832286D02*
X49565559Y-162832286D01*
X50165559Y-163203715D02*
X49565559Y-163203715D01*
X49565559Y-163203715D02*
X49565559Y-163432286D01*
X49565559Y-163432286D02*
X49594130Y-163489429D01*
X49594130Y-163489429D02*
X49622702Y-163518000D01*
X49622702Y-163518000D02*
X49679845Y-163546572D01*
X49679845Y-163546572D02*
X49765559Y-163546572D01*
X49765559Y-163546572D02*
X49822702Y-163518000D01*
X49822702Y-163518000D02*
X49851273Y-163489429D01*
X49851273Y-163489429D02*
X49879845Y-163432286D01*
X49879845Y-163432286D02*
X49879845Y-163203715D01*
X49936988Y-163803715D02*
X49936988Y-164260858D01*
X49565559Y-164460857D02*
X49565559Y-164803715D01*
X50165559Y-164632286D02*
X49565559Y-164632286D01*
X50165559Y-165003715D02*
X49565559Y-165003715D01*
X50165559Y-165289429D02*
X49565559Y-165289429D01*
X49565559Y-165289429D02*
X50165559Y-165632286D01*
X50165559Y-165632286D02*
X49565559Y-165632286D01*
X49565559Y-165832285D02*
X49565559Y-166175143D01*
X50165559Y-166003714D02*
X49565559Y-166003714D01*
X51415559Y-163166571D02*
X51129845Y-162966571D01*
X51415559Y-162823714D02*
X50815559Y-162823714D01*
X50815559Y-162823714D02*
X50815559Y-163052285D01*
X50815559Y-163052285D02*
X50844130Y-163109428D01*
X50844130Y-163109428D02*
X50872702Y-163137999D01*
X50872702Y-163137999D02*
X50929845Y-163166571D01*
X50929845Y-163166571D02*
X51015559Y-163166571D01*
X51015559Y-163166571D02*
X51072702Y-163137999D01*
X51072702Y-163137999D02*
X51101273Y-163109428D01*
X51101273Y-163109428D02*
X51129845Y-163052285D01*
X51129845Y-163052285D02*
X51129845Y-162823714D01*
X51101273Y-163423714D02*
X51101273Y-163623714D01*
X51415559Y-163709428D02*
X51415559Y-163423714D01*
X51415559Y-163423714D02*
X50815559Y-163423714D01*
X50815559Y-163423714D02*
X50815559Y-163709428D01*
X51386988Y-163937999D02*
X51415559Y-164023714D01*
X51415559Y-164023714D02*
X51415559Y-164166571D01*
X51415559Y-164166571D02*
X51386988Y-164223714D01*
X51386988Y-164223714D02*
X51358416Y-164252285D01*
X51358416Y-164252285D02*
X51301273Y-164280856D01*
X51301273Y-164280856D02*
X51244130Y-164280856D01*
X51244130Y-164280856D02*
X51186988Y-164252285D01*
X51186988Y-164252285D02*
X51158416Y-164223714D01*
X51158416Y-164223714D02*
X51129845Y-164166571D01*
X51129845Y-164166571D02*
X51101273Y-164052285D01*
X51101273Y-164052285D02*
X51072702Y-163995142D01*
X51072702Y-163995142D02*
X51044130Y-163966571D01*
X51044130Y-163966571D02*
X50986988Y-163937999D01*
X50986988Y-163937999D02*
X50929845Y-163937999D01*
X50929845Y-163937999D02*
X50872702Y-163966571D01*
X50872702Y-163966571D02*
X50844130Y-163995142D01*
X50844130Y-163995142D02*
X50815559Y-164052285D01*
X50815559Y-164052285D02*
X50815559Y-164195142D01*
X50815559Y-164195142D02*
X50844130Y-164280856D01*
X51101273Y-164538000D02*
X51101273Y-164738000D01*
X51415559Y-164823714D02*
X51415559Y-164538000D01*
X51415559Y-164538000D02*
X50815559Y-164538000D01*
X50815559Y-164538000D02*
X50815559Y-164823714D01*
X50815559Y-164995142D02*
X50815559Y-165338000D01*
X51415559Y-165166571D02*
X50815559Y-165166571D01*
X52636988Y-162779714D02*
X52665559Y-162865429D01*
X52665559Y-162865429D02*
X52665559Y-163008286D01*
X52665559Y-163008286D02*
X52636988Y-163065429D01*
X52636988Y-163065429D02*
X52608416Y-163094000D01*
X52608416Y-163094000D02*
X52551273Y-163122571D01*
X52551273Y-163122571D02*
X52494130Y-163122571D01*
X52494130Y-163122571D02*
X52436988Y-163094000D01*
X52436988Y-163094000D02*
X52408416Y-163065429D01*
X52408416Y-163065429D02*
X52379845Y-163008286D01*
X52379845Y-163008286D02*
X52351273Y-162894000D01*
X52351273Y-162894000D02*
X52322702Y-162836857D01*
X52322702Y-162836857D02*
X52294130Y-162808286D01*
X52294130Y-162808286D02*
X52236988Y-162779714D01*
X52236988Y-162779714D02*
X52179845Y-162779714D01*
X52179845Y-162779714D02*
X52122702Y-162808286D01*
X52122702Y-162808286D02*
X52094130Y-162836857D01*
X52094130Y-162836857D02*
X52065559Y-162894000D01*
X52065559Y-162894000D02*
X52065559Y-163036857D01*
X52065559Y-163036857D02*
X52094130Y-163122571D01*
X52608416Y-163722572D02*
X52636988Y-163694000D01*
X52636988Y-163694000D02*
X52665559Y-163608286D01*
X52665559Y-163608286D02*
X52665559Y-163551143D01*
X52665559Y-163551143D02*
X52636988Y-163465429D01*
X52636988Y-163465429D02*
X52579845Y-163408286D01*
X52579845Y-163408286D02*
X52522702Y-163379715D01*
X52522702Y-163379715D02*
X52408416Y-163351143D01*
X52408416Y-163351143D02*
X52322702Y-163351143D01*
X52322702Y-163351143D02*
X52208416Y-163379715D01*
X52208416Y-163379715D02*
X52151273Y-163408286D01*
X52151273Y-163408286D02*
X52094130Y-163465429D01*
X52094130Y-163465429D02*
X52065559Y-163551143D01*
X52065559Y-163551143D02*
X52065559Y-163608286D01*
X52065559Y-163608286D02*
X52094130Y-163694000D01*
X52094130Y-163694000D02*
X52122702Y-163722572D01*
X52665559Y-164265429D02*
X52665559Y-163979715D01*
X52665559Y-163979715D02*
X52065559Y-163979715D01*
X53915559Y-162856572D02*
X53315559Y-162856572D01*
X53315559Y-162856572D02*
X53315559Y-162999429D01*
X53315559Y-162999429D02*
X53344130Y-163085143D01*
X53344130Y-163085143D02*
X53401273Y-163142286D01*
X53401273Y-163142286D02*
X53458416Y-163170857D01*
X53458416Y-163170857D02*
X53572702Y-163199429D01*
X53572702Y-163199429D02*
X53658416Y-163199429D01*
X53658416Y-163199429D02*
X53772702Y-163170857D01*
X53772702Y-163170857D02*
X53829845Y-163142286D01*
X53829845Y-163142286D02*
X53886988Y-163085143D01*
X53886988Y-163085143D02*
X53915559Y-162999429D01*
X53915559Y-162999429D02*
X53915559Y-162856572D01*
X53286988Y-163885143D02*
X54058416Y-163370857D01*
X53858416Y-164428000D02*
X53886988Y-164399428D01*
X53886988Y-164399428D02*
X53915559Y-164313714D01*
X53915559Y-164313714D02*
X53915559Y-164256571D01*
X53915559Y-164256571D02*
X53886988Y-164170857D01*
X53886988Y-164170857D02*
X53829845Y-164113714D01*
X53829845Y-164113714D02*
X53772702Y-164085143D01*
X53772702Y-164085143D02*
X53658416Y-164056571D01*
X53658416Y-164056571D02*
X53572702Y-164056571D01*
X53572702Y-164056571D02*
X53458416Y-164085143D01*
X53458416Y-164085143D02*
X53401273Y-164113714D01*
X53401273Y-164113714D02*
X53344130Y-164170857D01*
X53344130Y-164170857D02*
X53315559Y-164256571D01*
X53315559Y-164256571D02*
X53315559Y-164313714D01*
X53315559Y-164313714D02*
X53344130Y-164399428D01*
X53344130Y-164399428D02*
X53372702Y-164428000D01*
X54565559Y-162822285D02*
X54565559Y-163165143D01*
X55165559Y-162993714D02*
X54565559Y-162993714D01*
X55165559Y-163365143D02*
X54565559Y-163365143D01*
X54565559Y-163365143D02*
X54565559Y-163593714D01*
X54565559Y-163593714D02*
X54594130Y-163650857D01*
X54594130Y-163650857D02*
X54622702Y-163679428D01*
X54622702Y-163679428D02*
X54679845Y-163708000D01*
X54679845Y-163708000D02*
X54765559Y-163708000D01*
X54765559Y-163708000D02*
X54822702Y-163679428D01*
X54822702Y-163679428D02*
X54851273Y-163650857D01*
X54851273Y-163650857D02*
X54879845Y-163593714D01*
X54879845Y-163593714D02*
X54879845Y-163365143D01*
X54936988Y-163965143D02*
X54936988Y-164422286D01*
X55136988Y-164679428D02*
X55165559Y-164765143D01*
X55165559Y-164765143D02*
X55165559Y-164908000D01*
X55165559Y-164908000D02*
X55136988Y-164965143D01*
X55136988Y-164965143D02*
X55108416Y-164993714D01*
X55108416Y-164993714D02*
X55051273Y-165022285D01*
X55051273Y-165022285D02*
X54994130Y-165022285D01*
X54994130Y-165022285D02*
X54936988Y-164993714D01*
X54936988Y-164993714D02*
X54908416Y-164965143D01*
X54908416Y-164965143D02*
X54879845Y-164908000D01*
X54879845Y-164908000D02*
X54851273Y-164793714D01*
X54851273Y-164793714D02*
X54822702Y-164736571D01*
X54822702Y-164736571D02*
X54794130Y-164708000D01*
X54794130Y-164708000D02*
X54736988Y-164679428D01*
X54736988Y-164679428D02*
X54679845Y-164679428D01*
X54679845Y-164679428D02*
X54622702Y-164708000D01*
X54622702Y-164708000D02*
X54594130Y-164736571D01*
X54594130Y-164736571D02*
X54565559Y-164793714D01*
X54565559Y-164793714D02*
X54565559Y-164936571D01*
X54565559Y-164936571D02*
X54594130Y-165022285D01*
X55165559Y-165279429D02*
X54565559Y-165279429D01*
X54565559Y-165279429D02*
X54565559Y-165422286D01*
X54565559Y-165422286D02*
X54594130Y-165508000D01*
X54594130Y-165508000D02*
X54651273Y-165565143D01*
X54651273Y-165565143D02*
X54708416Y-165593714D01*
X54708416Y-165593714D02*
X54822702Y-165622286D01*
X54822702Y-165622286D02*
X54908416Y-165622286D01*
X54908416Y-165622286D02*
X55022702Y-165593714D01*
X55022702Y-165593714D02*
X55079845Y-165565143D01*
X55079845Y-165565143D02*
X55136988Y-165508000D01*
X55136988Y-165508000D02*
X55165559Y-165422286D01*
X55165559Y-165422286D02*
X55165559Y-165279429D01*
X54994130Y-165850857D02*
X54994130Y-166136572D01*
X55165559Y-165793714D02*
X54565559Y-165993714D01*
X54565559Y-165993714D02*
X55165559Y-166193714D01*
X56415559Y-163070857D02*
X56415559Y-162785143D01*
X56415559Y-162785143D02*
X55815559Y-162785143D01*
X56101273Y-163270857D02*
X56101273Y-163470857D01*
X56415559Y-163556571D02*
X56415559Y-163270857D01*
X56415559Y-163270857D02*
X55815559Y-163270857D01*
X55815559Y-163270857D02*
X55815559Y-163556571D01*
X56415559Y-163813714D02*
X55815559Y-163813714D01*
X55815559Y-163813714D02*
X55815559Y-163956571D01*
X55815559Y-163956571D02*
X55844130Y-164042285D01*
X55844130Y-164042285D02*
X55901273Y-164099428D01*
X55901273Y-164099428D02*
X55958416Y-164127999D01*
X55958416Y-164127999D02*
X56072702Y-164156571D01*
X56072702Y-164156571D02*
X56158416Y-164156571D01*
X56158416Y-164156571D02*
X56272702Y-164127999D01*
X56272702Y-164127999D02*
X56329845Y-164099428D01*
X56329845Y-164099428D02*
X56386988Y-164042285D01*
X56386988Y-164042285D02*
X56415559Y-163956571D01*
X56415559Y-163956571D02*
X56415559Y-163813714D01*
X56186988Y-164413714D02*
X56186988Y-164870857D01*
X56415559Y-165156571D02*
X55815559Y-165156571D01*
X56415559Y-165499428D02*
X56072702Y-165242285D01*
X55815559Y-165499428D02*
X56158416Y-165156571D01*
X153444130Y-156245714D02*
X153415559Y-156188572D01*
X153415559Y-156188572D02*
X153415559Y-156102857D01*
X153415559Y-156102857D02*
X153444130Y-156017143D01*
X153444130Y-156017143D02*
X153501273Y-155960000D01*
X153501273Y-155960000D02*
X153558416Y-155931429D01*
X153558416Y-155931429D02*
X153672702Y-155902857D01*
X153672702Y-155902857D02*
X153758416Y-155902857D01*
X153758416Y-155902857D02*
X153872702Y-155931429D01*
X153872702Y-155931429D02*
X153929845Y-155960000D01*
X153929845Y-155960000D02*
X153986988Y-156017143D01*
X153986988Y-156017143D02*
X154015559Y-156102857D01*
X154015559Y-156102857D02*
X154015559Y-156160000D01*
X154015559Y-156160000D02*
X153986988Y-156245714D01*
X153986988Y-156245714D02*
X153958416Y-156274286D01*
X153958416Y-156274286D02*
X153758416Y-156274286D01*
X153758416Y-156274286D02*
X153758416Y-156160000D01*
X154015559Y-156531429D02*
X153415559Y-156531429D01*
X153415559Y-156531429D02*
X154015559Y-156874286D01*
X154015559Y-156874286D02*
X153415559Y-156874286D01*
X154015559Y-157160000D02*
X153415559Y-157160000D01*
X153415559Y-157160000D02*
X153415559Y-157302857D01*
X153415559Y-157302857D02*
X153444130Y-157388571D01*
X153444130Y-157388571D02*
X153501273Y-157445714D01*
X153501273Y-157445714D02*
X153558416Y-157474285D01*
X153558416Y-157474285D02*
X153672702Y-157502857D01*
X153672702Y-157502857D02*
X153758416Y-157502857D01*
X153758416Y-157502857D02*
X153872702Y-157474285D01*
X153872702Y-157474285D02*
X153929845Y-157445714D01*
X153929845Y-157445714D02*
X153986988Y-157388571D01*
X153986988Y-157388571D02*
X154015559Y-157302857D01*
X154015559Y-157302857D02*
X154015559Y-157160000D01*
X155265559Y-155931428D02*
X154665559Y-155931428D01*
X154665559Y-155931428D02*
X155094130Y-156131428D01*
X155094130Y-156131428D02*
X154665559Y-156331428D01*
X154665559Y-156331428D02*
X155265559Y-156331428D01*
X155094130Y-156588570D02*
X155094130Y-156874285D01*
X155265559Y-156531427D02*
X154665559Y-156731427D01*
X154665559Y-156731427D02*
X155265559Y-156931427D01*
X155036988Y-157131428D02*
X155036988Y-157588571D01*
X155094130Y-157845713D02*
X155094130Y-158131428D01*
X155265559Y-157788570D02*
X154665559Y-157988570D01*
X154665559Y-157988570D02*
X155265559Y-158188570D01*
X154665559Y-158388571D02*
X155151273Y-158388571D01*
X155151273Y-158388571D02*
X155208416Y-158417142D01*
X155208416Y-158417142D02*
X155236988Y-158445714D01*
X155236988Y-158445714D02*
X155265559Y-158502856D01*
X155265559Y-158502856D02*
X155265559Y-158617142D01*
X155265559Y-158617142D02*
X155236988Y-158674285D01*
X155236988Y-158674285D02*
X155208416Y-158702856D01*
X155208416Y-158702856D02*
X155151273Y-158731428D01*
X155151273Y-158731428D02*
X154665559Y-158731428D01*
X154665559Y-158931427D02*
X154665559Y-159274285D01*
X155265559Y-159102856D02*
X154665559Y-159102856D01*
X154665559Y-159588570D02*
X154665559Y-159702856D01*
X154665559Y-159702856D02*
X154694130Y-159759999D01*
X154694130Y-159759999D02*
X154751273Y-159817142D01*
X154751273Y-159817142D02*
X154865559Y-159845713D01*
X154865559Y-159845713D02*
X155065559Y-159845713D01*
X155065559Y-159845713D02*
X155179845Y-159817142D01*
X155179845Y-159817142D02*
X155236988Y-159759999D01*
X155236988Y-159759999D02*
X155265559Y-159702856D01*
X155265559Y-159702856D02*
X155265559Y-159588570D01*
X155265559Y-159588570D02*
X155236988Y-159531428D01*
X155236988Y-159531428D02*
X155179845Y-159474285D01*
X155179845Y-159474285D02*
X155065559Y-159445713D01*
X155065559Y-159445713D02*
X154865559Y-159445713D01*
X154865559Y-159445713D02*
X154751273Y-159474285D01*
X154751273Y-159474285D02*
X154694130Y-159531428D01*
X154694130Y-159531428D02*
X154665559Y-159588570D01*
X155036988Y-160102856D02*
X155036988Y-160559999D01*
X155265559Y-160845713D02*
X154665559Y-160845713D01*
X155265559Y-161131427D02*
X154665559Y-161131427D01*
X154665559Y-161131427D02*
X155265559Y-161474284D01*
X155265559Y-161474284D02*
X154665559Y-161474284D01*
X156515559Y-155931428D02*
X155915559Y-155931428D01*
X155915559Y-155931428D02*
X156344130Y-156131428D01*
X156344130Y-156131428D02*
X155915559Y-156331428D01*
X155915559Y-156331428D02*
X156515559Y-156331428D01*
X156344130Y-156588570D02*
X156344130Y-156874285D01*
X156515559Y-156531427D02*
X155915559Y-156731427D01*
X155915559Y-156731427D02*
X156515559Y-156931427D01*
X156286988Y-157131428D02*
X156286988Y-157588571D01*
X156344130Y-157845713D02*
X156344130Y-158131428D01*
X156515559Y-157788570D02*
X155915559Y-157988570D01*
X155915559Y-157988570D02*
X156515559Y-158188570D01*
X155915559Y-158388571D02*
X156401273Y-158388571D01*
X156401273Y-158388571D02*
X156458416Y-158417142D01*
X156458416Y-158417142D02*
X156486988Y-158445714D01*
X156486988Y-158445714D02*
X156515559Y-158502856D01*
X156515559Y-158502856D02*
X156515559Y-158617142D01*
X156515559Y-158617142D02*
X156486988Y-158674285D01*
X156486988Y-158674285D02*
X156458416Y-158702856D01*
X156458416Y-158702856D02*
X156401273Y-158731428D01*
X156401273Y-158731428D02*
X155915559Y-158731428D01*
X155915559Y-158931427D02*
X155915559Y-159274285D01*
X156515559Y-159102856D02*
X155915559Y-159102856D01*
X155915559Y-159588570D02*
X155915559Y-159702856D01*
X155915559Y-159702856D02*
X155944130Y-159759999D01*
X155944130Y-159759999D02*
X156001273Y-159817142D01*
X156001273Y-159817142D02*
X156115559Y-159845713D01*
X156115559Y-159845713D02*
X156315559Y-159845713D01*
X156315559Y-159845713D02*
X156429845Y-159817142D01*
X156429845Y-159817142D02*
X156486988Y-159759999D01*
X156486988Y-159759999D02*
X156515559Y-159702856D01*
X156515559Y-159702856D02*
X156515559Y-159588570D01*
X156515559Y-159588570D02*
X156486988Y-159531428D01*
X156486988Y-159531428D02*
X156429845Y-159474285D01*
X156429845Y-159474285D02*
X156315559Y-159445713D01*
X156315559Y-159445713D02*
X156115559Y-159445713D01*
X156115559Y-159445713D02*
X156001273Y-159474285D01*
X156001273Y-159474285D02*
X155944130Y-159531428D01*
X155944130Y-159531428D02*
X155915559Y-159588570D01*
X156286988Y-160102856D02*
X156286988Y-160559999D01*
X155915559Y-160959998D02*
X155915559Y-161074284D01*
X155915559Y-161074284D02*
X155944130Y-161131427D01*
X155944130Y-161131427D02*
X156001273Y-161188570D01*
X156001273Y-161188570D02*
X156115559Y-161217141D01*
X156115559Y-161217141D02*
X156315559Y-161217141D01*
X156315559Y-161217141D02*
X156429845Y-161188570D01*
X156429845Y-161188570D02*
X156486988Y-161131427D01*
X156486988Y-161131427D02*
X156515559Y-161074284D01*
X156515559Y-161074284D02*
X156515559Y-160959998D01*
X156515559Y-160959998D02*
X156486988Y-160902856D01*
X156486988Y-160902856D02*
X156429845Y-160845713D01*
X156429845Y-160845713D02*
X156315559Y-160817141D01*
X156315559Y-160817141D02*
X156115559Y-160817141D01*
X156115559Y-160817141D02*
X156001273Y-160845713D01*
X156001273Y-160845713D02*
X155944130Y-160902856D01*
X155944130Y-160902856D02*
X155915559Y-160959998D01*
X155915559Y-161474284D02*
X156401273Y-161474284D01*
X156401273Y-161474284D02*
X156458416Y-161502855D01*
X156458416Y-161502855D02*
X156486988Y-161531427D01*
X156486988Y-161531427D02*
X156515559Y-161588569D01*
X156515559Y-161588569D02*
X156515559Y-161702855D01*
X156515559Y-161702855D02*
X156486988Y-161759998D01*
X156486988Y-161759998D02*
X156458416Y-161788569D01*
X156458416Y-161788569D02*
X156401273Y-161817141D01*
X156401273Y-161817141D02*
X155915559Y-161817141D01*
X155915559Y-162017140D02*
X155915559Y-162359998D01*
X156515559Y-162188569D02*
X155915559Y-162188569D01*
X157451273Y-156131429D02*
X157451273Y-155931429D01*
X157765559Y-155931429D02*
X157165559Y-155931429D01*
X157165559Y-155931429D02*
X157165559Y-156217143D01*
X157765559Y-156788572D02*
X157479845Y-156588572D01*
X157765559Y-156445715D02*
X157165559Y-156445715D01*
X157165559Y-156445715D02*
X157165559Y-156674286D01*
X157165559Y-156674286D02*
X157194130Y-156731429D01*
X157194130Y-156731429D02*
X157222702Y-156760000D01*
X157222702Y-156760000D02*
X157279845Y-156788572D01*
X157279845Y-156788572D02*
X157365559Y-156788572D01*
X157365559Y-156788572D02*
X157422702Y-156760000D01*
X157422702Y-156760000D02*
X157451273Y-156731429D01*
X157451273Y-156731429D02*
X157479845Y-156674286D01*
X157479845Y-156674286D02*
X157479845Y-156445715D01*
X157765559Y-157045715D02*
X157165559Y-157045715D01*
X157194130Y-157645714D02*
X157165559Y-157588572D01*
X157165559Y-157588572D02*
X157165559Y-157502857D01*
X157165559Y-157502857D02*
X157194130Y-157417143D01*
X157194130Y-157417143D02*
X157251273Y-157360000D01*
X157251273Y-157360000D02*
X157308416Y-157331429D01*
X157308416Y-157331429D02*
X157422702Y-157302857D01*
X157422702Y-157302857D02*
X157508416Y-157302857D01*
X157508416Y-157302857D02*
X157622702Y-157331429D01*
X157622702Y-157331429D02*
X157679845Y-157360000D01*
X157679845Y-157360000D02*
X157736988Y-157417143D01*
X157736988Y-157417143D02*
X157765559Y-157502857D01*
X157765559Y-157502857D02*
X157765559Y-157560000D01*
X157765559Y-157560000D02*
X157736988Y-157645714D01*
X157736988Y-157645714D02*
X157708416Y-157674286D01*
X157708416Y-157674286D02*
X157508416Y-157674286D01*
X157508416Y-157674286D02*
X157508416Y-157560000D01*
X157451273Y-157931429D02*
X157451273Y-158131429D01*
X157765559Y-158217143D02*
X157765559Y-157931429D01*
X157765559Y-157931429D02*
X157165559Y-157931429D01*
X157165559Y-157931429D02*
X157165559Y-158217143D01*
X158415559Y-155845714D02*
X158415559Y-156188572D01*
X159015559Y-156017143D02*
X158415559Y-156017143D01*
X158415559Y-156302857D02*
X159015559Y-156502857D01*
X159015559Y-156502857D02*
X158415559Y-156702857D01*
X160265559Y-155931429D02*
X159665559Y-155931429D01*
X160265559Y-156217143D02*
X159665559Y-156217143D01*
X159665559Y-156217143D02*
X160265559Y-156560000D01*
X160265559Y-156560000D02*
X159665559Y-156560000D01*
X159665559Y-156759999D02*
X160265559Y-156959999D01*
X160265559Y-156959999D02*
X159665559Y-157159999D01*
X160915559Y-156045714D02*
X160915559Y-156160000D01*
X160915559Y-156160000D02*
X160944130Y-156217143D01*
X160944130Y-156217143D02*
X161001273Y-156274286D01*
X161001273Y-156274286D02*
X161115559Y-156302857D01*
X161115559Y-156302857D02*
X161315559Y-156302857D01*
X161315559Y-156302857D02*
X161429845Y-156274286D01*
X161429845Y-156274286D02*
X161486988Y-156217143D01*
X161486988Y-156217143D02*
X161515559Y-156160000D01*
X161515559Y-156160000D02*
X161515559Y-156045714D01*
X161515559Y-156045714D02*
X161486988Y-155988572D01*
X161486988Y-155988572D02*
X161429845Y-155931429D01*
X161429845Y-155931429D02*
X161315559Y-155902857D01*
X161315559Y-155902857D02*
X161115559Y-155902857D01*
X161115559Y-155902857D02*
X161001273Y-155931429D01*
X161001273Y-155931429D02*
X160944130Y-155988572D01*
X160944130Y-155988572D02*
X160915559Y-156045714D01*
X160915559Y-156560000D02*
X161401273Y-156560000D01*
X161401273Y-156560000D02*
X161458416Y-156588571D01*
X161458416Y-156588571D02*
X161486988Y-156617143D01*
X161486988Y-156617143D02*
X161515559Y-156674285D01*
X161515559Y-156674285D02*
X161515559Y-156788571D01*
X161515559Y-156788571D02*
X161486988Y-156845714D01*
X161486988Y-156845714D02*
X161458416Y-156874285D01*
X161458416Y-156874285D02*
X161401273Y-156902857D01*
X161401273Y-156902857D02*
X160915559Y-156902857D01*
X160915559Y-157102856D02*
X160915559Y-157445714D01*
X161515559Y-157274285D02*
X160915559Y-157274285D01*
X161172702Y-158188571D02*
X161144130Y-158131428D01*
X161144130Y-158131428D02*
X161115559Y-158102857D01*
X161115559Y-158102857D02*
X161058416Y-158074285D01*
X161058416Y-158074285D02*
X161029845Y-158074285D01*
X161029845Y-158074285D02*
X160972702Y-158102857D01*
X160972702Y-158102857D02*
X160944130Y-158131428D01*
X160944130Y-158131428D02*
X160915559Y-158188571D01*
X160915559Y-158188571D02*
X160915559Y-158302857D01*
X160915559Y-158302857D02*
X160944130Y-158360000D01*
X160944130Y-158360000D02*
X160972702Y-158388571D01*
X160972702Y-158388571D02*
X161029845Y-158417142D01*
X161029845Y-158417142D02*
X161058416Y-158417142D01*
X161058416Y-158417142D02*
X161115559Y-158388571D01*
X161115559Y-158388571D02*
X161144130Y-158360000D01*
X161144130Y-158360000D02*
X161172702Y-158302857D01*
X161172702Y-158302857D02*
X161172702Y-158188571D01*
X161172702Y-158188571D02*
X161201273Y-158131428D01*
X161201273Y-158131428D02*
X161229845Y-158102857D01*
X161229845Y-158102857D02*
X161286988Y-158074285D01*
X161286988Y-158074285D02*
X161401273Y-158074285D01*
X161401273Y-158074285D02*
X161458416Y-158102857D01*
X161458416Y-158102857D02*
X161486988Y-158131428D01*
X161486988Y-158131428D02*
X161515559Y-158188571D01*
X161515559Y-158188571D02*
X161515559Y-158302857D01*
X161515559Y-158302857D02*
X161486988Y-158360000D01*
X161486988Y-158360000D02*
X161458416Y-158388571D01*
X161458416Y-158388571D02*
X161401273Y-158417142D01*
X161401273Y-158417142D02*
X161286988Y-158417142D01*
X161286988Y-158417142D02*
X161229845Y-158388571D01*
X161229845Y-158388571D02*
X161201273Y-158360000D01*
X161201273Y-158360000D02*
X161172702Y-158302857D01*
X162165559Y-156045714D02*
X162165559Y-156160000D01*
X162165559Y-156160000D02*
X162194130Y-156217143D01*
X162194130Y-156217143D02*
X162251273Y-156274286D01*
X162251273Y-156274286D02*
X162365559Y-156302857D01*
X162365559Y-156302857D02*
X162565559Y-156302857D01*
X162565559Y-156302857D02*
X162679845Y-156274286D01*
X162679845Y-156274286D02*
X162736988Y-156217143D01*
X162736988Y-156217143D02*
X162765559Y-156160000D01*
X162765559Y-156160000D02*
X162765559Y-156045714D01*
X162765559Y-156045714D02*
X162736988Y-155988572D01*
X162736988Y-155988572D02*
X162679845Y-155931429D01*
X162679845Y-155931429D02*
X162565559Y-155902857D01*
X162565559Y-155902857D02*
X162365559Y-155902857D01*
X162365559Y-155902857D02*
X162251273Y-155931429D01*
X162251273Y-155931429D02*
X162194130Y-155988572D01*
X162194130Y-155988572D02*
X162165559Y-156045714D01*
X162165559Y-156560000D02*
X162651273Y-156560000D01*
X162651273Y-156560000D02*
X162708416Y-156588571D01*
X162708416Y-156588571D02*
X162736988Y-156617143D01*
X162736988Y-156617143D02*
X162765559Y-156674285D01*
X162765559Y-156674285D02*
X162765559Y-156788571D01*
X162765559Y-156788571D02*
X162736988Y-156845714D01*
X162736988Y-156845714D02*
X162708416Y-156874285D01*
X162708416Y-156874285D02*
X162651273Y-156902857D01*
X162651273Y-156902857D02*
X162165559Y-156902857D01*
X162165559Y-157102856D02*
X162165559Y-157445714D01*
X162765559Y-157274285D02*
X162165559Y-157274285D01*
X162165559Y-158045714D02*
X162165559Y-158445714D01*
X162165559Y-158445714D02*
X162765559Y-158188571D01*
X49377454Y-114430057D02*
X49329835Y-114382438D01*
X49329835Y-114382438D02*
X49234597Y-114334819D01*
X49234597Y-114334819D02*
X48996502Y-114334819D01*
X48996502Y-114334819D02*
X48901264Y-114382438D01*
X48901264Y-114382438D02*
X48853645Y-114430057D01*
X48853645Y-114430057D02*
X48806026Y-114525295D01*
X48806026Y-114525295D02*
X48806026Y-114620533D01*
X48806026Y-114620533D02*
X48853645Y-114763390D01*
X48853645Y-114763390D02*
X49425073Y-115334819D01*
X49425073Y-115334819D02*
X48806026Y-115334819D01*
X48186978Y-114334819D02*
X48091740Y-114334819D01*
X48091740Y-114334819D02*
X47996502Y-114382438D01*
X47996502Y-114382438D02*
X47948883Y-114430057D01*
X47948883Y-114430057D02*
X47901264Y-114525295D01*
X47901264Y-114525295D02*
X47853645Y-114715771D01*
X47853645Y-114715771D02*
X47853645Y-114953866D01*
X47853645Y-114953866D02*
X47901264Y-115144342D01*
X47901264Y-115144342D02*
X47948883Y-115239580D01*
X47948883Y-115239580D02*
X47996502Y-115287200D01*
X47996502Y-115287200D02*
X48091740Y-115334819D01*
X48091740Y-115334819D02*
X48186978Y-115334819D01*
X48186978Y-115334819D02*
X48282216Y-115287200D01*
X48282216Y-115287200D02*
X48329835Y-115239580D01*
X48329835Y-115239580D02*
X48377454Y-115144342D01*
X48377454Y-115144342D02*
X48425073Y-114953866D01*
X48425073Y-114953866D02*
X48425073Y-114715771D01*
X48425073Y-114715771D02*
X48377454Y-114525295D01*
X48377454Y-114525295D02*
X48329835Y-114430057D01*
X48329835Y-114430057D02*
X48282216Y-114382438D01*
X48282216Y-114382438D02*
X48186978Y-114334819D01*
X47520311Y-114334819D02*
X46901264Y-114334819D01*
X46901264Y-114334819D02*
X47234597Y-114715771D01*
X47234597Y-114715771D02*
X47091740Y-114715771D01*
X47091740Y-114715771D02*
X46996502Y-114763390D01*
X46996502Y-114763390D02*
X46948883Y-114811009D01*
X46948883Y-114811009D02*
X46901264Y-114906247D01*
X46901264Y-114906247D02*
X46901264Y-115144342D01*
X46901264Y-115144342D02*
X46948883Y-115239580D01*
X46948883Y-115239580D02*
X46996502Y-115287200D01*
X46996502Y-115287200D02*
X47091740Y-115334819D01*
X47091740Y-115334819D02*
X47377454Y-115334819D01*
X47377454Y-115334819D02*
X47472692Y-115287200D01*
X47472692Y-115287200D02*
X47520311Y-115239580D01*
X46139359Y-114811009D02*
X46472692Y-114811009D01*
X46472692Y-115334819D02*
X46472692Y-114334819D01*
X46472692Y-114334819D02*
X45996502Y-114334819D01*
X49565559Y-89660857D02*
X49565559Y-90003715D01*
X50165559Y-89832286D02*
X49565559Y-89832286D01*
X50165559Y-90203715D02*
X49565559Y-90203715D01*
X49565559Y-90203715D02*
X49565559Y-90432286D01*
X49565559Y-90432286D02*
X49594130Y-90489429D01*
X49594130Y-90489429D02*
X49622702Y-90518000D01*
X49622702Y-90518000D02*
X49679845Y-90546572D01*
X49679845Y-90546572D02*
X49765559Y-90546572D01*
X49765559Y-90546572D02*
X49822702Y-90518000D01*
X49822702Y-90518000D02*
X49851273Y-90489429D01*
X49851273Y-90489429D02*
X49879845Y-90432286D01*
X49879845Y-90432286D02*
X49879845Y-90203715D01*
X49936988Y-90803715D02*
X49936988Y-91260858D01*
X49565559Y-91460857D02*
X49565559Y-91803715D01*
X50165559Y-91632286D02*
X49565559Y-91632286D01*
X50165559Y-92003715D02*
X49565559Y-92003715D01*
X50165559Y-92289429D02*
X49565559Y-92289429D01*
X49565559Y-92289429D02*
X50165559Y-92632286D01*
X50165559Y-92632286D02*
X49565559Y-92632286D01*
X49565559Y-92832285D02*
X49565559Y-93175143D01*
X50165559Y-93003714D02*
X49565559Y-93003714D01*
X51415559Y-90166571D02*
X51129845Y-89966571D01*
X51415559Y-89823714D02*
X50815559Y-89823714D01*
X50815559Y-89823714D02*
X50815559Y-90052285D01*
X50815559Y-90052285D02*
X50844130Y-90109428D01*
X50844130Y-90109428D02*
X50872702Y-90137999D01*
X50872702Y-90137999D02*
X50929845Y-90166571D01*
X50929845Y-90166571D02*
X51015559Y-90166571D01*
X51015559Y-90166571D02*
X51072702Y-90137999D01*
X51072702Y-90137999D02*
X51101273Y-90109428D01*
X51101273Y-90109428D02*
X51129845Y-90052285D01*
X51129845Y-90052285D02*
X51129845Y-89823714D01*
X51101273Y-90423714D02*
X51101273Y-90623714D01*
X51415559Y-90709428D02*
X51415559Y-90423714D01*
X51415559Y-90423714D02*
X50815559Y-90423714D01*
X50815559Y-90423714D02*
X50815559Y-90709428D01*
X51386988Y-90937999D02*
X51415559Y-91023714D01*
X51415559Y-91023714D02*
X51415559Y-91166571D01*
X51415559Y-91166571D02*
X51386988Y-91223714D01*
X51386988Y-91223714D02*
X51358416Y-91252285D01*
X51358416Y-91252285D02*
X51301273Y-91280856D01*
X51301273Y-91280856D02*
X51244130Y-91280856D01*
X51244130Y-91280856D02*
X51186988Y-91252285D01*
X51186988Y-91252285D02*
X51158416Y-91223714D01*
X51158416Y-91223714D02*
X51129845Y-91166571D01*
X51129845Y-91166571D02*
X51101273Y-91052285D01*
X51101273Y-91052285D02*
X51072702Y-90995142D01*
X51072702Y-90995142D02*
X51044130Y-90966571D01*
X51044130Y-90966571D02*
X50986988Y-90937999D01*
X50986988Y-90937999D02*
X50929845Y-90937999D01*
X50929845Y-90937999D02*
X50872702Y-90966571D01*
X50872702Y-90966571D02*
X50844130Y-90995142D01*
X50844130Y-90995142D02*
X50815559Y-91052285D01*
X50815559Y-91052285D02*
X50815559Y-91195142D01*
X50815559Y-91195142D02*
X50844130Y-91280856D01*
X51101273Y-91538000D02*
X51101273Y-91738000D01*
X51415559Y-91823714D02*
X51415559Y-91538000D01*
X51415559Y-91538000D02*
X50815559Y-91538000D01*
X50815559Y-91538000D02*
X50815559Y-91823714D01*
X50815559Y-91995142D02*
X50815559Y-92338000D01*
X51415559Y-92166571D02*
X50815559Y-92166571D01*
X52636988Y-89779714D02*
X52665559Y-89865429D01*
X52665559Y-89865429D02*
X52665559Y-90008286D01*
X52665559Y-90008286D02*
X52636988Y-90065429D01*
X52636988Y-90065429D02*
X52608416Y-90094000D01*
X52608416Y-90094000D02*
X52551273Y-90122571D01*
X52551273Y-90122571D02*
X52494130Y-90122571D01*
X52494130Y-90122571D02*
X52436988Y-90094000D01*
X52436988Y-90094000D02*
X52408416Y-90065429D01*
X52408416Y-90065429D02*
X52379845Y-90008286D01*
X52379845Y-90008286D02*
X52351273Y-89894000D01*
X52351273Y-89894000D02*
X52322702Y-89836857D01*
X52322702Y-89836857D02*
X52294130Y-89808286D01*
X52294130Y-89808286D02*
X52236988Y-89779714D01*
X52236988Y-89779714D02*
X52179845Y-89779714D01*
X52179845Y-89779714D02*
X52122702Y-89808286D01*
X52122702Y-89808286D02*
X52094130Y-89836857D01*
X52094130Y-89836857D02*
X52065559Y-89894000D01*
X52065559Y-89894000D02*
X52065559Y-90036857D01*
X52065559Y-90036857D02*
X52094130Y-90122571D01*
X52608416Y-90722572D02*
X52636988Y-90694000D01*
X52636988Y-90694000D02*
X52665559Y-90608286D01*
X52665559Y-90608286D02*
X52665559Y-90551143D01*
X52665559Y-90551143D02*
X52636988Y-90465429D01*
X52636988Y-90465429D02*
X52579845Y-90408286D01*
X52579845Y-90408286D02*
X52522702Y-90379715D01*
X52522702Y-90379715D02*
X52408416Y-90351143D01*
X52408416Y-90351143D02*
X52322702Y-90351143D01*
X52322702Y-90351143D02*
X52208416Y-90379715D01*
X52208416Y-90379715D02*
X52151273Y-90408286D01*
X52151273Y-90408286D02*
X52094130Y-90465429D01*
X52094130Y-90465429D02*
X52065559Y-90551143D01*
X52065559Y-90551143D02*
X52065559Y-90608286D01*
X52065559Y-90608286D02*
X52094130Y-90694000D01*
X52094130Y-90694000D02*
X52122702Y-90722572D01*
X52665559Y-91265429D02*
X52665559Y-90979715D01*
X52665559Y-90979715D02*
X52065559Y-90979715D01*
X53915559Y-89856572D02*
X53315559Y-89856572D01*
X53315559Y-89856572D02*
X53315559Y-89999429D01*
X53315559Y-89999429D02*
X53344130Y-90085143D01*
X53344130Y-90085143D02*
X53401273Y-90142286D01*
X53401273Y-90142286D02*
X53458416Y-90170857D01*
X53458416Y-90170857D02*
X53572702Y-90199429D01*
X53572702Y-90199429D02*
X53658416Y-90199429D01*
X53658416Y-90199429D02*
X53772702Y-90170857D01*
X53772702Y-90170857D02*
X53829845Y-90142286D01*
X53829845Y-90142286D02*
X53886988Y-90085143D01*
X53886988Y-90085143D02*
X53915559Y-89999429D01*
X53915559Y-89999429D02*
X53915559Y-89856572D01*
X53286988Y-90885143D02*
X54058416Y-90370857D01*
X53858416Y-91428000D02*
X53886988Y-91399428D01*
X53886988Y-91399428D02*
X53915559Y-91313714D01*
X53915559Y-91313714D02*
X53915559Y-91256571D01*
X53915559Y-91256571D02*
X53886988Y-91170857D01*
X53886988Y-91170857D02*
X53829845Y-91113714D01*
X53829845Y-91113714D02*
X53772702Y-91085143D01*
X53772702Y-91085143D02*
X53658416Y-91056571D01*
X53658416Y-91056571D02*
X53572702Y-91056571D01*
X53572702Y-91056571D02*
X53458416Y-91085143D01*
X53458416Y-91085143D02*
X53401273Y-91113714D01*
X53401273Y-91113714D02*
X53344130Y-91170857D01*
X53344130Y-91170857D02*
X53315559Y-91256571D01*
X53315559Y-91256571D02*
X53315559Y-91313714D01*
X53315559Y-91313714D02*
X53344130Y-91399428D01*
X53344130Y-91399428D02*
X53372702Y-91428000D01*
X54565559Y-89822285D02*
X54565559Y-90165143D01*
X55165559Y-89993714D02*
X54565559Y-89993714D01*
X55165559Y-90365143D02*
X54565559Y-90365143D01*
X54565559Y-90365143D02*
X54565559Y-90593714D01*
X54565559Y-90593714D02*
X54594130Y-90650857D01*
X54594130Y-90650857D02*
X54622702Y-90679428D01*
X54622702Y-90679428D02*
X54679845Y-90708000D01*
X54679845Y-90708000D02*
X54765559Y-90708000D01*
X54765559Y-90708000D02*
X54822702Y-90679428D01*
X54822702Y-90679428D02*
X54851273Y-90650857D01*
X54851273Y-90650857D02*
X54879845Y-90593714D01*
X54879845Y-90593714D02*
X54879845Y-90365143D01*
X54936988Y-90965143D02*
X54936988Y-91422286D01*
X55136988Y-91679428D02*
X55165559Y-91765143D01*
X55165559Y-91765143D02*
X55165559Y-91908000D01*
X55165559Y-91908000D02*
X55136988Y-91965143D01*
X55136988Y-91965143D02*
X55108416Y-91993714D01*
X55108416Y-91993714D02*
X55051273Y-92022285D01*
X55051273Y-92022285D02*
X54994130Y-92022285D01*
X54994130Y-92022285D02*
X54936988Y-91993714D01*
X54936988Y-91993714D02*
X54908416Y-91965143D01*
X54908416Y-91965143D02*
X54879845Y-91908000D01*
X54879845Y-91908000D02*
X54851273Y-91793714D01*
X54851273Y-91793714D02*
X54822702Y-91736571D01*
X54822702Y-91736571D02*
X54794130Y-91708000D01*
X54794130Y-91708000D02*
X54736988Y-91679428D01*
X54736988Y-91679428D02*
X54679845Y-91679428D01*
X54679845Y-91679428D02*
X54622702Y-91708000D01*
X54622702Y-91708000D02*
X54594130Y-91736571D01*
X54594130Y-91736571D02*
X54565559Y-91793714D01*
X54565559Y-91793714D02*
X54565559Y-91936571D01*
X54565559Y-91936571D02*
X54594130Y-92022285D01*
X55165559Y-92279429D02*
X54565559Y-92279429D01*
X54565559Y-92279429D02*
X54565559Y-92422286D01*
X54565559Y-92422286D02*
X54594130Y-92508000D01*
X54594130Y-92508000D02*
X54651273Y-92565143D01*
X54651273Y-92565143D02*
X54708416Y-92593714D01*
X54708416Y-92593714D02*
X54822702Y-92622286D01*
X54822702Y-92622286D02*
X54908416Y-92622286D01*
X54908416Y-92622286D02*
X55022702Y-92593714D01*
X55022702Y-92593714D02*
X55079845Y-92565143D01*
X55079845Y-92565143D02*
X55136988Y-92508000D01*
X55136988Y-92508000D02*
X55165559Y-92422286D01*
X55165559Y-92422286D02*
X55165559Y-92279429D01*
X54994130Y-92850857D02*
X54994130Y-93136572D01*
X55165559Y-92793714D02*
X54565559Y-92993714D01*
X54565559Y-92993714D02*
X55165559Y-93193714D01*
X56415559Y-90070857D02*
X56415559Y-89785143D01*
X56415559Y-89785143D02*
X55815559Y-89785143D01*
X56101273Y-90270857D02*
X56101273Y-90470857D01*
X56415559Y-90556571D02*
X56415559Y-90270857D01*
X56415559Y-90270857D02*
X55815559Y-90270857D01*
X55815559Y-90270857D02*
X55815559Y-90556571D01*
X56415559Y-90813714D02*
X55815559Y-90813714D01*
X55815559Y-90813714D02*
X55815559Y-90956571D01*
X55815559Y-90956571D02*
X55844130Y-91042285D01*
X55844130Y-91042285D02*
X55901273Y-91099428D01*
X55901273Y-91099428D02*
X55958416Y-91127999D01*
X55958416Y-91127999D02*
X56072702Y-91156571D01*
X56072702Y-91156571D02*
X56158416Y-91156571D01*
X56158416Y-91156571D02*
X56272702Y-91127999D01*
X56272702Y-91127999D02*
X56329845Y-91099428D01*
X56329845Y-91099428D02*
X56386988Y-91042285D01*
X56386988Y-91042285D02*
X56415559Y-90956571D01*
X56415559Y-90956571D02*
X56415559Y-90813714D01*
X56186988Y-91413714D02*
X56186988Y-91870857D01*
X56415559Y-92156571D02*
X55815559Y-92156571D01*
X56415559Y-92499428D02*
X56072702Y-92242285D01*
X55815559Y-92499428D02*
X56158416Y-92156571D01*
X153444130Y-83245714D02*
X153415559Y-83188572D01*
X153415559Y-83188572D02*
X153415559Y-83102857D01*
X153415559Y-83102857D02*
X153444130Y-83017143D01*
X153444130Y-83017143D02*
X153501273Y-82960000D01*
X153501273Y-82960000D02*
X153558416Y-82931429D01*
X153558416Y-82931429D02*
X153672702Y-82902857D01*
X153672702Y-82902857D02*
X153758416Y-82902857D01*
X153758416Y-82902857D02*
X153872702Y-82931429D01*
X153872702Y-82931429D02*
X153929845Y-82960000D01*
X153929845Y-82960000D02*
X153986988Y-83017143D01*
X153986988Y-83017143D02*
X154015559Y-83102857D01*
X154015559Y-83102857D02*
X154015559Y-83160000D01*
X154015559Y-83160000D02*
X153986988Y-83245714D01*
X153986988Y-83245714D02*
X153958416Y-83274286D01*
X153958416Y-83274286D02*
X153758416Y-83274286D01*
X153758416Y-83274286D02*
X153758416Y-83160000D01*
X154015559Y-83531429D02*
X153415559Y-83531429D01*
X153415559Y-83531429D02*
X154015559Y-83874286D01*
X154015559Y-83874286D02*
X153415559Y-83874286D01*
X154015559Y-84160000D02*
X153415559Y-84160000D01*
X153415559Y-84160000D02*
X153415559Y-84302857D01*
X153415559Y-84302857D02*
X153444130Y-84388571D01*
X153444130Y-84388571D02*
X153501273Y-84445714D01*
X153501273Y-84445714D02*
X153558416Y-84474285D01*
X153558416Y-84474285D02*
X153672702Y-84502857D01*
X153672702Y-84502857D02*
X153758416Y-84502857D01*
X153758416Y-84502857D02*
X153872702Y-84474285D01*
X153872702Y-84474285D02*
X153929845Y-84445714D01*
X153929845Y-84445714D02*
X153986988Y-84388571D01*
X153986988Y-84388571D02*
X154015559Y-84302857D01*
X154015559Y-84302857D02*
X154015559Y-84160000D01*
X155265559Y-82931428D02*
X154665559Y-82931428D01*
X154665559Y-82931428D02*
X155094130Y-83131428D01*
X155094130Y-83131428D02*
X154665559Y-83331428D01*
X154665559Y-83331428D02*
X155265559Y-83331428D01*
X155094130Y-83588570D02*
X155094130Y-83874285D01*
X155265559Y-83531427D02*
X154665559Y-83731427D01*
X154665559Y-83731427D02*
X155265559Y-83931427D01*
X155036988Y-84131428D02*
X155036988Y-84588571D01*
X155094130Y-84845713D02*
X155094130Y-85131428D01*
X155265559Y-84788570D02*
X154665559Y-84988570D01*
X154665559Y-84988570D02*
X155265559Y-85188570D01*
X154665559Y-85388571D02*
X155151273Y-85388571D01*
X155151273Y-85388571D02*
X155208416Y-85417142D01*
X155208416Y-85417142D02*
X155236988Y-85445714D01*
X155236988Y-85445714D02*
X155265559Y-85502856D01*
X155265559Y-85502856D02*
X155265559Y-85617142D01*
X155265559Y-85617142D02*
X155236988Y-85674285D01*
X155236988Y-85674285D02*
X155208416Y-85702856D01*
X155208416Y-85702856D02*
X155151273Y-85731428D01*
X155151273Y-85731428D02*
X154665559Y-85731428D01*
X154665559Y-85931427D02*
X154665559Y-86274285D01*
X155265559Y-86102856D02*
X154665559Y-86102856D01*
X154665559Y-86588570D02*
X154665559Y-86702856D01*
X154665559Y-86702856D02*
X154694130Y-86759999D01*
X154694130Y-86759999D02*
X154751273Y-86817142D01*
X154751273Y-86817142D02*
X154865559Y-86845713D01*
X154865559Y-86845713D02*
X155065559Y-86845713D01*
X155065559Y-86845713D02*
X155179845Y-86817142D01*
X155179845Y-86817142D02*
X155236988Y-86759999D01*
X155236988Y-86759999D02*
X155265559Y-86702856D01*
X155265559Y-86702856D02*
X155265559Y-86588570D01*
X155265559Y-86588570D02*
X155236988Y-86531428D01*
X155236988Y-86531428D02*
X155179845Y-86474285D01*
X155179845Y-86474285D02*
X155065559Y-86445713D01*
X155065559Y-86445713D02*
X154865559Y-86445713D01*
X154865559Y-86445713D02*
X154751273Y-86474285D01*
X154751273Y-86474285D02*
X154694130Y-86531428D01*
X154694130Y-86531428D02*
X154665559Y-86588570D01*
X155036988Y-87102856D02*
X155036988Y-87559999D01*
X155265559Y-87845713D02*
X154665559Y-87845713D01*
X155265559Y-88131427D02*
X154665559Y-88131427D01*
X154665559Y-88131427D02*
X155265559Y-88474284D01*
X155265559Y-88474284D02*
X154665559Y-88474284D01*
X156515559Y-82931428D02*
X155915559Y-82931428D01*
X155915559Y-82931428D02*
X156344130Y-83131428D01*
X156344130Y-83131428D02*
X155915559Y-83331428D01*
X155915559Y-83331428D02*
X156515559Y-83331428D01*
X156344130Y-83588570D02*
X156344130Y-83874285D01*
X156515559Y-83531427D02*
X155915559Y-83731427D01*
X155915559Y-83731427D02*
X156515559Y-83931427D01*
X156286988Y-84131428D02*
X156286988Y-84588571D01*
X156344130Y-84845713D02*
X156344130Y-85131428D01*
X156515559Y-84788570D02*
X155915559Y-84988570D01*
X155915559Y-84988570D02*
X156515559Y-85188570D01*
X155915559Y-85388571D02*
X156401273Y-85388571D01*
X156401273Y-85388571D02*
X156458416Y-85417142D01*
X156458416Y-85417142D02*
X156486988Y-85445714D01*
X156486988Y-85445714D02*
X156515559Y-85502856D01*
X156515559Y-85502856D02*
X156515559Y-85617142D01*
X156515559Y-85617142D02*
X156486988Y-85674285D01*
X156486988Y-85674285D02*
X156458416Y-85702856D01*
X156458416Y-85702856D02*
X156401273Y-85731428D01*
X156401273Y-85731428D02*
X155915559Y-85731428D01*
X155915559Y-85931427D02*
X155915559Y-86274285D01*
X156515559Y-86102856D02*
X155915559Y-86102856D01*
X155915559Y-86588570D02*
X155915559Y-86702856D01*
X155915559Y-86702856D02*
X155944130Y-86759999D01*
X155944130Y-86759999D02*
X156001273Y-86817142D01*
X156001273Y-86817142D02*
X156115559Y-86845713D01*
X156115559Y-86845713D02*
X156315559Y-86845713D01*
X156315559Y-86845713D02*
X156429845Y-86817142D01*
X156429845Y-86817142D02*
X156486988Y-86759999D01*
X156486988Y-86759999D02*
X156515559Y-86702856D01*
X156515559Y-86702856D02*
X156515559Y-86588570D01*
X156515559Y-86588570D02*
X156486988Y-86531428D01*
X156486988Y-86531428D02*
X156429845Y-86474285D01*
X156429845Y-86474285D02*
X156315559Y-86445713D01*
X156315559Y-86445713D02*
X156115559Y-86445713D01*
X156115559Y-86445713D02*
X156001273Y-86474285D01*
X156001273Y-86474285D02*
X155944130Y-86531428D01*
X155944130Y-86531428D02*
X155915559Y-86588570D01*
X156286988Y-87102856D02*
X156286988Y-87559999D01*
X155915559Y-87959998D02*
X155915559Y-88074284D01*
X155915559Y-88074284D02*
X155944130Y-88131427D01*
X155944130Y-88131427D02*
X156001273Y-88188570D01*
X156001273Y-88188570D02*
X156115559Y-88217141D01*
X156115559Y-88217141D02*
X156315559Y-88217141D01*
X156315559Y-88217141D02*
X156429845Y-88188570D01*
X156429845Y-88188570D02*
X156486988Y-88131427D01*
X156486988Y-88131427D02*
X156515559Y-88074284D01*
X156515559Y-88074284D02*
X156515559Y-87959998D01*
X156515559Y-87959998D02*
X156486988Y-87902856D01*
X156486988Y-87902856D02*
X156429845Y-87845713D01*
X156429845Y-87845713D02*
X156315559Y-87817141D01*
X156315559Y-87817141D02*
X156115559Y-87817141D01*
X156115559Y-87817141D02*
X156001273Y-87845713D01*
X156001273Y-87845713D02*
X155944130Y-87902856D01*
X155944130Y-87902856D02*
X155915559Y-87959998D01*
X155915559Y-88474284D02*
X156401273Y-88474284D01*
X156401273Y-88474284D02*
X156458416Y-88502855D01*
X156458416Y-88502855D02*
X156486988Y-88531427D01*
X156486988Y-88531427D02*
X156515559Y-88588569D01*
X156515559Y-88588569D02*
X156515559Y-88702855D01*
X156515559Y-88702855D02*
X156486988Y-88759998D01*
X156486988Y-88759998D02*
X156458416Y-88788569D01*
X156458416Y-88788569D02*
X156401273Y-88817141D01*
X156401273Y-88817141D02*
X155915559Y-88817141D01*
X155915559Y-89017140D02*
X155915559Y-89359998D01*
X156515559Y-89188569D02*
X155915559Y-89188569D01*
X157451273Y-83131429D02*
X157451273Y-82931429D01*
X157765559Y-82931429D02*
X157165559Y-82931429D01*
X157165559Y-82931429D02*
X157165559Y-83217143D01*
X157765559Y-83788572D02*
X157479845Y-83588572D01*
X157765559Y-83445715D02*
X157165559Y-83445715D01*
X157165559Y-83445715D02*
X157165559Y-83674286D01*
X157165559Y-83674286D02*
X157194130Y-83731429D01*
X157194130Y-83731429D02*
X157222702Y-83760000D01*
X157222702Y-83760000D02*
X157279845Y-83788572D01*
X157279845Y-83788572D02*
X157365559Y-83788572D01*
X157365559Y-83788572D02*
X157422702Y-83760000D01*
X157422702Y-83760000D02*
X157451273Y-83731429D01*
X157451273Y-83731429D02*
X157479845Y-83674286D01*
X157479845Y-83674286D02*
X157479845Y-83445715D01*
X157765559Y-84045715D02*
X157165559Y-84045715D01*
X157194130Y-84645714D02*
X157165559Y-84588572D01*
X157165559Y-84588572D02*
X157165559Y-84502857D01*
X157165559Y-84502857D02*
X157194130Y-84417143D01*
X157194130Y-84417143D02*
X157251273Y-84360000D01*
X157251273Y-84360000D02*
X157308416Y-84331429D01*
X157308416Y-84331429D02*
X157422702Y-84302857D01*
X157422702Y-84302857D02*
X157508416Y-84302857D01*
X157508416Y-84302857D02*
X157622702Y-84331429D01*
X157622702Y-84331429D02*
X157679845Y-84360000D01*
X157679845Y-84360000D02*
X157736988Y-84417143D01*
X157736988Y-84417143D02*
X157765559Y-84502857D01*
X157765559Y-84502857D02*
X157765559Y-84560000D01*
X157765559Y-84560000D02*
X157736988Y-84645714D01*
X157736988Y-84645714D02*
X157708416Y-84674286D01*
X157708416Y-84674286D02*
X157508416Y-84674286D01*
X157508416Y-84674286D02*
X157508416Y-84560000D01*
X157451273Y-84931429D02*
X157451273Y-85131429D01*
X157765559Y-85217143D02*
X157765559Y-84931429D01*
X157765559Y-84931429D02*
X157165559Y-84931429D01*
X157165559Y-84931429D02*
X157165559Y-85217143D01*
X158415559Y-82845714D02*
X158415559Y-83188572D01*
X159015559Y-83017143D02*
X158415559Y-83017143D01*
X158415559Y-83302857D02*
X159015559Y-83502857D01*
X159015559Y-83502857D02*
X158415559Y-83702857D01*
X160265559Y-82931429D02*
X159665559Y-82931429D01*
X160265559Y-83217143D02*
X159665559Y-83217143D01*
X159665559Y-83217143D02*
X160265559Y-83560000D01*
X160265559Y-83560000D02*
X159665559Y-83560000D01*
X159665559Y-83759999D02*
X160265559Y-83959999D01*
X160265559Y-83959999D02*
X159665559Y-84159999D01*
X160915559Y-83045714D02*
X160915559Y-83160000D01*
X160915559Y-83160000D02*
X160944130Y-83217143D01*
X160944130Y-83217143D02*
X161001273Y-83274286D01*
X161001273Y-83274286D02*
X161115559Y-83302857D01*
X161115559Y-83302857D02*
X161315559Y-83302857D01*
X161315559Y-83302857D02*
X161429845Y-83274286D01*
X161429845Y-83274286D02*
X161486988Y-83217143D01*
X161486988Y-83217143D02*
X161515559Y-83160000D01*
X161515559Y-83160000D02*
X161515559Y-83045714D01*
X161515559Y-83045714D02*
X161486988Y-82988572D01*
X161486988Y-82988572D02*
X161429845Y-82931429D01*
X161429845Y-82931429D02*
X161315559Y-82902857D01*
X161315559Y-82902857D02*
X161115559Y-82902857D01*
X161115559Y-82902857D02*
X161001273Y-82931429D01*
X161001273Y-82931429D02*
X160944130Y-82988572D01*
X160944130Y-82988572D02*
X160915559Y-83045714D01*
X160915559Y-83560000D02*
X161401273Y-83560000D01*
X161401273Y-83560000D02*
X161458416Y-83588571D01*
X161458416Y-83588571D02*
X161486988Y-83617143D01*
X161486988Y-83617143D02*
X161515559Y-83674285D01*
X161515559Y-83674285D02*
X161515559Y-83788571D01*
X161515559Y-83788571D02*
X161486988Y-83845714D01*
X161486988Y-83845714D02*
X161458416Y-83874285D01*
X161458416Y-83874285D02*
X161401273Y-83902857D01*
X161401273Y-83902857D02*
X160915559Y-83902857D01*
X160915559Y-84102856D02*
X160915559Y-84445714D01*
X161515559Y-84274285D02*
X160915559Y-84274285D01*
X161172702Y-85188571D02*
X161144130Y-85131428D01*
X161144130Y-85131428D02*
X161115559Y-85102857D01*
X161115559Y-85102857D02*
X161058416Y-85074285D01*
X161058416Y-85074285D02*
X161029845Y-85074285D01*
X161029845Y-85074285D02*
X160972702Y-85102857D01*
X160972702Y-85102857D02*
X160944130Y-85131428D01*
X160944130Y-85131428D02*
X160915559Y-85188571D01*
X160915559Y-85188571D02*
X160915559Y-85302857D01*
X160915559Y-85302857D02*
X160944130Y-85360000D01*
X160944130Y-85360000D02*
X160972702Y-85388571D01*
X160972702Y-85388571D02*
X161029845Y-85417142D01*
X161029845Y-85417142D02*
X161058416Y-85417142D01*
X161058416Y-85417142D02*
X161115559Y-85388571D01*
X161115559Y-85388571D02*
X161144130Y-85360000D01*
X161144130Y-85360000D02*
X161172702Y-85302857D01*
X161172702Y-85302857D02*
X161172702Y-85188571D01*
X161172702Y-85188571D02*
X161201273Y-85131428D01*
X161201273Y-85131428D02*
X161229845Y-85102857D01*
X161229845Y-85102857D02*
X161286988Y-85074285D01*
X161286988Y-85074285D02*
X161401273Y-85074285D01*
X161401273Y-85074285D02*
X161458416Y-85102857D01*
X161458416Y-85102857D02*
X161486988Y-85131428D01*
X161486988Y-85131428D02*
X161515559Y-85188571D01*
X161515559Y-85188571D02*
X161515559Y-85302857D01*
X161515559Y-85302857D02*
X161486988Y-85360000D01*
X161486988Y-85360000D02*
X161458416Y-85388571D01*
X161458416Y-85388571D02*
X161401273Y-85417142D01*
X161401273Y-85417142D02*
X161286988Y-85417142D01*
X161286988Y-85417142D02*
X161229845Y-85388571D01*
X161229845Y-85388571D02*
X161201273Y-85360000D01*
X161201273Y-85360000D02*
X161172702Y-85302857D01*
X162165559Y-83045714D02*
X162165559Y-83160000D01*
X162165559Y-83160000D02*
X162194130Y-83217143D01*
X162194130Y-83217143D02*
X162251273Y-83274286D01*
X162251273Y-83274286D02*
X162365559Y-83302857D01*
X162365559Y-83302857D02*
X162565559Y-83302857D01*
X162565559Y-83302857D02*
X162679845Y-83274286D01*
X162679845Y-83274286D02*
X162736988Y-83217143D01*
X162736988Y-83217143D02*
X162765559Y-83160000D01*
X162765559Y-83160000D02*
X162765559Y-83045714D01*
X162765559Y-83045714D02*
X162736988Y-82988572D01*
X162736988Y-82988572D02*
X162679845Y-82931429D01*
X162679845Y-82931429D02*
X162565559Y-82902857D01*
X162565559Y-82902857D02*
X162365559Y-82902857D01*
X162365559Y-82902857D02*
X162251273Y-82931429D01*
X162251273Y-82931429D02*
X162194130Y-82988572D01*
X162194130Y-82988572D02*
X162165559Y-83045714D01*
X162165559Y-83560000D02*
X162651273Y-83560000D01*
X162651273Y-83560000D02*
X162708416Y-83588571D01*
X162708416Y-83588571D02*
X162736988Y-83617143D01*
X162736988Y-83617143D02*
X162765559Y-83674285D01*
X162765559Y-83674285D02*
X162765559Y-83788571D01*
X162765559Y-83788571D02*
X162736988Y-83845714D01*
X162736988Y-83845714D02*
X162708416Y-83874285D01*
X162708416Y-83874285D02*
X162651273Y-83902857D01*
X162651273Y-83902857D02*
X162165559Y-83902857D01*
X162165559Y-84102856D02*
X162165559Y-84445714D01*
X162765559Y-84274285D02*
X162165559Y-84274285D01*
X162165559Y-85045714D02*
X162165559Y-85445714D01*
X162165559Y-85445714D02*
X162765559Y-85188571D01*
X140165559Y-83045714D02*
X140165559Y-83160000D01*
X140165559Y-83160000D02*
X140194130Y-83217143D01*
X140194130Y-83217143D02*
X140251273Y-83274286D01*
X140251273Y-83274286D02*
X140365559Y-83302857D01*
X140365559Y-83302857D02*
X140565559Y-83302857D01*
X140565559Y-83302857D02*
X140679845Y-83274286D01*
X140679845Y-83274286D02*
X140736988Y-83217143D01*
X140736988Y-83217143D02*
X140765559Y-83160000D01*
X140765559Y-83160000D02*
X140765559Y-83045714D01*
X140765559Y-83045714D02*
X140736988Y-82988572D01*
X140736988Y-82988572D02*
X140679845Y-82931429D01*
X140679845Y-82931429D02*
X140565559Y-82902857D01*
X140565559Y-82902857D02*
X140365559Y-82902857D01*
X140365559Y-82902857D02*
X140251273Y-82931429D01*
X140251273Y-82931429D02*
X140194130Y-82988572D01*
X140194130Y-82988572D02*
X140165559Y-83045714D01*
X140165559Y-83560000D02*
X140651273Y-83560000D01*
X140651273Y-83560000D02*
X140708416Y-83588571D01*
X140708416Y-83588571D02*
X140736988Y-83617143D01*
X140736988Y-83617143D02*
X140765559Y-83674285D01*
X140765559Y-83674285D02*
X140765559Y-83788571D01*
X140765559Y-83788571D02*
X140736988Y-83845714D01*
X140736988Y-83845714D02*
X140708416Y-83874285D01*
X140708416Y-83874285D02*
X140651273Y-83902857D01*
X140651273Y-83902857D02*
X140165559Y-83902857D01*
X140165559Y-84102856D02*
X140165559Y-84445714D01*
X140765559Y-84274285D02*
X140165559Y-84274285D01*
X140165559Y-85360000D02*
X140165559Y-85245714D01*
X140165559Y-85245714D02*
X140194130Y-85188571D01*
X140194130Y-85188571D02*
X140222702Y-85160000D01*
X140222702Y-85160000D02*
X140308416Y-85102857D01*
X140308416Y-85102857D02*
X140422702Y-85074285D01*
X140422702Y-85074285D02*
X140651273Y-85074285D01*
X140651273Y-85074285D02*
X140708416Y-85102857D01*
X140708416Y-85102857D02*
X140736988Y-85131428D01*
X140736988Y-85131428D02*
X140765559Y-85188571D01*
X140765559Y-85188571D02*
X140765559Y-85302857D01*
X140765559Y-85302857D02*
X140736988Y-85360000D01*
X140736988Y-85360000D02*
X140708416Y-85388571D01*
X140708416Y-85388571D02*
X140651273Y-85417142D01*
X140651273Y-85417142D02*
X140508416Y-85417142D01*
X140508416Y-85417142D02*
X140451273Y-85388571D01*
X140451273Y-85388571D02*
X140422702Y-85360000D01*
X140422702Y-85360000D02*
X140394130Y-85302857D01*
X140394130Y-85302857D02*
X140394130Y-85188571D01*
X140394130Y-85188571D02*
X140422702Y-85131428D01*
X140422702Y-85131428D02*
X140451273Y-85102857D01*
X140451273Y-85102857D02*
X140508416Y-85074285D01*
X141415559Y-83045714D02*
X141415559Y-83160000D01*
X141415559Y-83160000D02*
X141444130Y-83217143D01*
X141444130Y-83217143D02*
X141501273Y-83274286D01*
X141501273Y-83274286D02*
X141615559Y-83302857D01*
X141615559Y-83302857D02*
X141815559Y-83302857D01*
X141815559Y-83302857D02*
X141929845Y-83274286D01*
X141929845Y-83274286D02*
X141986988Y-83217143D01*
X141986988Y-83217143D02*
X142015559Y-83160000D01*
X142015559Y-83160000D02*
X142015559Y-83045714D01*
X142015559Y-83045714D02*
X141986988Y-82988572D01*
X141986988Y-82988572D02*
X141929845Y-82931429D01*
X141929845Y-82931429D02*
X141815559Y-82902857D01*
X141815559Y-82902857D02*
X141615559Y-82902857D01*
X141615559Y-82902857D02*
X141501273Y-82931429D01*
X141501273Y-82931429D02*
X141444130Y-82988572D01*
X141444130Y-82988572D02*
X141415559Y-83045714D01*
X141415559Y-83560000D02*
X141901273Y-83560000D01*
X141901273Y-83560000D02*
X141958416Y-83588571D01*
X141958416Y-83588571D02*
X141986988Y-83617143D01*
X141986988Y-83617143D02*
X142015559Y-83674285D01*
X142015559Y-83674285D02*
X142015559Y-83788571D01*
X142015559Y-83788571D02*
X141986988Y-83845714D01*
X141986988Y-83845714D02*
X141958416Y-83874285D01*
X141958416Y-83874285D02*
X141901273Y-83902857D01*
X141901273Y-83902857D02*
X141415559Y-83902857D01*
X141415559Y-84102856D02*
X141415559Y-84445714D01*
X142015559Y-84274285D02*
X141415559Y-84274285D01*
X141415559Y-85388571D02*
X141415559Y-85102857D01*
X141415559Y-85102857D02*
X141701273Y-85074285D01*
X141701273Y-85074285D02*
X141672702Y-85102857D01*
X141672702Y-85102857D02*
X141644130Y-85160000D01*
X141644130Y-85160000D02*
X141644130Y-85302857D01*
X141644130Y-85302857D02*
X141672702Y-85360000D01*
X141672702Y-85360000D02*
X141701273Y-85388571D01*
X141701273Y-85388571D02*
X141758416Y-85417142D01*
X141758416Y-85417142D02*
X141901273Y-85417142D01*
X141901273Y-85417142D02*
X141958416Y-85388571D01*
X141958416Y-85388571D02*
X141986988Y-85360000D01*
X141986988Y-85360000D02*
X142015559Y-85302857D01*
X142015559Y-85302857D02*
X142015559Y-85160000D01*
X142015559Y-85160000D02*
X141986988Y-85102857D01*
X141986988Y-85102857D02*
X141958416Y-85074285D01*
X143915559Y-83045714D02*
X143915559Y-83160000D01*
X143915559Y-83160000D02*
X143944130Y-83217143D01*
X143944130Y-83217143D02*
X144001273Y-83274286D01*
X144001273Y-83274286D02*
X144115559Y-83302857D01*
X144115559Y-83302857D02*
X144315559Y-83302857D01*
X144315559Y-83302857D02*
X144429845Y-83274286D01*
X144429845Y-83274286D02*
X144486988Y-83217143D01*
X144486988Y-83217143D02*
X144515559Y-83160000D01*
X144515559Y-83160000D02*
X144515559Y-83045714D01*
X144515559Y-83045714D02*
X144486988Y-82988572D01*
X144486988Y-82988572D02*
X144429845Y-82931429D01*
X144429845Y-82931429D02*
X144315559Y-82902857D01*
X144315559Y-82902857D02*
X144115559Y-82902857D01*
X144115559Y-82902857D02*
X144001273Y-82931429D01*
X144001273Y-82931429D02*
X143944130Y-82988572D01*
X143944130Y-82988572D02*
X143915559Y-83045714D01*
X143915559Y-83560000D02*
X144401273Y-83560000D01*
X144401273Y-83560000D02*
X144458416Y-83588571D01*
X144458416Y-83588571D02*
X144486988Y-83617143D01*
X144486988Y-83617143D02*
X144515559Y-83674285D01*
X144515559Y-83674285D02*
X144515559Y-83788571D01*
X144515559Y-83788571D02*
X144486988Y-83845714D01*
X144486988Y-83845714D02*
X144458416Y-83874285D01*
X144458416Y-83874285D02*
X144401273Y-83902857D01*
X144401273Y-83902857D02*
X143915559Y-83902857D01*
X143915559Y-84102856D02*
X143915559Y-84445714D01*
X144515559Y-84274285D02*
X143915559Y-84274285D01*
X143915559Y-85045714D02*
X143915559Y-85417142D01*
X143915559Y-85417142D02*
X144144130Y-85217142D01*
X144144130Y-85217142D02*
X144144130Y-85302857D01*
X144144130Y-85302857D02*
X144172702Y-85360000D01*
X144172702Y-85360000D02*
X144201273Y-85388571D01*
X144201273Y-85388571D02*
X144258416Y-85417142D01*
X144258416Y-85417142D02*
X144401273Y-85417142D01*
X144401273Y-85417142D02*
X144458416Y-85388571D01*
X144458416Y-85388571D02*
X144486988Y-85360000D01*
X144486988Y-85360000D02*
X144515559Y-85302857D01*
X144515559Y-85302857D02*
X144515559Y-85131428D01*
X144515559Y-85131428D02*
X144486988Y-85074285D01*
X144486988Y-85074285D02*
X144458416Y-85045714D01*
X142665559Y-83045714D02*
X142665559Y-83160000D01*
X142665559Y-83160000D02*
X142694130Y-83217143D01*
X142694130Y-83217143D02*
X142751273Y-83274286D01*
X142751273Y-83274286D02*
X142865559Y-83302857D01*
X142865559Y-83302857D02*
X143065559Y-83302857D01*
X143065559Y-83302857D02*
X143179845Y-83274286D01*
X143179845Y-83274286D02*
X143236988Y-83217143D01*
X143236988Y-83217143D02*
X143265559Y-83160000D01*
X143265559Y-83160000D02*
X143265559Y-83045714D01*
X143265559Y-83045714D02*
X143236988Y-82988572D01*
X143236988Y-82988572D02*
X143179845Y-82931429D01*
X143179845Y-82931429D02*
X143065559Y-82902857D01*
X143065559Y-82902857D02*
X142865559Y-82902857D01*
X142865559Y-82902857D02*
X142751273Y-82931429D01*
X142751273Y-82931429D02*
X142694130Y-82988572D01*
X142694130Y-82988572D02*
X142665559Y-83045714D01*
X142665559Y-83560000D02*
X143151273Y-83560000D01*
X143151273Y-83560000D02*
X143208416Y-83588571D01*
X143208416Y-83588571D02*
X143236988Y-83617143D01*
X143236988Y-83617143D02*
X143265559Y-83674285D01*
X143265559Y-83674285D02*
X143265559Y-83788571D01*
X143265559Y-83788571D02*
X143236988Y-83845714D01*
X143236988Y-83845714D02*
X143208416Y-83874285D01*
X143208416Y-83874285D02*
X143151273Y-83902857D01*
X143151273Y-83902857D02*
X142665559Y-83902857D01*
X142665559Y-84102856D02*
X142665559Y-84445714D01*
X143265559Y-84274285D02*
X142665559Y-84274285D01*
X142865559Y-85360000D02*
X143265559Y-85360000D01*
X142636988Y-85217142D02*
X143065559Y-85074285D01*
X143065559Y-85074285D02*
X143065559Y-85445714D01*
X145165559Y-83045714D02*
X145165559Y-83160000D01*
X145165559Y-83160000D02*
X145194130Y-83217143D01*
X145194130Y-83217143D02*
X145251273Y-83274286D01*
X145251273Y-83274286D02*
X145365559Y-83302857D01*
X145365559Y-83302857D02*
X145565559Y-83302857D01*
X145565559Y-83302857D02*
X145679845Y-83274286D01*
X145679845Y-83274286D02*
X145736988Y-83217143D01*
X145736988Y-83217143D02*
X145765559Y-83160000D01*
X145765559Y-83160000D02*
X145765559Y-83045714D01*
X145765559Y-83045714D02*
X145736988Y-82988572D01*
X145736988Y-82988572D02*
X145679845Y-82931429D01*
X145679845Y-82931429D02*
X145565559Y-82902857D01*
X145565559Y-82902857D02*
X145365559Y-82902857D01*
X145365559Y-82902857D02*
X145251273Y-82931429D01*
X145251273Y-82931429D02*
X145194130Y-82988572D01*
X145194130Y-82988572D02*
X145165559Y-83045714D01*
X145165559Y-83560000D02*
X145651273Y-83560000D01*
X145651273Y-83560000D02*
X145708416Y-83588571D01*
X145708416Y-83588571D02*
X145736988Y-83617143D01*
X145736988Y-83617143D02*
X145765559Y-83674285D01*
X145765559Y-83674285D02*
X145765559Y-83788571D01*
X145765559Y-83788571D02*
X145736988Y-83845714D01*
X145736988Y-83845714D02*
X145708416Y-83874285D01*
X145708416Y-83874285D02*
X145651273Y-83902857D01*
X145651273Y-83902857D02*
X145165559Y-83902857D01*
X145165559Y-84102856D02*
X145165559Y-84445714D01*
X145765559Y-84274285D02*
X145165559Y-84274285D01*
X145222702Y-85074285D02*
X145194130Y-85102857D01*
X145194130Y-85102857D02*
X145165559Y-85160000D01*
X145165559Y-85160000D02*
X145165559Y-85302857D01*
X145165559Y-85302857D02*
X145194130Y-85360000D01*
X145194130Y-85360000D02*
X145222702Y-85388571D01*
X145222702Y-85388571D02*
X145279845Y-85417142D01*
X145279845Y-85417142D02*
X145336988Y-85417142D01*
X145336988Y-85417142D02*
X145422702Y-85388571D01*
X145422702Y-85388571D02*
X145765559Y-85045714D01*
X145765559Y-85045714D02*
X145765559Y-85417142D01*
X146415559Y-83045714D02*
X146415559Y-83160000D01*
X146415559Y-83160000D02*
X146444130Y-83217143D01*
X146444130Y-83217143D02*
X146501273Y-83274286D01*
X146501273Y-83274286D02*
X146615559Y-83302857D01*
X146615559Y-83302857D02*
X146815559Y-83302857D01*
X146815559Y-83302857D02*
X146929845Y-83274286D01*
X146929845Y-83274286D02*
X146986988Y-83217143D01*
X146986988Y-83217143D02*
X147015559Y-83160000D01*
X147015559Y-83160000D02*
X147015559Y-83045714D01*
X147015559Y-83045714D02*
X146986988Y-82988572D01*
X146986988Y-82988572D02*
X146929845Y-82931429D01*
X146929845Y-82931429D02*
X146815559Y-82902857D01*
X146815559Y-82902857D02*
X146615559Y-82902857D01*
X146615559Y-82902857D02*
X146501273Y-82931429D01*
X146501273Y-82931429D02*
X146444130Y-82988572D01*
X146444130Y-82988572D02*
X146415559Y-83045714D01*
X146415559Y-83560000D02*
X146901273Y-83560000D01*
X146901273Y-83560000D02*
X146958416Y-83588571D01*
X146958416Y-83588571D02*
X146986988Y-83617143D01*
X146986988Y-83617143D02*
X147015559Y-83674285D01*
X147015559Y-83674285D02*
X147015559Y-83788571D01*
X147015559Y-83788571D02*
X146986988Y-83845714D01*
X146986988Y-83845714D02*
X146958416Y-83874285D01*
X146958416Y-83874285D02*
X146901273Y-83902857D01*
X146901273Y-83902857D02*
X146415559Y-83902857D01*
X146415559Y-84102856D02*
X146415559Y-84445714D01*
X147015559Y-84274285D02*
X146415559Y-84274285D01*
X147015559Y-85417142D02*
X147015559Y-85074285D01*
X147015559Y-85245714D02*
X146415559Y-85245714D01*
X146415559Y-85245714D02*
X146501273Y-85188571D01*
X146501273Y-85188571D02*
X146558416Y-85131428D01*
X146558416Y-85131428D02*
X146586988Y-85074285D01*
X49377454Y-41430057D02*
X49329835Y-41382438D01*
X49329835Y-41382438D02*
X49234597Y-41334819D01*
X49234597Y-41334819D02*
X48996502Y-41334819D01*
X48996502Y-41334819D02*
X48901264Y-41382438D01*
X48901264Y-41382438D02*
X48853645Y-41430057D01*
X48853645Y-41430057D02*
X48806026Y-41525295D01*
X48806026Y-41525295D02*
X48806026Y-41620533D01*
X48806026Y-41620533D02*
X48853645Y-41763390D01*
X48853645Y-41763390D02*
X49425073Y-42334819D01*
X49425073Y-42334819D02*
X48806026Y-42334819D01*
X48186978Y-41334819D02*
X48091740Y-41334819D01*
X48091740Y-41334819D02*
X47996502Y-41382438D01*
X47996502Y-41382438D02*
X47948883Y-41430057D01*
X47948883Y-41430057D02*
X47901264Y-41525295D01*
X47901264Y-41525295D02*
X47853645Y-41715771D01*
X47853645Y-41715771D02*
X47853645Y-41953866D01*
X47853645Y-41953866D02*
X47901264Y-42144342D01*
X47901264Y-42144342D02*
X47948883Y-42239580D01*
X47948883Y-42239580D02*
X47996502Y-42287200D01*
X47996502Y-42287200D02*
X48091740Y-42334819D01*
X48091740Y-42334819D02*
X48186978Y-42334819D01*
X48186978Y-42334819D02*
X48282216Y-42287200D01*
X48282216Y-42287200D02*
X48329835Y-42239580D01*
X48329835Y-42239580D02*
X48377454Y-42144342D01*
X48377454Y-42144342D02*
X48425073Y-41953866D01*
X48425073Y-41953866D02*
X48425073Y-41715771D01*
X48425073Y-41715771D02*
X48377454Y-41525295D01*
X48377454Y-41525295D02*
X48329835Y-41430057D01*
X48329835Y-41430057D02*
X48282216Y-41382438D01*
X48282216Y-41382438D02*
X48186978Y-41334819D01*
X47520311Y-41334819D02*
X46901264Y-41334819D01*
X46901264Y-41334819D02*
X47234597Y-41715771D01*
X47234597Y-41715771D02*
X47091740Y-41715771D01*
X47091740Y-41715771D02*
X46996502Y-41763390D01*
X46996502Y-41763390D02*
X46948883Y-41811009D01*
X46948883Y-41811009D02*
X46901264Y-41906247D01*
X46901264Y-41906247D02*
X46901264Y-42144342D01*
X46901264Y-42144342D02*
X46948883Y-42239580D01*
X46948883Y-42239580D02*
X46996502Y-42287200D01*
X46996502Y-42287200D02*
X47091740Y-42334819D01*
X47091740Y-42334819D02*
X47377454Y-42334819D01*
X47377454Y-42334819D02*
X47472692Y-42287200D01*
X47472692Y-42287200D02*
X47520311Y-42239580D01*
X46139359Y-41811009D02*
X46472692Y-41811009D01*
X46472692Y-42334819D02*
X46472692Y-41334819D01*
X46472692Y-41334819D02*
X45996502Y-41334819D01*
X56670607Y-73373333D02*
X56670607Y-72801905D01*
X56670607Y-73087619D02*
X55670607Y-73087619D01*
X55670607Y-73087619D02*
X55813464Y-72992381D01*
X55813464Y-72992381D02*
X55908702Y-72897143D01*
X55908702Y-72897143D02*
X55956321Y-72801905D01*
X55670607Y-73992381D02*
X55670607Y-74087619D01*
X55670607Y-74087619D02*
X55718226Y-74182857D01*
X55718226Y-74182857D02*
X55765845Y-74230476D01*
X55765845Y-74230476D02*
X55861083Y-74278095D01*
X55861083Y-74278095D02*
X56051559Y-74325714D01*
X56051559Y-74325714D02*
X56289654Y-74325714D01*
X56289654Y-74325714D02*
X56480130Y-74278095D01*
X56480130Y-74278095D02*
X56575368Y-74230476D01*
X56575368Y-74230476D02*
X56622988Y-74182857D01*
X56622988Y-74182857D02*
X56670607Y-74087619D01*
X56670607Y-74087619D02*
X56670607Y-73992381D01*
X56670607Y-73992381D02*
X56622988Y-73897143D01*
X56622988Y-73897143D02*
X56575368Y-73849524D01*
X56575368Y-73849524D02*
X56480130Y-73801905D01*
X56480130Y-73801905D02*
X56289654Y-73754286D01*
X56289654Y-73754286D02*
X56051559Y-73754286D01*
X56051559Y-73754286D02*
X55861083Y-73801905D01*
X55861083Y-73801905D02*
X55765845Y-73849524D01*
X55765845Y-73849524D02*
X55718226Y-73897143D01*
X55718226Y-73897143D02*
X55670607Y-73992381D01*
X55670607Y-75182857D02*
X55670607Y-74992381D01*
X55670607Y-74992381D02*
X55718226Y-74897143D01*
X55718226Y-74897143D02*
X55765845Y-74849524D01*
X55765845Y-74849524D02*
X55908702Y-74754286D01*
X55908702Y-74754286D02*
X56099178Y-74706667D01*
X56099178Y-74706667D02*
X56480130Y-74706667D01*
X56480130Y-74706667D02*
X56575368Y-74754286D01*
X56575368Y-74754286D02*
X56622988Y-74801905D01*
X56622988Y-74801905D02*
X56670607Y-74897143D01*
X56670607Y-74897143D02*
X56670607Y-75087619D01*
X56670607Y-75087619D02*
X56622988Y-75182857D01*
X56622988Y-75182857D02*
X56575368Y-75230476D01*
X56575368Y-75230476D02*
X56480130Y-75278095D01*
X56480130Y-75278095D02*
X56242035Y-75278095D01*
X56242035Y-75278095D02*
X56146797Y-75230476D01*
X56146797Y-75230476D02*
X56099178Y-75182857D01*
X56099178Y-75182857D02*
X56051559Y-75087619D01*
X56051559Y-75087619D02*
X56051559Y-74897143D01*
X56051559Y-74897143D02*
X56099178Y-74801905D01*
X56099178Y-74801905D02*
X56146797Y-74754286D01*
X56146797Y-74754286D02*
X56242035Y-74706667D01*
X68737455Y-76505180D02*
X69356502Y-76505180D01*
X69356502Y-76505180D02*
X69023169Y-76124228D01*
X69023169Y-76124228D02*
X69166026Y-76124228D01*
X69166026Y-76124228D02*
X69261264Y-76076609D01*
X69261264Y-76076609D02*
X69308883Y-76028990D01*
X69308883Y-76028990D02*
X69356502Y-75933752D01*
X69356502Y-75933752D02*
X69356502Y-75695657D01*
X69356502Y-75695657D02*
X69308883Y-75600419D01*
X69308883Y-75600419D02*
X69261264Y-75552800D01*
X69261264Y-75552800D02*
X69166026Y-75505180D01*
X69166026Y-75505180D02*
X68880312Y-75505180D01*
X68880312Y-75505180D02*
X68785074Y-75552800D01*
X68785074Y-75552800D02*
X68737455Y-75600419D01*
X71325074Y-76409942D02*
X71372693Y-76457561D01*
X71372693Y-76457561D02*
X71467931Y-76505180D01*
X71467931Y-76505180D02*
X71706026Y-76505180D01*
X71706026Y-76505180D02*
X71801264Y-76457561D01*
X71801264Y-76457561D02*
X71848883Y-76409942D01*
X71848883Y-76409942D02*
X71896502Y-76314704D01*
X71896502Y-76314704D02*
X71896502Y-76219466D01*
X71896502Y-76219466D02*
X71848883Y-76076609D01*
X71848883Y-76076609D02*
X71277455Y-75505180D01*
X71277455Y-75505180D02*
X71896502Y-75505180D01*
X64208883Y-76510756D02*
X63732693Y-76510756D01*
X63732693Y-76510756D02*
X63685074Y-76034566D01*
X63685074Y-76034566D02*
X63732693Y-76082185D01*
X63732693Y-76082185D02*
X63827931Y-76129804D01*
X63827931Y-76129804D02*
X64066026Y-76129804D01*
X64066026Y-76129804D02*
X64161264Y-76082185D01*
X64161264Y-76082185D02*
X64208883Y-76034566D01*
X64208883Y-76034566D02*
X64256502Y-75939328D01*
X64256502Y-75939328D02*
X64256502Y-75701233D01*
X64256502Y-75701233D02*
X64208883Y-75605995D01*
X64208883Y-75605995D02*
X64161264Y-75558376D01*
X64161264Y-75558376D02*
X64066026Y-75510756D01*
X64066026Y-75510756D02*
X63827931Y-75510756D01*
X63827931Y-75510756D02*
X63732693Y-75558376D01*
X63732693Y-75558376D02*
X63685074Y-75605995D01*
X66721264Y-76171847D02*
X66721264Y-75505180D01*
X66483169Y-76552800D02*
X66245074Y-75838514D01*
X66245074Y-75838514D02*
X66864121Y-75838514D01*
X74436502Y-75505180D02*
X73865074Y-75505180D01*
X74150788Y-75505180D02*
X74150788Y-76505180D01*
X74150788Y-76505180D02*
X74055550Y-76362323D01*
X74055550Y-76362323D02*
X73960312Y-76267085D01*
X73960312Y-76267085D02*
X73865074Y-76219466D01*
X61621264Y-76510756D02*
X61430788Y-76510756D01*
X61430788Y-76510756D02*
X61335550Y-76463137D01*
X61335550Y-76463137D02*
X61287931Y-76415518D01*
X61287931Y-76415518D02*
X61192693Y-76272661D01*
X61192693Y-76272661D02*
X61145074Y-76082185D01*
X61145074Y-76082185D02*
X61145074Y-75701233D01*
X61145074Y-75701233D02*
X61192693Y-75605995D01*
X61192693Y-75605995D02*
X61240312Y-75558376D01*
X61240312Y-75558376D02*
X61335550Y-75510756D01*
X61335550Y-75510756D02*
X61526026Y-75510756D01*
X61526026Y-75510756D02*
X61621264Y-75558376D01*
X61621264Y-75558376D02*
X61668883Y-75605995D01*
X61668883Y-75605995D02*
X61716502Y-75701233D01*
X61716502Y-75701233D02*
X61716502Y-75939328D01*
X61716502Y-75939328D02*
X61668883Y-76034566D01*
X61668883Y-76034566D02*
X61621264Y-76082185D01*
X61621264Y-76082185D02*
X61526026Y-76129804D01*
X61526026Y-76129804D02*
X61335550Y-76129804D01*
X61335550Y-76129804D02*
X61240312Y-76082185D01*
X61240312Y-76082185D02*
X61192693Y-76034566D01*
X61192693Y-76034566D02*
X61145074Y-75939328D01*
X55541492Y-60841792D02*
X55541492Y-61298935D01*
X55541492Y-61070363D02*
X56341492Y-61070363D01*
X56341492Y-61070363D02*
X56227207Y-61146554D01*
X56227207Y-61146554D02*
X56151016Y-61222744D01*
X56151016Y-61222744D02*
X56112921Y-61298935D01*
X55541492Y-50632970D02*
X55541492Y-51090113D01*
X55541492Y-50861541D02*
X56341492Y-50861541D01*
X56341492Y-50861541D02*
X56227207Y-50937732D01*
X56227207Y-50937732D02*
X56151016Y-51013922D01*
X56151016Y-51013922D02*
X56112921Y-51090113D01*
X55998635Y-50175827D02*
X56036730Y-50252017D01*
X56036730Y-50252017D02*
X56074826Y-50290112D01*
X56074826Y-50290112D02*
X56151016Y-50328208D01*
X56151016Y-50328208D02*
X56189111Y-50328208D01*
X56189111Y-50328208D02*
X56265302Y-50290112D01*
X56265302Y-50290112D02*
X56303397Y-50252017D01*
X56303397Y-50252017D02*
X56341492Y-50175827D01*
X56341492Y-50175827D02*
X56341492Y-50023446D01*
X56341492Y-50023446D02*
X56303397Y-49947255D01*
X56303397Y-49947255D02*
X56265302Y-49909160D01*
X56265302Y-49909160D02*
X56189111Y-49871065D01*
X56189111Y-49871065D02*
X56151016Y-49871065D01*
X56151016Y-49871065D02*
X56074826Y-49909160D01*
X56074826Y-49909160D02*
X56036730Y-49947255D01*
X56036730Y-49947255D02*
X55998635Y-50023446D01*
X55998635Y-50023446D02*
X55998635Y-50175827D01*
X55998635Y-50175827D02*
X55960540Y-50252017D01*
X55960540Y-50252017D02*
X55922445Y-50290112D01*
X55922445Y-50290112D02*
X55846254Y-50328208D01*
X55846254Y-50328208D02*
X55693873Y-50328208D01*
X55693873Y-50328208D02*
X55617683Y-50290112D01*
X55617683Y-50290112D02*
X55579588Y-50252017D01*
X55579588Y-50252017D02*
X55541492Y-50175827D01*
X55541492Y-50175827D02*
X55541492Y-50023446D01*
X55541492Y-50023446D02*
X55579588Y-49947255D01*
X55579588Y-49947255D02*
X55617683Y-49909160D01*
X55617683Y-49909160D02*
X55693873Y-49871065D01*
X55693873Y-49871065D02*
X55846254Y-49871065D01*
X55846254Y-49871065D02*
X55922445Y-49909160D01*
X55922445Y-49909160D02*
X55960540Y-49947255D01*
X55960540Y-49947255D02*
X55998635Y-50023446D01*
X145834120Y-61134819D02*
X145215073Y-61134819D01*
X145215073Y-61134819D02*
X145548406Y-61515771D01*
X145548406Y-61515771D02*
X145405549Y-61515771D01*
X145405549Y-61515771D02*
X145310311Y-61563390D01*
X145310311Y-61563390D02*
X145262692Y-61611009D01*
X145262692Y-61611009D02*
X145215073Y-61706247D01*
X145215073Y-61706247D02*
X145215073Y-61944342D01*
X145215073Y-61944342D02*
X145262692Y-62039580D01*
X145262692Y-62039580D02*
X145310311Y-62087200D01*
X145310311Y-62087200D02*
X145405549Y-62134819D01*
X145405549Y-62134819D02*
X145691263Y-62134819D01*
X145691263Y-62134819D02*
X145786501Y-62087200D01*
X145786501Y-62087200D02*
X145834120Y-62039580D01*
X155989120Y-61124819D02*
X155322454Y-61124819D01*
X155322454Y-61124819D02*
X155751025Y-62124819D01*
X143246501Y-61230057D02*
X143198882Y-61182438D01*
X143198882Y-61182438D02*
X143103644Y-61134819D01*
X143103644Y-61134819D02*
X142865549Y-61134819D01*
X142865549Y-61134819D02*
X142770311Y-61182438D01*
X142770311Y-61182438D02*
X142722692Y-61230057D01*
X142722692Y-61230057D02*
X142675073Y-61325295D01*
X142675073Y-61325295D02*
X142675073Y-61420533D01*
X142675073Y-61420533D02*
X142722692Y-61563390D01*
X142722692Y-61563390D02*
X143294120Y-62134819D01*
X143294120Y-62134819D02*
X142675073Y-62134819D01*
X150362692Y-61129243D02*
X150838882Y-61129243D01*
X150838882Y-61129243D02*
X150886501Y-61605433D01*
X150886501Y-61605433D02*
X150838882Y-61557814D01*
X150838882Y-61557814D02*
X150743644Y-61510195D01*
X150743644Y-61510195D02*
X150505549Y-61510195D01*
X150505549Y-61510195D02*
X150410311Y-61557814D01*
X150410311Y-61557814D02*
X150362692Y-61605433D01*
X150362692Y-61605433D02*
X150315073Y-61700671D01*
X150315073Y-61700671D02*
X150315073Y-61938766D01*
X150315073Y-61938766D02*
X150362692Y-62034004D01*
X150362692Y-62034004D02*
X150410311Y-62081624D01*
X150410311Y-62081624D02*
X150505549Y-62129243D01*
X150505549Y-62129243D02*
X150743644Y-62129243D01*
X150743644Y-62129243D02*
X150838882Y-62081624D01*
X150838882Y-62081624D02*
X150886501Y-62034004D01*
X140135073Y-62134819D02*
X140706501Y-62134819D01*
X140420787Y-62134819D02*
X140420787Y-61134819D01*
X140420787Y-61134819D02*
X140516025Y-61277676D01*
X140516025Y-61277676D02*
X140611263Y-61372914D01*
X140611263Y-61372914D02*
X140706501Y-61420533D01*
X152950311Y-61129243D02*
X153140787Y-61129243D01*
X153140787Y-61129243D02*
X153236025Y-61176862D01*
X153236025Y-61176862D02*
X153283644Y-61224481D01*
X153283644Y-61224481D02*
X153378882Y-61367338D01*
X153378882Y-61367338D02*
X153426501Y-61557814D01*
X153426501Y-61557814D02*
X153426501Y-61938766D01*
X153426501Y-61938766D02*
X153378882Y-62034004D01*
X153378882Y-62034004D02*
X153331263Y-62081624D01*
X153331263Y-62081624D02*
X153236025Y-62129243D01*
X153236025Y-62129243D02*
X153045549Y-62129243D01*
X153045549Y-62129243D02*
X152950311Y-62081624D01*
X152950311Y-62081624D02*
X152902692Y-62034004D01*
X152902692Y-62034004D02*
X152855073Y-61938766D01*
X152855073Y-61938766D02*
X152855073Y-61700671D01*
X152855073Y-61700671D02*
X152902692Y-61605433D01*
X152902692Y-61605433D02*
X152950311Y-61557814D01*
X152950311Y-61557814D02*
X153045549Y-61510195D01*
X153045549Y-61510195D02*
X153236025Y-61510195D01*
X153236025Y-61510195D02*
X153331263Y-61557814D01*
X153331263Y-61557814D02*
X153378882Y-61605433D01*
X153378882Y-61605433D02*
X153426501Y-61700671D01*
X147850311Y-61468152D02*
X147850311Y-62134819D01*
X148088406Y-61087200D02*
X148326501Y-61801485D01*
X148326501Y-61801485D02*
X147707454Y-61801485D01*
X62849130Y-90099429D02*
X62820559Y-90042287D01*
X62820559Y-90042287D02*
X62820559Y-89956572D01*
X62820559Y-89956572D02*
X62849130Y-89870858D01*
X62849130Y-89870858D02*
X62906273Y-89813715D01*
X62906273Y-89813715D02*
X62963416Y-89785144D01*
X62963416Y-89785144D02*
X63077702Y-89756572D01*
X63077702Y-89756572D02*
X63163416Y-89756572D01*
X63163416Y-89756572D02*
X63277702Y-89785144D01*
X63277702Y-89785144D02*
X63334845Y-89813715D01*
X63334845Y-89813715D02*
X63391988Y-89870858D01*
X63391988Y-89870858D02*
X63420559Y-89956572D01*
X63420559Y-89956572D02*
X63420559Y-90013715D01*
X63420559Y-90013715D02*
X63391988Y-90099429D01*
X63391988Y-90099429D02*
X63363416Y-90128001D01*
X63363416Y-90128001D02*
X63163416Y-90128001D01*
X63163416Y-90128001D02*
X63163416Y-90013715D01*
X63420559Y-90385144D02*
X62820559Y-90385144D01*
X62820559Y-90385144D02*
X63420559Y-90728001D01*
X63420559Y-90728001D02*
X62820559Y-90728001D01*
X63420559Y-91013715D02*
X62820559Y-91013715D01*
X62820559Y-91013715D02*
X62820559Y-91156572D01*
X62820559Y-91156572D02*
X62849130Y-91242286D01*
X62849130Y-91242286D02*
X62906273Y-91299429D01*
X62906273Y-91299429D02*
X62963416Y-91328000D01*
X62963416Y-91328000D02*
X63077702Y-91356572D01*
X63077702Y-91356572D02*
X63163416Y-91356572D01*
X63163416Y-91356572D02*
X63277702Y-91328000D01*
X63277702Y-91328000D02*
X63334845Y-91299429D01*
X63334845Y-91299429D02*
X63391988Y-91242286D01*
X63391988Y-91242286D02*
X63420559Y-91156572D01*
X63420559Y-91156572D02*
X63420559Y-91013715D01*
X64441988Y-89785144D02*
X64441988Y-90242287D01*
X64670559Y-90013715D02*
X64213416Y-90013715D01*
X64070559Y-90470858D02*
X64070559Y-90842286D01*
X64070559Y-90842286D02*
X64299130Y-90642286D01*
X64299130Y-90642286D02*
X64299130Y-90728001D01*
X64299130Y-90728001D02*
X64327702Y-90785144D01*
X64327702Y-90785144D02*
X64356273Y-90813715D01*
X64356273Y-90813715D02*
X64413416Y-90842286D01*
X64413416Y-90842286D02*
X64556273Y-90842286D01*
X64556273Y-90842286D02*
X64613416Y-90813715D01*
X64613416Y-90813715D02*
X64641988Y-90785144D01*
X64641988Y-90785144D02*
X64670559Y-90728001D01*
X64670559Y-90728001D02*
X64670559Y-90556572D01*
X64670559Y-90556572D02*
X64641988Y-90499429D01*
X64641988Y-90499429D02*
X64613416Y-90470858D01*
X64613416Y-91099430D02*
X64641988Y-91128001D01*
X64641988Y-91128001D02*
X64670559Y-91099430D01*
X64670559Y-91099430D02*
X64641988Y-91070858D01*
X64641988Y-91070858D02*
X64613416Y-91099430D01*
X64613416Y-91099430D02*
X64670559Y-91099430D01*
X64070559Y-91328001D02*
X64070559Y-91699429D01*
X64070559Y-91699429D02*
X64299130Y-91499429D01*
X64299130Y-91499429D02*
X64299130Y-91585144D01*
X64299130Y-91585144D02*
X64327702Y-91642287D01*
X64327702Y-91642287D02*
X64356273Y-91670858D01*
X64356273Y-91670858D02*
X64413416Y-91699429D01*
X64413416Y-91699429D02*
X64556273Y-91699429D01*
X64556273Y-91699429D02*
X64613416Y-91670858D01*
X64613416Y-91670858D02*
X64641988Y-91642287D01*
X64641988Y-91642287D02*
X64670559Y-91585144D01*
X64670559Y-91585144D02*
X64670559Y-91413715D01*
X64670559Y-91413715D02*
X64641988Y-91356572D01*
X64641988Y-91356572D02*
X64613416Y-91328001D01*
X64070559Y-91870858D02*
X64670559Y-92070858D01*
X64670559Y-92070858D02*
X64070559Y-92270858D01*
X65891988Y-89756572D02*
X65920559Y-89842287D01*
X65920559Y-89842287D02*
X65920559Y-89985144D01*
X65920559Y-89985144D02*
X65891988Y-90042287D01*
X65891988Y-90042287D02*
X65863416Y-90070858D01*
X65863416Y-90070858D02*
X65806273Y-90099429D01*
X65806273Y-90099429D02*
X65749130Y-90099429D01*
X65749130Y-90099429D02*
X65691988Y-90070858D01*
X65691988Y-90070858D02*
X65663416Y-90042287D01*
X65663416Y-90042287D02*
X65634845Y-89985144D01*
X65634845Y-89985144D02*
X65606273Y-89870858D01*
X65606273Y-89870858D02*
X65577702Y-89813715D01*
X65577702Y-89813715D02*
X65549130Y-89785144D01*
X65549130Y-89785144D02*
X65491988Y-89756572D01*
X65491988Y-89756572D02*
X65434845Y-89756572D01*
X65434845Y-89756572D02*
X65377702Y-89785144D01*
X65377702Y-89785144D02*
X65349130Y-89813715D01*
X65349130Y-89813715D02*
X65320559Y-89870858D01*
X65320559Y-89870858D02*
X65320559Y-90013715D01*
X65320559Y-90013715D02*
X65349130Y-90099429D01*
X65920559Y-90356573D02*
X65320559Y-90356573D01*
X65320559Y-90356573D02*
X65320559Y-90499430D01*
X65320559Y-90499430D02*
X65349130Y-90585144D01*
X65349130Y-90585144D02*
X65406273Y-90642287D01*
X65406273Y-90642287D02*
X65463416Y-90670858D01*
X65463416Y-90670858D02*
X65577702Y-90699430D01*
X65577702Y-90699430D02*
X65663416Y-90699430D01*
X65663416Y-90699430D02*
X65777702Y-90670858D01*
X65777702Y-90670858D02*
X65834845Y-90642287D01*
X65834845Y-90642287D02*
X65891988Y-90585144D01*
X65891988Y-90585144D02*
X65920559Y-90499430D01*
X65920559Y-90499430D02*
X65920559Y-90356573D01*
X65749130Y-90928001D02*
X65749130Y-91213716D01*
X65920559Y-90870858D02*
X65320559Y-91070858D01*
X65320559Y-91070858D02*
X65920559Y-91270858D01*
X67113416Y-90128001D02*
X67141988Y-90099429D01*
X67141988Y-90099429D02*
X67170559Y-90013715D01*
X67170559Y-90013715D02*
X67170559Y-89956572D01*
X67170559Y-89956572D02*
X67141988Y-89870858D01*
X67141988Y-89870858D02*
X67084845Y-89813715D01*
X67084845Y-89813715D02*
X67027702Y-89785144D01*
X67027702Y-89785144D02*
X66913416Y-89756572D01*
X66913416Y-89756572D02*
X66827702Y-89756572D01*
X66827702Y-89756572D02*
X66713416Y-89785144D01*
X66713416Y-89785144D02*
X66656273Y-89813715D01*
X66656273Y-89813715D02*
X66599130Y-89870858D01*
X66599130Y-89870858D02*
X66570559Y-89956572D01*
X66570559Y-89956572D02*
X66570559Y-90013715D01*
X66570559Y-90013715D02*
X66599130Y-90099429D01*
X66599130Y-90099429D02*
X66627702Y-90128001D01*
X67141988Y-90356572D02*
X67170559Y-90442287D01*
X67170559Y-90442287D02*
X67170559Y-90585144D01*
X67170559Y-90585144D02*
X67141988Y-90642287D01*
X67141988Y-90642287D02*
X67113416Y-90670858D01*
X67113416Y-90670858D02*
X67056273Y-90699429D01*
X67056273Y-90699429D02*
X66999130Y-90699429D01*
X66999130Y-90699429D02*
X66941988Y-90670858D01*
X66941988Y-90670858D02*
X66913416Y-90642287D01*
X66913416Y-90642287D02*
X66884845Y-90585144D01*
X66884845Y-90585144D02*
X66856273Y-90470858D01*
X66856273Y-90470858D02*
X66827702Y-90413715D01*
X66827702Y-90413715D02*
X66799130Y-90385144D01*
X66799130Y-90385144D02*
X66741988Y-90356572D01*
X66741988Y-90356572D02*
X66684845Y-90356572D01*
X66684845Y-90356572D02*
X66627702Y-90385144D01*
X66627702Y-90385144D02*
X66599130Y-90413715D01*
X66599130Y-90413715D02*
X66570559Y-90470858D01*
X66570559Y-90470858D02*
X66570559Y-90613715D01*
X66570559Y-90613715D02*
X66599130Y-90699429D01*
X67820559Y-89699429D02*
X67820559Y-90042287D01*
X68420559Y-89870858D02*
X67820559Y-89870858D01*
X68420559Y-90242287D02*
X67820559Y-90242287D01*
X67820559Y-90242287D02*
X67820559Y-90470858D01*
X67820559Y-90470858D02*
X67849130Y-90528001D01*
X67849130Y-90528001D02*
X67877702Y-90556572D01*
X67877702Y-90556572D02*
X67934845Y-90585144D01*
X67934845Y-90585144D02*
X68020559Y-90585144D01*
X68020559Y-90585144D02*
X68077702Y-90556572D01*
X68077702Y-90556572D02*
X68106273Y-90528001D01*
X68106273Y-90528001D02*
X68134845Y-90470858D01*
X68134845Y-90470858D02*
X68134845Y-90242287D01*
X68191988Y-90842287D02*
X68191988Y-91299430D01*
X68391988Y-91556572D02*
X68420559Y-91642287D01*
X68420559Y-91642287D02*
X68420559Y-91785144D01*
X68420559Y-91785144D02*
X68391988Y-91842287D01*
X68391988Y-91842287D02*
X68363416Y-91870858D01*
X68363416Y-91870858D02*
X68306273Y-91899429D01*
X68306273Y-91899429D02*
X68249130Y-91899429D01*
X68249130Y-91899429D02*
X68191988Y-91870858D01*
X68191988Y-91870858D02*
X68163416Y-91842287D01*
X68163416Y-91842287D02*
X68134845Y-91785144D01*
X68134845Y-91785144D02*
X68106273Y-91670858D01*
X68106273Y-91670858D02*
X68077702Y-91613715D01*
X68077702Y-91613715D02*
X68049130Y-91585144D01*
X68049130Y-91585144D02*
X67991988Y-91556572D01*
X67991988Y-91556572D02*
X67934845Y-91556572D01*
X67934845Y-91556572D02*
X67877702Y-91585144D01*
X67877702Y-91585144D02*
X67849130Y-91613715D01*
X67849130Y-91613715D02*
X67820559Y-91670858D01*
X67820559Y-91670858D02*
X67820559Y-91813715D01*
X67820559Y-91813715D02*
X67849130Y-91899429D01*
X68363416Y-92499430D02*
X68391988Y-92470858D01*
X68391988Y-92470858D02*
X68420559Y-92385144D01*
X68420559Y-92385144D02*
X68420559Y-92328001D01*
X68420559Y-92328001D02*
X68391988Y-92242287D01*
X68391988Y-92242287D02*
X68334845Y-92185144D01*
X68334845Y-92185144D02*
X68277702Y-92156573D01*
X68277702Y-92156573D02*
X68163416Y-92128001D01*
X68163416Y-92128001D02*
X68077702Y-92128001D01*
X68077702Y-92128001D02*
X67963416Y-92156573D01*
X67963416Y-92156573D02*
X67906273Y-92185144D01*
X67906273Y-92185144D02*
X67849130Y-92242287D01*
X67849130Y-92242287D02*
X67820559Y-92328001D01*
X67820559Y-92328001D02*
X67820559Y-92385144D01*
X67820559Y-92385144D02*
X67849130Y-92470858D01*
X67849130Y-92470858D02*
X67877702Y-92499430D01*
X68420559Y-93042287D02*
X68420559Y-92756573D01*
X68420559Y-92756573D02*
X67820559Y-92756573D01*
X69070559Y-89699429D02*
X69070559Y-90042287D01*
X69670559Y-89870858D02*
X69070559Y-89870858D01*
X69670559Y-90242287D02*
X69070559Y-90242287D01*
X69070559Y-90242287D02*
X69070559Y-90470858D01*
X69070559Y-90470858D02*
X69099130Y-90528001D01*
X69099130Y-90528001D02*
X69127702Y-90556572D01*
X69127702Y-90556572D02*
X69184845Y-90585144D01*
X69184845Y-90585144D02*
X69270559Y-90585144D01*
X69270559Y-90585144D02*
X69327702Y-90556572D01*
X69327702Y-90556572D02*
X69356273Y-90528001D01*
X69356273Y-90528001D02*
X69384845Y-90470858D01*
X69384845Y-90470858D02*
X69384845Y-90242287D01*
X69441988Y-90842287D02*
X69441988Y-91299430D01*
X69070559Y-91499429D02*
X69070559Y-91842287D01*
X69670559Y-91670858D02*
X69070559Y-91670858D01*
X69670559Y-92385144D02*
X69384845Y-92185144D01*
X69670559Y-92042287D02*
X69070559Y-92042287D01*
X69070559Y-92042287D02*
X69070559Y-92270858D01*
X69070559Y-92270858D02*
X69099130Y-92328001D01*
X69099130Y-92328001D02*
X69127702Y-92356572D01*
X69127702Y-92356572D02*
X69184845Y-92385144D01*
X69184845Y-92385144D02*
X69270559Y-92385144D01*
X69270559Y-92385144D02*
X69327702Y-92356572D01*
X69327702Y-92356572D02*
X69356273Y-92328001D01*
X69356273Y-92328001D02*
X69384845Y-92270858D01*
X69384845Y-92270858D02*
X69384845Y-92042287D01*
X69641988Y-92613715D02*
X69670559Y-92699430D01*
X69670559Y-92699430D02*
X69670559Y-92842287D01*
X69670559Y-92842287D02*
X69641988Y-92899430D01*
X69641988Y-92899430D02*
X69613416Y-92928001D01*
X69613416Y-92928001D02*
X69556273Y-92956572D01*
X69556273Y-92956572D02*
X69499130Y-92956572D01*
X69499130Y-92956572D02*
X69441988Y-92928001D01*
X69441988Y-92928001D02*
X69413416Y-92899430D01*
X69413416Y-92899430D02*
X69384845Y-92842287D01*
X69384845Y-92842287D02*
X69356273Y-92728001D01*
X69356273Y-92728001D02*
X69327702Y-92670858D01*
X69327702Y-92670858D02*
X69299130Y-92642287D01*
X69299130Y-92642287D02*
X69241988Y-92613715D01*
X69241988Y-92613715D02*
X69184845Y-92613715D01*
X69184845Y-92613715D02*
X69127702Y-92642287D01*
X69127702Y-92642287D02*
X69099130Y-92670858D01*
X69099130Y-92670858D02*
X69070559Y-92728001D01*
X69070559Y-92728001D02*
X69070559Y-92870858D01*
X69070559Y-92870858D02*
X69099130Y-92956572D01*
X69070559Y-93128001D02*
X69070559Y-93470859D01*
X69670559Y-93299430D02*
X69070559Y-93299430D01*
D11*
%TO.C,D2*%
X138815788Y-165370000D02*
X138815788Y-161470000D01*
D12*
X139815788Y-162870000D02*
X139815788Y-162370000D01*
X139815788Y-163470000D02*
X139265788Y-163470000D01*
X139815788Y-163470000D02*
X140365788Y-163470000D01*
X139815788Y-163870000D02*
X139815788Y-163470000D01*
D11*
X140815788Y-165370000D02*
X138815788Y-165370000D01*
X140815788Y-165370000D02*
X140815788Y-161470000D01*
D12*
X139815788Y-163470000D02*
X139315788Y-162870000D01*
X140315788Y-162870000D01*
X139815788Y-163470000D01*
G36*
X139815788Y-163470000D02*
G01*
X139315788Y-162870000D01*
X140315788Y-162870000D01*
X139815788Y-163470000D01*
G37*
D11*
%TO.C,D16*%
X142625788Y-129320000D02*
X142625788Y-133220000D01*
X142625788Y-129320000D02*
X144625788Y-129320000D01*
D12*
X143625788Y-130820000D02*
X143625788Y-131220000D01*
X143625788Y-131220000D02*
X143075788Y-131220000D01*
X143625788Y-131220000D02*
X144175788Y-131220000D01*
X143625788Y-131820000D02*
X143625788Y-132320000D01*
D11*
X144625788Y-129320000D02*
X144625788Y-133220000D01*
D12*
X144125788Y-131820000D02*
X143125788Y-131820000D01*
X143625788Y-131220000D01*
X144125788Y-131820000D01*
G36*
X144125788Y-131820000D02*
G01*
X143125788Y-131820000D01*
X143625788Y-131220000D01*
X144125788Y-131820000D01*
G37*
D11*
%TO.C,J2*%
X56655788Y-122750000D02*
X57995788Y-122750000D01*
X56655788Y-124240000D02*
X56655788Y-122750000D01*
X56655788Y-133560000D02*
X55455788Y-133560000D01*
X56655788Y-133560000D02*
X56655788Y-135050000D01*
X56655788Y-135050000D02*
X57995788Y-135050000D01*
X60715788Y-122750000D02*
X62455788Y-122750000D01*
X62455788Y-122750000D02*
X62455788Y-135050000D01*
X62455788Y-135050000D02*
X60715788Y-135050000D01*
%TO.C,D6*%
X145165788Y-129320000D02*
X145165788Y-133220000D01*
X145165788Y-129320000D02*
X147165788Y-129320000D01*
D12*
X146165788Y-130820000D02*
X146165788Y-131220000D01*
X146165788Y-131220000D02*
X145615788Y-131220000D01*
X146165788Y-131220000D02*
X146715788Y-131220000D01*
X146165788Y-131820000D02*
X146165788Y-132320000D01*
D11*
X147165788Y-129320000D02*
X147165788Y-133220000D01*
D12*
X146665788Y-131820000D02*
X145665788Y-131820000D01*
X146165788Y-131220000D01*
X146665788Y-131820000D01*
G36*
X146665788Y-131820000D02*
G01*
X145665788Y-131820000D01*
X146165788Y-131220000D01*
X146665788Y-131820000D01*
G37*
D11*
%TO.C,D7*%
X147705788Y-129320000D02*
X147705788Y-133220000D01*
X147705788Y-129320000D02*
X149705788Y-129320000D01*
D12*
X148705788Y-130820000D02*
X148705788Y-131220000D01*
X148705788Y-131220000D02*
X148155788Y-131220000D01*
X148705788Y-131220000D02*
X149255788Y-131220000D01*
X148705788Y-131820000D02*
X148705788Y-132320000D01*
D11*
X149705788Y-129320000D02*
X149705788Y-133220000D01*
D12*
X149205788Y-131820000D02*
X148205788Y-131820000D01*
X148705788Y-131220000D01*
X149205788Y-131820000D01*
G36*
X149205788Y-131820000D02*
G01*
X148205788Y-131820000D01*
X148705788Y-131220000D01*
X149205788Y-131820000D01*
G37*
D11*
%TO.C,J7*%
X60790788Y-161140000D02*
X60790788Y-159690000D01*
X62590788Y-161140000D02*
X60790788Y-161140000D01*
X62590788Y-162130000D02*
X62590788Y-161140000D01*
X69960788Y-161140000D02*
X71760788Y-161140000D01*
X70490788Y-156870000D02*
X62060788Y-156870000D01*
X71760788Y-161140000D02*
X71760788Y-159690000D01*
%TO.C,C1*%
X57165788Y-144790000D02*
X59165788Y-144790000D01*
X57165788Y-149290000D02*
X57165788Y-144790000D01*
X57315788Y-147540000D02*
X57315788Y-146540000D01*
X57815788Y-146890000D02*
X58515788Y-146890000D01*
X57815788Y-147190000D02*
X58515788Y-147190000D01*
X58165788Y-146890000D02*
X58165788Y-146615000D01*
X58165788Y-147240000D02*
X58165788Y-147465000D01*
X59015788Y-146540000D02*
X59015788Y-147540000D01*
X59165788Y-144790000D02*
X59165788Y-149290000D01*
X59165788Y-149290000D02*
X57165788Y-149290000D01*
%TO.C,A1*%
X79745788Y-154660000D02*
X79745788Y-156660000D01*
X79745788Y-154660000D02*
X101145788Y-154660000D01*
X79745788Y-156660000D02*
X101145788Y-156660000D01*
X93345788Y-149660000D02*
X93345788Y-152160000D01*
X93345788Y-152160000D02*
X101145788Y-152160000D01*
X93345788Y-159160000D02*
X93345788Y-161660000D01*
X93345788Y-159160000D02*
X101145788Y-159160000D01*
X101145788Y-152160000D02*
X101145788Y-154660000D01*
X101145788Y-156660000D02*
X101145788Y-159160000D01*
X101845788Y-152160000D02*
X101845788Y-154660000D01*
X101845788Y-152160000D02*
X102345788Y-152160000D01*
X101845788Y-156660000D02*
X101845788Y-159160000D01*
X101845788Y-159160000D02*
X102345788Y-159160000D01*
X102345788Y-149660000D02*
X93345788Y-149660000D01*
X102345788Y-152160000D02*
X102345788Y-149660000D01*
X102345788Y-161660000D02*
X93345788Y-161660000D01*
X102345788Y-161660000D02*
X102345788Y-159160000D01*
X102745788Y-154660000D02*
X101845788Y-154660000D01*
X102745788Y-154660000D02*
X102745788Y-156660000D01*
X102745788Y-156660000D02*
X101845788Y-156660000D01*
X104545788Y-149160000D02*
X104545788Y-162160000D01*
X105545788Y-151160000D02*
X105545788Y-152160000D01*
X105545788Y-151160000D02*
X114045788Y-151160000D01*
X105545788Y-159160000D02*
X105545788Y-160160000D01*
X114045788Y-149160000D02*
X104545788Y-149160000D01*
X114045788Y-151160000D02*
X114045788Y-149160000D01*
X114045788Y-160160000D02*
X105545788Y-160160000D01*
X114045788Y-160160000D02*
X114045788Y-162160000D01*
X114045788Y-162160000D02*
X104545788Y-162160000D01*
X116945788Y-149160000D02*
X116945788Y-152160000D01*
X116945788Y-152160000D02*
X105545788Y-152160000D01*
X116945788Y-159160000D02*
X105545788Y-159160000D01*
X116945788Y-159160000D02*
X116945788Y-162160000D01*
X124945788Y-149160000D02*
X116945788Y-149160000D01*
X124945788Y-149160000D02*
X124945788Y-162160000D01*
X124945788Y-162160000D02*
X116945788Y-162160000D01*
%TO.C,D4*%
X143895788Y-165370000D02*
X143895788Y-161470000D01*
D12*
X144895788Y-162870000D02*
X144895788Y-162370000D01*
X144895788Y-163470000D02*
X144345788Y-163470000D01*
X144895788Y-163470000D02*
X145445788Y-163470000D01*
X144895788Y-163870000D02*
X144895788Y-163470000D01*
D11*
X145895788Y-165370000D02*
X143895788Y-165370000D01*
X145895788Y-165370000D02*
X145895788Y-161470000D01*
D12*
X144895788Y-163470000D02*
X144395788Y-162870000D01*
X145395788Y-162870000D01*
X144895788Y-163470000D01*
G36*
X144895788Y-163470000D02*
G01*
X144395788Y-162870000D01*
X145395788Y-162870000D01*
X144895788Y-163470000D01*
G37*
D11*
%TO.C,D5*%
X146435788Y-165370000D02*
X146435788Y-161470000D01*
D12*
X147435788Y-162870000D02*
X147435788Y-162370000D01*
X147435788Y-163470000D02*
X146885788Y-163470000D01*
X147435788Y-163470000D02*
X147985788Y-163470000D01*
X147435788Y-163870000D02*
X147435788Y-163470000D01*
D11*
X148435788Y-165370000D02*
X146435788Y-165370000D01*
X148435788Y-165370000D02*
X148435788Y-161470000D01*
D12*
X147435788Y-163470000D02*
X146935788Y-162870000D01*
X147935788Y-162870000D01*
X147435788Y-163470000D01*
G36*
X147435788Y-163470000D02*
G01*
X146935788Y-162870000D01*
X147935788Y-162870000D01*
X147435788Y-163470000D01*
G37*
D11*
%TO.C,J4*%
X138135788Y-154360000D02*
X138135788Y-152910000D01*
X139935788Y-154360000D02*
X138135788Y-154360000D01*
X139935788Y-155350000D02*
X139935788Y-154360000D01*
X147305788Y-154360000D02*
X149105788Y-154360000D01*
X147835788Y-150090000D02*
X139405788Y-150090000D01*
X149105788Y-154360000D02*
X149105788Y-152910000D01*
%TO.C,J6*%
X47535788Y-161140000D02*
X47535788Y-159690000D01*
X49335788Y-161140000D02*
X47535788Y-161140000D01*
X49335788Y-162130000D02*
X49335788Y-161140000D01*
X56705788Y-161140000D02*
X58505788Y-161140000D01*
X57235788Y-156870000D02*
X48805788Y-156870000D01*
X58505788Y-161140000D02*
X58505788Y-159690000D01*
%TO.C,D14*%
X154055788Y-129320000D02*
X154055788Y-133220000D01*
X154055788Y-129320000D02*
X156055788Y-129320000D01*
D12*
X155055788Y-130820000D02*
X155055788Y-131220000D01*
X155055788Y-131220000D02*
X154505788Y-131220000D01*
X155055788Y-131220000D02*
X155605788Y-131220000D01*
X155055788Y-131820000D02*
X155055788Y-132320000D01*
D11*
X156055788Y-129320000D02*
X156055788Y-133220000D01*
D12*
X155555788Y-131820000D02*
X154555788Y-131820000D01*
X155055788Y-131220000D01*
X155555788Y-131820000D01*
G36*
X155555788Y-131820000D02*
G01*
X154555788Y-131820000D01*
X155055788Y-131220000D01*
X155555788Y-131820000D01*
G37*
D11*
%TO.C,J8*%
X151385788Y-154360000D02*
X151385788Y-152910000D01*
X153185788Y-154360000D02*
X151385788Y-154360000D01*
X153185788Y-155350000D02*
X153185788Y-154360000D01*
X163055788Y-154360000D02*
X164855788Y-154360000D01*
X163585788Y-150090000D02*
X152655788Y-150090000D01*
X164855788Y-154360000D02*
X164855788Y-152910000D01*
%TO.C,D3*%
X141355788Y-165370000D02*
X141355788Y-161470000D01*
D12*
X142355788Y-162870000D02*
X142355788Y-162370000D01*
X142355788Y-163470000D02*
X141805788Y-163470000D01*
X142355788Y-163470000D02*
X142905788Y-163470000D01*
X142355788Y-163870000D02*
X142355788Y-163470000D01*
D11*
X143355788Y-165370000D02*
X141355788Y-165370000D01*
X143355788Y-165370000D02*
X143355788Y-161470000D01*
D12*
X142355788Y-163470000D02*
X141855788Y-162870000D01*
X142855788Y-162870000D01*
X142355788Y-163470000D01*
G36*
X142355788Y-163470000D02*
G01*
X141855788Y-162870000D01*
X142855788Y-162870000D01*
X142355788Y-163470000D01*
G37*
D11*
%TO.C,D15*%
X140085788Y-129320000D02*
X140085788Y-133220000D01*
X140085788Y-129320000D02*
X142085788Y-129320000D01*
D12*
X141085788Y-130820000D02*
X141085788Y-131220000D01*
X141085788Y-131220000D02*
X140535788Y-131220000D01*
X141085788Y-131220000D02*
X141635788Y-131220000D01*
X141085788Y-131820000D02*
X141085788Y-132320000D01*
D11*
X142085788Y-129320000D02*
X142085788Y-133220000D01*
D12*
X141585788Y-131820000D02*
X140585788Y-131820000D01*
X141085788Y-131220000D01*
X141585788Y-131820000D01*
G36*
X141585788Y-131820000D02*
G01*
X140585788Y-131820000D01*
X141085788Y-131220000D01*
X141585788Y-131820000D01*
G37*
D11*
%TO.C,D13*%
X151515788Y-165370000D02*
X151515788Y-161470000D01*
D12*
X152515788Y-162870000D02*
X152515788Y-162370000D01*
X152515788Y-163470000D02*
X151965788Y-163470000D01*
X152515788Y-163470000D02*
X153065788Y-163470000D01*
X152515788Y-163870000D02*
X152515788Y-163470000D01*
D11*
X153515788Y-165370000D02*
X151515788Y-165370000D01*
X153515788Y-165370000D02*
X153515788Y-161470000D01*
D12*
X152515788Y-163470000D02*
X152015788Y-162870000D01*
X153015788Y-162870000D01*
X152515788Y-163470000D01*
G36*
X152515788Y-163470000D02*
G01*
X152015788Y-162870000D01*
X153015788Y-162870000D01*
X152515788Y-163470000D01*
G37*
D11*
%TO.C,D12*%
X148975788Y-165370000D02*
X148975788Y-161470000D01*
D12*
X149975788Y-162870000D02*
X149975788Y-162370000D01*
X149975788Y-163470000D02*
X149425788Y-163470000D01*
X149975788Y-163470000D02*
X150525788Y-163470000D01*
X149975788Y-163870000D02*
X149975788Y-163470000D01*
D11*
X150975788Y-165370000D02*
X148975788Y-165370000D01*
X150975788Y-165370000D02*
X150975788Y-161470000D01*
D12*
X149975788Y-163470000D02*
X149475788Y-162870000D01*
X150475788Y-162870000D01*
X149975788Y-163470000D01*
G36*
X149975788Y-163470000D02*
G01*
X149475788Y-162870000D01*
X150475788Y-162870000D01*
X149975788Y-163470000D01*
G37*
D11*
%TO.C,R3*%
X45300788Y-111930000D02*
X50000788Y-111930000D01*
X45300788Y-113930000D02*
X45300788Y-111930000D01*
D13*
X47200788Y-113130000D02*
X47400788Y-112680000D01*
X47400788Y-112680000D02*
X47650788Y-113180000D01*
X47650788Y-113180000D02*
X47900788Y-112680000D01*
X47900788Y-112680000D02*
X48100788Y-113130000D01*
D11*
X50000788Y-111930000D02*
X50000788Y-113930000D01*
X50000788Y-113930000D02*
X45300788Y-113930000D01*
%TO.C,D13*%
X151515788Y-92370000D02*
X151515788Y-88470000D01*
D12*
X152515788Y-89870000D02*
X152515788Y-89370000D01*
X152515788Y-90470000D02*
X151965788Y-90470000D01*
X152515788Y-90470000D02*
X153065788Y-90470000D01*
X152515788Y-90870000D02*
X152515788Y-90470000D01*
D11*
X153515788Y-92370000D02*
X151515788Y-92370000D01*
X153515788Y-92370000D02*
X153515788Y-88470000D01*
D12*
X152515788Y-90470000D02*
X152015788Y-89870000D01*
X153015788Y-89870000D01*
X152515788Y-90470000D01*
G36*
X152515788Y-90470000D02*
G01*
X152015788Y-89870000D01*
X153015788Y-89870000D01*
X152515788Y-90470000D01*
G37*
D11*
%TO.C,D12*%
X148975788Y-92370000D02*
X148975788Y-88470000D01*
D12*
X149975788Y-89870000D02*
X149975788Y-89370000D01*
X149975788Y-90470000D02*
X149425788Y-90470000D01*
X149975788Y-90470000D02*
X150525788Y-90470000D01*
X149975788Y-90870000D02*
X149975788Y-90470000D01*
D11*
X150975788Y-92370000D02*
X148975788Y-92370000D01*
X150975788Y-92370000D02*
X150975788Y-88470000D01*
D12*
X149975788Y-90470000D02*
X149475788Y-89870000D01*
X150475788Y-89870000D01*
X149975788Y-90470000D01*
G36*
X149975788Y-90470000D02*
G01*
X149475788Y-89870000D01*
X150475788Y-89870000D01*
X149975788Y-90470000D01*
G37*
D11*
%TO.C,D15*%
X140085788Y-56320000D02*
X140085788Y-60220000D01*
X140085788Y-56320000D02*
X142085788Y-56320000D01*
D12*
X141085788Y-57820000D02*
X141085788Y-58220000D01*
X141085788Y-58220000D02*
X140535788Y-58220000D01*
X141085788Y-58220000D02*
X141635788Y-58220000D01*
X141085788Y-58820000D02*
X141085788Y-59320000D01*
D11*
X142085788Y-56320000D02*
X142085788Y-60220000D01*
D12*
X141585788Y-58820000D02*
X140585788Y-58820000D01*
X141085788Y-58220000D01*
X141585788Y-58820000D01*
G36*
X141585788Y-58820000D02*
G01*
X140585788Y-58820000D01*
X141085788Y-58220000D01*
X141585788Y-58820000D01*
G37*
D11*
%TO.C,J6*%
X47535788Y-88140000D02*
X47535788Y-86690000D01*
X49335788Y-88140000D02*
X47535788Y-88140000D01*
X49335788Y-89130000D02*
X49335788Y-88140000D01*
X56705788Y-88140000D02*
X58505788Y-88140000D01*
X57235788Y-83870000D02*
X48805788Y-83870000D01*
X58505788Y-88140000D02*
X58505788Y-86690000D01*
%TO.C,D3*%
X141355788Y-92370000D02*
X141355788Y-88470000D01*
D12*
X142355788Y-89870000D02*
X142355788Y-89370000D01*
X142355788Y-90470000D02*
X141805788Y-90470000D01*
X142355788Y-90470000D02*
X142905788Y-90470000D01*
X142355788Y-90870000D02*
X142355788Y-90470000D01*
D11*
X143355788Y-92370000D02*
X141355788Y-92370000D01*
X143355788Y-92370000D02*
X143355788Y-88470000D01*
D12*
X142355788Y-90470000D02*
X141855788Y-89870000D01*
X142855788Y-89870000D01*
X142355788Y-90470000D01*
G36*
X142355788Y-90470000D02*
G01*
X141855788Y-89870000D01*
X142855788Y-89870000D01*
X142355788Y-90470000D01*
G37*
D11*
%TO.C,D14*%
X154055788Y-56320000D02*
X154055788Y-60220000D01*
X154055788Y-56320000D02*
X156055788Y-56320000D01*
D12*
X155055788Y-57820000D02*
X155055788Y-58220000D01*
X155055788Y-58220000D02*
X154505788Y-58220000D01*
X155055788Y-58220000D02*
X155605788Y-58220000D01*
X155055788Y-58820000D02*
X155055788Y-59320000D01*
D11*
X156055788Y-56320000D02*
X156055788Y-60220000D01*
D12*
X155555788Y-58820000D02*
X154555788Y-58820000D01*
X155055788Y-58220000D01*
X155555788Y-58820000D01*
G36*
X155555788Y-58820000D02*
G01*
X154555788Y-58820000D01*
X155055788Y-58220000D01*
X155555788Y-58820000D01*
G37*
D11*
%TO.C,J8*%
X151385788Y-81360000D02*
X151385788Y-79910000D01*
X153185788Y-81360000D02*
X151385788Y-81360000D01*
X153185788Y-82350000D02*
X153185788Y-81360000D01*
X163055788Y-81360000D02*
X164855788Y-81360000D01*
X163585788Y-77090000D02*
X152655788Y-77090000D01*
X164855788Y-81360000D02*
X164855788Y-79910000D01*
%TO.C,J4*%
X138135788Y-81360000D02*
X138135788Y-79910000D01*
X139935788Y-81360000D02*
X138135788Y-81360000D01*
X139935788Y-82350000D02*
X139935788Y-81360000D01*
X147305788Y-81360000D02*
X149105788Y-81360000D01*
X147835788Y-77090000D02*
X139405788Y-77090000D01*
X149105788Y-81360000D02*
X149105788Y-79910000D01*
%TO.C,R3*%
X45300788Y-38930000D02*
X50000788Y-38930000D01*
X45300788Y-40930000D02*
X45300788Y-38930000D01*
D13*
X47200788Y-40130000D02*
X47400788Y-39680000D01*
X47400788Y-39680000D02*
X47650788Y-40180000D01*
X47650788Y-40180000D02*
X47900788Y-39680000D01*
X47900788Y-39680000D02*
X48100788Y-40130000D01*
D11*
X50000788Y-38930000D02*
X50000788Y-40930000D01*
X50000788Y-40930000D02*
X45300788Y-40930000D01*
%TO.C,C1*%
X57165788Y-71790000D02*
X59165788Y-71790000D01*
X57165788Y-76290000D02*
X57165788Y-71790000D01*
X57315788Y-74540000D02*
X57315788Y-73540000D01*
X57815788Y-73890000D02*
X58515788Y-73890000D01*
X57815788Y-74190000D02*
X58515788Y-74190000D01*
X58165788Y-73890000D02*
X58165788Y-73615000D01*
X58165788Y-74240000D02*
X58165788Y-74465000D01*
X59015788Y-73540000D02*
X59015788Y-74540000D01*
X59165788Y-71790000D02*
X59165788Y-76290000D01*
X59165788Y-76290000D02*
X57165788Y-76290000D01*
%TO.C,J2*%
X56655788Y-49750000D02*
X57995788Y-49750000D01*
X56655788Y-51240000D02*
X56655788Y-49750000D01*
X56655788Y-60560000D02*
X55455788Y-60560000D01*
X56655788Y-60560000D02*
X56655788Y-62050000D01*
X56655788Y-62050000D02*
X57995788Y-62050000D01*
X60715788Y-49750000D02*
X62455788Y-49750000D01*
X62455788Y-49750000D02*
X62455788Y-62050000D01*
X62455788Y-62050000D02*
X60715788Y-62050000D01*
%TO.C,A1*%
X79745788Y-81660000D02*
X79745788Y-83660000D01*
X79745788Y-81660000D02*
X101145788Y-81660000D01*
X79745788Y-83660000D02*
X101145788Y-83660000D01*
X93345788Y-76660000D02*
X93345788Y-79160000D01*
X93345788Y-79160000D02*
X101145788Y-79160000D01*
X93345788Y-86160000D02*
X93345788Y-88660000D01*
X93345788Y-86160000D02*
X101145788Y-86160000D01*
X101145788Y-79160000D02*
X101145788Y-81660000D01*
X101145788Y-83660000D02*
X101145788Y-86160000D01*
X101845788Y-79160000D02*
X101845788Y-81660000D01*
X101845788Y-79160000D02*
X102345788Y-79160000D01*
X101845788Y-83660000D02*
X101845788Y-86160000D01*
X101845788Y-86160000D02*
X102345788Y-86160000D01*
X102345788Y-76660000D02*
X93345788Y-76660000D01*
X102345788Y-79160000D02*
X102345788Y-76660000D01*
X102345788Y-88660000D02*
X93345788Y-88660000D01*
X102345788Y-88660000D02*
X102345788Y-86160000D01*
X102745788Y-81660000D02*
X101845788Y-81660000D01*
X102745788Y-81660000D02*
X102745788Y-83660000D01*
X102745788Y-83660000D02*
X101845788Y-83660000D01*
X104545788Y-76160000D02*
X104545788Y-89160000D01*
X105545788Y-78160000D02*
X105545788Y-79160000D01*
X105545788Y-78160000D02*
X114045788Y-78160000D01*
X105545788Y-86160000D02*
X105545788Y-87160000D01*
X114045788Y-76160000D02*
X104545788Y-76160000D01*
X114045788Y-78160000D02*
X114045788Y-76160000D01*
X114045788Y-87160000D02*
X105545788Y-87160000D01*
X114045788Y-87160000D02*
X114045788Y-89160000D01*
X114045788Y-89160000D02*
X104545788Y-89160000D01*
X116945788Y-76160000D02*
X116945788Y-79160000D01*
X116945788Y-79160000D02*
X105545788Y-79160000D01*
X116945788Y-86160000D02*
X105545788Y-86160000D01*
X116945788Y-86160000D02*
X116945788Y-89160000D01*
X124945788Y-76160000D02*
X116945788Y-76160000D01*
X124945788Y-76160000D02*
X124945788Y-89160000D01*
X124945788Y-89160000D02*
X116945788Y-89160000D01*
%TO.C,D6*%
X145165788Y-56320000D02*
X145165788Y-60220000D01*
X145165788Y-56320000D02*
X147165788Y-56320000D01*
D12*
X146165788Y-57820000D02*
X146165788Y-58220000D01*
X146165788Y-58220000D02*
X145615788Y-58220000D01*
X146165788Y-58220000D02*
X146715788Y-58220000D01*
X146165788Y-58820000D02*
X146165788Y-59320000D01*
D11*
X147165788Y-56320000D02*
X147165788Y-60220000D01*
D12*
X146665788Y-58820000D02*
X145665788Y-58820000D01*
X146165788Y-58220000D01*
X146665788Y-58820000D01*
G36*
X146665788Y-58820000D02*
G01*
X145665788Y-58820000D01*
X146165788Y-58220000D01*
X146665788Y-58820000D01*
G37*
D11*
%TO.C,D16*%
X142625788Y-56320000D02*
X142625788Y-60220000D01*
X142625788Y-56320000D02*
X144625788Y-56320000D01*
D12*
X143625788Y-57820000D02*
X143625788Y-58220000D01*
X143625788Y-58220000D02*
X143075788Y-58220000D01*
X143625788Y-58220000D02*
X144175788Y-58220000D01*
X143625788Y-58820000D02*
X143625788Y-59320000D01*
D11*
X144625788Y-56320000D02*
X144625788Y-60220000D01*
D12*
X144125788Y-58820000D02*
X143125788Y-58820000D01*
X143625788Y-58220000D01*
X144125788Y-58820000D01*
G36*
X144125788Y-58820000D02*
G01*
X143125788Y-58820000D01*
X143625788Y-58220000D01*
X144125788Y-58820000D01*
G37*
D11*
%TO.C,D7*%
X147705788Y-56320000D02*
X147705788Y-60220000D01*
X147705788Y-56320000D02*
X149705788Y-56320000D01*
D12*
X148705788Y-57820000D02*
X148705788Y-58220000D01*
X148705788Y-58220000D02*
X148155788Y-58220000D01*
X148705788Y-58220000D02*
X149255788Y-58220000D01*
X148705788Y-58820000D02*
X148705788Y-59320000D01*
D11*
X149705788Y-56320000D02*
X149705788Y-60220000D01*
D12*
X149205788Y-58820000D02*
X148205788Y-58820000D01*
X148705788Y-58220000D01*
X149205788Y-58820000D01*
G36*
X149205788Y-58820000D02*
G01*
X148205788Y-58820000D01*
X148705788Y-58220000D01*
X149205788Y-58820000D01*
G37*
D11*
%TO.C,D5*%
X146435788Y-92370000D02*
X146435788Y-88470000D01*
D12*
X147435788Y-89870000D02*
X147435788Y-89370000D01*
X147435788Y-90470000D02*
X146885788Y-90470000D01*
X147435788Y-90470000D02*
X147985788Y-90470000D01*
X147435788Y-90870000D02*
X147435788Y-90470000D01*
D11*
X148435788Y-92370000D02*
X146435788Y-92370000D01*
X148435788Y-92370000D02*
X148435788Y-88470000D01*
D12*
X147435788Y-90470000D02*
X146935788Y-89870000D01*
X147935788Y-89870000D01*
X147435788Y-90470000D01*
G36*
X147435788Y-90470000D02*
G01*
X146935788Y-89870000D01*
X147935788Y-89870000D01*
X147435788Y-90470000D01*
G37*
D11*
%TO.C,D2*%
X138815788Y-92370000D02*
X138815788Y-88470000D01*
D12*
X139815788Y-89870000D02*
X139815788Y-89370000D01*
X139815788Y-90470000D02*
X139265788Y-90470000D01*
X139815788Y-90470000D02*
X140365788Y-90470000D01*
X139815788Y-90870000D02*
X139815788Y-90470000D01*
D11*
X140815788Y-92370000D02*
X138815788Y-92370000D01*
X140815788Y-92370000D02*
X140815788Y-88470000D01*
D12*
X139815788Y-90470000D02*
X139315788Y-89870000D01*
X140315788Y-89870000D01*
X139815788Y-90470000D01*
G36*
X139815788Y-90470000D02*
G01*
X139315788Y-89870000D01*
X140315788Y-89870000D01*
X139815788Y-90470000D01*
G37*
D11*
%TO.C,J7*%
X60790788Y-88140000D02*
X60790788Y-86690000D01*
X62590788Y-88140000D02*
X60790788Y-88140000D01*
X62590788Y-89130000D02*
X62590788Y-88140000D01*
X69960788Y-88140000D02*
X71760788Y-88140000D01*
X70490788Y-83870000D02*
X62060788Y-83870000D01*
X71760788Y-88140000D02*
X71760788Y-86690000D01*
%TO.C,D4*%
X143895788Y-92370000D02*
X143895788Y-88470000D01*
D12*
X144895788Y-89870000D02*
X144895788Y-89370000D01*
X144895788Y-90470000D02*
X144345788Y-90470000D01*
X144895788Y-90470000D02*
X145445788Y-90470000D01*
X144895788Y-90870000D02*
X144895788Y-90470000D01*
D11*
X145895788Y-92370000D02*
X143895788Y-92370000D01*
X145895788Y-92370000D02*
X145895788Y-88470000D01*
D12*
X144895788Y-90470000D02*
X144395788Y-89870000D01*
X145395788Y-89870000D01*
X144895788Y-90470000D01*
G36*
X144895788Y-90470000D02*
G01*
X144395788Y-89870000D01*
X145395788Y-89870000D01*
X144895788Y-90470000D01*
G37*
%TD*%
M02*
