%TF.GenerationSoftware,KiCad,Pcbnew,7.0.1*%
%TF.CreationDate,2023-05-27T10:06:56+09:00*%
%TF.ProjectId,Lift Cover Board,4c696674-2043-46f7-9665-7220426f6172,rev?*%
%TF.SameCoordinates,Original*%
%TF.FileFunction,Legend,Top*%
%TF.FilePolarity,Positive*%
%FSLAX46Y46*%
G04 Gerber Fmt 4.6, Leading zero omitted, Abs format (unit mm)*
G04 Created by KiCad (PCBNEW 7.0.1) date 2023-05-27 10:06:56*
%MOMM*%
%LPD*%
G01*
G04 APERTURE LIST*
%ADD10C,0.668276*%
%ADD11C,0.120000*%
%ADD12C,1.000000*%
%ADD13C,0.750000*%
%ADD14C,0.300000*%
%ADD15C,0.500000*%
%ADD16C,1.500000*%
%ADD17C,0.400000*%
%ADD18C,0.150000*%
%ADD19C,0.200000*%
%ADD20C,0.010000*%
G04 APERTURE END LIST*
D10*
X195404137Y-330257409D02*
G75*
G03*
X195404137Y-330257409I-334138J0D01*
G01*
X95204138Y-122250001D02*
G75*
G03*
X95204138Y-122250001I-334138J0D01*
G01*
X204144138Y-122342592D02*
G75*
G03*
X204144138Y-122342592I-334138J0D01*
G01*
D11*
X126659999Y-312391596D02*
X172179999Y-312391596D01*
X172179999Y-331861596D01*
X126659999Y-331861596D01*
X126659999Y-312391596D01*
D10*
X274739138Y-122340129D02*
G75*
G03*
X274739138Y-122340129I-334138J0D01*
G01*
X279684138Y-122307629D02*
G75*
G03*
X279684138Y-122307629I-334138J0D01*
G01*
X190449137Y-330215685D02*
G75*
G03*
X190449137Y-330215685I-334138J0D01*
G01*
D11*
X128800000Y-120618405D02*
X174320000Y-120618405D01*
X174320000Y-140088405D01*
X128800000Y-140088405D01*
X128800000Y-120618405D01*
D10*
X299389137Y-330308276D02*
G75*
G03*
X299389137Y-330308276I-334138J0D01*
G01*
X140864137Y-330241596D02*
G75*
G03*
X140864137Y-330241596I-334138J0D01*
G01*
D11*
X181199999Y-312407409D02*
X226719999Y-312407409D01*
X226719999Y-331877409D01*
X181199999Y-331877409D01*
X181199999Y-312407409D01*
X74320000Y-120570001D02*
X119840000Y-120570001D01*
X119840000Y-140040001D01*
X74320000Y-140040001D01*
X74320000Y-120570001D01*
D10*
X82204138Y-122261725D02*
G75*
G03*
X82204138Y-122261725I-334138J0D01*
G01*
X185504137Y-330248185D02*
G75*
G03*
X185504137Y-330248185I-334138J0D01*
G01*
X245684138Y-122370129D02*
G75*
G03*
X245684138Y-122370129I-334138J0D01*
G01*
X106304138Y-122190001D02*
G75*
G03*
X106304138Y-122190001I-334138J0D01*
G01*
X130964137Y-330232372D02*
G75*
G03*
X130964137Y-330232372I-334138J0D01*
G01*
X260964137Y-330241596D02*
G75*
G03*
X260964137Y-330241596I-334138J0D01*
G01*
X315444137Y-330290000D02*
G75*
G03*
X315444137Y-330290000I-334138J0D01*
G01*
X111259138Y-122231725D02*
G75*
G03*
X111259138Y-122231725I-334138J0D01*
G01*
X136684138Y-122310129D02*
G75*
G03*
X136684138Y-122310129I-334138J0D01*
G01*
X219504137Y-330185685D02*
G75*
G03*
X219504137Y-330185685I-334138J0D01*
G01*
X116204138Y-122199225D02*
G75*
G03*
X116204138Y-122199225I-334138J0D01*
G01*
X249864137Y-330301596D02*
G75*
G03*
X249864137Y-330301596I-334138J0D01*
G01*
X258684138Y-122358405D02*
G75*
G03*
X258684138Y-122358405I-334138J0D01*
G01*
X215244138Y-122282592D02*
G75*
G03*
X215244138Y-122282592I-334138J0D01*
G01*
X220199138Y-122324316D02*
G75*
G03*
X220199138Y-122324316I-334138J0D01*
G01*
X328444137Y-330278276D02*
G75*
G03*
X328444137Y-330278276I-334138J0D01*
G01*
X239964137Y-330292372D02*
G75*
G03*
X239964137Y-330292372I-334138J0D01*
G01*
D11*
X237800000Y-120678405D02*
X283320000Y-120678405D01*
X283320000Y-140148405D01*
X237800000Y-140148405D01*
X237800000Y-120678405D01*
D10*
X170684138Y-122247629D02*
G75*
G03*
X170684138Y-122247629I-334138J0D01*
G01*
X164964137Y-330169872D02*
G75*
G03*
X164964137Y-330169872I-334138J0D01*
G01*
D12*
X332390000Y-133870001D02*
G75*
G03*
X332390000Y-133870001I-8000000J0D01*
G01*
D10*
X294444137Y-330340776D02*
G75*
G03*
X294444137Y-330340776I-334138J0D01*
G01*
X149684138Y-122298405D02*
G75*
G03*
X149684138Y-122298405I-334138J0D01*
G01*
X206504137Y-330197409D02*
G75*
G03*
X206504137Y-330197409I-334138J0D01*
G01*
X160784138Y-122238405D02*
G75*
G03*
X160784138Y-122238405I-334138J0D01*
G01*
X269784138Y-122298405D02*
G75*
G03*
X269784138Y-122298405I-334138J0D01*
G01*
D12*
X93589999Y-318670000D02*
G75*
G03*
X93589999Y-318670000I-8000000J0D01*
G01*
D11*
X235659999Y-312451596D02*
X281179999Y-312451596D01*
X281179999Y-331921596D01*
X235659999Y-331921596D01*
X235659999Y-312451596D01*
D10*
X191144138Y-122354316D02*
G75*
G03*
X191144138Y-122354316I-334138J0D01*
G01*
X244909137Y-330259872D02*
G75*
G03*
X244909137Y-330259872I-334138J0D01*
G01*
X225144138Y-122291816D02*
G75*
G03*
X225144138Y-122291816I-334138J0D01*
G01*
X304344137Y-330350000D02*
G75*
G03*
X304344137Y-330350000I-334138J0D01*
G01*
D12*
X123589999Y-318670000D02*
G75*
G03*
X123589999Y-318670000I-8000000J0D01*
G01*
D10*
X273964137Y-330229872D02*
G75*
G03*
X273964137Y-330229872I-334138J0D01*
G01*
D12*
X302390000Y-133870001D02*
G75*
G03*
X302390000Y-133870001I-8000000J0D01*
G01*
D11*
X183260000Y-120662592D02*
X228780000Y-120662592D01*
X228780000Y-140132592D01*
X183260000Y-140132592D01*
X183260000Y-120662592D01*
D10*
X151964137Y-330181596D02*
G75*
G03*
X151964137Y-330181596I-334138J0D01*
G01*
X165739138Y-122280129D02*
G75*
G03*
X165739138Y-122280129I-334138J0D01*
G01*
D11*
X290139999Y-312500000D02*
X335659999Y-312500000D01*
X335659999Y-331970000D01*
X290139999Y-331970000D01*
X290139999Y-312500000D01*
D10*
X135909137Y-330199872D02*
G75*
G03*
X135909137Y-330199872I-334138J0D01*
G01*
D13*
X199629047Y-137973068D02*
X197724285Y-137973068D01*
X197724285Y-137973068D02*
X197724285Y-133973068D01*
X200962380Y-137973068D02*
X200962380Y-133973068D01*
X204200476Y-135877830D02*
X202867142Y-135877830D01*
X202867142Y-137973068D02*
X202867142Y-133973068D01*
X202867142Y-133973068D02*
X204771904Y-133973068D01*
X205724285Y-133973068D02*
X208009999Y-133973068D01*
X206867142Y-137973068D02*
X206867142Y-133973068D01*
X212200475Y-134354020D02*
X212390951Y-134163544D01*
X212390951Y-134163544D02*
X212771904Y-133973068D01*
X212771904Y-133973068D02*
X213724285Y-133973068D01*
X213724285Y-133973068D02*
X214105237Y-134163544D01*
X214105237Y-134163544D02*
X214295713Y-134354020D01*
X214295713Y-134354020D02*
X214486190Y-134734972D01*
X214486190Y-134734972D02*
X214486190Y-135115925D01*
X214486190Y-135115925D02*
X214295713Y-135687353D01*
X214295713Y-135687353D02*
X212009999Y-137973068D01*
X212009999Y-137973068D02*
X214486190Y-137973068D01*
D12*
X147425238Y-128055014D02*
X151234762Y-128055014D01*
D14*
X189144760Y-324516933D02*
X190097141Y-323850266D01*
X189144760Y-323374076D02*
X191144760Y-323374076D01*
X191144760Y-323374076D02*
X191144760Y-324135981D01*
X191144760Y-324135981D02*
X191049522Y-324326457D01*
X191049522Y-324326457D02*
X190954284Y-324421695D01*
X190954284Y-324421695D02*
X190763808Y-324516933D01*
X190763808Y-324516933D02*
X190478094Y-324516933D01*
X190478094Y-324516933D02*
X190287618Y-324421695D01*
X190287618Y-324421695D02*
X190192379Y-324326457D01*
X190192379Y-324326457D02*
X190097141Y-324135981D01*
X190097141Y-324135981D02*
X190097141Y-323374076D01*
X190192379Y-325374076D02*
X190192379Y-326040743D01*
X189144760Y-326326457D02*
X189144760Y-325374076D01*
X189144760Y-325374076D02*
X191144760Y-325374076D01*
X191144760Y-325374076D02*
X191144760Y-326326457D01*
X189144760Y-327183600D02*
X191144760Y-327183600D01*
X191144760Y-327183600D02*
X191144760Y-327659790D01*
X191144760Y-327659790D02*
X191049522Y-327945505D01*
X191049522Y-327945505D02*
X190859046Y-328135981D01*
X190859046Y-328135981D02*
X190668570Y-328231219D01*
X190668570Y-328231219D02*
X190287618Y-328326457D01*
X190287618Y-328326457D02*
X190001903Y-328326457D01*
X190001903Y-328326457D02*
X189620951Y-328231219D01*
X189620951Y-328231219D02*
X189430475Y-328135981D01*
X189430475Y-328135981D02*
X189239999Y-327945505D01*
X189239999Y-327945505D02*
X189144760Y-327659790D01*
X189144760Y-327659790D02*
X189144760Y-327183600D01*
D12*
X330034760Y-324521666D02*
X326225237Y-324521666D01*
X328129998Y-322616904D02*
X328129998Y-326426428D01*
X262554760Y-324484986D02*
X258745237Y-324484986D01*
X243425238Y-128126738D02*
X247234762Y-128126738D01*
X245330000Y-130031500D02*
X245330000Y-126221976D01*
D15*
X221995035Y-180525289D02*
X221899797Y-180620528D01*
X221899797Y-180620528D02*
X221614083Y-180715766D01*
X221614083Y-180715766D02*
X221423607Y-180715766D01*
X221423607Y-180715766D02*
X221137892Y-180620528D01*
X221137892Y-180620528D02*
X220947416Y-180430051D01*
X220947416Y-180430051D02*
X220852178Y-180239575D01*
X220852178Y-180239575D02*
X220756940Y-179858623D01*
X220756940Y-179858623D02*
X220756940Y-179572908D01*
X220756940Y-179572908D02*
X220852178Y-179191956D01*
X220852178Y-179191956D02*
X220947416Y-179001480D01*
X220947416Y-179001480D02*
X221137892Y-178811004D01*
X221137892Y-178811004D02*
X221423607Y-178715766D01*
X221423607Y-178715766D02*
X221614083Y-178715766D01*
X221614083Y-178715766D02*
X221899797Y-178811004D01*
X221899797Y-178811004D02*
X221995035Y-178906242D01*
X223709321Y-180715766D02*
X223709321Y-179668147D01*
X223709321Y-179668147D02*
X223614083Y-179477670D01*
X223614083Y-179477670D02*
X223423607Y-179382432D01*
X223423607Y-179382432D02*
X223042654Y-179382432D01*
X223042654Y-179382432D02*
X222852178Y-179477670D01*
X223709321Y-180620528D02*
X223518845Y-180715766D01*
X223518845Y-180715766D02*
X223042654Y-180715766D01*
X223042654Y-180715766D02*
X222852178Y-180620528D01*
X222852178Y-180620528D02*
X222756940Y-180430051D01*
X222756940Y-180430051D02*
X222756940Y-180239575D01*
X222756940Y-180239575D02*
X222852178Y-180049099D01*
X222852178Y-180049099D02*
X223042654Y-179953861D01*
X223042654Y-179953861D02*
X223518845Y-179953861D01*
X223518845Y-179953861D02*
X223709321Y-179858623D01*
X224661702Y-180715766D02*
X224661702Y-179382432D01*
X224661702Y-179572908D02*
X224756940Y-179477670D01*
X224756940Y-179477670D02*
X224947416Y-179382432D01*
X224947416Y-179382432D02*
X225233131Y-179382432D01*
X225233131Y-179382432D02*
X225423607Y-179477670D01*
X225423607Y-179477670D02*
X225518845Y-179668147D01*
X225518845Y-179668147D02*
X225518845Y-180715766D01*
X225518845Y-179668147D02*
X225614083Y-179477670D01*
X225614083Y-179477670D02*
X225804559Y-179382432D01*
X225804559Y-179382432D02*
X226090273Y-179382432D01*
X226090273Y-179382432D02*
X226280750Y-179477670D01*
X226280750Y-179477670D02*
X226375988Y-179668147D01*
X226375988Y-179668147D02*
X226375988Y-180715766D01*
X227042655Y-178715766D02*
X228185512Y-178715766D01*
X227614083Y-180715766D02*
X227614083Y-178715766D01*
X228852179Y-180715766D02*
X228852179Y-179382432D01*
X228852179Y-179763385D02*
X228947417Y-179572908D01*
X228947417Y-179572908D02*
X229042655Y-179477670D01*
X229042655Y-179477670D02*
X229233131Y-179382432D01*
X229233131Y-179382432D02*
X229423608Y-179382432D01*
X230375988Y-180715766D02*
X230185512Y-180620528D01*
X230185512Y-180620528D02*
X230090274Y-180525289D01*
X230090274Y-180525289D02*
X229995036Y-180334813D01*
X229995036Y-180334813D02*
X229995036Y-179763385D01*
X229995036Y-179763385D02*
X230090274Y-179572908D01*
X230090274Y-179572908D02*
X230185512Y-179477670D01*
X230185512Y-179477670D02*
X230375988Y-179382432D01*
X230375988Y-179382432D02*
X230661703Y-179382432D01*
X230661703Y-179382432D02*
X230852179Y-179477670D01*
X230852179Y-179477670D02*
X230947417Y-179572908D01*
X230947417Y-179572908D02*
X231042655Y-179763385D01*
X231042655Y-179763385D02*
X231042655Y-180334813D01*
X231042655Y-180334813D02*
X230947417Y-180525289D01*
X230947417Y-180525289D02*
X230852179Y-180620528D01*
X230852179Y-180620528D02*
X230661703Y-180715766D01*
X230661703Y-180715766D02*
X230375988Y-180715766D01*
X232185512Y-180715766D02*
X231995036Y-180620528D01*
X231995036Y-180620528D02*
X231899798Y-180430051D01*
X231899798Y-180430051D02*
X231899798Y-178715766D01*
X234471227Y-180715766D02*
X234471227Y-178715766D01*
X235423608Y-180715766D02*
X235423608Y-178715766D01*
X235423608Y-178715766D02*
X236566465Y-180715766D01*
X236566465Y-180715766D02*
X236566465Y-178715766D01*
X238661703Y-180525289D02*
X238566465Y-180620528D01*
X238566465Y-180620528D02*
X238280751Y-180715766D01*
X238280751Y-180715766D02*
X238090275Y-180715766D01*
X238090275Y-180715766D02*
X237804560Y-180620528D01*
X237804560Y-180620528D02*
X237614084Y-180430051D01*
X237614084Y-180430051D02*
X237518846Y-180239575D01*
X237518846Y-180239575D02*
X237423608Y-179858623D01*
X237423608Y-179858623D02*
X237423608Y-179572908D01*
X237423608Y-179572908D02*
X237518846Y-179191956D01*
X237518846Y-179191956D02*
X237614084Y-179001480D01*
X237614084Y-179001480D02*
X237804560Y-178811004D01*
X237804560Y-178811004D02*
X238090275Y-178715766D01*
X238090275Y-178715766D02*
X238280751Y-178715766D01*
X238280751Y-178715766D02*
X238566465Y-178811004D01*
X238566465Y-178811004D02*
X238661703Y-178906242D01*
X239614084Y-180620528D02*
X239614084Y-180715766D01*
X239614084Y-180715766D02*
X239518846Y-180906242D01*
X239518846Y-180906242D02*
X239423608Y-181001480D01*
X240471227Y-180525289D02*
X240566465Y-180620528D01*
X240566465Y-180620528D02*
X240471227Y-180715766D01*
X240471227Y-180715766D02*
X240375989Y-180620528D01*
X240375989Y-180620528D02*
X240471227Y-180525289D01*
X240471227Y-180525289D02*
X240471227Y-180715766D01*
D13*
X90689047Y-137880477D02*
X88784285Y-137880477D01*
X88784285Y-137880477D02*
X88784285Y-133880477D01*
X92022380Y-137880477D02*
X92022380Y-133880477D01*
X95260476Y-135785239D02*
X93927142Y-135785239D01*
X93927142Y-137880477D02*
X93927142Y-133880477D01*
X93927142Y-133880477D02*
X95831904Y-133880477D01*
X96784285Y-133880477D02*
X99069999Y-133880477D01*
X97927142Y-137880477D02*
X97927142Y-133880477D01*
X105165237Y-135213810D02*
X105165237Y-137880477D01*
X104212856Y-133690001D02*
X103260475Y-136547143D01*
X103260475Y-136547143D02*
X105736666Y-136547143D01*
D14*
X214787619Y-128267058D02*
X214882857Y-127981344D01*
X214882857Y-127981344D02*
X214978095Y-127886106D01*
X214978095Y-127886106D02*
X215168571Y-127790868D01*
X215168571Y-127790868D02*
X215454285Y-127790868D01*
X215454285Y-127790868D02*
X215644761Y-127886106D01*
X215644761Y-127886106D02*
X215740000Y-127981344D01*
X215740000Y-127981344D02*
X215835238Y-128171820D01*
X215835238Y-128171820D02*
X215835238Y-128933725D01*
X215835238Y-128933725D02*
X213835238Y-128933725D01*
X213835238Y-128933725D02*
X213835238Y-128267058D01*
X213835238Y-128267058D02*
X213930476Y-128076582D01*
X213930476Y-128076582D02*
X214025714Y-127981344D01*
X214025714Y-127981344D02*
X214216190Y-127886106D01*
X214216190Y-127886106D02*
X214406666Y-127886106D01*
X214406666Y-127886106D02*
X214597142Y-127981344D01*
X214597142Y-127981344D02*
X214692380Y-128076582D01*
X214692380Y-128076582D02*
X214787619Y-128267058D01*
X214787619Y-128267058D02*
X214787619Y-128933725D01*
X215835238Y-125981344D02*
X215835238Y-126933725D01*
X215835238Y-126933725D02*
X213835238Y-126933725D01*
X215835238Y-125314677D02*
X213835238Y-125314677D01*
X215835238Y-124171820D02*
X214692380Y-125028963D01*
X213835238Y-124171820D02*
X214978095Y-125314677D01*
D16*
X119399522Y-318554008D02*
X111780475Y-318554008D01*
X115589998Y-314744484D02*
X115589998Y-322363532D01*
D12*
X153554760Y-324424986D02*
X149745237Y-324424986D01*
D14*
X160327619Y-128222871D02*
X160422857Y-127937157D01*
X160422857Y-127937157D02*
X160518095Y-127841919D01*
X160518095Y-127841919D02*
X160708571Y-127746681D01*
X160708571Y-127746681D02*
X160994285Y-127746681D01*
X160994285Y-127746681D02*
X161184761Y-127841919D01*
X161184761Y-127841919D02*
X161280000Y-127937157D01*
X161280000Y-127937157D02*
X161375238Y-128127633D01*
X161375238Y-128127633D02*
X161375238Y-128889538D01*
X161375238Y-128889538D02*
X159375238Y-128889538D01*
X159375238Y-128889538D02*
X159375238Y-128222871D01*
X159375238Y-128222871D02*
X159470476Y-128032395D01*
X159470476Y-128032395D02*
X159565714Y-127937157D01*
X159565714Y-127937157D02*
X159756190Y-127841919D01*
X159756190Y-127841919D02*
X159946666Y-127841919D01*
X159946666Y-127841919D02*
X160137142Y-127937157D01*
X160137142Y-127937157D02*
X160232380Y-128032395D01*
X160232380Y-128032395D02*
X160327619Y-128222871D01*
X160327619Y-128222871D02*
X160327619Y-128889538D01*
X161375238Y-125937157D02*
X161375238Y-126889538D01*
X161375238Y-126889538D02*
X159375238Y-126889538D01*
X161375238Y-125270490D02*
X159375238Y-125270490D01*
X161375238Y-124127633D02*
X160232380Y-124984776D01*
X159375238Y-124127633D02*
X160518095Y-125270490D01*
X105847619Y-128174467D02*
X105942857Y-127888753D01*
X105942857Y-127888753D02*
X106038095Y-127793515D01*
X106038095Y-127793515D02*
X106228571Y-127698277D01*
X106228571Y-127698277D02*
X106514285Y-127698277D01*
X106514285Y-127698277D02*
X106704761Y-127793515D01*
X106704761Y-127793515D02*
X106800000Y-127888753D01*
X106800000Y-127888753D02*
X106895238Y-128079229D01*
X106895238Y-128079229D02*
X106895238Y-128841134D01*
X106895238Y-128841134D02*
X104895238Y-128841134D01*
X104895238Y-128841134D02*
X104895238Y-128174467D01*
X104895238Y-128174467D02*
X104990476Y-127983991D01*
X104990476Y-127983991D02*
X105085714Y-127888753D01*
X105085714Y-127888753D02*
X105276190Y-127793515D01*
X105276190Y-127793515D02*
X105466666Y-127793515D01*
X105466666Y-127793515D02*
X105657142Y-127888753D01*
X105657142Y-127888753D02*
X105752380Y-127983991D01*
X105752380Y-127983991D02*
X105847619Y-128174467D01*
X105847619Y-128174467D02*
X105847619Y-128841134D01*
X106895238Y-125888753D02*
X106895238Y-126841134D01*
X106895238Y-126841134D02*
X104895238Y-126841134D01*
X106895238Y-125222086D02*
X104895238Y-125222086D01*
X106895238Y-124079229D02*
X105752380Y-124936372D01*
X104895238Y-124079229D02*
X106038095Y-125222086D01*
X304132379Y-324365533D02*
X304037141Y-324651247D01*
X304037141Y-324651247D02*
X303941903Y-324746485D01*
X303941903Y-324746485D02*
X303751427Y-324841723D01*
X303751427Y-324841723D02*
X303465713Y-324841723D01*
X303465713Y-324841723D02*
X303275237Y-324746485D01*
X303275237Y-324746485D02*
X303179999Y-324651247D01*
X303179999Y-324651247D02*
X303084760Y-324460771D01*
X303084760Y-324460771D02*
X303084760Y-323698866D01*
X303084760Y-323698866D02*
X305084760Y-323698866D01*
X305084760Y-323698866D02*
X305084760Y-324365533D01*
X305084760Y-324365533D02*
X304989522Y-324556009D01*
X304989522Y-324556009D02*
X304894284Y-324651247D01*
X304894284Y-324651247D02*
X304703808Y-324746485D01*
X304703808Y-324746485D02*
X304513332Y-324746485D01*
X304513332Y-324746485D02*
X304322856Y-324651247D01*
X304322856Y-324651247D02*
X304227618Y-324556009D01*
X304227618Y-324556009D02*
X304132379Y-324365533D01*
X304132379Y-324365533D02*
X304132379Y-323698866D01*
X303084760Y-326651247D02*
X303084760Y-325698866D01*
X303084760Y-325698866D02*
X305084760Y-325698866D01*
X303084760Y-327317914D02*
X305084760Y-327317914D01*
X303084760Y-328460771D02*
X304227618Y-327603628D01*
X305084760Y-328460771D02*
X303941903Y-327317914D01*
D12*
X256425238Y-128115014D02*
X260234762Y-128115014D01*
D14*
X298084760Y-324609524D02*
X299037141Y-323942857D01*
X298084760Y-323466667D02*
X300084760Y-323466667D01*
X300084760Y-323466667D02*
X300084760Y-324228572D01*
X300084760Y-324228572D02*
X299989522Y-324419048D01*
X299989522Y-324419048D02*
X299894284Y-324514286D01*
X299894284Y-324514286D02*
X299703808Y-324609524D01*
X299703808Y-324609524D02*
X299418094Y-324609524D01*
X299418094Y-324609524D02*
X299227618Y-324514286D01*
X299227618Y-324514286D02*
X299132379Y-324419048D01*
X299132379Y-324419048D02*
X299037141Y-324228572D01*
X299037141Y-324228572D02*
X299037141Y-323466667D01*
X299132379Y-325466667D02*
X299132379Y-326133334D01*
X298084760Y-326419048D02*
X298084760Y-325466667D01*
X298084760Y-325466667D02*
X300084760Y-325466667D01*
X300084760Y-325466667D02*
X300084760Y-326419048D01*
X298084760Y-327276191D02*
X300084760Y-327276191D01*
X300084760Y-327276191D02*
X300084760Y-327752381D01*
X300084760Y-327752381D02*
X299989522Y-328038096D01*
X299989522Y-328038096D02*
X299799046Y-328228572D01*
X299799046Y-328228572D02*
X299608570Y-328323810D01*
X299608570Y-328323810D02*
X299227618Y-328419048D01*
X299227618Y-328419048D02*
X298941903Y-328419048D01*
X298941903Y-328419048D02*
X298560951Y-328323810D01*
X298560951Y-328323810D02*
X298370475Y-328228572D01*
X298370475Y-328228572D02*
X298179999Y-328038096D01*
X298179999Y-328038096D02*
X298084760Y-327752381D01*
X298084760Y-327752381D02*
X298084760Y-327276191D01*
D12*
X188885238Y-128110925D02*
X192694762Y-128110925D01*
X190790000Y-130015687D02*
X190790000Y-126206163D01*
D17*
X188318296Y-267574234D02*
X189175439Y-267574234D01*
X189175439Y-267574234D02*
X189175439Y-269574234D01*
X187718296Y-267574234D02*
X187718296Y-269574234D01*
X186261153Y-268621853D02*
X186861153Y-268621853D01*
X186861153Y-267574234D02*
X186861153Y-269574234D01*
X186861153Y-269574234D02*
X186004010Y-269574234D01*
X185575439Y-269574234D02*
X184546868Y-269574234D01*
X185061153Y-267574234D02*
X185061153Y-269574234D01*
X182832581Y-269574234D02*
X182232581Y-267574234D01*
X182232581Y-267574234D02*
X181632581Y-269574234D01*
X180261153Y-268907568D02*
X180261153Y-267574234D01*
X180689724Y-269669473D02*
X181118295Y-268240901D01*
X181118295Y-268240901D02*
X180004010Y-268240901D01*
X179318295Y-267764711D02*
X179232581Y-267669473D01*
X179232581Y-267669473D02*
X179318295Y-267574234D01*
X179318295Y-267574234D02*
X179404009Y-267669473D01*
X179404009Y-267669473D02*
X179318295Y-267764711D01*
X179318295Y-267764711D02*
X179318295Y-267574234D01*
X177518295Y-267574234D02*
X178546866Y-267574234D01*
X178032581Y-267574234D02*
X178032581Y-269574234D01*
X178032581Y-269574234D02*
X178204009Y-269288520D01*
X178204009Y-269288520D02*
X178375438Y-269098044D01*
X178375438Y-269098044D02*
X178546866Y-269002806D01*
X175461151Y-268145663D02*
X174604009Y-268145663D01*
X175632580Y-267574234D02*
X175032580Y-269574234D01*
X175032580Y-269574234D02*
X174432580Y-267574234D01*
X173832580Y-269574234D02*
X173832580Y-267955187D01*
X173832580Y-267955187D02*
X173746866Y-267764711D01*
X173746866Y-267764711D02*
X173661152Y-267669473D01*
X173661152Y-267669473D02*
X173489723Y-267574234D01*
X173489723Y-267574234D02*
X173146866Y-267574234D01*
X173146866Y-267574234D02*
X172975437Y-267669473D01*
X172975437Y-267669473D02*
X172889723Y-267764711D01*
X172889723Y-267764711D02*
X172804009Y-267955187D01*
X172804009Y-267955187D02*
X172804009Y-269574234D01*
X172204009Y-269574234D02*
X171175438Y-269574234D01*
X171689723Y-267574234D02*
X171689723Y-269574234D01*
X170232580Y-269574234D02*
X169889723Y-269574234D01*
X169889723Y-269574234D02*
X169718294Y-269478996D01*
X169718294Y-269478996D02*
X169546866Y-269288520D01*
X169546866Y-269288520D02*
X169461151Y-268907568D01*
X169461151Y-268907568D02*
X169461151Y-268240901D01*
X169461151Y-268240901D02*
X169546866Y-267859949D01*
X169546866Y-267859949D02*
X169718294Y-267669473D01*
X169718294Y-267669473D02*
X169889723Y-267574234D01*
X169889723Y-267574234D02*
X170232580Y-267574234D01*
X170232580Y-267574234D02*
X170404009Y-267669473D01*
X170404009Y-267669473D02*
X170575437Y-267859949D01*
X170575437Y-267859949D02*
X170661151Y-268240901D01*
X170661151Y-268240901D02*
X170661151Y-268907568D01*
X170661151Y-268907568D02*
X170575437Y-269288520D01*
X170575437Y-269288520D02*
X170404009Y-269478996D01*
X170404009Y-269478996D02*
X170232580Y-269574234D01*
D14*
X269327619Y-128282871D02*
X269422857Y-127997157D01*
X269422857Y-127997157D02*
X269518095Y-127901919D01*
X269518095Y-127901919D02*
X269708571Y-127806681D01*
X269708571Y-127806681D02*
X269994285Y-127806681D01*
X269994285Y-127806681D02*
X270184761Y-127901919D01*
X270184761Y-127901919D02*
X270280000Y-127997157D01*
X270280000Y-127997157D02*
X270375238Y-128187633D01*
X270375238Y-128187633D02*
X270375238Y-128949538D01*
X270375238Y-128949538D02*
X268375238Y-128949538D01*
X268375238Y-128949538D02*
X268375238Y-128282871D01*
X268375238Y-128282871D02*
X268470476Y-128092395D01*
X268470476Y-128092395D02*
X268565714Y-127997157D01*
X268565714Y-127997157D02*
X268756190Y-127901919D01*
X268756190Y-127901919D02*
X268946666Y-127901919D01*
X268946666Y-127901919D02*
X269137142Y-127997157D01*
X269137142Y-127997157D02*
X269232380Y-128092395D01*
X269232380Y-128092395D02*
X269327619Y-128282871D01*
X269327619Y-128282871D02*
X269327619Y-128949538D01*
X270375238Y-125997157D02*
X270375238Y-126949538D01*
X270375238Y-126949538D02*
X268375238Y-126949538D01*
X270375238Y-125330490D02*
X268375238Y-125330490D01*
X270375238Y-124187633D02*
X269232380Y-125044776D01*
X268375238Y-124187633D02*
X269518095Y-125330490D01*
D16*
X271842377Y-284850000D02*
X270699520Y-284469047D01*
X270699520Y-284469047D02*
X268794758Y-284469047D01*
X268794758Y-284469047D02*
X268032853Y-284850000D01*
X268032853Y-284850000D02*
X267651901Y-285230952D01*
X267651901Y-285230952D02*
X267270948Y-285992857D01*
X267270948Y-285992857D02*
X267270948Y-286754761D01*
X267270948Y-286754761D02*
X267651901Y-287516666D01*
X267651901Y-287516666D02*
X268032853Y-287897619D01*
X268032853Y-287897619D02*
X268794758Y-288278571D01*
X268794758Y-288278571D02*
X270318567Y-288659523D01*
X270318567Y-288659523D02*
X271080472Y-289040476D01*
X271080472Y-289040476D02*
X271461425Y-289421428D01*
X271461425Y-289421428D02*
X271842377Y-290183333D01*
X271842377Y-290183333D02*
X271842377Y-290945238D01*
X271842377Y-290945238D02*
X271461425Y-291707142D01*
X271461425Y-291707142D02*
X271080472Y-292088095D01*
X271080472Y-292088095D02*
X270318567Y-292469047D01*
X270318567Y-292469047D02*
X268413806Y-292469047D01*
X268413806Y-292469047D02*
X267270948Y-292088095D01*
X263842377Y-284469047D02*
X263842377Y-292469047D01*
X263842377Y-292469047D02*
X261175710Y-286754761D01*
X261175710Y-286754761D02*
X258509043Y-292469047D01*
X258509043Y-292469047D02*
X258509043Y-284469047D01*
X255080472Y-286754761D02*
X251270948Y-286754761D01*
X255842377Y-284469047D02*
X253175710Y-292469047D01*
X253175710Y-292469047D02*
X250509043Y-284469047D01*
X243270948Y-284469047D02*
X245937615Y-288278571D01*
X247842377Y-284469047D02*
X247842377Y-292469047D01*
X247842377Y-292469047D02*
X244794758Y-292469047D01*
X244794758Y-292469047D02*
X244032853Y-292088095D01*
X244032853Y-292088095D02*
X243651900Y-291707142D01*
X243651900Y-291707142D02*
X243270948Y-290945238D01*
X243270948Y-290945238D02*
X243270948Y-289802380D01*
X243270948Y-289802380D02*
X243651900Y-289040476D01*
X243651900Y-289040476D02*
X244032853Y-288659523D01*
X244032853Y-288659523D02*
X244794758Y-288278571D01*
X244794758Y-288278571D02*
X247842377Y-288278571D01*
X240985234Y-292469047D02*
X236413805Y-292469047D01*
X238699519Y-284469047D02*
X238699519Y-292469047D01*
X223842377Y-284469047D02*
X227651901Y-284469047D01*
X227651901Y-284469047D02*
X227651901Y-292469047D01*
X221175711Y-284469047D02*
X221175711Y-292469047D01*
X214699520Y-288659523D02*
X217366187Y-288659523D01*
X217366187Y-284469047D02*
X217366187Y-292469047D01*
X217366187Y-292469047D02*
X213556663Y-292469047D01*
X211651901Y-292469047D02*
X207080472Y-292469047D01*
X209366186Y-284469047D02*
X209366186Y-292469047D01*
X194509044Y-284469047D02*
X198318568Y-284469047D01*
X198318568Y-284469047D02*
X198318568Y-292469047D01*
X191842378Y-288659523D02*
X189175711Y-288659523D01*
X188032854Y-284469047D02*
X191842378Y-284469047D01*
X191842378Y-284469047D02*
X191842378Y-292469047D01*
X191842378Y-292469047D02*
X188032854Y-292469047D01*
X185747140Y-292469047D02*
X183080473Y-284469047D01*
X183080473Y-284469047D02*
X180413806Y-292469047D01*
X177747140Y-288659523D02*
X175080473Y-288659523D01*
X173937616Y-284469047D02*
X177747140Y-284469047D01*
X177747140Y-284469047D02*
X177747140Y-292469047D01*
X177747140Y-292469047D02*
X173937616Y-292469047D01*
X166699521Y-284469047D02*
X170509045Y-284469047D01*
X170509045Y-284469047D02*
X170509045Y-292469047D01*
X153366188Y-285230952D02*
X153747140Y-284850000D01*
X153747140Y-284850000D02*
X154889998Y-284469047D01*
X154889998Y-284469047D02*
X155651902Y-284469047D01*
X155651902Y-284469047D02*
X156794759Y-284850000D01*
X156794759Y-284850000D02*
X157556664Y-285611904D01*
X157556664Y-285611904D02*
X157937617Y-286373809D01*
X157937617Y-286373809D02*
X158318569Y-287897619D01*
X158318569Y-287897619D02*
X158318569Y-289040476D01*
X158318569Y-289040476D02*
X157937617Y-290564285D01*
X157937617Y-290564285D02*
X157556664Y-291326190D01*
X157556664Y-291326190D02*
X156794759Y-292088095D01*
X156794759Y-292088095D02*
X155651902Y-292469047D01*
X155651902Y-292469047D02*
X154889998Y-292469047D01*
X154889998Y-292469047D02*
X153747140Y-292088095D01*
X153747140Y-292088095D02*
X153366188Y-291707142D01*
X148413807Y-292469047D02*
X146889998Y-292469047D01*
X146889998Y-292469047D02*
X146128093Y-292088095D01*
X146128093Y-292088095D02*
X145366188Y-291326190D01*
X145366188Y-291326190D02*
X144985236Y-289802380D01*
X144985236Y-289802380D02*
X144985236Y-287135714D01*
X144985236Y-287135714D02*
X145366188Y-285611904D01*
X145366188Y-285611904D02*
X146128093Y-284850000D01*
X146128093Y-284850000D02*
X146889998Y-284469047D01*
X146889998Y-284469047D02*
X148413807Y-284469047D01*
X148413807Y-284469047D02*
X149175712Y-284850000D01*
X149175712Y-284850000D02*
X149937617Y-285611904D01*
X149937617Y-285611904D02*
X150318569Y-287135714D01*
X150318569Y-287135714D02*
X150318569Y-289802380D01*
X150318569Y-289802380D02*
X149937617Y-291326190D01*
X149937617Y-291326190D02*
X149175712Y-292088095D01*
X149175712Y-292088095D02*
X148413807Y-292469047D01*
X141556665Y-284469047D02*
X141556665Y-292469047D01*
X141556665Y-292469047D02*
X136985236Y-284469047D01*
X136985236Y-284469047D02*
X136985236Y-292469047D01*
X134318570Y-292469047D02*
X129747141Y-292469047D01*
X132032855Y-284469047D02*
X132032855Y-292469047D01*
X122509046Y-284469047D02*
X125175713Y-288278571D01*
X127080475Y-284469047D02*
X127080475Y-292469047D01*
X127080475Y-292469047D02*
X124032856Y-292469047D01*
X124032856Y-292469047D02*
X123270951Y-292088095D01*
X123270951Y-292088095D02*
X122889998Y-291707142D01*
X122889998Y-291707142D02*
X122509046Y-290945238D01*
X122509046Y-290945238D02*
X122509046Y-289802380D01*
X122509046Y-289802380D02*
X122889998Y-289040476D01*
X122889998Y-289040476D02*
X123270951Y-288659523D01*
X123270951Y-288659523D02*
X124032856Y-288278571D01*
X124032856Y-288278571D02*
X127080475Y-288278571D01*
X117556665Y-292469047D02*
X116032856Y-292469047D01*
X116032856Y-292469047D02*
X115270951Y-292088095D01*
X115270951Y-292088095D02*
X114509046Y-291326190D01*
X114509046Y-291326190D02*
X114128094Y-289802380D01*
X114128094Y-289802380D02*
X114128094Y-287135714D01*
X114128094Y-287135714D02*
X114509046Y-285611904D01*
X114509046Y-285611904D02*
X115270951Y-284850000D01*
X115270951Y-284850000D02*
X116032856Y-284469047D01*
X116032856Y-284469047D02*
X117556665Y-284469047D01*
X117556665Y-284469047D02*
X118318570Y-284850000D01*
X118318570Y-284850000D02*
X119080475Y-285611904D01*
X119080475Y-285611904D02*
X119461427Y-287135714D01*
X119461427Y-287135714D02*
X119461427Y-289802380D01*
X119461427Y-289802380D02*
X119080475Y-291326190D01*
X119080475Y-291326190D02*
X118318570Y-292088095D01*
X118318570Y-292088095D02*
X117556665Y-292469047D01*
X106889999Y-284469047D02*
X110699523Y-284469047D01*
X110699523Y-284469047D02*
X110699523Y-292469047D01*
X100413809Y-284469047D02*
X104223333Y-284469047D01*
X104223333Y-284469047D02*
X104223333Y-292469047D01*
X97747143Y-288659523D02*
X95080476Y-288659523D01*
X93937619Y-284469047D02*
X97747143Y-284469047D01*
X97747143Y-284469047D02*
X97747143Y-292469047D01*
X97747143Y-292469047D02*
X93937619Y-292469047D01*
X85937619Y-284469047D02*
X88604286Y-288278571D01*
X90509048Y-284469047D02*
X90509048Y-292469047D01*
X90509048Y-292469047D02*
X87461429Y-292469047D01*
X87461429Y-292469047D02*
X86699524Y-292088095D01*
X86699524Y-292088095D02*
X86318571Y-291707142D01*
X86318571Y-291707142D02*
X85937619Y-290945238D01*
X85937619Y-290945238D02*
X85937619Y-289802380D01*
X85937619Y-289802380D02*
X86318571Y-289040476D01*
X86318571Y-289040476D02*
X86699524Y-288659523D01*
X86699524Y-288659523D02*
X87461429Y-288278571D01*
X87461429Y-288278571D02*
X90509048Y-288278571D01*
D14*
X185097141Y-324421693D02*
X184144760Y-324421693D01*
X186144760Y-323755027D02*
X185097141Y-324421693D01*
X185097141Y-324421693D02*
X186144760Y-325088360D01*
X185192379Y-325755027D02*
X185192379Y-326421694D01*
X184144760Y-326707408D02*
X184144760Y-325755027D01*
X184144760Y-325755027D02*
X186144760Y-325755027D01*
X186144760Y-325755027D02*
X186144760Y-326707408D01*
X184144760Y-328516932D02*
X184144760Y-327564551D01*
X184144760Y-327564551D02*
X186144760Y-327564551D01*
X130557141Y-324405880D02*
X129604760Y-324405880D01*
X131604760Y-323739214D02*
X130557141Y-324405880D01*
X130557141Y-324405880D02*
X131604760Y-325072547D01*
X130652379Y-325739214D02*
X130652379Y-326405881D01*
X129604760Y-326691595D02*
X129604760Y-325739214D01*
X129604760Y-325739214D02*
X131604760Y-325739214D01*
X131604760Y-325739214D02*
X131604760Y-326691595D01*
X129604760Y-328501119D02*
X129604760Y-327548738D01*
X129604760Y-327548738D02*
X131604760Y-327548738D01*
X239557141Y-324465880D02*
X238604760Y-324465880D01*
X240604760Y-323799214D02*
X239557141Y-324465880D01*
X239557141Y-324465880D02*
X240604760Y-325132547D01*
X239652379Y-325799214D02*
X239652379Y-326465881D01*
X238604760Y-326751595D02*
X238604760Y-325799214D01*
X238604760Y-325799214D02*
X240604760Y-325799214D01*
X240604760Y-325799214D02*
X240604760Y-326751595D01*
X238604760Y-328561119D02*
X238604760Y-327608738D01*
X238604760Y-327608738D02*
X240604760Y-327608738D01*
D18*
D12*
X221094760Y-324429075D02*
X217285237Y-324429075D01*
X219189998Y-322524313D02*
X219189998Y-326333837D01*
D14*
X166375238Y-127978880D02*
X165422857Y-128645547D01*
X166375238Y-129121737D02*
X164375238Y-129121737D01*
X164375238Y-129121737D02*
X164375238Y-128359832D01*
X164375238Y-128359832D02*
X164470476Y-128169356D01*
X164470476Y-128169356D02*
X164565714Y-128074118D01*
X164565714Y-128074118D02*
X164756190Y-127978880D01*
X164756190Y-127978880D02*
X165041904Y-127978880D01*
X165041904Y-127978880D02*
X165232380Y-128074118D01*
X165232380Y-128074118D02*
X165327619Y-128169356D01*
X165327619Y-128169356D02*
X165422857Y-128359832D01*
X165422857Y-128359832D02*
X165422857Y-129121737D01*
X165327619Y-127121737D02*
X165327619Y-126455070D01*
X166375238Y-126169356D02*
X166375238Y-127121737D01*
X166375238Y-127121737D02*
X164375238Y-127121737D01*
X164375238Y-127121737D02*
X164375238Y-126169356D01*
X166375238Y-125312213D02*
X164375238Y-125312213D01*
X164375238Y-125312213D02*
X164375238Y-124836023D01*
X164375238Y-124836023D02*
X164470476Y-124550308D01*
X164470476Y-124550308D02*
X164660952Y-124359832D01*
X164660952Y-124359832D02*
X164851428Y-124264594D01*
X164851428Y-124264594D02*
X165232380Y-124169356D01*
X165232380Y-124169356D02*
X165518095Y-124169356D01*
X165518095Y-124169356D02*
X165899047Y-124264594D01*
X165899047Y-124264594D02*
X166089523Y-124359832D01*
X166089523Y-124359832D02*
X166280000Y-124550308D01*
X166280000Y-124550308D02*
X166375238Y-124836023D01*
X166375238Y-124836023D02*
X166375238Y-125312213D01*
D16*
X138137621Y-167690001D02*
X139280478Y-168070953D01*
X139280478Y-168070953D02*
X141185240Y-168070953D01*
X141185240Y-168070953D02*
X141947145Y-167690001D01*
X141947145Y-167690001D02*
X142328097Y-167309048D01*
X142328097Y-167309048D02*
X142709050Y-166547143D01*
X142709050Y-166547143D02*
X142709050Y-165785239D01*
X142709050Y-165785239D02*
X142328097Y-165023334D01*
X142328097Y-165023334D02*
X141947145Y-164642381D01*
X141947145Y-164642381D02*
X141185240Y-164261429D01*
X141185240Y-164261429D02*
X139661431Y-163880477D01*
X139661431Y-163880477D02*
X138899526Y-163499524D01*
X138899526Y-163499524D02*
X138518573Y-163118572D01*
X138518573Y-163118572D02*
X138137621Y-162356667D01*
X138137621Y-162356667D02*
X138137621Y-161594762D01*
X138137621Y-161594762D02*
X138518573Y-160832858D01*
X138518573Y-160832858D02*
X138899526Y-160451905D01*
X138899526Y-160451905D02*
X139661431Y-160070953D01*
X139661431Y-160070953D02*
X141566192Y-160070953D01*
X141566192Y-160070953D02*
X142709050Y-160451905D01*
X146137621Y-168070953D02*
X146137621Y-160070953D01*
X146137621Y-160070953D02*
X148804288Y-165785239D01*
X148804288Y-165785239D02*
X151470955Y-160070953D01*
X151470955Y-160070953D02*
X151470955Y-168070953D01*
X154899526Y-165785239D02*
X158709050Y-165785239D01*
X154137621Y-168070953D02*
X156804288Y-160070953D01*
X156804288Y-160070953D02*
X159470955Y-168070953D01*
X166709050Y-168070953D02*
X164042383Y-164261429D01*
X162137621Y-168070953D02*
X162137621Y-160070953D01*
X162137621Y-160070953D02*
X165185240Y-160070953D01*
X165185240Y-160070953D02*
X165947145Y-160451905D01*
X165947145Y-160451905D02*
X166328098Y-160832858D01*
X166328098Y-160832858D02*
X166709050Y-161594762D01*
X166709050Y-161594762D02*
X166709050Y-162737620D01*
X166709050Y-162737620D02*
X166328098Y-163499524D01*
X166328098Y-163499524D02*
X165947145Y-163880477D01*
X165947145Y-163880477D02*
X165185240Y-164261429D01*
X165185240Y-164261429D02*
X162137621Y-164261429D01*
X168994764Y-160070953D02*
X173566193Y-160070953D01*
X171280479Y-168070953D02*
X171280479Y-160070953D01*
X186137621Y-168070953D02*
X182328097Y-168070953D01*
X182328097Y-168070953D02*
X182328097Y-160070953D01*
X188804287Y-168070953D02*
X188804287Y-160070953D01*
X195280478Y-163880477D02*
X192613811Y-163880477D01*
X192613811Y-168070953D02*
X192613811Y-160070953D01*
X192613811Y-160070953D02*
X196423335Y-160070953D01*
X198328097Y-160070953D02*
X202899526Y-160070953D01*
X200613812Y-168070953D02*
X200613812Y-160070953D01*
X215470954Y-168070953D02*
X211661430Y-168070953D01*
X211661430Y-168070953D02*
X211661430Y-160070953D01*
X218137620Y-163880477D02*
X220804287Y-163880477D01*
X221947144Y-168070953D02*
X218137620Y-168070953D01*
X218137620Y-168070953D02*
X218137620Y-160070953D01*
X218137620Y-160070953D02*
X221947144Y-160070953D01*
X224232858Y-160070953D02*
X226899525Y-168070953D01*
X226899525Y-168070953D02*
X229566192Y-160070953D01*
X232232858Y-163880477D02*
X234899525Y-163880477D01*
X236042382Y-168070953D02*
X232232858Y-168070953D01*
X232232858Y-168070953D02*
X232232858Y-160070953D01*
X232232858Y-160070953D02*
X236042382Y-160070953D01*
X243280477Y-168070953D02*
X239470953Y-168070953D01*
X239470953Y-168070953D02*
X239470953Y-160070953D01*
X256613810Y-167309048D02*
X256232858Y-167690001D01*
X256232858Y-167690001D02*
X255090000Y-168070953D01*
X255090000Y-168070953D02*
X254328096Y-168070953D01*
X254328096Y-168070953D02*
X253185239Y-167690001D01*
X253185239Y-167690001D02*
X252423334Y-166928096D01*
X252423334Y-166928096D02*
X252042381Y-166166191D01*
X252042381Y-166166191D02*
X251661429Y-164642381D01*
X251661429Y-164642381D02*
X251661429Y-163499524D01*
X251661429Y-163499524D02*
X252042381Y-161975715D01*
X252042381Y-161975715D02*
X252423334Y-161213810D01*
X252423334Y-161213810D02*
X253185239Y-160451905D01*
X253185239Y-160451905D02*
X254328096Y-160070953D01*
X254328096Y-160070953D02*
X255090000Y-160070953D01*
X255090000Y-160070953D02*
X256232858Y-160451905D01*
X256232858Y-160451905D02*
X256613810Y-160832858D01*
X261566191Y-160070953D02*
X263090000Y-160070953D01*
X263090000Y-160070953D02*
X263851905Y-160451905D01*
X263851905Y-160451905D02*
X264613810Y-161213810D01*
X264613810Y-161213810D02*
X264994762Y-162737620D01*
X264994762Y-162737620D02*
X264994762Y-165404286D01*
X264994762Y-165404286D02*
X264613810Y-166928096D01*
X264613810Y-166928096D02*
X263851905Y-167690001D01*
X263851905Y-167690001D02*
X263090000Y-168070953D01*
X263090000Y-168070953D02*
X261566191Y-168070953D01*
X261566191Y-168070953D02*
X260804286Y-167690001D01*
X260804286Y-167690001D02*
X260042381Y-166928096D01*
X260042381Y-166928096D02*
X259661429Y-165404286D01*
X259661429Y-165404286D02*
X259661429Y-162737620D01*
X259661429Y-162737620D02*
X260042381Y-161213810D01*
X260042381Y-161213810D02*
X260804286Y-160451905D01*
X260804286Y-160451905D02*
X261566191Y-160070953D01*
X268423333Y-168070953D02*
X268423333Y-160070953D01*
X268423333Y-160070953D02*
X272994762Y-168070953D01*
X272994762Y-168070953D02*
X272994762Y-160070953D01*
X275661428Y-160070953D02*
X280232857Y-160070953D01*
X277947143Y-168070953D02*
X277947143Y-160070953D01*
X287470952Y-168070953D02*
X284804285Y-164261429D01*
X282899523Y-168070953D02*
X282899523Y-160070953D01*
X282899523Y-160070953D02*
X285947142Y-160070953D01*
X285947142Y-160070953D02*
X286709047Y-160451905D01*
X286709047Y-160451905D02*
X287090000Y-160832858D01*
X287090000Y-160832858D02*
X287470952Y-161594762D01*
X287470952Y-161594762D02*
X287470952Y-162737620D01*
X287470952Y-162737620D02*
X287090000Y-163499524D01*
X287090000Y-163499524D02*
X286709047Y-163880477D01*
X286709047Y-163880477D02*
X285947142Y-164261429D01*
X285947142Y-164261429D02*
X282899523Y-164261429D01*
X292423333Y-160070953D02*
X293947142Y-160070953D01*
X293947142Y-160070953D02*
X294709047Y-160451905D01*
X294709047Y-160451905D02*
X295470952Y-161213810D01*
X295470952Y-161213810D02*
X295851904Y-162737620D01*
X295851904Y-162737620D02*
X295851904Y-165404286D01*
X295851904Y-165404286D02*
X295470952Y-166928096D01*
X295470952Y-166928096D02*
X294709047Y-167690001D01*
X294709047Y-167690001D02*
X293947142Y-168070953D01*
X293947142Y-168070953D02*
X292423333Y-168070953D01*
X292423333Y-168070953D02*
X291661428Y-167690001D01*
X291661428Y-167690001D02*
X290899523Y-166928096D01*
X290899523Y-166928096D02*
X290518571Y-165404286D01*
X290518571Y-165404286D02*
X290518571Y-162737620D01*
X290518571Y-162737620D02*
X290899523Y-161213810D01*
X290899523Y-161213810D02*
X291661428Y-160451905D01*
X291661428Y-160451905D02*
X292423333Y-160070953D01*
X303089999Y-168070953D02*
X299280475Y-168070953D01*
X299280475Y-168070953D02*
X299280475Y-160070953D01*
X309566189Y-168070953D02*
X305756665Y-168070953D01*
X305756665Y-168070953D02*
X305756665Y-160070953D01*
X312232855Y-163880477D02*
X314899522Y-163880477D01*
X316042379Y-168070953D02*
X312232855Y-168070953D01*
X312232855Y-168070953D02*
X312232855Y-160070953D01*
X312232855Y-160070953D02*
X316042379Y-160070953D01*
X324042379Y-168070953D02*
X321375712Y-164261429D01*
X319470950Y-168070953D02*
X319470950Y-160070953D01*
X319470950Y-160070953D02*
X322518569Y-160070953D01*
X322518569Y-160070953D02*
X323280474Y-160451905D01*
X323280474Y-160451905D02*
X323661427Y-160832858D01*
X323661427Y-160832858D02*
X324042379Y-161594762D01*
X324042379Y-161594762D02*
X324042379Y-162737620D01*
X324042379Y-162737620D02*
X323661427Y-163499524D01*
X323661427Y-163499524D02*
X323280474Y-163880477D01*
X323280474Y-163880477D02*
X322518569Y-164261429D01*
X322518569Y-164261429D02*
X319470950Y-164261429D01*
D14*
X134604760Y-324501120D02*
X135557141Y-323834453D01*
X134604760Y-323358263D02*
X136604760Y-323358263D01*
X136604760Y-323358263D02*
X136604760Y-324120168D01*
X136604760Y-324120168D02*
X136509522Y-324310644D01*
X136509522Y-324310644D02*
X136414284Y-324405882D01*
X136414284Y-324405882D02*
X136223808Y-324501120D01*
X136223808Y-324501120D02*
X135938094Y-324501120D01*
X135938094Y-324501120D02*
X135747618Y-324405882D01*
X135747618Y-324405882D02*
X135652379Y-324310644D01*
X135652379Y-324310644D02*
X135557141Y-324120168D01*
X135557141Y-324120168D02*
X135557141Y-323358263D01*
X135652379Y-325358263D02*
X135652379Y-326024930D01*
X134604760Y-326310644D02*
X134604760Y-325358263D01*
X134604760Y-325358263D02*
X136604760Y-325358263D01*
X136604760Y-325358263D02*
X136604760Y-326310644D01*
X134604760Y-327167787D02*
X136604760Y-327167787D01*
X136604760Y-327167787D02*
X136604760Y-327643977D01*
X136604760Y-327643977D02*
X136509522Y-327929692D01*
X136509522Y-327929692D02*
X136319046Y-328120168D01*
X136319046Y-328120168D02*
X136128570Y-328215406D01*
X136128570Y-328215406D02*
X135747618Y-328310644D01*
X135747618Y-328310644D02*
X135461903Y-328310644D01*
X135461903Y-328310644D02*
X135080951Y-328215406D01*
X135080951Y-328215406D02*
X134890475Y-328120168D01*
X134890475Y-328120168D02*
X134699999Y-327929692D01*
X134699999Y-327929692D02*
X134604760Y-327643977D01*
X134604760Y-327643977D02*
X134604760Y-327167787D01*
X195192379Y-324272942D02*
X195097141Y-324558656D01*
X195097141Y-324558656D02*
X195001903Y-324653894D01*
X195001903Y-324653894D02*
X194811427Y-324749132D01*
X194811427Y-324749132D02*
X194525713Y-324749132D01*
X194525713Y-324749132D02*
X194335237Y-324653894D01*
X194335237Y-324653894D02*
X194239999Y-324558656D01*
X194239999Y-324558656D02*
X194144760Y-324368180D01*
X194144760Y-324368180D02*
X194144760Y-323606275D01*
X194144760Y-323606275D02*
X196144760Y-323606275D01*
X196144760Y-323606275D02*
X196144760Y-324272942D01*
X196144760Y-324272942D02*
X196049522Y-324463418D01*
X196049522Y-324463418D02*
X195954284Y-324558656D01*
X195954284Y-324558656D02*
X195763808Y-324653894D01*
X195763808Y-324653894D02*
X195573332Y-324653894D01*
X195573332Y-324653894D02*
X195382856Y-324558656D01*
X195382856Y-324558656D02*
X195287618Y-324463418D01*
X195287618Y-324463418D02*
X195192379Y-324272942D01*
X195192379Y-324272942D02*
X195192379Y-323606275D01*
X194144760Y-326558656D02*
X194144760Y-325606275D01*
X194144760Y-325606275D02*
X196144760Y-325606275D01*
X194144760Y-327225323D02*
X196144760Y-327225323D01*
X194144760Y-328368180D02*
X195287618Y-327511037D01*
X196144760Y-328368180D02*
X195001903Y-327225323D01*
D12*
X134425238Y-128066738D02*
X138234762Y-128066738D01*
X136330000Y-129971500D02*
X136330000Y-126161976D01*
X317034760Y-324533390D02*
X313225237Y-324533390D01*
D17*
X221661702Y-184965766D02*
X220804559Y-184965766D01*
X220804559Y-184965766D02*
X220804559Y-182965766D01*
X222261702Y-184965766D02*
X222261702Y-182965766D01*
X223718845Y-183918147D02*
X223118845Y-183918147D01*
X223118845Y-184965766D02*
X223118845Y-182965766D01*
X223118845Y-182965766D02*
X223975988Y-182965766D01*
X224404559Y-182965766D02*
X225433131Y-182965766D01*
X224918845Y-184965766D02*
X224918845Y-182965766D01*
X227147417Y-182965766D02*
X227747417Y-184965766D01*
X227747417Y-184965766D02*
X228347417Y-182965766D01*
X229718846Y-183632432D02*
X229718846Y-184965766D01*
X229290274Y-182870528D02*
X228861703Y-184299099D01*
X228861703Y-184299099D02*
X229975988Y-184299099D01*
X230661703Y-184775289D02*
X230747417Y-184870528D01*
X230747417Y-184870528D02*
X230661703Y-184965766D01*
X230661703Y-184965766D02*
X230575989Y-184870528D01*
X230575989Y-184870528D02*
X230661703Y-184775289D01*
X230661703Y-184775289D02*
X230661703Y-184965766D01*
X232461703Y-184965766D02*
X231433132Y-184965766D01*
X231947417Y-184965766D02*
X231947417Y-182965766D01*
X231947417Y-182965766D02*
X231775989Y-183251480D01*
X231775989Y-183251480D02*
X231604560Y-183441956D01*
X231604560Y-183441956D02*
X231433132Y-183537194D01*
X234518847Y-184394337D02*
X235375990Y-184394337D01*
X234347418Y-184965766D02*
X234947418Y-182965766D01*
X234947418Y-182965766D02*
X235547418Y-184965766D01*
X236147418Y-182965766D02*
X236147418Y-184584813D01*
X236147418Y-184584813D02*
X236233132Y-184775289D01*
X236233132Y-184775289D02*
X236318847Y-184870528D01*
X236318847Y-184870528D02*
X236490275Y-184965766D01*
X236490275Y-184965766D02*
X236833132Y-184965766D01*
X236833132Y-184965766D02*
X237004561Y-184870528D01*
X237004561Y-184870528D02*
X237090275Y-184775289D01*
X237090275Y-184775289D02*
X237175989Y-184584813D01*
X237175989Y-184584813D02*
X237175989Y-182965766D01*
X237775989Y-182965766D02*
X238804561Y-182965766D01*
X238290275Y-184965766D02*
X238290275Y-182965766D01*
X239747418Y-182965766D02*
X240090275Y-182965766D01*
X240090275Y-182965766D02*
X240261704Y-183061004D01*
X240261704Y-183061004D02*
X240433132Y-183251480D01*
X240433132Y-183251480D02*
X240518847Y-183632432D01*
X240518847Y-183632432D02*
X240518847Y-184299099D01*
X240518847Y-184299099D02*
X240433132Y-184680051D01*
X240433132Y-184680051D02*
X240261704Y-184870528D01*
X240261704Y-184870528D02*
X240090275Y-184965766D01*
X240090275Y-184965766D02*
X239747418Y-184965766D01*
X239747418Y-184965766D02*
X239575990Y-184870528D01*
X239575990Y-184870528D02*
X239404561Y-184680051D01*
X239404561Y-184680051D02*
X239318847Y-184299099D01*
X239318847Y-184299099D02*
X239318847Y-183632432D01*
X239318847Y-183632432D02*
X239404561Y-183251480D01*
X239404561Y-183251480D02*
X239575990Y-183061004D01*
X239575990Y-183061004D02*
X239747418Y-182965766D01*
D12*
X208094760Y-324440799D02*
X204285237Y-324440799D01*
D14*
X224882857Y-128118307D02*
X225835238Y-128118307D01*
X223835238Y-128784973D02*
X224882857Y-128118307D01*
X224882857Y-128118307D02*
X223835238Y-127451640D01*
X224787619Y-126784973D02*
X224787619Y-126118306D01*
X225835238Y-125832592D02*
X225835238Y-126784973D01*
X225835238Y-126784973D02*
X223835238Y-126784973D01*
X223835238Y-126784973D02*
X223835238Y-125832592D01*
X225835238Y-124023068D02*
X225835238Y-124975449D01*
X225835238Y-124975449D02*
X223835238Y-124975449D01*
X275375238Y-128038880D02*
X274422857Y-128705547D01*
X275375238Y-129181737D02*
X273375238Y-129181737D01*
X273375238Y-129181737D02*
X273375238Y-128419832D01*
X273375238Y-128419832D02*
X273470476Y-128229356D01*
X273470476Y-128229356D02*
X273565714Y-128134118D01*
X273565714Y-128134118D02*
X273756190Y-128038880D01*
X273756190Y-128038880D02*
X274041904Y-128038880D01*
X274041904Y-128038880D02*
X274232380Y-128134118D01*
X274232380Y-128134118D02*
X274327619Y-128229356D01*
X274327619Y-128229356D02*
X274422857Y-128419832D01*
X274422857Y-128419832D02*
X274422857Y-129181737D01*
X274327619Y-127181737D02*
X274327619Y-126515070D01*
X275375238Y-126229356D02*
X275375238Y-127181737D01*
X275375238Y-127181737D02*
X273375238Y-127181737D01*
X273375238Y-127181737D02*
X273375238Y-126229356D01*
X275375238Y-125372213D02*
X273375238Y-125372213D01*
X273375238Y-125372213D02*
X273375238Y-124896023D01*
X273375238Y-124896023D02*
X273470476Y-124610308D01*
X273470476Y-124610308D02*
X273660952Y-124419832D01*
X273660952Y-124419832D02*
X273851428Y-124324594D01*
X273851428Y-124324594D02*
X274232380Y-124229356D01*
X274232380Y-124229356D02*
X274518095Y-124229356D01*
X274518095Y-124229356D02*
X274899047Y-124324594D01*
X274899047Y-124324594D02*
X275089523Y-124419832D01*
X275089523Y-124419832D02*
X275280000Y-124610308D01*
X275280000Y-124610308D02*
X275375238Y-124896023D01*
X275375238Y-124896023D02*
X275375238Y-125372213D01*
X170422857Y-128074120D02*
X171375238Y-128074120D01*
X169375238Y-128740786D02*
X170422857Y-128074120D01*
X170422857Y-128074120D02*
X169375238Y-127407453D01*
X170327619Y-126740786D02*
X170327619Y-126074119D01*
X171375238Y-125788405D02*
X171375238Y-126740786D01*
X171375238Y-126740786D02*
X169375238Y-126740786D01*
X169375238Y-126740786D02*
X169375238Y-125788405D01*
X171375238Y-123978881D02*
X171375238Y-124931262D01*
X171375238Y-124931262D02*
X169375238Y-124931262D01*
D16*
X290580476Y-133985992D02*
X298199524Y-133985992D01*
X294390000Y-137795516D02*
X294390000Y-130176468D01*
D14*
X243604760Y-324561120D02*
X244557141Y-323894453D01*
X243604760Y-323418263D02*
X245604760Y-323418263D01*
X245604760Y-323418263D02*
X245604760Y-324180168D01*
X245604760Y-324180168D02*
X245509522Y-324370644D01*
X245509522Y-324370644D02*
X245414284Y-324465882D01*
X245414284Y-324465882D02*
X245223808Y-324561120D01*
X245223808Y-324561120D02*
X244938094Y-324561120D01*
X244938094Y-324561120D02*
X244747618Y-324465882D01*
X244747618Y-324465882D02*
X244652379Y-324370644D01*
X244652379Y-324370644D02*
X244557141Y-324180168D01*
X244557141Y-324180168D02*
X244557141Y-323418263D01*
X244652379Y-325418263D02*
X244652379Y-326084930D01*
X243604760Y-326370644D02*
X243604760Y-325418263D01*
X243604760Y-325418263D02*
X245604760Y-325418263D01*
X245604760Y-325418263D02*
X245604760Y-326370644D01*
X243604760Y-327227787D02*
X245604760Y-327227787D01*
X245604760Y-327227787D02*
X245604760Y-327703977D01*
X245604760Y-327703977D02*
X245509522Y-327989692D01*
X245509522Y-327989692D02*
X245319046Y-328180168D01*
X245319046Y-328180168D02*
X245128570Y-328275406D01*
X245128570Y-328275406D02*
X244747618Y-328370644D01*
X244747618Y-328370644D02*
X244461903Y-328370644D01*
X244461903Y-328370644D02*
X244080951Y-328275406D01*
X244080951Y-328275406D02*
X243890475Y-328180168D01*
X243890475Y-328180168D02*
X243699999Y-327989692D01*
X243699999Y-327989692D02*
X243604760Y-327703977D01*
X243604760Y-327703977D02*
X243604760Y-327227787D01*
D13*
X264810951Y-314611119D02*
X266715713Y-314611119D01*
X266715713Y-314611119D02*
X266715713Y-318611119D01*
X263477618Y-314611119D02*
X263477618Y-318611119D01*
X260239522Y-316706357D02*
X261572856Y-316706357D01*
X261572856Y-314611119D02*
X261572856Y-318611119D01*
X261572856Y-318611119D02*
X259668094Y-318611119D01*
X258715713Y-318611119D02*
X256429999Y-318611119D01*
X257572856Y-314611119D02*
X257572856Y-318611119D01*
X252429999Y-318611119D02*
X249953808Y-318611119D01*
X249953808Y-318611119D02*
X251287142Y-317087310D01*
X251287142Y-317087310D02*
X250715713Y-317087310D01*
X250715713Y-317087310D02*
X250334761Y-316896834D01*
X250334761Y-316896834D02*
X250144285Y-316706357D01*
X250144285Y-316706357D02*
X249953808Y-316325405D01*
X249953808Y-316325405D02*
X249953808Y-315373024D01*
X249953808Y-315373024D02*
X250144285Y-314992072D01*
X250144285Y-314992072D02*
X250334761Y-314801596D01*
X250334761Y-314801596D02*
X250715713Y-314611119D01*
X250715713Y-314611119D02*
X251858570Y-314611119D01*
X251858570Y-314611119D02*
X252239523Y-314801596D01*
X252239523Y-314801596D02*
X252429999Y-314992072D01*
D14*
X220835238Y-128023067D02*
X219882857Y-128689734D01*
X220835238Y-129165924D02*
X218835238Y-129165924D01*
X218835238Y-129165924D02*
X218835238Y-128404019D01*
X218835238Y-128404019D02*
X218930476Y-128213543D01*
X218930476Y-128213543D02*
X219025714Y-128118305D01*
X219025714Y-128118305D02*
X219216190Y-128023067D01*
X219216190Y-128023067D02*
X219501904Y-128023067D01*
X219501904Y-128023067D02*
X219692380Y-128118305D01*
X219692380Y-128118305D02*
X219787619Y-128213543D01*
X219787619Y-128213543D02*
X219882857Y-128404019D01*
X219882857Y-128404019D02*
X219882857Y-129165924D01*
X219787619Y-127165924D02*
X219787619Y-126499257D01*
X220835238Y-126213543D02*
X220835238Y-127165924D01*
X220835238Y-127165924D02*
X218835238Y-127165924D01*
X218835238Y-127165924D02*
X218835238Y-126213543D01*
X220835238Y-125356400D02*
X218835238Y-125356400D01*
X218835238Y-125356400D02*
X218835238Y-124880210D01*
X218835238Y-124880210D02*
X218930476Y-124594495D01*
X218930476Y-124594495D02*
X219120952Y-124404019D01*
X219120952Y-124404019D02*
X219311428Y-124308781D01*
X219311428Y-124308781D02*
X219692380Y-124213543D01*
X219692380Y-124213543D02*
X219978095Y-124213543D01*
X219978095Y-124213543D02*
X220359047Y-124308781D01*
X220359047Y-124308781D02*
X220549523Y-124404019D01*
X220549523Y-124404019D02*
X220740000Y-124594495D01*
X220740000Y-124594495D02*
X220835238Y-124880210D01*
X220835238Y-124880210D02*
X220835238Y-125356400D01*
X294037141Y-324514284D02*
X293084760Y-324514284D01*
X295084760Y-323847618D02*
X294037141Y-324514284D01*
X294037141Y-324514284D02*
X295084760Y-325180951D01*
X294132379Y-325847618D02*
X294132379Y-326514285D01*
X293084760Y-326799999D02*
X293084760Y-325847618D01*
X293084760Y-325847618D02*
X295084760Y-325847618D01*
X295084760Y-325847618D02*
X295084760Y-326799999D01*
X293084760Y-328609523D02*
X293084760Y-327657142D01*
X293084760Y-327657142D02*
X295084760Y-327657142D01*
D15*
X187984963Y-272014711D02*
X188080201Y-271919473D01*
X188080201Y-271919473D02*
X188365915Y-271824234D01*
X188365915Y-271824234D02*
X188556391Y-271824234D01*
X188556391Y-271824234D02*
X188842106Y-271919473D01*
X188842106Y-271919473D02*
X189032582Y-272109949D01*
X189032582Y-272109949D02*
X189127820Y-272300425D01*
X189127820Y-272300425D02*
X189223058Y-272681377D01*
X189223058Y-272681377D02*
X189223058Y-272967092D01*
X189223058Y-272967092D02*
X189127820Y-273348044D01*
X189127820Y-273348044D02*
X189032582Y-273538520D01*
X189032582Y-273538520D02*
X188842106Y-273728996D01*
X188842106Y-273728996D02*
X188556391Y-273824234D01*
X188556391Y-273824234D02*
X188365915Y-273824234D01*
X188365915Y-273824234D02*
X188080201Y-273728996D01*
X188080201Y-273728996D02*
X187984963Y-273633758D01*
X186270677Y-271824234D02*
X186270677Y-272871853D01*
X186270677Y-272871853D02*
X186365915Y-273062330D01*
X186365915Y-273062330D02*
X186556391Y-273157568D01*
X186556391Y-273157568D02*
X186937344Y-273157568D01*
X186937344Y-273157568D02*
X187127820Y-273062330D01*
X186270677Y-271919473D02*
X186461153Y-271824234D01*
X186461153Y-271824234D02*
X186937344Y-271824234D01*
X186937344Y-271824234D02*
X187127820Y-271919473D01*
X187127820Y-271919473D02*
X187223058Y-272109949D01*
X187223058Y-272109949D02*
X187223058Y-272300425D01*
X187223058Y-272300425D02*
X187127820Y-272490901D01*
X187127820Y-272490901D02*
X186937344Y-272586139D01*
X186937344Y-272586139D02*
X186461153Y-272586139D01*
X186461153Y-272586139D02*
X186270677Y-272681377D01*
X185318296Y-271824234D02*
X185318296Y-273157568D01*
X185318296Y-272967092D02*
X185223058Y-273062330D01*
X185223058Y-273062330D02*
X185032582Y-273157568D01*
X185032582Y-273157568D02*
X184746867Y-273157568D01*
X184746867Y-273157568D02*
X184556391Y-273062330D01*
X184556391Y-273062330D02*
X184461153Y-272871853D01*
X184461153Y-272871853D02*
X184461153Y-271824234D01*
X184461153Y-272871853D02*
X184365915Y-273062330D01*
X184365915Y-273062330D02*
X184175439Y-273157568D01*
X184175439Y-273157568D02*
X183889725Y-273157568D01*
X183889725Y-273157568D02*
X183699248Y-273062330D01*
X183699248Y-273062330D02*
X183604010Y-272871853D01*
X183604010Y-272871853D02*
X183604010Y-271824234D01*
X182937343Y-273824234D02*
X181794486Y-273824234D01*
X182365915Y-271824234D02*
X182365915Y-273824234D01*
X181127819Y-271824234D02*
X181127819Y-273157568D01*
X181127819Y-272776615D02*
X181032581Y-272967092D01*
X181032581Y-272967092D02*
X180937343Y-273062330D01*
X180937343Y-273062330D02*
X180746867Y-273157568D01*
X180746867Y-273157568D02*
X180556390Y-273157568D01*
X179604010Y-271824234D02*
X179794486Y-271919473D01*
X179794486Y-271919473D02*
X179889724Y-272014711D01*
X179889724Y-272014711D02*
X179984962Y-272205187D01*
X179984962Y-272205187D02*
X179984962Y-272776615D01*
X179984962Y-272776615D02*
X179889724Y-272967092D01*
X179889724Y-272967092D02*
X179794486Y-273062330D01*
X179794486Y-273062330D02*
X179604010Y-273157568D01*
X179604010Y-273157568D02*
X179318295Y-273157568D01*
X179318295Y-273157568D02*
X179127819Y-273062330D01*
X179127819Y-273062330D02*
X179032581Y-272967092D01*
X179032581Y-272967092D02*
X178937343Y-272776615D01*
X178937343Y-272776615D02*
X178937343Y-272205187D01*
X178937343Y-272205187D02*
X179032581Y-272014711D01*
X179032581Y-272014711D02*
X179127819Y-271919473D01*
X179127819Y-271919473D02*
X179318295Y-271824234D01*
X179318295Y-271824234D02*
X179604010Y-271824234D01*
X177794486Y-271824234D02*
X177984962Y-271919473D01*
X177984962Y-271919473D02*
X178080200Y-272109949D01*
X178080200Y-272109949D02*
X178080200Y-273824234D01*
X175508771Y-271824234D02*
X175508771Y-273824234D01*
X174556390Y-271824234D02*
X174556390Y-273824234D01*
X174556390Y-273824234D02*
X173413533Y-271824234D01*
X173413533Y-271824234D02*
X173413533Y-273824234D01*
X171318295Y-272014711D02*
X171413533Y-271919473D01*
X171413533Y-271919473D02*
X171699247Y-271824234D01*
X171699247Y-271824234D02*
X171889723Y-271824234D01*
X171889723Y-271824234D02*
X172175438Y-271919473D01*
X172175438Y-271919473D02*
X172365914Y-272109949D01*
X172365914Y-272109949D02*
X172461152Y-272300425D01*
X172461152Y-272300425D02*
X172556390Y-272681377D01*
X172556390Y-272681377D02*
X172556390Y-272967092D01*
X172556390Y-272967092D02*
X172461152Y-273348044D01*
X172461152Y-273348044D02*
X172365914Y-273538520D01*
X172365914Y-273538520D02*
X172175438Y-273728996D01*
X172175438Y-273728996D02*
X171889723Y-273824234D01*
X171889723Y-273824234D02*
X171699247Y-273824234D01*
X171699247Y-273824234D02*
X171413533Y-273728996D01*
X171413533Y-273728996D02*
X171318295Y-273633758D01*
X170365914Y-271919473D02*
X170365914Y-271824234D01*
X170365914Y-271824234D02*
X170461152Y-271633758D01*
X170461152Y-271633758D02*
X170556390Y-271538520D01*
X169508771Y-272014711D02*
X169413533Y-271919473D01*
X169413533Y-271919473D02*
X169508771Y-271824234D01*
X169508771Y-271824234D02*
X169604009Y-271919473D01*
X169604009Y-271919473D02*
X169508771Y-272014711D01*
X169508771Y-272014711D02*
X169508771Y-271824234D01*
D14*
X279422857Y-128134120D02*
X280375238Y-128134120D01*
X278375238Y-128800786D02*
X279422857Y-128134120D01*
X279422857Y-128134120D02*
X278375238Y-127467453D01*
X279327619Y-126800786D02*
X279327619Y-126134119D01*
X280375238Y-125848405D02*
X280375238Y-126800786D01*
X280375238Y-126800786D02*
X278375238Y-126800786D01*
X278375238Y-126800786D02*
X278375238Y-125848405D01*
X280375238Y-124038881D02*
X280375238Y-124991262D01*
X280375238Y-124991262D02*
X278375238Y-124991262D01*
X249652379Y-324317129D02*
X249557141Y-324602843D01*
X249557141Y-324602843D02*
X249461903Y-324698081D01*
X249461903Y-324698081D02*
X249271427Y-324793319D01*
X249271427Y-324793319D02*
X248985713Y-324793319D01*
X248985713Y-324793319D02*
X248795237Y-324698081D01*
X248795237Y-324698081D02*
X248699999Y-324602843D01*
X248699999Y-324602843D02*
X248604760Y-324412367D01*
X248604760Y-324412367D02*
X248604760Y-323650462D01*
X248604760Y-323650462D02*
X250604760Y-323650462D01*
X250604760Y-323650462D02*
X250604760Y-324317129D01*
X250604760Y-324317129D02*
X250509522Y-324507605D01*
X250509522Y-324507605D02*
X250414284Y-324602843D01*
X250414284Y-324602843D02*
X250223808Y-324698081D01*
X250223808Y-324698081D02*
X250033332Y-324698081D01*
X250033332Y-324698081D02*
X249842856Y-324602843D01*
X249842856Y-324602843D02*
X249747618Y-324507605D01*
X249747618Y-324507605D02*
X249652379Y-324317129D01*
X249652379Y-324317129D02*
X249652379Y-323650462D01*
X248604760Y-326602843D02*
X248604760Y-325650462D01*
X248604760Y-325650462D02*
X250604760Y-325650462D01*
X248604760Y-327269510D02*
X250604760Y-327269510D01*
X248604760Y-328412367D02*
X249747618Y-327555224D01*
X250604760Y-328412367D02*
X249461903Y-327269510D01*
D12*
X275554760Y-324473262D02*
X271745237Y-324473262D01*
X273649998Y-322568500D02*
X273649998Y-326378024D01*
D13*
X145169047Y-137928881D02*
X143264285Y-137928881D01*
X143264285Y-137928881D02*
X143264285Y-133928881D01*
X146502380Y-137928881D02*
X146502380Y-133928881D01*
X149740476Y-135833643D02*
X148407142Y-135833643D01*
X148407142Y-137928881D02*
X148407142Y-133928881D01*
X148407142Y-133928881D02*
X150311904Y-133928881D01*
X151264285Y-133928881D02*
X153549999Y-133928881D01*
X152407142Y-137928881D02*
X152407142Y-133928881D01*
X157549999Y-133928881D02*
X160026190Y-133928881D01*
X160026190Y-133928881D02*
X158692856Y-135452690D01*
X158692856Y-135452690D02*
X159264285Y-135452690D01*
X159264285Y-135452690D02*
X159645237Y-135643166D01*
X159645237Y-135643166D02*
X159835713Y-135833643D01*
X159835713Y-135833643D02*
X160026190Y-136214595D01*
X160026190Y-136214595D02*
X160026190Y-137166976D01*
X160026190Y-137166976D02*
X159835713Y-137547928D01*
X159835713Y-137547928D02*
X159645237Y-137738405D01*
X159645237Y-137738405D02*
X159264285Y-137928881D01*
X159264285Y-137928881D02*
X158121428Y-137928881D01*
X158121428Y-137928881D02*
X157740475Y-137738405D01*
X157740475Y-137738405D02*
X157549999Y-137547928D01*
D14*
X115942857Y-128025716D02*
X116895238Y-128025716D01*
X114895238Y-128692382D02*
X115942857Y-128025716D01*
X115942857Y-128025716D02*
X114895238Y-127359049D01*
X115847619Y-126692382D02*
X115847619Y-126025715D01*
X116895238Y-125740001D02*
X116895238Y-126692382D01*
X116895238Y-126692382D02*
X114895238Y-126692382D01*
X114895238Y-126692382D02*
X114895238Y-125740001D01*
X116895238Y-123930477D02*
X116895238Y-124882858D01*
X116895238Y-124882858D02*
X114895238Y-124882858D01*
D13*
X155810951Y-314551119D02*
X157715713Y-314551119D01*
X157715713Y-314551119D02*
X157715713Y-318551119D01*
X154477618Y-314551119D02*
X154477618Y-318551119D01*
X151239522Y-316646357D02*
X152572856Y-316646357D01*
X152572856Y-314551119D02*
X152572856Y-318551119D01*
X152572856Y-318551119D02*
X150668094Y-318551119D01*
X149715713Y-318551119D02*
X147429999Y-318551119D01*
X148572856Y-314551119D02*
X148572856Y-318551119D01*
X140953808Y-314551119D02*
X143239523Y-314551119D01*
X142096666Y-314551119D02*
X142096666Y-318551119D01*
X142096666Y-318551119D02*
X142477618Y-317979691D01*
X142477618Y-317979691D02*
X142858570Y-317598738D01*
X142858570Y-317598738D02*
X143239523Y-317408262D01*
D14*
X140652379Y-324257129D02*
X140557141Y-324542843D01*
X140557141Y-324542843D02*
X140461903Y-324638081D01*
X140461903Y-324638081D02*
X140271427Y-324733319D01*
X140271427Y-324733319D02*
X139985713Y-324733319D01*
X139985713Y-324733319D02*
X139795237Y-324638081D01*
X139795237Y-324638081D02*
X139699999Y-324542843D01*
X139699999Y-324542843D02*
X139604760Y-324352367D01*
X139604760Y-324352367D02*
X139604760Y-323590462D01*
X139604760Y-323590462D02*
X141604760Y-323590462D01*
X141604760Y-323590462D02*
X141604760Y-324257129D01*
X141604760Y-324257129D02*
X141509522Y-324447605D01*
X141509522Y-324447605D02*
X141414284Y-324542843D01*
X141414284Y-324542843D02*
X141223808Y-324638081D01*
X141223808Y-324638081D02*
X141033332Y-324638081D01*
X141033332Y-324638081D02*
X140842856Y-324542843D01*
X140842856Y-324542843D02*
X140747618Y-324447605D01*
X140747618Y-324447605D02*
X140652379Y-324257129D01*
X140652379Y-324257129D02*
X140652379Y-323590462D01*
X139604760Y-326542843D02*
X139604760Y-325590462D01*
X139604760Y-325590462D02*
X141604760Y-325590462D01*
X139604760Y-327209510D02*
X141604760Y-327209510D01*
X139604760Y-328352367D02*
X140747618Y-327495224D01*
X141604760Y-328352367D02*
X140461903Y-327209510D01*
D16*
X320580476Y-133986667D02*
X328199524Y-133986667D01*
D12*
X79945238Y-128018334D02*
X83754762Y-128018334D01*
X81850000Y-129923096D02*
X81850000Y-126113572D01*
X92945238Y-128006610D02*
X96754762Y-128006610D01*
D13*
X254169047Y-137988881D02*
X252264285Y-137988881D01*
X252264285Y-137988881D02*
X252264285Y-133988881D01*
X255502380Y-137988881D02*
X255502380Y-133988881D01*
X258740476Y-135893643D02*
X257407142Y-135893643D01*
X257407142Y-137988881D02*
X257407142Y-133988881D01*
X257407142Y-133988881D02*
X259311904Y-133988881D01*
X260264285Y-133988881D02*
X262549999Y-133988881D01*
X261407142Y-137988881D02*
X261407142Y-133988881D01*
X269026190Y-137988881D02*
X266740475Y-137988881D01*
X267883332Y-137988881D02*
X267883332Y-133988881D01*
X267883332Y-133988881D02*
X267502380Y-134560309D01*
X267502380Y-134560309D02*
X267121428Y-134941262D01*
X267121428Y-134941262D02*
X266740475Y-135131738D01*
D14*
X111895238Y-127930476D02*
X110942857Y-128597143D01*
X111895238Y-129073333D02*
X109895238Y-129073333D01*
X109895238Y-129073333D02*
X109895238Y-128311428D01*
X109895238Y-128311428D02*
X109990476Y-128120952D01*
X109990476Y-128120952D02*
X110085714Y-128025714D01*
X110085714Y-128025714D02*
X110276190Y-127930476D01*
X110276190Y-127930476D02*
X110561904Y-127930476D01*
X110561904Y-127930476D02*
X110752380Y-128025714D01*
X110752380Y-128025714D02*
X110847619Y-128120952D01*
X110847619Y-128120952D02*
X110942857Y-128311428D01*
X110942857Y-128311428D02*
X110942857Y-129073333D01*
X110847619Y-127073333D02*
X110847619Y-126406666D01*
X111895238Y-126120952D02*
X111895238Y-127073333D01*
X111895238Y-127073333D02*
X109895238Y-127073333D01*
X109895238Y-127073333D02*
X109895238Y-126120952D01*
X111895238Y-125263809D02*
X109895238Y-125263809D01*
X109895238Y-125263809D02*
X109895238Y-124787619D01*
X109895238Y-124787619D02*
X109990476Y-124501904D01*
X109990476Y-124501904D02*
X110180952Y-124311428D01*
X110180952Y-124311428D02*
X110371428Y-124216190D01*
X110371428Y-124216190D02*
X110752380Y-124120952D01*
X110752380Y-124120952D02*
X111038095Y-124120952D01*
X111038095Y-124120952D02*
X111419047Y-124216190D01*
X111419047Y-124216190D02*
X111609523Y-124311428D01*
X111609523Y-124311428D02*
X111800000Y-124501904D01*
X111800000Y-124501904D02*
X111895238Y-124787619D01*
X111895238Y-124787619D02*
X111895238Y-125263809D01*
D16*
X89399522Y-318553333D02*
X81780475Y-318553333D01*
D13*
X210350951Y-314566932D02*
X212255713Y-314566932D01*
X212255713Y-314566932D02*
X212255713Y-318566932D01*
X209017618Y-314566932D02*
X209017618Y-318566932D01*
X205779522Y-316662170D02*
X207112856Y-316662170D01*
X207112856Y-314566932D02*
X207112856Y-318566932D01*
X207112856Y-318566932D02*
X205208094Y-318566932D01*
X204255713Y-318566932D02*
X201969999Y-318566932D01*
X203112856Y-314566932D02*
X203112856Y-318566932D01*
X197779523Y-318185980D02*
X197589047Y-318376456D01*
X197589047Y-318376456D02*
X197208094Y-318566932D01*
X197208094Y-318566932D02*
X196255713Y-318566932D01*
X196255713Y-318566932D02*
X195874761Y-318376456D01*
X195874761Y-318376456D02*
X195684285Y-318185980D01*
X195684285Y-318185980D02*
X195493808Y-317805028D01*
X195493808Y-317805028D02*
X195493808Y-317424075D01*
X195493808Y-317424075D02*
X195684285Y-316852647D01*
X195684285Y-316852647D02*
X197969999Y-314566932D01*
X197969999Y-314566932D02*
X195493808Y-314566932D01*
D12*
X201885238Y-128099201D02*
X205694762Y-128099201D01*
D13*
X319290951Y-314659523D02*
X321195713Y-314659523D01*
X321195713Y-314659523D02*
X321195713Y-318659523D01*
X317957618Y-314659523D02*
X317957618Y-318659523D01*
X314719522Y-316754761D02*
X316052856Y-316754761D01*
X316052856Y-314659523D02*
X316052856Y-318659523D01*
X316052856Y-318659523D02*
X314148094Y-318659523D01*
X313195713Y-318659523D02*
X310909999Y-318659523D01*
X312052856Y-314659523D02*
X312052856Y-318659523D01*
X304814761Y-317326190D02*
X304814761Y-314659523D01*
X305767142Y-318850000D02*
X306719523Y-315992857D01*
X306719523Y-315992857D02*
X304243332Y-315992857D01*
D12*
X166554760Y-324413262D02*
X162745237Y-324413262D01*
X164649998Y-322508500D02*
X164649998Y-326318024D01*
D18*
%TO.C,*%
D19*
%TO.C,H4*%
X343440000Y-343770000D02*
G75*
G03*
X343440000Y-343770000I-3450000J0D01*
G01*
%TO.C,H5*%
X234439999Y-253770001D02*
G75*
G03*
X234439999Y-253770001I-3450000J0D01*
G01*
%TO.C,H11*%
X73439999Y-343770000D02*
G75*
G03*
X73439999Y-343770000I-3450000J0D01*
G01*
X343440000Y-108770001D02*
G75*
G03*
X343440000Y-108770001I-3450000J0D01*
G01*
%TO.C,H7*%
X182440000Y-128770001D02*
G75*
G03*
X182440000Y-128770001I-3450000J0D01*
G01*
%TO.C,H10*%
X73439999Y-253770000D02*
G75*
G03*
X73439999Y-253770000I-3450000J0D01*
G01*
%TO.C,G\u002A\u002A\u002A*%
D20*
X193610802Y-269708164D02*
X193684074Y-269708594D01*
X193737910Y-269709597D01*
X193775291Y-269711409D01*
X193799200Y-269714264D01*
X193812618Y-269718398D01*
X193818526Y-269724046D01*
X193819907Y-269731442D01*
X193819911Y-269732097D01*
X193808419Y-269754629D01*
X193788392Y-269764031D01*
X193773345Y-269768299D01*
X193760622Y-269774280D01*
X193750029Y-269783987D01*
X193741369Y-269799436D01*
X193734449Y-269822641D01*
X193729073Y-269855618D01*
X193725047Y-269900382D01*
X193722175Y-269958948D01*
X193720263Y-270033331D01*
X193719115Y-270125545D01*
X193718538Y-270237606D01*
X193718335Y-270371530D01*
X193718311Y-270488493D01*
X193718311Y-271130473D01*
X193994886Y-271130473D01*
X194093564Y-271130162D01*
X194170024Y-271128791D01*
X194227443Y-271125708D01*
X194269001Y-271120261D01*
X194297874Y-271111795D01*
X194317241Y-271099659D01*
X194330280Y-271083199D01*
X194340169Y-271061762D01*
X194341099Y-271059342D01*
X194356597Y-271036292D01*
X194372047Y-271028873D01*
X194378715Y-271031796D01*
X194383684Y-271042642D01*
X194387193Y-271064535D01*
X194389480Y-271100595D01*
X194390782Y-271153942D01*
X194391337Y-271227699D01*
X194391411Y-271282873D01*
X194391312Y-271369151D01*
X194390794Y-271433302D01*
X194389530Y-271478599D01*
X194387195Y-271508314D01*
X194383459Y-271525722D01*
X194377996Y-271534095D01*
X194370479Y-271536706D01*
X194366011Y-271536873D01*
X194345405Y-271529926D01*
X194340611Y-271520218D01*
X194332557Y-271499528D01*
X194314717Y-271475768D01*
X194288822Y-271447973D01*
X193522005Y-271447973D01*
X193384320Y-271448101D01*
X193253895Y-271448469D01*
X193132997Y-271449054D01*
X193023893Y-271449834D01*
X192928851Y-271450786D01*
X192850137Y-271451888D01*
X192790018Y-271453116D01*
X192750762Y-271454447D01*
X192734636Y-271455860D01*
X192734630Y-271455863D01*
X192714562Y-271472169D01*
X192695172Y-271500300D01*
X192695166Y-271500313D01*
X192676784Y-271525672D01*
X192658256Y-271536848D01*
X192657535Y-271536873D01*
X192651063Y-271533584D01*
X192646236Y-271521667D01*
X192642828Y-271498052D01*
X192640614Y-271459668D01*
X192639366Y-271403445D01*
X192638859Y-271326311D01*
X192638811Y-271282873D01*
X192639072Y-271194714D01*
X192639999Y-271128932D01*
X192641806Y-271082513D01*
X192644712Y-271052437D01*
X192648932Y-271035689D01*
X192654682Y-271029250D01*
X192657006Y-271028873D01*
X192675178Y-271039441D01*
X192683156Y-271053942D01*
X192698593Y-271079465D01*
X192723825Y-271104742D01*
X192736059Y-271113200D01*
X192750712Y-271119576D01*
X192771307Y-271124161D01*
X192801369Y-271127248D01*
X192844420Y-271129129D01*
X192903985Y-271130097D01*
X192983588Y-271130442D01*
X193034224Y-271130473D01*
X193311911Y-271130473D01*
X193310646Y-270498648D01*
X193310223Y-270373361D01*
X193309493Y-270255066D01*
X193308496Y-270146338D01*
X193307269Y-270049751D01*
X193305853Y-269967881D01*
X193304286Y-269903302D01*
X193302607Y-269858589D01*
X193300855Y-269836316D01*
X193300589Y-269835073D01*
X193284099Y-269807016D01*
X193255438Y-269780500D01*
X193251545Y-269777923D01*
X193224939Y-269755691D01*
X193211263Y-269733652D01*
X193210801Y-269730298D01*
X193212257Y-269723306D01*
X193218942Y-269717949D01*
X193233811Y-269714012D01*
X193259820Y-269711279D01*
X193299923Y-269709535D01*
X193357075Y-269708564D01*
X193434232Y-269708149D01*
X193515111Y-269708073D01*
X193610802Y-269708164D01*
G36*
X193610802Y-269708164D02*
G01*
X193684074Y-269708594D01*
X193737910Y-269709597D01*
X193775291Y-269711409D01*
X193799200Y-269714264D01*
X193812618Y-269718398D01*
X193818526Y-269724046D01*
X193819907Y-269731442D01*
X193819911Y-269732097D01*
X193808419Y-269754629D01*
X193788392Y-269764031D01*
X193773345Y-269768299D01*
X193760622Y-269774280D01*
X193750029Y-269783987D01*
X193741369Y-269799436D01*
X193734449Y-269822641D01*
X193729073Y-269855618D01*
X193725047Y-269900382D01*
X193722175Y-269958948D01*
X193720263Y-270033331D01*
X193719115Y-270125545D01*
X193718538Y-270237606D01*
X193718335Y-270371530D01*
X193718311Y-270488493D01*
X193718311Y-271130473D01*
X193994886Y-271130473D01*
X194093564Y-271130162D01*
X194170024Y-271128791D01*
X194227443Y-271125708D01*
X194269001Y-271120261D01*
X194297874Y-271111795D01*
X194317241Y-271099659D01*
X194330280Y-271083199D01*
X194340169Y-271061762D01*
X194341099Y-271059342D01*
X194356597Y-271036292D01*
X194372047Y-271028873D01*
X194378715Y-271031796D01*
X194383684Y-271042642D01*
X194387193Y-271064535D01*
X194389480Y-271100595D01*
X194390782Y-271153942D01*
X194391337Y-271227699D01*
X194391411Y-271282873D01*
X194391312Y-271369151D01*
X194390794Y-271433302D01*
X194389530Y-271478599D01*
X194387195Y-271508314D01*
X194383459Y-271525722D01*
X194377996Y-271534095D01*
X194370479Y-271536706D01*
X194366011Y-271536873D01*
X194345405Y-271529926D01*
X194340611Y-271520218D01*
X194332557Y-271499528D01*
X194314717Y-271475768D01*
X194288822Y-271447973D01*
X193522005Y-271447973D01*
X193384320Y-271448101D01*
X193253895Y-271448469D01*
X193132997Y-271449054D01*
X193023893Y-271449834D01*
X192928851Y-271450786D01*
X192850137Y-271451888D01*
X192790018Y-271453116D01*
X192750762Y-271454447D01*
X192734636Y-271455860D01*
X192734630Y-271455863D01*
X192714562Y-271472169D01*
X192695172Y-271500300D01*
X192695166Y-271500313D01*
X192676784Y-271525672D01*
X192658256Y-271536848D01*
X192657535Y-271536873D01*
X192651063Y-271533584D01*
X192646236Y-271521667D01*
X192642828Y-271498052D01*
X192640614Y-271459668D01*
X192639366Y-271403445D01*
X192638859Y-271326311D01*
X192638811Y-271282873D01*
X192639072Y-271194714D01*
X192639999Y-271128932D01*
X192641806Y-271082513D01*
X192644712Y-271052437D01*
X192648932Y-271035689D01*
X192654682Y-271029250D01*
X192657006Y-271028873D01*
X192675178Y-271039441D01*
X192683156Y-271053942D01*
X192698593Y-271079465D01*
X192723825Y-271104742D01*
X192736059Y-271113200D01*
X192750712Y-271119576D01*
X192771307Y-271124161D01*
X192801369Y-271127248D01*
X192844420Y-271129129D01*
X192903985Y-271130097D01*
X192983588Y-271130442D01*
X193034224Y-271130473D01*
X193311911Y-271130473D01*
X193310646Y-270498648D01*
X193310223Y-270373361D01*
X193309493Y-270255066D01*
X193308496Y-270146338D01*
X193307269Y-270049751D01*
X193305853Y-269967881D01*
X193304286Y-269903302D01*
X193302607Y-269858589D01*
X193300855Y-269836316D01*
X193300589Y-269835073D01*
X193284099Y-269807016D01*
X193255438Y-269780500D01*
X193251545Y-269777923D01*
X193224939Y-269755691D01*
X193211263Y-269733652D01*
X193210801Y-269730298D01*
X193212257Y-269723306D01*
X193218942Y-269717949D01*
X193233811Y-269714012D01*
X193259820Y-269711279D01*
X193299923Y-269709535D01*
X193357075Y-269708564D01*
X193434232Y-269708149D01*
X193515111Y-269708073D01*
X193610802Y-269708164D01*
G37*
X193670667Y-268965238D02*
X193757048Y-268968005D01*
X193813561Y-268972165D01*
X193999342Y-268998885D01*
X194179809Y-269039395D01*
X194349458Y-269092138D01*
X194502786Y-269155555D01*
X194555861Y-269182254D01*
X194731045Y-269289464D01*
X194889530Y-269415357D01*
X195030501Y-269558794D01*
X195153142Y-269718635D01*
X195256639Y-269893742D01*
X195340174Y-270082975D01*
X195402933Y-270285195D01*
X195428052Y-270400223D01*
X195440917Y-270492379D01*
X195449163Y-270601910D01*
X195452791Y-270721216D01*
X195451800Y-270842694D01*
X195446189Y-270958744D01*
X195435957Y-271061764D01*
X195428116Y-271111423D01*
X195377100Y-271320833D01*
X195304940Y-271517544D01*
X195212142Y-271700528D01*
X195099210Y-271868754D01*
X194998009Y-271988487D01*
X194863316Y-272118647D01*
X194718643Y-272229980D01*
X194561663Y-272323671D01*
X194390044Y-272400904D01*
X194201457Y-272462867D01*
X193993572Y-272510745D01*
X193959611Y-272516957D01*
X193898451Y-272524624D01*
X193817376Y-272530159D01*
X193721780Y-272533606D01*
X193617053Y-272535010D01*
X193508589Y-272534416D01*
X193401781Y-272531870D01*
X193302019Y-272527416D01*
X193214696Y-272521100D01*
X193145205Y-272512966D01*
X193127761Y-272510014D01*
X193005850Y-272483025D01*
X192885209Y-272447416D01*
X192761982Y-272401578D01*
X192632313Y-272343902D01*
X192492343Y-272272779D01*
X192338218Y-272186599D01*
X192302261Y-272165597D01*
X192211042Y-272112188D01*
X192138665Y-272070826D01*
X192082173Y-272040522D01*
X192038611Y-272020284D01*
X192005021Y-272009123D01*
X191978447Y-272006047D01*
X191955934Y-272010066D01*
X191934524Y-272020190D01*
X191912072Y-272034866D01*
X191882725Y-272050355D01*
X191858947Y-272048465D01*
X191851747Y-272045053D01*
X191831444Y-272028751D01*
X191826011Y-272017241D01*
X191832476Y-272003416D01*
X191850817Y-271970701D01*
X191879454Y-271921747D01*
X191916809Y-271859208D01*
X191961302Y-271785736D01*
X192011353Y-271703985D01*
X192044816Y-271649768D01*
X192104761Y-271553099D01*
X192152927Y-271476019D01*
X192190816Y-271416463D01*
X192219926Y-271372366D01*
X192241758Y-271341663D01*
X192257812Y-271322292D01*
X192269589Y-271312186D01*
X192278587Y-271309281D01*
X192286308Y-271311514D01*
X192289291Y-271313327D01*
X192307349Y-271334521D01*
X192318721Y-271372508D01*
X192322678Y-271400597D01*
X192331896Y-271451675D01*
X192349284Y-271496857D01*
X192377565Y-271539161D01*
X192419466Y-271581606D01*
X192477712Y-271627210D01*
X192555027Y-271678991D01*
X192598743Y-271706329D01*
X192770165Y-271797695D01*
X192953069Y-271868847D01*
X193143779Y-271919154D01*
X193338620Y-271947984D01*
X193533915Y-271954706D01*
X193725988Y-271938689D01*
X193834848Y-271918646D01*
X194001115Y-271869091D01*
X194154001Y-271798517D01*
X194292213Y-271708244D01*
X194414456Y-271599592D01*
X194519438Y-271473884D01*
X194605865Y-271332438D01*
X194672442Y-271176575D01*
X194715427Y-271019772D01*
X194726569Y-270943358D01*
X194733033Y-270850124D01*
X194734832Y-270748210D01*
X194731979Y-270645757D01*
X194724487Y-270550908D01*
X194714562Y-270482773D01*
X194671178Y-270319470D01*
X194606138Y-270168114D01*
X194520890Y-270030099D01*
X194416883Y-269906819D01*
X194295563Y-269799666D01*
X194158379Y-269710035D01*
X194006778Y-269639319D01*
X193842209Y-269588911D01*
X193770623Y-269574314D01*
X193690278Y-269564226D01*
X193592984Y-269558178D01*
X193486868Y-269556156D01*
X193380057Y-269558146D01*
X193280676Y-269564134D01*
X193196852Y-269574107D01*
X193189750Y-269575303D01*
X193096443Y-269595491D01*
X192993066Y-269624374D01*
X192889161Y-269658859D01*
X192794271Y-269695853D01*
X192738234Y-269721631D01*
X192682686Y-269751477D01*
X192619287Y-269788652D01*
X192554025Y-269829314D01*
X192492890Y-269869621D01*
X192441870Y-269905732D01*
X192406956Y-269933807D01*
X192405873Y-269934806D01*
X192359456Y-269991987D01*
X192330015Y-270058027D01*
X192321311Y-270115742D01*
X192314018Y-270160350D01*
X192294492Y-270191365D01*
X192267994Y-270202970D01*
X192258016Y-270192694D01*
X192237159Y-270163598D01*
X192207326Y-270118807D01*
X192170421Y-270061450D01*
X192128348Y-269994654D01*
X192083012Y-269921545D01*
X192036315Y-269845250D01*
X191990164Y-269768898D01*
X191946460Y-269695616D01*
X191907109Y-269628530D01*
X191874015Y-269570767D01*
X191849081Y-269525456D01*
X191834211Y-269495723D01*
X191830895Y-269485066D01*
X191850402Y-269462128D01*
X191880697Y-269460210D01*
X191915314Y-269477763D01*
X191949583Y-269497072D01*
X191985504Y-269502660D01*
X192027938Y-269493782D01*
X192081746Y-269469696D01*
X192124769Y-269445739D01*
X192277377Y-269357406D01*
X192411353Y-269281749D01*
X192529376Y-269217625D01*
X192634127Y-269163890D01*
X192728285Y-269119401D01*
X192814530Y-269083014D01*
X192895540Y-269053585D01*
X192973995Y-269029971D01*
X193052576Y-269011028D01*
X193133960Y-268995613D01*
X193204843Y-268984778D01*
X193278192Y-268976925D01*
X193368750Y-268970893D01*
X193469217Y-268966834D01*
X193572290Y-268964898D01*
X193670667Y-268965238D01*
G36*
X193670667Y-268965238D02*
G01*
X193757048Y-268968005D01*
X193813561Y-268972165D01*
X193999342Y-268998885D01*
X194179809Y-269039395D01*
X194349458Y-269092138D01*
X194502786Y-269155555D01*
X194555861Y-269182254D01*
X194731045Y-269289464D01*
X194889530Y-269415357D01*
X195030501Y-269558794D01*
X195153142Y-269718635D01*
X195256639Y-269893742D01*
X195340174Y-270082975D01*
X195402933Y-270285195D01*
X195428052Y-270400223D01*
X195440917Y-270492379D01*
X195449163Y-270601910D01*
X195452791Y-270721216D01*
X195451800Y-270842694D01*
X195446189Y-270958744D01*
X195435957Y-271061764D01*
X195428116Y-271111423D01*
X195377100Y-271320833D01*
X195304940Y-271517544D01*
X195212142Y-271700528D01*
X195099210Y-271868754D01*
X194998009Y-271988487D01*
X194863316Y-272118647D01*
X194718643Y-272229980D01*
X194561663Y-272323671D01*
X194390044Y-272400904D01*
X194201457Y-272462867D01*
X193993572Y-272510745D01*
X193959611Y-272516957D01*
X193898451Y-272524624D01*
X193817376Y-272530159D01*
X193721780Y-272533606D01*
X193617053Y-272535010D01*
X193508589Y-272534416D01*
X193401781Y-272531870D01*
X193302019Y-272527416D01*
X193214696Y-272521100D01*
X193145205Y-272512966D01*
X193127761Y-272510014D01*
X193005850Y-272483025D01*
X192885209Y-272447416D01*
X192761982Y-272401578D01*
X192632313Y-272343902D01*
X192492343Y-272272779D01*
X192338218Y-272186599D01*
X192302261Y-272165597D01*
X192211042Y-272112188D01*
X192138665Y-272070826D01*
X192082173Y-272040522D01*
X192038611Y-272020284D01*
X192005021Y-272009123D01*
X191978447Y-272006047D01*
X191955934Y-272010066D01*
X191934524Y-272020190D01*
X191912072Y-272034866D01*
X191882725Y-272050355D01*
X191858947Y-272048465D01*
X191851747Y-272045053D01*
X191831444Y-272028751D01*
X191826011Y-272017241D01*
X191832476Y-272003416D01*
X191850817Y-271970701D01*
X191879454Y-271921747D01*
X191916809Y-271859208D01*
X191961302Y-271785736D01*
X192011353Y-271703985D01*
X192044816Y-271649768D01*
X192104761Y-271553099D01*
X192152927Y-271476019D01*
X192190816Y-271416463D01*
X192219926Y-271372366D01*
X192241758Y-271341663D01*
X192257812Y-271322292D01*
X192269589Y-271312186D01*
X192278587Y-271309281D01*
X192286308Y-271311514D01*
X192289291Y-271313327D01*
X192307349Y-271334521D01*
X192318721Y-271372508D01*
X192322678Y-271400597D01*
X192331896Y-271451675D01*
X192349284Y-271496857D01*
X192377565Y-271539161D01*
X192419466Y-271581606D01*
X192477712Y-271627210D01*
X192555027Y-271678991D01*
X192598743Y-271706329D01*
X192770165Y-271797695D01*
X192953069Y-271868847D01*
X193143779Y-271919154D01*
X193338620Y-271947984D01*
X193533915Y-271954706D01*
X193725988Y-271938689D01*
X193834848Y-271918646D01*
X194001115Y-271869091D01*
X194154001Y-271798517D01*
X194292213Y-271708244D01*
X194414456Y-271599592D01*
X194519438Y-271473884D01*
X194605865Y-271332438D01*
X194672442Y-271176575D01*
X194715427Y-271019772D01*
X194726569Y-270943358D01*
X194733033Y-270850124D01*
X194734832Y-270748210D01*
X194731979Y-270645757D01*
X194724487Y-270550908D01*
X194714562Y-270482773D01*
X194671178Y-270319470D01*
X194606138Y-270168114D01*
X194520890Y-270030099D01*
X194416883Y-269906819D01*
X194295563Y-269799666D01*
X194158379Y-269710035D01*
X194006778Y-269639319D01*
X193842209Y-269588911D01*
X193770623Y-269574314D01*
X193690278Y-269564226D01*
X193592984Y-269558178D01*
X193486868Y-269556156D01*
X193380057Y-269558146D01*
X193280676Y-269564134D01*
X193196852Y-269574107D01*
X193189750Y-269575303D01*
X193096443Y-269595491D01*
X192993066Y-269624374D01*
X192889161Y-269658859D01*
X192794271Y-269695853D01*
X192738234Y-269721631D01*
X192682686Y-269751477D01*
X192619287Y-269788652D01*
X192554025Y-269829314D01*
X192492890Y-269869621D01*
X192441870Y-269905732D01*
X192406956Y-269933807D01*
X192405873Y-269934806D01*
X192359456Y-269991987D01*
X192330015Y-270058027D01*
X192321311Y-270115742D01*
X192314018Y-270160350D01*
X192294492Y-270191365D01*
X192267994Y-270202970D01*
X192258016Y-270192694D01*
X192237159Y-270163598D01*
X192207326Y-270118807D01*
X192170421Y-270061450D01*
X192128348Y-269994654D01*
X192083012Y-269921545D01*
X192036315Y-269845250D01*
X191990164Y-269768898D01*
X191946460Y-269695616D01*
X191907109Y-269628530D01*
X191874015Y-269570767D01*
X191849081Y-269525456D01*
X191834211Y-269495723D01*
X191830895Y-269485066D01*
X191850402Y-269462128D01*
X191880697Y-269460210D01*
X191915314Y-269477763D01*
X191949583Y-269497072D01*
X191985504Y-269502660D01*
X192027938Y-269493782D01*
X192081746Y-269469696D01*
X192124769Y-269445739D01*
X192277377Y-269357406D01*
X192411353Y-269281749D01*
X192529376Y-269217625D01*
X192634127Y-269163890D01*
X192728285Y-269119401D01*
X192814530Y-269083014D01*
X192895540Y-269053585D01*
X192973995Y-269029971D01*
X193052576Y-269011028D01*
X193133960Y-268995613D01*
X193204843Y-268984778D01*
X193278192Y-268976925D01*
X193368750Y-268970893D01*
X193469217Y-268966834D01*
X193572290Y-268964898D01*
X193670667Y-268965238D01*
G37*
X196575811Y-272394123D02*
X196575811Y-272487813D01*
X196905111Y-272491768D01*
X197010842Y-272493142D01*
X197094390Y-272494928D01*
X197158967Y-272497866D01*
X197207790Y-272502698D01*
X197244071Y-272510165D01*
X197271026Y-272521008D01*
X197291868Y-272535970D01*
X197309811Y-272555791D01*
X197328071Y-272581213D01*
X197334637Y-272590844D01*
X197358239Y-272646611D01*
X197361173Y-272708494D01*
X197344776Y-272769929D01*
X197310385Y-272824349D01*
X197281653Y-272850915D01*
X197269623Y-272858787D01*
X197254965Y-272864988D01*
X197234507Y-272869798D01*
X197205074Y-272873494D01*
X197163494Y-272876354D01*
X197106592Y-272878656D01*
X197031196Y-272880678D01*
X196934132Y-272882699D01*
X196914641Y-272883073D01*
X196582161Y-272889423D01*
X196574310Y-273054523D01*
X196567193Y-273155559D01*
X196555134Y-273237042D01*
X196536000Y-273304664D01*
X196507652Y-273364117D01*
X196467956Y-273421094D01*
X196414776Y-273481285D01*
X196413744Y-273482367D01*
X196337449Y-273554288D01*
X196262051Y-273606684D01*
X196181786Y-273641916D01*
X196090893Y-273662346D01*
X195983608Y-273670338D01*
X195954381Y-273670668D01*
X195897423Y-273671624D01*
X195849346Y-273674053D01*
X195816200Y-273677554D01*
X195804914Y-273680555D01*
X195799701Y-273692052D01*
X195795420Y-273720461D01*
X195791969Y-273767549D01*
X195789247Y-273835084D01*
X195787154Y-273924834D01*
X195785864Y-274013735D01*
X195784625Y-274112825D01*
X195783324Y-274189806D01*
X195781658Y-274247971D01*
X195779327Y-274290612D01*
X195776031Y-274321018D01*
X195771467Y-274342481D01*
X195765335Y-274358293D01*
X195757335Y-274371745D01*
X195752485Y-274378690D01*
X195704794Y-274425871D01*
X195646876Y-274453099D01*
X195584079Y-274460484D01*
X195521752Y-274448137D01*
X195465244Y-274416168D01*
X195424601Y-274371925D01*
X195417325Y-274358985D01*
X195411559Y-274341989D01*
X195407044Y-274317774D01*
X195403519Y-274283179D01*
X195400727Y-274235042D01*
X195398409Y-274170201D01*
X195396305Y-274085495D01*
X195394711Y-274007023D01*
X195388361Y-273676823D01*
X194804161Y-273676823D01*
X194797811Y-274007023D01*
X194794958Y-274125080D01*
X194791396Y-274220290D01*
X194787161Y-274292018D01*
X194782293Y-274339630D01*
X194776828Y-274362492D01*
X194776753Y-274362623D01*
X194732578Y-274415233D01*
X194674744Y-274448886D01*
X194608769Y-274461257D01*
X194557235Y-274455162D01*
X194515819Y-274436594D01*
X194474345Y-274405179D01*
X194439550Y-274367544D01*
X194418172Y-274330314D01*
X194414684Y-274314962D01*
X194412073Y-274278404D01*
X194410461Y-274254673D01*
X194409747Y-274232888D01*
X194408933Y-274189927D01*
X194408079Y-274130012D01*
X194407241Y-274057368D01*
X194406478Y-273976217D01*
X194406239Y-273946460D01*
X194404111Y-273669997D01*
X193826261Y-273676823D01*
X193819911Y-274000673D01*
X193817801Y-274100949D01*
X193815689Y-274179123D01*
X193813289Y-274238492D01*
X193810314Y-274282353D01*
X193806480Y-274314003D01*
X193801500Y-274336738D01*
X193795087Y-274353855D01*
X193788161Y-274366676D01*
X193744246Y-274417635D01*
X193689045Y-274449033D01*
X193627681Y-274460701D01*
X193565276Y-274452469D01*
X193506951Y-274424166D01*
X193459289Y-274377603D01*
X193451155Y-274365398D01*
X193444758Y-274351046D01*
X193439813Y-274331357D01*
X193436032Y-274303143D01*
X193433130Y-274263217D01*
X193430819Y-274208389D01*
X193428814Y-274135470D01*
X193426829Y-274041274D01*
X193426211Y-274009303D01*
X193419861Y-273676823D01*
X192835661Y-273676823D01*
X192829311Y-274009303D01*
X192827128Y-274117020D01*
X192824609Y-274202431D01*
X192820936Y-274268624D01*
X192815289Y-274318688D01*
X192806848Y-274355711D01*
X192794793Y-274382782D01*
X192778304Y-274402990D01*
X192756562Y-274419424D01*
X192728746Y-274435172D01*
X192714268Y-274442734D01*
X192651213Y-274462658D01*
X192588984Y-274458963D01*
X192531791Y-274433206D01*
X192483844Y-274386943D01*
X192460823Y-274349089D01*
X192452922Y-274331093D01*
X192446858Y-274311240D01*
X192442391Y-274286057D01*
X192439280Y-274252071D01*
X192437287Y-274205811D01*
X192436172Y-274143802D01*
X192435695Y-274062573D01*
X192435611Y-273983725D01*
X192435611Y-273669997D01*
X191857761Y-273676823D01*
X191851411Y-274000673D01*
X191849277Y-274103620D01*
X191846989Y-274184500D01*
X191843950Y-274246642D01*
X191839563Y-274293376D01*
X191833230Y-274328031D01*
X191824352Y-274353936D01*
X191812334Y-274374420D01*
X191796578Y-274392813D01*
X191777722Y-274411266D01*
X191723290Y-274447186D01*
X191662407Y-274461442D01*
X191600412Y-274454866D01*
X191542640Y-274428295D01*
X191494429Y-274382563D01*
X191482553Y-274365108D01*
X191474880Y-274350829D01*
X191468970Y-274334093D01*
X191464595Y-274311585D01*
X191461527Y-274279991D01*
X191459538Y-274235997D01*
X191458399Y-274176288D01*
X191457882Y-274097551D01*
X191457759Y-274005207D01*
X191457581Y-273905761D01*
X191456961Y-273828814D01*
X191455721Y-273771467D01*
X191453681Y-273730819D01*
X191450665Y-273703972D01*
X191446492Y-273688026D01*
X191440985Y-273680081D01*
X191437623Y-273678182D01*
X191416964Y-273674943D01*
X191377332Y-273672374D01*
X191325152Y-273670804D01*
X191286354Y-273670473D01*
X191160140Y-273662278D01*
X191050417Y-273636793D01*
X190953904Y-273592673D01*
X190867318Y-273528571D01*
X190816905Y-273477895D01*
X190749026Y-273385056D01*
X190700222Y-273278186D01*
X190670054Y-273155955D01*
X190658086Y-273017035D01*
X190657832Y-272994198D01*
X190657611Y-272883073D01*
X190339481Y-272883073D01*
X190234545Y-272882760D01*
X190152185Y-272881725D01*
X190089582Y-272879826D01*
X190043920Y-272876920D01*
X190012381Y-272872864D01*
X189992147Y-272867516D01*
X189987056Y-272865230D01*
X189931782Y-272824172D01*
X189895743Y-272771770D01*
X189878904Y-272712878D01*
X189881229Y-272652350D01*
X189902683Y-272595040D01*
X189943232Y-272545801D01*
X189989573Y-272515397D01*
X190008222Y-272507177D01*
X190028233Y-272500888D01*
X190053153Y-272496274D01*
X190086529Y-272493079D01*
X190131907Y-272491048D01*
X190192835Y-272489924D01*
X190272859Y-272489453D01*
X190350471Y-272489373D01*
X190657611Y-272489373D01*
X190657611Y-272406823D01*
X191654561Y-272406823D01*
X191683687Y-272461371D01*
X191744577Y-272549776D01*
X191822682Y-272621061D01*
X191866606Y-272648910D01*
X191933961Y-272686223D01*
X193591157Y-272689631D01*
X193835637Y-272690160D01*
X194056040Y-272690651D01*
X194253693Y-272691044D01*
X194429917Y-272691279D01*
X194586038Y-272691296D01*
X194723379Y-272691034D01*
X194843264Y-272690433D01*
X194947018Y-272689434D01*
X195035965Y-272687976D01*
X195111428Y-272685999D01*
X195174732Y-272683442D01*
X195227201Y-272680247D01*
X195270159Y-272676352D01*
X195304930Y-272671697D01*
X195332838Y-272666223D01*
X195355207Y-272659869D01*
X195373361Y-272652575D01*
X195388625Y-272644282D01*
X195402322Y-272634928D01*
X195415776Y-272624453D01*
X195430312Y-272612799D01*
X195439465Y-272605699D01*
X195500929Y-272544779D01*
X195546111Y-272476673D01*
X195591561Y-272394123D01*
X195591561Y-269054023D01*
X195562242Y-268990523D01*
X195514932Y-268913389D01*
X195450877Y-268845358D01*
X195376132Y-268791614D01*
X195296753Y-268757341D01*
X195286761Y-268754673D01*
X195269560Y-268753528D01*
X195228496Y-268752452D01*
X195165108Y-268751454D01*
X195080931Y-268750539D01*
X194977505Y-268749714D01*
X194856366Y-268748987D01*
X194719052Y-268748363D01*
X194567101Y-268747850D01*
X194402049Y-268747455D01*
X194225434Y-268747183D01*
X194038795Y-268747043D01*
X193843667Y-268747040D01*
X193641589Y-268747182D01*
X193597661Y-268747231D01*
X191946661Y-268749223D01*
X191869361Y-268789634D01*
X191785452Y-268845365D01*
X191719299Y-268916942D01*
X191683214Y-268975002D01*
X191654561Y-269028623D01*
X191654561Y-272406823D01*
X190657611Y-272406823D01*
X190657611Y-271905173D01*
X190350471Y-271905173D01*
X190253235Y-271905036D01*
X190177845Y-271904451D01*
X190120749Y-271903159D01*
X190078391Y-271900903D01*
X190047221Y-271897424D01*
X190023684Y-271892463D01*
X190004227Y-271885762D01*
X189989000Y-271878872D01*
X189933699Y-271841077D01*
X189899097Y-271790197D01*
X189883894Y-271724017D01*
X189882911Y-271698274D01*
X189885522Y-271651182D01*
X189895585Y-271618073D01*
X189916174Y-271588192D01*
X189935912Y-271565743D01*
X189955103Y-271548162D01*
X189977026Y-271534854D01*
X190004958Y-271525225D01*
X190042178Y-271518681D01*
X190091962Y-271514628D01*
X190157589Y-271512472D01*
X190242338Y-271511619D01*
X190339481Y-271511474D01*
X190657611Y-271511473D01*
X190657611Y-270915776D01*
X190328313Y-270912000D01*
X190227926Y-270910749D01*
X190149732Y-270909400D01*
X190090521Y-270907685D01*
X190047086Y-270905336D01*
X190016218Y-270902084D01*
X189994711Y-270897661D01*
X189979355Y-270891801D01*
X189966944Y-270884234D01*
X189963188Y-270881496D01*
X189914882Y-270831546D01*
X189886894Y-270772354D01*
X189879242Y-270709073D01*
X189891941Y-270646855D01*
X189925010Y-270590850D01*
X189962095Y-270556800D01*
X189975559Y-270547811D01*
X189989881Y-270540776D01*
X190008312Y-270535381D01*
X190034103Y-270531312D01*
X190070504Y-270528253D01*
X190120768Y-270525892D01*
X190188145Y-270523914D01*
X190275886Y-270522004D01*
X190333761Y-270520873D01*
X190422135Y-270518822D01*
X190501341Y-270516308D01*
X190568089Y-270513490D01*
X190619087Y-270510530D01*
X190651043Y-270507585D01*
X190660786Y-270504998D01*
X190659870Y-270490058D01*
X190659057Y-270453468D01*
X190658388Y-270398977D01*
X190657904Y-270330336D01*
X190657644Y-270251293D01*
X190657611Y-270210316D01*
X190657611Y-269925158D01*
X190321745Y-269921391D01*
X189985879Y-269917623D01*
X189940500Y-269873619D01*
X189896856Y-269816089D01*
X189877197Y-269753802D01*
X189881521Y-269690362D01*
X189909830Y-269629374D01*
X189940500Y-269593328D01*
X189985879Y-269549323D01*
X190657611Y-269541789D01*
X190657611Y-268947634D01*
X190330586Y-268943679D01*
X190224328Y-268942254D01*
X190140317Y-268940367D01*
X190075404Y-268937308D01*
X190026438Y-268932363D01*
X189990269Y-268924820D01*
X189963745Y-268913966D01*
X189943717Y-268899089D01*
X189927033Y-268879477D01*
X189910544Y-268854416D01*
X189906418Y-268847761D01*
X189882543Y-268786652D01*
X189881110Y-268722010D01*
X189900891Y-268659514D01*
X189940655Y-268604840D01*
X189963188Y-268585451D01*
X189975337Y-268577300D01*
X189989436Y-268570938D01*
X190008690Y-268566098D01*
X190036309Y-268562512D01*
X190075499Y-268559911D01*
X190129470Y-268558027D01*
X190201428Y-268556593D01*
X190294582Y-268555341D01*
X190328313Y-268554947D01*
X190657611Y-268551171D01*
X190657832Y-268440647D01*
X190666455Y-268302878D01*
X190692283Y-268182227D01*
X190736130Y-268076405D01*
X190798812Y-267983123D01*
X190835411Y-267942556D01*
X190899196Y-267883136D01*
X190961265Y-267838623D01*
X191027191Y-267806813D01*
X191102542Y-267785499D01*
X191192888Y-267772475D01*
X191279911Y-267766534D01*
X191451361Y-267758623D01*
X191457711Y-267427825D01*
X191459843Y-267325686D01*
X191462016Y-267245801D01*
X191464483Y-267185024D01*
X191467495Y-267140211D01*
X191471304Y-267108217D01*
X191476162Y-267085895D01*
X191482320Y-267070102D01*
X191486977Y-267062094D01*
X191532191Y-267013690D01*
X191587841Y-266985552D01*
X191649211Y-266977559D01*
X191711583Y-266989592D01*
X191770242Y-267021529D01*
X191818494Y-267070549D01*
X191826600Y-267082745D01*
X191832931Y-267096976D01*
X191837754Y-267116448D01*
X191841337Y-267144369D01*
X191843949Y-267183948D01*
X191845858Y-267238391D01*
X191847332Y-267310907D01*
X191848639Y-267404703D01*
X191849017Y-267435674D01*
X191852972Y-267764973D01*
X192435611Y-267764973D01*
X192435611Y-267453416D01*
X192435864Y-267347521D01*
X192437005Y-267263697D01*
X192439609Y-267198618D01*
X192444251Y-267148956D01*
X192451505Y-267111384D01*
X192461948Y-267082576D01*
X192476153Y-267059204D01*
X192494695Y-267037941D01*
X192509966Y-267023092D01*
X192560579Y-266991648D01*
X192621502Y-266977922D01*
X192684120Y-266982691D01*
X192733944Y-267002901D01*
X192759356Y-267019155D01*
X192779413Y-267034990D01*
X192794816Y-267053525D01*
X192806264Y-267077881D01*
X192814458Y-267111176D01*
X192820099Y-267156532D01*
X192823886Y-267217069D01*
X192826519Y-267295905D01*
X192828700Y-267396162D01*
X192829311Y-267427822D01*
X192835661Y-267758623D01*
X193419861Y-267758623D01*
X193426211Y-267428423D01*
X193428325Y-267326742D01*
X193430458Y-267247298D01*
X193432871Y-267186929D01*
X193435821Y-267142474D01*
X193439569Y-267110770D01*
X193444373Y-267088656D01*
X193450492Y-267072970D01*
X193456101Y-267063522D01*
X193502400Y-267015376D01*
X193559137Y-266986697D01*
X193620949Y-266977342D01*
X193682477Y-266987168D01*
X193738359Y-267016031D01*
X193783234Y-267063787D01*
X193788595Y-267072417D01*
X193798218Y-267089439D01*
X193805635Y-267105853D01*
X193811134Y-267125078D01*
X193815002Y-267150534D01*
X193817524Y-267185640D01*
X193818990Y-267233816D01*
X193819685Y-267298482D01*
X193819897Y-267383057D01*
X193819911Y-267445414D01*
X193819911Y-267764973D01*
X194404111Y-267764973D01*
X194404111Y-267456514D01*
X194404216Y-267359603D01*
X194404716Y-267284534D01*
X194405890Y-267227751D01*
X194408015Y-267185698D01*
X194411371Y-267154817D01*
X194416236Y-267131551D01*
X194422888Y-267112345D01*
X194431605Y-267093640D01*
X194432686Y-267091492D01*
X194473379Y-267034889D01*
X194526382Y-266996369D01*
X194586759Y-266977548D01*
X194649570Y-266980041D01*
X194705046Y-267002415D01*
X194729640Y-267018131D01*
X194749075Y-267033935D01*
X194764028Y-267052920D01*
X194775174Y-267078182D01*
X194783187Y-267112816D01*
X194788742Y-267159917D01*
X194792514Y-267222580D01*
X194795178Y-267303899D01*
X194797409Y-267406970D01*
X194797811Y-267427825D01*
X194804161Y-267758623D01*
X195098666Y-267762031D01*
X195393171Y-267765438D01*
X195397116Y-267431831D01*
X195398363Y-267331170D01*
X195399632Y-267252691D01*
X195401222Y-267193177D01*
X195403428Y-267149410D01*
X195406547Y-267118174D01*
X195410877Y-267096251D01*
X195416714Y-267080425D01*
X195424355Y-267067479D01*
X195431668Y-267057432D01*
X195480186Y-267011969D01*
X195540062Y-266984958D01*
X195604748Y-266977898D01*
X195667695Y-266992292D01*
X195683087Y-266999798D01*
X195719691Y-267026165D01*
X195752103Y-267058974D01*
X195752738Y-267059785D01*
X195761593Y-267071947D01*
X195768502Y-267085004D01*
X195773749Y-267102150D01*
X195777618Y-267126579D01*
X195780394Y-267161487D01*
X195782362Y-267210067D01*
X195783807Y-267275513D01*
X195785012Y-267361020D01*
X195785829Y-267431260D01*
X195789596Y-267764973D01*
X195933716Y-267764973D01*
X196050181Y-267770106D01*
X196148509Y-267786789D01*
X196234068Y-267816953D01*
X196312227Y-267862525D01*
X196388355Y-267925435D01*
X196393259Y-267930073D01*
X196463478Y-268007187D01*
X196515140Y-268088995D01*
X196549949Y-268179949D01*
X196569605Y-268284503D01*
X196575811Y-268407110D01*
X196575811Y-268552373D01*
X196894567Y-268552373D01*
X197003065Y-268552669D01*
X197089293Y-268553938D01*
X197156382Y-268556758D01*
X197207457Y-268561705D01*
X197245649Y-268569355D01*
X197274085Y-268580284D01*
X197295893Y-268595069D01*
X197314201Y-268614285D01*
X197327659Y-268632150D01*
X197352930Y-268685855D01*
X197361630Y-268746844D01*
X197353401Y-268805809D01*
X197335768Y-268843306D01*
X197316326Y-268871094D01*
X197298407Y-268892957D01*
X197278787Y-268909644D01*
X197254244Y-268921905D01*
X197221554Y-268930488D01*
X197177495Y-268936144D01*
X197118843Y-268939622D01*
X197042376Y-268941671D01*
X196944870Y-268943040D01*
X196904878Y-268943501D01*
X196575346Y-268947279D01*
X196578754Y-269241951D01*
X196582161Y-269536623D01*
X196912960Y-269542973D01*
X197015099Y-269545105D01*
X197094984Y-269547278D01*
X197155761Y-269549745D01*
X197200574Y-269552757D01*
X197232568Y-269556566D01*
X197254890Y-269561424D01*
X197270683Y-269567582D01*
X197278691Y-269572239D01*
X197325538Y-269616721D01*
X197353574Y-269672566D01*
X197362801Y-269734064D01*
X197353219Y-269795508D01*
X197324826Y-269851190D01*
X197278691Y-269894708D01*
X197265394Y-269901814D01*
X197247549Y-269907461D01*
X197222011Y-269911901D01*
X197185634Y-269915385D01*
X197135274Y-269918166D01*
X197067785Y-269920495D01*
X196980023Y-269922623D01*
X196912960Y-269923973D01*
X196582161Y-269930323D01*
X196575343Y-270520873D01*
X196894523Y-270520873D01*
X196993369Y-270520982D01*
X197070208Y-270521473D01*
X197128432Y-270522595D01*
X197171433Y-270524597D01*
X197202604Y-270527727D01*
X197225336Y-270532234D01*
X197243022Y-270538367D01*
X197259055Y-270546374D01*
X197261560Y-270547771D01*
X197312363Y-270588986D01*
X197345201Y-270641927D01*
X197360147Y-270701380D01*
X197357272Y-270762132D01*
X197336649Y-270818969D01*
X197298349Y-270866678D01*
X197256767Y-270893958D01*
X197239181Y-270900587D01*
X197215697Y-270905671D01*
X197183036Y-270909400D01*
X197137919Y-270911965D01*
X197077067Y-270913555D01*
X196997199Y-270914361D01*
X196901159Y-270914573D01*
X196588995Y-270914573D01*
X196581985Y-270943148D01*
X196580045Y-270964098D01*
X196578658Y-271006185D01*
X196577872Y-271065151D01*
X196577736Y-271136738D01*
X196578299Y-271216690D01*
X196578568Y-271238423D01*
X196582161Y-271505123D01*
X196912361Y-271511473D01*
X197012793Y-271513495D01*
X197091065Y-271515433D01*
X197150418Y-271517589D01*
X197194088Y-271520269D01*
X197225314Y-271523774D01*
X197247336Y-271528410D01*
X197263390Y-271534479D01*
X197276716Y-271542285D01*
X197282271Y-271546148D01*
X197326701Y-271591694D01*
X197353951Y-271648866D01*
X197362656Y-271710950D01*
X197351451Y-271771236D01*
X197334636Y-271803703D01*
X197315576Y-271831118D01*
X197297885Y-271852688D01*
X197278348Y-271869153D01*
X197253751Y-271881252D01*
X197220880Y-271889726D01*
X197176521Y-271895314D01*
X197117459Y-271898758D01*
X197040480Y-271900796D01*
X196942370Y-271902170D01*
X196905110Y-271902600D01*
X196575811Y-271906376D01*
X196575811Y-272394123D01*
G36*
X196575811Y-272394123D02*
G01*
X196575811Y-272487813D01*
X196905111Y-272491768D01*
X197010842Y-272493142D01*
X197094390Y-272494928D01*
X197158967Y-272497866D01*
X197207790Y-272502698D01*
X197244071Y-272510165D01*
X197271026Y-272521008D01*
X197291868Y-272535970D01*
X197309811Y-272555791D01*
X197328071Y-272581213D01*
X197334637Y-272590844D01*
X197358239Y-272646611D01*
X197361173Y-272708494D01*
X197344776Y-272769929D01*
X197310385Y-272824349D01*
X197281653Y-272850915D01*
X197269623Y-272858787D01*
X197254965Y-272864988D01*
X197234507Y-272869798D01*
X197205074Y-272873494D01*
X197163494Y-272876354D01*
X197106592Y-272878656D01*
X197031196Y-272880678D01*
X196934132Y-272882699D01*
X196914641Y-272883073D01*
X196582161Y-272889423D01*
X196574310Y-273054523D01*
X196567193Y-273155559D01*
X196555134Y-273237042D01*
X196536000Y-273304664D01*
X196507652Y-273364117D01*
X196467956Y-273421094D01*
X196414776Y-273481285D01*
X196413744Y-273482367D01*
X196337449Y-273554288D01*
X196262051Y-273606684D01*
X196181786Y-273641916D01*
X196090893Y-273662346D01*
X195983608Y-273670338D01*
X195954381Y-273670668D01*
X195897423Y-273671624D01*
X195849346Y-273674053D01*
X195816200Y-273677554D01*
X195804914Y-273680555D01*
X195799701Y-273692052D01*
X195795420Y-273720461D01*
X195791969Y-273767549D01*
X195789247Y-273835084D01*
X195787154Y-273924834D01*
X195785864Y-274013735D01*
X195784625Y-274112825D01*
X195783324Y-274189806D01*
X195781658Y-274247971D01*
X195779327Y-274290612D01*
X195776031Y-274321018D01*
X195771467Y-274342481D01*
X195765335Y-274358293D01*
X195757335Y-274371745D01*
X195752485Y-274378690D01*
X195704794Y-274425871D01*
X195646876Y-274453099D01*
X195584079Y-274460484D01*
X195521752Y-274448137D01*
X195465244Y-274416168D01*
X195424601Y-274371925D01*
X195417325Y-274358985D01*
X195411559Y-274341989D01*
X195407044Y-274317774D01*
X195403519Y-274283179D01*
X195400727Y-274235042D01*
X195398409Y-274170201D01*
X195396305Y-274085495D01*
X195394711Y-274007023D01*
X195388361Y-273676823D01*
X194804161Y-273676823D01*
X194797811Y-274007023D01*
X194794958Y-274125080D01*
X194791396Y-274220290D01*
X194787161Y-274292018D01*
X194782293Y-274339630D01*
X194776828Y-274362492D01*
X194776753Y-274362623D01*
X194732578Y-274415233D01*
X194674744Y-274448886D01*
X194608769Y-274461257D01*
X194557235Y-274455162D01*
X194515819Y-274436594D01*
X194474345Y-274405179D01*
X194439550Y-274367544D01*
X194418172Y-274330314D01*
X194414684Y-274314962D01*
X194412073Y-274278404D01*
X194410461Y-274254673D01*
X194409747Y-274232888D01*
X194408933Y-274189927D01*
X194408079Y-274130012D01*
X194407241Y-274057368D01*
X194406478Y-273976217D01*
X194406239Y-273946460D01*
X194404111Y-273669997D01*
X193826261Y-273676823D01*
X193819911Y-274000673D01*
X193817801Y-274100949D01*
X193815689Y-274179123D01*
X193813289Y-274238492D01*
X193810314Y-274282353D01*
X193806480Y-274314003D01*
X193801500Y-274336738D01*
X193795087Y-274353855D01*
X193788161Y-274366676D01*
X193744246Y-274417635D01*
X193689045Y-274449033D01*
X193627681Y-274460701D01*
X193565276Y-274452469D01*
X193506951Y-274424166D01*
X193459289Y-274377603D01*
X193451155Y-274365398D01*
X193444758Y-274351046D01*
X193439813Y-274331357D01*
X193436032Y-274303143D01*
X193433130Y-274263217D01*
X193430819Y-274208389D01*
X193428814Y-274135470D01*
X193426829Y-274041274D01*
X193426211Y-274009303D01*
X193419861Y-273676823D01*
X192835661Y-273676823D01*
X192829311Y-274009303D01*
X192827128Y-274117020D01*
X192824609Y-274202431D01*
X192820936Y-274268624D01*
X192815289Y-274318688D01*
X192806848Y-274355711D01*
X192794793Y-274382782D01*
X192778304Y-274402990D01*
X192756562Y-274419424D01*
X192728746Y-274435172D01*
X192714268Y-274442734D01*
X192651213Y-274462658D01*
X192588984Y-274458963D01*
X192531791Y-274433206D01*
X192483844Y-274386943D01*
X192460823Y-274349089D01*
X192452922Y-274331093D01*
X192446858Y-274311240D01*
X192442391Y-274286057D01*
X192439280Y-274252071D01*
X192437287Y-274205811D01*
X192436172Y-274143802D01*
X192435695Y-274062573D01*
X192435611Y-273983725D01*
X192435611Y-273669997D01*
X191857761Y-273676823D01*
X191851411Y-274000673D01*
X191849277Y-274103620D01*
X191846989Y-274184500D01*
X191843950Y-274246642D01*
X191839563Y-274293376D01*
X191833230Y-274328031D01*
X191824352Y-274353936D01*
X191812334Y-274374420D01*
X191796578Y-274392813D01*
X191777722Y-274411266D01*
X191723290Y-274447186D01*
X191662407Y-274461442D01*
X191600412Y-274454866D01*
X191542640Y-274428295D01*
X191494429Y-274382563D01*
X191482553Y-274365108D01*
X191474880Y-274350829D01*
X191468970Y-274334093D01*
X191464595Y-274311585D01*
X191461527Y-274279991D01*
X191459538Y-274235997D01*
X191458399Y-274176288D01*
X191457882Y-274097551D01*
X191457759Y-274005207D01*
X191457581Y-273905761D01*
X191456961Y-273828814D01*
X191455721Y-273771467D01*
X191453681Y-273730819D01*
X191450665Y-273703972D01*
X191446492Y-273688026D01*
X191440985Y-273680081D01*
X191437623Y-273678182D01*
X191416964Y-273674943D01*
X191377332Y-273672374D01*
X191325152Y-273670804D01*
X191286354Y-273670473D01*
X191160140Y-273662278D01*
X191050417Y-273636793D01*
X190953904Y-273592673D01*
X190867318Y-273528571D01*
X190816905Y-273477895D01*
X190749026Y-273385056D01*
X190700222Y-273278186D01*
X190670054Y-273155955D01*
X190658086Y-273017035D01*
X190657832Y-272994198D01*
X190657611Y-272883073D01*
X190339481Y-272883073D01*
X190234545Y-272882760D01*
X190152185Y-272881725D01*
X190089582Y-272879826D01*
X190043920Y-272876920D01*
X190012381Y-272872864D01*
X189992147Y-272867516D01*
X189987056Y-272865230D01*
X189931782Y-272824172D01*
X189895743Y-272771770D01*
X189878904Y-272712878D01*
X189881229Y-272652350D01*
X189902683Y-272595040D01*
X189943232Y-272545801D01*
X189989573Y-272515397D01*
X190008222Y-272507177D01*
X190028233Y-272500888D01*
X190053153Y-272496274D01*
X190086529Y-272493079D01*
X190131907Y-272491048D01*
X190192835Y-272489924D01*
X190272859Y-272489453D01*
X190350471Y-272489373D01*
X190657611Y-272489373D01*
X190657611Y-272406823D01*
X191654561Y-272406823D01*
X191683687Y-272461371D01*
X191744577Y-272549776D01*
X191822682Y-272621061D01*
X191866606Y-272648910D01*
X191933961Y-272686223D01*
X193591157Y-272689631D01*
X193835637Y-272690160D01*
X194056040Y-272690651D01*
X194253693Y-272691044D01*
X194429917Y-272691279D01*
X194586038Y-272691296D01*
X194723379Y-272691034D01*
X194843264Y-272690433D01*
X194947018Y-272689434D01*
X195035965Y-272687976D01*
X195111428Y-272685999D01*
X195174732Y-272683442D01*
X195227201Y-272680247D01*
X195270159Y-272676352D01*
X195304930Y-272671697D01*
X195332838Y-272666223D01*
X195355207Y-272659869D01*
X195373361Y-272652575D01*
X195388625Y-272644282D01*
X195402322Y-272634928D01*
X195415776Y-272624453D01*
X195430312Y-272612799D01*
X195439465Y-272605699D01*
X195500929Y-272544779D01*
X195546111Y-272476673D01*
X195591561Y-272394123D01*
X195591561Y-269054023D01*
X195562242Y-268990523D01*
X195514932Y-268913389D01*
X195450877Y-268845358D01*
X195376132Y-268791614D01*
X195296753Y-268757341D01*
X195286761Y-268754673D01*
X195269560Y-268753528D01*
X195228496Y-268752452D01*
X195165108Y-268751454D01*
X195080931Y-268750539D01*
X194977505Y-268749714D01*
X194856366Y-268748987D01*
X194719052Y-268748363D01*
X194567101Y-268747850D01*
X194402049Y-268747455D01*
X194225434Y-268747183D01*
X194038795Y-268747043D01*
X193843667Y-268747040D01*
X193641589Y-268747182D01*
X193597661Y-268747231D01*
X191946661Y-268749223D01*
X191869361Y-268789634D01*
X191785452Y-268845365D01*
X191719299Y-268916942D01*
X191683214Y-268975002D01*
X191654561Y-269028623D01*
X191654561Y-272406823D01*
X190657611Y-272406823D01*
X190657611Y-271905173D01*
X190350471Y-271905173D01*
X190253235Y-271905036D01*
X190177845Y-271904451D01*
X190120749Y-271903159D01*
X190078391Y-271900903D01*
X190047221Y-271897424D01*
X190023684Y-271892463D01*
X190004227Y-271885762D01*
X189989000Y-271878872D01*
X189933699Y-271841077D01*
X189899097Y-271790197D01*
X189883894Y-271724017D01*
X189882911Y-271698274D01*
X189885522Y-271651182D01*
X189895585Y-271618073D01*
X189916174Y-271588192D01*
X189935912Y-271565743D01*
X189955103Y-271548162D01*
X189977026Y-271534854D01*
X190004958Y-271525225D01*
X190042178Y-271518681D01*
X190091962Y-271514628D01*
X190157589Y-271512472D01*
X190242338Y-271511619D01*
X190339481Y-271511474D01*
X190657611Y-271511473D01*
X190657611Y-270915776D01*
X190328313Y-270912000D01*
X190227926Y-270910749D01*
X190149732Y-270909400D01*
X190090521Y-270907685D01*
X190047086Y-270905336D01*
X190016218Y-270902084D01*
X189994711Y-270897661D01*
X189979355Y-270891801D01*
X189966944Y-270884234D01*
X189963188Y-270881496D01*
X189914882Y-270831546D01*
X189886894Y-270772354D01*
X189879242Y-270709073D01*
X189891941Y-270646855D01*
X189925010Y-270590850D01*
X189962095Y-270556800D01*
X189975559Y-270547811D01*
X189989881Y-270540776D01*
X190008312Y-270535381D01*
X190034103Y-270531312D01*
X190070504Y-270528253D01*
X190120768Y-270525892D01*
X190188145Y-270523914D01*
X190275886Y-270522004D01*
X190333761Y-270520873D01*
X190422135Y-270518822D01*
X190501341Y-270516308D01*
X190568089Y-270513490D01*
X190619087Y-270510530D01*
X190651043Y-270507585D01*
X190660786Y-270504998D01*
X190659870Y-270490058D01*
X190659057Y-270453468D01*
X190658388Y-270398977D01*
X190657904Y-270330336D01*
X190657644Y-270251293D01*
X190657611Y-270210316D01*
X190657611Y-269925158D01*
X190321745Y-269921391D01*
X189985879Y-269917623D01*
X189940500Y-269873619D01*
X189896856Y-269816089D01*
X189877197Y-269753802D01*
X189881521Y-269690362D01*
X189909830Y-269629374D01*
X189940500Y-269593328D01*
X189985879Y-269549323D01*
X190657611Y-269541789D01*
X190657611Y-268947634D01*
X190330586Y-268943679D01*
X190224328Y-268942254D01*
X190140317Y-268940367D01*
X190075404Y-268937308D01*
X190026438Y-268932363D01*
X189990269Y-268924820D01*
X189963745Y-268913966D01*
X189943717Y-268899089D01*
X189927033Y-268879477D01*
X189910544Y-268854416D01*
X189906418Y-268847761D01*
X189882543Y-268786652D01*
X189881110Y-268722010D01*
X189900891Y-268659514D01*
X189940655Y-268604840D01*
X189963188Y-268585451D01*
X189975337Y-268577300D01*
X189989436Y-268570938D01*
X190008690Y-268566098D01*
X190036309Y-268562512D01*
X190075499Y-268559911D01*
X190129470Y-268558027D01*
X190201428Y-268556593D01*
X190294582Y-268555341D01*
X190328313Y-268554947D01*
X190657611Y-268551171D01*
X190657832Y-268440647D01*
X190666455Y-268302878D01*
X190692283Y-268182227D01*
X190736130Y-268076405D01*
X190798812Y-267983123D01*
X190835411Y-267942556D01*
X190899196Y-267883136D01*
X190961265Y-267838623D01*
X191027191Y-267806813D01*
X191102542Y-267785499D01*
X191192888Y-267772475D01*
X191279911Y-267766534D01*
X191451361Y-267758623D01*
X191457711Y-267427825D01*
X191459843Y-267325686D01*
X191462016Y-267245801D01*
X191464483Y-267185024D01*
X191467495Y-267140211D01*
X191471304Y-267108217D01*
X191476162Y-267085895D01*
X191482320Y-267070102D01*
X191486977Y-267062094D01*
X191532191Y-267013690D01*
X191587841Y-266985552D01*
X191649211Y-266977559D01*
X191711583Y-266989592D01*
X191770242Y-267021529D01*
X191818494Y-267070549D01*
X191826600Y-267082745D01*
X191832931Y-267096976D01*
X191837754Y-267116448D01*
X191841337Y-267144369D01*
X191843949Y-267183948D01*
X191845858Y-267238391D01*
X191847332Y-267310907D01*
X191848639Y-267404703D01*
X191849017Y-267435674D01*
X191852972Y-267764973D01*
X192435611Y-267764973D01*
X192435611Y-267453416D01*
X192435864Y-267347521D01*
X192437005Y-267263697D01*
X192439609Y-267198618D01*
X192444251Y-267148956D01*
X192451505Y-267111384D01*
X192461948Y-267082576D01*
X192476153Y-267059204D01*
X192494695Y-267037941D01*
X192509966Y-267023092D01*
X192560579Y-266991648D01*
X192621502Y-266977922D01*
X192684120Y-266982691D01*
X192733944Y-267002901D01*
X192759356Y-267019155D01*
X192779413Y-267034990D01*
X192794816Y-267053525D01*
X192806264Y-267077881D01*
X192814458Y-267111176D01*
X192820099Y-267156532D01*
X192823886Y-267217069D01*
X192826519Y-267295905D01*
X192828700Y-267396162D01*
X192829311Y-267427822D01*
X192835661Y-267758623D01*
X193419861Y-267758623D01*
X193426211Y-267428423D01*
X193428325Y-267326742D01*
X193430458Y-267247298D01*
X193432871Y-267186929D01*
X193435821Y-267142474D01*
X193439569Y-267110770D01*
X193444373Y-267088656D01*
X193450492Y-267072970D01*
X193456101Y-267063522D01*
X193502400Y-267015376D01*
X193559137Y-266986697D01*
X193620949Y-266977342D01*
X193682477Y-266987168D01*
X193738359Y-267016031D01*
X193783234Y-267063787D01*
X193788595Y-267072417D01*
X193798218Y-267089439D01*
X193805635Y-267105853D01*
X193811134Y-267125078D01*
X193815002Y-267150534D01*
X193817524Y-267185640D01*
X193818990Y-267233816D01*
X193819685Y-267298482D01*
X193819897Y-267383057D01*
X193819911Y-267445414D01*
X193819911Y-267764973D01*
X194404111Y-267764973D01*
X194404111Y-267456514D01*
X194404216Y-267359603D01*
X194404716Y-267284534D01*
X194405890Y-267227751D01*
X194408015Y-267185698D01*
X194411371Y-267154817D01*
X194416236Y-267131551D01*
X194422888Y-267112345D01*
X194431605Y-267093640D01*
X194432686Y-267091492D01*
X194473379Y-267034889D01*
X194526382Y-266996369D01*
X194586759Y-266977548D01*
X194649570Y-266980041D01*
X194705046Y-267002415D01*
X194729640Y-267018131D01*
X194749075Y-267033935D01*
X194764028Y-267052920D01*
X194775174Y-267078182D01*
X194783187Y-267112816D01*
X194788742Y-267159917D01*
X194792514Y-267222580D01*
X194795178Y-267303899D01*
X194797409Y-267406970D01*
X194797811Y-267427825D01*
X194804161Y-267758623D01*
X195098666Y-267762031D01*
X195393171Y-267765438D01*
X195397116Y-267431831D01*
X195398363Y-267331170D01*
X195399632Y-267252691D01*
X195401222Y-267193177D01*
X195403428Y-267149410D01*
X195406547Y-267118174D01*
X195410877Y-267096251D01*
X195416714Y-267080425D01*
X195424355Y-267067479D01*
X195431668Y-267057432D01*
X195480186Y-267011969D01*
X195540062Y-266984958D01*
X195604748Y-266977898D01*
X195667695Y-266992292D01*
X195683087Y-266999798D01*
X195719691Y-267026165D01*
X195752103Y-267058974D01*
X195752738Y-267059785D01*
X195761593Y-267071947D01*
X195768502Y-267085004D01*
X195773749Y-267102150D01*
X195777618Y-267126579D01*
X195780394Y-267161487D01*
X195782362Y-267210067D01*
X195783807Y-267275513D01*
X195785012Y-267361020D01*
X195785829Y-267431260D01*
X195789596Y-267764973D01*
X195933716Y-267764973D01*
X196050181Y-267770106D01*
X196148509Y-267786789D01*
X196234068Y-267816953D01*
X196312227Y-267862525D01*
X196388355Y-267925435D01*
X196393259Y-267930073D01*
X196463478Y-268007187D01*
X196515140Y-268088995D01*
X196549949Y-268179949D01*
X196569605Y-268284503D01*
X196575811Y-268407110D01*
X196575811Y-268552373D01*
X196894567Y-268552373D01*
X197003065Y-268552669D01*
X197089293Y-268553938D01*
X197156382Y-268556758D01*
X197207457Y-268561705D01*
X197245649Y-268569355D01*
X197274085Y-268580284D01*
X197295893Y-268595069D01*
X197314201Y-268614285D01*
X197327659Y-268632150D01*
X197352930Y-268685855D01*
X197361630Y-268746844D01*
X197353401Y-268805809D01*
X197335768Y-268843306D01*
X197316326Y-268871094D01*
X197298407Y-268892957D01*
X197278787Y-268909644D01*
X197254244Y-268921905D01*
X197221554Y-268930488D01*
X197177495Y-268936144D01*
X197118843Y-268939622D01*
X197042376Y-268941671D01*
X196944870Y-268943040D01*
X196904878Y-268943501D01*
X196575346Y-268947279D01*
X196578754Y-269241951D01*
X196582161Y-269536623D01*
X196912960Y-269542973D01*
X197015099Y-269545105D01*
X197094984Y-269547278D01*
X197155761Y-269549745D01*
X197200574Y-269552757D01*
X197232568Y-269556566D01*
X197254890Y-269561424D01*
X197270683Y-269567582D01*
X197278691Y-269572239D01*
X197325538Y-269616721D01*
X197353574Y-269672566D01*
X197362801Y-269734064D01*
X197353219Y-269795508D01*
X197324826Y-269851190D01*
X197278691Y-269894708D01*
X197265394Y-269901814D01*
X197247549Y-269907461D01*
X197222011Y-269911901D01*
X197185634Y-269915385D01*
X197135274Y-269918166D01*
X197067785Y-269920495D01*
X196980023Y-269922623D01*
X196912960Y-269923973D01*
X196582161Y-269930323D01*
X196575343Y-270520873D01*
X196894523Y-270520873D01*
X196993369Y-270520982D01*
X197070208Y-270521473D01*
X197128432Y-270522595D01*
X197171433Y-270524597D01*
X197202604Y-270527727D01*
X197225336Y-270532234D01*
X197243022Y-270538367D01*
X197259055Y-270546374D01*
X197261560Y-270547771D01*
X197312363Y-270588986D01*
X197345201Y-270641927D01*
X197360147Y-270701380D01*
X197357272Y-270762132D01*
X197336649Y-270818969D01*
X197298349Y-270866678D01*
X197256767Y-270893958D01*
X197239181Y-270900587D01*
X197215697Y-270905671D01*
X197183036Y-270909400D01*
X197137919Y-270911965D01*
X197077067Y-270913555D01*
X196997199Y-270914361D01*
X196901159Y-270914573D01*
X196588995Y-270914573D01*
X196581985Y-270943148D01*
X196580045Y-270964098D01*
X196578658Y-271006185D01*
X196577872Y-271065151D01*
X196577736Y-271136738D01*
X196578299Y-271216690D01*
X196578568Y-271238423D01*
X196582161Y-271505123D01*
X196912361Y-271511473D01*
X197012793Y-271513495D01*
X197091065Y-271515433D01*
X197150418Y-271517589D01*
X197194088Y-271520269D01*
X197225314Y-271523774D01*
X197247336Y-271528410D01*
X197263390Y-271534479D01*
X197276716Y-271542285D01*
X197282271Y-271546148D01*
X197326701Y-271591694D01*
X197353951Y-271648866D01*
X197362656Y-271710950D01*
X197351451Y-271771236D01*
X197334636Y-271803703D01*
X197315576Y-271831118D01*
X197297885Y-271852688D01*
X197278348Y-271869153D01*
X197253751Y-271881252D01*
X197220880Y-271889726D01*
X197176521Y-271895314D01*
X197117459Y-271898758D01*
X197040480Y-271900796D01*
X196942370Y-271902170D01*
X196905110Y-271902600D01*
X196575811Y-271906376D01*
X196575811Y-272394123D01*
G37*
D19*
%TO.C,H10*%
X343440000Y-198770001D02*
G75*
G03*
X343440000Y-198770001I-3450000J0D01*
G01*
%TO.C,H7*%
X234439999Y-323770000D02*
G75*
G03*
X234439999Y-323770000I-3450000J0D01*
G01*
%TO.C,H5*%
X343440000Y-253770000D02*
G75*
G03*
X343440000Y-253770000I-3450000J0D01*
G01*
X73439999Y-198770001D02*
G75*
G03*
X73439999Y-198770001I-3450000J0D01*
G01*
X182440000Y-198770000D02*
G75*
G03*
X182440000Y-198770000I-3450000J0D01*
G01*
%TO.C,G\u002A\u002A\u002A*%
D20*
X217328936Y-181006417D02*
X217333763Y-181018334D01*
X217337171Y-181041949D01*
X217339385Y-181080333D01*
X217340633Y-181136556D01*
X217341140Y-181213690D01*
X217341188Y-181257128D01*
X217340927Y-181345287D01*
X217340000Y-181411069D01*
X217338193Y-181457488D01*
X217335287Y-181487564D01*
X217331067Y-181504312D01*
X217325317Y-181510751D01*
X217322993Y-181511128D01*
X217304821Y-181500560D01*
X217296843Y-181486059D01*
X217281406Y-181460536D01*
X217256174Y-181435259D01*
X217243940Y-181426801D01*
X217229287Y-181420425D01*
X217208692Y-181415840D01*
X217178630Y-181412753D01*
X217135579Y-181410872D01*
X217076014Y-181409904D01*
X216996411Y-181409559D01*
X216945775Y-181409528D01*
X216668088Y-181409528D01*
X216669353Y-182041353D01*
X216669776Y-182166640D01*
X216670506Y-182284935D01*
X216671503Y-182393663D01*
X216672730Y-182490250D01*
X216674146Y-182572120D01*
X216675713Y-182636699D01*
X216677392Y-182681412D01*
X216679144Y-182703685D01*
X216679410Y-182704928D01*
X216695900Y-182732985D01*
X216724561Y-182759501D01*
X216728454Y-182762078D01*
X216755060Y-182784310D01*
X216768736Y-182806349D01*
X216769198Y-182809703D01*
X216767742Y-182816695D01*
X216761057Y-182822052D01*
X216746188Y-182825989D01*
X216720179Y-182828722D01*
X216680076Y-182830466D01*
X216622924Y-182831437D01*
X216545767Y-182831852D01*
X216464888Y-182831928D01*
X216369197Y-182831837D01*
X216295925Y-182831407D01*
X216242089Y-182830404D01*
X216204708Y-182828592D01*
X216180799Y-182825737D01*
X216167381Y-182821603D01*
X216161473Y-182815955D01*
X216160092Y-182808559D01*
X216160088Y-182807904D01*
X216171580Y-182785372D01*
X216191607Y-182775970D01*
X216206654Y-182771702D01*
X216219377Y-182765721D01*
X216229970Y-182756014D01*
X216238630Y-182740565D01*
X216245550Y-182717360D01*
X216250926Y-182684383D01*
X216254952Y-182639619D01*
X216257824Y-182581053D01*
X216259736Y-182506670D01*
X216260884Y-182414456D01*
X216261461Y-182302395D01*
X216261664Y-182168471D01*
X216261688Y-182051508D01*
X216261688Y-181409528D01*
X215985113Y-181409528D01*
X215886435Y-181409839D01*
X215809975Y-181411210D01*
X215752556Y-181414293D01*
X215710998Y-181419740D01*
X215682125Y-181428206D01*
X215662758Y-181440342D01*
X215649719Y-181456802D01*
X215639830Y-181478239D01*
X215638900Y-181480659D01*
X215623402Y-181503709D01*
X215607952Y-181511128D01*
X215601284Y-181508205D01*
X215596315Y-181497359D01*
X215592806Y-181475466D01*
X215590519Y-181439406D01*
X215589217Y-181386059D01*
X215588662Y-181312302D01*
X215588588Y-181257128D01*
X215588687Y-181170850D01*
X215589205Y-181106699D01*
X215590469Y-181061402D01*
X215592804Y-181031687D01*
X215596540Y-181014279D01*
X215602003Y-181005906D01*
X215609520Y-181003295D01*
X215613988Y-181003128D01*
X215634594Y-181010075D01*
X215639388Y-181019783D01*
X215647442Y-181040473D01*
X215665282Y-181064233D01*
X215691177Y-181092028D01*
X216457994Y-181092028D01*
X216595679Y-181091900D01*
X216726104Y-181091532D01*
X216847002Y-181090947D01*
X216956106Y-181090167D01*
X217051148Y-181089215D01*
X217129862Y-181088113D01*
X217189981Y-181086885D01*
X217229237Y-181085554D01*
X217245363Y-181084141D01*
X217245369Y-181084138D01*
X217265437Y-181067832D01*
X217284827Y-181039701D01*
X217284833Y-181039688D01*
X217303215Y-181014329D01*
X217321743Y-181003153D01*
X217322464Y-181003128D01*
X217328936Y-181006417D01*
G36*
X217328936Y-181006417D02*
G01*
X217333763Y-181018334D01*
X217337171Y-181041949D01*
X217339385Y-181080333D01*
X217340633Y-181136556D01*
X217341140Y-181213690D01*
X217341188Y-181257128D01*
X217340927Y-181345287D01*
X217340000Y-181411069D01*
X217338193Y-181457488D01*
X217335287Y-181487564D01*
X217331067Y-181504312D01*
X217325317Y-181510751D01*
X217322993Y-181511128D01*
X217304821Y-181500560D01*
X217296843Y-181486059D01*
X217281406Y-181460536D01*
X217256174Y-181435259D01*
X217243940Y-181426801D01*
X217229287Y-181420425D01*
X217208692Y-181415840D01*
X217178630Y-181412753D01*
X217135579Y-181410872D01*
X217076014Y-181409904D01*
X216996411Y-181409559D01*
X216945775Y-181409528D01*
X216668088Y-181409528D01*
X216669353Y-182041353D01*
X216669776Y-182166640D01*
X216670506Y-182284935D01*
X216671503Y-182393663D01*
X216672730Y-182490250D01*
X216674146Y-182572120D01*
X216675713Y-182636699D01*
X216677392Y-182681412D01*
X216679144Y-182703685D01*
X216679410Y-182704928D01*
X216695900Y-182732985D01*
X216724561Y-182759501D01*
X216728454Y-182762078D01*
X216755060Y-182784310D01*
X216768736Y-182806349D01*
X216769198Y-182809703D01*
X216767742Y-182816695D01*
X216761057Y-182822052D01*
X216746188Y-182825989D01*
X216720179Y-182828722D01*
X216680076Y-182830466D01*
X216622924Y-182831437D01*
X216545767Y-182831852D01*
X216464888Y-182831928D01*
X216369197Y-182831837D01*
X216295925Y-182831407D01*
X216242089Y-182830404D01*
X216204708Y-182828592D01*
X216180799Y-182825737D01*
X216167381Y-182821603D01*
X216161473Y-182815955D01*
X216160092Y-182808559D01*
X216160088Y-182807904D01*
X216171580Y-182785372D01*
X216191607Y-182775970D01*
X216206654Y-182771702D01*
X216219377Y-182765721D01*
X216229970Y-182756014D01*
X216238630Y-182740565D01*
X216245550Y-182717360D01*
X216250926Y-182684383D01*
X216254952Y-182639619D01*
X216257824Y-182581053D01*
X216259736Y-182506670D01*
X216260884Y-182414456D01*
X216261461Y-182302395D01*
X216261664Y-182168471D01*
X216261688Y-182051508D01*
X216261688Y-181409528D01*
X215985113Y-181409528D01*
X215886435Y-181409839D01*
X215809975Y-181411210D01*
X215752556Y-181414293D01*
X215710998Y-181419740D01*
X215682125Y-181428206D01*
X215662758Y-181440342D01*
X215649719Y-181456802D01*
X215639830Y-181478239D01*
X215638900Y-181480659D01*
X215623402Y-181503709D01*
X215607952Y-181511128D01*
X215601284Y-181508205D01*
X215596315Y-181497359D01*
X215592806Y-181475466D01*
X215590519Y-181439406D01*
X215589217Y-181386059D01*
X215588662Y-181312302D01*
X215588588Y-181257128D01*
X215588687Y-181170850D01*
X215589205Y-181106699D01*
X215590469Y-181061402D01*
X215592804Y-181031687D01*
X215596540Y-181014279D01*
X215602003Y-181005906D01*
X215609520Y-181003295D01*
X215613988Y-181003128D01*
X215634594Y-181010075D01*
X215639388Y-181019783D01*
X215647442Y-181040473D01*
X215665282Y-181064233D01*
X215691177Y-181092028D01*
X216457994Y-181092028D01*
X216595679Y-181091900D01*
X216726104Y-181091532D01*
X216847002Y-181090947D01*
X216956106Y-181090167D01*
X217051148Y-181089215D01*
X217129862Y-181088113D01*
X217189981Y-181086885D01*
X217229237Y-181085554D01*
X217245363Y-181084141D01*
X217245369Y-181084138D01*
X217265437Y-181067832D01*
X217284827Y-181039701D01*
X217284833Y-181039688D01*
X217303215Y-181014329D01*
X217321743Y-181003153D01*
X217322464Y-181003128D01*
X217328936Y-181006417D01*
G37*
X216471410Y-180005585D02*
X216578218Y-180008131D01*
X216677980Y-180012585D01*
X216765303Y-180018901D01*
X216834794Y-180027035D01*
X216852238Y-180029987D01*
X216974149Y-180056976D01*
X217094790Y-180092585D01*
X217218017Y-180138423D01*
X217347686Y-180196099D01*
X217487656Y-180267222D01*
X217641781Y-180353402D01*
X217677738Y-180374404D01*
X217768957Y-180427813D01*
X217841334Y-180469175D01*
X217897826Y-180499479D01*
X217941388Y-180519717D01*
X217974978Y-180530878D01*
X218001552Y-180533954D01*
X218024065Y-180529935D01*
X218045475Y-180519811D01*
X218067927Y-180505135D01*
X218097274Y-180489646D01*
X218121052Y-180491536D01*
X218128252Y-180494948D01*
X218148555Y-180511250D01*
X218153988Y-180522760D01*
X218147523Y-180536585D01*
X218129182Y-180569300D01*
X218100545Y-180618254D01*
X218063190Y-180680793D01*
X218018697Y-180754265D01*
X217968646Y-180836016D01*
X217935183Y-180890233D01*
X217875238Y-180986902D01*
X217827072Y-181063982D01*
X217789183Y-181123538D01*
X217760073Y-181167635D01*
X217738241Y-181198338D01*
X217722187Y-181217709D01*
X217710410Y-181227815D01*
X217701412Y-181230720D01*
X217693691Y-181228487D01*
X217690708Y-181226674D01*
X217672650Y-181205480D01*
X217661278Y-181167493D01*
X217657321Y-181139404D01*
X217648103Y-181088326D01*
X217630715Y-181043144D01*
X217602434Y-181000840D01*
X217560533Y-180958395D01*
X217502287Y-180912791D01*
X217424972Y-180861010D01*
X217381256Y-180833672D01*
X217209834Y-180742306D01*
X217026930Y-180671154D01*
X216836220Y-180620847D01*
X216641379Y-180592017D01*
X216446084Y-180585295D01*
X216254011Y-180601312D01*
X216145151Y-180621355D01*
X215978884Y-180670910D01*
X215825998Y-180741484D01*
X215687786Y-180831757D01*
X215565543Y-180940409D01*
X215460561Y-181066117D01*
X215374134Y-181207563D01*
X215307557Y-181363426D01*
X215264572Y-181520229D01*
X215253430Y-181596643D01*
X215246966Y-181689877D01*
X215245167Y-181791791D01*
X215248020Y-181894244D01*
X215255512Y-181989093D01*
X215265437Y-182057228D01*
X215308821Y-182220531D01*
X215373861Y-182371887D01*
X215459109Y-182509902D01*
X215563116Y-182633182D01*
X215684436Y-182740335D01*
X215821620Y-182829966D01*
X215973221Y-182900682D01*
X216137790Y-182951090D01*
X216209376Y-182965687D01*
X216289721Y-182975775D01*
X216387015Y-182981823D01*
X216493131Y-182983845D01*
X216599942Y-182981855D01*
X216699323Y-182975867D01*
X216783147Y-182965894D01*
X216790249Y-182964698D01*
X216883556Y-182944510D01*
X216986933Y-182915627D01*
X217090838Y-182881142D01*
X217185728Y-182844148D01*
X217241765Y-182818370D01*
X217297313Y-182788524D01*
X217360712Y-182751349D01*
X217425974Y-182710687D01*
X217487109Y-182670380D01*
X217538129Y-182634269D01*
X217573043Y-182606194D01*
X217574126Y-182605195D01*
X217620543Y-182548014D01*
X217649984Y-182481974D01*
X217658688Y-182424259D01*
X217665981Y-182379651D01*
X217685507Y-182348636D01*
X217712005Y-182337031D01*
X217721983Y-182347307D01*
X217742840Y-182376403D01*
X217772673Y-182421194D01*
X217809578Y-182478551D01*
X217851651Y-182545347D01*
X217896987Y-182618456D01*
X217943684Y-182694751D01*
X217989835Y-182771103D01*
X218033539Y-182844385D01*
X218072890Y-182911471D01*
X218105984Y-182969234D01*
X218130918Y-183014545D01*
X218145788Y-183044278D01*
X218149104Y-183054935D01*
X218129597Y-183077873D01*
X218099302Y-183079791D01*
X218064685Y-183062238D01*
X218030416Y-183042929D01*
X217994495Y-183037341D01*
X217952061Y-183046219D01*
X217898253Y-183070305D01*
X217855230Y-183094262D01*
X217702622Y-183182595D01*
X217568646Y-183258252D01*
X217450623Y-183322376D01*
X217345872Y-183376111D01*
X217251714Y-183420600D01*
X217165469Y-183456987D01*
X217084459Y-183486416D01*
X217006004Y-183510030D01*
X216927423Y-183528973D01*
X216846039Y-183544388D01*
X216775156Y-183555223D01*
X216701807Y-183563076D01*
X216611249Y-183569108D01*
X216510782Y-183573167D01*
X216407709Y-183575103D01*
X216309332Y-183574763D01*
X216222951Y-183571996D01*
X216166438Y-183567836D01*
X215980657Y-183541116D01*
X215800190Y-183500606D01*
X215630541Y-183447863D01*
X215477213Y-183384446D01*
X215424138Y-183357747D01*
X215248954Y-183250537D01*
X215090469Y-183124644D01*
X214949498Y-182981207D01*
X214826857Y-182821366D01*
X214723360Y-182646259D01*
X214639825Y-182457026D01*
X214577066Y-182254806D01*
X214551947Y-182139778D01*
X214539082Y-182047622D01*
X214530836Y-181938091D01*
X214527208Y-181818785D01*
X214528199Y-181697307D01*
X214533810Y-181581257D01*
X214544042Y-181478237D01*
X214551883Y-181428578D01*
X214602899Y-181219168D01*
X214675059Y-181022457D01*
X214767857Y-180839473D01*
X214880789Y-180671247D01*
X214981990Y-180551514D01*
X215116683Y-180421354D01*
X215261356Y-180310021D01*
X215418336Y-180216330D01*
X215589955Y-180139097D01*
X215778542Y-180077134D01*
X215986427Y-180029256D01*
X216020388Y-180023044D01*
X216081548Y-180015377D01*
X216162623Y-180009842D01*
X216258219Y-180006395D01*
X216362946Y-180004991D01*
X216471410Y-180005585D01*
G36*
X216471410Y-180005585D02*
G01*
X216578218Y-180008131D01*
X216677980Y-180012585D01*
X216765303Y-180018901D01*
X216834794Y-180027035D01*
X216852238Y-180029987D01*
X216974149Y-180056976D01*
X217094790Y-180092585D01*
X217218017Y-180138423D01*
X217347686Y-180196099D01*
X217487656Y-180267222D01*
X217641781Y-180353402D01*
X217677738Y-180374404D01*
X217768957Y-180427813D01*
X217841334Y-180469175D01*
X217897826Y-180499479D01*
X217941388Y-180519717D01*
X217974978Y-180530878D01*
X218001552Y-180533954D01*
X218024065Y-180529935D01*
X218045475Y-180519811D01*
X218067927Y-180505135D01*
X218097274Y-180489646D01*
X218121052Y-180491536D01*
X218128252Y-180494948D01*
X218148555Y-180511250D01*
X218153988Y-180522760D01*
X218147523Y-180536585D01*
X218129182Y-180569300D01*
X218100545Y-180618254D01*
X218063190Y-180680793D01*
X218018697Y-180754265D01*
X217968646Y-180836016D01*
X217935183Y-180890233D01*
X217875238Y-180986902D01*
X217827072Y-181063982D01*
X217789183Y-181123538D01*
X217760073Y-181167635D01*
X217738241Y-181198338D01*
X217722187Y-181217709D01*
X217710410Y-181227815D01*
X217701412Y-181230720D01*
X217693691Y-181228487D01*
X217690708Y-181226674D01*
X217672650Y-181205480D01*
X217661278Y-181167493D01*
X217657321Y-181139404D01*
X217648103Y-181088326D01*
X217630715Y-181043144D01*
X217602434Y-181000840D01*
X217560533Y-180958395D01*
X217502287Y-180912791D01*
X217424972Y-180861010D01*
X217381256Y-180833672D01*
X217209834Y-180742306D01*
X217026930Y-180671154D01*
X216836220Y-180620847D01*
X216641379Y-180592017D01*
X216446084Y-180585295D01*
X216254011Y-180601312D01*
X216145151Y-180621355D01*
X215978884Y-180670910D01*
X215825998Y-180741484D01*
X215687786Y-180831757D01*
X215565543Y-180940409D01*
X215460561Y-181066117D01*
X215374134Y-181207563D01*
X215307557Y-181363426D01*
X215264572Y-181520229D01*
X215253430Y-181596643D01*
X215246966Y-181689877D01*
X215245167Y-181791791D01*
X215248020Y-181894244D01*
X215255512Y-181989093D01*
X215265437Y-182057228D01*
X215308821Y-182220531D01*
X215373861Y-182371887D01*
X215459109Y-182509902D01*
X215563116Y-182633182D01*
X215684436Y-182740335D01*
X215821620Y-182829966D01*
X215973221Y-182900682D01*
X216137790Y-182951090D01*
X216209376Y-182965687D01*
X216289721Y-182975775D01*
X216387015Y-182981823D01*
X216493131Y-182983845D01*
X216599942Y-182981855D01*
X216699323Y-182975867D01*
X216783147Y-182965894D01*
X216790249Y-182964698D01*
X216883556Y-182944510D01*
X216986933Y-182915627D01*
X217090838Y-182881142D01*
X217185728Y-182844148D01*
X217241765Y-182818370D01*
X217297313Y-182788524D01*
X217360712Y-182751349D01*
X217425974Y-182710687D01*
X217487109Y-182670380D01*
X217538129Y-182634269D01*
X217573043Y-182606194D01*
X217574126Y-182605195D01*
X217620543Y-182548014D01*
X217649984Y-182481974D01*
X217658688Y-182424259D01*
X217665981Y-182379651D01*
X217685507Y-182348636D01*
X217712005Y-182337031D01*
X217721983Y-182347307D01*
X217742840Y-182376403D01*
X217772673Y-182421194D01*
X217809578Y-182478551D01*
X217851651Y-182545347D01*
X217896987Y-182618456D01*
X217943684Y-182694751D01*
X217989835Y-182771103D01*
X218033539Y-182844385D01*
X218072890Y-182911471D01*
X218105984Y-182969234D01*
X218130918Y-183014545D01*
X218145788Y-183044278D01*
X218149104Y-183054935D01*
X218129597Y-183077873D01*
X218099302Y-183079791D01*
X218064685Y-183062238D01*
X218030416Y-183042929D01*
X217994495Y-183037341D01*
X217952061Y-183046219D01*
X217898253Y-183070305D01*
X217855230Y-183094262D01*
X217702622Y-183182595D01*
X217568646Y-183258252D01*
X217450623Y-183322376D01*
X217345872Y-183376111D01*
X217251714Y-183420600D01*
X217165469Y-183456987D01*
X217084459Y-183486416D01*
X217006004Y-183510030D01*
X216927423Y-183528973D01*
X216846039Y-183544388D01*
X216775156Y-183555223D01*
X216701807Y-183563076D01*
X216611249Y-183569108D01*
X216510782Y-183573167D01*
X216407709Y-183575103D01*
X216309332Y-183574763D01*
X216222951Y-183571996D01*
X216166438Y-183567836D01*
X215980657Y-183541116D01*
X215800190Y-183500606D01*
X215630541Y-183447863D01*
X215477213Y-183384446D01*
X215424138Y-183357747D01*
X215248954Y-183250537D01*
X215090469Y-183124644D01*
X214949498Y-182981207D01*
X214826857Y-182821366D01*
X214723360Y-182646259D01*
X214639825Y-182457026D01*
X214577066Y-182254806D01*
X214551947Y-182139778D01*
X214539082Y-182047622D01*
X214530836Y-181938091D01*
X214527208Y-181818785D01*
X214528199Y-181697307D01*
X214533810Y-181581257D01*
X214544042Y-181478237D01*
X214551883Y-181428578D01*
X214602899Y-181219168D01*
X214675059Y-181022457D01*
X214767857Y-180839473D01*
X214880789Y-180671247D01*
X214981990Y-180551514D01*
X215116683Y-180421354D01*
X215261356Y-180310021D01*
X215418336Y-180216330D01*
X215589955Y-180139097D01*
X215778542Y-180077134D01*
X215986427Y-180029256D01*
X216020388Y-180023044D01*
X216081548Y-180015377D01*
X216162623Y-180009842D01*
X216258219Y-180006395D01*
X216362946Y-180004991D01*
X216471410Y-180005585D01*
G37*
X213404188Y-180145878D02*
X213404188Y-180052188D01*
X213074888Y-180048233D01*
X212969157Y-180046859D01*
X212885609Y-180045073D01*
X212821032Y-180042135D01*
X212772209Y-180037303D01*
X212735928Y-180029836D01*
X212708973Y-180018993D01*
X212688131Y-180004031D01*
X212670188Y-179984210D01*
X212651928Y-179958788D01*
X212645362Y-179949157D01*
X212621760Y-179893390D01*
X212618826Y-179831507D01*
X212635223Y-179770072D01*
X212669614Y-179715652D01*
X212698346Y-179689086D01*
X212710376Y-179681214D01*
X212725034Y-179675013D01*
X212745492Y-179670203D01*
X212774925Y-179666507D01*
X212816505Y-179663647D01*
X212873407Y-179661345D01*
X212948803Y-179659323D01*
X213045867Y-179657302D01*
X213065358Y-179656928D01*
X213397838Y-179650578D01*
X213405689Y-179485478D01*
X213412806Y-179384442D01*
X213424865Y-179302959D01*
X213443999Y-179235337D01*
X213472347Y-179175884D01*
X213512043Y-179118907D01*
X213565223Y-179058716D01*
X213566255Y-179057634D01*
X213642550Y-178985713D01*
X213717948Y-178933317D01*
X213798213Y-178898085D01*
X213889106Y-178877655D01*
X213996391Y-178869663D01*
X214025618Y-178869333D01*
X214082576Y-178868377D01*
X214130653Y-178865948D01*
X214163799Y-178862447D01*
X214175085Y-178859446D01*
X214180298Y-178847949D01*
X214184579Y-178819540D01*
X214188030Y-178772452D01*
X214190752Y-178704917D01*
X214192845Y-178615167D01*
X214194135Y-178526266D01*
X214195374Y-178427176D01*
X214196675Y-178350195D01*
X214198341Y-178292030D01*
X214200672Y-178249389D01*
X214203968Y-178218983D01*
X214208532Y-178197520D01*
X214214664Y-178181708D01*
X214222664Y-178168256D01*
X214227514Y-178161311D01*
X214275205Y-178114130D01*
X214333123Y-178086902D01*
X214395920Y-178079517D01*
X214458247Y-178091864D01*
X214514755Y-178123833D01*
X214555398Y-178168076D01*
X214562674Y-178181016D01*
X214568440Y-178198012D01*
X214572955Y-178222227D01*
X214576480Y-178256822D01*
X214579272Y-178304959D01*
X214581590Y-178369800D01*
X214583694Y-178454506D01*
X214585288Y-178532978D01*
X214591638Y-178863178D01*
X215175838Y-178863178D01*
X215182188Y-178532978D01*
X215185041Y-178414921D01*
X215188603Y-178319711D01*
X215192838Y-178247983D01*
X215197706Y-178200371D01*
X215203171Y-178177509D01*
X215203246Y-178177378D01*
X215247421Y-178124768D01*
X215305255Y-178091115D01*
X215371230Y-178078744D01*
X215422764Y-178084839D01*
X215464180Y-178103407D01*
X215505654Y-178134822D01*
X215540449Y-178172457D01*
X215561827Y-178209687D01*
X215565315Y-178225039D01*
X215567926Y-178261597D01*
X215569538Y-178285328D01*
X215570252Y-178307113D01*
X215571066Y-178350074D01*
X215571920Y-178409989D01*
X215572758Y-178482633D01*
X215573521Y-178563784D01*
X215573760Y-178593541D01*
X215575888Y-178870004D01*
X216153738Y-178863178D01*
X216160088Y-178539328D01*
X216162198Y-178439052D01*
X216164310Y-178360878D01*
X216166710Y-178301509D01*
X216169685Y-178257648D01*
X216173519Y-178225998D01*
X216178499Y-178203263D01*
X216184912Y-178186146D01*
X216191838Y-178173325D01*
X216235753Y-178122366D01*
X216290954Y-178090968D01*
X216352318Y-178079300D01*
X216414723Y-178087532D01*
X216473048Y-178115835D01*
X216520710Y-178162398D01*
X216528844Y-178174603D01*
X216535241Y-178188955D01*
X216540186Y-178208644D01*
X216543967Y-178236858D01*
X216546869Y-178276784D01*
X216549180Y-178331612D01*
X216551185Y-178404531D01*
X216553170Y-178498727D01*
X216553788Y-178530698D01*
X216560138Y-178863178D01*
X217144338Y-178863178D01*
X217150688Y-178530698D01*
X217152871Y-178422981D01*
X217155390Y-178337570D01*
X217159063Y-178271377D01*
X217164710Y-178221313D01*
X217173151Y-178184290D01*
X217185206Y-178157219D01*
X217201695Y-178137011D01*
X217223437Y-178120577D01*
X217251253Y-178104829D01*
X217265731Y-178097267D01*
X217328786Y-178077343D01*
X217391015Y-178081038D01*
X217448208Y-178106795D01*
X217496155Y-178153058D01*
X217519176Y-178190912D01*
X217527077Y-178208908D01*
X217533141Y-178228761D01*
X217537608Y-178253944D01*
X217540719Y-178287930D01*
X217542712Y-178334190D01*
X217543827Y-178396199D01*
X217544304Y-178477428D01*
X217544388Y-178556276D01*
X217544388Y-178870004D01*
X218122238Y-178863178D01*
X218128588Y-178539328D01*
X218130722Y-178436381D01*
X218133010Y-178355501D01*
X218136049Y-178293359D01*
X218140436Y-178246625D01*
X218146769Y-178211970D01*
X218155647Y-178186065D01*
X218167665Y-178165581D01*
X218183421Y-178147188D01*
X218202277Y-178128735D01*
X218256709Y-178092815D01*
X218317592Y-178078559D01*
X218379587Y-178085135D01*
X218437359Y-178111706D01*
X218485570Y-178157438D01*
X218497446Y-178174893D01*
X218505119Y-178189172D01*
X218511029Y-178205908D01*
X218515404Y-178228416D01*
X218518472Y-178260010D01*
X218520461Y-178304004D01*
X218521600Y-178363713D01*
X218522117Y-178442450D01*
X218522240Y-178534794D01*
X218522418Y-178634240D01*
X218523038Y-178711187D01*
X218524278Y-178768534D01*
X218526318Y-178809182D01*
X218529334Y-178836029D01*
X218533507Y-178851975D01*
X218539014Y-178859920D01*
X218542376Y-178861819D01*
X218563035Y-178865058D01*
X218602667Y-178867627D01*
X218654847Y-178869197D01*
X218693645Y-178869528D01*
X218819859Y-178877723D01*
X218929582Y-178903208D01*
X219026095Y-178947328D01*
X219112681Y-179011430D01*
X219163094Y-179062106D01*
X219230973Y-179154945D01*
X219279777Y-179261815D01*
X219309945Y-179384046D01*
X219321913Y-179522966D01*
X219322167Y-179545803D01*
X219322388Y-179656928D01*
X219640518Y-179656928D01*
X219745454Y-179657241D01*
X219827814Y-179658276D01*
X219890417Y-179660175D01*
X219936079Y-179663081D01*
X219967618Y-179667137D01*
X219987852Y-179672485D01*
X219992943Y-179674771D01*
X220048217Y-179715829D01*
X220084256Y-179768231D01*
X220101095Y-179827123D01*
X220098770Y-179887651D01*
X220077316Y-179944961D01*
X220036767Y-179994200D01*
X219990426Y-180024604D01*
X219971777Y-180032824D01*
X219951766Y-180039113D01*
X219926846Y-180043727D01*
X219893470Y-180046922D01*
X219848092Y-180048953D01*
X219787164Y-180050077D01*
X219707140Y-180050548D01*
X219629528Y-180050628D01*
X219322388Y-180050628D01*
X219322388Y-180634828D01*
X219629528Y-180634828D01*
X219726764Y-180634965D01*
X219802154Y-180635550D01*
X219859250Y-180636842D01*
X219901608Y-180639098D01*
X219932778Y-180642577D01*
X219956315Y-180647538D01*
X219975772Y-180654239D01*
X219990999Y-180661129D01*
X220046300Y-180698924D01*
X220080902Y-180749804D01*
X220096105Y-180815984D01*
X220097088Y-180841727D01*
X220094477Y-180888819D01*
X220084414Y-180921928D01*
X220063825Y-180951809D01*
X220044087Y-180974258D01*
X220024896Y-180991839D01*
X220002973Y-181005147D01*
X219975041Y-181014776D01*
X219937821Y-181021320D01*
X219888037Y-181025373D01*
X219822410Y-181027529D01*
X219737661Y-181028382D01*
X219640518Y-181028527D01*
X219322388Y-181028528D01*
X219322388Y-181624225D01*
X219651686Y-181628001D01*
X219752073Y-181629252D01*
X219830267Y-181630601D01*
X219889478Y-181632316D01*
X219932913Y-181634665D01*
X219963781Y-181637917D01*
X219985288Y-181642340D01*
X220000644Y-181648200D01*
X220013055Y-181655767D01*
X220016811Y-181658505D01*
X220065117Y-181708455D01*
X220093105Y-181767647D01*
X220100757Y-181830928D01*
X220088058Y-181893146D01*
X220054989Y-181949151D01*
X220017904Y-181983201D01*
X220004440Y-181992190D01*
X219990118Y-181999225D01*
X219971687Y-182004620D01*
X219945896Y-182008689D01*
X219909495Y-182011748D01*
X219859231Y-182014109D01*
X219791854Y-182016087D01*
X219704113Y-182017997D01*
X219646238Y-182019128D01*
X219557864Y-182021179D01*
X219478658Y-182023693D01*
X219411910Y-182026511D01*
X219360912Y-182029471D01*
X219328956Y-182032416D01*
X219319213Y-182035003D01*
X219320129Y-182049943D01*
X219320942Y-182086533D01*
X219321611Y-182141024D01*
X219322095Y-182209665D01*
X219322355Y-182288708D01*
X219322388Y-182329685D01*
X219322388Y-182614843D01*
X219658254Y-182618610D01*
X219994120Y-182622378D01*
X220039499Y-182666382D01*
X220083143Y-182723912D01*
X220102802Y-182786199D01*
X220098478Y-182849639D01*
X220070169Y-182910627D01*
X220039499Y-182946673D01*
X219994120Y-182990678D01*
X219322388Y-182998212D01*
X219322388Y-183592367D01*
X219649413Y-183596322D01*
X219755671Y-183597747D01*
X219839682Y-183599634D01*
X219904595Y-183602693D01*
X219953561Y-183607638D01*
X219989730Y-183615181D01*
X220016254Y-183626035D01*
X220036282Y-183640912D01*
X220052966Y-183660524D01*
X220069455Y-183685585D01*
X220073581Y-183692240D01*
X220097456Y-183753349D01*
X220098889Y-183817991D01*
X220079108Y-183880487D01*
X220039344Y-183935161D01*
X220016811Y-183954550D01*
X220004662Y-183962701D01*
X219990563Y-183969063D01*
X219971309Y-183973903D01*
X219943690Y-183977489D01*
X219904500Y-183980090D01*
X219850529Y-183981974D01*
X219778571Y-183983408D01*
X219685417Y-183984660D01*
X219651686Y-183985054D01*
X219322388Y-183988830D01*
X219322167Y-184099354D01*
X219313544Y-184237123D01*
X219287716Y-184357774D01*
X219243869Y-184463596D01*
X219181187Y-184556878D01*
X219144588Y-184597445D01*
X219080803Y-184656865D01*
X219018734Y-184701378D01*
X218952808Y-184733188D01*
X218877457Y-184754502D01*
X218787111Y-184767526D01*
X218700088Y-184773467D01*
X218528638Y-184781378D01*
X218522288Y-185112176D01*
X218520156Y-185214315D01*
X218517983Y-185294200D01*
X218515516Y-185354977D01*
X218512504Y-185399790D01*
X218508695Y-185431784D01*
X218503837Y-185454106D01*
X218497679Y-185469899D01*
X218493022Y-185477907D01*
X218447808Y-185526311D01*
X218392158Y-185554449D01*
X218330788Y-185562442D01*
X218268416Y-185550409D01*
X218209757Y-185518472D01*
X218161505Y-185469452D01*
X218153399Y-185457256D01*
X218147068Y-185443025D01*
X218142245Y-185423553D01*
X218138662Y-185395632D01*
X218136050Y-185356053D01*
X218134141Y-185301610D01*
X218132667Y-185229094D01*
X218131360Y-185135298D01*
X218130982Y-185104327D01*
X218127027Y-184775028D01*
X217544388Y-184775028D01*
X217544388Y-185086585D01*
X217544135Y-185192480D01*
X217542994Y-185276304D01*
X217540390Y-185341383D01*
X217535748Y-185391045D01*
X217528494Y-185428617D01*
X217518051Y-185457425D01*
X217503846Y-185480797D01*
X217485304Y-185502060D01*
X217470033Y-185516909D01*
X217419420Y-185548353D01*
X217358497Y-185562079D01*
X217295879Y-185557310D01*
X217246055Y-185537100D01*
X217220643Y-185520846D01*
X217200586Y-185505011D01*
X217185183Y-185486476D01*
X217173735Y-185462120D01*
X217165541Y-185428825D01*
X217159900Y-185383469D01*
X217156113Y-185322932D01*
X217153480Y-185244096D01*
X217151299Y-185143839D01*
X217150688Y-185112179D01*
X217144338Y-184781378D01*
X216560138Y-184781378D01*
X216553788Y-185111578D01*
X216551674Y-185213259D01*
X216549541Y-185292703D01*
X216547128Y-185353072D01*
X216544178Y-185397527D01*
X216540430Y-185429231D01*
X216535626Y-185451345D01*
X216529507Y-185467031D01*
X216523898Y-185476479D01*
X216477599Y-185524625D01*
X216420862Y-185553304D01*
X216359050Y-185562659D01*
X216297522Y-185552833D01*
X216241640Y-185523970D01*
X216196765Y-185476214D01*
X216191404Y-185467584D01*
X216181781Y-185450562D01*
X216174364Y-185434148D01*
X216168865Y-185414923D01*
X216164997Y-185389467D01*
X216162475Y-185354361D01*
X216161009Y-185306185D01*
X216160314Y-185241519D01*
X216160102Y-185156944D01*
X216160088Y-185094587D01*
X216160088Y-184775028D01*
X215575888Y-184775028D01*
X215575888Y-185083487D01*
X215575783Y-185180398D01*
X215575283Y-185255467D01*
X215574109Y-185312250D01*
X215571984Y-185354303D01*
X215568628Y-185385184D01*
X215563763Y-185408450D01*
X215557111Y-185427656D01*
X215548394Y-185446361D01*
X215547313Y-185448509D01*
X215506620Y-185505112D01*
X215453617Y-185543632D01*
X215393240Y-185562453D01*
X215330429Y-185559960D01*
X215274953Y-185537586D01*
X215250359Y-185521870D01*
X215230924Y-185506066D01*
X215215971Y-185487081D01*
X215204825Y-185461819D01*
X215196812Y-185427185D01*
X215191257Y-185380084D01*
X215187485Y-185317421D01*
X215184821Y-185236102D01*
X215182590Y-185133031D01*
X215182188Y-185112176D01*
X215175838Y-184781378D01*
X214881333Y-184777970D01*
X214586828Y-184774563D01*
X214582883Y-185108170D01*
X214581636Y-185208831D01*
X214580367Y-185287310D01*
X214578777Y-185346824D01*
X214576571Y-185390591D01*
X214573452Y-185421827D01*
X214569122Y-185443750D01*
X214563285Y-185459576D01*
X214555644Y-185472522D01*
X214548331Y-185482569D01*
X214499813Y-185528032D01*
X214439937Y-185555043D01*
X214375251Y-185562103D01*
X214312304Y-185547709D01*
X214296912Y-185540203D01*
X214260308Y-185513836D01*
X214227896Y-185481027D01*
X214227261Y-185480216D01*
X214218406Y-185468054D01*
X214211497Y-185454997D01*
X214206250Y-185437851D01*
X214202381Y-185413422D01*
X214199605Y-185378514D01*
X214197637Y-185329934D01*
X214196192Y-185264488D01*
X214194987Y-185178981D01*
X214194170Y-185108741D01*
X214190403Y-184775028D01*
X214046283Y-184775028D01*
X213929818Y-184769895D01*
X213831490Y-184753212D01*
X213745931Y-184723048D01*
X213667772Y-184677476D01*
X213591644Y-184614566D01*
X213586740Y-184609928D01*
X213516521Y-184532814D01*
X213464859Y-184451006D01*
X213430050Y-184360052D01*
X213410394Y-184255498D01*
X213404188Y-184132891D01*
X213404188Y-183987628D01*
X213085432Y-183987628D01*
X212976934Y-183987332D01*
X212890706Y-183986063D01*
X212823617Y-183983243D01*
X212772542Y-183978296D01*
X212734350Y-183970646D01*
X212705914Y-183959717D01*
X212684106Y-183944932D01*
X212665798Y-183925716D01*
X212652340Y-183907851D01*
X212627069Y-183854146D01*
X212618369Y-183793157D01*
X212626598Y-183734192D01*
X212644231Y-183696695D01*
X212663673Y-183668907D01*
X212681592Y-183647044D01*
X212701212Y-183630357D01*
X212725755Y-183618096D01*
X212758445Y-183609513D01*
X212802504Y-183603857D01*
X212861156Y-183600379D01*
X212937623Y-183598330D01*
X213035129Y-183596961D01*
X213075121Y-183596500D01*
X213404653Y-183592722D01*
X213403418Y-183485978D01*
X214388438Y-183485978D01*
X214417757Y-183549478D01*
X214465067Y-183626612D01*
X214529122Y-183694643D01*
X214603867Y-183748387D01*
X214683246Y-183782660D01*
X214693238Y-183785328D01*
X214710439Y-183786473D01*
X214751503Y-183787549D01*
X214814891Y-183788547D01*
X214899068Y-183789462D01*
X215002494Y-183790287D01*
X215123633Y-183791014D01*
X215260947Y-183791638D01*
X215412898Y-183792151D01*
X215577950Y-183792546D01*
X215754565Y-183792818D01*
X215941204Y-183792958D01*
X216136332Y-183792961D01*
X216338410Y-183792819D01*
X216382338Y-183792770D01*
X218033338Y-183790778D01*
X218110638Y-183750367D01*
X218194547Y-183694636D01*
X218260700Y-183623059D01*
X218296785Y-183564999D01*
X218325438Y-183511378D01*
X218325438Y-180133178D01*
X218296312Y-180078630D01*
X218235422Y-179990225D01*
X218157317Y-179918940D01*
X218113393Y-179891091D01*
X218046038Y-179853778D01*
X216388842Y-179850370D01*
X216144362Y-179849841D01*
X215923959Y-179849350D01*
X215726306Y-179848957D01*
X215550082Y-179848722D01*
X215393961Y-179848705D01*
X215256620Y-179848967D01*
X215136735Y-179849568D01*
X215032981Y-179850567D01*
X214944034Y-179852025D01*
X214868571Y-179854002D01*
X214805267Y-179856559D01*
X214752798Y-179859754D01*
X214709840Y-179863649D01*
X214675069Y-179868304D01*
X214647161Y-179873778D01*
X214624792Y-179880132D01*
X214606638Y-179887426D01*
X214591374Y-179895719D01*
X214577677Y-179905073D01*
X214564223Y-179915548D01*
X214549687Y-179927202D01*
X214540534Y-179934302D01*
X214479070Y-179995222D01*
X214433888Y-180063328D01*
X214388438Y-180145878D01*
X214388438Y-183485978D01*
X213403418Y-183485978D01*
X213401245Y-183298050D01*
X213397838Y-183003378D01*
X213067039Y-182997028D01*
X212964900Y-182994896D01*
X212885015Y-182992723D01*
X212824238Y-182990256D01*
X212779425Y-182987244D01*
X212747431Y-182983435D01*
X212725109Y-182978577D01*
X212709316Y-182972419D01*
X212701308Y-182967762D01*
X212654461Y-182923280D01*
X212626425Y-182867435D01*
X212617198Y-182805937D01*
X212626780Y-182744493D01*
X212655173Y-182688811D01*
X212701308Y-182645293D01*
X212714605Y-182638187D01*
X212732450Y-182632540D01*
X212757988Y-182628100D01*
X212794365Y-182624616D01*
X212844725Y-182621835D01*
X212912214Y-182619506D01*
X212999976Y-182617378D01*
X213067039Y-182616028D01*
X213397838Y-182609678D01*
X213404656Y-182019128D01*
X213085476Y-182019128D01*
X212986630Y-182019019D01*
X212909791Y-182018528D01*
X212851567Y-182017406D01*
X212808566Y-182015404D01*
X212777395Y-182012274D01*
X212754663Y-182007767D01*
X212736977Y-182001634D01*
X212720944Y-181993627D01*
X212718439Y-181992230D01*
X212667636Y-181951015D01*
X212634798Y-181898074D01*
X212619852Y-181838621D01*
X212622727Y-181777869D01*
X212643350Y-181721032D01*
X212681650Y-181673323D01*
X212723232Y-181646043D01*
X212740818Y-181639414D01*
X212764302Y-181634330D01*
X212796963Y-181630601D01*
X212842080Y-181628036D01*
X212902932Y-181626446D01*
X212982800Y-181625640D01*
X213078840Y-181625428D01*
X213391004Y-181625428D01*
X213398014Y-181596853D01*
X213399954Y-181575903D01*
X213401341Y-181533816D01*
X213402127Y-181474850D01*
X213402263Y-181403263D01*
X213401700Y-181323311D01*
X213401431Y-181301578D01*
X213397838Y-181034878D01*
X213067638Y-181028528D01*
X212967206Y-181026506D01*
X212888934Y-181024568D01*
X212829581Y-181022412D01*
X212785911Y-181019732D01*
X212754685Y-181016227D01*
X212732663Y-181011591D01*
X212716609Y-181005522D01*
X212703283Y-180997716D01*
X212697728Y-180993853D01*
X212653298Y-180948307D01*
X212626048Y-180891135D01*
X212617343Y-180829051D01*
X212628548Y-180768765D01*
X212645363Y-180736298D01*
X212664423Y-180708883D01*
X212682114Y-180687313D01*
X212701651Y-180670848D01*
X212726248Y-180658749D01*
X212759119Y-180650275D01*
X212803478Y-180644687D01*
X212862540Y-180641243D01*
X212939519Y-180639205D01*
X213037629Y-180637831D01*
X213074889Y-180637401D01*
X213404188Y-180633625D01*
X213404188Y-180145878D01*
G36*
X213404188Y-180145878D02*
G01*
X213404188Y-180052188D01*
X213074888Y-180048233D01*
X212969157Y-180046859D01*
X212885609Y-180045073D01*
X212821032Y-180042135D01*
X212772209Y-180037303D01*
X212735928Y-180029836D01*
X212708973Y-180018993D01*
X212688131Y-180004031D01*
X212670188Y-179984210D01*
X212651928Y-179958788D01*
X212645362Y-179949157D01*
X212621760Y-179893390D01*
X212618826Y-179831507D01*
X212635223Y-179770072D01*
X212669614Y-179715652D01*
X212698346Y-179689086D01*
X212710376Y-179681214D01*
X212725034Y-179675013D01*
X212745492Y-179670203D01*
X212774925Y-179666507D01*
X212816505Y-179663647D01*
X212873407Y-179661345D01*
X212948803Y-179659323D01*
X213045867Y-179657302D01*
X213065358Y-179656928D01*
X213397838Y-179650578D01*
X213405689Y-179485478D01*
X213412806Y-179384442D01*
X213424865Y-179302959D01*
X213443999Y-179235337D01*
X213472347Y-179175884D01*
X213512043Y-179118907D01*
X213565223Y-179058716D01*
X213566255Y-179057634D01*
X213642550Y-178985713D01*
X213717948Y-178933317D01*
X213798213Y-178898085D01*
X213889106Y-178877655D01*
X213996391Y-178869663D01*
X214025618Y-178869333D01*
X214082576Y-178868377D01*
X214130653Y-178865948D01*
X214163799Y-178862447D01*
X214175085Y-178859446D01*
X214180298Y-178847949D01*
X214184579Y-178819540D01*
X214188030Y-178772452D01*
X214190752Y-178704917D01*
X214192845Y-178615167D01*
X214194135Y-178526266D01*
X214195374Y-178427176D01*
X214196675Y-178350195D01*
X214198341Y-178292030D01*
X214200672Y-178249389D01*
X214203968Y-178218983D01*
X214208532Y-178197520D01*
X214214664Y-178181708D01*
X214222664Y-178168256D01*
X214227514Y-178161311D01*
X214275205Y-178114130D01*
X214333123Y-178086902D01*
X214395920Y-178079517D01*
X214458247Y-178091864D01*
X214514755Y-178123833D01*
X214555398Y-178168076D01*
X214562674Y-178181016D01*
X214568440Y-178198012D01*
X214572955Y-178222227D01*
X214576480Y-178256822D01*
X214579272Y-178304959D01*
X214581590Y-178369800D01*
X214583694Y-178454506D01*
X214585288Y-178532978D01*
X214591638Y-178863178D01*
X215175838Y-178863178D01*
X215182188Y-178532978D01*
X215185041Y-178414921D01*
X215188603Y-178319711D01*
X215192838Y-178247983D01*
X215197706Y-178200371D01*
X215203171Y-178177509D01*
X215203246Y-178177378D01*
X215247421Y-178124768D01*
X215305255Y-178091115D01*
X215371230Y-178078744D01*
X215422764Y-178084839D01*
X215464180Y-178103407D01*
X215505654Y-178134822D01*
X215540449Y-178172457D01*
X215561827Y-178209687D01*
X215565315Y-178225039D01*
X215567926Y-178261597D01*
X215569538Y-178285328D01*
X215570252Y-178307113D01*
X215571066Y-178350074D01*
X215571920Y-178409989D01*
X215572758Y-178482633D01*
X215573521Y-178563784D01*
X215573760Y-178593541D01*
X215575888Y-178870004D01*
X216153738Y-178863178D01*
X216160088Y-178539328D01*
X216162198Y-178439052D01*
X216164310Y-178360878D01*
X216166710Y-178301509D01*
X216169685Y-178257648D01*
X216173519Y-178225998D01*
X216178499Y-178203263D01*
X216184912Y-178186146D01*
X216191838Y-178173325D01*
X216235753Y-178122366D01*
X216290954Y-178090968D01*
X216352318Y-178079300D01*
X216414723Y-178087532D01*
X216473048Y-178115835D01*
X216520710Y-178162398D01*
X216528844Y-178174603D01*
X216535241Y-178188955D01*
X216540186Y-178208644D01*
X216543967Y-178236858D01*
X216546869Y-178276784D01*
X216549180Y-178331612D01*
X216551185Y-178404531D01*
X216553170Y-178498727D01*
X216553788Y-178530698D01*
X216560138Y-178863178D01*
X217144338Y-178863178D01*
X217150688Y-178530698D01*
X217152871Y-178422981D01*
X217155390Y-178337570D01*
X217159063Y-178271377D01*
X217164710Y-178221313D01*
X217173151Y-178184290D01*
X217185206Y-178157219D01*
X217201695Y-178137011D01*
X217223437Y-178120577D01*
X217251253Y-178104829D01*
X217265731Y-178097267D01*
X217328786Y-178077343D01*
X217391015Y-178081038D01*
X217448208Y-178106795D01*
X217496155Y-178153058D01*
X217519176Y-178190912D01*
X217527077Y-178208908D01*
X217533141Y-178228761D01*
X217537608Y-178253944D01*
X217540719Y-178287930D01*
X217542712Y-178334190D01*
X217543827Y-178396199D01*
X217544304Y-178477428D01*
X217544388Y-178556276D01*
X217544388Y-178870004D01*
X218122238Y-178863178D01*
X218128588Y-178539328D01*
X218130722Y-178436381D01*
X218133010Y-178355501D01*
X218136049Y-178293359D01*
X218140436Y-178246625D01*
X218146769Y-178211970D01*
X218155647Y-178186065D01*
X218167665Y-178165581D01*
X218183421Y-178147188D01*
X218202277Y-178128735D01*
X218256709Y-178092815D01*
X218317592Y-178078559D01*
X218379587Y-178085135D01*
X218437359Y-178111706D01*
X218485570Y-178157438D01*
X218497446Y-178174893D01*
X218505119Y-178189172D01*
X218511029Y-178205908D01*
X218515404Y-178228416D01*
X218518472Y-178260010D01*
X218520461Y-178304004D01*
X218521600Y-178363713D01*
X218522117Y-178442450D01*
X218522240Y-178534794D01*
X218522418Y-178634240D01*
X218523038Y-178711187D01*
X218524278Y-178768534D01*
X218526318Y-178809182D01*
X218529334Y-178836029D01*
X218533507Y-178851975D01*
X218539014Y-178859920D01*
X218542376Y-178861819D01*
X218563035Y-178865058D01*
X218602667Y-178867627D01*
X218654847Y-178869197D01*
X218693645Y-178869528D01*
X218819859Y-178877723D01*
X218929582Y-178903208D01*
X219026095Y-178947328D01*
X219112681Y-179011430D01*
X219163094Y-179062106D01*
X219230973Y-179154945D01*
X219279777Y-179261815D01*
X219309945Y-179384046D01*
X219321913Y-179522966D01*
X219322167Y-179545803D01*
X219322388Y-179656928D01*
X219640518Y-179656928D01*
X219745454Y-179657241D01*
X219827814Y-179658276D01*
X219890417Y-179660175D01*
X219936079Y-179663081D01*
X219967618Y-179667137D01*
X219987852Y-179672485D01*
X219992943Y-179674771D01*
X220048217Y-179715829D01*
X220084256Y-179768231D01*
X220101095Y-179827123D01*
X220098770Y-179887651D01*
X220077316Y-179944961D01*
X220036767Y-179994200D01*
X219990426Y-180024604D01*
X219971777Y-180032824D01*
X219951766Y-180039113D01*
X219926846Y-180043727D01*
X219893470Y-180046922D01*
X219848092Y-180048953D01*
X219787164Y-180050077D01*
X219707140Y-180050548D01*
X219629528Y-180050628D01*
X219322388Y-180050628D01*
X219322388Y-180634828D01*
X219629528Y-180634828D01*
X219726764Y-180634965D01*
X219802154Y-180635550D01*
X219859250Y-180636842D01*
X219901608Y-180639098D01*
X219932778Y-180642577D01*
X219956315Y-180647538D01*
X219975772Y-180654239D01*
X219990999Y-180661129D01*
X220046300Y-180698924D01*
X220080902Y-180749804D01*
X220096105Y-180815984D01*
X220097088Y-180841727D01*
X220094477Y-180888819D01*
X220084414Y-180921928D01*
X220063825Y-180951809D01*
X220044087Y-180974258D01*
X220024896Y-180991839D01*
X220002973Y-181005147D01*
X219975041Y-181014776D01*
X219937821Y-181021320D01*
X219888037Y-181025373D01*
X219822410Y-181027529D01*
X219737661Y-181028382D01*
X219640518Y-181028527D01*
X219322388Y-181028528D01*
X219322388Y-181624225D01*
X219651686Y-181628001D01*
X219752073Y-181629252D01*
X219830267Y-181630601D01*
X219889478Y-181632316D01*
X219932913Y-181634665D01*
X219963781Y-181637917D01*
X219985288Y-181642340D01*
X220000644Y-181648200D01*
X220013055Y-181655767D01*
X220016811Y-181658505D01*
X220065117Y-181708455D01*
X220093105Y-181767647D01*
X220100757Y-181830928D01*
X220088058Y-181893146D01*
X220054989Y-181949151D01*
X220017904Y-181983201D01*
X220004440Y-181992190D01*
X219990118Y-181999225D01*
X219971687Y-182004620D01*
X219945896Y-182008689D01*
X219909495Y-182011748D01*
X219859231Y-182014109D01*
X219791854Y-182016087D01*
X219704113Y-182017997D01*
X219646238Y-182019128D01*
X219557864Y-182021179D01*
X219478658Y-182023693D01*
X219411910Y-182026511D01*
X219360912Y-182029471D01*
X219328956Y-182032416D01*
X219319213Y-182035003D01*
X219320129Y-182049943D01*
X219320942Y-182086533D01*
X219321611Y-182141024D01*
X219322095Y-182209665D01*
X219322355Y-182288708D01*
X219322388Y-182329685D01*
X219322388Y-182614843D01*
X219658254Y-182618610D01*
X219994120Y-182622378D01*
X220039499Y-182666382D01*
X220083143Y-182723912D01*
X220102802Y-182786199D01*
X220098478Y-182849639D01*
X220070169Y-182910627D01*
X220039499Y-182946673D01*
X219994120Y-182990678D01*
X219322388Y-182998212D01*
X219322388Y-183592367D01*
X219649413Y-183596322D01*
X219755671Y-183597747D01*
X219839682Y-183599634D01*
X219904595Y-183602693D01*
X219953561Y-183607638D01*
X219989730Y-183615181D01*
X220016254Y-183626035D01*
X220036282Y-183640912D01*
X220052966Y-183660524D01*
X220069455Y-183685585D01*
X220073581Y-183692240D01*
X220097456Y-183753349D01*
X220098889Y-183817991D01*
X220079108Y-183880487D01*
X220039344Y-183935161D01*
X220016811Y-183954550D01*
X220004662Y-183962701D01*
X219990563Y-183969063D01*
X219971309Y-183973903D01*
X219943690Y-183977489D01*
X219904500Y-183980090D01*
X219850529Y-183981974D01*
X219778571Y-183983408D01*
X219685417Y-183984660D01*
X219651686Y-183985054D01*
X219322388Y-183988830D01*
X219322167Y-184099354D01*
X219313544Y-184237123D01*
X219287716Y-184357774D01*
X219243869Y-184463596D01*
X219181187Y-184556878D01*
X219144588Y-184597445D01*
X219080803Y-184656865D01*
X219018734Y-184701378D01*
X218952808Y-184733188D01*
X218877457Y-184754502D01*
X218787111Y-184767526D01*
X218700088Y-184773467D01*
X218528638Y-184781378D01*
X218522288Y-185112176D01*
X218520156Y-185214315D01*
X218517983Y-185294200D01*
X218515516Y-185354977D01*
X218512504Y-185399790D01*
X218508695Y-185431784D01*
X218503837Y-185454106D01*
X218497679Y-185469899D01*
X218493022Y-185477907D01*
X218447808Y-185526311D01*
X218392158Y-185554449D01*
X218330788Y-185562442D01*
X218268416Y-185550409D01*
X218209757Y-185518472D01*
X218161505Y-185469452D01*
X218153399Y-185457256D01*
X218147068Y-185443025D01*
X218142245Y-185423553D01*
X218138662Y-185395632D01*
X218136050Y-185356053D01*
X218134141Y-185301610D01*
X218132667Y-185229094D01*
X218131360Y-185135298D01*
X218130982Y-185104327D01*
X218127027Y-184775028D01*
X217544388Y-184775028D01*
X217544388Y-185086585D01*
X217544135Y-185192480D01*
X217542994Y-185276304D01*
X217540390Y-185341383D01*
X217535748Y-185391045D01*
X217528494Y-185428617D01*
X217518051Y-185457425D01*
X217503846Y-185480797D01*
X217485304Y-185502060D01*
X217470033Y-185516909D01*
X217419420Y-185548353D01*
X217358497Y-185562079D01*
X217295879Y-185557310D01*
X217246055Y-185537100D01*
X217220643Y-185520846D01*
X217200586Y-185505011D01*
X217185183Y-185486476D01*
X217173735Y-185462120D01*
X217165541Y-185428825D01*
X217159900Y-185383469D01*
X217156113Y-185322932D01*
X217153480Y-185244096D01*
X217151299Y-185143839D01*
X217150688Y-185112179D01*
X217144338Y-184781378D01*
X216560138Y-184781378D01*
X216553788Y-185111578D01*
X216551674Y-185213259D01*
X216549541Y-185292703D01*
X216547128Y-185353072D01*
X216544178Y-185397527D01*
X216540430Y-185429231D01*
X216535626Y-185451345D01*
X216529507Y-185467031D01*
X216523898Y-185476479D01*
X216477599Y-185524625D01*
X216420862Y-185553304D01*
X216359050Y-185562659D01*
X216297522Y-185552833D01*
X216241640Y-185523970D01*
X216196765Y-185476214D01*
X216191404Y-185467584D01*
X216181781Y-185450562D01*
X216174364Y-185434148D01*
X216168865Y-185414923D01*
X216164997Y-185389467D01*
X216162475Y-185354361D01*
X216161009Y-185306185D01*
X216160314Y-185241519D01*
X216160102Y-185156944D01*
X216160088Y-185094587D01*
X216160088Y-184775028D01*
X215575888Y-184775028D01*
X215575888Y-185083487D01*
X215575783Y-185180398D01*
X215575283Y-185255467D01*
X215574109Y-185312250D01*
X215571984Y-185354303D01*
X215568628Y-185385184D01*
X215563763Y-185408450D01*
X215557111Y-185427656D01*
X215548394Y-185446361D01*
X215547313Y-185448509D01*
X215506620Y-185505112D01*
X215453617Y-185543632D01*
X215393240Y-185562453D01*
X215330429Y-185559960D01*
X215274953Y-185537586D01*
X215250359Y-185521870D01*
X215230924Y-185506066D01*
X215215971Y-185487081D01*
X215204825Y-185461819D01*
X215196812Y-185427185D01*
X215191257Y-185380084D01*
X215187485Y-185317421D01*
X215184821Y-185236102D01*
X215182590Y-185133031D01*
X215182188Y-185112176D01*
X215175838Y-184781378D01*
X214881333Y-184777970D01*
X214586828Y-184774563D01*
X214582883Y-185108170D01*
X214581636Y-185208831D01*
X214580367Y-185287310D01*
X214578777Y-185346824D01*
X214576571Y-185390591D01*
X214573452Y-185421827D01*
X214569122Y-185443750D01*
X214563285Y-185459576D01*
X214555644Y-185472522D01*
X214548331Y-185482569D01*
X214499813Y-185528032D01*
X214439937Y-185555043D01*
X214375251Y-185562103D01*
X214312304Y-185547709D01*
X214296912Y-185540203D01*
X214260308Y-185513836D01*
X214227896Y-185481027D01*
X214227261Y-185480216D01*
X214218406Y-185468054D01*
X214211497Y-185454997D01*
X214206250Y-185437851D01*
X214202381Y-185413422D01*
X214199605Y-185378514D01*
X214197637Y-185329934D01*
X214196192Y-185264488D01*
X214194987Y-185178981D01*
X214194170Y-185108741D01*
X214190403Y-184775028D01*
X214046283Y-184775028D01*
X213929818Y-184769895D01*
X213831490Y-184753212D01*
X213745931Y-184723048D01*
X213667772Y-184677476D01*
X213591644Y-184614566D01*
X213586740Y-184609928D01*
X213516521Y-184532814D01*
X213464859Y-184451006D01*
X213430050Y-184360052D01*
X213410394Y-184255498D01*
X213404188Y-184132891D01*
X213404188Y-183987628D01*
X213085432Y-183987628D01*
X212976934Y-183987332D01*
X212890706Y-183986063D01*
X212823617Y-183983243D01*
X212772542Y-183978296D01*
X212734350Y-183970646D01*
X212705914Y-183959717D01*
X212684106Y-183944932D01*
X212665798Y-183925716D01*
X212652340Y-183907851D01*
X212627069Y-183854146D01*
X212618369Y-183793157D01*
X212626598Y-183734192D01*
X212644231Y-183696695D01*
X212663673Y-183668907D01*
X212681592Y-183647044D01*
X212701212Y-183630357D01*
X212725755Y-183618096D01*
X212758445Y-183609513D01*
X212802504Y-183603857D01*
X212861156Y-183600379D01*
X212937623Y-183598330D01*
X213035129Y-183596961D01*
X213075121Y-183596500D01*
X213404653Y-183592722D01*
X213403418Y-183485978D01*
X214388438Y-183485978D01*
X214417757Y-183549478D01*
X214465067Y-183626612D01*
X214529122Y-183694643D01*
X214603867Y-183748387D01*
X214683246Y-183782660D01*
X214693238Y-183785328D01*
X214710439Y-183786473D01*
X214751503Y-183787549D01*
X214814891Y-183788547D01*
X214899068Y-183789462D01*
X215002494Y-183790287D01*
X215123633Y-183791014D01*
X215260947Y-183791638D01*
X215412898Y-183792151D01*
X215577950Y-183792546D01*
X215754565Y-183792818D01*
X215941204Y-183792958D01*
X216136332Y-183792961D01*
X216338410Y-183792819D01*
X216382338Y-183792770D01*
X218033338Y-183790778D01*
X218110638Y-183750367D01*
X218194547Y-183694636D01*
X218260700Y-183623059D01*
X218296785Y-183564999D01*
X218325438Y-183511378D01*
X218325438Y-180133178D01*
X218296312Y-180078630D01*
X218235422Y-179990225D01*
X218157317Y-179918940D01*
X218113393Y-179891091D01*
X218046038Y-179853778D01*
X216388842Y-179850370D01*
X216144362Y-179849841D01*
X215923959Y-179849350D01*
X215726306Y-179848957D01*
X215550082Y-179848722D01*
X215393961Y-179848705D01*
X215256620Y-179848967D01*
X215136735Y-179849568D01*
X215032981Y-179850567D01*
X214944034Y-179852025D01*
X214868571Y-179854002D01*
X214805267Y-179856559D01*
X214752798Y-179859754D01*
X214709840Y-179863649D01*
X214675069Y-179868304D01*
X214647161Y-179873778D01*
X214624792Y-179880132D01*
X214606638Y-179887426D01*
X214591374Y-179895719D01*
X214577677Y-179905073D01*
X214564223Y-179915548D01*
X214549687Y-179927202D01*
X214540534Y-179934302D01*
X214479070Y-179995222D01*
X214433888Y-180063328D01*
X214388438Y-180145878D01*
X214388438Y-183485978D01*
X213403418Y-183485978D01*
X213401245Y-183298050D01*
X213397838Y-183003378D01*
X213067039Y-182997028D01*
X212964900Y-182994896D01*
X212885015Y-182992723D01*
X212824238Y-182990256D01*
X212779425Y-182987244D01*
X212747431Y-182983435D01*
X212725109Y-182978577D01*
X212709316Y-182972419D01*
X212701308Y-182967762D01*
X212654461Y-182923280D01*
X212626425Y-182867435D01*
X212617198Y-182805937D01*
X212626780Y-182744493D01*
X212655173Y-182688811D01*
X212701308Y-182645293D01*
X212714605Y-182638187D01*
X212732450Y-182632540D01*
X212757988Y-182628100D01*
X212794365Y-182624616D01*
X212844725Y-182621835D01*
X212912214Y-182619506D01*
X212999976Y-182617378D01*
X213067039Y-182616028D01*
X213397838Y-182609678D01*
X213404656Y-182019128D01*
X213085476Y-182019128D01*
X212986630Y-182019019D01*
X212909791Y-182018528D01*
X212851567Y-182017406D01*
X212808566Y-182015404D01*
X212777395Y-182012274D01*
X212754663Y-182007767D01*
X212736977Y-182001634D01*
X212720944Y-181993627D01*
X212718439Y-181992230D01*
X212667636Y-181951015D01*
X212634798Y-181898074D01*
X212619852Y-181838621D01*
X212622727Y-181777869D01*
X212643350Y-181721032D01*
X212681650Y-181673323D01*
X212723232Y-181646043D01*
X212740818Y-181639414D01*
X212764302Y-181634330D01*
X212796963Y-181630601D01*
X212842080Y-181628036D01*
X212902932Y-181626446D01*
X212982800Y-181625640D01*
X213078840Y-181625428D01*
X213391004Y-181625428D01*
X213398014Y-181596853D01*
X213399954Y-181575903D01*
X213401341Y-181533816D01*
X213402127Y-181474850D01*
X213402263Y-181403263D01*
X213401700Y-181323311D01*
X213401431Y-181301578D01*
X213397838Y-181034878D01*
X213067638Y-181028528D01*
X212967206Y-181026506D01*
X212888934Y-181024568D01*
X212829581Y-181022412D01*
X212785911Y-181019732D01*
X212754685Y-181016227D01*
X212732663Y-181011591D01*
X212716609Y-181005522D01*
X212703283Y-180997716D01*
X212697728Y-180993853D01*
X212653298Y-180948307D01*
X212626048Y-180891135D01*
X212617343Y-180829051D01*
X212628548Y-180768765D01*
X212645363Y-180736298D01*
X212664423Y-180708883D01*
X212682114Y-180687313D01*
X212701651Y-180670848D01*
X212726248Y-180658749D01*
X212759119Y-180650275D01*
X212803478Y-180644687D01*
X212862540Y-180641243D01*
X212939519Y-180639205D01*
X213037629Y-180637831D01*
X213074889Y-180637401D01*
X213404188Y-180633625D01*
X213404188Y-180145878D01*
G37*
D19*
%TO.C,H4*%
X73439999Y-108770001D02*
G75*
G03*
X73439999Y-108770001I-3450000J0D01*
G01*
%TD*%
M02*
