%TF.GenerationSoftware,KiCad,Pcbnew,7.0.1*%
%TF.CreationDate,2024-04-02T15:57:58+09:00*%
%TF.ProjectId,Lift_Switch_V5.0,4c696674-5f53-4776-9974-63685f56352e,rev?*%
%TF.SameCoordinates,Original*%
%TF.FileFunction,Legend,Top*%
%TF.FilePolarity,Positive*%
%FSLAX46Y46*%
G04 Gerber Fmt 4.6, Leading zero omitted, Abs format (unit mm)*
G04 Created by KiCad (PCBNEW 7.0.1) date 2024-04-02 15:57:58*
%MOMM*%
%LPD*%
G01*
G04 APERTURE LIST*
%ADD10C,0.500000*%
%ADD11C,0.400000*%
%ADD12C,0.700000*%
%ADD13C,0.150000*%
%ADD14C,0.250000*%
%ADD15C,0.120000*%
%ADD16C,0.300000*%
%ADD17C,0.010000*%
G04 APERTURE END LIST*
D10*
X134040000Y-124990000D02*
G75*
G03*
X136040000Y-122990000I0J2000000D01*
G01*
X134040000Y-98490000D02*
X100050000Y-98490000D01*
D11*
X346775409Y-120262089D02*
X347722578Y-119314920D01*
D10*
X305929999Y-124930000D02*
X271939999Y-124929999D01*
X226969999Y-100469941D02*
X226969999Y-122969940D01*
X305929999Y-98430000D02*
X271939999Y-98430000D01*
X339912091Y-121262500D02*
X340835079Y-120339512D01*
X331837910Y-121262500D02*
X331837910Y-119237500D01*
X98050000Y-100490000D02*
X98050000Y-122989999D01*
D12*
X94599999Y-100490000D02*
G75*
G03*
X92600000Y-98490001I-2034799J-34800D01*
G01*
X74590001Y-122989999D02*
G75*
G03*
X76590000Y-124989999I1999999J-1D01*
G01*
D10*
X316712500Y-120250000D02*
X314687500Y-120250000D01*
X269939999Y-100430000D02*
X269939999Y-122929999D01*
X264959999Y-122969941D02*
X264959999Y-100479941D01*
X219939999Y-124969899D02*
G75*
G03*
X221939999Y-122969941I1J1999999D01*
G01*
X262959999Y-98469941D02*
X228969999Y-98469941D01*
X179010038Y-100473062D02*
G75*
G03*
X177009999Y-98473062I-2000038J-38D01*
G01*
X314687500Y-120250000D02*
X315610488Y-121172988D01*
X314687500Y-120250000D02*
X315634669Y-119302831D01*
D12*
X92600000Y-124990000D02*
X76590000Y-124989999D01*
X74590000Y-100490000D02*
X74590000Y-122989999D01*
D10*
X177009999Y-124973099D02*
G75*
G03*
X179009999Y-122973062I1J1999999D01*
G01*
X185949999Y-98469899D02*
G75*
G03*
X183949999Y-100469941I1J-2000001D01*
G01*
X271939999Y-98429999D02*
G75*
G03*
X269939999Y-100430000I1J-2000001D01*
G01*
X141020039Y-122973061D02*
G75*
G03*
X143019999Y-124973061I1999961J-39D01*
G01*
X136040000Y-100490000D02*
G75*
G03*
X134040000Y-98490000I-2000000J0D01*
G01*
X228969999Y-98469899D02*
G75*
G03*
X226969999Y-100469941I1J-2000001D01*
G01*
D12*
X92600000Y-98490000D02*
X76590000Y-98490000D01*
D10*
X226969960Y-122969940D02*
G75*
G03*
X228969999Y-124969940I2000040J40D01*
G01*
D11*
X348800409Y-120262089D02*
X348800409Y-119250000D01*
D12*
X92600000Y-124990000D02*
G75*
G03*
X94600000Y-122990000I0J2000000D01*
G01*
D10*
X221939999Y-122969941D02*
X221939999Y-100479941D01*
X179009999Y-122973062D02*
X179009999Y-100483062D01*
X219939999Y-124969941D02*
X185949999Y-124969940D01*
D11*
X348800409Y-120262089D02*
X346775409Y-120262089D01*
D10*
X322837500Y-120250000D02*
X324862500Y-120250000D01*
X331837910Y-119237500D02*
X330914922Y-120160488D01*
X269940001Y-122929999D02*
G75*
G03*
X271939999Y-124929999I1999999J-1D01*
G01*
X262959999Y-124969899D02*
G75*
G03*
X264959999Y-122969941I1J1999999D01*
G01*
X134040000Y-124990000D02*
X100050000Y-124989999D01*
X219939999Y-98469941D02*
X185949999Y-98469941D01*
X339912091Y-119237500D02*
X339912091Y-121262500D01*
X183949960Y-122969940D02*
G75*
G03*
X185949999Y-124969940I2000040J40D01*
G01*
X307929999Y-122930000D02*
X307929999Y-100440000D01*
X136040000Y-122990000D02*
X136040000Y-100500000D01*
X305929999Y-124929999D02*
G75*
G03*
X307929999Y-122930000I1J1999999D01*
G01*
D13*
X97650000Y-123440000D02*
G75*
G03*
X97650000Y-123440000I-1250000J0D01*
G01*
D10*
X264959959Y-100469941D02*
G75*
G03*
X262959999Y-98469941I-1999959J41D01*
G01*
X221939959Y-100469941D02*
G75*
G03*
X219939999Y-98469941I-1999959J41D01*
G01*
X141019999Y-100473062D02*
X141019999Y-122973061D01*
X339912091Y-121262500D02*
X338964922Y-120315331D01*
X324862500Y-120250000D02*
X323915331Y-121197169D01*
X183949999Y-100469941D02*
X183949999Y-122969940D01*
X177009999Y-98473062D02*
X143019999Y-98473062D01*
D11*
X346775409Y-120262089D02*
X347698397Y-121185077D01*
D12*
X76590000Y-98490000D02*
G75*
G03*
X74590000Y-100490000I0J-2000000D01*
G01*
D10*
X177009999Y-124973062D02*
X143019999Y-124973061D01*
X307930000Y-100430000D02*
G75*
G03*
X305929999Y-98430000I-2000000J0D01*
G01*
D12*
X94600000Y-122990000D02*
X94600000Y-100500000D01*
D10*
X331837910Y-119237500D02*
X332785079Y-120184669D01*
X262959999Y-124969941D02*
X228969999Y-124969940D01*
X143019999Y-98473099D02*
G75*
G03*
X141019999Y-100473062I1J-2000001D01*
G01*
X324862500Y-120250000D02*
X323939512Y-119327012D01*
X98050001Y-122989999D02*
G75*
G03*
X100050000Y-124989999I1999999J-1D01*
G01*
X100050000Y-98490000D02*
G75*
G03*
X98050000Y-100490000I0J-2000000D01*
G01*
D13*
X278493333Y-82862285D02*
X278398095Y-82805142D01*
X278398095Y-82805142D02*
X278255238Y-82805142D01*
X278255238Y-82805142D02*
X278112381Y-82862285D01*
X278112381Y-82862285D02*
X278017143Y-82976571D01*
X278017143Y-82976571D02*
X277969524Y-83090857D01*
X277969524Y-83090857D02*
X277921905Y-83319428D01*
X277921905Y-83319428D02*
X277921905Y-83490857D01*
X277921905Y-83490857D02*
X277969524Y-83719428D01*
X277969524Y-83719428D02*
X278017143Y-83833714D01*
X278017143Y-83833714D02*
X278112381Y-83948000D01*
X278112381Y-83948000D02*
X278255238Y-84005142D01*
X278255238Y-84005142D02*
X278350476Y-84005142D01*
X278350476Y-84005142D02*
X278493333Y-83948000D01*
X278493333Y-83948000D02*
X278540952Y-83890857D01*
X278540952Y-83890857D02*
X278540952Y-83490857D01*
X278540952Y-83490857D02*
X278350476Y-83490857D01*
X279540952Y-84005142D02*
X279207619Y-83433714D01*
X278969524Y-84005142D02*
X278969524Y-82805142D01*
X278969524Y-82805142D02*
X279350476Y-82805142D01*
X279350476Y-82805142D02*
X279445714Y-82862285D01*
X279445714Y-82862285D02*
X279493333Y-82919428D01*
X279493333Y-82919428D02*
X279540952Y-83033714D01*
X279540952Y-83033714D02*
X279540952Y-83205142D01*
X279540952Y-83205142D02*
X279493333Y-83319428D01*
X279493333Y-83319428D02*
X279445714Y-83376571D01*
X279445714Y-83376571D02*
X279350476Y-83433714D01*
X279350476Y-83433714D02*
X278969524Y-83433714D01*
X279969524Y-83376571D02*
X280302857Y-83376571D01*
X280445714Y-84005142D02*
X279969524Y-84005142D01*
X279969524Y-84005142D02*
X279969524Y-82805142D01*
X279969524Y-82805142D02*
X280445714Y-82805142D01*
X280874286Y-83376571D02*
X281207619Y-83376571D01*
X281350476Y-84005142D02*
X280874286Y-84005142D01*
X280874286Y-84005142D02*
X280874286Y-82805142D01*
X280874286Y-82805142D02*
X281350476Y-82805142D01*
X281779048Y-84005142D02*
X281779048Y-82805142D01*
X281779048Y-82805142D02*
X282350476Y-84005142D01*
X282350476Y-84005142D02*
X282350476Y-82805142D01*
D10*
X104238095Y-105675238D02*
X104238095Y-103675238D01*
X104238095Y-103675238D02*
X104714285Y-103675238D01*
X104714285Y-103675238D02*
X105000000Y-103770476D01*
X105000000Y-103770476D02*
X105190476Y-103960952D01*
X105190476Y-103960952D02*
X105285714Y-104151428D01*
X105285714Y-104151428D02*
X105380952Y-104532380D01*
X105380952Y-104532380D02*
X105380952Y-104818095D01*
X105380952Y-104818095D02*
X105285714Y-105199047D01*
X105285714Y-105199047D02*
X105190476Y-105389523D01*
X105190476Y-105389523D02*
X105000000Y-105580000D01*
X105000000Y-105580000D02*
X104714285Y-105675238D01*
X104714285Y-105675238D02*
X104238095Y-105675238D01*
X106619047Y-103675238D02*
X107000000Y-103675238D01*
X107000000Y-103675238D02*
X107190476Y-103770476D01*
X107190476Y-103770476D02*
X107380952Y-103960952D01*
X107380952Y-103960952D02*
X107476190Y-104341904D01*
X107476190Y-104341904D02*
X107476190Y-105008571D01*
X107476190Y-105008571D02*
X107380952Y-105389523D01*
X107380952Y-105389523D02*
X107190476Y-105580000D01*
X107190476Y-105580000D02*
X107000000Y-105675238D01*
X107000000Y-105675238D02*
X106619047Y-105675238D01*
X106619047Y-105675238D02*
X106428571Y-105580000D01*
X106428571Y-105580000D02*
X106238095Y-105389523D01*
X106238095Y-105389523D02*
X106142857Y-105008571D01*
X106142857Y-105008571D02*
X106142857Y-104341904D01*
X106142857Y-104341904D02*
X106238095Y-103960952D01*
X106238095Y-103960952D02*
X106428571Y-103770476D01*
X106428571Y-103770476D02*
X106619047Y-103675238D01*
X108142857Y-103675238D02*
X108619047Y-105675238D01*
X108619047Y-105675238D02*
X109000000Y-104246666D01*
X109000000Y-104246666D02*
X109380952Y-105675238D01*
X109380952Y-105675238D02*
X109857143Y-103675238D01*
X110619047Y-105675238D02*
X110619047Y-103675238D01*
X110619047Y-103675238D02*
X111761904Y-105675238D01*
X111761904Y-105675238D02*
X111761904Y-103675238D01*
X276398095Y-105625238D02*
X276398095Y-103625238D01*
X276398095Y-103625238D02*
X276874285Y-103625238D01*
X276874285Y-103625238D02*
X277160000Y-103720476D01*
X277160000Y-103720476D02*
X277350476Y-103910952D01*
X277350476Y-103910952D02*
X277445714Y-104101428D01*
X277445714Y-104101428D02*
X277540952Y-104482380D01*
X277540952Y-104482380D02*
X277540952Y-104768095D01*
X277540952Y-104768095D02*
X277445714Y-105149047D01*
X277445714Y-105149047D02*
X277350476Y-105339523D01*
X277350476Y-105339523D02*
X277160000Y-105530000D01*
X277160000Y-105530000D02*
X276874285Y-105625238D01*
X276874285Y-105625238D02*
X276398095Y-105625238D01*
X278779047Y-103625238D02*
X279160000Y-103625238D01*
X279160000Y-103625238D02*
X279350476Y-103720476D01*
X279350476Y-103720476D02*
X279540952Y-103910952D01*
X279540952Y-103910952D02*
X279636190Y-104291904D01*
X279636190Y-104291904D02*
X279636190Y-104958571D01*
X279636190Y-104958571D02*
X279540952Y-105339523D01*
X279540952Y-105339523D02*
X279350476Y-105530000D01*
X279350476Y-105530000D02*
X279160000Y-105625238D01*
X279160000Y-105625238D02*
X278779047Y-105625238D01*
X278779047Y-105625238D02*
X278588571Y-105530000D01*
X278588571Y-105530000D02*
X278398095Y-105339523D01*
X278398095Y-105339523D02*
X278302857Y-104958571D01*
X278302857Y-104958571D02*
X278302857Y-104291904D01*
X278302857Y-104291904D02*
X278398095Y-103910952D01*
X278398095Y-103910952D02*
X278588571Y-103720476D01*
X278588571Y-103720476D02*
X278779047Y-103625238D01*
X280302857Y-103625238D02*
X280779047Y-105625238D01*
X280779047Y-105625238D02*
X281160000Y-104196666D01*
X281160000Y-104196666D02*
X281540952Y-105625238D01*
X281540952Y-105625238D02*
X282017143Y-103625238D01*
X282779047Y-105625238D02*
X282779047Y-103625238D01*
X282779047Y-103625238D02*
X283921904Y-105625238D01*
X283921904Y-105625238D02*
X283921904Y-103625238D01*
X233338095Y-105662947D02*
X233338095Y-103662947D01*
X233338095Y-103662947D02*
X233814285Y-103662947D01*
X233814285Y-103662947D02*
X234100000Y-103758185D01*
X234100000Y-103758185D02*
X234290476Y-103948661D01*
X234290476Y-103948661D02*
X234385714Y-104139137D01*
X234385714Y-104139137D02*
X234480952Y-104520089D01*
X234480952Y-104520089D02*
X234480952Y-104805804D01*
X234480952Y-104805804D02*
X234385714Y-105186756D01*
X234385714Y-105186756D02*
X234290476Y-105377232D01*
X234290476Y-105377232D02*
X234100000Y-105567709D01*
X234100000Y-105567709D02*
X233814285Y-105662947D01*
X233814285Y-105662947D02*
X233338095Y-105662947D01*
X235719047Y-103662947D02*
X236100000Y-103662947D01*
X236100000Y-103662947D02*
X236290476Y-103758185D01*
X236290476Y-103758185D02*
X236480952Y-103948661D01*
X236480952Y-103948661D02*
X236576190Y-104329613D01*
X236576190Y-104329613D02*
X236576190Y-104996280D01*
X236576190Y-104996280D02*
X236480952Y-105377232D01*
X236480952Y-105377232D02*
X236290476Y-105567709D01*
X236290476Y-105567709D02*
X236100000Y-105662947D01*
X236100000Y-105662947D02*
X235719047Y-105662947D01*
X235719047Y-105662947D02*
X235528571Y-105567709D01*
X235528571Y-105567709D02*
X235338095Y-105377232D01*
X235338095Y-105377232D02*
X235242857Y-104996280D01*
X235242857Y-104996280D02*
X235242857Y-104329613D01*
X235242857Y-104329613D02*
X235338095Y-103948661D01*
X235338095Y-103948661D02*
X235528571Y-103758185D01*
X235528571Y-103758185D02*
X235719047Y-103662947D01*
X237242857Y-103662947D02*
X237719047Y-105662947D01*
X237719047Y-105662947D02*
X238100000Y-104234375D01*
X238100000Y-104234375D02*
X238480952Y-105662947D01*
X238480952Y-105662947D02*
X238957143Y-103662947D01*
X239719047Y-105662947D02*
X239719047Y-103662947D01*
X239719047Y-103662947D02*
X240861904Y-105662947D01*
X240861904Y-105662947D02*
X240861904Y-103662947D01*
D13*
X107045714Y-83185142D02*
X106569524Y-83185142D01*
X106569524Y-83185142D02*
X106569524Y-81985142D01*
X107569524Y-81985142D02*
X107760000Y-81985142D01*
X107760000Y-81985142D02*
X107855238Y-82042285D01*
X107855238Y-82042285D02*
X107950476Y-82156571D01*
X107950476Y-82156571D02*
X107998095Y-82385142D01*
X107998095Y-82385142D02*
X107998095Y-82785142D01*
X107998095Y-82785142D02*
X107950476Y-83013714D01*
X107950476Y-83013714D02*
X107855238Y-83128000D01*
X107855238Y-83128000D02*
X107760000Y-83185142D01*
X107760000Y-83185142D02*
X107569524Y-83185142D01*
X107569524Y-83185142D02*
X107474286Y-83128000D01*
X107474286Y-83128000D02*
X107379048Y-83013714D01*
X107379048Y-83013714D02*
X107331429Y-82785142D01*
X107331429Y-82785142D02*
X107331429Y-82385142D01*
X107331429Y-82385142D02*
X107379048Y-82156571D01*
X107379048Y-82156571D02*
X107474286Y-82042285D01*
X107474286Y-82042285D02*
X107569524Y-81985142D01*
X108998095Y-83070857D02*
X108950476Y-83128000D01*
X108950476Y-83128000D02*
X108807619Y-83185142D01*
X108807619Y-83185142D02*
X108712381Y-83185142D01*
X108712381Y-83185142D02*
X108569524Y-83128000D01*
X108569524Y-83128000D02*
X108474286Y-83013714D01*
X108474286Y-83013714D02*
X108426667Y-82899428D01*
X108426667Y-82899428D02*
X108379048Y-82670857D01*
X108379048Y-82670857D02*
X108379048Y-82499428D01*
X108379048Y-82499428D02*
X108426667Y-82270857D01*
X108426667Y-82270857D02*
X108474286Y-82156571D01*
X108474286Y-82156571D02*
X108569524Y-82042285D01*
X108569524Y-82042285D02*
X108712381Y-81985142D01*
X108712381Y-81985142D02*
X108807619Y-81985142D01*
X108807619Y-81985142D02*
X108950476Y-82042285D01*
X108950476Y-82042285D02*
X108998095Y-82099428D01*
X109426667Y-83185142D02*
X109426667Y-81985142D01*
X109998095Y-83185142D02*
X109569524Y-82499428D01*
X109998095Y-81985142D02*
X109426667Y-82670857D01*
D10*
X124478571Y-103675238D02*
X124478571Y-105294285D01*
X124478571Y-105294285D02*
X124573809Y-105484761D01*
X124573809Y-105484761D02*
X124669047Y-105580000D01*
X124669047Y-105580000D02*
X124859523Y-105675238D01*
X124859523Y-105675238D02*
X125240476Y-105675238D01*
X125240476Y-105675238D02*
X125430952Y-105580000D01*
X125430952Y-105580000D02*
X125526190Y-105484761D01*
X125526190Y-105484761D02*
X125621428Y-105294285D01*
X125621428Y-105294285D02*
X125621428Y-103675238D01*
X126573809Y-105675238D02*
X126573809Y-103675238D01*
X126573809Y-103675238D02*
X127335714Y-103675238D01*
X127335714Y-103675238D02*
X127526190Y-103770476D01*
X127526190Y-103770476D02*
X127621428Y-103865714D01*
X127621428Y-103865714D02*
X127716666Y-104056190D01*
X127716666Y-104056190D02*
X127716666Y-104341904D01*
X127716666Y-104341904D02*
X127621428Y-104532380D01*
X127621428Y-104532380D02*
X127526190Y-104627619D01*
X127526190Y-104627619D02*
X127335714Y-104722857D01*
X127335714Y-104722857D02*
X126573809Y-104722857D01*
X156709523Y-101689603D02*
X155757142Y-101689603D01*
X155757142Y-101689603D02*
X155757142Y-99689603D01*
X157376190Y-101689603D02*
X157376190Y-99689603D01*
X158995238Y-100641984D02*
X158328571Y-100641984D01*
X158328571Y-101689603D02*
X158328571Y-99689603D01*
X158328571Y-99689603D02*
X159280952Y-99689603D01*
X159757143Y-99689603D02*
X160900000Y-99689603D01*
X160328571Y-101689603D02*
X160328571Y-99689603D01*
X163947620Y-100356269D02*
X163947620Y-101689603D01*
X163471429Y-99594365D02*
X162995239Y-101022936D01*
X162995239Y-101022936D02*
X164233334Y-101022936D01*
D13*
X83897142Y-85005142D02*
X83563809Y-84433714D01*
X83325714Y-85005142D02*
X83325714Y-83805142D01*
X83325714Y-83805142D02*
X83706666Y-83805142D01*
X83706666Y-83805142D02*
X83801904Y-83862285D01*
X83801904Y-83862285D02*
X83849523Y-83919428D01*
X83849523Y-83919428D02*
X83897142Y-84033714D01*
X83897142Y-84033714D02*
X83897142Y-84205142D01*
X83897142Y-84205142D02*
X83849523Y-84319428D01*
X83849523Y-84319428D02*
X83801904Y-84376571D01*
X83801904Y-84376571D02*
X83706666Y-84433714D01*
X83706666Y-84433714D02*
X83325714Y-84433714D01*
X84325714Y-84376571D02*
X84659047Y-84376571D01*
X84801904Y-85005142D02*
X84325714Y-85005142D01*
X84325714Y-85005142D02*
X84325714Y-83805142D01*
X84325714Y-83805142D02*
X84801904Y-83805142D01*
X85230476Y-85005142D02*
X85230476Y-83805142D01*
X85230476Y-83805142D02*
X85468571Y-83805142D01*
X85468571Y-83805142D02*
X85611428Y-83862285D01*
X85611428Y-83862285D02*
X85706666Y-83976571D01*
X85706666Y-83976571D02*
X85754285Y-84090857D01*
X85754285Y-84090857D02*
X85801904Y-84319428D01*
X85801904Y-84319428D02*
X85801904Y-84490857D01*
X85801904Y-84490857D02*
X85754285Y-84719428D01*
X85754285Y-84719428D02*
X85706666Y-84833714D01*
X85706666Y-84833714D02*
X85611428Y-84948000D01*
X85611428Y-84948000D02*
X85468571Y-85005142D01*
X85468571Y-85005142D02*
X85230476Y-85005142D01*
X166732857Y-83446480D02*
X166732857Y-84017908D01*
X166399524Y-82817908D02*
X166732857Y-83446480D01*
X166732857Y-83446480D02*
X167066190Y-82817908D01*
X167399524Y-83389337D02*
X167732857Y-83389337D01*
X167875714Y-84017908D02*
X167399524Y-84017908D01*
X167399524Y-84017908D02*
X167399524Y-82817908D01*
X167399524Y-82817908D02*
X167875714Y-82817908D01*
X168780476Y-84017908D02*
X168304286Y-84017908D01*
X168304286Y-84017908D02*
X168304286Y-82817908D01*
X169590000Y-84017908D02*
X169113810Y-84017908D01*
X169113810Y-84017908D02*
X169113810Y-82817908D01*
X170113810Y-82817908D02*
X170304286Y-82817908D01*
X170304286Y-82817908D02*
X170399524Y-82875051D01*
X170399524Y-82875051D02*
X170494762Y-82989337D01*
X170494762Y-82989337D02*
X170542381Y-83217908D01*
X170542381Y-83217908D02*
X170542381Y-83617908D01*
X170542381Y-83617908D02*
X170494762Y-83846480D01*
X170494762Y-83846480D02*
X170399524Y-83960766D01*
X170399524Y-83960766D02*
X170304286Y-84017908D01*
X170304286Y-84017908D02*
X170113810Y-84017908D01*
X170113810Y-84017908D02*
X170018572Y-83960766D01*
X170018572Y-83960766D02*
X169923334Y-83846480D01*
X169923334Y-83846480D02*
X169875715Y-83617908D01*
X169875715Y-83617908D02*
X169875715Y-83217908D01*
X169875715Y-83217908D02*
X169923334Y-82989337D01*
X169923334Y-82989337D02*
X170018572Y-82875051D01*
X170018572Y-82875051D02*
X170113810Y-82817908D01*
X170875715Y-82817908D02*
X171113810Y-84017908D01*
X171113810Y-84017908D02*
X171304286Y-83160766D01*
X171304286Y-83160766D02*
X171494762Y-84017908D01*
X171494762Y-84017908D02*
X171732858Y-82817908D01*
D10*
X242809523Y-101487598D02*
X241857142Y-101487598D01*
X241857142Y-101487598D02*
X241857142Y-99487598D01*
X243476190Y-101487598D02*
X243476190Y-99487598D01*
X245095238Y-100439979D02*
X244428571Y-100439979D01*
X244428571Y-101487598D02*
X244428571Y-99487598D01*
X244428571Y-99487598D02*
X245380952Y-99487598D01*
X245857143Y-99487598D02*
X247000000Y-99487598D01*
X246428571Y-101487598D02*
X246428571Y-99487598D01*
X249095239Y-99678074D02*
X249190477Y-99582836D01*
X249190477Y-99582836D02*
X249380953Y-99487598D01*
X249380953Y-99487598D02*
X249857144Y-99487598D01*
X249857144Y-99487598D02*
X250047620Y-99582836D01*
X250047620Y-99582836D02*
X250142858Y-99678074D01*
X250142858Y-99678074D02*
X250238096Y-99868550D01*
X250238096Y-99868550D02*
X250238096Y-100059026D01*
X250238096Y-100059026D02*
X250142858Y-100344740D01*
X250142858Y-100344740D02*
X249000001Y-101487598D01*
X249000001Y-101487598D02*
X250238096Y-101487598D01*
D13*
X125175714Y-83185142D02*
X124699524Y-83185142D01*
X124699524Y-83185142D02*
X124699524Y-81985142D01*
X125699524Y-81985142D02*
X125890000Y-81985142D01*
X125890000Y-81985142D02*
X125985238Y-82042285D01*
X125985238Y-82042285D02*
X126080476Y-82156571D01*
X126080476Y-82156571D02*
X126128095Y-82385142D01*
X126128095Y-82385142D02*
X126128095Y-82785142D01*
X126128095Y-82785142D02*
X126080476Y-83013714D01*
X126080476Y-83013714D02*
X125985238Y-83128000D01*
X125985238Y-83128000D02*
X125890000Y-83185142D01*
X125890000Y-83185142D02*
X125699524Y-83185142D01*
X125699524Y-83185142D02*
X125604286Y-83128000D01*
X125604286Y-83128000D02*
X125509048Y-83013714D01*
X125509048Y-83013714D02*
X125461429Y-82785142D01*
X125461429Y-82785142D02*
X125461429Y-82385142D01*
X125461429Y-82385142D02*
X125509048Y-82156571D01*
X125509048Y-82156571D02*
X125604286Y-82042285D01*
X125604286Y-82042285D02*
X125699524Y-81985142D01*
X127128095Y-83070857D02*
X127080476Y-83128000D01*
X127080476Y-83128000D02*
X126937619Y-83185142D01*
X126937619Y-83185142D02*
X126842381Y-83185142D01*
X126842381Y-83185142D02*
X126699524Y-83128000D01*
X126699524Y-83128000D02*
X126604286Y-83013714D01*
X126604286Y-83013714D02*
X126556667Y-82899428D01*
X126556667Y-82899428D02*
X126509048Y-82670857D01*
X126509048Y-82670857D02*
X126509048Y-82499428D01*
X126509048Y-82499428D02*
X126556667Y-82270857D01*
X126556667Y-82270857D02*
X126604286Y-82156571D01*
X126604286Y-82156571D02*
X126699524Y-82042285D01*
X126699524Y-82042285D02*
X126842381Y-81985142D01*
X126842381Y-81985142D02*
X126937619Y-81985142D01*
X126937619Y-81985142D02*
X127080476Y-82042285D01*
X127080476Y-82042285D02*
X127128095Y-82099428D01*
X127556667Y-83185142D02*
X127556667Y-81985142D01*
X128128095Y-83185142D02*
X127699524Y-82499428D01*
X128128095Y-81985142D02*
X127556667Y-82670857D01*
X338936428Y-119302095D02*
X339393571Y-119302095D01*
X339164999Y-119302095D02*
X339164999Y-118502095D01*
X339164999Y-118502095D02*
X339241190Y-118616380D01*
X339241190Y-118616380D02*
X339317380Y-118692571D01*
X339317380Y-118692571D02*
X339393571Y-118730666D01*
X235453333Y-82872285D02*
X235358095Y-82815142D01*
X235358095Y-82815142D02*
X235215238Y-82815142D01*
X235215238Y-82815142D02*
X235072381Y-82872285D01*
X235072381Y-82872285D02*
X234977143Y-82986571D01*
X234977143Y-82986571D02*
X234929524Y-83100857D01*
X234929524Y-83100857D02*
X234881905Y-83329428D01*
X234881905Y-83329428D02*
X234881905Y-83500857D01*
X234881905Y-83500857D02*
X234929524Y-83729428D01*
X234929524Y-83729428D02*
X234977143Y-83843714D01*
X234977143Y-83843714D02*
X235072381Y-83958000D01*
X235072381Y-83958000D02*
X235215238Y-84015142D01*
X235215238Y-84015142D02*
X235310476Y-84015142D01*
X235310476Y-84015142D02*
X235453333Y-83958000D01*
X235453333Y-83958000D02*
X235500952Y-83900857D01*
X235500952Y-83900857D02*
X235500952Y-83500857D01*
X235500952Y-83500857D02*
X235310476Y-83500857D01*
X236500952Y-84015142D02*
X236167619Y-83443714D01*
X235929524Y-84015142D02*
X235929524Y-82815142D01*
X235929524Y-82815142D02*
X236310476Y-82815142D01*
X236310476Y-82815142D02*
X236405714Y-82872285D01*
X236405714Y-82872285D02*
X236453333Y-82929428D01*
X236453333Y-82929428D02*
X236500952Y-83043714D01*
X236500952Y-83043714D02*
X236500952Y-83215142D01*
X236500952Y-83215142D02*
X236453333Y-83329428D01*
X236453333Y-83329428D02*
X236405714Y-83386571D01*
X236405714Y-83386571D02*
X236310476Y-83443714D01*
X236310476Y-83443714D02*
X235929524Y-83443714D01*
X236929524Y-83386571D02*
X237262857Y-83386571D01*
X237405714Y-84015142D02*
X236929524Y-84015142D01*
X236929524Y-84015142D02*
X236929524Y-82815142D01*
X236929524Y-82815142D02*
X237405714Y-82815142D01*
X237834286Y-83386571D02*
X238167619Y-83386571D01*
X238310476Y-84015142D02*
X237834286Y-84015142D01*
X237834286Y-84015142D02*
X237834286Y-82815142D01*
X237834286Y-82815142D02*
X238310476Y-82815142D01*
X238739048Y-84015142D02*
X238739048Y-82815142D01*
X238739048Y-82815142D02*
X239310476Y-84015142D01*
X239310476Y-84015142D02*
X239310476Y-82815142D01*
X83335714Y-83185142D02*
X82859524Y-83185142D01*
X82859524Y-83185142D02*
X82859524Y-81985142D01*
X83859524Y-81985142D02*
X84050000Y-81985142D01*
X84050000Y-81985142D02*
X84145238Y-82042285D01*
X84145238Y-82042285D02*
X84240476Y-82156571D01*
X84240476Y-82156571D02*
X84288095Y-82385142D01*
X84288095Y-82385142D02*
X84288095Y-82785142D01*
X84288095Y-82785142D02*
X84240476Y-83013714D01*
X84240476Y-83013714D02*
X84145238Y-83128000D01*
X84145238Y-83128000D02*
X84050000Y-83185142D01*
X84050000Y-83185142D02*
X83859524Y-83185142D01*
X83859524Y-83185142D02*
X83764286Y-83128000D01*
X83764286Y-83128000D02*
X83669048Y-83013714D01*
X83669048Y-83013714D02*
X83621429Y-82785142D01*
X83621429Y-82785142D02*
X83621429Y-82385142D01*
X83621429Y-82385142D02*
X83669048Y-82156571D01*
X83669048Y-82156571D02*
X83764286Y-82042285D01*
X83764286Y-82042285D02*
X83859524Y-81985142D01*
X85288095Y-83070857D02*
X85240476Y-83128000D01*
X85240476Y-83128000D02*
X85097619Y-83185142D01*
X85097619Y-83185142D02*
X85002381Y-83185142D01*
X85002381Y-83185142D02*
X84859524Y-83128000D01*
X84859524Y-83128000D02*
X84764286Y-83013714D01*
X84764286Y-83013714D02*
X84716667Y-82899428D01*
X84716667Y-82899428D02*
X84669048Y-82670857D01*
X84669048Y-82670857D02*
X84669048Y-82499428D01*
X84669048Y-82499428D02*
X84716667Y-82270857D01*
X84716667Y-82270857D02*
X84764286Y-82156571D01*
X84764286Y-82156571D02*
X84859524Y-82042285D01*
X84859524Y-82042285D02*
X85002381Y-81985142D01*
X85002381Y-81985142D02*
X85097619Y-81985142D01*
X85097619Y-81985142D02*
X85240476Y-82042285D01*
X85240476Y-82042285D02*
X85288095Y-82099428D01*
X85716667Y-83185142D02*
X85716667Y-81985142D01*
X86288095Y-83185142D02*
X85859524Y-82499428D01*
X86288095Y-81985142D02*
X85716667Y-82670857D01*
X192423333Y-82876132D02*
X192328095Y-82818989D01*
X192328095Y-82818989D02*
X192185238Y-82818989D01*
X192185238Y-82818989D02*
X192042381Y-82876132D01*
X192042381Y-82876132D02*
X191947143Y-82990418D01*
X191947143Y-82990418D02*
X191899524Y-83104704D01*
X191899524Y-83104704D02*
X191851905Y-83333275D01*
X191851905Y-83333275D02*
X191851905Y-83504704D01*
X191851905Y-83504704D02*
X191899524Y-83733275D01*
X191899524Y-83733275D02*
X191947143Y-83847561D01*
X191947143Y-83847561D02*
X192042381Y-83961847D01*
X192042381Y-83961847D02*
X192185238Y-84018989D01*
X192185238Y-84018989D02*
X192280476Y-84018989D01*
X192280476Y-84018989D02*
X192423333Y-83961847D01*
X192423333Y-83961847D02*
X192470952Y-83904704D01*
X192470952Y-83904704D02*
X192470952Y-83504704D01*
X192470952Y-83504704D02*
X192280476Y-83504704D01*
X193470952Y-84018989D02*
X193137619Y-83447561D01*
X192899524Y-84018989D02*
X192899524Y-82818989D01*
X192899524Y-82818989D02*
X193280476Y-82818989D01*
X193280476Y-82818989D02*
X193375714Y-82876132D01*
X193375714Y-82876132D02*
X193423333Y-82933275D01*
X193423333Y-82933275D02*
X193470952Y-83047561D01*
X193470952Y-83047561D02*
X193470952Y-83218989D01*
X193470952Y-83218989D02*
X193423333Y-83333275D01*
X193423333Y-83333275D02*
X193375714Y-83390418D01*
X193375714Y-83390418D02*
X193280476Y-83447561D01*
X193280476Y-83447561D02*
X192899524Y-83447561D01*
X193899524Y-83390418D02*
X194232857Y-83390418D01*
X194375714Y-84018989D02*
X193899524Y-84018989D01*
X193899524Y-84018989D02*
X193899524Y-82818989D01*
X193899524Y-82818989D02*
X194375714Y-82818989D01*
X194804286Y-83390418D02*
X195137619Y-83390418D01*
X195280476Y-84018989D02*
X194804286Y-84018989D01*
X194804286Y-84018989D02*
X194804286Y-82818989D01*
X194804286Y-82818989D02*
X195280476Y-82818989D01*
X195709048Y-84018989D02*
X195709048Y-82818989D01*
X195709048Y-82818989D02*
X196280476Y-84018989D01*
X196280476Y-84018989D02*
X196280476Y-82818989D01*
D10*
X210578571Y-103671015D02*
X210578571Y-105290062D01*
X210578571Y-105290062D02*
X210673809Y-105480538D01*
X210673809Y-105480538D02*
X210769047Y-105575777D01*
X210769047Y-105575777D02*
X210959523Y-105671015D01*
X210959523Y-105671015D02*
X211340476Y-105671015D01*
X211340476Y-105671015D02*
X211530952Y-105575777D01*
X211530952Y-105575777D02*
X211626190Y-105480538D01*
X211626190Y-105480538D02*
X211721428Y-105290062D01*
X211721428Y-105290062D02*
X211721428Y-103671015D01*
X212673809Y-105671015D02*
X212673809Y-103671015D01*
X212673809Y-103671015D02*
X213435714Y-103671015D01*
X213435714Y-103671015D02*
X213626190Y-103766253D01*
X213626190Y-103766253D02*
X213721428Y-103861491D01*
X213721428Y-103861491D02*
X213816666Y-104051967D01*
X213816666Y-104051967D02*
X213816666Y-104337681D01*
X213816666Y-104337681D02*
X213721428Y-104528157D01*
X213721428Y-104528157D02*
X213626190Y-104623396D01*
X213626190Y-104623396D02*
X213435714Y-104718634D01*
X213435714Y-104718634D02*
X212673809Y-104718634D01*
D13*
X209732857Y-83446479D02*
X209732857Y-84017907D01*
X209399524Y-82817907D02*
X209732857Y-83446479D01*
X209732857Y-83446479D02*
X210066190Y-82817907D01*
X210399524Y-83389336D02*
X210732857Y-83389336D01*
X210875714Y-84017907D02*
X210399524Y-84017907D01*
X210399524Y-84017907D02*
X210399524Y-82817907D01*
X210399524Y-82817907D02*
X210875714Y-82817907D01*
X211780476Y-84017907D02*
X211304286Y-84017907D01*
X211304286Y-84017907D02*
X211304286Y-82817907D01*
X212590000Y-84017907D02*
X212113810Y-84017907D01*
X212113810Y-84017907D02*
X212113810Y-82817907D01*
X213113810Y-82817907D02*
X213304286Y-82817907D01*
X213304286Y-82817907D02*
X213399524Y-82875050D01*
X213399524Y-82875050D02*
X213494762Y-82989336D01*
X213494762Y-82989336D02*
X213542381Y-83217907D01*
X213542381Y-83217907D02*
X213542381Y-83617907D01*
X213542381Y-83617907D02*
X213494762Y-83846479D01*
X213494762Y-83846479D02*
X213399524Y-83960765D01*
X213399524Y-83960765D02*
X213304286Y-84017907D01*
X213304286Y-84017907D02*
X213113810Y-84017907D01*
X213113810Y-84017907D02*
X213018572Y-83960765D01*
X213018572Y-83960765D02*
X212923334Y-83846479D01*
X212923334Y-83846479D02*
X212875715Y-83617907D01*
X212875715Y-83617907D02*
X212875715Y-83217907D01*
X212875715Y-83217907D02*
X212923334Y-82989336D01*
X212923334Y-82989336D02*
X213018572Y-82875050D01*
X213018572Y-82875050D02*
X213113810Y-82817907D01*
X213875715Y-82817907D02*
X214113810Y-84017907D01*
X214113810Y-84017907D02*
X214304286Y-83160765D01*
X214304286Y-83160765D02*
X214494762Y-84017907D01*
X214494762Y-84017907D02*
X214732858Y-82817907D01*
X252762857Y-83442632D02*
X252762857Y-84014060D01*
X252429524Y-82814060D02*
X252762857Y-83442632D01*
X252762857Y-83442632D02*
X253096190Y-82814060D01*
X253429524Y-83385489D02*
X253762857Y-83385489D01*
X253905714Y-84014060D02*
X253429524Y-84014060D01*
X253429524Y-84014060D02*
X253429524Y-82814060D01*
X253429524Y-82814060D02*
X253905714Y-82814060D01*
X254810476Y-84014060D02*
X254334286Y-84014060D01*
X254334286Y-84014060D02*
X254334286Y-82814060D01*
X255620000Y-84014060D02*
X255143810Y-84014060D01*
X255143810Y-84014060D02*
X255143810Y-82814060D01*
X256143810Y-82814060D02*
X256334286Y-82814060D01*
X256334286Y-82814060D02*
X256429524Y-82871203D01*
X256429524Y-82871203D02*
X256524762Y-82985489D01*
X256524762Y-82985489D02*
X256572381Y-83214060D01*
X256572381Y-83214060D02*
X256572381Y-83614060D01*
X256572381Y-83614060D02*
X256524762Y-83842632D01*
X256524762Y-83842632D02*
X256429524Y-83956918D01*
X256429524Y-83956918D02*
X256334286Y-84014060D01*
X256334286Y-84014060D02*
X256143810Y-84014060D01*
X256143810Y-84014060D02*
X256048572Y-83956918D01*
X256048572Y-83956918D02*
X255953334Y-83842632D01*
X255953334Y-83842632D02*
X255905715Y-83614060D01*
X255905715Y-83614060D02*
X255905715Y-83214060D01*
X255905715Y-83214060D02*
X255953334Y-82985489D01*
X255953334Y-82985489D02*
X256048572Y-82871203D01*
X256048572Y-82871203D02*
X256143810Y-82814060D01*
X256905715Y-82814060D02*
X257143810Y-84014060D01*
X257143810Y-84014060D02*
X257334286Y-83156918D01*
X257334286Y-83156918D02*
X257524762Y-84014060D01*
X257524762Y-84014060D02*
X257762858Y-82814060D01*
D11*
X135135714Y-94725238D02*
X134278571Y-94725238D01*
X134278571Y-94725238D02*
X134278571Y-92725238D01*
X135735714Y-94725238D02*
X135735714Y-92725238D01*
X137192857Y-93677619D02*
X136592857Y-93677619D01*
X136592857Y-94725238D02*
X136592857Y-92725238D01*
X136592857Y-92725238D02*
X137450000Y-92725238D01*
X137878571Y-92725238D02*
X138907143Y-92725238D01*
X138392857Y-94725238D02*
X138392857Y-92725238D01*
X140621429Y-92725238D02*
X141221429Y-94725238D01*
X141221429Y-94725238D02*
X141821429Y-92725238D01*
X143278572Y-92725238D02*
X142421429Y-92725238D01*
X142421429Y-92725238D02*
X142335715Y-93677619D01*
X142335715Y-93677619D02*
X142421429Y-93582380D01*
X142421429Y-93582380D02*
X142592858Y-93487142D01*
X142592858Y-93487142D02*
X143021429Y-93487142D01*
X143021429Y-93487142D02*
X143192858Y-93582380D01*
X143192858Y-93582380D02*
X143278572Y-93677619D01*
X143278572Y-93677619D02*
X143364286Y-93868095D01*
X143364286Y-93868095D02*
X143364286Y-94344285D01*
X143364286Y-94344285D02*
X143278572Y-94534761D01*
X143278572Y-94534761D02*
X143192858Y-94630000D01*
X143192858Y-94630000D02*
X143021429Y-94725238D01*
X143021429Y-94725238D02*
X142592858Y-94725238D01*
X142592858Y-94725238D02*
X142421429Y-94630000D01*
X142421429Y-94630000D02*
X142335715Y-94534761D01*
X144135715Y-94534761D02*
X144221429Y-94630000D01*
X144221429Y-94630000D02*
X144135715Y-94725238D01*
X144135715Y-94725238D02*
X144050001Y-94630000D01*
X144050001Y-94630000D02*
X144135715Y-94534761D01*
X144135715Y-94534761D02*
X144135715Y-94725238D01*
X145335715Y-92725238D02*
X145507144Y-92725238D01*
X145507144Y-92725238D02*
X145678572Y-92820476D01*
X145678572Y-92820476D02*
X145764287Y-92915714D01*
X145764287Y-92915714D02*
X145850001Y-93106190D01*
X145850001Y-93106190D02*
X145935715Y-93487142D01*
X145935715Y-93487142D02*
X145935715Y-93963333D01*
X145935715Y-93963333D02*
X145850001Y-94344285D01*
X145850001Y-94344285D02*
X145764287Y-94534761D01*
X145764287Y-94534761D02*
X145678572Y-94630000D01*
X145678572Y-94630000D02*
X145507144Y-94725238D01*
X145507144Y-94725238D02*
X145335715Y-94725238D01*
X145335715Y-94725238D02*
X145164287Y-94630000D01*
X145164287Y-94630000D02*
X145078572Y-94534761D01*
X145078572Y-94534761D02*
X144992858Y-94344285D01*
X144992858Y-94344285D02*
X144907144Y-93963333D01*
X144907144Y-93963333D02*
X144907144Y-93487142D01*
X144907144Y-93487142D02*
X144992858Y-93106190D01*
X144992858Y-93106190D02*
X145078572Y-92915714D01*
X145078572Y-92915714D02*
X145164287Y-92820476D01*
X145164287Y-92820476D02*
X145335715Y-92725238D01*
X147992859Y-94153809D02*
X148850002Y-94153809D01*
X147821430Y-94725238D02*
X148421430Y-92725238D01*
X148421430Y-92725238D02*
X149021430Y-94725238D01*
X149621430Y-92725238D02*
X149621430Y-94344285D01*
X149621430Y-94344285D02*
X149707144Y-94534761D01*
X149707144Y-94534761D02*
X149792859Y-94630000D01*
X149792859Y-94630000D02*
X149964287Y-94725238D01*
X149964287Y-94725238D02*
X150307144Y-94725238D01*
X150307144Y-94725238D02*
X150478573Y-94630000D01*
X150478573Y-94630000D02*
X150564287Y-94534761D01*
X150564287Y-94534761D02*
X150650001Y-94344285D01*
X150650001Y-94344285D02*
X150650001Y-92725238D01*
X151250001Y-92725238D02*
X152278573Y-92725238D01*
X151764287Y-94725238D02*
X151764287Y-92725238D01*
X153221430Y-92725238D02*
X153564287Y-92725238D01*
X153564287Y-92725238D02*
X153735716Y-92820476D01*
X153735716Y-92820476D02*
X153907144Y-93010952D01*
X153907144Y-93010952D02*
X153992859Y-93391904D01*
X153992859Y-93391904D02*
X153992859Y-94058571D01*
X153992859Y-94058571D02*
X153907144Y-94439523D01*
X153907144Y-94439523D02*
X153735716Y-94630000D01*
X153735716Y-94630000D02*
X153564287Y-94725238D01*
X153564287Y-94725238D02*
X153221430Y-94725238D01*
X153221430Y-94725238D02*
X153050002Y-94630000D01*
X153050002Y-94630000D02*
X152878573Y-94439523D01*
X152878573Y-94439523D02*
X152792859Y-94058571D01*
X152792859Y-94058571D02*
X152792859Y-93391904D01*
X152792859Y-93391904D02*
X152878573Y-93010952D01*
X152878573Y-93010952D02*
X153050002Y-92820476D01*
X153050002Y-92820476D02*
X153221430Y-92725238D01*
D10*
X167528571Y-103671015D02*
X167528571Y-105290062D01*
X167528571Y-105290062D02*
X167623809Y-105480538D01*
X167623809Y-105480538D02*
X167719047Y-105575777D01*
X167719047Y-105575777D02*
X167909523Y-105671015D01*
X167909523Y-105671015D02*
X168290476Y-105671015D01*
X168290476Y-105671015D02*
X168480952Y-105575777D01*
X168480952Y-105575777D02*
X168576190Y-105480538D01*
X168576190Y-105480538D02*
X168671428Y-105290062D01*
X168671428Y-105290062D02*
X168671428Y-103671015D01*
X169623809Y-105671015D02*
X169623809Y-103671015D01*
X169623809Y-103671015D02*
X170385714Y-103671015D01*
X170385714Y-103671015D02*
X170576190Y-103766253D01*
X170576190Y-103766253D02*
X170671428Y-103861491D01*
X170671428Y-103861491D02*
X170766666Y-104051967D01*
X170766666Y-104051967D02*
X170766666Y-104337681D01*
X170766666Y-104337681D02*
X170671428Y-104528157D01*
X170671428Y-104528157D02*
X170576190Y-104623396D01*
X170576190Y-104623396D02*
X170385714Y-104718634D01*
X170385714Y-104718634D02*
X169623809Y-104718634D01*
D14*
X99633333Y-126915000D02*
X99776190Y-126962619D01*
X99776190Y-126962619D02*
X100014285Y-126962619D01*
X100014285Y-126962619D02*
X100109523Y-126915000D01*
X100109523Y-126915000D02*
X100157142Y-126867380D01*
X100157142Y-126867380D02*
X100204761Y-126772142D01*
X100204761Y-126772142D02*
X100204761Y-126676904D01*
X100204761Y-126676904D02*
X100157142Y-126581666D01*
X100157142Y-126581666D02*
X100109523Y-126534047D01*
X100109523Y-126534047D02*
X100014285Y-126486428D01*
X100014285Y-126486428D02*
X99823809Y-126438809D01*
X99823809Y-126438809D02*
X99728571Y-126391190D01*
X99728571Y-126391190D02*
X99680952Y-126343571D01*
X99680952Y-126343571D02*
X99633333Y-126248333D01*
X99633333Y-126248333D02*
X99633333Y-126153095D01*
X99633333Y-126153095D02*
X99680952Y-126057857D01*
X99680952Y-126057857D02*
X99728571Y-126010238D01*
X99728571Y-126010238D02*
X99823809Y-125962619D01*
X99823809Y-125962619D02*
X100061904Y-125962619D01*
X100061904Y-125962619D02*
X100204761Y-126010238D01*
X100823809Y-125962619D02*
X101014285Y-125962619D01*
X101014285Y-125962619D02*
X101109523Y-126010238D01*
X101109523Y-126010238D02*
X101204761Y-126105476D01*
X101204761Y-126105476D02*
X101252380Y-126295952D01*
X101252380Y-126295952D02*
X101252380Y-126629285D01*
X101252380Y-126629285D02*
X101204761Y-126819761D01*
X101204761Y-126819761D02*
X101109523Y-126915000D01*
X101109523Y-126915000D02*
X101014285Y-126962619D01*
X101014285Y-126962619D02*
X100823809Y-126962619D01*
X100823809Y-126962619D02*
X100728571Y-126915000D01*
X100728571Y-126915000D02*
X100633333Y-126819761D01*
X100633333Y-126819761D02*
X100585714Y-126629285D01*
X100585714Y-126629285D02*
X100585714Y-126295952D01*
X100585714Y-126295952D02*
X100633333Y-126105476D01*
X100633333Y-126105476D02*
X100728571Y-126010238D01*
X100728571Y-126010238D02*
X100823809Y-125962619D01*
X102157142Y-126962619D02*
X101680952Y-126962619D01*
X101680952Y-126962619D02*
X101680952Y-125962619D01*
X102680952Y-125962619D02*
X102871428Y-125962619D01*
X102871428Y-125962619D02*
X102966666Y-126010238D01*
X102966666Y-126010238D02*
X103061904Y-126105476D01*
X103061904Y-126105476D02*
X103109523Y-126295952D01*
X103109523Y-126295952D02*
X103109523Y-126629285D01*
X103109523Y-126629285D02*
X103061904Y-126819761D01*
X103061904Y-126819761D02*
X102966666Y-126915000D01*
X102966666Y-126915000D02*
X102871428Y-126962619D01*
X102871428Y-126962619D02*
X102680952Y-126962619D01*
X102680952Y-126962619D02*
X102585714Y-126915000D01*
X102585714Y-126915000D02*
X102490476Y-126819761D01*
X102490476Y-126819761D02*
X102442857Y-126629285D01*
X102442857Y-126629285D02*
X102442857Y-126295952D01*
X102442857Y-126295952D02*
X102490476Y-126105476D01*
X102490476Y-126105476D02*
X102585714Y-126010238D01*
X102585714Y-126010238D02*
X102680952Y-125962619D01*
D13*
X295802857Y-83432632D02*
X295802857Y-84004060D01*
X295469524Y-82804060D02*
X295802857Y-83432632D01*
X295802857Y-83432632D02*
X296136190Y-82804060D01*
X296469524Y-83375489D02*
X296802857Y-83375489D01*
X296945714Y-84004060D02*
X296469524Y-84004060D01*
X296469524Y-84004060D02*
X296469524Y-82804060D01*
X296469524Y-82804060D02*
X296945714Y-82804060D01*
X297850476Y-84004060D02*
X297374286Y-84004060D01*
X297374286Y-84004060D02*
X297374286Y-82804060D01*
X298660000Y-84004060D02*
X298183810Y-84004060D01*
X298183810Y-84004060D02*
X298183810Y-82804060D01*
X299183810Y-82804060D02*
X299374286Y-82804060D01*
X299374286Y-82804060D02*
X299469524Y-82861203D01*
X299469524Y-82861203D02*
X299564762Y-82975489D01*
X299564762Y-82975489D02*
X299612381Y-83204060D01*
X299612381Y-83204060D02*
X299612381Y-83604060D01*
X299612381Y-83604060D02*
X299564762Y-83832632D01*
X299564762Y-83832632D02*
X299469524Y-83946918D01*
X299469524Y-83946918D02*
X299374286Y-84004060D01*
X299374286Y-84004060D02*
X299183810Y-84004060D01*
X299183810Y-84004060D02*
X299088572Y-83946918D01*
X299088572Y-83946918D02*
X298993334Y-83832632D01*
X298993334Y-83832632D02*
X298945715Y-83604060D01*
X298945715Y-83604060D02*
X298945715Y-83204060D01*
X298945715Y-83204060D02*
X298993334Y-82975489D01*
X298993334Y-82975489D02*
X299088572Y-82861203D01*
X299088572Y-82861203D02*
X299183810Y-82804060D01*
X299945715Y-82804060D02*
X300183810Y-84004060D01*
X300183810Y-84004060D02*
X300374286Y-83146918D01*
X300374286Y-83146918D02*
X300564762Y-84004060D01*
X300564762Y-84004060D02*
X300802858Y-82804060D01*
X123752857Y-84433714D02*
X123752857Y-85005142D01*
X123419524Y-83805142D02*
X123752857Y-84433714D01*
X123752857Y-84433714D02*
X124086190Y-83805142D01*
X124419524Y-84376571D02*
X124752857Y-84376571D01*
X124895714Y-85005142D02*
X124419524Y-85005142D01*
X124419524Y-85005142D02*
X124419524Y-83805142D01*
X124419524Y-83805142D02*
X124895714Y-83805142D01*
X125800476Y-85005142D02*
X125324286Y-85005142D01*
X125324286Y-85005142D02*
X125324286Y-83805142D01*
X126610000Y-85005142D02*
X126133810Y-85005142D01*
X126133810Y-85005142D02*
X126133810Y-83805142D01*
X127133810Y-83805142D02*
X127324286Y-83805142D01*
X127324286Y-83805142D02*
X127419524Y-83862285D01*
X127419524Y-83862285D02*
X127514762Y-83976571D01*
X127514762Y-83976571D02*
X127562381Y-84205142D01*
X127562381Y-84205142D02*
X127562381Y-84605142D01*
X127562381Y-84605142D02*
X127514762Y-84833714D01*
X127514762Y-84833714D02*
X127419524Y-84948000D01*
X127419524Y-84948000D02*
X127324286Y-85005142D01*
X127324286Y-85005142D02*
X127133810Y-85005142D01*
X127133810Y-85005142D02*
X127038572Y-84948000D01*
X127038572Y-84948000D02*
X126943334Y-84833714D01*
X126943334Y-84833714D02*
X126895715Y-84605142D01*
X126895715Y-84605142D02*
X126895715Y-84205142D01*
X126895715Y-84205142D02*
X126943334Y-83976571D01*
X126943334Y-83976571D02*
X127038572Y-83862285D01*
X127038572Y-83862285D02*
X127133810Y-83805142D01*
X127895715Y-83805142D02*
X128133810Y-85005142D01*
X128133810Y-85005142D02*
X128324286Y-84148000D01*
X128324286Y-84148000D02*
X128514762Y-85005142D01*
X128514762Y-85005142D02*
X128752858Y-83805142D01*
D10*
X285819523Y-101487598D02*
X284867142Y-101487598D01*
X284867142Y-101487598D02*
X284867142Y-99487598D01*
X286486190Y-101487598D02*
X286486190Y-99487598D01*
X288105238Y-100439979D02*
X287438571Y-100439979D01*
X287438571Y-101487598D02*
X287438571Y-99487598D01*
X287438571Y-99487598D02*
X288390952Y-99487598D01*
X288867143Y-99487598D02*
X290010000Y-99487598D01*
X289438571Y-101487598D02*
X289438571Y-99487598D01*
X293248096Y-101487598D02*
X292105239Y-101487598D01*
X292676667Y-101487598D02*
X292676667Y-99487598D01*
X292676667Y-99487598D02*
X292486191Y-99773312D01*
X292486191Y-99773312D02*
X292295715Y-99963788D01*
X292295715Y-99963788D02*
X292105239Y-100059026D01*
X108819047Y-94404761D02*
X108723809Y-94500000D01*
X108723809Y-94500000D02*
X108438095Y-94595238D01*
X108438095Y-94595238D02*
X108247619Y-94595238D01*
X108247619Y-94595238D02*
X107961904Y-94500000D01*
X107961904Y-94500000D02*
X107771428Y-94309523D01*
X107771428Y-94309523D02*
X107676190Y-94119047D01*
X107676190Y-94119047D02*
X107580952Y-93738095D01*
X107580952Y-93738095D02*
X107580952Y-93452380D01*
X107580952Y-93452380D02*
X107676190Y-93071428D01*
X107676190Y-93071428D02*
X107771428Y-92880952D01*
X107771428Y-92880952D02*
X107961904Y-92690476D01*
X107961904Y-92690476D02*
X108247619Y-92595238D01*
X108247619Y-92595238D02*
X108438095Y-92595238D01*
X108438095Y-92595238D02*
X108723809Y-92690476D01*
X108723809Y-92690476D02*
X108819047Y-92785714D01*
X110533333Y-94595238D02*
X110533333Y-93547619D01*
X110533333Y-93547619D02*
X110438095Y-93357142D01*
X110438095Y-93357142D02*
X110247619Y-93261904D01*
X110247619Y-93261904D02*
X109866666Y-93261904D01*
X109866666Y-93261904D02*
X109676190Y-93357142D01*
X110533333Y-94500000D02*
X110342857Y-94595238D01*
X110342857Y-94595238D02*
X109866666Y-94595238D01*
X109866666Y-94595238D02*
X109676190Y-94500000D01*
X109676190Y-94500000D02*
X109580952Y-94309523D01*
X109580952Y-94309523D02*
X109580952Y-94119047D01*
X109580952Y-94119047D02*
X109676190Y-93928571D01*
X109676190Y-93928571D02*
X109866666Y-93833333D01*
X109866666Y-93833333D02*
X110342857Y-93833333D01*
X110342857Y-93833333D02*
X110533333Y-93738095D01*
X111485714Y-94595238D02*
X111485714Y-93261904D01*
X111485714Y-93452380D02*
X111580952Y-93357142D01*
X111580952Y-93357142D02*
X111771428Y-93261904D01*
X111771428Y-93261904D02*
X112057143Y-93261904D01*
X112057143Y-93261904D02*
X112247619Y-93357142D01*
X112247619Y-93357142D02*
X112342857Y-93547619D01*
X112342857Y-93547619D02*
X112342857Y-94595238D01*
X112342857Y-93547619D02*
X112438095Y-93357142D01*
X112438095Y-93357142D02*
X112628571Y-93261904D01*
X112628571Y-93261904D02*
X112914285Y-93261904D01*
X112914285Y-93261904D02*
X113104762Y-93357142D01*
X113104762Y-93357142D02*
X113200000Y-93547619D01*
X113200000Y-93547619D02*
X113200000Y-94595238D01*
X113866667Y-92595238D02*
X115009524Y-92595238D01*
X114438095Y-94595238D02*
X114438095Y-92595238D01*
X115676191Y-94595238D02*
X115676191Y-93261904D01*
X115676191Y-93642857D02*
X115771429Y-93452380D01*
X115771429Y-93452380D02*
X115866667Y-93357142D01*
X115866667Y-93357142D02*
X116057143Y-93261904D01*
X116057143Y-93261904D02*
X116247620Y-93261904D01*
X117200000Y-94595238D02*
X117009524Y-94500000D01*
X117009524Y-94500000D02*
X116914286Y-94404761D01*
X116914286Y-94404761D02*
X116819048Y-94214285D01*
X116819048Y-94214285D02*
X116819048Y-93642857D01*
X116819048Y-93642857D02*
X116914286Y-93452380D01*
X116914286Y-93452380D02*
X117009524Y-93357142D01*
X117009524Y-93357142D02*
X117200000Y-93261904D01*
X117200000Y-93261904D02*
X117485715Y-93261904D01*
X117485715Y-93261904D02*
X117676191Y-93357142D01*
X117676191Y-93357142D02*
X117771429Y-93452380D01*
X117771429Y-93452380D02*
X117866667Y-93642857D01*
X117866667Y-93642857D02*
X117866667Y-94214285D01*
X117866667Y-94214285D02*
X117771429Y-94404761D01*
X117771429Y-94404761D02*
X117676191Y-94500000D01*
X117676191Y-94500000D02*
X117485715Y-94595238D01*
X117485715Y-94595238D02*
X117200000Y-94595238D01*
X119009524Y-94595238D02*
X118819048Y-94500000D01*
X118819048Y-94500000D02*
X118723810Y-94309523D01*
X118723810Y-94309523D02*
X118723810Y-92595238D01*
X121295239Y-94595238D02*
X121295239Y-92595238D01*
X122247620Y-94595238D02*
X122247620Y-92595238D01*
X122247620Y-92595238D02*
X123390477Y-94595238D01*
X123390477Y-94595238D02*
X123390477Y-92595238D01*
X125485715Y-94404761D02*
X125390477Y-94500000D01*
X125390477Y-94500000D02*
X125104763Y-94595238D01*
X125104763Y-94595238D02*
X124914287Y-94595238D01*
X124914287Y-94595238D02*
X124628572Y-94500000D01*
X124628572Y-94500000D02*
X124438096Y-94309523D01*
X124438096Y-94309523D02*
X124342858Y-94119047D01*
X124342858Y-94119047D02*
X124247620Y-93738095D01*
X124247620Y-93738095D02*
X124247620Y-93452380D01*
X124247620Y-93452380D02*
X124342858Y-93071428D01*
X124342858Y-93071428D02*
X124438096Y-92880952D01*
X124438096Y-92880952D02*
X124628572Y-92690476D01*
X124628572Y-92690476D02*
X124914287Y-92595238D01*
X124914287Y-92595238D02*
X125104763Y-92595238D01*
X125104763Y-92595238D02*
X125390477Y-92690476D01*
X125390477Y-92690476D02*
X125485715Y-92785714D01*
X126438096Y-94500000D02*
X126438096Y-94595238D01*
X126438096Y-94595238D02*
X126342858Y-94785714D01*
X126342858Y-94785714D02*
X126247620Y-94880952D01*
X127295239Y-94404761D02*
X127390477Y-94500000D01*
X127390477Y-94500000D02*
X127295239Y-94595238D01*
X127295239Y-94595238D02*
X127200001Y-94500000D01*
X127200001Y-94500000D02*
X127295239Y-94404761D01*
X127295239Y-94404761D02*
X127295239Y-94595238D01*
X190338095Y-105671015D02*
X190338095Y-103671015D01*
X190338095Y-103671015D02*
X190814285Y-103671015D01*
X190814285Y-103671015D02*
X191100000Y-103766253D01*
X191100000Y-103766253D02*
X191290476Y-103956729D01*
X191290476Y-103956729D02*
X191385714Y-104147205D01*
X191385714Y-104147205D02*
X191480952Y-104528157D01*
X191480952Y-104528157D02*
X191480952Y-104813872D01*
X191480952Y-104813872D02*
X191385714Y-105194824D01*
X191385714Y-105194824D02*
X191290476Y-105385300D01*
X191290476Y-105385300D02*
X191100000Y-105575777D01*
X191100000Y-105575777D02*
X190814285Y-105671015D01*
X190814285Y-105671015D02*
X190338095Y-105671015D01*
X192719047Y-103671015D02*
X193100000Y-103671015D01*
X193100000Y-103671015D02*
X193290476Y-103766253D01*
X193290476Y-103766253D02*
X193480952Y-103956729D01*
X193480952Y-103956729D02*
X193576190Y-104337681D01*
X193576190Y-104337681D02*
X193576190Y-105004348D01*
X193576190Y-105004348D02*
X193480952Y-105385300D01*
X193480952Y-105385300D02*
X193290476Y-105575777D01*
X193290476Y-105575777D02*
X193100000Y-105671015D01*
X193100000Y-105671015D02*
X192719047Y-105671015D01*
X192719047Y-105671015D02*
X192528571Y-105575777D01*
X192528571Y-105575777D02*
X192338095Y-105385300D01*
X192338095Y-105385300D02*
X192242857Y-105004348D01*
X192242857Y-105004348D02*
X192242857Y-104337681D01*
X192242857Y-104337681D02*
X192338095Y-103956729D01*
X192338095Y-103956729D02*
X192528571Y-103766253D01*
X192528571Y-103766253D02*
X192719047Y-103671015D01*
X194242857Y-103671015D02*
X194719047Y-105671015D01*
X194719047Y-105671015D02*
X195100000Y-104242443D01*
X195100000Y-104242443D02*
X195480952Y-105671015D01*
X195480952Y-105671015D02*
X195957143Y-103671015D01*
X196719047Y-105671015D02*
X196719047Y-103671015D01*
X196719047Y-103671015D02*
X197861904Y-105671015D01*
X197861904Y-105671015D02*
X197861904Y-103671015D01*
X253578571Y-103662947D02*
X253578571Y-105281994D01*
X253578571Y-105281994D02*
X253673809Y-105472470D01*
X253673809Y-105472470D02*
X253769047Y-105567709D01*
X253769047Y-105567709D02*
X253959523Y-105662947D01*
X253959523Y-105662947D02*
X254340476Y-105662947D01*
X254340476Y-105662947D02*
X254530952Y-105567709D01*
X254530952Y-105567709D02*
X254626190Y-105472470D01*
X254626190Y-105472470D02*
X254721428Y-105281994D01*
X254721428Y-105281994D02*
X254721428Y-103662947D01*
X255673809Y-105662947D02*
X255673809Y-103662947D01*
X255673809Y-103662947D02*
X256435714Y-103662947D01*
X256435714Y-103662947D02*
X256626190Y-103758185D01*
X256626190Y-103758185D02*
X256721428Y-103853423D01*
X256721428Y-103853423D02*
X256816666Y-104043899D01*
X256816666Y-104043899D02*
X256816666Y-104329613D01*
X256816666Y-104329613D02*
X256721428Y-104520089D01*
X256721428Y-104520089D02*
X256626190Y-104615328D01*
X256626190Y-104615328D02*
X256435714Y-104710566D01*
X256435714Y-104710566D02*
X255673809Y-104710566D01*
X199709523Y-101571228D02*
X198757142Y-101571228D01*
X198757142Y-101571228D02*
X198757142Y-99571228D01*
X200376190Y-101571228D02*
X200376190Y-99571228D01*
X201995238Y-100523609D02*
X201328571Y-100523609D01*
X201328571Y-101571228D02*
X201328571Y-99571228D01*
X201328571Y-99571228D02*
X202280952Y-99571228D01*
X202757143Y-99571228D02*
X203900000Y-99571228D01*
X203328571Y-101571228D02*
X203328571Y-99571228D01*
X205900001Y-99571228D02*
X207138096Y-99571228D01*
X207138096Y-99571228D02*
X206471429Y-100333132D01*
X206471429Y-100333132D02*
X206757144Y-100333132D01*
X206757144Y-100333132D02*
X206947620Y-100428370D01*
X206947620Y-100428370D02*
X207042858Y-100523609D01*
X207042858Y-100523609D02*
X207138096Y-100714085D01*
X207138096Y-100714085D02*
X207138096Y-101190275D01*
X207138096Y-101190275D02*
X207042858Y-101380751D01*
X207042858Y-101380751D02*
X206947620Y-101475990D01*
X206947620Y-101475990D02*
X206757144Y-101571228D01*
X206757144Y-101571228D02*
X206185715Y-101571228D01*
X206185715Y-101571228D02*
X205995239Y-101475990D01*
X205995239Y-101475990D02*
X205900001Y-101380751D01*
X112235713Y-101725238D02*
X111283332Y-101725238D01*
X111283332Y-101725238D02*
X111283332Y-99725238D01*
X112902380Y-101725238D02*
X112902380Y-99725238D01*
X114521428Y-100677619D02*
X113854761Y-100677619D01*
X113854761Y-101725238D02*
X113854761Y-99725238D01*
X113854761Y-99725238D02*
X114807142Y-99725238D01*
X115283333Y-99725238D02*
X116426190Y-99725238D01*
X115854761Y-101725238D02*
X115854761Y-99725238D01*
X118521429Y-101153809D02*
X119473810Y-101153809D01*
X118330953Y-101725238D02*
X118997619Y-99725238D01*
X118997619Y-99725238D02*
X119664286Y-101725238D01*
X121283334Y-101725238D02*
X120330953Y-101725238D01*
X120330953Y-101725238D02*
X120330953Y-99725238D01*
X122902382Y-101725238D02*
X121950001Y-101725238D01*
X121950001Y-101725238D02*
X121950001Y-99725238D01*
D13*
X333817381Y-119292095D02*
X334274524Y-119292095D01*
X334045952Y-119292095D02*
X334045952Y-118492095D01*
X334045952Y-118492095D02*
X334122143Y-118606380D01*
X334122143Y-118606380D02*
X334198333Y-118682571D01*
X334198333Y-118682571D02*
X334274524Y-118720666D01*
X333512619Y-118568285D02*
X333474523Y-118530190D01*
X333474523Y-118530190D02*
X333398333Y-118492095D01*
X333398333Y-118492095D02*
X333207857Y-118492095D01*
X333207857Y-118492095D02*
X333131666Y-118530190D01*
X333131666Y-118530190D02*
X333093571Y-118568285D01*
X333093571Y-118568285D02*
X333055476Y-118644476D01*
X333055476Y-118644476D02*
X333055476Y-118720666D01*
X333055476Y-118720666D02*
X333093571Y-118834952D01*
X333093571Y-118834952D02*
X333550714Y-119292095D01*
X333550714Y-119292095D02*
X333055476Y-119292095D01*
X106443333Y-83862285D02*
X106348095Y-83805142D01*
X106348095Y-83805142D02*
X106205238Y-83805142D01*
X106205238Y-83805142D02*
X106062381Y-83862285D01*
X106062381Y-83862285D02*
X105967143Y-83976571D01*
X105967143Y-83976571D02*
X105919524Y-84090857D01*
X105919524Y-84090857D02*
X105871905Y-84319428D01*
X105871905Y-84319428D02*
X105871905Y-84490857D01*
X105871905Y-84490857D02*
X105919524Y-84719428D01*
X105919524Y-84719428D02*
X105967143Y-84833714D01*
X105967143Y-84833714D02*
X106062381Y-84948000D01*
X106062381Y-84948000D02*
X106205238Y-85005142D01*
X106205238Y-85005142D02*
X106300476Y-85005142D01*
X106300476Y-85005142D02*
X106443333Y-84948000D01*
X106443333Y-84948000D02*
X106490952Y-84890857D01*
X106490952Y-84890857D02*
X106490952Y-84490857D01*
X106490952Y-84490857D02*
X106300476Y-84490857D01*
X107490952Y-85005142D02*
X107157619Y-84433714D01*
X106919524Y-85005142D02*
X106919524Y-83805142D01*
X106919524Y-83805142D02*
X107300476Y-83805142D01*
X107300476Y-83805142D02*
X107395714Y-83862285D01*
X107395714Y-83862285D02*
X107443333Y-83919428D01*
X107443333Y-83919428D02*
X107490952Y-84033714D01*
X107490952Y-84033714D02*
X107490952Y-84205142D01*
X107490952Y-84205142D02*
X107443333Y-84319428D01*
X107443333Y-84319428D02*
X107395714Y-84376571D01*
X107395714Y-84376571D02*
X107300476Y-84433714D01*
X107300476Y-84433714D02*
X106919524Y-84433714D01*
X107919524Y-84376571D02*
X108252857Y-84376571D01*
X108395714Y-85005142D02*
X107919524Y-85005142D01*
X107919524Y-85005142D02*
X107919524Y-83805142D01*
X107919524Y-83805142D02*
X108395714Y-83805142D01*
X108824286Y-84376571D02*
X109157619Y-84376571D01*
X109300476Y-85005142D02*
X108824286Y-85005142D01*
X108824286Y-85005142D02*
X108824286Y-83805142D01*
X108824286Y-83805142D02*
X109300476Y-83805142D01*
X109729048Y-85005142D02*
X109729048Y-83805142D01*
X109729048Y-83805142D02*
X110300476Y-85005142D01*
X110300476Y-85005142D02*
X110300476Y-83805142D01*
X149423333Y-82876133D02*
X149328095Y-82818990D01*
X149328095Y-82818990D02*
X149185238Y-82818990D01*
X149185238Y-82818990D02*
X149042381Y-82876133D01*
X149042381Y-82876133D02*
X148947143Y-82990419D01*
X148947143Y-82990419D02*
X148899524Y-83104705D01*
X148899524Y-83104705D02*
X148851905Y-83333276D01*
X148851905Y-83333276D02*
X148851905Y-83504705D01*
X148851905Y-83504705D02*
X148899524Y-83733276D01*
X148899524Y-83733276D02*
X148947143Y-83847562D01*
X148947143Y-83847562D02*
X149042381Y-83961848D01*
X149042381Y-83961848D02*
X149185238Y-84018990D01*
X149185238Y-84018990D02*
X149280476Y-84018990D01*
X149280476Y-84018990D02*
X149423333Y-83961848D01*
X149423333Y-83961848D02*
X149470952Y-83904705D01*
X149470952Y-83904705D02*
X149470952Y-83504705D01*
X149470952Y-83504705D02*
X149280476Y-83504705D01*
X150470952Y-84018990D02*
X150137619Y-83447562D01*
X149899524Y-84018990D02*
X149899524Y-82818990D01*
X149899524Y-82818990D02*
X150280476Y-82818990D01*
X150280476Y-82818990D02*
X150375714Y-82876133D01*
X150375714Y-82876133D02*
X150423333Y-82933276D01*
X150423333Y-82933276D02*
X150470952Y-83047562D01*
X150470952Y-83047562D02*
X150470952Y-83218990D01*
X150470952Y-83218990D02*
X150423333Y-83333276D01*
X150423333Y-83333276D02*
X150375714Y-83390419D01*
X150375714Y-83390419D02*
X150280476Y-83447562D01*
X150280476Y-83447562D02*
X149899524Y-83447562D01*
X150899524Y-83390419D02*
X151232857Y-83390419D01*
X151375714Y-84018990D02*
X150899524Y-84018990D01*
X150899524Y-84018990D02*
X150899524Y-82818990D01*
X150899524Y-82818990D02*
X151375714Y-82818990D01*
X151804286Y-83390419D02*
X152137619Y-83390419D01*
X152280476Y-84018990D02*
X151804286Y-84018990D01*
X151804286Y-84018990D02*
X151804286Y-82818990D01*
X151804286Y-82818990D02*
X152280476Y-82818990D01*
X152709048Y-84018990D02*
X152709048Y-82818990D01*
X152709048Y-82818990D02*
X153280476Y-84018990D01*
X153280476Y-84018990D02*
X153280476Y-82818990D01*
D10*
X147288095Y-105671015D02*
X147288095Y-103671015D01*
X147288095Y-103671015D02*
X147764285Y-103671015D01*
X147764285Y-103671015D02*
X148050000Y-103766253D01*
X148050000Y-103766253D02*
X148240476Y-103956729D01*
X148240476Y-103956729D02*
X148335714Y-104147205D01*
X148335714Y-104147205D02*
X148430952Y-104528157D01*
X148430952Y-104528157D02*
X148430952Y-104813872D01*
X148430952Y-104813872D02*
X148335714Y-105194824D01*
X148335714Y-105194824D02*
X148240476Y-105385300D01*
X148240476Y-105385300D02*
X148050000Y-105575777D01*
X148050000Y-105575777D02*
X147764285Y-105671015D01*
X147764285Y-105671015D02*
X147288095Y-105671015D01*
X149669047Y-103671015D02*
X150050000Y-103671015D01*
X150050000Y-103671015D02*
X150240476Y-103766253D01*
X150240476Y-103766253D02*
X150430952Y-103956729D01*
X150430952Y-103956729D02*
X150526190Y-104337681D01*
X150526190Y-104337681D02*
X150526190Y-105004348D01*
X150526190Y-105004348D02*
X150430952Y-105385300D01*
X150430952Y-105385300D02*
X150240476Y-105575777D01*
X150240476Y-105575777D02*
X150050000Y-105671015D01*
X150050000Y-105671015D02*
X149669047Y-105671015D01*
X149669047Y-105671015D02*
X149478571Y-105575777D01*
X149478571Y-105575777D02*
X149288095Y-105385300D01*
X149288095Y-105385300D02*
X149192857Y-105004348D01*
X149192857Y-105004348D02*
X149192857Y-104337681D01*
X149192857Y-104337681D02*
X149288095Y-103956729D01*
X149288095Y-103956729D02*
X149478571Y-103766253D01*
X149478571Y-103766253D02*
X149669047Y-103671015D01*
X151192857Y-103671015D02*
X151669047Y-105671015D01*
X151669047Y-105671015D02*
X152050000Y-104242443D01*
X152050000Y-104242443D02*
X152430952Y-105671015D01*
X152430952Y-105671015D02*
X152907143Y-103671015D01*
X153669047Y-105671015D02*
X153669047Y-103671015D01*
X153669047Y-103671015D02*
X154811904Y-105671015D01*
X154811904Y-105671015D02*
X154811904Y-103671015D01*
D14*
X111199523Y-126887380D02*
X111151904Y-126935000D01*
X111151904Y-126935000D02*
X111009047Y-126982619D01*
X111009047Y-126982619D02*
X110913809Y-126982619D01*
X110913809Y-126982619D02*
X110770952Y-126935000D01*
X110770952Y-126935000D02*
X110675714Y-126839761D01*
X110675714Y-126839761D02*
X110628095Y-126744523D01*
X110628095Y-126744523D02*
X110580476Y-126554047D01*
X110580476Y-126554047D02*
X110580476Y-126411190D01*
X110580476Y-126411190D02*
X110628095Y-126220714D01*
X110628095Y-126220714D02*
X110675714Y-126125476D01*
X110675714Y-126125476D02*
X110770952Y-126030238D01*
X110770952Y-126030238D02*
X110913809Y-125982619D01*
X110913809Y-125982619D02*
X111009047Y-125982619D01*
X111009047Y-125982619D02*
X111151904Y-126030238D01*
X111151904Y-126030238D02*
X111199523Y-126077857D01*
X111628095Y-126982619D02*
X111628095Y-125982619D01*
X111628095Y-125982619D02*
X112009047Y-125982619D01*
X112009047Y-125982619D02*
X112104285Y-126030238D01*
X112104285Y-126030238D02*
X112151904Y-126077857D01*
X112151904Y-126077857D02*
X112199523Y-126173095D01*
X112199523Y-126173095D02*
X112199523Y-126315952D01*
X112199523Y-126315952D02*
X112151904Y-126411190D01*
X112151904Y-126411190D02*
X112104285Y-126458809D01*
X112104285Y-126458809D02*
X112009047Y-126506428D01*
X112009047Y-126506428D02*
X111628095Y-126506428D01*
X112628095Y-125982619D02*
X112628095Y-126792142D01*
X112628095Y-126792142D02*
X112675714Y-126887380D01*
X112675714Y-126887380D02*
X112723333Y-126935000D01*
X112723333Y-126935000D02*
X112818571Y-126982619D01*
X112818571Y-126982619D02*
X113009047Y-126982619D01*
X113009047Y-126982619D02*
X113104285Y-126935000D01*
X113104285Y-126935000D02*
X113151904Y-126887380D01*
X113151904Y-126887380D02*
X113199523Y-126792142D01*
X113199523Y-126792142D02*
X113199523Y-125982619D01*
D12*
X77671428Y-105087857D02*
X77671428Y-102087857D01*
X77671428Y-102087857D02*
X78814285Y-102087857D01*
X78814285Y-102087857D02*
X79100000Y-102230714D01*
X79100000Y-102230714D02*
X79242857Y-102373571D01*
X79242857Y-102373571D02*
X79385714Y-102659285D01*
X79385714Y-102659285D02*
X79385714Y-103087857D01*
X79385714Y-103087857D02*
X79242857Y-103373571D01*
X79242857Y-103373571D02*
X79100000Y-103516428D01*
X79100000Y-103516428D02*
X78814285Y-103659285D01*
X78814285Y-103659285D02*
X77671428Y-103659285D01*
X81242857Y-102087857D02*
X81814285Y-102087857D01*
X81814285Y-102087857D02*
X82100000Y-102230714D01*
X82100000Y-102230714D02*
X82385714Y-102516428D01*
X82385714Y-102516428D02*
X82528571Y-103087857D01*
X82528571Y-103087857D02*
X82528571Y-104087857D01*
X82528571Y-104087857D02*
X82385714Y-104659285D01*
X82385714Y-104659285D02*
X82100000Y-104945000D01*
X82100000Y-104945000D02*
X81814285Y-105087857D01*
X81814285Y-105087857D02*
X81242857Y-105087857D01*
X81242857Y-105087857D02*
X80957143Y-104945000D01*
X80957143Y-104945000D02*
X80671428Y-104659285D01*
X80671428Y-104659285D02*
X80528571Y-104087857D01*
X80528571Y-104087857D02*
X80528571Y-103087857D01*
X80528571Y-103087857D02*
X80671428Y-102516428D01*
X80671428Y-102516428D02*
X80957143Y-102230714D01*
X80957143Y-102230714D02*
X81242857Y-102087857D01*
X83528571Y-102087857D02*
X84242857Y-105087857D01*
X84242857Y-105087857D02*
X84814285Y-102945000D01*
X84814285Y-102945000D02*
X85385714Y-105087857D01*
X85385714Y-105087857D02*
X86100000Y-102087857D01*
X87242856Y-103516428D02*
X88242856Y-103516428D01*
X88671428Y-105087857D02*
X87242856Y-105087857D01*
X87242856Y-105087857D02*
X87242856Y-102087857D01*
X87242856Y-102087857D02*
X88671428Y-102087857D01*
X91671428Y-105087857D02*
X90671428Y-103659285D01*
X89957142Y-105087857D02*
X89957142Y-102087857D01*
X89957142Y-102087857D02*
X91099999Y-102087857D01*
X91099999Y-102087857D02*
X91385714Y-102230714D01*
X91385714Y-102230714D02*
X91528571Y-102373571D01*
X91528571Y-102373571D02*
X91671428Y-102659285D01*
X91671428Y-102659285D02*
X91671428Y-103087857D01*
X91671428Y-103087857D02*
X91528571Y-103373571D01*
X91528571Y-103373571D02*
X91385714Y-103516428D01*
X91385714Y-103516428D02*
X91099999Y-103659285D01*
X91099999Y-103659285D02*
X89957142Y-103659285D01*
D10*
X296638571Y-103625238D02*
X296638571Y-105244285D01*
X296638571Y-105244285D02*
X296733809Y-105434761D01*
X296733809Y-105434761D02*
X296829047Y-105530000D01*
X296829047Y-105530000D02*
X297019523Y-105625238D01*
X297019523Y-105625238D02*
X297400476Y-105625238D01*
X297400476Y-105625238D02*
X297590952Y-105530000D01*
X297590952Y-105530000D02*
X297686190Y-105434761D01*
X297686190Y-105434761D02*
X297781428Y-105244285D01*
X297781428Y-105244285D02*
X297781428Y-103625238D01*
X298733809Y-105625238D02*
X298733809Y-103625238D01*
X298733809Y-103625238D02*
X299495714Y-103625238D01*
X299495714Y-103625238D02*
X299686190Y-103720476D01*
X299686190Y-103720476D02*
X299781428Y-103815714D01*
X299781428Y-103815714D02*
X299876666Y-104006190D01*
X299876666Y-104006190D02*
X299876666Y-104291904D01*
X299876666Y-104291904D02*
X299781428Y-104482380D01*
X299781428Y-104482380D02*
X299686190Y-104577619D01*
X299686190Y-104577619D02*
X299495714Y-104672857D01*
X299495714Y-104672857D02*
X298733809Y-104672857D01*
D13*
%TO.C,D16*%
X167880714Y-67252619D02*
X167880714Y-66252619D01*
X167880714Y-66252619D02*
X168118809Y-66252619D01*
X168118809Y-66252619D02*
X168261666Y-66300238D01*
X168261666Y-66300238D02*
X168356904Y-66395476D01*
X168356904Y-66395476D02*
X168404523Y-66490714D01*
X168404523Y-66490714D02*
X168452142Y-66681190D01*
X168452142Y-66681190D02*
X168452142Y-66824047D01*
X168452142Y-66824047D02*
X168404523Y-67014523D01*
X168404523Y-67014523D02*
X168356904Y-67109761D01*
X168356904Y-67109761D02*
X168261666Y-67205000D01*
X168261666Y-67205000D02*
X168118809Y-67252619D01*
X168118809Y-67252619D02*
X167880714Y-67252619D01*
X169404523Y-67252619D02*
X168833095Y-67252619D01*
X169118809Y-67252619D02*
X169118809Y-66252619D01*
X169118809Y-66252619D02*
X169023571Y-66395476D01*
X169023571Y-66395476D02*
X168928333Y-66490714D01*
X168928333Y-66490714D02*
X168833095Y-66538333D01*
X170261666Y-66252619D02*
X170071190Y-66252619D01*
X170071190Y-66252619D02*
X169975952Y-66300238D01*
X169975952Y-66300238D02*
X169928333Y-66347857D01*
X169928333Y-66347857D02*
X169833095Y-66490714D01*
X169833095Y-66490714D02*
X169785476Y-66681190D01*
X169785476Y-66681190D02*
X169785476Y-67062142D01*
X169785476Y-67062142D02*
X169833095Y-67157380D01*
X169833095Y-67157380D02*
X169880714Y-67205000D01*
X169880714Y-67205000D02*
X169975952Y-67252619D01*
X169975952Y-67252619D02*
X170166428Y-67252619D01*
X170166428Y-67252619D02*
X170261666Y-67205000D01*
X170261666Y-67205000D02*
X170309285Y-67157380D01*
X170309285Y-67157380D02*
X170356904Y-67062142D01*
X170356904Y-67062142D02*
X170356904Y-66824047D01*
X170356904Y-66824047D02*
X170309285Y-66728809D01*
X170309285Y-66728809D02*
X170261666Y-66681190D01*
X170261666Y-66681190D02*
X170166428Y-66633571D01*
X170166428Y-66633571D02*
X169975952Y-66633571D01*
X169975952Y-66633571D02*
X169880714Y-66681190D01*
X169880714Y-66681190D02*
X169833095Y-66728809D01*
X169833095Y-66728809D02*
X169785476Y-66824047D01*
X165738095Y-70212619D02*
X165738095Y-69212619D01*
X166309523Y-70212619D02*
X165880952Y-69641190D01*
X166309523Y-69212619D02*
X165738095Y-69784047D01*
X172011905Y-69926904D02*
X172488095Y-69926904D01*
X171916667Y-70212619D02*
X172250000Y-69212619D01*
X172250000Y-69212619D02*
X172583333Y-70212619D01*
%TO.C,D9*%
X279406905Y-67252619D02*
X279406905Y-66252619D01*
X279406905Y-66252619D02*
X279645000Y-66252619D01*
X279645000Y-66252619D02*
X279787857Y-66300238D01*
X279787857Y-66300238D02*
X279883095Y-66395476D01*
X279883095Y-66395476D02*
X279930714Y-66490714D01*
X279930714Y-66490714D02*
X279978333Y-66681190D01*
X279978333Y-66681190D02*
X279978333Y-66824047D01*
X279978333Y-66824047D02*
X279930714Y-67014523D01*
X279930714Y-67014523D02*
X279883095Y-67109761D01*
X279883095Y-67109761D02*
X279787857Y-67205000D01*
X279787857Y-67205000D02*
X279645000Y-67252619D01*
X279645000Y-67252619D02*
X279406905Y-67252619D01*
X280454524Y-67252619D02*
X280645000Y-67252619D01*
X280645000Y-67252619D02*
X280740238Y-67205000D01*
X280740238Y-67205000D02*
X280787857Y-67157380D01*
X280787857Y-67157380D02*
X280883095Y-67014523D01*
X280883095Y-67014523D02*
X280930714Y-66824047D01*
X280930714Y-66824047D02*
X280930714Y-66443095D01*
X280930714Y-66443095D02*
X280883095Y-66347857D01*
X280883095Y-66347857D02*
X280835476Y-66300238D01*
X280835476Y-66300238D02*
X280740238Y-66252619D01*
X280740238Y-66252619D02*
X280549762Y-66252619D01*
X280549762Y-66252619D02*
X280454524Y-66300238D01*
X280454524Y-66300238D02*
X280406905Y-66347857D01*
X280406905Y-66347857D02*
X280359286Y-66443095D01*
X280359286Y-66443095D02*
X280359286Y-66681190D01*
X280359286Y-66681190D02*
X280406905Y-66776428D01*
X280406905Y-66776428D02*
X280454524Y-66824047D01*
X280454524Y-66824047D02*
X280549762Y-66871666D01*
X280549762Y-66871666D02*
X280740238Y-66871666D01*
X280740238Y-66871666D02*
X280835476Y-66824047D01*
X280835476Y-66824047D02*
X280883095Y-66776428D01*
X280883095Y-66776428D02*
X280930714Y-66681190D01*
X283136905Y-69926904D02*
X283613095Y-69926904D01*
X283041667Y-70212619D02*
X283375000Y-69212619D01*
X283375000Y-69212619D02*
X283708333Y-70212619D01*
X276613095Y-70212619D02*
X276613095Y-69212619D01*
X277184523Y-70212619D02*
X276755952Y-69641190D01*
X277184523Y-69212619D02*
X276613095Y-69784047D01*
%TO.C,D13*%
X192880714Y-67252619D02*
X192880714Y-66252619D01*
X192880714Y-66252619D02*
X193118809Y-66252619D01*
X193118809Y-66252619D02*
X193261666Y-66300238D01*
X193261666Y-66300238D02*
X193356904Y-66395476D01*
X193356904Y-66395476D02*
X193404523Y-66490714D01*
X193404523Y-66490714D02*
X193452142Y-66681190D01*
X193452142Y-66681190D02*
X193452142Y-66824047D01*
X193452142Y-66824047D02*
X193404523Y-67014523D01*
X193404523Y-67014523D02*
X193356904Y-67109761D01*
X193356904Y-67109761D02*
X193261666Y-67205000D01*
X193261666Y-67205000D02*
X193118809Y-67252619D01*
X193118809Y-67252619D02*
X192880714Y-67252619D01*
X194404523Y-67252619D02*
X193833095Y-67252619D01*
X194118809Y-67252619D02*
X194118809Y-66252619D01*
X194118809Y-66252619D02*
X194023571Y-66395476D01*
X194023571Y-66395476D02*
X193928333Y-66490714D01*
X193928333Y-66490714D02*
X193833095Y-66538333D01*
X194737857Y-66252619D02*
X195356904Y-66252619D01*
X195356904Y-66252619D02*
X195023571Y-66633571D01*
X195023571Y-66633571D02*
X195166428Y-66633571D01*
X195166428Y-66633571D02*
X195261666Y-66681190D01*
X195261666Y-66681190D02*
X195309285Y-66728809D01*
X195309285Y-66728809D02*
X195356904Y-66824047D01*
X195356904Y-66824047D02*
X195356904Y-67062142D01*
X195356904Y-67062142D02*
X195309285Y-67157380D01*
X195309285Y-67157380D02*
X195261666Y-67205000D01*
X195261666Y-67205000D02*
X195166428Y-67252619D01*
X195166428Y-67252619D02*
X194880714Y-67252619D01*
X194880714Y-67252619D02*
X194785476Y-67205000D01*
X194785476Y-67205000D02*
X194737857Y-67157380D01*
X196961905Y-69926904D02*
X197438095Y-69926904D01*
X196866667Y-70212619D02*
X197200000Y-69212619D01*
X197200000Y-69212619D02*
X197533333Y-70212619D01*
X190738095Y-70212619D02*
X190738095Y-69212619D01*
X191309523Y-70212619D02*
X190880952Y-69641190D01*
X191309523Y-69212619D02*
X190738095Y-69784047D01*
%TO.C,D11*%
X235880714Y-67252619D02*
X235880714Y-66252619D01*
X235880714Y-66252619D02*
X236118809Y-66252619D01*
X236118809Y-66252619D02*
X236261666Y-66300238D01*
X236261666Y-66300238D02*
X236356904Y-66395476D01*
X236356904Y-66395476D02*
X236404523Y-66490714D01*
X236404523Y-66490714D02*
X236452142Y-66681190D01*
X236452142Y-66681190D02*
X236452142Y-66824047D01*
X236452142Y-66824047D02*
X236404523Y-67014523D01*
X236404523Y-67014523D02*
X236356904Y-67109761D01*
X236356904Y-67109761D02*
X236261666Y-67205000D01*
X236261666Y-67205000D02*
X236118809Y-67252619D01*
X236118809Y-67252619D02*
X235880714Y-67252619D01*
X237404523Y-67252619D02*
X236833095Y-67252619D01*
X237118809Y-67252619D02*
X237118809Y-66252619D01*
X237118809Y-66252619D02*
X237023571Y-66395476D01*
X237023571Y-66395476D02*
X236928333Y-66490714D01*
X236928333Y-66490714D02*
X236833095Y-66538333D01*
X238356904Y-67252619D02*
X237785476Y-67252619D01*
X238071190Y-67252619D02*
X238071190Y-66252619D01*
X238071190Y-66252619D02*
X237975952Y-66395476D01*
X237975952Y-66395476D02*
X237880714Y-66490714D01*
X237880714Y-66490714D02*
X237785476Y-66538333D01*
X233688095Y-70212619D02*
X233688095Y-69212619D01*
X234259523Y-70212619D02*
X233830952Y-69641190D01*
X234259523Y-69212619D02*
X233688095Y-69784047D01*
X239961905Y-69926904D02*
X240438095Y-69926904D01*
X239866667Y-70212619D02*
X240200000Y-69212619D01*
X240200000Y-69212619D02*
X240533333Y-70212619D01*
%TO.C,D15*%
X149880714Y-67252619D02*
X149880714Y-66252619D01*
X149880714Y-66252619D02*
X150118809Y-66252619D01*
X150118809Y-66252619D02*
X150261666Y-66300238D01*
X150261666Y-66300238D02*
X150356904Y-66395476D01*
X150356904Y-66395476D02*
X150404523Y-66490714D01*
X150404523Y-66490714D02*
X150452142Y-66681190D01*
X150452142Y-66681190D02*
X150452142Y-66824047D01*
X150452142Y-66824047D02*
X150404523Y-67014523D01*
X150404523Y-67014523D02*
X150356904Y-67109761D01*
X150356904Y-67109761D02*
X150261666Y-67205000D01*
X150261666Y-67205000D02*
X150118809Y-67252619D01*
X150118809Y-67252619D02*
X149880714Y-67252619D01*
X151404523Y-67252619D02*
X150833095Y-67252619D01*
X151118809Y-67252619D02*
X151118809Y-66252619D01*
X151118809Y-66252619D02*
X151023571Y-66395476D01*
X151023571Y-66395476D02*
X150928333Y-66490714D01*
X150928333Y-66490714D02*
X150833095Y-66538333D01*
X152309285Y-66252619D02*
X151833095Y-66252619D01*
X151833095Y-66252619D02*
X151785476Y-66728809D01*
X151785476Y-66728809D02*
X151833095Y-66681190D01*
X151833095Y-66681190D02*
X151928333Y-66633571D01*
X151928333Y-66633571D02*
X152166428Y-66633571D01*
X152166428Y-66633571D02*
X152261666Y-66681190D01*
X152261666Y-66681190D02*
X152309285Y-66728809D01*
X152309285Y-66728809D02*
X152356904Y-66824047D01*
X152356904Y-66824047D02*
X152356904Y-67062142D01*
X152356904Y-67062142D02*
X152309285Y-67157380D01*
X152309285Y-67157380D02*
X152261666Y-67205000D01*
X152261666Y-67205000D02*
X152166428Y-67252619D01*
X152166428Y-67252619D02*
X151928333Y-67252619D01*
X151928333Y-67252619D02*
X151833095Y-67205000D01*
X151833095Y-67205000D02*
X151785476Y-67157380D01*
X147588095Y-70212619D02*
X147588095Y-69212619D01*
X148159523Y-70212619D02*
X147730952Y-69641190D01*
X148159523Y-69212619D02*
X147588095Y-69784047D01*
X154011905Y-69926904D02*
X154488095Y-69926904D01*
X153916667Y-70212619D02*
X154250000Y-69212619D01*
X154250000Y-69212619D02*
X154583333Y-70212619D01*
%TO.C,SW3*%
X119336667Y-75265000D02*
X119479524Y-75312619D01*
X119479524Y-75312619D02*
X119717619Y-75312619D01*
X119717619Y-75312619D02*
X119812857Y-75265000D01*
X119812857Y-75265000D02*
X119860476Y-75217380D01*
X119860476Y-75217380D02*
X119908095Y-75122142D01*
X119908095Y-75122142D02*
X119908095Y-75026904D01*
X119908095Y-75026904D02*
X119860476Y-74931666D01*
X119860476Y-74931666D02*
X119812857Y-74884047D01*
X119812857Y-74884047D02*
X119717619Y-74836428D01*
X119717619Y-74836428D02*
X119527143Y-74788809D01*
X119527143Y-74788809D02*
X119431905Y-74741190D01*
X119431905Y-74741190D02*
X119384286Y-74693571D01*
X119384286Y-74693571D02*
X119336667Y-74598333D01*
X119336667Y-74598333D02*
X119336667Y-74503095D01*
X119336667Y-74503095D02*
X119384286Y-74407857D01*
X119384286Y-74407857D02*
X119431905Y-74360238D01*
X119431905Y-74360238D02*
X119527143Y-74312619D01*
X119527143Y-74312619D02*
X119765238Y-74312619D01*
X119765238Y-74312619D02*
X119908095Y-74360238D01*
X120241429Y-74312619D02*
X120479524Y-75312619D01*
X120479524Y-75312619D02*
X120670000Y-74598333D01*
X120670000Y-74598333D02*
X120860476Y-75312619D01*
X120860476Y-75312619D02*
X121098572Y-74312619D01*
X121384286Y-74312619D02*
X122003333Y-74312619D01*
X122003333Y-74312619D02*
X121670000Y-74693571D01*
X121670000Y-74693571D02*
X121812857Y-74693571D01*
X121812857Y-74693571D02*
X121908095Y-74741190D01*
X121908095Y-74741190D02*
X121955714Y-74788809D01*
X121955714Y-74788809D02*
X122003333Y-74884047D01*
X122003333Y-74884047D02*
X122003333Y-75122142D01*
X122003333Y-75122142D02*
X121955714Y-75217380D01*
X121955714Y-75217380D02*
X121908095Y-75265000D01*
X121908095Y-75265000D02*
X121812857Y-75312619D01*
X121812857Y-75312619D02*
X121527143Y-75312619D01*
X121527143Y-75312619D02*
X121431905Y-75265000D01*
X121431905Y-75265000D02*
X121384286Y-75217380D01*
%TO.C,SW7*%
X205336667Y-75265000D02*
X205479524Y-75312619D01*
X205479524Y-75312619D02*
X205717619Y-75312619D01*
X205717619Y-75312619D02*
X205812857Y-75265000D01*
X205812857Y-75265000D02*
X205860476Y-75217380D01*
X205860476Y-75217380D02*
X205908095Y-75122142D01*
X205908095Y-75122142D02*
X205908095Y-75026904D01*
X205908095Y-75026904D02*
X205860476Y-74931666D01*
X205860476Y-74931666D02*
X205812857Y-74884047D01*
X205812857Y-74884047D02*
X205717619Y-74836428D01*
X205717619Y-74836428D02*
X205527143Y-74788809D01*
X205527143Y-74788809D02*
X205431905Y-74741190D01*
X205431905Y-74741190D02*
X205384286Y-74693571D01*
X205384286Y-74693571D02*
X205336667Y-74598333D01*
X205336667Y-74598333D02*
X205336667Y-74503095D01*
X205336667Y-74503095D02*
X205384286Y-74407857D01*
X205384286Y-74407857D02*
X205431905Y-74360238D01*
X205431905Y-74360238D02*
X205527143Y-74312619D01*
X205527143Y-74312619D02*
X205765238Y-74312619D01*
X205765238Y-74312619D02*
X205908095Y-74360238D01*
X206241429Y-74312619D02*
X206479524Y-75312619D01*
X206479524Y-75312619D02*
X206670000Y-74598333D01*
X206670000Y-74598333D02*
X206860476Y-75312619D01*
X206860476Y-75312619D02*
X207098572Y-74312619D01*
X207384286Y-74312619D02*
X208050952Y-74312619D01*
X208050952Y-74312619D02*
X207622381Y-75312619D01*
%TO.C,SW2*%
X101336667Y-75265000D02*
X101479524Y-75312619D01*
X101479524Y-75312619D02*
X101717619Y-75312619D01*
X101717619Y-75312619D02*
X101812857Y-75265000D01*
X101812857Y-75265000D02*
X101860476Y-75217380D01*
X101860476Y-75217380D02*
X101908095Y-75122142D01*
X101908095Y-75122142D02*
X101908095Y-75026904D01*
X101908095Y-75026904D02*
X101860476Y-74931666D01*
X101860476Y-74931666D02*
X101812857Y-74884047D01*
X101812857Y-74884047D02*
X101717619Y-74836428D01*
X101717619Y-74836428D02*
X101527143Y-74788809D01*
X101527143Y-74788809D02*
X101431905Y-74741190D01*
X101431905Y-74741190D02*
X101384286Y-74693571D01*
X101384286Y-74693571D02*
X101336667Y-74598333D01*
X101336667Y-74598333D02*
X101336667Y-74503095D01*
X101336667Y-74503095D02*
X101384286Y-74407857D01*
X101384286Y-74407857D02*
X101431905Y-74360238D01*
X101431905Y-74360238D02*
X101527143Y-74312619D01*
X101527143Y-74312619D02*
X101765238Y-74312619D01*
X101765238Y-74312619D02*
X101908095Y-74360238D01*
X102241429Y-74312619D02*
X102479524Y-75312619D01*
X102479524Y-75312619D02*
X102670000Y-74598333D01*
X102670000Y-74598333D02*
X102860476Y-75312619D01*
X102860476Y-75312619D02*
X103098572Y-74312619D01*
X103431905Y-74407857D02*
X103479524Y-74360238D01*
X103479524Y-74360238D02*
X103574762Y-74312619D01*
X103574762Y-74312619D02*
X103812857Y-74312619D01*
X103812857Y-74312619D02*
X103908095Y-74360238D01*
X103908095Y-74360238D02*
X103955714Y-74407857D01*
X103955714Y-74407857D02*
X104003333Y-74503095D01*
X104003333Y-74503095D02*
X104003333Y-74598333D01*
X104003333Y-74598333D02*
X103955714Y-74741190D01*
X103955714Y-74741190D02*
X103384286Y-75312619D01*
X103384286Y-75312619D02*
X104003333Y-75312619D01*
%TO.C,SW5*%
X162336667Y-75265000D02*
X162479524Y-75312619D01*
X162479524Y-75312619D02*
X162717619Y-75312619D01*
X162717619Y-75312619D02*
X162812857Y-75265000D01*
X162812857Y-75265000D02*
X162860476Y-75217380D01*
X162860476Y-75217380D02*
X162908095Y-75122142D01*
X162908095Y-75122142D02*
X162908095Y-75026904D01*
X162908095Y-75026904D02*
X162860476Y-74931666D01*
X162860476Y-74931666D02*
X162812857Y-74884047D01*
X162812857Y-74884047D02*
X162717619Y-74836428D01*
X162717619Y-74836428D02*
X162527143Y-74788809D01*
X162527143Y-74788809D02*
X162431905Y-74741190D01*
X162431905Y-74741190D02*
X162384286Y-74693571D01*
X162384286Y-74693571D02*
X162336667Y-74598333D01*
X162336667Y-74598333D02*
X162336667Y-74503095D01*
X162336667Y-74503095D02*
X162384286Y-74407857D01*
X162384286Y-74407857D02*
X162431905Y-74360238D01*
X162431905Y-74360238D02*
X162527143Y-74312619D01*
X162527143Y-74312619D02*
X162765238Y-74312619D01*
X162765238Y-74312619D02*
X162908095Y-74360238D01*
X163241429Y-74312619D02*
X163479524Y-75312619D01*
X163479524Y-75312619D02*
X163670000Y-74598333D01*
X163670000Y-74598333D02*
X163860476Y-75312619D01*
X163860476Y-75312619D02*
X164098572Y-74312619D01*
X164955714Y-74312619D02*
X164479524Y-74312619D01*
X164479524Y-74312619D02*
X164431905Y-74788809D01*
X164431905Y-74788809D02*
X164479524Y-74741190D01*
X164479524Y-74741190D02*
X164574762Y-74693571D01*
X164574762Y-74693571D02*
X164812857Y-74693571D01*
X164812857Y-74693571D02*
X164908095Y-74741190D01*
X164908095Y-74741190D02*
X164955714Y-74788809D01*
X164955714Y-74788809D02*
X165003333Y-74884047D01*
X165003333Y-74884047D02*
X165003333Y-75122142D01*
X165003333Y-75122142D02*
X164955714Y-75217380D01*
X164955714Y-75217380D02*
X164908095Y-75265000D01*
X164908095Y-75265000D02*
X164812857Y-75312619D01*
X164812857Y-75312619D02*
X164574762Y-75312619D01*
X164574762Y-75312619D02*
X164479524Y-75265000D01*
X164479524Y-75265000D02*
X164431905Y-75217380D01*
%TO.C,SW1*%
X77836667Y-75265000D02*
X77979524Y-75312619D01*
X77979524Y-75312619D02*
X78217619Y-75312619D01*
X78217619Y-75312619D02*
X78312857Y-75265000D01*
X78312857Y-75265000D02*
X78360476Y-75217380D01*
X78360476Y-75217380D02*
X78408095Y-75122142D01*
X78408095Y-75122142D02*
X78408095Y-75026904D01*
X78408095Y-75026904D02*
X78360476Y-74931666D01*
X78360476Y-74931666D02*
X78312857Y-74884047D01*
X78312857Y-74884047D02*
X78217619Y-74836428D01*
X78217619Y-74836428D02*
X78027143Y-74788809D01*
X78027143Y-74788809D02*
X77931905Y-74741190D01*
X77931905Y-74741190D02*
X77884286Y-74693571D01*
X77884286Y-74693571D02*
X77836667Y-74598333D01*
X77836667Y-74598333D02*
X77836667Y-74503095D01*
X77836667Y-74503095D02*
X77884286Y-74407857D01*
X77884286Y-74407857D02*
X77931905Y-74360238D01*
X77931905Y-74360238D02*
X78027143Y-74312619D01*
X78027143Y-74312619D02*
X78265238Y-74312619D01*
X78265238Y-74312619D02*
X78408095Y-74360238D01*
X78741429Y-74312619D02*
X78979524Y-75312619D01*
X78979524Y-75312619D02*
X79170000Y-74598333D01*
X79170000Y-74598333D02*
X79360476Y-75312619D01*
X79360476Y-75312619D02*
X79598572Y-74312619D01*
X80503333Y-75312619D02*
X79931905Y-75312619D01*
X80217619Y-75312619D02*
X80217619Y-74312619D01*
X80217619Y-74312619D02*
X80122381Y-74455476D01*
X80122381Y-74455476D02*
X80027143Y-74550714D01*
X80027143Y-74550714D02*
X79931905Y-74598333D01*
X82290476Y-74612619D02*
X82290476Y-73612619D01*
X82290476Y-73612619D02*
X82671428Y-73612619D01*
X82671428Y-73612619D02*
X82766666Y-73660238D01*
X82766666Y-73660238D02*
X82814285Y-73707857D01*
X82814285Y-73707857D02*
X82861904Y-73803095D01*
X82861904Y-73803095D02*
X82861904Y-73945952D01*
X82861904Y-73945952D02*
X82814285Y-74041190D01*
X82814285Y-74041190D02*
X82766666Y-74088809D01*
X82766666Y-74088809D02*
X82671428Y-74136428D01*
X82671428Y-74136428D02*
X82290476Y-74136428D01*
X83480952Y-73612619D02*
X83671428Y-73612619D01*
X83671428Y-73612619D02*
X83766666Y-73660238D01*
X83766666Y-73660238D02*
X83861904Y-73755476D01*
X83861904Y-73755476D02*
X83909523Y-73945952D01*
X83909523Y-73945952D02*
X83909523Y-74279285D01*
X83909523Y-74279285D02*
X83861904Y-74469761D01*
X83861904Y-74469761D02*
X83766666Y-74565000D01*
X83766666Y-74565000D02*
X83671428Y-74612619D01*
X83671428Y-74612619D02*
X83480952Y-74612619D01*
X83480952Y-74612619D02*
X83385714Y-74565000D01*
X83385714Y-74565000D02*
X83290476Y-74469761D01*
X83290476Y-74469761D02*
X83242857Y-74279285D01*
X83242857Y-74279285D02*
X83242857Y-73945952D01*
X83242857Y-73945952D02*
X83290476Y-73755476D01*
X83290476Y-73755476D02*
X83385714Y-73660238D01*
X83385714Y-73660238D02*
X83480952Y-73612619D01*
X84242857Y-73612619D02*
X84480952Y-74612619D01*
X84480952Y-74612619D02*
X84671428Y-73898333D01*
X84671428Y-73898333D02*
X84861904Y-74612619D01*
X84861904Y-74612619D02*
X85100000Y-73612619D01*
X85480952Y-74088809D02*
X85814285Y-74088809D01*
X85957142Y-74612619D02*
X85480952Y-74612619D01*
X85480952Y-74612619D02*
X85480952Y-73612619D01*
X85480952Y-73612619D02*
X85957142Y-73612619D01*
X86957142Y-74612619D02*
X86623809Y-74136428D01*
X86385714Y-74612619D02*
X86385714Y-73612619D01*
X86385714Y-73612619D02*
X86766666Y-73612619D01*
X86766666Y-73612619D02*
X86861904Y-73660238D01*
X86861904Y-73660238D02*
X86909523Y-73707857D01*
X86909523Y-73707857D02*
X86957142Y-73803095D01*
X86957142Y-73803095D02*
X86957142Y-73945952D01*
X86957142Y-73945952D02*
X86909523Y-74041190D01*
X86909523Y-74041190D02*
X86861904Y-74088809D01*
X86861904Y-74088809D02*
X86766666Y-74136428D01*
X86766666Y-74136428D02*
X86385714Y-74136428D01*
%TO.C,SW10*%
X272920476Y-75265000D02*
X273063333Y-75312619D01*
X273063333Y-75312619D02*
X273301428Y-75312619D01*
X273301428Y-75312619D02*
X273396666Y-75265000D01*
X273396666Y-75265000D02*
X273444285Y-75217380D01*
X273444285Y-75217380D02*
X273491904Y-75122142D01*
X273491904Y-75122142D02*
X273491904Y-75026904D01*
X273491904Y-75026904D02*
X273444285Y-74931666D01*
X273444285Y-74931666D02*
X273396666Y-74884047D01*
X273396666Y-74884047D02*
X273301428Y-74836428D01*
X273301428Y-74836428D02*
X273110952Y-74788809D01*
X273110952Y-74788809D02*
X273015714Y-74741190D01*
X273015714Y-74741190D02*
X272968095Y-74693571D01*
X272968095Y-74693571D02*
X272920476Y-74598333D01*
X272920476Y-74598333D02*
X272920476Y-74503095D01*
X272920476Y-74503095D02*
X272968095Y-74407857D01*
X272968095Y-74407857D02*
X273015714Y-74360238D01*
X273015714Y-74360238D02*
X273110952Y-74312619D01*
X273110952Y-74312619D02*
X273349047Y-74312619D01*
X273349047Y-74312619D02*
X273491904Y-74360238D01*
X273825238Y-74312619D02*
X274063333Y-75312619D01*
X274063333Y-75312619D02*
X274253809Y-74598333D01*
X274253809Y-74598333D02*
X274444285Y-75312619D01*
X274444285Y-75312619D02*
X274682381Y-74312619D01*
X275587142Y-75312619D02*
X275015714Y-75312619D01*
X275301428Y-75312619D02*
X275301428Y-74312619D01*
X275301428Y-74312619D02*
X275206190Y-74455476D01*
X275206190Y-74455476D02*
X275110952Y-74550714D01*
X275110952Y-74550714D02*
X275015714Y-74598333D01*
X276206190Y-74312619D02*
X276301428Y-74312619D01*
X276301428Y-74312619D02*
X276396666Y-74360238D01*
X276396666Y-74360238D02*
X276444285Y-74407857D01*
X276444285Y-74407857D02*
X276491904Y-74503095D01*
X276491904Y-74503095D02*
X276539523Y-74693571D01*
X276539523Y-74693571D02*
X276539523Y-74931666D01*
X276539523Y-74931666D02*
X276491904Y-75122142D01*
X276491904Y-75122142D02*
X276444285Y-75217380D01*
X276444285Y-75217380D02*
X276396666Y-75265000D01*
X276396666Y-75265000D02*
X276301428Y-75312619D01*
X276301428Y-75312619D02*
X276206190Y-75312619D01*
X276206190Y-75312619D02*
X276110952Y-75265000D01*
X276110952Y-75265000D02*
X276063333Y-75217380D01*
X276063333Y-75217380D02*
X276015714Y-75122142D01*
X276015714Y-75122142D02*
X275968095Y-74931666D01*
X275968095Y-74931666D02*
X275968095Y-74693571D01*
X275968095Y-74693571D02*
X276015714Y-74503095D01*
X276015714Y-74503095D02*
X276063333Y-74407857D01*
X276063333Y-74407857D02*
X276110952Y-74360238D01*
X276110952Y-74360238D02*
X276206190Y-74312619D01*
%TO.C,SW8*%
X230336667Y-75265000D02*
X230479524Y-75312619D01*
X230479524Y-75312619D02*
X230717619Y-75312619D01*
X230717619Y-75312619D02*
X230812857Y-75265000D01*
X230812857Y-75265000D02*
X230860476Y-75217380D01*
X230860476Y-75217380D02*
X230908095Y-75122142D01*
X230908095Y-75122142D02*
X230908095Y-75026904D01*
X230908095Y-75026904D02*
X230860476Y-74931666D01*
X230860476Y-74931666D02*
X230812857Y-74884047D01*
X230812857Y-74884047D02*
X230717619Y-74836428D01*
X230717619Y-74836428D02*
X230527143Y-74788809D01*
X230527143Y-74788809D02*
X230431905Y-74741190D01*
X230431905Y-74741190D02*
X230384286Y-74693571D01*
X230384286Y-74693571D02*
X230336667Y-74598333D01*
X230336667Y-74598333D02*
X230336667Y-74503095D01*
X230336667Y-74503095D02*
X230384286Y-74407857D01*
X230384286Y-74407857D02*
X230431905Y-74360238D01*
X230431905Y-74360238D02*
X230527143Y-74312619D01*
X230527143Y-74312619D02*
X230765238Y-74312619D01*
X230765238Y-74312619D02*
X230908095Y-74360238D01*
X231241429Y-74312619D02*
X231479524Y-75312619D01*
X231479524Y-75312619D02*
X231670000Y-74598333D01*
X231670000Y-74598333D02*
X231860476Y-75312619D01*
X231860476Y-75312619D02*
X232098572Y-74312619D01*
X232622381Y-74741190D02*
X232527143Y-74693571D01*
X232527143Y-74693571D02*
X232479524Y-74645952D01*
X232479524Y-74645952D02*
X232431905Y-74550714D01*
X232431905Y-74550714D02*
X232431905Y-74503095D01*
X232431905Y-74503095D02*
X232479524Y-74407857D01*
X232479524Y-74407857D02*
X232527143Y-74360238D01*
X232527143Y-74360238D02*
X232622381Y-74312619D01*
X232622381Y-74312619D02*
X232812857Y-74312619D01*
X232812857Y-74312619D02*
X232908095Y-74360238D01*
X232908095Y-74360238D02*
X232955714Y-74407857D01*
X232955714Y-74407857D02*
X233003333Y-74503095D01*
X233003333Y-74503095D02*
X233003333Y-74550714D01*
X233003333Y-74550714D02*
X232955714Y-74645952D01*
X232955714Y-74645952D02*
X232908095Y-74693571D01*
X232908095Y-74693571D02*
X232812857Y-74741190D01*
X232812857Y-74741190D02*
X232622381Y-74741190D01*
X232622381Y-74741190D02*
X232527143Y-74788809D01*
X232527143Y-74788809D02*
X232479524Y-74836428D01*
X232479524Y-74836428D02*
X232431905Y-74931666D01*
X232431905Y-74931666D02*
X232431905Y-75122142D01*
X232431905Y-75122142D02*
X232479524Y-75217380D01*
X232479524Y-75217380D02*
X232527143Y-75265000D01*
X232527143Y-75265000D02*
X232622381Y-75312619D01*
X232622381Y-75312619D02*
X232812857Y-75312619D01*
X232812857Y-75312619D02*
X232908095Y-75265000D01*
X232908095Y-75265000D02*
X232955714Y-75217380D01*
X232955714Y-75217380D02*
X233003333Y-75122142D01*
X233003333Y-75122142D02*
X233003333Y-74931666D01*
X233003333Y-74931666D02*
X232955714Y-74836428D01*
X232955714Y-74836428D02*
X232908095Y-74788809D01*
X232908095Y-74788809D02*
X232812857Y-74741190D01*
%TO.C,SW11*%
X290920476Y-75265000D02*
X291063333Y-75312619D01*
X291063333Y-75312619D02*
X291301428Y-75312619D01*
X291301428Y-75312619D02*
X291396666Y-75265000D01*
X291396666Y-75265000D02*
X291444285Y-75217380D01*
X291444285Y-75217380D02*
X291491904Y-75122142D01*
X291491904Y-75122142D02*
X291491904Y-75026904D01*
X291491904Y-75026904D02*
X291444285Y-74931666D01*
X291444285Y-74931666D02*
X291396666Y-74884047D01*
X291396666Y-74884047D02*
X291301428Y-74836428D01*
X291301428Y-74836428D02*
X291110952Y-74788809D01*
X291110952Y-74788809D02*
X291015714Y-74741190D01*
X291015714Y-74741190D02*
X290968095Y-74693571D01*
X290968095Y-74693571D02*
X290920476Y-74598333D01*
X290920476Y-74598333D02*
X290920476Y-74503095D01*
X290920476Y-74503095D02*
X290968095Y-74407857D01*
X290968095Y-74407857D02*
X291015714Y-74360238D01*
X291015714Y-74360238D02*
X291110952Y-74312619D01*
X291110952Y-74312619D02*
X291349047Y-74312619D01*
X291349047Y-74312619D02*
X291491904Y-74360238D01*
X291825238Y-74312619D02*
X292063333Y-75312619D01*
X292063333Y-75312619D02*
X292253809Y-74598333D01*
X292253809Y-74598333D02*
X292444285Y-75312619D01*
X292444285Y-75312619D02*
X292682381Y-74312619D01*
X293587142Y-75312619D02*
X293015714Y-75312619D01*
X293301428Y-75312619D02*
X293301428Y-74312619D01*
X293301428Y-74312619D02*
X293206190Y-74455476D01*
X293206190Y-74455476D02*
X293110952Y-74550714D01*
X293110952Y-74550714D02*
X293015714Y-74598333D01*
X294539523Y-75312619D02*
X293968095Y-75312619D01*
X294253809Y-75312619D02*
X294253809Y-74312619D01*
X294253809Y-74312619D02*
X294158571Y-74455476D01*
X294158571Y-74455476D02*
X294063333Y-74550714D01*
X294063333Y-74550714D02*
X293968095Y-74598333D01*
%TO.C,SW6*%
X187336667Y-75265000D02*
X187479524Y-75312619D01*
X187479524Y-75312619D02*
X187717619Y-75312619D01*
X187717619Y-75312619D02*
X187812857Y-75265000D01*
X187812857Y-75265000D02*
X187860476Y-75217380D01*
X187860476Y-75217380D02*
X187908095Y-75122142D01*
X187908095Y-75122142D02*
X187908095Y-75026904D01*
X187908095Y-75026904D02*
X187860476Y-74931666D01*
X187860476Y-74931666D02*
X187812857Y-74884047D01*
X187812857Y-74884047D02*
X187717619Y-74836428D01*
X187717619Y-74836428D02*
X187527143Y-74788809D01*
X187527143Y-74788809D02*
X187431905Y-74741190D01*
X187431905Y-74741190D02*
X187384286Y-74693571D01*
X187384286Y-74693571D02*
X187336667Y-74598333D01*
X187336667Y-74598333D02*
X187336667Y-74503095D01*
X187336667Y-74503095D02*
X187384286Y-74407857D01*
X187384286Y-74407857D02*
X187431905Y-74360238D01*
X187431905Y-74360238D02*
X187527143Y-74312619D01*
X187527143Y-74312619D02*
X187765238Y-74312619D01*
X187765238Y-74312619D02*
X187908095Y-74360238D01*
X188241429Y-74312619D02*
X188479524Y-75312619D01*
X188479524Y-75312619D02*
X188670000Y-74598333D01*
X188670000Y-74598333D02*
X188860476Y-75312619D01*
X188860476Y-75312619D02*
X189098572Y-74312619D01*
X189908095Y-74312619D02*
X189717619Y-74312619D01*
X189717619Y-74312619D02*
X189622381Y-74360238D01*
X189622381Y-74360238D02*
X189574762Y-74407857D01*
X189574762Y-74407857D02*
X189479524Y-74550714D01*
X189479524Y-74550714D02*
X189431905Y-74741190D01*
X189431905Y-74741190D02*
X189431905Y-75122142D01*
X189431905Y-75122142D02*
X189479524Y-75217380D01*
X189479524Y-75217380D02*
X189527143Y-75265000D01*
X189527143Y-75265000D02*
X189622381Y-75312619D01*
X189622381Y-75312619D02*
X189812857Y-75312619D01*
X189812857Y-75312619D02*
X189908095Y-75265000D01*
X189908095Y-75265000D02*
X189955714Y-75217380D01*
X189955714Y-75217380D02*
X190003333Y-75122142D01*
X190003333Y-75122142D02*
X190003333Y-74884047D01*
X190003333Y-74884047D02*
X189955714Y-74788809D01*
X189955714Y-74788809D02*
X189908095Y-74741190D01*
X189908095Y-74741190D02*
X189812857Y-74693571D01*
X189812857Y-74693571D02*
X189622381Y-74693571D01*
X189622381Y-74693571D02*
X189527143Y-74741190D01*
X189527143Y-74741190D02*
X189479524Y-74788809D01*
X189479524Y-74788809D02*
X189431905Y-74884047D01*
%TO.C,D12*%
X253880714Y-67252619D02*
X253880714Y-66252619D01*
X253880714Y-66252619D02*
X254118809Y-66252619D01*
X254118809Y-66252619D02*
X254261666Y-66300238D01*
X254261666Y-66300238D02*
X254356904Y-66395476D01*
X254356904Y-66395476D02*
X254404523Y-66490714D01*
X254404523Y-66490714D02*
X254452142Y-66681190D01*
X254452142Y-66681190D02*
X254452142Y-66824047D01*
X254452142Y-66824047D02*
X254404523Y-67014523D01*
X254404523Y-67014523D02*
X254356904Y-67109761D01*
X254356904Y-67109761D02*
X254261666Y-67205000D01*
X254261666Y-67205000D02*
X254118809Y-67252619D01*
X254118809Y-67252619D02*
X253880714Y-67252619D01*
X255404523Y-67252619D02*
X254833095Y-67252619D01*
X255118809Y-67252619D02*
X255118809Y-66252619D01*
X255118809Y-66252619D02*
X255023571Y-66395476D01*
X255023571Y-66395476D02*
X254928333Y-66490714D01*
X254928333Y-66490714D02*
X254833095Y-66538333D01*
X255785476Y-66347857D02*
X255833095Y-66300238D01*
X255833095Y-66300238D02*
X255928333Y-66252619D01*
X255928333Y-66252619D02*
X256166428Y-66252619D01*
X256166428Y-66252619D02*
X256261666Y-66300238D01*
X256261666Y-66300238D02*
X256309285Y-66347857D01*
X256309285Y-66347857D02*
X256356904Y-66443095D01*
X256356904Y-66443095D02*
X256356904Y-66538333D01*
X256356904Y-66538333D02*
X256309285Y-66681190D01*
X256309285Y-66681190D02*
X255737857Y-67252619D01*
X255737857Y-67252619D02*
X256356904Y-67252619D01*
X257911905Y-69926904D02*
X258388095Y-69926904D01*
X257816667Y-70212619D02*
X258150000Y-69212619D01*
X258150000Y-69212619D02*
X258483333Y-70212619D01*
X251588095Y-70212619D02*
X251588095Y-69212619D01*
X252159523Y-70212619D02*
X251730952Y-69641190D01*
X252159523Y-69212619D02*
X251588095Y-69784047D01*
%TO.C,SW4*%
X144336667Y-75265000D02*
X144479524Y-75312619D01*
X144479524Y-75312619D02*
X144717619Y-75312619D01*
X144717619Y-75312619D02*
X144812857Y-75265000D01*
X144812857Y-75265000D02*
X144860476Y-75217380D01*
X144860476Y-75217380D02*
X144908095Y-75122142D01*
X144908095Y-75122142D02*
X144908095Y-75026904D01*
X144908095Y-75026904D02*
X144860476Y-74931666D01*
X144860476Y-74931666D02*
X144812857Y-74884047D01*
X144812857Y-74884047D02*
X144717619Y-74836428D01*
X144717619Y-74836428D02*
X144527143Y-74788809D01*
X144527143Y-74788809D02*
X144431905Y-74741190D01*
X144431905Y-74741190D02*
X144384286Y-74693571D01*
X144384286Y-74693571D02*
X144336667Y-74598333D01*
X144336667Y-74598333D02*
X144336667Y-74503095D01*
X144336667Y-74503095D02*
X144384286Y-74407857D01*
X144384286Y-74407857D02*
X144431905Y-74360238D01*
X144431905Y-74360238D02*
X144527143Y-74312619D01*
X144527143Y-74312619D02*
X144765238Y-74312619D01*
X144765238Y-74312619D02*
X144908095Y-74360238D01*
X145241429Y-74312619D02*
X145479524Y-75312619D01*
X145479524Y-75312619D02*
X145670000Y-74598333D01*
X145670000Y-74598333D02*
X145860476Y-75312619D01*
X145860476Y-75312619D02*
X146098572Y-74312619D01*
X146908095Y-74645952D02*
X146908095Y-75312619D01*
X146670000Y-74265000D02*
X146431905Y-74979285D01*
X146431905Y-74979285D02*
X147050952Y-74979285D01*
%TO.C,D10*%
X296930714Y-67252619D02*
X296930714Y-66252619D01*
X296930714Y-66252619D02*
X297168809Y-66252619D01*
X297168809Y-66252619D02*
X297311666Y-66300238D01*
X297311666Y-66300238D02*
X297406904Y-66395476D01*
X297406904Y-66395476D02*
X297454523Y-66490714D01*
X297454523Y-66490714D02*
X297502142Y-66681190D01*
X297502142Y-66681190D02*
X297502142Y-66824047D01*
X297502142Y-66824047D02*
X297454523Y-67014523D01*
X297454523Y-67014523D02*
X297406904Y-67109761D01*
X297406904Y-67109761D02*
X297311666Y-67205000D01*
X297311666Y-67205000D02*
X297168809Y-67252619D01*
X297168809Y-67252619D02*
X296930714Y-67252619D01*
X298454523Y-67252619D02*
X297883095Y-67252619D01*
X298168809Y-67252619D02*
X298168809Y-66252619D01*
X298168809Y-66252619D02*
X298073571Y-66395476D01*
X298073571Y-66395476D02*
X297978333Y-66490714D01*
X297978333Y-66490714D02*
X297883095Y-66538333D01*
X299073571Y-66252619D02*
X299168809Y-66252619D01*
X299168809Y-66252619D02*
X299264047Y-66300238D01*
X299264047Y-66300238D02*
X299311666Y-66347857D01*
X299311666Y-66347857D02*
X299359285Y-66443095D01*
X299359285Y-66443095D02*
X299406904Y-66633571D01*
X299406904Y-66633571D02*
X299406904Y-66871666D01*
X299406904Y-66871666D02*
X299359285Y-67062142D01*
X299359285Y-67062142D02*
X299311666Y-67157380D01*
X299311666Y-67157380D02*
X299264047Y-67205000D01*
X299264047Y-67205000D02*
X299168809Y-67252619D01*
X299168809Y-67252619D02*
X299073571Y-67252619D01*
X299073571Y-67252619D02*
X298978333Y-67205000D01*
X298978333Y-67205000D02*
X298930714Y-67157380D01*
X298930714Y-67157380D02*
X298883095Y-67062142D01*
X298883095Y-67062142D02*
X298835476Y-66871666D01*
X298835476Y-66871666D02*
X298835476Y-66633571D01*
X298835476Y-66633571D02*
X298883095Y-66443095D01*
X298883095Y-66443095D02*
X298930714Y-66347857D01*
X298930714Y-66347857D02*
X298978333Y-66300238D01*
X298978333Y-66300238D02*
X299073571Y-66252619D01*
X300846905Y-69926904D02*
X301323095Y-69926904D01*
X300751667Y-70212619D02*
X301085000Y-69212619D01*
X301085000Y-69212619D02*
X301418333Y-70212619D01*
X294923095Y-70212619D02*
X294923095Y-69212619D01*
X295494523Y-70212619D02*
X295065952Y-69641190D01*
X295494523Y-69212619D02*
X294923095Y-69784047D01*
%TO.C,D14*%
X210880714Y-67252619D02*
X210880714Y-66252619D01*
X210880714Y-66252619D02*
X211118809Y-66252619D01*
X211118809Y-66252619D02*
X211261666Y-66300238D01*
X211261666Y-66300238D02*
X211356904Y-66395476D01*
X211356904Y-66395476D02*
X211404523Y-66490714D01*
X211404523Y-66490714D02*
X211452142Y-66681190D01*
X211452142Y-66681190D02*
X211452142Y-66824047D01*
X211452142Y-66824047D02*
X211404523Y-67014523D01*
X211404523Y-67014523D02*
X211356904Y-67109761D01*
X211356904Y-67109761D02*
X211261666Y-67205000D01*
X211261666Y-67205000D02*
X211118809Y-67252619D01*
X211118809Y-67252619D02*
X210880714Y-67252619D01*
X212404523Y-67252619D02*
X211833095Y-67252619D01*
X212118809Y-67252619D02*
X212118809Y-66252619D01*
X212118809Y-66252619D02*
X212023571Y-66395476D01*
X212023571Y-66395476D02*
X211928333Y-66490714D01*
X211928333Y-66490714D02*
X211833095Y-66538333D01*
X213261666Y-66585952D02*
X213261666Y-67252619D01*
X213023571Y-66205000D02*
X212785476Y-66919285D01*
X212785476Y-66919285D02*
X213404523Y-66919285D01*
X215011905Y-69926904D02*
X215488095Y-69926904D01*
X214916667Y-70212619D02*
X215250000Y-69212619D01*
X215250000Y-69212619D02*
X215583333Y-70212619D01*
X208688095Y-70212619D02*
X208688095Y-69212619D01*
X209259523Y-70212619D02*
X208830952Y-69641190D01*
X209259523Y-69212619D02*
X208688095Y-69784047D01*
%TO.C,SW9*%
X248336667Y-75265000D02*
X248479524Y-75312619D01*
X248479524Y-75312619D02*
X248717619Y-75312619D01*
X248717619Y-75312619D02*
X248812857Y-75265000D01*
X248812857Y-75265000D02*
X248860476Y-75217380D01*
X248860476Y-75217380D02*
X248908095Y-75122142D01*
X248908095Y-75122142D02*
X248908095Y-75026904D01*
X248908095Y-75026904D02*
X248860476Y-74931666D01*
X248860476Y-74931666D02*
X248812857Y-74884047D01*
X248812857Y-74884047D02*
X248717619Y-74836428D01*
X248717619Y-74836428D02*
X248527143Y-74788809D01*
X248527143Y-74788809D02*
X248431905Y-74741190D01*
X248431905Y-74741190D02*
X248384286Y-74693571D01*
X248384286Y-74693571D02*
X248336667Y-74598333D01*
X248336667Y-74598333D02*
X248336667Y-74503095D01*
X248336667Y-74503095D02*
X248384286Y-74407857D01*
X248384286Y-74407857D02*
X248431905Y-74360238D01*
X248431905Y-74360238D02*
X248527143Y-74312619D01*
X248527143Y-74312619D02*
X248765238Y-74312619D01*
X248765238Y-74312619D02*
X248908095Y-74360238D01*
X249241429Y-74312619D02*
X249479524Y-75312619D01*
X249479524Y-75312619D02*
X249670000Y-74598333D01*
X249670000Y-74598333D02*
X249860476Y-75312619D01*
X249860476Y-75312619D02*
X250098572Y-74312619D01*
X250527143Y-75312619D02*
X250717619Y-75312619D01*
X250717619Y-75312619D02*
X250812857Y-75265000D01*
X250812857Y-75265000D02*
X250860476Y-75217380D01*
X250860476Y-75217380D02*
X250955714Y-75074523D01*
X250955714Y-75074523D02*
X251003333Y-74884047D01*
X251003333Y-74884047D02*
X251003333Y-74503095D01*
X251003333Y-74503095D02*
X250955714Y-74407857D01*
X250955714Y-74407857D02*
X250908095Y-74360238D01*
X250908095Y-74360238D02*
X250812857Y-74312619D01*
X250812857Y-74312619D02*
X250622381Y-74312619D01*
X250622381Y-74312619D02*
X250527143Y-74360238D01*
X250527143Y-74360238D02*
X250479524Y-74407857D01*
X250479524Y-74407857D02*
X250431905Y-74503095D01*
X250431905Y-74503095D02*
X250431905Y-74741190D01*
X250431905Y-74741190D02*
X250479524Y-74836428D01*
X250479524Y-74836428D02*
X250527143Y-74884047D01*
X250527143Y-74884047D02*
X250622381Y-74931666D01*
X250622381Y-74931666D02*
X250812857Y-74931666D01*
X250812857Y-74931666D02*
X250908095Y-74884047D01*
X250908095Y-74884047D02*
X250955714Y-74836428D01*
X250955714Y-74836428D02*
X251003333Y-74741190D01*
D15*
%TO.C,D16*%
X167535000Y-68514000D02*
X167535000Y-68670000D01*
X167535000Y-70830000D02*
X167535000Y-70986000D01*
X170767334Y-68671392D02*
G75*
G03*
X167535001Y-68514485I-1672334J-1078608D01*
G01*
X170136129Y-68670164D02*
G75*
G03*
X168054040Y-68670001I-1041129J-1079836D01*
G01*
X168054040Y-70829999D02*
G75*
G03*
X170136129Y-70829836I1040960J1079999D01*
G01*
X167535001Y-70985515D02*
G75*
G03*
X170767334Y-70828608I1559999J1235515D01*
G01*
%TO.C,SW16*%
X345950000Y-126100000D02*
X350050000Y-126100000D01*
X345950000Y-126100000D02*
X345950000Y-126000000D01*
X350050000Y-126100000D02*
X350050000Y-126000000D01*
X348300000Y-125350000D02*
X347750000Y-125350000D01*
X345950000Y-125100000D02*
X345950000Y-123800000D01*
X350050000Y-125100000D02*
X350050000Y-123800000D01*
X347750000Y-123550000D02*
X348300000Y-123550000D01*
X345950000Y-122900000D02*
X345950000Y-122800000D01*
X350050000Y-122900000D02*
X350050000Y-122800000D01*
X345950000Y-122800000D02*
X350050000Y-122800000D01*
X347750000Y-123550000D02*
G75*
G03*
X347750000Y-125350000I0J-900000D01*
G01*
X348300000Y-125350000D02*
G75*
G03*
X348300000Y-123550000I0J900000D01*
G01*
%TO.C,D9*%
X278585000Y-68514000D02*
X278585000Y-68670000D01*
X278585000Y-70830000D02*
X278585000Y-70986000D01*
X281817334Y-68671392D02*
G75*
G03*
X278585001Y-68514485I-1672334J-1078608D01*
G01*
X281186129Y-68670164D02*
G75*
G03*
X279104040Y-68670001I-1041129J-1079836D01*
G01*
X279104040Y-70829999D02*
G75*
G03*
X281186129Y-70829836I1040960J1079999D01*
G01*
X278585001Y-70985515D02*
G75*
G03*
X281817334Y-70828608I1559999J1235515D01*
G01*
%TO.C,D13*%
X192535000Y-68514000D02*
X192535000Y-68670000D01*
X192535000Y-70830000D02*
X192535000Y-70986000D01*
X195767334Y-68671392D02*
G75*
G03*
X192535001Y-68514485I-1672334J-1078608D01*
G01*
X195136129Y-68670164D02*
G75*
G03*
X193054040Y-68670001I-1041129J-1079836D01*
G01*
X193054040Y-70829999D02*
G75*
G03*
X195136129Y-70829836I1040960J1079999D01*
G01*
X192535001Y-70985515D02*
G75*
G03*
X195767334Y-70828608I1559999J1235515D01*
G01*
%TO.C,D11*%
X235535000Y-68514000D02*
X235535000Y-68670000D01*
X235535000Y-70830000D02*
X235535000Y-70986000D01*
X238767334Y-68671392D02*
G75*
G03*
X235535001Y-68514485I-1672334J-1078608D01*
G01*
X238136129Y-68670164D02*
G75*
G03*
X236054040Y-68670001I-1041129J-1079836D01*
G01*
X236054040Y-70829999D02*
G75*
G03*
X238136129Y-70829836I1040960J1079999D01*
G01*
X235535001Y-70985515D02*
G75*
G03*
X238767334Y-70828608I1559999J1235515D01*
G01*
%TO.C,D15*%
X149535000Y-68514000D02*
X149535000Y-68670000D01*
X149535000Y-70830000D02*
X149535000Y-70986000D01*
X152767334Y-68671392D02*
G75*
G03*
X149535001Y-68514485I-1672334J-1078608D01*
G01*
X152136129Y-68670164D02*
G75*
G03*
X150054040Y-68670001I-1041129J-1079836D01*
G01*
X150054040Y-70829999D02*
G75*
G03*
X152136129Y-70829836I1040960J1079999D01*
G01*
X149535001Y-70985515D02*
G75*
G03*
X152767334Y-70828608I1559999J1235515D01*
G01*
%TO.C,SW3*%
X133200000Y-76450000D02*
X119000000Y-76450000D01*
X119000000Y-76450000D02*
X119000000Y-90650000D01*
X119000000Y-90650000D02*
X133200000Y-90650000D01*
X133200000Y-90650000D02*
X133200000Y-76450000D01*
D16*
X133700000Y-75950000D02*
X118500000Y-75950000D01*
X118500000Y-75950000D02*
X118500000Y-91150000D01*
X118500000Y-91150000D02*
X133700000Y-91150000D01*
X133700000Y-91150000D02*
X133700000Y-75950000D01*
D15*
%TO.C,SW7*%
X219200000Y-76450000D02*
X205000000Y-76450000D01*
X205000000Y-76450000D02*
X205000000Y-90650000D01*
X205000000Y-90650000D02*
X219200000Y-90650000D01*
X219200000Y-90650000D02*
X219200000Y-76450000D01*
D16*
X219700000Y-75950000D02*
X204500000Y-75950000D01*
X204500000Y-75950000D02*
X204500000Y-91150000D01*
X204500000Y-91150000D02*
X219700000Y-91150000D01*
X219700000Y-91150000D02*
X219700000Y-75950000D01*
D15*
%TO.C,SW2*%
X115200000Y-76450000D02*
X101000000Y-76450000D01*
X101000000Y-76450000D02*
X101000000Y-90650000D01*
X101000000Y-90650000D02*
X115200000Y-90650000D01*
X115200000Y-90650000D02*
X115200000Y-76450000D01*
D16*
X115700000Y-75950000D02*
X100500000Y-75950000D01*
X100500000Y-75950000D02*
X100500000Y-91150000D01*
X100500000Y-91150000D02*
X115700000Y-91150000D01*
X115700000Y-91150000D02*
X115700000Y-75950000D01*
%TO.C,G\u002A\u002A\u002A*%
D17*
X92552948Y-70015889D02*
X92557775Y-70027806D01*
X92561183Y-70051421D01*
X92563397Y-70089805D01*
X92564645Y-70146028D01*
X92565152Y-70223162D01*
X92565200Y-70266600D01*
X92564939Y-70354759D01*
X92564012Y-70420541D01*
X92562205Y-70466960D01*
X92559299Y-70497036D01*
X92555079Y-70513784D01*
X92549329Y-70520223D01*
X92547005Y-70520600D01*
X92528833Y-70510032D01*
X92520855Y-70495531D01*
X92505418Y-70470008D01*
X92480186Y-70444731D01*
X92467952Y-70436273D01*
X92453299Y-70429897D01*
X92432704Y-70425312D01*
X92402642Y-70422225D01*
X92359591Y-70420344D01*
X92300026Y-70419376D01*
X92220423Y-70419031D01*
X92169787Y-70419000D01*
X91892100Y-70419000D01*
X91893365Y-71050825D01*
X91893788Y-71176112D01*
X91894518Y-71294407D01*
X91895515Y-71403135D01*
X91896742Y-71499722D01*
X91898158Y-71581592D01*
X91899725Y-71646171D01*
X91901404Y-71690884D01*
X91903156Y-71713157D01*
X91903422Y-71714400D01*
X91919912Y-71742457D01*
X91948573Y-71768973D01*
X91952466Y-71771550D01*
X91979072Y-71793782D01*
X91992748Y-71815821D01*
X91993210Y-71819175D01*
X91991754Y-71826167D01*
X91985069Y-71831524D01*
X91970200Y-71835461D01*
X91944191Y-71838194D01*
X91904088Y-71839938D01*
X91846936Y-71840909D01*
X91769779Y-71841324D01*
X91688900Y-71841400D01*
X91593209Y-71841309D01*
X91519937Y-71840879D01*
X91466101Y-71839876D01*
X91428720Y-71838064D01*
X91404811Y-71835209D01*
X91391393Y-71831075D01*
X91385485Y-71825427D01*
X91384104Y-71818031D01*
X91384100Y-71817376D01*
X91395592Y-71794844D01*
X91415619Y-71785442D01*
X91430666Y-71781174D01*
X91443389Y-71775193D01*
X91453982Y-71765486D01*
X91462642Y-71750037D01*
X91469562Y-71726832D01*
X91474938Y-71693855D01*
X91478964Y-71649091D01*
X91481836Y-71590525D01*
X91483748Y-71516142D01*
X91484896Y-71423928D01*
X91485473Y-71311867D01*
X91485676Y-71177943D01*
X91485700Y-71060980D01*
X91485700Y-70419000D01*
X91209125Y-70419000D01*
X91110447Y-70419311D01*
X91033987Y-70420682D01*
X90976568Y-70423765D01*
X90935010Y-70429212D01*
X90906137Y-70437678D01*
X90886770Y-70449814D01*
X90873731Y-70466274D01*
X90863842Y-70487711D01*
X90862912Y-70490131D01*
X90847414Y-70513181D01*
X90831964Y-70520600D01*
X90825296Y-70517677D01*
X90820327Y-70506831D01*
X90816818Y-70484938D01*
X90814531Y-70448878D01*
X90813229Y-70395531D01*
X90812674Y-70321774D01*
X90812600Y-70266600D01*
X90812699Y-70180322D01*
X90813217Y-70116171D01*
X90814481Y-70070874D01*
X90816816Y-70041159D01*
X90820552Y-70023751D01*
X90826015Y-70015378D01*
X90833532Y-70012767D01*
X90838000Y-70012600D01*
X90858606Y-70019547D01*
X90863400Y-70029255D01*
X90871454Y-70049945D01*
X90889294Y-70073705D01*
X90915189Y-70101500D01*
X91682006Y-70101500D01*
X91819691Y-70101372D01*
X91950116Y-70101004D01*
X92071014Y-70100419D01*
X92180118Y-70099639D01*
X92275160Y-70098687D01*
X92353874Y-70097585D01*
X92413993Y-70096357D01*
X92453249Y-70095026D01*
X92469375Y-70093613D01*
X92469381Y-70093610D01*
X92489449Y-70077304D01*
X92508839Y-70049173D01*
X92508845Y-70049160D01*
X92527227Y-70023801D01*
X92545755Y-70012625D01*
X92546476Y-70012600D01*
X92552948Y-70015889D01*
G36*
X92552948Y-70015889D02*
G01*
X92557775Y-70027806D01*
X92561183Y-70051421D01*
X92563397Y-70089805D01*
X92564645Y-70146028D01*
X92565152Y-70223162D01*
X92565200Y-70266600D01*
X92564939Y-70354759D01*
X92564012Y-70420541D01*
X92562205Y-70466960D01*
X92559299Y-70497036D01*
X92555079Y-70513784D01*
X92549329Y-70520223D01*
X92547005Y-70520600D01*
X92528833Y-70510032D01*
X92520855Y-70495531D01*
X92505418Y-70470008D01*
X92480186Y-70444731D01*
X92467952Y-70436273D01*
X92453299Y-70429897D01*
X92432704Y-70425312D01*
X92402642Y-70422225D01*
X92359591Y-70420344D01*
X92300026Y-70419376D01*
X92220423Y-70419031D01*
X92169787Y-70419000D01*
X91892100Y-70419000D01*
X91893365Y-71050825D01*
X91893788Y-71176112D01*
X91894518Y-71294407D01*
X91895515Y-71403135D01*
X91896742Y-71499722D01*
X91898158Y-71581592D01*
X91899725Y-71646171D01*
X91901404Y-71690884D01*
X91903156Y-71713157D01*
X91903422Y-71714400D01*
X91919912Y-71742457D01*
X91948573Y-71768973D01*
X91952466Y-71771550D01*
X91979072Y-71793782D01*
X91992748Y-71815821D01*
X91993210Y-71819175D01*
X91991754Y-71826167D01*
X91985069Y-71831524D01*
X91970200Y-71835461D01*
X91944191Y-71838194D01*
X91904088Y-71839938D01*
X91846936Y-71840909D01*
X91769779Y-71841324D01*
X91688900Y-71841400D01*
X91593209Y-71841309D01*
X91519937Y-71840879D01*
X91466101Y-71839876D01*
X91428720Y-71838064D01*
X91404811Y-71835209D01*
X91391393Y-71831075D01*
X91385485Y-71825427D01*
X91384104Y-71818031D01*
X91384100Y-71817376D01*
X91395592Y-71794844D01*
X91415619Y-71785442D01*
X91430666Y-71781174D01*
X91443389Y-71775193D01*
X91453982Y-71765486D01*
X91462642Y-71750037D01*
X91469562Y-71726832D01*
X91474938Y-71693855D01*
X91478964Y-71649091D01*
X91481836Y-71590525D01*
X91483748Y-71516142D01*
X91484896Y-71423928D01*
X91485473Y-71311867D01*
X91485676Y-71177943D01*
X91485700Y-71060980D01*
X91485700Y-70419000D01*
X91209125Y-70419000D01*
X91110447Y-70419311D01*
X91033987Y-70420682D01*
X90976568Y-70423765D01*
X90935010Y-70429212D01*
X90906137Y-70437678D01*
X90886770Y-70449814D01*
X90873731Y-70466274D01*
X90863842Y-70487711D01*
X90862912Y-70490131D01*
X90847414Y-70513181D01*
X90831964Y-70520600D01*
X90825296Y-70517677D01*
X90820327Y-70506831D01*
X90816818Y-70484938D01*
X90814531Y-70448878D01*
X90813229Y-70395531D01*
X90812674Y-70321774D01*
X90812600Y-70266600D01*
X90812699Y-70180322D01*
X90813217Y-70116171D01*
X90814481Y-70070874D01*
X90816816Y-70041159D01*
X90820552Y-70023751D01*
X90826015Y-70015378D01*
X90833532Y-70012767D01*
X90838000Y-70012600D01*
X90858606Y-70019547D01*
X90863400Y-70029255D01*
X90871454Y-70049945D01*
X90889294Y-70073705D01*
X90915189Y-70101500D01*
X91682006Y-70101500D01*
X91819691Y-70101372D01*
X91950116Y-70101004D01*
X92071014Y-70100419D01*
X92180118Y-70099639D01*
X92275160Y-70098687D01*
X92353874Y-70097585D01*
X92413993Y-70096357D01*
X92453249Y-70095026D01*
X92469375Y-70093613D01*
X92469381Y-70093610D01*
X92489449Y-70077304D01*
X92508839Y-70049173D01*
X92508845Y-70049160D01*
X92527227Y-70023801D01*
X92545755Y-70012625D01*
X92546476Y-70012600D01*
X92552948Y-70015889D01*
G37*
X91695422Y-69015057D02*
X91802230Y-69017603D01*
X91901992Y-69022057D01*
X91989315Y-69028373D01*
X92058806Y-69036507D01*
X92076250Y-69039459D01*
X92198161Y-69066448D01*
X92318802Y-69102057D01*
X92442029Y-69147895D01*
X92571698Y-69205571D01*
X92711668Y-69276694D01*
X92865793Y-69362874D01*
X92901750Y-69383876D01*
X92992969Y-69437285D01*
X93065346Y-69478647D01*
X93121838Y-69508951D01*
X93165400Y-69529189D01*
X93198990Y-69540350D01*
X93225564Y-69543426D01*
X93248077Y-69539407D01*
X93269487Y-69529283D01*
X93291939Y-69514607D01*
X93321286Y-69499118D01*
X93345064Y-69501008D01*
X93352264Y-69504420D01*
X93372567Y-69520722D01*
X93378000Y-69532232D01*
X93371535Y-69546057D01*
X93353194Y-69578772D01*
X93324557Y-69627726D01*
X93287202Y-69690265D01*
X93242709Y-69763737D01*
X93192658Y-69845488D01*
X93159195Y-69899705D01*
X93099250Y-69996374D01*
X93051084Y-70073454D01*
X93013195Y-70133010D01*
X92984085Y-70177107D01*
X92962253Y-70207810D01*
X92946199Y-70227181D01*
X92934422Y-70237287D01*
X92925424Y-70240192D01*
X92917703Y-70237959D01*
X92914720Y-70236146D01*
X92896662Y-70214952D01*
X92885290Y-70176965D01*
X92881333Y-70148876D01*
X92872115Y-70097798D01*
X92854727Y-70052616D01*
X92826446Y-70010312D01*
X92784545Y-69967867D01*
X92726299Y-69922263D01*
X92648984Y-69870482D01*
X92605268Y-69843144D01*
X92433846Y-69751778D01*
X92250942Y-69680626D01*
X92060232Y-69630319D01*
X91865391Y-69601489D01*
X91670096Y-69594767D01*
X91478023Y-69610784D01*
X91369163Y-69630827D01*
X91202896Y-69680382D01*
X91050010Y-69750956D01*
X90911798Y-69841229D01*
X90789555Y-69949881D01*
X90684573Y-70075589D01*
X90598146Y-70217035D01*
X90531569Y-70372898D01*
X90488584Y-70529701D01*
X90477442Y-70606115D01*
X90470978Y-70699349D01*
X90469179Y-70801263D01*
X90472032Y-70903716D01*
X90479524Y-70998565D01*
X90489449Y-71066700D01*
X90532833Y-71230003D01*
X90597873Y-71381359D01*
X90683121Y-71519374D01*
X90787128Y-71642654D01*
X90908448Y-71749807D01*
X91045632Y-71839438D01*
X91197233Y-71910154D01*
X91361802Y-71960562D01*
X91433388Y-71975159D01*
X91513733Y-71985247D01*
X91611027Y-71991295D01*
X91717143Y-71993317D01*
X91823954Y-71991327D01*
X91923335Y-71985339D01*
X92007159Y-71975366D01*
X92014261Y-71974170D01*
X92107568Y-71953982D01*
X92210945Y-71925099D01*
X92314850Y-71890614D01*
X92409740Y-71853620D01*
X92465777Y-71827842D01*
X92521325Y-71797996D01*
X92584724Y-71760821D01*
X92649986Y-71720159D01*
X92711121Y-71679852D01*
X92762141Y-71643741D01*
X92797055Y-71615666D01*
X92798138Y-71614667D01*
X92844555Y-71557486D01*
X92873996Y-71491446D01*
X92882700Y-71433731D01*
X92889993Y-71389123D01*
X92909519Y-71358108D01*
X92936017Y-71346503D01*
X92945995Y-71356779D01*
X92966852Y-71385875D01*
X92996685Y-71430666D01*
X93033590Y-71488023D01*
X93075663Y-71554819D01*
X93120999Y-71627928D01*
X93167696Y-71704223D01*
X93213847Y-71780575D01*
X93257551Y-71853857D01*
X93296902Y-71920943D01*
X93329996Y-71978706D01*
X93354930Y-72024017D01*
X93369800Y-72053750D01*
X93373116Y-72064407D01*
X93353609Y-72087345D01*
X93323314Y-72089263D01*
X93288697Y-72071710D01*
X93254428Y-72052401D01*
X93218507Y-72046813D01*
X93176073Y-72055691D01*
X93122265Y-72079777D01*
X93079242Y-72103734D01*
X92926634Y-72192067D01*
X92792658Y-72267724D01*
X92674635Y-72331848D01*
X92569884Y-72385583D01*
X92475726Y-72430072D01*
X92389481Y-72466459D01*
X92308471Y-72495888D01*
X92230016Y-72519502D01*
X92151435Y-72538445D01*
X92070051Y-72553860D01*
X91999168Y-72564695D01*
X91925819Y-72572548D01*
X91835261Y-72578580D01*
X91734794Y-72582639D01*
X91631721Y-72584575D01*
X91533344Y-72584235D01*
X91446963Y-72581468D01*
X91390450Y-72577308D01*
X91204669Y-72550588D01*
X91024202Y-72510078D01*
X90854553Y-72457335D01*
X90701225Y-72393918D01*
X90648150Y-72367219D01*
X90472966Y-72260009D01*
X90314481Y-72134116D01*
X90173510Y-71990679D01*
X90050869Y-71830838D01*
X89947372Y-71655731D01*
X89863837Y-71466498D01*
X89801078Y-71264278D01*
X89775959Y-71149250D01*
X89763094Y-71057094D01*
X89754848Y-70947563D01*
X89751220Y-70828257D01*
X89752211Y-70706779D01*
X89757822Y-70590729D01*
X89768054Y-70487709D01*
X89775895Y-70438050D01*
X89826911Y-70228640D01*
X89899071Y-70031929D01*
X89991869Y-69848945D01*
X90104801Y-69680719D01*
X90206002Y-69560986D01*
X90340695Y-69430826D01*
X90485368Y-69319493D01*
X90642348Y-69225802D01*
X90813967Y-69148569D01*
X91002554Y-69086606D01*
X91210439Y-69038728D01*
X91244400Y-69032516D01*
X91305560Y-69024849D01*
X91386635Y-69019314D01*
X91482231Y-69015867D01*
X91586958Y-69014463D01*
X91695422Y-69015057D01*
G36*
X91695422Y-69015057D02*
G01*
X91802230Y-69017603D01*
X91901992Y-69022057D01*
X91989315Y-69028373D01*
X92058806Y-69036507D01*
X92076250Y-69039459D01*
X92198161Y-69066448D01*
X92318802Y-69102057D01*
X92442029Y-69147895D01*
X92571698Y-69205571D01*
X92711668Y-69276694D01*
X92865793Y-69362874D01*
X92901750Y-69383876D01*
X92992969Y-69437285D01*
X93065346Y-69478647D01*
X93121838Y-69508951D01*
X93165400Y-69529189D01*
X93198990Y-69540350D01*
X93225564Y-69543426D01*
X93248077Y-69539407D01*
X93269487Y-69529283D01*
X93291939Y-69514607D01*
X93321286Y-69499118D01*
X93345064Y-69501008D01*
X93352264Y-69504420D01*
X93372567Y-69520722D01*
X93378000Y-69532232D01*
X93371535Y-69546057D01*
X93353194Y-69578772D01*
X93324557Y-69627726D01*
X93287202Y-69690265D01*
X93242709Y-69763737D01*
X93192658Y-69845488D01*
X93159195Y-69899705D01*
X93099250Y-69996374D01*
X93051084Y-70073454D01*
X93013195Y-70133010D01*
X92984085Y-70177107D01*
X92962253Y-70207810D01*
X92946199Y-70227181D01*
X92934422Y-70237287D01*
X92925424Y-70240192D01*
X92917703Y-70237959D01*
X92914720Y-70236146D01*
X92896662Y-70214952D01*
X92885290Y-70176965D01*
X92881333Y-70148876D01*
X92872115Y-70097798D01*
X92854727Y-70052616D01*
X92826446Y-70010312D01*
X92784545Y-69967867D01*
X92726299Y-69922263D01*
X92648984Y-69870482D01*
X92605268Y-69843144D01*
X92433846Y-69751778D01*
X92250942Y-69680626D01*
X92060232Y-69630319D01*
X91865391Y-69601489D01*
X91670096Y-69594767D01*
X91478023Y-69610784D01*
X91369163Y-69630827D01*
X91202896Y-69680382D01*
X91050010Y-69750956D01*
X90911798Y-69841229D01*
X90789555Y-69949881D01*
X90684573Y-70075589D01*
X90598146Y-70217035D01*
X90531569Y-70372898D01*
X90488584Y-70529701D01*
X90477442Y-70606115D01*
X90470978Y-70699349D01*
X90469179Y-70801263D01*
X90472032Y-70903716D01*
X90479524Y-70998565D01*
X90489449Y-71066700D01*
X90532833Y-71230003D01*
X90597873Y-71381359D01*
X90683121Y-71519374D01*
X90787128Y-71642654D01*
X90908448Y-71749807D01*
X91045632Y-71839438D01*
X91197233Y-71910154D01*
X91361802Y-71960562D01*
X91433388Y-71975159D01*
X91513733Y-71985247D01*
X91611027Y-71991295D01*
X91717143Y-71993317D01*
X91823954Y-71991327D01*
X91923335Y-71985339D01*
X92007159Y-71975366D01*
X92014261Y-71974170D01*
X92107568Y-71953982D01*
X92210945Y-71925099D01*
X92314850Y-71890614D01*
X92409740Y-71853620D01*
X92465777Y-71827842D01*
X92521325Y-71797996D01*
X92584724Y-71760821D01*
X92649986Y-71720159D01*
X92711121Y-71679852D01*
X92762141Y-71643741D01*
X92797055Y-71615666D01*
X92798138Y-71614667D01*
X92844555Y-71557486D01*
X92873996Y-71491446D01*
X92882700Y-71433731D01*
X92889993Y-71389123D01*
X92909519Y-71358108D01*
X92936017Y-71346503D01*
X92945995Y-71356779D01*
X92966852Y-71385875D01*
X92996685Y-71430666D01*
X93033590Y-71488023D01*
X93075663Y-71554819D01*
X93120999Y-71627928D01*
X93167696Y-71704223D01*
X93213847Y-71780575D01*
X93257551Y-71853857D01*
X93296902Y-71920943D01*
X93329996Y-71978706D01*
X93354930Y-72024017D01*
X93369800Y-72053750D01*
X93373116Y-72064407D01*
X93353609Y-72087345D01*
X93323314Y-72089263D01*
X93288697Y-72071710D01*
X93254428Y-72052401D01*
X93218507Y-72046813D01*
X93176073Y-72055691D01*
X93122265Y-72079777D01*
X93079242Y-72103734D01*
X92926634Y-72192067D01*
X92792658Y-72267724D01*
X92674635Y-72331848D01*
X92569884Y-72385583D01*
X92475726Y-72430072D01*
X92389481Y-72466459D01*
X92308471Y-72495888D01*
X92230016Y-72519502D01*
X92151435Y-72538445D01*
X92070051Y-72553860D01*
X91999168Y-72564695D01*
X91925819Y-72572548D01*
X91835261Y-72578580D01*
X91734794Y-72582639D01*
X91631721Y-72584575D01*
X91533344Y-72584235D01*
X91446963Y-72581468D01*
X91390450Y-72577308D01*
X91204669Y-72550588D01*
X91024202Y-72510078D01*
X90854553Y-72457335D01*
X90701225Y-72393918D01*
X90648150Y-72367219D01*
X90472966Y-72260009D01*
X90314481Y-72134116D01*
X90173510Y-71990679D01*
X90050869Y-71830838D01*
X89947372Y-71655731D01*
X89863837Y-71466498D01*
X89801078Y-71264278D01*
X89775959Y-71149250D01*
X89763094Y-71057094D01*
X89754848Y-70947563D01*
X89751220Y-70828257D01*
X89752211Y-70706779D01*
X89757822Y-70590729D01*
X89768054Y-70487709D01*
X89775895Y-70438050D01*
X89826911Y-70228640D01*
X89899071Y-70031929D01*
X89991869Y-69848945D01*
X90104801Y-69680719D01*
X90206002Y-69560986D01*
X90340695Y-69430826D01*
X90485368Y-69319493D01*
X90642348Y-69225802D01*
X90813967Y-69148569D01*
X91002554Y-69086606D01*
X91210439Y-69038728D01*
X91244400Y-69032516D01*
X91305560Y-69024849D01*
X91386635Y-69019314D01*
X91482231Y-69015867D01*
X91586958Y-69014463D01*
X91695422Y-69015057D01*
G37*
X88628200Y-69155350D02*
X88628200Y-69061660D01*
X88298900Y-69057705D01*
X88193169Y-69056331D01*
X88109621Y-69054545D01*
X88045044Y-69051607D01*
X87996221Y-69046775D01*
X87959940Y-69039308D01*
X87932985Y-69028465D01*
X87912143Y-69013503D01*
X87894200Y-68993682D01*
X87875940Y-68968260D01*
X87869374Y-68958629D01*
X87845772Y-68902862D01*
X87842838Y-68840979D01*
X87859235Y-68779544D01*
X87893626Y-68725124D01*
X87922358Y-68698558D01*
X87934388Y-68690686D01*
X87949046Y-68684485D01*
X87969504Y-68679675D01*
X87998937Y-68675979D01*
X88040517Y-68673119D01*
X88097419Y-68670817D01*
X88172815Y-68668795D01*
X88269879Y-68666774D01*
X88289370Y-68666400D01*
X88621850Y-68660050D01*
X88629701Y-68494950D01*
X88636818Y-68393914D01*
X88648877Y-68312431D01*
X88668011Y-68244809D01*
X88696359Y-68185356D01*
X88736055Y-68128379D01*
X88789235Y-68068188D01*
X88790267Y-68067106D01*
X88866562Y-67995185D01*
X88941960Y-67942789D01*
X89022225Y-67907557D01*
X89113118Y-67887127D01*
X89220403Y-67879135D01*
X89249630Y-67878805D01*
X89306588Y-67877849D01*
X89354665Y-67875420D01*
X89387811Y-67871919D01*
X89399097Y-67868918D01*
X89404310Y-67857421D01*
X89408591Y-67829012D01*
X89412042Y-67781924D01*
X89414764Y-67714389D01*
X89416857Y-67624639D01*
X89418147Y-67535738D01*
X89419386Y-67436648D01*
X89420687Y-67359667D01*
X89422353Y-67301502D01*
X89424684Y-67258861D01*
X89427980Y-67228455D01*
X89432544Y-67206992D01*
X89438676Y-67191180D01*
X89446676Y-67177728D01*
X89451526Y-67170783D01*
X89499217Y-67123602D01*
X89557135Y-67096374D01*
X89619932Y-67088989D01*
X89682259Y-67101336D01*
X89738767Y-67133305D01*
X89779410Y-67177548D01*
X89786686Y-67190488D01*
X89792452Y-67207484D01*
X89796967Y-67231699D01*
X89800492Y-67266294D01*
X89803284Y-67314431D01*
X89805602Y-67379272D01*
X89807706Y-67463978D01*
X89809300Y-67542450D01*
X89815650Y-67872650D01*
X90399850Y-67872650D01*
X90406200Y-67542450D01*
X90409053Y-67424393D01*
X90412615Y-67329183D01*
X90416850Y-67257455D01*
X90421718Y-67209843D01*
X90427183Y-67186981D01*
X90427258Y-67186850D01*
X90471433Y-67134240D01*
X90529267Y-67100587D01*
X90595242Y-67088216D01*
X90646776Y-67094311D01*
X90688192Y-67112879D01*
X90729666Y-67144294D01*
X90764461Y-67181929D01*
X90785839Y-67219159D01*
X90789327Y-67234511D01*
X90791938Y-67271069D01*
X90793550Y-67294800D01*
X90794264Y-67316585D01*
X90795078Y-67359546D01*
X90795932Y-67419461D01*
X90796770Y-67492105D01*
X90797533Y-67573256D01*
X90797772Y-67603013D01*
X90799900Y-67879476D01*
X91377750Y-67872650D01*
X91384100Y-67548800D01*
X91386210Y-67448524D01*
X91388322Y-67370350D01*
X91390722Y-67310981D01*
X91393697Y-67267120D01*
X91397531Y-67235470D01*
X91402511Y-67212735D01*
X91408924Y-67195618D01*
X91415850Y-67182797D01*
X91459765Y-67131838D01*
X91514966Y-67100440D01*
X91576330Y-67088772D01*
X91638735Y-67097004D01*
X91697060Y-67125307D01*
X91744722Y-67171870D01*
X91752856Y-67184075D01*
X91759253Y-67198427D01*
X91764198Y-67218116D01*
X91767979Y-67246330D01*
X91770881Y-67286256D01*
X91773192Y-67341084D01*
X91775197Y-67414003D01*
X91777182Y-67508199D01*
X91777800Y-67540170D01*
X91784150Y-67872650D01*
X92368350Y-67872650D01*
X92374700Y-67540170D01*
X92376883Y-67432453D01*
X92379402Y-67347042D01*
X92383075Y-67280849D01*
X92388722Y-67230785D01*
X92397163Y-67193762D01*
X92409218Y-67166691D01*
X92425707Y-67146483D01*
X92447449Y-67130049D01*
X92475265Y-67114301D01*
X92489743Y-67106739D01*
X92552798Y-67086815D01*
X92615027Y-67090510D01*
X92672220Y-67116267D01*
X92720167Y-67162530D01*
X92743188Y-67200384D01*
X92751089Y-67218380D01*
X92757153Y-67238233D01*
X92761620Y-67263416D01*
X92764731Y-67297402D01*
X92766724Y-67343662D01*
X92767839Y-67405671D01*
X92768316Y-67486900D01*
X92768400Y-67565748D01*
X92768400Y-67879476D01*
X93346250Y-67872650D01*
X93352600Y-67548800D01*
X93354734Y-67445853D01*
X93357022Y-67364973D01*
X93360061Y-67302831D01*
X93364448Y-67256097D01*
X93370781Y-67221442D01*
X93379659Y-67195537D01*
X93391677Y-67175053D01*
X93407433Y-67156660D01*
X93426289Y-67138207D01*
X93480721Y-67102287D01*
X93541604Y-67088031D01*
X93603599Y-67094607D01*
X93661371Y-67121178D01*
X93709582Y-67166910D01*
X93721458Y-67184365D01*
X93729131Y-67198644D01*
X93735041Y-67215380D01*
X93739416Y-67237888D01*
X93742484Y-67269482D01*
X93744473Y-67313476D01*
X93745612Y-67373185D01*
X93746129Y-67451922D01*
X93746252Y-67544266D01*
X93746430Y-67643712D01*
X93747050Y-67720659D01*
X93748290Y-67778006D01*
X93750330Y-67818654D01*
X93753346Y-67845501D01*
X93757519Y-67861447D01*
X93763026Y-67869392D01*
X93766388Y-67871291D01*
X93787047Y-67874530D01*
X93826679Y-67877099D01*
X93878859Y-67878669D01*
X93917657Y-67879000D01*
X94043871Y-67887195D01*
X94153594Y-67912680D01*
X94250107Y-67956800D01*
X94336693Y-68020902D01*
X94387106Y-68071578D01*
X94454985Y-68164417D01*
X94503789Y-68271287D01*
X94533957Y-68393518D01*
X94545925Y-68532438D01*
X94546179Y-68555275D01*
X94546400Y-68666400D01*
X94864530Y-68666400D01*
X94969466Y-68666713D01*
X95051826Y-68667748D01*
X95114429Y-68669647D01*
X95160091Y-68672553D01*
X95191630Y-68676609D01*
X95211864Y-68681957D01*
X95216955Y-68684243D01*
X95272229Y-68725301D01*
X95308268Y-68777703D01*
X95325107Y-68836595D01*
X95322782Y-68897123D01*
X95301328Y-68954433D01*
X95260779Y-69003672D01*
X95214438Y-69034076D01*
X95195789Y-69042296D01*
X95175778Y-69048585D01*
X95150858Y-69053199D01*
X95117482Y-69056394D01*
X95072104Y-69058425D01*
X95011176Y-69059549D01*
X94931152Y-69060020D01*
X94853540Y-69060100D01*
X94546400Y-69060100D01*
X94546400Y-69644300D01*
X94853540Y-69644300D01*
X94950776Y-69644437D01*
X95026166Y-69645022D01*
X95083262Y-69646314D01*
X95125620Y-69648570D01*
X95156790Y-69652049D01*
X95180327Y-69657010D01*
X95199784Y-69663711D01*
X95215011Y-69670601D01*
X95270312Y-69708396D01*
X95304914Y-69759276D01*
X95320117Y-69825456D01*
X95321100Y-69851199D01*
X95318489Y-69898291D01*
X95308426Y-69931400D01*
X95287837Y-69961281D01*
X95268099Y-69983730D01*
X95248908Y-70001311D01*
X95226985Y-70014619D01*
X95199053Y-70024248D01*
X95161833Y-70030792D01*
X95112049Y-70034845D01*
X95046422Y-70037001D01*
X94961673Y-70037854D01*
X94864530Y-70037999D01*
X94546400Y-70038000D01*
X94546400Y-70633697D01*
X94875698Y-70637473D01*
X94976085Y-70638724D01*
X95054279Y-70640073D01*
X95113490Y-70641788D01*
X95156925Y-70644137D01*
X95187793Y-70647389D01*
X95209300Y-70651812D01*
X95224656Y-70657672D01*
X95237067Y-70665239D01*
X95240823Y-70667977D01*
X95289129Y-70717927D01*
X95317117Y-70777119D01*
X95324769Y-70840400D01*
X95312070Y-70902618D01*
X95279001Y-70958623D01*
X95241916Y-70992673D01*
X95228452Y-71001662D01*
X95214130Y-71008697D01*
X95195699Y-71014092D01*
X95169908Y-71018161D01*
X95133507Y-71021220D01*
X95083243Y-71023581D01*
X95015866Y-71025559D01*
X94928125Y-71027469D01*
X94870250Y-71028600D01*
X94781876Y-71030651D01*
X94702670Y-71033165D01*
X94635922Y-71035983D01*
X94584924Y-71038943D01*
X94552968Y-71041888D01*
X94543225Y-71044475D01*
X94544141Y-71059415D01*
X94544954Y-71096005D01*
X94545623Y-71150496D01*
X94546107Y-71219137D01*
X94546367Y-71298180D01*
X94546400Y-71339157D01*
X94546400Y-71624315D01*
X94882266Y-71628082D01*
X95218132Y-71631850D01*
X95263511Y-71675854D01*
X95307155Y-71733384D01*
X95326814Y-71795671D01*
X95322490Y-71859111D01*
X95294181Y-71920099D01*
X95263511Y-71956145D01*
X95218132Y-72000150D01*
X94546400Y-72007684D01*
X94546400Y-72601839D01*
X94873425Y-72605794D01*
X94979683Y-72607219D01*
X95063694Y-72609106D01*
X95128607Y-72612165D01*
X95177573Y-72617110D01*
X95213742Y-72624653D01*
X95240266Y-72635507D01*
X95260294Y-72650384D01*
X95276978Y-72669996D01*
X95293467Y-72695057D01*
X95297593Y-72701712D01*
X95321468Y-72762821D01*
X95322901Y-72827463D01*
X95303120Y-72889959D01*
X95263356Y-72944633D01*
X95240823Y-72964022D01*
X95228674Y-72972173D01*
X95214575Y-72978535D01*
X95195321Y-72983375D01*
X95167702Y-72986961D01*
X95128512Y-72989562D01*
X95074541Y-72991446D01*
X95002583Y-72992880D01*
X94909429Y-72994132D01*
X94875698Y-72994526D01*
X94546400Y-72998302D01*
X94546179Y-73108826D01*
X94537556Y-73246595D01*
X94511728Y-73367246D01*
X94467881Y-73473068D01*
X94405199Y-73566350D01*
X94368600Y-73606917D01*
X94304815Y-73666337D01*
X94242746Y-73710850D01*
X94176820Y-73742660D01*
X94101469Y-73763974D01*
X94011123Y-73776998D01*
X93924100Y-73782939D01*
X93752650Y-73790850D01*
X93746300Y-74121648D01*
X93744168Y-74223787D01*
X93741995Y-74303672D01*
X93739528Y-74364449D01*
X93736516Y-74409262D01*
X93732707Y-74441256D01*
X93727849Y-74463578D01*
X93721691Y-74479371D01*
X93717034Y-74487379D01*
X93671820Y-74535783D01*
X93616170Y-74563921D01*
X93554800Y-74571914D01*
X93492428Y-74559881D01*
X93433769Y-74527944D01*
X93385517Y-74478924D01*
X93377411Y-74466728D01*
X93371080Y-74452497D01*
X93366257Y-74433025D01*
X93362674Y-74405104D01*
X93360062Y-74365525D01*
X93358153Y-74311082D01*
X93356679Y-74238566D01*
X93355372Y-74144770D01*
X93354994Y-74113799D01*
X93351039Y-73784500D01*
X92768400Y-73784500D01*
X92768400Y-74096057D01*
X92768147Y-74201952D01*
X92767006Y-74285776D01*
X92764402Y-74350855D01*
X92759760Y-74400517D01*
X92752506Y-74438089D01*
X92742063Y-74466897D01*
X92727858Y-74490269D01*
X92709316Y-74511532D01*
X92694045Y-74526381D01*
X92643432Y-74557825D01*
X92582509Y-74571551D01*
X92519891Y-74566782D01*
X92470067Y-74546572D01*
X92444655Y-74530318D01*
X92424598Y-74514483D01*
X92409195Y-74495948D01*
X92397747Y-74471592D01*
X92389553Y-74438297D01*
X92383912Y-74392941D01*
X92380125Y-74332404D01*
X92377492Y-74253568D01*
X92375311Y-74153311D01*
X92374700Y-74121651D01*
X92368350Y-73790850D01*
X91784150Y-73790850D01*
X91777800Y-74121050D01*
X91775686Y-74222731D01*
X91773553Y-74302175D01*
X91771140Y-74362544D01*
X91768190Y-74406999D01*
X91764442Y-74438703D01*
X91759638Y-74460817D01*
X91753519Y-74476503D01*
X91747910Y-74485951D01*
X91701611Y-74534097D01*
X91644874Y-74562776D01*
X91583062Y-74572131D01*
X91521534Y-74562305D01*
X91465652Y-74533442D01*
X91420777Y-74485686D01*
X91415416Y-74477056D01*
X91405793Y-74460034D01*
X91398376Y-74443620D01*
X91392877Y-74424395D01*
X91389009Y-74398939D01*
X91386487Y-74363833D01*
X91385021Y-74315657D01*
X91384326Y-74250991D01*
X91384114Y-74166416D01*
X91384100Y-74104059D01*
X91384100Y-73784500D01*
X90799900Y-73784500D01*
X90799900Y-74092959D01*
X90799795Y-74189870D01*
X90799295Y-74264939D01*
X90798121Y-74321722D01*
X90795996Y-74363775D01*
X90792640Y-74394656D01*
X90787775Y-74417922D01*
X90781123Y-74437128D01*
X90772406Y-74455833D01*
X90771325Y-74457981D01*
X90730632Y-74514584D01*
X90677629Y-74553104D01*
X90617252Y-74571925D01*
X90554441Y-74569432D01*
X90498965Y-74547058D01*
X90474371Y-74531342D01*
X90454936Y-74515538D01*
X90439983Y-74496553D01*
X90428837Y-74471291D01*
X90420824Y-74436657D01*
X90415269Y-74389556D01*
X90411497Y-74326893D01*
X90408833Y-74245574D01*
X90406602Y-74142503D01*
X90406200Y-74121648D01*
X90399850Y-73790850D01*
X90105345Y-73787442D01*
X89810840Y-73784035D01*
X89806895Y-74117642D01*
X89805648Y-74218303D01*
X89804379Y-74296782D01*
X89802789Y-74356296D01*
X89800583Y-74400063D01*
X89797464Y-74431299D01*
X89793134Y-74453222D01*
X89787297Y-74469048D01*
X89779656Y-74481994D01*
X89772343Y-74492041D01*
X89723825Y-74537504D01*
X89663949Y-74564515D01*
X89599263Y-74571575D01*
X89536316Y-74557181D01*
X89520924Y-74549675D01*
X89484320Y-74523308D01*
X89451908Y-74490499D01*
X89451273Y-74489688D01*
X89442418Y-74477526D01*
X89435509Y-74464469D01*
X89430262Y-74447323D01*
X89426393Y-74422894D01*
X89423617Y-74387986D01*
X89421649Y-74339406D01*
X89420204Y-74273960D01*
X89418999Y-74188453D01*
X89418182Y-74118213D01*
X89414415Y-73784500D01*
X89270295Y-73784500D01*
X89153830Y-73779367D01*
X89055502Y-73762684D01*
X88969943Y-73732520D01*
X88891784Y-73686948D01*
X88815656Y-73624038D01*
X88810752Y-73619400D01*
X88740533Y-73542286D01*
X88688871Y-73460478D01*
X88654062Y-73369524D01*
X88634406Y-73264970D01*
X88628200Y-73142363D01*
X88628200Y-72997100D01*
X88309444Y-72997100D01*
X88200946Y-72996804D01*
X88114718Y-72995535D01*
X88047629Y-72992715D01*
X87996554Y-72987768D01*
X87958362Y-72980118D01*
X87929926Y-72969189D01*
X87908118Y-72954404D01*
X87889810Y-72935188D01*
X87876352Y-72917323D01*
X87851081Y-72863618D01*
X87842381Y-72802629D01*
X87850610Y-72743664D01*
X87868243Y-72706167D01*
X87887685Y-72678379D01*
X87905604Y-72656516D01*
X87925224Y-72639829D01*
X87949767Y-72627568D01*
X87982457Y-72618985D01*
X88026516Y-72613329D01*
X88085168Y-72609851D01*
X88161635Y-72607802D01*
X88259141Y-72606433D01*
X88299133Y-72605972D01*
X88628665Y-72602194D01*
X88627430Y-72495450D01*
X89612450Y-72495450D01*
X89641769Y-72558950D01*
X89689079Y-72636084D01*
X89753134Y-72704115D01*
X89827879Y-72757859D01*
X89907258Y-72792132D01*
X89917250Y-72794800D01*
X89934451Y-72795945D01*
X89975515Y-72797021D01*
X90038903Y-72798019D01*
X90123080Y-72798934D01*
X90226506Y-72799759D01*
X90347645Y-72800486D01*
X90484959Y-72801110D01*
X90636910Y-72801623D01*
X90801962Y-72802018D01*
X90978577Y-72802290D01*
X91165216Y-72802430D01*
X91360344Y-72802433D01*
X91562422Y-72802291D01*
X91606350Y-72802242D01*
X93257350Y-72800250D01*
X93334650Y-72759839D01*
X93418559Y-72704108D01*
X93484712Y-72632531D01*
X93520797Y-72574471D01*
X93549450Y-72520850D01*
X93549450Y-69142650D01*
X93520324Y-69088102D01*
X93459434Y-68999697D01*
X93381329Y-68928412D01*
X93337405Y-68900563D01*
X93270050Y-68863250D01*
X91612854Y-68859842D01*
X91368374Y-68859313D01*
X91147971Y-68858822D01*
X90950318Y-68858429D01*
X90774094Y-68858194D01*
X90617973Y-68858177D01*
X90480632Y-68858439D01*
X90360747Y-68859040D01*
X90256993Y-68860039D01*
X90168046Y-68861497D01*
X90092583Y-68863474D01*
X90029279Y-68866031D01*
X89976810Y-68869226D01*
X89933852Y-68873121D01*
X89899081Y-68877776D01*
X89871173Y-68883250D01*
X89848804Y-68889604D01*
X89830650Y-68896898D01*
X89815386Y-68905191D01*
X89801689Y-68914545D01*
X89788235Y-68925020D01*
X89773699Y-68936674D01*
X89764546Y-68943774D01*
X89703082Y-69004694D01*
X89657900Y-69072800D01*
X89612450Y-69155350D01*
X89612450Y-72495450D01*
X88627430Y-72495450D01*
X88625257Y-72307522D01*
X88621850Y-72012850D01*
X88291051Y-72006500D01*
X88188912Y-72004368D01*
X88109027Y-72002195D01*
X88048250Y-71999728D01*
X88003437Y-71996716D01*
X87971443Y-71992907D01*
X87949121Y-71988049D01*
X87933328Y-71981891D01*
X87925320Y-71977234D01*
X87878473Y-71932752D01*
X87850437Y-71876907D01*
X87841210Y-71815409D01*
X87850792Y-71753965D01*
X87879185Y-71698283D01*
X87925320Y-71654765D01*
X87938617Y-71647659D01*
X87956462Y-71642012D01*
X87982000Y-71637572D01*
X88018377Y-71634088D01*
X88068737Y-71631307D01*
X88136226Y-71628978D01*
X88223988Y-71626850D01*
X88291051Y-71625500D01*
X88621850Y-71619150D01*
X88628668Y-71028600D01*
X88309488Y-71028600D01*
X88210642Y-71028491D01*
X88133803Y-71028000D01*
X88075579Y-71026878D01*
X88032578Y-71024876D01*
X88001407Y-71021746D01*
X87978675Y-71017239D01*
X87960989Y-71011106D01*
X87944956Y-71003099D01*
X87942451Y-71001702D01*
X87891648Y-70960487D01*
X87858810Y-70907546D01*
X87843864Y-70848093D01*
X87846739Y-70787341D01*
X87867362Y-70730504D01*
X87905662Y-70682795D01*
X87947244Y-70655515D01*
X87964830Y-70648886D01*
X87988314Y-70643802D01*
X88020975Y-70640073D01*
X88066092Y-70637508D01*
X88126944Y-70635918D01*
X88206812Y-70635112D01*
X88302852Y-70634900D01*
X88615016Y-70634900D01*
X88622026Y-70606325D01*
X88623966Y-70585375D01*
X88625353Y-70543288D01*
X88626139Y-70484322D01*
X88626275Y-70412735D01*
X88625712Y-70332783D01*
X88625443Y-70311050D01*
X88621850Y-70044350D01*
X88291650Y-70038000D01*
X88191218Y-70035978D01*
X88112946Y-70034040D01*
X88053593Y-70031884D01*
X88009923Y-70029204D01*
X87978697Y-70025699D01*
X87956675Y-70021063D01*
X87940621Y-70014994D01*
X87927295Y-70007188D01*
X87921740Y-70003325D01*
X87877310Y-69957779D01*
X87850060Y-69900607D01*
X87841355Y-69838523D01*
X87852560Y-69778237D01*
X87869375Y-69745770D01*
X87888435Y-69718355D01*
X87906126Y-69696785D01*
X87925663Y-69680320D01*
X87950260Y-69668221D01*
X87983131Y-69659747D01*
X88027490Y-69654159D01*
X88086552Y-69650715D01*
X88163531Y-69648677D01*
X88261641Y-69647303D01*
X88298901Y-69646873D01*
X88628200Y-69643097D01*
X88628200Y-69155350D01*
G36*
X88628200Y-69155350D02*
G01*
X88628200Y-69061660D01*
X88298900Y-69057705D01*
X88193169Y-69056331D01*
X88109621Y-69054545D01*
X88045044Y-69051607D01*
X87996221Y-69046775D01*
X87959940Y-69039308D01*
X87932985Y-69028465D01*
X87912143Y-69013503D01*
X87894200Y-68993682D01*
X87875940Y-68968260D01*
X87869374Y-68958629D01*
X87845772Y-68902862D01*
X87842838Y-68840979D01*
X87859235Y-68779544D01*
X87893626Y-68725124D01*
X87922358Y-68698558D01*
X87934388Y-68690686D01*
X87949046Y-68684485D01*
X87969504Y-68679675D01*
X87998937Y-68675979D01*
X88040517Y-68673119D01*
X88097419Y-68670817D01*
X88172815Y-68668795D01*
X88269879Y-68666774D01*
X88289370Y-68666400D01*
X88621850Y-68660050D01*
X88629701Y-68494950D01*
X88636818Y-68393914D01*
X88648877Y-68312431D01*
X88668011Y-68244809D01*
X88696359Y-68185356D01*
X88736055Y-68128379D01*
X88789235Y-68068188D01*
X88790267Y-68067106D01*
X88866562Y-67995185D01*
X88941960Y-67942789D01*
X89022225Y-67907557D01*
X89113118Y-67887127D01*
X89220403Y-67879135D01*
X89249630Y-67878805D01*
X89306588Y-67877849D01*
X89354665Y-67875420D01*
X89387811Y-67871919D01*
X89399097Y-67868918D01*
X89404310Y-67857421D01*
X89408591Y-67829012D01*
X89412042Y-67781924D01*
X89414764Y-67714389D01*
X89416857Y-67624639D01*
X89418147Y-67535738D01*
X89419386Y-67436648D01*
X89420687Y-67359667D01*
X89422353Y-67301502D01*
X89424684Y-67258861D01*
X89427980Y-67228455D01*
X89432544Y-67206992D01*
X89438676Y-67191180D01*
X89446676Y-67177728D01*
X89451526Y-67170783D01*
X89499217Y-67123602D01*
X89557135Y-67096374D01*
X89619932Y-67088989D01*
X89682259Y-67101336D01*
X89738767Y-67133305D01*
X89779410Y-67177548D01*
X89786686Y-67190488D01*
X89792452Y-67207484D01*
X89796967Y-67231699D01*
X89800492Y-67266294D01*
X89803284Y-67314431D01*
X89805602Y-67379272D01*
X89807706Y-67463978D01*
X89809300Y-67542450D01*
X89815650Y-67872650D01*
X90399850Y-67872650D01*
X90406200Y-67542450D01*
X90409053Y-67424393D01*
X90412615Y-67329183D01*
X90416850Y-67257455D01*
X90421718Y-67209843D01*
X90427183Y-67186981D01*
X90427258Y-67186850D01*
X90471433Y-67134240D01*
X90529267Y-67100587D01*
X90595242Y-67088216D01*
X90646776Y-67094311D01*
X90688192Y-67112879D01*
X90729666Y-67144294D01*
X90764461Y-67181929D01*
X90785839Y-67219159D01*
X90789327Y-67234511D01*
X90791938Y-67271069D01*
X90793550Y-67294800D01*
X90794264Y-67316585D01*
X90795078Y-67359546D01*
X90795932Y-67419461D01*
X90796770Y-67492105D01*
X90797533Y-67573256D01*
X90797772Y-67603013D01*
X90799900Y-67879476D01*
X91377750Y-67872650D01*
X91384100Y-67548800D01*
X91386210Y-67448524D01*
X91388322Y-67370350D01*
X91390722Y-67310981D01*
X91393697Y-67267120D01*
X91397531Y-67235470D01*
X91402511Y-67212735D01*
X91408924Y-67195618D01*
X91415850Y-67182797D01*
X91459765Y-67131838D01*
X91514966Y-67100440D01*
X91576330Y-67088772D01*
X91638735Y-67097004D01*
X91697060Y-67125307D01*
X91744722Y-67171870D01*
X91752856Y-67184075D01*
X91759253Y-67198427D01*
X91764198Y-67218116D01*
X91767979Y-67246330D01*
X91770881Y-67286256D01*
X91773192Y-67341084D01*
X91775197Y-67414003D01*
X91777182Y-67508199D01*
X91777800Y-67540170D01*
X91784150Y-67872650D01*
X92368350Y-67872650D01*
X92374700Y-67540170D01*
X92376883Y-67432453D01*
X92379402Y-67347042D01*
X92383075Y-67280849D01*
X92388722Y-67230785D01*
X92397163Y-67193762D01*
X92409218Y-67166691D01*
X92425707Y-67146483D01*
X92447449Y-67130049D01*
X92475265Y-67114301D01*
X92489743Y-67106739D01*
X92552798Y-67086815D01*
X92615027Y-67090510D01*
X92672220Y-67116267D01*
X92720167Y-67162530D01*
X92743188Y-67200384D01*
X92751089Y-67218380D01*
X92757153Y-67238233D01*
X92761620Y-67263416D01*
X92764731Y-67297402D01*
X92766724Y-67343662D01*
X92767839Y-67405671D01*
X92768316Y-67486900D01*
X92768400Y-67565748D01*
X92768400Y-67879476D01*
X93346250Y-67872650D01*
X93352600Y-67548800D01*
X93354734Y-67445853D01*
X93357022Y-67364973D01*
X93360061Y-67302831D01*
X93364448Y-67256097D01*
X93370781Y-67221442D01*
X93379659Y-67195537D01*
X93391677Y-67175053D01*
X93407433Y-67156660D01*
X93426289Y-67138207D01*
X93480721Y-67102287D01*
X93541604Y-67088031D01*
X93603599Y-67094607D01*
X93661371Y-67121178D01*
X93709582Y-67166910D01*
X93721458Y-67184365D01*
X93729131Y-67198644D01*
X93735041Y-67215380D01*
X93739416Y-67237888D01*
X93742484Y-67269482D01*
X93744473Y-67313476D01*
X93745612Y-67373185D01*
X93746129Y-67451922D01*
X93746252Y-67544266D01*
X93746430Y-67643712D01*
X93747050Y-67720659D01*
X93748290Y-67778006D01*
X93750330Y-67818654D01*
X93753346Y-67845501D01*
X93757519Y-67861447D01*
X93763026Y-67869392D01*
X93766388Y-67871291D01*
X93787047Y-67874530D01*
X93826679Y-67877099D01*
X93878859Y-67878669D01*
X93917657Y-67879000D01*
X94043871Y-67887195D01*
X94153594Y-67912680D01*
X94250107Y-67956800D01*
X94336693Y-68020902D01*
X94387106Y-68071578D01*
X94454985Y-68164417D01*
X94503789Y-68271287D01*
X94533957Y-68393518D01*
X94545925Y-68532438D01*
X94546179Y-68555275D01*
X94546400Y-68666400D01*
X94864530Y-68666400D01*
X94969466Y-68666713D01*
X95051826Y-68667748D01*
X95114429Y-68669647D01*
X95160091Y-68672553D01*
X95191630Y-68676609D01*
X95211864Y-68681957D01*
X95216955Y-68684243D01*
X95272229Y-68725301D01*
X95308268Y-68777703D01*
X95325107Y-68836595D01*
X95322782Y-68897123D01*
X95301328Y-68954433D01*
X95260779Y-69003672D01*
X95214438Y-69034076D01*
X95195789Y-69042296D01*
X95175778Y-69048585D01*
X95150858Y-69053199D01*
X95117482Y-69056394D01*
X95072104Y-69058425D01*
X95011176Y-69059549D01*
X94931152Y-69060020D01*
X94853540Y-69060100D01*
X94546400Y-69060100D01*
X94546400Y-69644300D01*
X94853540Y-69644300D01*
X94950776Y-69644437D01*
X95026166Y-69645022D01*
X95083262Y-69646314D01*
X95125620Y-69648570D01*
X95156790Y-69652049D01*
X95180327Y-69657010D01*
X95199784Y-69663711D01*
X95215011Y-69670601D01*
X95270312Y-69708396D01*
X95304914Y-69759276D01*
X95320117Y-69825456D01*
X95321100Y-69851199D01*
X95318489Y-69898291D01*
X95308426Y-69931400D01*
X95287837Y-69961281D01*
X95268099Y-69983730D01*
X95248908Y-70001311D01*
X95226985Y-70014619D01*
X95199053Y-70024248D01*
X95161833Y-70030792D01*
X95112049Y-70034845D01*
X95046422Y-70037001D01*
X94961673Y-70037854D01*
X94864530Y-70037999D01*
X94546400Y-70038000D01*
X94546400Y-70633697D01*
X94875698Y-70637473D01*
X94976085Y-70638724D01*
X95054279Y-70640073D01*
X95113490Y-70641788D01*
X95156925Y-70644137D01*
X95187793Y-70647389D01*
X95209300Y-70651812D01*
X95224656Y-70657672D01*
X95237067Y-70665239D01*
X95240823Y-70667977D01*
X95289129Y-70717927D01*
X95317117Y-70777119D01*
X95324769Y-70840400D01*
X95312070Y-70902618D01*
X95279001Y-70958623D01*
X95241916Y-70992673D01*
X95228452Y-71001662D01*
X95214130Y-71008697D01*
X95195699Y-71014092D01*
X95169908Y-71018161D01*
X95133507Y-71021220D01*
X95083243Y-71023581D01*
X95015866Y-71025559D01*
X94928125Y-71027469D01*
X94870250Y-71028600D01*
X94781876Y-71030651D01*
X94702670Y-71033165D01*
X94635922Y-71035983D01*
X94584924Y-71038943D01*
X94552968Y-71041888D01*
X94543225Y-71044475D01*
X94544141Y-71059415D01*
X94544954Y-71096005D01*
X94545623Y-71150496D01*
X94546107Y-71219137D01*
X94546367Y-71298180D01*
X94546400Y-71339157D01*
X94546400Y-71624315D01*
X94882266Y-71628082D01*
X95218132Y-71631850D01*
X95263511Y-71675854D01*
X95307155Y-71733384D01*
X95326814Y-71795671D01*
X95322490Y-71859111D01*
X95294181Y-71920099D01*
X95263511Y-71956145D01*
X95218132Y-72000150D01*
X94546400Y-72007684D01*
X94546400Y-72601839D01*
X94873425Y-72605794D01*
X94979683Y-72607219D01*
X95063694Y-72609106D01*
X95128607Y-72612165D01*
X95177573Y-72617110D01*
X95213742Y-72624653D01*
X95240266Y-72635507D01*
X95260294Y-72650384D01*
X95276978Y-72669996D01*
X95293467Y-72695057D01*
X95297593Y-72701712D01*
X95321468Y-72762821D01*
X95322901Y-72827463D01*
X95303120Y-72889959D01*
X95263356Y-72944633D01*
X95240823Y-72964022D01*
X95228674Y-72972173D01*
X95214575Y-72978535D01*
X95195321Y-72983375D01*
X95167702Y-72986961D01*
X95128512Y-72989562D01*
X95074541Y-72991446D01*
X95002583Y-72992880D01*
X94909429Y-72994132D01*
X94875698Y-72994526D01*
X94546400Y-72998302D01*
X94546179Y-73108826D01*
X94537556Y-73246595D01*
X94511728Y-73367246D01*
X94467881Y-73473068D01*
X94405199Y-73566350D01*
X94368600Y-73606917D01*
X94304815Y-73666337D01*
X94242746Y-73710850D01*
X94176820Y-73742660D01*
X94101469Y-73763974D01*
X94011123Y-73776998D01*
X93924100Y-73782939D01*
X93752650Y-73790850D01*
X93746300Y-74121648D01*
X93744168Y-74223787D01*
X93741995Y-74303672D01*
X93739528Y-74364449D01*
X93736516Y-74409262D01*
X93732707Y-74441256D01*
X93727849Y-74463578D01*
X93721691Y-74479371D01*
X93717034Y-74487379D01*
X93671820Y-74535783D01*
X93616170Y-74563921D01*
X93554800Y-74571914D01*
X93492428Y-74559881D01*
X93433769Y-74527944D01*
X93385517Y-74478924D01*
X93377411Y-74466728D01*
X93371080Y-74452497D01*
X93366257Y-74433025D01*
X93362674Y-74405104D01*
X93360062Y-74365525D01*
X93358153Y-74311082D01*
X93356679Y-74238566D01*
X93355372Y-74144770D01*
X93354994Y-74113799D01*
X93351039Y-73784500D01*
X92768400Y-73784500D01*
X92768400Y-74096057D01*
X92768147Y-74201952D01*
X92767006Y-74285776D01*
X92764402Y-74350855D01*
X92759760Y-74400517D01*
X92752506Y-74438089D01*
X92742063Y-74466897D01*
X92727858Y-74490269D01*
X92709316Y-74511532D01*
X92694045Y-74526381D01*
X92643432Y-74557825D01*
X92582509Y-74571551D01*
X92519891Y-74566782D01*
X92470067Y-74546572D01*
X92444655Y-74530318D01*
X92424598Y-74514483D01*
X92409195Y-74495948D01*
X92397747Y-74471592D01*
X92389553Y-74438297D01*
X92383912Y-74392941D01*
X92380125Y-74332404D01*
X92377492Y-74253568D01*
X92375311Y-74153311D01*
X92374700Y-74121651D01*
X92368350Y-73790850D01*
X91784150Y-73790850D01*
X91777800Y-74121050D01*
X91775686Y-74222731D01*
X91773553Y-74302175D01*
X91771140Y-74362544D01*
X91768190Y-74406999D01*
X91764442Y-74438703D01*
X91759638Y-74460817D01*
X91753519Y-74476503D01*
X91747910Y-74485951D01*
X91701611Y-74534097D01*
X91644874Y-74562776D01*
X91583062Y-74572131D01*
X91521534Y-74562305D01*
X91465652Y-74533442D01*
X91420777Y-74485686D01*
X91415416Y-74477056D01*
X91405793Y-74460034D01*
X91398376Y-74443620D01*
X91392877Y-74424395D01*
X91389009Y-74398939D01*
X91386487Y-74363833D01*
X91385021Y-74315657D01*
X91384326Y-74250991D01*
X91384114Y-74166416D01*
X91384100Y-74104059D01*
X91384100Y-73784500D01*
X90799900Y-73784500D01*
X90799900Y-74092959D01*
X90799795Y-74189870D01*
X90799295Y-74264939D01*
X90798121Y-74321722D01*
X90795996Y-74363775D01*
X90792640Y-74394656D01*
X90787775Y-74417922D01*
X90781123Y-74437128D01*
X90772406Y-74455833D01*
X90771325Y-74457981D01*
X90730632Y-74514584D01*
X90677629Y-74553104D01*
X90617252Y-74571925D01*
X90554441Y-74569432D01*
X90498965Y-74547058D01*
X90474371Y-74531342D01*
X90454936Y-74515538D01*
X90439983Y-74496553D01*
X90428837Y-74471291D01*
X90420824Y-74436657D01*
X90415269Y-74389556D01*
X90411497Y-74326893D01*
X90408833Y-74245574D01*
X90406602Y-74142503D01*
X90406200Y-74121648D01*
X90399850Y-73790850D01*
X90105345Y-73787442D01*
X89810840Y-73784035D01*
X89806895Y-74117642D01*
X89805648Y-74218303D01*
X89804379Y-74296782D01*
X89802789Y-74356296D01*
X89800583Y-74400063D01*
X89797464Y-74431299D01*
X89793134Y-74453222D01*
X89787297Y-74469048D01*
X89779656Y-74481994D01*
X89772343Y-74492041D01*
X89723825Y-74537504D01*
X89663949Y-74564515D01*
X89599263Y-74571575D01*
X89536316Y-74557181D01*
X89520924Y-74549675D01*
X89484320Y-74523308D01*
X89451908Y-74490499D01*
X89451273Y-74489688D01*
X89442418Y-74477526D01*
X89435509Y-74464469D01*
X89430262Y-74447323D01*
X89426393Y-74422894D01*
X89423617Y-74387986D01*
X89421649Y-74339406D01*
X89420204Y-74273960D01*
X89418999Y-74188453D01*
X89418182Y-74118213D01*
X89414415Y-73784500D01*
X89270295Y-73784500D01*
X89153830Y-73779367D01*
X89055502Y-73762684D01*
X88969943Y-73732520D01*
X88891784Y-73686948D01*
X88815656Y-73624038D01*
X88810752Y-73619400D01*
X88740533Y-73542286D01*
X88688871Y-73460478D01*
X88654062Y-73369524D01*
X88634406Y-73264970D01*
X88628200Y-73142363D01*
X88628200Y-72997100D01*
X88309444Y-72997100D01*
X88200946Y-72996804D01*
X88114718Y-72995535D01*
X88047629Y-72992715D01*
X87996554Y-72987768D01*
X87958362Y-72980118D01*
X87929926Y-72969189D01*
X87908118Y-72954404D01*
X87889810Y-72935188D01*
X87876352Y-72917323D01*
X87851081Y-72863618D01*
X87842381Y-72802629D01*
X87850610Y-72743664D01*
X87868243Y-72706167D01*
X87887685Y-72678379D01*
X87905604Y-72656516D01*
X87925224Y-72639829D01*
X87949767Y-72627568D01*
X87982457Y-72618985D01*
X88026516Y-72613329D01*
X88085168Y-72609851D01*
X88161635Y-72607802D01*
X88259141Y-72606433D01*
X88299133Y-72605972D01*
X88628665Y-72602194D01*
X88627430Y-72495450D01*
X89612450Y-72495450D01*
X89641769Y-72558950D01*
X89689079Y-72636084D01*
X89753134Y-72704115D01*
X89827879Y-72757859D01*
X89907258Y-72792132D01*
X89917250Y-72794800D01*
X89934451Y-72795945D01*
X89975515Y-72797021D01*
X90038903Y-72798019D01*
X90123080Y-72798934D01*
X90226506Y-72799759D01*
X90347645Y-72800486D01*
X90484959Y-72801110D01*
X90636910Y-72801623D01*
X90801962Y-72802018D01*
X90978577Y-72802290D01*
X91165216Y-72802430D01*
X91360344Y-72802433D01*
X91562422Y-72802291D01*
X91606350Y-72802242D01*
X93257350Y-72800250D01*
X93334650Y-72759839D01*
X93418559Y-72704108D01*
X93484712Y-72632531D01*
X93520797Y-72574471D01*
X93549450Y-72520850D01*
X93549450Y-69142650D01*
X93520324Y-69088102D01*
X93459434Y-68999697D01*
X93381329Y-68928412D01*
X93337405Y-68900563D01*
X93270050Y-68863250D01*
X91612854Y-68859842D01*
X91368374Y-68859313D01*
X91147971Y-68858822D01*
X90950318Y-68858429D01*
X90774094Y-68858194D01*
X90617973Y-68858177D01*
X90480632Y-68858439D01*
X90360747Y-68859040D01*
X90256993Y-68860039D01*
X90168046Y-68861497D01*
X90092583Y-68863474D01*
X90029279Y-68866031D01*
X89976810Y-68869226D01*
X89933852Y-68873121D01*
X89899081Y-68877776D01*
X89871173Y-68883250D01*
X89848804Y-68889604D01*
X89830650Y-68896898D01*
X89815386Y-68905191D01*
X89801689Y-68914545D01*
X89788235Y-68925020D01*
X89773699Y-68936674D01*
X89764546Y-68943774D01*
X89703082Y-69004694D01*
X89657900Y-69072800D01*
X89612450Y-69155350D01*
X89612450Y-72495450D01*
X88627430Y-72495450D01*
X88625257Y-72307522D01*
X88621850Y-72012850D01*
X88291051Y-72006500D01*
X88188912Y-72004368D01*
X88109027Y-72002195D01*
X88048250Y-71999728D01*
X88003437Y-71996716D01*
X87971443Y-71992907D01*
X87949121Y-71988049D01*
X87933328Y-71981891D01*
X87925320Y-71977234D01*
X87878473Y-71932752D01*
X87850437Y-71876907D01*
X87841210Y-71815409D01*
X87850792Y-71753965D01*
X87879185Y-71698283D01*
X87925320Y-71654765D01*
X87938617Y-71647659D01*
X87956462Y-71642012D01*
X87982000Y-71637572D01*
X88018377Y-71634088D01*
X88068737Y-71631307D01*
X88136226Y-71628978D01*
X88223988Y-71626850D01*
X88291051Y-71625500D01*
X88621850Y-71619150D01*
X88628668Y-71028600D01*
X88309488Y-71028600D01*
X88210642Y-71028491D01*
X88133803Y-71028000D01*
X88075579Y-71026878D01*
X88032578Y-71024876D01*
X88001407Y-71021746D01*
X87978675Y-71017239D01*
X87960989Y-71011106D01*
X87944956Y-71003099D01*
X87942451Y-71001702D01*
X87891648Y-70960487D01*
X87858810Y-70907546D01*
X87843864Y-70848093D01*
X87846739Y-70787341D01*
X87867362Y-70730504D01*
X87905662Y-70682795D01*
X87947244Y-70655515D01*
X87964830Y-70648886D01*
X87988314Y-70643802D01*
X88020975Y-70640073D01*
X88066092Y-70637508D01*
X88126944Y-70635918D01*
X88206812Y-70635112D01*
X88302852Y-70634900D01*
X88615016Y-70634900D01*
X88622026Y-70606325D01*
X88623966Y-70585375D01*
X88625353Y-70543288D01*
X88626139Y-70484322D01*
X88626275Y-70412735D01*
X88625712Y-70332783D01*
X88625443Y-70311050D01*
X88621850Y-70044350D01*
X88291650Y-70038000D01*
X88191218Y-70035978D01*
X88112946Y-70034040D01*
X88053593Y-70031884D01*
X88009923Y-70029204D01*
X87978697Y-70025699D01*
X87956675Y-70021063D01*
X87940621Y-70014994D01*
X87927295Y-70007188D01*
X87921740Y-70003325D01*
X87877310Y-69957779D01*
X87850060Y-69900607D01*
X87841355Y-69838523D01*
X87852560Y-69778237D01*
X87869375Y-69745770D01*
X87888435Y-69718355D01*
X87906126Y-69696785D01*
X87925663Y-69680320D01*
X87950260Y-69668221D01*
X87983131Y-69659747D01*
X88027490Y-69654159D01*
X88086552Y-69650715D01*
X88163531Y-69648677D01*
X88261641Y-69647303D01*
X88298901Y-69646873D01*
X88628200Y-69643097D01*
X88628200Y-69155350D01*
G37*
D15*
%TO.C,SW5*%
X176200000Y-76450000D02*
X162000000Y-76450000D01*
X162000000Y-76450000D02*
X162000000Y-90650000D01*
X162000000Y-90650000D02*
X176200000Y-90650000D01*
X176200000Y-90650000D02*
X176200000Y-76450000D01*
D16*
X176700000Y-75950000D02*
X161500000Y-75950000D01*
X161500000Y-75950000D02*
X161500000Y-91150000D01*
X161500000Y-91150000D02*
X176700000Y-91150000D01*
X176700000Y-91150000D02*
X176700000Y-75950000D01*
D15*
%TO.C,SW1*%
X91700000Y-76450000D02*
X77500000Y-76450000D01*
X77500000Y-76450000D02*
X77500000Y-90650000D01*
X77500000Y-90650000D02*
X91700000Y-90650000D01*
X91700000Y-90650000D02*
X91700000Y-76450000D01*
D16*
X92200000Y-75950000D02*
X77000000Y-75950000D01*
X77000000Y-75950000D02*
X77000000Y-91150000D01*
X77000000Y-91150000D02*
X92200000Y-91150000D01*
X92200000Y-91150000D02*
X92200000Y-75950000D01*
D15*
%TO.C,SW13*%
X321800000Y-126100000D02*
X325900000Y-126100000D01*
X321800000Y-126100000D02*
X321800000Y-126000000D01*
X325900000Y-126100000D02*
X325900000Y-126000000D01*
X324150000Y-125350000D02*
X323600000Y-125350000D01*
X321800000Y-125100000D02*
X321800000Y-123800000D01*
X325900000Y-125100000D02*
X325900000Y-123800000D01*
X323600000Y-123550000D02*
X324150000Y-123550000D01*
X321800000Y-122900000D02*
X321800000Y-122800000D01*
X325900000Y-122900000D02*
X325900000Y-122800000D01*
X321800000Y-122800000D02*
X325900000Y-122800000D01*
X323600000Y-123550000D02*
G75*
G03*
X323600000Y-125350000I0J-900000D01*
G01*
X324150000Y-125350000D02*
G75*
G03*
X324150000Y-123550000I0J900000D01*
G01*
%TO.C,SW10*%
X287260000Y-76450000D02*
X273060000Y-76450000D01*
X273060000Y-76450000D02*
X273060000Y-90650000D01*
X273060000Y-90650000D02*
X287260000Y-90650000D01*
X287260000Y-90650000D02*
X287260000Y-76450000D01*
D16*
X287760000Y-75950000D02*
X272560000Y-75950000D01*
X272560000Y-75950000D02*
X272560000Y-91150000D01*
X272560000Y-91150000D02*
X287760000Y-91150000D01*
X287760000Y-91150000D02*
X287760000Y-75950000D01*
D15*
%TO.C,SW8*%
X244200000Y-76450000D02*
X230000000Y-76450000D01*
X230000000Y-76450000D02*
X230000000Y-90650000D01*
X230000000Y-90650000D02*
X244200000Y-90650000D01*
X244200000Y-90650000D02*
X244200000Y-76450000D01*
D16*
X244700000Y-75950000D02*
X229500000Y-75950000D01*
X229500000Y-75950000D02*
X229500000Y-91150000D01*
X229500000Y-91150000D02*
X244700000Y-91150000D01*
X244700000Y-91150000D02*
X244700000Y-75950000D01*
D15*
%TO.C,SW14*%
X329800000Y-126100000D02*
X333900000Y-126100000D01*
X329800000Y-126100000D02*
X329800000Y-126000000D01*
X333900000Y-126100000D02*
X333900000Y-126000000D01*
X332150000Y-125350000D02*
X331600000Y-125350000D01*
X329800000Y-125100000D02*
X329800000Y-123800000D01*
X333900000Y-125100000D02*
X333900000Y-123800000D01*
X331600000Y-123550000D02*
X332150000Y-123550000D01*
X329800000Y-122900000D02*
X329800000Y-122800000D01*
X333900000Y-122900000D02*
X333900000Y-122800000D01*
X329800000Y-122800000D02*
X333900000Y-122800000D01*
X331600000Y-123550000D02*
G75*
G03*
X331600000Y-125350000I0J-900000D01*
G01*
X332150000Y-125350000D02*
G75*
G03*
X332150000Y-123550000I0J900000D01*
G01*
%TO.C,SW11*%
X305260000Y-76450000D02*
X291060000Y-76450000D01*
X291060000Y-76450000D02*
X291060000Y-90650000D01*
X291060000Y-90650000D02*
X305260000Y-90650000D01*
X305260000Y-90650000D02*
X305260000Y-76450000D01*
D16*
X305760000Y-75950000D02*
X290560000Y-75950000D01*
X290560000Y-75950000D02*
X290560000Y-91150000D01*
X290560000Y-91150000D02*
X305760000Y-91150000D01*
X305760000Y-91150000D02*
X305760000Y-75950000D01*
D15*
%TO.C,SW6*%
X201200000Y-76450000D02*
X187000000Y-76450000D01*
X187000000Y-76450000D02*
X187000000Y-90650000D01*
X187000000Y-90650000D02*
X201200000Y-90650000D01*
X201200000Y-90650000D02*
X201200000Y-76450000D01*
D16*
X201700000Y-75950000D02*
X186500000Y-75950000D01*
X186500000Y-75950000D02*
X186500000Y-91150000D01*
X186500000Y-91150000D02*
X201700000Y-91150000D01*
X201700000Y-91150000D02*
X201700000Y-75950000D01*
D15*
%TO.C,SW12*%
X313650000Y-126100000D02*
X317750000Y-126100000D01*
X313650000Y-126100000D02*
X313650000Y-126000000D01*
X317750000Y-126100000D02*
X317750000Y-126000000D01*
X316000000Y-125350000D02*
X315450000Y-125350000D01*
X313650000Y-125100000D02*
X313650000Y-123800000D01*
X317750000Y-125100000D02*
X317750000Y-123800000D01*
X315450000Y-123550000D02*
X316000000Y-123550000D01*
X313650000Y-122900000D02*
X313650000Y-122800000D01*
X317750000Y-122900000D02*
X317750000Y-122800000D01*
X313650000Y-122800000D02*
X317750000Y-122800000D01*
X315450000Y-123550000D02*
G75*
G03*
X315450000Y-125350000I0J-900000D01*
G01*
X316000000Y-125350000D02*
G75*
G03*
X316000000Y-123550000I0J900000D01*
G01*
%TO.C,D12*%
X253535000Y-68514000D02*
X253535000Y-68670000D01*
X253535000Y-70830000D02*
X253535000Y-70986000D01*
X256767334Y-68671392D02*
G75*
G03*
X253535001Y-68514485I-1672334J-1078608D01*
G01*
X256136129Y-68670164D02*
G75*
G03*
X254054040Y-68670001I-1041129J-1079836D01*
G01*
X254054040Y-70829999D02*
G75*
G03*
X256136129Y-70829836I1040960J1079999D01*
G01*
X253535001Y-70985515D02*
G75*
G03*
X256767334Y-70828608I1559999J1235515D01*
G01*
%TO.C,SW4*%
X158200000Y-76450000D02*
X144000000Y-76450000D01*
X144000000Y-76450000D02*
X144000000Y-90650000D01*
X144000000Y-90650000D02*
X158200000Y-90650000D01*
X158200000Y-90650000D02*
X158200000Y-76450000D01*
D16*
X158700000Y-75950000D02*
X143500000Y-75950000D01*
X143500000Y-75950000D02*
X143500000Y-91150000D01*
X143500000Y-91150000D02*
X158700000Y-91150000D01*
X158700000Y-91150000D02*
X158700000Y-75950000D01*
D15*
%TO.C,SW15*%
X337850000Y-126100000D02*
X341950000Y-126100000D01*
X337850000Y-126100000D02*
X337850000Y-126000000D01*
X341950000Y-126100000D02*
X341950000Y-126000000D01*
X340200000Y-125350000D02*
X339650000Y-125350000D01*
X337850000Y-125100000D02*
X337850000Y-123800000D01*
X341950000Y-125100000D02*
X341950000Y-123800000D01*
X339650000Y-123550000D02*
X340200000Y-123550000D01*
X337850000Y-122900000D02*
X337850000Y-122800000D01*
X341950000Y-122900000D02*
X341950000Y-122800000D01*
X337850000Y-122800000D02*
X341950000Y-122800000D01*
X339650000Y-123550000D02*
G75*
G03*
X339650000Y-125350000I0J-900000D01*
G01*
X340200000Y-125350000D02*
G75*
G03*
X340200000Y-123550000I0J900000D01*
G01*
%TO.C,D10*%
X296585000Y-68514000D02*
X296585000Y-68670000D01*
X296585000Y-70830000D02*
X296585000Y-70986000D01*
X299817334Y-68671392D02*
G75*
G03*
X296585001Y-68514485I-1672334J-1078608D01*
G01*
X299186129Y-68670164D02*
G75*
G03*
X297104040Y-68670001I-1041129J-1079836D01*
G01*
X297104040Y-70829999D02*
G75*
G03*
X299186129Y-70829836I1040960J1079999D01*
G01*
X296585001Y-70985515D02*
G75*
G03*
X299817334Y-70828608I1559999J1235515D01*
G01*
%TO.C,D14*%
X210535000Y-68514000D02*
X210535000Y-68670000D01*
X210535000Y-70830000D02*
X210535000Y-70986000D01*
X213767334Y-68671392D02*
G75*
G03*
X210535001Y-68514485I-1672334J-1078608D01*
G01*
X213136129Y-68670164D02*
G75*
G03*
X211054040Y-68670001I-1041129J-1079836D01*
G01*
X211054040Y-70829999D02*
G75*
G03*
X213136129Y-70829836I1040960J1079999D01*
G01*
X210535001Y-70985515D02*
G75*
G03*
X213767334Y-70828608I1559999J1235515D01*
G01*
%TO.C,SW9*%
X262200000Y-76450000D02*
X248000000Y-76450000D01*
X248000000Y-76450000D02*
X248000000Y-90650000D01*
X248000000Y-90650000D02*
X262200000Y-90650000D01*
X262200000Y-90650000D02*
X262200000Y-76450000D01*
D16*
X262700000Y-75950000D02*
X247500000Y-75950000D01*
X247500000Y-75950000D02*
X247500000Y-91150000D01*
X247500000Y-91150000D02*
X262700000Y-91150000D01*
X262700000Y-91150000D02*
X262700000Y-75950000D01*
%TD*%
M02*
