%TF.GenerationSoftware,KiCad,Pcbnew,7.0.1*%
%TF.CreationDate,2024-04-02T15:57:58+09:00*%
%TF.ProjectId,Lift_Switch_V5.0,4c696674-5f53-4776-9974-63685f56352e,rev?*%
%TF.SameCoordinates,Original*%
%TF.FileFunction,Profile,NP*%
%FSLAX46Y46*%
G04 Gerber Fmt 4.6, Leading zero omitted, Abs format (unit mm)*
G04 Created by KiCad (PCBNEW 7.0.1) date 2024-04-02 15:57:58*
%MOMM*%
%LPD*%
G01*
G04 APERTURE LIST*
%TA.AperFunction,Profile*%
%ADD10C,0.050000*%
%TD*%
%ADD11C,0.750000*%
G04 APERTURE END LIST*
D10*
X145110000Y-127340000D02*
X110100000Y-127340000D01*
X305159999Y-108429998D02*
G75*
G03*
X304830001Y-108100001I-99999J229998D01*
G01*
X284610000Y-96840000D02*
X284610000Y-96250000D01*
X144610000Y-96840000D02*
G75*
G03*
X145110000Y-97340000I500000J0D01*
G01*
X230430000Y-108100000D02*
X243770001Y-108100001D01*
X154610000Y-127840000D02*
G75*
G03*
X154110000Y-127340000I-500000J0D01*
G01*
X91270000Y-122099999D02*
G75*
G03*
X91600000Y-121770001I230000J99999D01*
G01*
X291160001Y-121770002D02*
G75*
G03*
X291489999Y-122099999I99999J-229998D01*
G01*
X205430000Y-108100000D02*
X218770001Y-108100001D01*
X219590000Y-127840000D02*
G75*
G03*
X219090000Y-127340000I-500000J0D01*
G01*
X351530000Y-127840000D02*
G75*
G03*
X351030000Y-127340000I-500000J0D01*
G01*
X91600000Y-108429998D02*
G75*
G03*
X91270002Y-108100000I-100000J229998D01*
G01*
X261770000Y-122100000D02*
X248429999Y-122099999D01*
X78100000Y-95750000D02*
G75*
G03*
X77600000Y-96250000I0J-500000D01*
G01*
X273490000Y-108100000D02*
X286830001Y-108100001D01*
X114770001Y-122099999D02*
X101430000Y-122100000D01*
X261770002Y-122099999D02*
G75*
G03*
X262099999Y-121770001I229998J99999D01*
G01*
X77600000Y-96250000D02*
X77600000Y-96840000D01*
X132770000Y-122099999D02*
G75*
G03*
X133100000Y-121770001I230000J99999D01*
G01*
X275110000Y-127340000D02*
G75*
G03*
X274610000Y-127840000I0J-500000D01*
G01*
X158099999Y-108429999D02*
X158099999Y-121770001D01*
X219090000Y-128940000D02*
X210090000Y-128940000D01*
X154610000Y-96840000D02*
X154610000Y-96250000D01*
X97500000Y-123440000D02*
G75*
G03*
X97500000Y-123440000I-1100000J0D01*
G01*
X230429998Y-108100001D02*
G75*
G03*
X230100001Y-108429999I-229998J-99999D01*
G01*
X162430000Y-108100000D02*
X175770001Y-108100001D01*
X78100000Y-128940000D02*
X87100000Y-128940000D01*
X119430000Y-108100001D02*
G75*
G03*
X119100000Y-108429999I-230000J-99999D01*
G01*
X87100000Y-97340000D02*
X145110000Y-97340000D01*
X342030000Y-95750000D02*
G75*
G03*
X341530000Y-96250000I0J-500000D01*
G01*
X87600000Y-96840000D02*
X87600000Y-96250000D01*
X205100001Y-121770002D02*
G75*
G03*
X205429999Y-122099999I99999J-229998D01*
G01*
X76600001Y-95749999D02*
X92000000Y-95750000D01*
X351530000Y-128440000D02*
X351530000Y-127840000D01*
X144429999Y-108100001D02*
X157770000Y-108100000D01*
X284110000Y-97340000D02*
X342030000Y-97340000D01*
X248430000Y-108100000D02*
X261770001Y-108100001D01*
X256600000Y-101250000D02*
G75*
G03*
X256600000Y-101250000I-1500000J0D01*
G01*
X341530000Y-96840000D02*
G75*
G03*
X342030000Y-97340000I500000J0D01*
G01*
X310100000Y-83612000D02*
X310100000Y-93750000D01*
X154110000Y-97340000D02*
G75*
G03*
X154610000Y-96840000I0J500000D01*
G01*
X308099999Y-93749999D02*
X308099999Y-67849999D01*
X157770002Y-122099999D02*
G75*
G03*
X158099999Y-121770001I229998J99999D01*
G01*
X201100000Y-108430000D02*
X201099999Y-121770001D01*
X310100000Y-93750000D02*
G75*
G03*
X312100000Y-95750000I2000000J0D01*
G01*
X275110000Y-95750000D02*
G75*
G03*
X274610000Y-96250000I0J-500000D01*
G01*
X219590000Y-96840000D02*
X219590000Y-96250000D01*
X244100000Y-108430000D02*
X244099999Y-121770001D01*
X284110000Y-128940000D02*
G75*
G03*
X284610000Y-128440000I0J500000D01*
G01*
X74600000Y-127340005D02*
X78100000Y-127340000D01*
X101100001Y-121770000D02*
G75*
G03*
X101429999Y-122100000I99999J-230000D01*
G01*
X115099999Y-108429999D02*
X115100000Y-121770000D01*
X219590000Y-127840000D02*
X219590000Y-128440000D01*
X76600001Y-65850001D02*
G75*
G03*
X74600001Y-67849999I-1J-1999999D01*
G01*
X219100000Y-108430000D02*
X219099999Y-121770001D01*
X342030000Y-127340000D02*
G75*
G03*
X341530000Y-127840000I0J-500000D01*
G01*
X284610000Y-128440000D02*
X284610000Y-127840000D01*
X162100000Y-121770000D02*
X162100001Y-108429999D01*
X274610000Y-128440000D02*
G75*
G03*
X275110000Y-128940000I500000J0D01*
G01*
X275110000Y-97340000D02*
X219090000Y-97340000D01*
X200770002Y-122099999D02*
G75*
G03*
X201099999Y-121770001I229998J99999D01*
G01*
X154110000Y-127340000D02*
X210090000Y-127340000D01*
X77600000Y-128440000D02*
G75*
G03*
X78100000Y-128940000I500000J0D01*
G01*
X101429999Y-108100001D02*
X114770000Y-108100000D01*
X87100000Y-97340000D02*
G75*
G03*
X87600000Y-96840000I0J500000D01*
G01*
X273489998Y-108100001D02*
G75*
G03*
X273160001Y-108429999I-229998J-99999D01*
G01*
X243770000Y-122100000D02*
X230430000Y-122100000D01*
X291160000Y-121770000D02*
X291160001Y-108429999D01*
X72600000Y-125440005D02*
X72600000Y-99340005D01*
X273160001Y-121770002D02*
G75*
G03*
X273489999Y-122099999I99999J-229998D01*
G01*
X72599995Y-125340005D02*
G75*
G03*
X74600000Y-127340005I2000005J5D01*
G01*
X74600001Y-93749999D02*
G75*
G03*
X76600001Y-95749999I1999999J-1D01*
G01*
X103600000Y-127340000D02*
X103600000Y-125830000D01*
X273160000Y-121770000D02*
X273160001Y-108429999D01*
X144610000Y-96250000D02*
X144610000Y-96840000D01*
X286830000Y-122100000D02*
X273489999Y-122099999D01*
X100300000Y-95250000D02*
G75*
G03*
X100800000Y-95750000I500000J0D01*
G01*
X341530000Y-128440000D02*
G75*
G03*
X342030000Y-128940000I500000J0D01*
G01*
X341530000Y-96250000D02*
X341530000Y-96840000D01*
X93000000Y-89220000D02*
X99800000Y-89220000D01*
X219099999Y-108429998D02*
G75*
G03*
X218770001Y-108100001I-99999J229998D01*
G01*
X308100001Y-67849999D02*
G75*
G03*
X306099999Y-65849999I-2000001J-1D01*
G01*
X187100001Y-121770002D02*
G75*
G03*
X187429999Y-122099999I99999J-229998D01*
G01*
X103600000Y-127340000D02*
X87100000Y-127340000D01*
X91600000Y-108429999D02*
X91600000Y-121770000D01*
X312100000Y-65850000D02*
G75*
G03*
X310100000Y-67849999I0J-2000000D01*
G01*
X312100000Y-95750000D02*
X354600000Y-95750000D01*
X162429998Y-108100001D02*
G75*
G03*
X162100001Y-108429999I-229998J-99999D01*
G01*
X210090000Y-97340000D02*
X154110000Y-97340000D01*
X356600000Y-99340005D02*
X356600000Y-125340005D01*
X187429998Y-108100001D02*
G75*
G03*
X187100001Y-108429999I-229998J-99999D01*
G01*
X219090000Y-97340000D02*
G75*
G03*
X219590000Y-96840000I0J500000D01*
G01*
X92000000Y-95750000D02*
G75*
G03*
X92500000Y-95250000I0J500000D01*
G01*
X162100001Y-121770002D02*
G75*
G03*
X162429999Y-122099999I99999J-229998D01*
G01*
X210090000Y-127340000D02*
G75*
G03*
X209590000Y-127840000I0J-500000D01*
G01*
X351530000Y-96840000D02*
X351530000Y-96250000D01*
X284110000Y-127340000D02*
X342030000Y-127340000D01*
X119100001Y-121770001D02*
X119100000Y-108430000D01*
X77600000Y-121770002D02*
G75*
G03*
X77929998Y-122100000I100000J-229998D01*
G01*
X213600000Y-101250000D02*
G75*
G03*
X213600000Y-101250000I-1500000J0D01*
G01*
X284610000Y-96250000D02*
G75*
G03*
X284110000Y-95750000I-500000J0D01*
G01*
X312100000Y-65849999D02*
X354600000Y-65849999D01*
X351530000Y-96250000D02*
G75*
G03*
X351030000Y-95750000I-500000J0D01*
G01*
X145110000Y-127340000D02*
G75*
G03*
X144610000Y-127840000I0J-500000D01*
G01*
X74600001Y-67849999D02*
X74600001Y-93749999D01*
X154610000Y-96250000D02*
G75*
G03*
X154110000Y-95750000I-500000J0D01*
G01*
X284610000Y-127840000D02*
G75*
G03*
X284110000Y-127340000I-500000J0D01*
G01*
X310100000Y-78088000D02*
X310100000Y-67849999D01*
X201099999Y-108429998D02*
G75*
G03*
X200770001Y-108100001I-99999J229998D01*
G01*
X356600001Y-67849999D02*
G75*
G03*
X354600000Y-65849999I-2000001J-1D01*
G01*
X209590000Y-96840000D02*
G75*
G03*
X210090000Y-97340000I500000J0D01*
G01*
X93000000Y-89220000D02*
G75*
G03*
X92500000Y-89720000I0J-500000D01*
G01*
X76600001Y-65849999D02*
X306099999Y-65849999D01*
X158099999Y-108430000D02*
G75*
G03*
X157770001Y-108100000I-99999J230000D01*
G01*
X176100000Y-108430000D02*
X176099999Y-121770001D01*
X205100000Y-121770000D02*
X205100001Y-108429999D01*
X200770000Y-122100000D02*
X187429999Y-122099999D01*
X304830000Y-122100000D02*
X291489999Y-122099999D01*
X306099999Y-95749999D02*
X100800000Y-95750000D01*
X262099999Y-108429998D02*
G75*
G03*
X261770001Y-108100001I-99999J229998D01*
G01*
X244099999Y-108429998D02*
G75*
G03*
X243770001Y-108100001I-99999J229998D01*
G01*
X175770002Y-122099999D02*
G75*
G03*
X176099999Y-121770001I229998J99999D01*
G01*
X187430000Y-108100000D02*
X200770001Y-108100001D01*
X351030000Y-95750000D02*
X342030000Y-95750000D01*
X144100001Y-121770000D02*
G75*
G03*
X144429999Y-122100000I99999J-230000D01*
G01*
X144430000Y-108100001D02*
G75*
G03*
X144100000Y-108429999I-230000J-99999D01*
G01*
X145110000Y-95750000D02*
G75*
G03*
X144610000Y-96250000I0J-500000D01*
G01*
X354600000Y-95750000D02*
G75*
G03*
X356600000Y-93750000I0J2000000D01*
G01*
X286830002Y-122099999D02*
G75*
G03*
X287159999Y-121770001I229998J99999D01*
G01*
X119100001Y-121770000D02*
G75*
G03*
X119429999Y-122100000I99999J-230000D01*
G01*
X218770000Y-122100000D02*
X205429999Y-122099999D01*
X74600000Y-97340005D02*
X78100000Y-97340000D01*
X209590000Y-128440000D02*
G75*
G03*
X210090000Y-128940000I500000J0D01*
G01*
X354600000Y-127340000D02*
G75*
G03*
X356600000Y-125340005I0J2000000D01*
G01*
X176099999Y-108429998D02*
G75*
G03*
X175770001Y-108100001I-99999J229998D01*
G01*
X114770000Y-122099999D02*
G75*
G03*
X115100000Y-121770001I230000J99999D01*
G01*
X248100000Y-121770000D02*
X248100001Y-108429999D01*
X195600000Y-101250000D02*
G75*
G03*
X195600000Y-101250000I-1500000J0D01*
G01*
X354600000Y-97340005D02*
X351030000Y-97340000D01*
X115099999Y-108430000D02*
G75*
G03*
X114770001Y-108100000I-99999J230000D01*
G01*
X209590000Y-96250000D02*
X209590000Y-96840000D01*
X92500000Y-89720000D02*
X92500000Y-95250000D01*
X230100001Y-121770001D02*
X230100001Y-108429999D01*
X306099999Y-95749999D02*
G75*
G03*
X308099999Y-93749999I1J1999999D01*
G01*
X87600000Y-128440000D02*
X87600000Y-127840000D01*
X238600000Y-101250000D02*
G75*
G03*
X238600000Y-101250000I-1500000J0D01*
G01*
X356599995Y-99340005D02*
G75*
G03*
X354600000Y-97340005I-1999995J5D01*
G01*
X144100001Y-121770001D02*
X144100000Y-108430000D01*
X87600000Y-127840000D02*
G75*
G03*
X87100000Y-127340000I-500000J0D01*
G01*
X287159999Y-108429998D02*
G75*
G03*
X286830001Y-108100001I-99999J229998D01*
G01*
X87100000Y-128940000D02*
G75*
G03*
X87600000Y-128440000I0J500000D01*
G01*
X243770002Y-122099999D02*
G75*
G03*
X244099999Y-121770001I229998J99999D01*
G01*
X218770002Y-122099999D02*
G75*
G03*
X219099999Y-121770001I229998J99999D01*
G01*
X74600000Y-97340000D02*
G75*
G03*
X72600000Y-99340005I0J-2000000D01*
G01*
X219090000Y-128940000D02*
G75*
G03*
X219590000Y-128440000I0J500000D01*
G01*
X210090000Y-95750000D02*
G75*
G03*
X209590000Y-96250000I0J-500000D01*
G01*
X133099999Y-108429999D02*
X133100000Y-121770000D01*
X356600000Y-93750000D02*
X356600000Y-67849999D01*
X248100001Y-121770002D02*
G75*
G03*
X248429999Y-122099999I99999J-229998D01*
G01*
X291489998Y-108100001D02*
G75*
G03*
X291160001Y-108429999I-229998J-99999D01*
G01*
X110100000Y-127340000D02*
X110100000Y-125830000D01*
X351030000Y-128940000D02*
G75*
G03*
X351530000Y-128440000I0J500000D01*
G01*
X101100001Y-121770001D02*
X101100000Y-108430000D01*
X291490000Y-108100000D02*
X304830001Y-108100001D01*
X299650000Y-101250000D02*
G75*
G03*
X299650000Y-101250000I-1500000J0D01*
G01*
X284110000Y-97340000D02*
G75*
G03*
X284610000Y-96840000I0J500000D01*
G01*
X154110000Y-128940000D02*
G75*
G03*
X154610000Y-128440000I0J500000D01*
G01*
X154610000Y-128440000D02*
X154610000Y-127840000D01*
X132770001Y-122099999D02*
X119430000Y-122100000D01*
X77600000Y-96840000D02*
G75*
G03*
X78100000Y-97340000I500000J0D01*
G01*
X342030000Y-128940000D02*
X351030000Y-128940000D01*
X101430000Y-108100001D02*
G75*
G03*
X101100000Y-108429999I-230000J-99999D01*
G01*
X187100000Y-121770000D02*
X187100001Y-108429999D01*
X281650000Y-101250000D02*
G75*
G03*
X281650000Y-101250000I-1500000J0D01*
G01*
X341530000Y-127840000D02*
X341530000Y-128440000D01*
X230100001Y-121770000D02*
G75*
G03*
X230429999Y-122100000I99999J-230000D01*
G01*
X314050000Y-102000000D02*
X314850000Y-102000000D01*
X314850000Y-115000000D01*
X314050000Y-115000000D01*
X314050000Y-102000000D01*
X175770000Y-122100000D02*
X162429999Y-122099999D01*
X78100000Y-127340000D02*
G75*
G03*
X77600000Y-127840000I0J-500000D01*
G01*
X262100000Y-108430000D02*
X262099999Y-121770001D01*
X274610000Y-127840000D02*
X274610000Y-128440000D01*
X274610000Y-96840000D02*
G75*
G03*
X275110000Y-97340000I500000J0D01*
G01*
X275110000Y-128940000D02*
X284110000Y-128940000D01*
X100300000Y-89720000D02*
G75*
G03*
X99800000Y-89220000I-500000J0D01*
G01*
X304830002Y-122099999D02*
G75*
G03*
X305159999Y-121770001I229998J99999D01*
G01*
X152600000Y-101250000D02*
G75*
G03*
X152600000Y-101250000I-1500000J0D01*
G01*
X351030000Y-127340000D02*
X354600000Y-127340005D01*
X287160000Y-108430000D02*
X287159999Y-121770001D01*
X91270001Y-122099999D02*
X77929999Y-122100000D01*
X219590000Y-96250000D02*
G75*
G03*
X219090000Y-95750000I-500000J0D01*
G01*
X305160000Y-108430000D02*
X305159999Y-121770001D01*
X351030000Y-97340000D02*
G75*
G03*
X351530000Y-96840000I0J500000D01*
G01*
X77600000Y-127840000D02*
X77600000Y-128440000D01*
X133099999Y-108430000D02*
G75*
G03*
X132770001Y-108100000I-99999J230000D01*
G01*
X100300000Y-89720000D02*
X100300000Y-95250000D01*
X209590000Y-128440000D02*
X209590000Y-127840000D01*
X77929998Y-108100000D02*
G75*
G03*
X77600000Y-108429998I-229998J-100000D01*
G01*
X110100000Y-125830000D02*
X103600000Y-125830000D01*
X248429998Y-108100001D02*
G75*
G03*
X248100001Y-108429999I-229998J-99999D01*
G01*
X77930000Y-108100000D02*
X91270001Y-108100000D01*
X157770000Y-122100000D02*
X144430000Y-122100000D01*
X144610000Y-128440000D02*
G75*
G03*
X145110000Y-128940000I500000J0D01*
G01*
X144610000Y-127840000D02*
X144610000Y-128440000D01*
X119429999Y-108100001D02*
X132770000Y-108100000D01*
X145110000Y-128940000D02*
X154110000Y-128940000D01*
X87600000Y-96250000D02*
G75*
G03*
X87100000Y-95750000I-500000J0D01*
G01*
X170600000Y-101250000D02*
G75*
G03*
X170600000Y-101250000I-1500000J0D01*
G01*
X274610000Y-96250000D02*
X274610000Y-96840000D01*
X219090000Y-127340000D02*
X275110000Y-127340000D01*
X77929998Y-108100000D02*
G75*
G03*
X77600000Y-108429998I-229998J-100000D01*
G01*
X77600000Y-121770001D02*
X77600000Y-108429999D01*
X205429998Y-108100001D02*
G75*
G03*
X205100001Y-108429999I-229998J-99999D01*
G01*
D11*
X376946190Y-126263095D02*
X378612857Y-131263095D01*
X378612857Y-131263095D02*
X380279523Y-126263095D01*
X381946190Y-129358333D02*
X385755714Y-129358333D01*
X390993809Y-130786904D02*
X390755713Y-131025000D01*
X390755713Y-131025000D02*
X390041428Y-131263095D01*
X390041428Y-131263095D02*
X389565237Y-131263095D01*
X389565237Y-131263095D02*
X388850951Y-131025000D01*
X388850951Y-131025000D02*
X388374761Y-130548809D01*
X388374761Y-130548809D02*
X388136666Y-130072619D01*
X388136666Y-130072619D02*
X387898570Y-129120238D01*
X387898570Y-129120238D02*
X387898570Y-128405952D01*
X387898570Y-128405952D02*
X388136666Y-127453571D01*
X388136666Y-127453571D02*
X388374761Y-126977380D01*
X388374761Y-126977380D02*
X388850951Y-126501190D01*
X388850951Y-126501190D02*
X389565237Y-126263095D01*
X389565237Y-126263095D02*
X390041428Y-126263095D01*
X390041428Y-126263095D02*
X390755713Y-126501190D01*
X390755713Y-126501190D02*
X390993809Y-126739285D01*
X393136666Y-126263095D02*
X393136666Y-130310714D01*
X393136666Y-130310714D02*
X393374761Y-130786904D01*
X393374761Y-130786904D02*
X393612856Y-131025000D01*
X393612856Y-131025000D02*
X394089047Y-131263095D01*
X394089047Y-131263095D02*
X395041428Y-131263095D01*
X395041428Y-131263095D02*
X395517618Y-131025000D01*
X395517618Y-131025000D02*
X395755713Y-130786904D01*
X395755713Y-130786904D02*
X395993809Y-130310714D01*
X395993809Y-130310714D02*
X395993809Y-126263095D01*
X397660475Y-126263095D02*
X400517618Y-126263095D01*
X399089046Y-131263095D02*
X399089046Y-126263095D01*
D10*
%TO.C,mouse-bite-2mm-slot*%
X308100000Y-78088000D02*
G75*
G03*
X310100000Y-78088000I1000000J0D01*
G01*
X310100000Y-83612000D02*
G75*
G03*
X308100000Y-83612000I-1000000J0D01*
G01*
%TD*%
M02*
