M48
; DRILL file {KiCad 7.0.1} date Tue Apr  2 15:57:51 2024
; FORMAT={-:-/ absolute / inch / decimal}
; #@! TF.CreationDate,2024-04-02T15:57:51+09:00
; #@! TF.GenerationSoftware,Kicad,Pcbnew,7.0.1
; #@! TF.FileFunction,Plated,1,2,PTH
FMAT,2
INCH
; #@! TA.AperFunction,Plated,PTH,ViaDrill
T1C0.0157
; #@! TA.AperFunction,Plated,PTH,ComponentDrill
T2C0.0315
; #@! TA.AperFunction,Plated,PTH,ComponentDrill
T3C0.0354
%
G90
G05
T1
X4.0197Y-3.4075
X4.0976Y-3.4783
X4.0976Y-3.5516
X4.3555Y-3.5516
X4.435Y-3.1752
X4.435Y-3.2776
X4.435Y-3.3799
X4.435Y-3.4823
X4.6378Y-3.4823
X4.6378Y-3.5925
X4.6398Y-3.1752
X4.6969Y-3.3799
X4.6969Y-3.624
X4.7303Y-3.5079
X4.752Y-3.2756
X4.752Y-3.6437
X4.7579Y-3.0561
X4.7726Y-2.6703
X4.7726Y-2.9085
X4.7972Y-3.2283
X4.9154Y-3.2756
X4.9203Y-2.6703
X5.0138Y-3.3484
X5.063Y-3.5516
X5.1083Y-3.3346
X5.1437Y-3.1752
X5.1437Y-3.2776
X5.1437Y-3.3799
X5.1437Y-3.4823
X5.3484Y-3.1752
X5.378Y-3.5925
X5.5207Y-3.2244
X5.6181Y-2.7657
X5.7839Y-3.5514
X5.9488Y-3.5925
X6.0472Y-3.5516
X6.2756Y-2.7087
X6.2756Y-2.8435
X6.2756Y-2.9882
X6.4646Y-2.75
X6.4925Y-3.5514
X6.6575Y-3.2421
X6.7555Y-3.5516
X7.4787Y-3.5516
X7.6417Y-3.6122
X7.7402Y-3.5516
X8.1854Y-3.5516
X8.3012Y-2.8878
X8.4484Y-3.5516
X9.2358Y-3.3477
X9.2854Y-2.6594
X9.3346Y-3.6437
X9.4335Y-3.5516
X9.9445Y-3.348
X9.9941Y-2.9272
X10.0433Y-3.2776
X10.1421Y-3.5516
X10.874Y-2.6358
X10.874Y-3.4705
X10.9311Y-3.3484
X11.1272Y-3.5516
X11.6394Y-3.3482
X11.689Y-2.9902
X11.7382Y-3.5039
X11.837Y-3.5516
X12.4291Y-4.8563
X12.4291Y-4.9429
X12.75Y-4.8563
X12.75Y-4.9429
X13.002Y-4.2874
X13.003Y-4.1112
X13.065Y-4.8563
X13.065Y-4.9429
X13.0689Y-4.065
X13.0689Y-4.3484
X13.1083Y-4.1339
X13.1083Y-4.4173
X13.1713Y-4.065
X13.1791Y-4.6988
X13.1811Y-4.3268
X13.2185Y-4.2717
X13.2197Y-4.1563
X13.2638Y-4.4252
X13.2697Y-4.065
X13.3012Y-4.2677
X13.3197Y-4.1685
X13.3701Y-4.065
X13.3819Y-4.8563
X13.3819Y-4.9429
X13.5197Y-4.0669
X13.5197Y-4.6181
X13.7008Y-4.8563
X13.7008Y-4.9429
T2
X3.2323Y-3.1713
X3.2323Y-3.4075
X3.2815Y-3.0728
X3.3307Y-3.1713
X3.3307Y-3.4075
X3.3799Y-3.0728
X3.4291Y-3.1713
X3.4291Y-3.4075
X4.1575Y-3.1713
X4.1575Y-3.4075
X4.2067Y-3.0728
X4.2559Y-3.1713
X4.2559Y-3.4075
X4.3051Y-3.0728
X4.3543Y-3.1713
X4.3543Y-3.4075
X4.8661Y-3.1713
X4.8661Y-3.4075
X4.9154Y-3.0728
X4.9646Y-3.1713
X4.9646Y-3.4075
X5.0138Y-3.0728
X5.063Y-3.1713
X5.063Y-3.4075
X5.8504Y-3.1713
X5.8504Y-3.4075
X5.8996Y-3.0728
X5.9488Y-3.1713
X5.9488Y-3.4075
X5.998Y-3.0728
X6.0472Y-3.1713
X6.0472Y-3.4075
X6.5591Y-3.1713
X6.5591Y-3.4075
X6.6083Y-3.0728
X6.6575Y-3.1713
X6.6575Y-3.4075
X6.7067Y-3.0728
X6.7559Y-3.1713
X6.7559Y-3.4075
X7.5433Y-3.1713
X7.5433Y-3.4075
X7.5925Y-3.0728
X7.6417Y-3.1713
X7.6417Y-3.4075
X7.6909Y-3.0728
X7.7402Y-3.1713
X7.7402Y-3.4075
X8.252Y-3.1713
X8.252Y-3.4075
X8.3012Y-3.0728
X8.3504Y-3.1713
X8.3504Y-3.4075
X8.3996Y-3.0728
X8.4488Y-3.1713
X8.4488Y-3.4075
X9.2362Y-3.1713
X9.2362Y-3.4075
X9.2854Y-3.0728
X9.3346Y-3.1713
X9.3346Y-3.4075
X9.3839Y-3.0728
X9.4331Y-3.1713
X9.4331Y-3.4075
X9.9449Y-3.1713
X9.9449Y-3.4075
X9.9941Y-3.0728
X10.0433Y-3.1713
X10.0433Y-3.4075
X10.0925Y-3.0728
X10.1417Y-3.1713
X10.1417Y-3.4075
X10.9315Y-3.1713
X10.9315Y-3.4075
X10.9807Y-3.0728
X11.0299Y-3.1713
X11.0299Y-3.4075
X11.0791Y-3.0728
X11.1283Y-3.1713
X11.1283Y-3.4075
X11.6402Y-3.1713
X11.6402Y-3.4075
X11.6894Y-3.0728
X11.7386Y-3.1713
X11.7386Y-3.4075
X11.7878Y-3.0728
X11.837Y-3.1713
X11.837Y-3.4075
T3
X3.9193Y-2.75
X3.9193Y-2.85
X4.0193Y-2.75
X4.0193Y-2.85
X4.1193Y-2.75
X4.1193Y-2.85
X4.2193Y-2.75
X4.2193Y-2.85
X4.3193Y-2.75
X4.3193Y-2.85
X4.4193Y-2.75
X4.4193Y-2.85
X4.5193Y-2.75
X4.5193Y-2.85
X4.6193Y-2.75
X4.6193Y-2.85
X4.7193Y-2.75
X4.7193Y-2.85
X4.8193Y-2.75
X4.8193Y-2.85
X4.9193Y-2.75
X4.9193Y-2.85
X5.0193Y-2.75
X5.0193Y-2.85
X5.1193Y-2.75
X5.1193Y-2.85
X5.2193Y-2.75
X5.2193Y-2.85
X5.3193Y-2.75
X5.3193Y-2.85
X5.8986Y-2.7461
X5.9986Y-2.7461
X6.6073Y-2.7461
X6.7073Y-2.7461
X7.5915Y-2.7461
X7.6915Y-2.7461
X8.3002Y-2.7461
X8.4002Y-2.7461
X9.2844Y-2.7461
X9.3844Y-2.7461
X9.9931Y-2.7461
X10.0931Y-2.7461
X10.9793Y-2.7461
X11.0793Y-2.7461
X11.688Y-2.7461
X11.788Y-2.7461
X12.422Y-2.7484
X12.422Y-2.8484
X12.522Y-2.7484
X12.522Y-2.8484
X12.622Y-2.7484
X12.622Y-2.8484
X12.722Y-2.7484
X12.722Y-2.8484
X12.822Y-2.7484
X12.822Y-2.8484
X12.922Y-2.7484
X12.922Y-2.8484
X13.022Y-2.7484
X13.022Y-2.8484
X13.122Y-2.7484
X13.122Y-2.8484
X13.222Y-2.7484
X13.222Y-2.8484
X13.322Y-2.7484
X13.322Y-2.8484
X13.422Y-2.7484
X13.422Y-2.8484
X13.522Y-2.7484
X13.522Y-2.8484
X13.622Y-2.7484
X13.622Y-2.8484
X13.722Y-2.7484
X13.722Y-2.8484
X13.822Y-2.7484
X13.822Y-2.8484
T0
M30
