M48
; DRILL file {KiCad 8.0.4} date 2024-11-04T15:16:07+0900
; FORMAT={-:-/ absolute / inch / decimal}
; #@! TF.CreationDate,2024-11-04T15:16:07+09:00
; #@! TF.GenerationSoftware,Kicad,Pcbnew,8.0.4
; #@! TF.FileFunction,Plated,1,2,PTH
FMAT,2
INCH
; #@! TA.AperFunction,Plated,PTH,ViaDrill
T1C0.0157
; #@! TA.AperFunction,Plated,PTH,ComponentDrill
T2C0.0220
; #@! TA.AperFunction,Plated,PTH,ComponentDrill
T3C0.0276
; #@! TA.AperFunction,Plated,PTH,ViaDrill
T4C0.0315
; #@! TA.AperFunction,Plated,PTH,ComponentDrill
T5C0.0315
; #@! TA.AperFunction,Plated,PTH,ComponentDrill
T6C0.0335
; #@! TA.AperFunction,Plated,PTH,ViaDrill
T7C0.0394
; #@! TA.AperFunction,Plated,PTH,ComponentDrill
T8C0.0394
; #@! TA.AperFunction,Plated,PTH,ComponentDrill
T9C0.0433
; #@! TA.AperFunction,Plated,PTH,ComponentDrill
T10C0.0551
; #@! TA.AperFunction,Plated,PTH,ComponentDrill
T11C0.0630
; #@! TA.AperFunction,Plated,PTH,ComponentDrill
T12C0.1260
%
G90
G05
T1
X1.6311Y-2.3382
X1.6311Y-2.4382
X1.6311Y-2.5382
X1.6311Y-2.6382
X1.6311Y-2.7382
X1.6311Y-2.8382
X1.6311Y-2.9382
X1.6311Y-3.0382
X1.6311Y-3.1382
X1.6311Y-3.2382
X1.6311Y-3.3382
X1.6311Y-3.4382
X1.6311Y-3.5382
X1.6311Y-3.6382
X1.6311Y-3.7382
X1.6311Y-3.8382
X1.6311Y-3.9382
X1.6311Y-4.0382
X1.6311Y-6.2988
X1.6311Y-6.3988
X1.6311Y-6.4988
X1.6311Y-6.5988
X1.6311Y-6.6988
X1.6311Y-6.7988
X1.6311Y-6.8988
X1.6311Y-6.9988
X1.6311Y-7.0988
X1.6311Y-7.1988
X1.6311Y-7.2988
X1.6311Y-7.3988
X1.6311Y-7.4988
X1.6311Y-7.5988
X1.6311Y-7.6988
X1.6311Y-7.7988
X1.6311Y-7.8988
X1.6311Y-7.9988
X1.7311Y-2.3382
X1.7311Y-2.4382
X1.7311Y-2.5382
X1.7311Y-2.6382
X1.7311Y-2.7382
X1.7311Y-2.8382
X1.7311Y-2.9382
X1.7311Y-3.0382
X1.7311Y-3.1382
X1.7311Y-3.2382
X1.7311Y-3.3382
X1.7311Y-3.4382
X1.7311Y-3.5382
X1.7311Y-3.6382
X1.7311Y-3.7382
X1.7311Y-3.8382
X1.7311Y-3.9382
X1.7311Y-4.0382
X1.7311Y-6.2988
X1.7311Y-6.3988
X1.7311Y-6.4988
X1.7311Y-6.5988
X1.7311Y-6.6988
X1.7311Y-6.7988
X1.7311Y-6.8988
X1.7311Y-6.9988
X1.7311Y-7.0988
X1.7311Y-7.1988
X1.7311Y-7.2988
X1.7311Y-7.3988
X1.7311Y-7.4988
X1.7311Y-7.5988
X1.7311Y-7.6988
X1.7311Y-7.7988
X1.7311Y-7.8988
X1.7311Y-7.9988
X1.8311Y-2.3382
X1.8311Y-2.4382
X1.8311Y-2.5382
X1.8311Y-2.6382
X1.8311Y-2.7382
X1.8311Y-2.8382
X1.8311Y-2.9382
X1.8311Y-3.0382
X1.8311Y-3.1382
X1.8311Y-3.2382
X1.8311Y-3.3382
X1.8311Y-3.4382
X1.8311Y-3.5382
X1.8311Y-3.6382
X1.8311Y-3.7382
X1.8311Y-3.8382
X1.8311Y-3.9382
X1.8311Y-4.0382
X1.8311Y-6.2988
X1.8311Y-6.3988
X1.8311Y-6.4988
X1.8311Y-6.5988
X1.8311Y-6.6988
X1.8311Y-6.7988
X1.8311Y-6.8988
X1.8311Y-6.9988
X1.8311Y-7.0988
X1.8311Y-7.1988
X1.8311Y-7.2988
X1.8311Y-7.3988
X1.8311Y-7.4988
X1.8311Y-7.5988
X1.8311Y-7.6988
X1.8311Y-7.7988
X1.8311Y-7.8988
X1.8311Y-7.9988
X2.3809Y-5.0689
X2.3809Y-9.0295
X2.6333Y-2.2988
X2.6333Y-6.2594
X2.7448Y-4.5035
X2.7448Y-8.4641
X2.7451Y-4.5424
X2.7451Y-4.5818
X2.7451Y-4.6209
X2.7451Y-8.5031
X2.7451Y-8.5424
X2.7451Y-8.5815
X2.7844Y-4.4717
X2.7844Y-4.6347
X2.7844Y-8.4323
X2.7844Y-8.5953
X2.8142Y-4.7579
X2.8142Y-4.8169
X2.8142Y-4.876
X2.8142Y-8.7185
X2.8142Y-8.7776
X2.8142Y-8.8366
X2.8278Y-4.6347
X2.8278Y-8.5953
X2.8354Y-2.1762
X2.8354Y-4.472
X2.8354Y-6.1368
X2.8354Y-8.4327
X2.8474Y-3.999
X2.8474Y-7.9596
X2.8512Y-1.9636
X2.8512Y-5.9242
X2.8629Y-4.5035
X2.8629Y-8.4642
X2.8632Y-4.5819
X2.8632Y-4.6209
X2.8632Y-8.5425
X2.8632Y-8.5815
X2.8929Y-4.7579
X2.8929Y-4.8169
X2.8929Y-4.876
X2.8929Y-8.7185
X2.8929Y-8.7776
X2.8929Y-8.8366
X2.9006Y-2.0138
X2.9006Y-5.9744
X2.9152Y-4.5433
X2.9152Y-8.5039
X2.9717Y-4.7579
X2.9717Y-4.8169
X2.9717Y-4.876
X2.9717Y-8.7185
X2.9717Y-8.7776
X2.9717Y-8.8366
X3.0443Y-1.7156
X3.0443Y-5.6762
X3.0748Y-2.4803
X3.0748Y-6.4409
X3.097Y-2.1134
X3.097Y-6.074
X3.0998Y-2.0142
X3.0998Y-5.9748
X3.1437Y-1.6831
X3.1437Y-5.6437
X3.1675Y-3.3882
X3.1675Y-7.3488
X3.2008Y-1.7146
X3.2008Y-5.6752
X3.2156Y-2.1289
X3.2156Y-6.0896
X3.2187Y-3.6264
X3.2187Y-7.587
X3.2701Y-4.2461
X3.2701Y-8.2067
X3.2825Y-5.0689
X3.2825Y-9.0295
X3.2842Y-4.5035
X3.2842Y-8.4641
X3.2844Y-4.5424
X3.2844Y-4.5818
X3.2844Y-4.6209
X3.2844Y-8.5031
X3.2844Y-8.5424
X3.2844Y-8.5815
X3.2972Y-2.0719
X3.2972Y-2.1988
X3.2972Y-2.4429
X3.2972Y-6.0325
X3.2972Y-6.1594
X3.2972Y-6.4035
X3.3238Y-4.4717
X3.3238Y-4.6347
X3.3238Y-8.4323
X3.3238Y-8.5953
X3.3546Y-4.7579
X3.3546Y-4.8169
X3.3546Y-4.876
X3.3546Y-8.7185
X3.3546Y-8.7776
X3.3546Y-8.8366
X3.3671Y-4.6347
X3.3671Y-8.5953
X3.3748Y-4.472
X3.3748Y-8.4327
X3.3892Y-3.3276
X3.3892Y-7.2882
X3.4023Y-4.5035
X3.4023Y-8.4642
X3.4026Y-4.5819
X3.4026Y-4.6209
X3.4026Y-8.5425
X3.4026Y-8.5815
X3.4334Y-4.7579
X3.4334Y-4.8169
X3.4334Y-4.876
X3.4334Y-8.7185
X3.4334Y-8.7776
X3.4334Y-8.8366
X3.4427Y-1.8614
X3.4427Y-5.822
X3.4431Y-2.0059
X3.4431Y-5.9665
X3.4435Y-2.1339
X3.4435Y-6.0945
X3.4553Y-4.5465
X3.4553Y-8.5071
X3.4904Y-2.1689
X3.4904Y-6.1295
X3.5108Y-2.0984
X3.5108Y-6.0591
X3.5121Y-4.7579
X3.5121Y-4.8169
X3.5121Y-4.876
X3.5121Y-8.7185
X3.5121Y-8.7776
X3.5121Y-8.8366
X3.5868Y-2.1811
X3.5868Y-6.1417
X3.5931Y-1.9185
X3.5931Y-5.8791
X3.626Y-2.4045
X3.626Y-3.289
X3.626Y-6.3652
X3.626Y-7.2496
X3.6266Y-2.0421
X3.6266Y-6.0028
X3.6364Y-1.7461
X3.6364Y-5.7067
X3.664Y-1.9602
X3.664Y-5.9209
X3.6762Y-1.8179
X3.6762Y-5.7785
X3.6931Y-2.7126
X3.6931Y-2.7992
X3.6931Y-6.6732
X3.6931Y-6.7598
X3.7163Y-1.6984
X3.7163Y-5.6591
X3.7423Y-1.974
X3.7423Y-5.9346
X3.8211Y-2.7362
X3.8211Y-6.6969
X3.8604Y-2.0083
X3.8604Y-5.9689
X3.8612Y-2.5157
X3.8612Y-6.4764
X3.8751Y-4.5035
X3.8751Y-8.4641
X3.8754Y-4.5424
X3.8754Y-4.5818
X3.8754Y-4.6209
X3.8754Y-8.5031
X3.8754Y-8.5424
X3.8754Y-8.5815
X3.8799Y-2.4124
X3.8799Y-6.373
X3.8911Y-2.9941
X3.8911Y-6.9547
X3.8939Y-2.6402
X3.8939Y-6.6008
X3.8986Y-1.9051
X3.8986Y-5.8657
X3.9014Y-2.0087
X3.9014Y-5.9693
X3.9148Y-4.4717
X3.9148Y-4.6347
X3.9148Y-8.4323
X3.9148Y-8.5953
X3.925Y-1.7059
X3.925Y-5.6665
X3.9305Y-2.135
X3.9305Y-6.0957
X3.9452Y-4.7579
X3.9452Y-4.8169
X3.9452Y-4.876
X3.9452Y-8.7185
X3.9452Y-8.7776
X3.9452Y-8.8366
X3.9502Y-2.1795
X3.9502Y-6.1402
X3.9537Y-1.8776
X3.9537Y-5.8382
X3.9581Y-4.6347
X3.9581Y-8.5953
X3.959Y-2.2487
X3.959Y-6.2094
X3.9657Y-4.472
X3.9657Y-8.4327
X3.9715Y-2.5423
X3.9715Y-6.503
X3.9933Y-4.5035
X3.9933Y-8.4642
X3.9935Y-2.1965
X3.9935Y-4.5819
X3.9935Y-4.6209
X3.9935Y-6.1571
X3.9935Y-8.5425
X3.9935Y-8.5815
X4.003Y-2.8169
X4.003Y-6.7776
X4.0191Y-3.5161
X4.0191Y-7.4768
X4.0199Y-3.9378
X4.0199Y-7.8984
X4.0239Y-4.7579
X4.0239Y-4.8169
X4.0239Y-4.876
X4.0239Y-8.7185
X4.0239Y-8.7776
X4.0239Y-8.8366
X4.0293Y-1.9795
X4.0293Y-5.9402
X4.0415Y-2.0339
X4.0415Y-2.1339
X4.0415Y-2.2343
X4.0415Y-5.9945
X4.0415Y-6.0945
X4.0415Y-6.1949
X4.0459Y-4.5433
X4.0459Y-8.5039
X4.0907Y-2.3461
X4.0907Y-6.3067
X4.1027Y-4.7579
X4.1027Y-4.8169
X4.1027Y-4.876
X4.1027Y-8.7185
X4.1027Y-8.7776
X4.1027Y-8.8366
X4.1352Y-2.3177
X4.1352Y-6.2783
X4.1612Y-4.0642
X4.1612Y-8.0248
X4.1841Y-5.0689
X4.1841Y-9.0295
X4.2053Y-2.6457
X4.2053Y-6.6063
X4.2081Y-3.422
X4.2081Y-7.3827
X4.2163Y-3.9406
X4.2163Y-7.9012
X4.2266Y-2.0343
X4.2266Y-2.2335
X4.2266Y-5.9949
X4.2266Y-6.1941
X4.2317Y-2.1339
X4.2317Y-6.0945
X4.2421Y-2.4685
X4.2421Y-2.5404
X4.2421Y-6.4291
X4.2421Y-6.501
X4.2628Y-2.2854
X4.2628Y-2.3366
X4.2628Y-6.2461
X4.2628Y-6.2972
X4.2703Y-2.9413
X4.2703Y-6.902
X4.3045Y-2.7736
X4.3045Y-6.7343
X4.3071Y-3.1467
X4.3071Y-7.1073
X4.3156Y-3.4217
X4.3156Y-7.3823
X4.3406Y-3.1073
X4.3406Y-7.0679
X4.3667Y-3.4213
X4.3667Y-7.3819
X4.3833Y-1.9882
X4.3833Y-5.9488
X4.3877Y-4.5035
X4.3877Y-8.4641
X4.388Y-4.5424
X4.388Y-4.5818
X4.388Y-4.6209
X4.388Y-8.5031
X4.388Y-8.5424
X4.388Y-8.5815
X4.4274Y-4.4717
X4.4274Y-4.6347
X4.4274Y-8.4323
X4.4274Y-8.5953
X4.452Y-2.9
X4.452Y-6.8606
X4.4577Y-4.7579
X4.4577Y-4.8169
X4.4577Y-4.876
X4.4577Y-8.7185
X4.4577Y-8.7776
X4.4577Y-8.8366
X4.4626Y-3.2195
X4.4626Y-7.1801
X4.4707Y-4.6347
X4.4707Y-8.5953
X4.4783Y-4.472
X4.4783Y-8.4327
X4.499Y-2.4187
X4.499Y-6.3794
X4.5058Y-4.5035
X4.5058Y-8.4642
X4.5061Y-4.5819
X4.5061Y-4.6209
X4.5061Y-8.5425
X4.5061Y-8.5815
X4.5364Y-4.7579
X4.5364Y-4.8169
X4.5364Y-4.876
X4.5364Y-8.7185
X4.5364Y-8.7776
X4.5364Y-8.8366
X4.5413Y-3.1447
X4.5413Y-7.1053
X4.5549Y-4.5413
X4.5549Y-8.502
X4.5762Y-2.0693
X4.5762Y-6.0299
X4.5907Y-2.8429
X4.5907Y-6.8035
X4.5984Y-3.1073
X4.5984Y-7.0679
X4.6152Y-4.7579
X4.6152Y-4.8169
X4.6152Y-4.876
X4.6152Y-8.7185
X4.6152Y-8.7776
X4.6152Y-8.8366
X4.6368Y-3.1949
X4.6368Y-7.1555
X4.709Y-2.4187
X4.709Y-6.3794
X4.7461Y-3.997
X4.7461Y-7.9577
X4.7663Y-1.9484
X4.7663Y-5.9091
X4.7671Y-2.0917
X4.7671Y-6.0524
X4.7856Y-3.3831
X4.7856Y-7.3437
X4.7864Y-5.0689
X4.7864Y-9.0295
X4.8203Y-2.8972
X4.8203Y-6.8579
X4.8234Y-3.4894
X4.8234Y-7.45
X4.8553Y-4.2628
X4.8553Y-4.3248
X4.8553Y-4.4961
X4.8553Y-4.5654
X4.8553Y-8.2234
X4.8553Y-8.2854
X4.8553Y-8.4567
X4.8553Y-8.526
X4.8935Y-3.1331
X4.8935Y-7.0937
X4.8947Y-3.3429
X4.8947Y-3.8272
X4.8947Y-7.3035
X4.8947Y-7.7878
X4.8951Y-3.5969
X4.8951Y-7.5575
X4.9006Y-2.8012
X4.9006Y-6.7618
X4.9238Y-1.9484
X4.9238Y-5.9091
X4.9246Y-2.0917
X4.9246Y-6.0524
X4.9557Y-2.3996
X4.9557Y-6.3602
X4.962Y-3.4118
X4.962Y-7.3724
X5.0041Y-3.8394
X5.0041Y-7.8
X5.0443Y-4.3232
X5.0443Y-4.5098
X5.0443Y-8.2839
X5.0443Y-8.4705
X5.0748Y-3.1024
X5.0748Y-3.2382
X5.0748Y-7.063
X5.0748Y-7.1988
X5.0841Y-2.585
X5.0841Y-6.5457
X5.088Y-2.085
X5.088Y-2.1283
X5.088Y-6.0457
X5.088Y-6.089
X5.0915Y-2.3343
X5.0915Y-6.2949
X5.1037Y-4.0598
X5.1037Y-8.0205
X5.1447Y-1.9681
X5.1447Y-5.9287
X5.1648Y-2.0138
X5.1648Y-5.9744
X5.2293Y-3.8378
X5.2293Y-7.7984
X5.2415Y-2.152
X5.2415Y-2.585
X5.2415Y-6.1126
X5.2415Y-6.5457
X5.253Y-3.4232
X5.253Y-7.3839
X5.2667Y-4.5571
X5.2667Y-8.5177
X5.2707Y-5.0098
X5.2707Y-8.9705
X5.3242Y-1.726
X5.3242Y-1.8047
X5.3242Y-5.6866
X5.3242Y-5.7654
X5.3553Y-3.1969
X5.3553Y-7.1575
X5.3809Y-5.0689
X5.3809Y-9.0295
X5.3821Y-2.3902
X5.3821Y-6.3508
X5.3872Y-4.1161
X5.3872Y-8.0768
X5.403Y-1.726
X5.403Y-1.8047
X5.403Y-5.6866
X5.403Y-5.7654
X5.4604Y-2.3343
X5.4604Y-6.2949
X5.4817Y-1.726
X5.4817Y-1.8047
X5.4817Y-5.6866
X5.4817Y-5.7654
X5.4848Y-5.0181
X5.4848Y-8.9787
X5.5285Y-3.0177
X5.5285Y-6.9783
X5.5293Y-2.6858
X5.5293Y-6.6465
X5.612Y-2.0571
X5.612Y-6.0177
X5.64Y-1.9555
X5.64Y-5.9161
X5.6526Y-4.648
X5.6526Y-5.065
X5.6526Y-8.6087
X5.6526Y-9.0256
X5.6876Y-3.0693
X5.6876Y-7.0299
X5.7337Y-4.1713
X5.7337Y-8.1319
X5.7356Y-2.7008
X5.7356Y-6.6614
X5.777Y-2.7736
X5.777Y-6.7343
X5.8439Y-4.1673
X5.8439Y-8.128
X5.9169Y-3.9474
X5.9169Y-7.9081
X5.9833Y-5.0689
X5.9833Y-9.0295
X6.0904Y-4.0228
X6.0904Y-7.9835
X6.1258Y-5.3752
X6.1258Y-9.3358
X6.1785Y-2.1618
X6.1785Y-6.1224
X6.2545Y-2.5339
X6.2545Y-6.4945
T2
X3.1641Y-2.3353
X3.1641Y-6.296
X3.3641Y-2.3353
X3.3641Y-6.296
X3.5641Y-2.3353
X3.5641Y-6.296
X3.7641Y-2.3353
X3.7641Y-6.296
X5.3113Y-2.6818
X5.3113Y-2.8818
X5.3113Y-3.0818
X5.3113Y-3.2818
X5.3113Y-6.6424
X5.3113Y-6.8424
X5.3113Y-7.0424
X5.3113Y-7.2424
T3
X3.3278Y-2.9667
X3.3278Y-6.9274
X3.7215Y-2.9667
X3.7215Y-6.9274
X5.173Y-4.5096
X5.173Y-8.4703
X5.5667Y-4.5096
X5.5667Y-8.4703
X5.8652Y-4.5096
X5.8652Y-8.4703
X6.2589Y-4.5096
X6.2589Y-8.4703
T4
X2.6541Y-4.2539
X2.6541Y-8.2146
T5
X3.7561Y-3.3782
X3.7561Y-3.4767
X3.7561Y-3.6906
X3.7561Y-4.1906
X3.7561Y-7.3389
X3.7561Y-7.4373
X3.7561Y-7.6512
X3.7561Y-8.1512
X5.6222Y-3.6906
X5.6222Y-4.1906
X5.6222Y-7.6512
X5.6222Y-8.1512
X6.1896Y-4.0382
X6.1896Y-4.1366
X6.1896Y-7.9988
X6.1896Y-8.0972
X6.2545Y-2.0146
X6.2545Y-2.113
X6.2545Y-2.2114
X6.2545Y-2.3098
X6.2545Y-5.9752
X6.2545Y-6.0736
X6.2545Y-6.172
X6.2545Y-6.2705
T6
X2.749Y-1.8071
X2.749Y-5.7677
X2.8474Y-1.8071
X2.8474Y-5.7677
X2.9459Y-1.8071
X2.9459Y-5.7677
X3.0443Y-1.8071
X3.0443Y-5.7677
X3.2963Y-1.8071
X3.2963Y-5.7677
X3.3947Y-1.8071
X3.3947Y-5.7677
X3.4931Y-1.8071
X3.4931Y-5.7677
X3.5915Y-1.8071
X3.5915Y-5.7677
X5.8384Y-3.6894
X5.8384Y-7.65
X5.9368Y-3.6894
X5.9368Y-7.65
X6.0352Y-3.6894
X6.0352Y-7.65
T7
X3.7561Y-3.8524
X3.7561Y-7.813
T8
X4.0447Y-3.6268
X4.0447Y-3.8268
X4.0447Y-7.5874
X4.0447Y-7.7874
X4.1447Y-3.6268
X4.1447Y-3.8268
X4.1447Y-7.5874
X4.1447Y-7.7874
X4.2447Y-3.6268
X4.2447Y-3.8268
X4.2447Y-7.5874
X4.2447Y-7.7874
X4.4447Y-3.6268
X4.4447Y-3.8268
X4.4447Y-7.5874
X4.4447Y-7.7874
T9
X3.3278Y-2.5652
X3.3278Y-6.5258
X3.5246Y-3.0652
X3.5246Y-7.0258
X3.7215Y-2.5652
X3.7215Y-6.5258
X5.173Y-4.9112
X5.173Y-8.8719
X5.3699Y-4.4112
X5.3699Y-8.3719
X5.5667Y-4.9112
X5.5667Y-8.8719
X5.8652Y-4.9112
X5.8652Y-8.8719
X6.062Y-4.4112
X6.062Y-8.3719
X6.2589Y-4.9112
X6.2589Y-8.8719
T10
X2.3187Y-5.2169
X2.3187Y-9.1776
X2.6187Y-5.2169
X2.6187Y-9.1776
X2.9187Y-5.2169
X2.9187Y-9.1776
X3.2187Y-5.2169
X3.2187Y-9.1776
X3.5187Y-5.2169
X3.5187Y-9.1776
X3.8187Y-5.2169
X3.8187Y-9.1776
X4.1187Y-5.2169
X4.1187Y-9.1776
X4.4187Y-5.2169
X4.4187Y-9.1776
X4.7187Y-5.2169
X4.7187Y-9.1776
X5.0187Y-5.2169
X5.0187Y-9.1776
X5.3187Y-5.2169
X5.3187Y-9.1776
X5.6187Y-5.2169
X5.6187Y-9.1776
X5.9187Y-5.2169
X5.9187Y-9.1776
X5.9616Y-2.7177
X5.9616Y-3.0177
X5.9616Y-6.6783
X5.9616Y-6.9783
X6.2187Y-5.2169
X6.2187Y-9.1776
T11
X2.1124Y-2.4315
X2.1124Y-2.8055
X2.1124Y-3.1795
X2.1124Y-3.6598
X2.1124Y-4.0339
X2.1124Y-4.4079
X2.1124Y-4.7819
X2.1124Y-6.3921
X2.1124Y-6.7661
X2.1124Y-7.1402
X2.1124Y-7.6205
X2.1124Y-7.9945
X2.1124Y-8.3685
X2.1124Y-8.7425
T12
X2.4695Y-3.4008
X2.4695Y-7.3614
X2.4707Y-4.8681
X2.4707Y-8.8287
X2.4742Y-1.9291
X2.4742Y-5.8898
X4.9722Y-4.8681
X4.9722Y-8.8287
X5.8553Y-3.4008
X5.8553Y-7.3614
X5.86Y-1.9291
X5.86Y-5.8898
X7.0752Y-4.8681
X7.0752Y-8.8287
X7.0787Y-1.9291
X7.0787Y-3.4008
X7.0787Y-5.8898
X7.0787Y-7.3614
X7.6264Y-4.8681
X7.6264Y-8.8287
X8.5094Y-3.4008
X8.5094Y-7.3614
X8.5142Y-1.9291
X8.5142Y-5.8898
T8
G00X2.7707Y-2.6407
M15
G01X2.7707Y-2.7982
M16
G05
G00X2.7707Y-6.6014
M15
G01X2.7707Y-6.7589
M16
G05
G00X2.9478Y-2.6407
M15
G01X2.9478Y-2.7982
M16
G05
G00X3.0561Y-2.9545
M15
G01X2.8396Y-2.9545
M16
G05
G00X3.0561Y-3.2695
M15
G01X2.8396Y-3.2695
M16
G05
G00X2.9478Y-6.6014
M15
G01X2.9478Y-6.7589
M16
G05
G00X3.0561Y-6.9152
M15
G01X2.8396Y-6.9152
M16
G05
G00X3.0561Y-7.2301
M15
G01X2.8396Y-7.2301
M16
G05
G00X3.125Y-2.6407
M15
G01X3.125Y-2.7982
M16
G05
G00X3.125Y-6.6014
M15
G01X3.125Y-6.7589
M16
G05
M30
