M48
; DRILL file {KiCad 8.0.8} date 2025-02-05T20:28:26+0900
; FORMAT={-:-/ absolute / inch / decimal}
; #@! TF.CreationDate,2025-02-05T20:28:26+09:00
; #@! TF.GenerationSoftware,Kicad,Pcbnew,8.0.8
; #@! TF.FileFunction,Plated,1,2,PTH
FMAT,2
INCH
; #@! TA.AperFunction,Plated,PTH,ViaDrill
T1C0.0157
; #@! TA.AperFunction,Plated,PTH,ComponentDrill
T2C0.0157
; #@! TA.AperFunction,Plated,PTH,ComponentDrill
T3C0.0220
; #@! TA.AperFunction,Plated,PTH,ComponentDrill
T4C0.0228
; #@! TA.AperFunction,Plated,PTH,ComponentDrill
T5C0.0276
; #@! TA.AperFunction,Plated,PTH,ComponentDrill
T6C0.0295
; #@! TA.AperFunction,Plated,PTH,ComponentDrill
T7C0.0315
; #@! TA.AperFunction,Plated,PTH,ComponentDrill
T8C0.0335
; #@! TA.AperFunction,Plated,PTH,ComponentDrill
T9C0.0354
; #@! TA.AperFunction,Plated,PTH,ComponentDrill
T10C0.0413
; #@! TA.AperFunction,Plated,PTH,ComponentDrill
T11C0.0433
; #@! TA.AperFunction,Plated,PTH,ComponentDrill
T12C0.0472
; #@! TA.AperFunction,Plated,PTH,ComponentDrill
T13C0.0827
; #@! TA.AperFunction,Plated,PTH,ComponentDrill
T14C0.1260
; #@! TA.AperFunction,Plated,PTH,ComponentDrill
T15C0.2165
%
G90
G05
T1
X4.9719Y-5.8264
X5.1059Y-4.2305
X5.1059Y-4.3278
X5.2335Y-4.1935
X5.3262Y-5.8274
X5.5071Y-3.5695
X5.6665Y-5.8254
X5.7611Y-5.047
X5.7611Y-5.1061
X5.7611Y-5.1652
X5.7967Y-3.8697
X5.8398Y-5.047
X5.8398Y-5.1061
X5.8398Y-5.1652
X5.8691Y-4.8021
X5.8694Y-4.8411
X5.8694Y-4.8804
X5.8694Y-4.9195
X5.877Y-4.7293
X5.8772Y-4.2742
X5.9087Y-4.9333
X5.9186Y-5.047
X5.9186Y-5.1061
X5.9186Y-5.1652
X5.952Y-4.9333
X5.9597Y-4.7707
X5.9872Y-4.8022
X5.9875Y-4.8411
X5.9875Y-4.8805
X5.9875Y-4.9195
X6.0189Y-5.8274
X6.1144Y-5.0478
X6.1144Y-5.1069
X6.1144Y-5.1659
X6.1507Y-3.6049
X6.1579Y-6.9661
X6.1579Y-7.0449
X6.1932Y-5.0478
X6.1932Y-5.1069
X6.1932Y-5.1659
X6.2242Y-4.8029
X6.2245Y-4.8419
X6.2245Y-4.8813
X6.2245Y-4.9207
X6.2289Y-4.7302
X6.2295Y-4.3057
X6.2366Y-6.9661
X6.2366Y-7.0449
X6.2639Y-4.9345
X6.2719Y-5.0478
X6.2719Y-5.1069
X6.2719Y-5.1659
X6.3072Y-4.9345
X6.3106Y-4.5431
X6.3148Y-4.7715
X6.3154Y-6.9661
X6.3154Y-7.0449
X6.3423Y-4.803
X6.3426Y-4.842
X6.3426Y-4.8814
X6.3426Y-4.9207
X6.3752Y-5.8254
X6.3941Y-6.9661
X6.3941Y-7.0449
X6.4433Y-3.5049
X6.4688Y-5.0482
X6.4688Y-5.1073
X6.4688Y-5.1663
X6.4728Y-6.9661
X6.4728Y-7.0449
X6.5031Y-4.2407
X6.5475Y-5.0482
X6.5475Y-5.1073
X6.5475Y-5.1663
X6.5516Y-6.9661
X6.5516Y-7.0449
X6.5786Y-4.8029
X6.5788Y-4.8419
X6.5788Y-4.8813
X6.5788Y-4.9207
X6.5819Y-4.3274
X6.5833Y-4.7301
X6.6102Y-2.7809
X6.6142Y-4.1738
X6.6165Y-3.8049
X6.6182Y-4.9345
X6.6263Y-5.0482
X6.6263Y-5.1073
X6.6263Y-5.1663
X6.6303Y-6.9661
X6.6303Y-7.0449
X6.6615Y-4.9345
X6.6692Y-4.7715
X6.6967Y-4.803
X6.6969Y-4.842
X6.6969Y-4.8814
X6.6969Y-4.9207
X6.7091Y-6.9661
X6.7091Y-7.0449
X6.7252Y-3.1604
X6.7252Y-4.0722
X6.7295Y-5.8274
X6.7744Y-3.0734
X6.7744Y-4.073
X6.8231Y-5.0482
X6.8231Y-5.1073
X6.8231Y-5.1663
X6.8236Y-4.073
X6.824Y-3.3274
X6.8532Y-7.1625
X6.8594Y-4.2211
X6.8676Y-7.2029
X6.8728Y-3.36
X6.8728Y-4.073
X6.8872Y-7.1364
X6.8882Y-7.1728
X6.9019Y-5.0482
X6.9019Y-5.1073
X6.9019Y-5.1663
X6.9104Y-7.2017
X6.9217Y-3.3919
X6.922Y-4.0726
X6.9225Y-7.1606
X6.9329Y-4.8029
X6.9331Y-4.8419
X6.9331Y-4.8813
X6.9331Y-4.9207
X6.9402Y-4.349
X6.9415Y-4.7299
X6.9531Y-3.4234
X6.9713Y-4.073
X6.9725Y-4.9345
X6.9806Y-5.0482
X6.9806Y-5.1073
X6.9806Y-5.1663
X6.9843Y-3.0738
X6.9846Y-3.5325
X7.0098Y-4.0608
X7.0158Y-4.9345
X7.0235Y-4.7715
X7.0335Y-3.3266
X7.0362Y-2.7742
X7.0398Y-7.0547
X7.0398Y-7.6236
X7.0425Y-2.3872
X7.051Y-4.803
X7.0513Y-4.842
X7.0513Y-4.8814
X7.0513Y-4.9207
X7.0819Y-5.8254
X7.0858Y-3.4561
X7.1346Y-3.3506
X7.1774Y-5.0482
X7.1774Y-5.1073
X7.1774Y-5.1663
X7.1799Y-7.6787
X7.1835Y-3.488
X7.2098Y-4.1994
X7.2327Y-3.3805
X7.2562Y-5.0482
X7.2562Y-5.1073
X7.2562Y-5.1663
X7.2705Y-3.6246
X7.2865Y-4.8029
X7.2867Y-4.8419
X7.2867Y-4.8813
X7.2867Y-4.9207
X7.2925Y-4.3707
X7.294Y-4.7313
X7.3142Y-3.4553
X7.3193Y-4.0722
X7.3261Y-4.9345
X7.3339Y-3.4183
X7.3349Y-5.0482
X7.3349Y-5.1073
X7.3349Y-5.1663
X7.3689Y-3.4892
X7.3689Y-4.0722
X7.3694Y-4.9345
X7.3771Y-4.7715
X7.4046Y-4.803
X7.4049Y-4.842
X7.4049Y-4.8814
X7.4049Y-4.9207
X7.4185Y-3.625
X7.4185Y-4.0722
X7.4193Y-3.4376
X7.4362Y-5.8254
X7.4389Y-7.3151
X7.4532Y-7.3554
X7.4673Y-4.0719
X7.4728Y-7.289
X7.4738Y-7.3254
X7.496Y-7.3543
X7.5081Y-7.3132
X7.5318Y-5.0482
X7.5318Y-5.1073
X7.5318Y-5.1663
X7.5327Y-2.9325
X7.5602Y-4.1522
X7.59Y-4.0951
X7.6018Y-4.2417
X7.6105Y-5.0482
X7.6105Y-5.1073
X7.6105Y-5.1663
X7.6323Y-2.8581
X7.6416Y-4.8029
X7.6418Y-4.8419
X7.6418Y-4.8812
X7.6418Y-4.9206
X7.6449Y-4.3923
X7.6467Y-4.7305
X7.6657Y-3.9386
X7.6812Y-4.9344
X7.6893Y-5.0482
X7.6893Y-5.1073
X7.6893Y-5.1663
X7.7228Y-2.6805
X7.7245Y-4.9344
X7.7305Y-2.5945
X7.7321Y-2.4404
X7.7322Y-4.7715
X7.7597Y-4.803
X7.7599Y-4.8419
X7.7599Y-4.8813
X7.7599Y-4.9207
X7.7646Y-3.8104
X7.7925Y-5.8254
X7.8146Y-3.4478
X7.8309Y-2.5689
X7.8315Y-2.497
X7.8815Y-2.2573
X7.8861Y-5.0482
X7.8861Y-5.1073
X7.8861Y-5.1663
X7.8937Y-2.5447
X7.9181Y-2.4407
X7.922Y-2.5018
X7.9648Y-5.0482
X7.9648Y-5.1073
X7.9648Y-5.1663
X7.9854Y-2.6305
X7.9961Y-4.8029
X7.9963Y-4.8419
X7.9963Y-4.8812
X7.9963Y-4.9206
X8.0022Y-4.7305
X8.0031Y-4.414
X8.0126Y-2.4809
X8.0356Y-2.5967
X8.0357Y-4.9344
X8.0436Y-5.0482
X8.0436Y-5.1073
X8.0436Y-5.1663
X8.079Y-4.9344
X8.0823Y-2.2931
X8.0867Y-4.7715
X8.1006Y-2.5844
X8.1142Y-4.803
X8.1144Y-4.8419
X8.1144Y-4.8813
X8.1144Y-4.9207
X8.1146Y-2.897
X8.1146Y-3.5104
X8.1469Y-5.8254
X8.1567Y-2.4415
X8.1819Y-2.2923
X8.2323Y-2.8616
X8.2327Y-2.4868
X8.2404Y-5.0482
X8.2404Y-5.1073
X8.2404Y-5.1663
X8.2642Y-3.4175
X8.265Y-3.1392
X8.3192Y-5.0482
X8.3192Y-5.1073
X8.3192Y-5.1663
X8.3512Y-4.8029
X8.3515Y-4.8419
X8.3515Y-4.8812
X8.3515Y-4.9206
X8.3575Y-4.4356
X8.3585Y-4.7305
X8.3656Y-3.8697
X8.372Y-2.4419
X8.3776Y-2.5427
X8.3908Y-4.9344
X8.3979Y-5.0482
X8.3979Y-5.1073
X8.3979Y-5.1663
X8.4341Y-4.9344
X8.4418Y-4.7715
X8.463Y-3.6069
X8.4693Y-4.803
X8.4696Y-4.8419
X8.4696Y-4.8813
X8.4696Y-4.9207
X8.5171Y-5.8244
X8.6134Y-4.0211
X8.6138Y-3.6463
X8.615Y-2.6829
X8.615Y-3.5589
X8.6646Y-4.4553
X8.6996Y-2.4344
X8.7146Y-3.4175
X8.8142Y-3.162
X8.8146Y-2.901
X8.865Y-3.7486
X8.8715Y-5.8244
X8.9146Y-3.2691
X8.915Y-2.4341
X9.0055Y-2.901
X9.0234Y-3.6102
X9.0598Y-4.0667
X9.0874Y-3.4404
X9.1075Y-2.9451
X9.1732Y-2.9766
X9.1764Y-2.7742
X9.2098Y-5.8234
X9.2138Y-3.4514
X9.2138Y-3.9967
X9.2594Y-2.5577
X9.2638Y-2.9766
X9.2654Y-3.3148
X9.3646Y-3.5589
X9.3654Y-2.9774
X9.4142Y-3.114
X9.4185Y-4.4809
X9.4634Y-7.6787
X9.4661Y-2.8982
X9.515Y-3.4341
X9.515Y-4.2593
X9.5624Y-6.7781
X9.5642Y-5.8234
X9.565Y-2.7246
X9.565Y-3.5163
X9.5654Y-2.5033
X9.6272Y-3.975
X9.6272Y-4.4573
X9.6331Y-2.8274
X9.6555Y-3.338
X9.6803Y-2.3305
X9.7043Y-3.114
X9.7047Y-2.9313
X9.7087Y-3.2624
X9.7138Y-2.5892
X9.7138Y-2.7821
X9.7551Y-2.6923
X9.7555Y-2.9317
X9.765Y-2.7959
X9.765Y-3.3014
X9.7811Y-3.4848
X9.7811Y-4.1738
X9.8244Y-3.8423
X9.8283Y-3.4856
X9.8614Y-4.1226
X9.8654Y-4.4159
X9.8756Y-3.212
X9.8768Y-3.0049
X9.8787Y-2.56
X9.8791Y-3.4848
X9.8835Y-3.8108
X9.9008Y-4.0333
X9.9067Y-4.4159
X9.9291Y-3.4829
X9.9291Y-3.7797
X9.9344Y-5.8244
X9.9571Y-2.7998
X9.9787Y-3.4833
X9.9791Y-3.7148
X10.0177Y-3.3762
X10.0413Y-2.7128
X10.0846Y-3.212
X10.0917Y-4.0301
X10.0921Y-3.6833
X10.1024Y-2.9648
X10.1469Y-3.8486
X10.1665Y-4.4789
X10.1701Y-2.7545
X10.1937Y-3.9986
X10.2098Y-6.4494
X10.224Y-2.5128
X10.2283Y-3.0919
X10.2283Y-3.2258
X10.2295Y-3.6785
X10.2374Y-4.414
X10.2457Y-3.8104
X10.2768Y-5.8254
X10.2937Y-3.975
X10.339Y-2.8423
X10.3421Y-6.2191
X10.3465Y-3.7797
X10.3618Y-3.4844
X10.3724Y-5.503
X10.3831Y-6.0104
X10.389Y-2.8762
X10.411Y-3.4848
X10.4264Y-6.1443
X10.4409Y-3.7148
X10.4602Y-3.4844
X10.4705Y-5.8289
X10.4878Y-2.7459
X10.4965Y-6.5951
X10.5098Y-3.4841
X10.513Y-6.0762
X10.5488Y-2.7939
X10.5587Y-3.4844
X10.5681Y-5.9715
X10.576Y-6.1817
X10.6016Y-3.5211
X10.6024Y-2.9644
X10.6114Y-6.3451
X10.6547Y-5.9612
X10.6705Y-3.4463
X10.6705Y-4.7348
X10.6941Y-5.7309
X10.6941Y-6.0104
X10.7138Y-3.7998
X10.7244Y-3.0758
X10.726Y-3.1844
X10.7319Y-5.225
X10.7335Y-5.1061
X10.7657Y-5.1707
X10.7681Y-5.986
X10.772Y-4.5222
X10.7736Y-5.3825
X10.7996Y-3.1451
X10.8075Y-3.9386
X10.8142Y-5.1955
X10.8413Y-4.5793
X10.8539Y-3.2234
X10.8539Y-3.3947
X10.8701Y-6.0022
X10.8772Y-2.5967
X10.878Y-2.8431
X10.8957Y-3.4963
X10.8972Y-3.2616
X10.9028Y-5.103
X10.9047Y-3.7427
X10.9228Y-2.399
X10.9244Y-5.4459
X10.9382Y-4.103
X10.9441Y-6.2565
X10.9795Y-3.4317
X10.9815Y-6.2191
X10.9817Y-2.785
X10.9894Y-6.3982
X11.0248Y-6.036
X11.0276Y-2.6447
X11.0681Y-6.2565
X11.0976Y-5.7329
X11.0996Y-6.1069
X11.1724Y-6.2191
X11.1902Y-5.8057
X11.1902Y-5.9907
X11.2031Y-7.4337
X11.2457Y-5.2285
X11.3059Y-6.1108
X11.3067Y-4.5537
X11.3067Y-4.6226
X11.3067Y-4.9825
X11.3602Y-5.5817
X11.4126Y-4.353
X11.4244Y-6.1049
X11.4472Y-6.347
X11.476Y-6.8939
X11.5169Y-5.8057
X11.5169Y-5.9907
X11.5858Y-6.1443
X11.5976Y-3.7014
X11.5976Y-4.6226
X11.6154Y-6.1797
X11.6665Y-3.603
T3
X11.4432Y-4.9824
X11.4432Y-5.1824
X11.4432Y-5.3824
X11.4432Y-5.5824
T4
X6.0831Y-3.2884
X6.0831Y-3.3884
X6.0831Y-3.4884
T5
X6.8882Y-7.0545
X7.2819Y-7.0545
X9.0004Y-4.7341
X9.1697Y-7.0545
X9.3941Y-4.7341
X9.5378Y-4.7341
X9.5634Y-7.0545
X9.9315Y-4.7341
X10.0783Y-4.7341
X10.472Y-4.7341
X11.1098Y-3.7022
X11.1098Y-4.3809
X11.1114Y-3.0303
X11.5035Y-3.7022
X11.5035Y-4.3809
X11.5051Y-3.0303
T6
X7.665Y-3.223
X7.665Y-4.223
X7.765Y-3.223
X7.765Y-4.223
X7.865Y-3.223
X7.865Y-4.223
X7.965Y-3.223
X7.965Y-4.223
X8.065Y-3.223
X8.065Y-4.223
X8.165Y-3.223
X8.165Y-4.223
X8.265Y-3.223
X8.265Y-4.223
X8.365Y-3.223
X8.365Y-4.223
X8.465Y-3.223
X8.465Y-4.223
X8.565Y-3.223
X8.565Y-4.223
X8.665Y-3.223
X8.665Y-4.223
X8.765Y-3.223
X8.765Y-4.223
X8.865Y-3.223
X8.865Y-4.223
X8.965Y-3.223
X8.965Y-4.223
X9.065Y-3.223
X9.065Y-4.223
X9.165Y-3.223
X9.165Y-4.223
X9.265Y-3.223
X9.265Y-4.223
X9.365Y-3.223
X9.365Y-4.223
X9.465Y-3.223
X9.465Y-4.223
X9.565Y-3.223
X9.565Y-4.223
T7
X6.0315Y-2.7742
X6.0315Y-2.8726
X6.8843Y-3.1611
X6.8843Y-3.2611
X6.9843Y-3.1611
X6.9843Y-3.2611
X7.0843Y-3.1611
X7.0843Y-3.2611
X7.1843Y-3.1611
X7.1843Y-3.2611
X7.2843Y-3.1611
X7.2843Y-3.2611
X7.3843Y-3.1611
X7.3843Y-3.2611
X9.1667Y-2.4665
X9.2652Y-2.4665
X9.3636Y-2.4665
X9.462Y-2.4665
X9.9937Y-4.1238
X9.9937Y-4.2238
X10.0937Y-4.1238
X10.0937Y-4.2238
X10.1937Y-4.1238
X10.1937Y-4.2238
X10.2937Y-4.1238
X10.2937Y-4.2238
X10.3937Y-4.1238
X10.3937Y-4.2238
X10.4937Y-4.1238
X10.4937Y-4.2238
X10.5937Y-4.1238
X10.5937Y-4.2238
T8
X11.0801Y-2.3992
X11.0801Y-2.4976
X11.0801Y-2.5961
X11.0801Y-2.6945
X11.3657Y-7.4337
X11.4642Y-7.4337
X11.5626Y-7.4337
X11.661Y-7.4337
T9
X7.5321Y-2.3481
X7.6321Y-2.3481
X7.7321Y-2.3481
X7.8321Y-2.3481
X7.9321Y-2.3481
X8.0321Y-2.3481
X8.1321Y-2.3481
X8.2321Y-2.3481
X8.3321Y-2.3481
X8.4321Y-2.3481
T10
X11.4461Y-6.538
X11.5961Y-6.538
T11
X6.8882Y-7.4561
X7.085Y-6.9561
X7.2819Y-7.4561
X9.0004Y-5.1356
X9.1697Y-7.4561
X9.1972Y-4.6356
X9.3665Y-6.9561
X9.3941Y-5.1356
X9.5378Y-5.1356
X9.5634Y-7.4561
X9.7346Y-4.6356
X9.9315Y-5.1356
X10.0783Y-5.1356
X10.2752Y-4.6356
X10.472Y-5.1356
X11.1098Y-4.1037
X11.1098Y-4.7825
X11.1114Y-3.4319
X11.3067Y-3.6037
X11.3067Y-4.2825
X11.3083Y-2.9319
X11.5035Y-4.1037
X11.5035Y-4.7825
X11.5051Y-3.4319
T12
X5.387Y-6.6274
X5.387Y-6.8242
X5.5445Y-6.6274
X5.5445Y-6.8242
X5.702Y-6.6274
X5.702Y-6.8242
X5.8594Y-6.8242
X6.0169Y-6.8242
X6.1744Y-6.6274
X6.1744Y-6.8242
X6.3319Y-6.6274
X6.3319Y-6.8242
X6.4894Y-6.6274
X6.4894Y-6.8242
X7.6705Y-6.6246
X7.6705Y-6.8215
X7.828Y-6.6246
X7.828Y-6.8215
X7.9854Y-6.6246
X7.9854Y-6.8215
X8.1429Y-6.8215
X8.3004Y-6.8215
X8.4579Y-6.6246
X8.4579Y-6.8215
X8.6154Y-6.6246
X8.6154Y-6.8215
X8.7728Y-6.6246
X8.7728Y-6.8215
X9.9591Y-6.6157
X9.9591Y-6.8126
X10.1165Y-6.6157
X10.1165Y-6.8126
X10.274Y-6.6157
X10.274Y-6.8126
X10.4315Y-6.8126
X10.589Y-6.8126
X10.7465Y-6.6157
X10.7465Y-6.8126
X10.9039Y-6.6157
X10.9039Y-6.8126
X11.0614Y-6.6157
X11.0614Y-6.8126
T13
X5.0108Y-4.786
X5.0108Y-5.0813
X5.0118Y-2.9451
X5.0118Y-3.2404
X5.5463Y-4.786
X5.5463Y-5.0813
X5.5472Y-2.9451
X5.5472Y-3.2404
T14
X5.8463Y-2.4589
X8.7343Y-4.8998
X11.5569Y-2.4589
T15
X5.2785Y-4.9337
X5.2795Y-3.0927
T2
G00X5.1039Y-5.4089
M15
G01X5.1551Y-5.4089
M16
G05
G00X5.1039Y-5.5545
M15
G01X5.1551Y-5.5545
M16
G05
G00X5.1039Y-5.7238
M15
G01X5.1551Y-5.7238
M16
G05
G00X5.1039Y-5.8695
M15
G01X5.1551Y-5.8695
M16
G05
G00X5.4583Y-5.4089
M15
G01X5.5094Y-5.4089
M16
G05
G00X5.4583Y-5.5545
M15
G01X5.5094Y-5.5545
M16
G05
G00X5.4583Y-5.7238
M15
G01X5.5094Y-5.7238
M16
G05
G00X5.4583Y-5.8695
M15
G01X5.5094Y-5.8695
M16
G05
G00X5.8129Y-5.4085
M15
G01X5.8641Y-5.4085
M16
G05
G00X5.8129Y-5.5541
M15
G01X5.8641Y-5.5541
M16
G05
G00X5.8129Y-5.7234
M15
G01X5.8641Y-5.7234
M16
G05
G00X5.8129Y-5.8691
M15
G01X5.8641Y-5.8691
M16
G05
G00X6.1672Y-5.4085
M15
G01X6.2184Y-5.4085
M16
G05
G00X6.1672Y-5.5541
M15
G01X6.2184Y-5.5541
M16
G05
G00X6.1672Y-5.7234
M15
G01X6.2184Y-5.7234
M16
G05
G00X6.1672Y-5.8691
M15
G01X6.2184Y-5.8691
M16
G05
G00X6.5215Y-5.4085
M15
G01X6.5727Y-5.4085
M16
G05
G00X6.5215Y-5.5541
M15
G01X6.5727Y-5.5541
M16
G05
G00X6.5215Y-5.7234
M15
G01X6.5727Y-5.7234
M16
G05
G00X6.5215Y-5.8691
M15
G01X6.5727Y-5.8691
M16
G05
G00X6.8759Y-5.4085
M15
G01X6.927Y-5.4085
M16
G05
G00X6.8759Y-5.5541
M15
G01X6.927Y-5.5541
M16
G05
G00X6.8759Y-5.7234
M15
G01X6.927Y-5.7234
M16
G05
G00X6.8759Y-5.8691
M15
G01X6.927Y-5.8691
M16
G05
G00X7.2298Y-5.4085
M15
G01X7.281Y-5.4085
M16
G05
G00X7.2298Y-5.5541
M15
G01X7.281Y-5.5541
M16
G05
G00X7.2298Y-5.7234
M15
G01X7.281Y-5.7234
M16
G05
G00X7.2298Y-5.8691
M15
G01X7.281Y-5.8691
M16
G05
G00X7.5849Y-5.4085
M15
G01X7.6361Y-5.4085
M16
G05
G00X7.5849Y-5.5541
M15
G01X7.6361Y-5.5541
M16
G05
G00X7.5849Y-5.7234
M15
G01X7.6361Y-5.7234
M16
G05
G00X7.5849Y-5.8691
M15
G01X7.6361Y-5.8691
M16
G05
G00X7.9395Y-5.4085
M15
G01X7.9907Y-5.4085
M16
G05
G00X7.9395Y-5.5541
M15
G01X7.9907Y-5.5541
M16
G05
G00X7.9395Y-5.7234
M15
G01X7.9907Y-5.7234
M16
G05
G00X7.9395Y-5.8691
M15
G01X7.9907Y-5.8691
M16
G05
G00X8.2944Y-5.4085
M15
G01X8.3456Y-5.4085
M16
G05
G00X8.2944Y-5.5541
M15
G01X8.3456Y-5.5541
M16
G05
G00X8.2944Y-5.7234
M15
G01X8.3456Y-5.7234
M16
G05
G00X8.2944Y-5.8691
M15
G01X8.3456Y-5.8691
M16
G05
G00X8.6488Y-5.4061
M15
G01X8.7Y-5.4061
M16
G05
G00X8.6488Y-5.5518
M15
G01X8.7Y-5.5518
M16
G05
G00X8.6488Y-5.7211
M15
G01X8.7Y-5.7211
M16
G05
G00X8.6488Y-5.8667
M15
G01X8.7Y-5.8667
M16
G05
G00X9.0031Y-5.4061
M15
G01X9.0543Y-5.4061
M16
G05
G00X9.0031Y-5.5518
M15
G01X9.0543Y-5.5518
M16
G05
G00X9.0031Y-5.7211
M15
G01X9.0543Y-5.7211
M16
G05
G00X9.0031Y-5.8667
M15
G01X9.0543Y-5.8667
M16
G05
G00X9.3575Y-5.4061
M15
G01X9.4087Y-5.4061
M16
G05
G00X9.3575Y-5.5518
M15
G01X9.4087Y-5.5518
M16
G05
G00X9.3575Y-5.7211
M15
G01X9.4087Y-5.7211
M16
G05
G00X9.3575Y-5.8667
M15
G01X9.4087Y-5.8667
M16
G05
G00X9.7118Y-5.4061
M15
G01X9.763Y-5.4061
M16
G05
G00X9.7118Y-5.5518
M15
G01X9.763Y-5.5518
M16
G05
G00X9.7118Y-5.7211
M15
G01X9.763Y-5.7211
M16
G05
G00X9.7118Y-5.8667
M15
G01X9.763Y-5.8667
M16
G05
G00X10.0657Y-5.4061
M15
G01X10.1169Y-5.4061
M16
G05
G00X10.0657Y-5.5518
M15
G01X10.1169Y-5.5518
M16
G05
G00X10.0657Y-5.7211
M15
G01X10.1169Y-5.7211
M16
G05
G00X10.0657Y-5.8667
M15
G01X10.1169Y-5.8667
M16
G05
M30
