%TF.GenerationSoftware,KiCad,Pcbnew,8.0.4*%
%TF.CreationDate,2024-11-04T15:16:16+09:00*%
%TF.ProjectId,L-CON V3.0,4c2d434f-4e20-4563-932e-302e6b696361,rev?*%
%TF.SameCoordinates,Original*%
%TF.FileFunction,Paste,Top*%
%TF.FilePolarity,Positive*%
%FSLAX46Y46*%
G04 Gerber Fmt 4.6, Leading zero omitted, Abs format (unit mm)*
G04 Created by KiCad (PCBNEW 8.0.4) date 2024-11-04 15:16:16*
%MOMM*%
%LPD*%
G01*
G04 APERTURE LIST*
G04 Aperture macros list*
%AMRoundRect*
0 Rectangle with rounded corners*
0 $1 Rounding radius*
0 $2 $3 $4 $5 $6 $7 $8 $9 X,Y pos of 4 corners*
0 Add a 4 corners polygon primitive as box body*
4,1,4,$2,$3,$4,$5,$6,$7,$8,$9,$2,$3,0*
0 Add four circle primitives for the rounded corners*
1,1,$1+$1,$2,$3*
1,1,$1+$1,$4,$5*
1,1,$1+$1,$6,$7*
1,1,$1+$1,$8,$9*
0 Add four rect primitives between the rounded corners*
20,1,$1+$1,$2,$3,$4,$5,0*
20,1,$1+$1,$4,$5,$6,$7,0*
20,1,$1+$1,$6,$7,$8,$9,0*
20,1,$1+$1,$8,$9,$2,$3,0*%
G04 Aperture macros list end*
%ADD10R,1.500000X1.250000*%
%ADD11RoundRect,0.325000X-0.325000X-0.325000X0.325000X-0.325000X0.325000X0.325000X-0.325000X0.325000X0*%
%ADD12R,1.000000X1.100000*%
%ADD13RoundRect,0.325000X0.325000X0.325000X-0.325000X0.325000X-0.325000X-0.325000X0.325000X-0.325000X0*%
%ADD14RoundRect,0.300000X-1.450000X-0.950000X1.450000X-0.950000X1.450000X0.950000X-1.450000X0.950000X0*%
%ADD15RoundRect,0.190000X0.610000X0.190000X-0.610000X0.190000X-0.610000X-0.190000X0.610000X-0.190000X0*%
%ADD16R,1.800000X2.500000*%
%ADD17R,5.000000X5.000000*%
%ADD18RoundRect,0.225000X-0.775000X-0.225000X0.775000X-0.225000X0.775000X0.225000X-0.775000X0.225000X0*%
%ADD19RoundRect,0.225000X0.225000X-0.775000X0.225000X0.775000X-0.225000X0.775000X-0.225000X-0.775000X0*%
%ADD20RoundRect,0.312500X-0.312500X0.437500X-0.312500X-0.437500X0.312500X-0.437500X0.312500X0.437500X0*%
%ADD21R,2.000000X3.000000*%
%ADD22R,1.500000X2.500000*%
%ADD23R,2.750000X3.050000*%
%ADD24RoundRect,0.312500X0.312500X-0.437500X0.312500X0.437500X-0.312500X0.437500X-0.312500X-0.437500X0*%
%ADD25R,2.000000X3.800000*%
%ADD26R,2.000000X1.500000*%
%ADD27R,1.200000X1.000000*%
%ADD28R,0.800000X1.600000*%
%ADD29R,1.100000X0.700000*%
%ADD30RoundRect,0.312500X-0.437500X-0.312500X0.437500X-0.312500X0.437500X0.312500X-0.437500X0.312500X0*%
%ADD31R,1.200000X0.900000*%
%ADD32R,1.500000X1.500000*%
%ADD33R,1.100000X1.000000*%
G04 APERTURE END LIST*
D10*
%TO.C,D22*%
X137925000Y-229350000D03*
X140425000Y-229350000D03*
%TD*%
%TO.C,D6*%
X77670000Y-151775000D03*
X75170000Y-151775000D03*
%TD*%
D11*
%TO.C,R24*%
X105255000Y-189910000D03*
X102955000Y-189910000D03*
%TD*%
D12*
%TO.C,Q8*%
X102202500Y-210080000D03*
X101252500Y-208080000D03*
X103152500Y-208080000D03*
%TD*%
D13*
%TO.C,R8*%
X72325000Y-203330000D03*
X74625000Y-203330000D03*
%TD*%
D11*
%TO.C,R14*%
X88352500Y-212250000D03*
X86052500Y-212250000D03*
%TD*%
D14*
%TO.C,MO3*%
X88615000Y-199145000D03*
X88615000Y-190555000D03*
X73485000Y-199145000D03*
X73515000Y-190575000D03*
%TD*%
D15*
%TO.C,SW7*%
X117029000Y-178673000D03*
X117029000Y-177403000D03*
X117029000Y-176133000D03*
X117029000Y-174863000D03*
X124729000Y-174863000D03*
X124729000Y-176133000D03*
X124729000Y-177403000D03*
X124729000Y-178673000D03*
%TD*%
D16*
%TO.C,D5*%
X67415000Y-196670000D03*
X67415000Y-200670000D03*
%TD*%
D10*
%TO.C,D2*%
X61725000Y-229350000D03*
X64225000Y-229350000D03*
%TD*%
D17*
%TO.C,U2*%
X117795000Y-157235000D03*
D18*
X127785000Y-149730000D03*
X127785000Y-151000000D03*
X127785000Y-152270000D03*
X127785000Y-153540000D03*
X127785000Y-154810000D03*
X127785000Y-156080000D03*
X127785000Y-157350000D03*
X127785000Y-158620000D03*
X127785000Y-159890000D03*
X127785000Y-161160000D03*
X127785000Y-162430000D03*
X127785000Y-163700000D03*
X127785000Y-164970000D03*
X127785000Y-166240000D03*
D19*
X125775000Y-167750000D03*
X124505000Y-167750000D03*
X123240000Y-167750000D03*
X121965000Y-167750000D03*
X120695000Y-167750000D03*
X119425000Y-167750000D03*
X118155000Y-167750000D03*
X116895000Y-167750000D03*
X115625000Y-167750000D03*
X114355000Y-167750000D03*
X113080000Y-167750000D03*
X111805000Y-167750000D03*
D18*
X109795000Y-166230000D03*
X109795000Y-164960000D03*
X109795000Y-163690000D03*
X109795000Y-162420000D03*
X109795000Y-161150000D03*
X109795000Y-159880000D03*
X109795000Y-158610000D03*
X109795000Y-157340000D03*
X109795000Y-156070000D03*
X109795000Y-154800000D03*
X109795000Y-153530000D03*
X109795000Y-152260000D03*
X109795000Y-150990000D03*
X109795000Y-149720000D03*
%TD*%
D11*
%TO.C,R21*%
X116370000Y-212250000D03*
X114070000Y-212250000D03*
%TD*%
D10*
%TO.C,D10*%
X107425000Y-229350000D03*
X109925000Y-229350000D03*
%TD*%
D13*
%TO.C,R16*%
X101052500Y-203330000D03*
X103352500Y-203330000D03*
%TD*%
D20*
%TO.C,C3*%
X81825000Y-152500000D03*
X81825000Y-150100000D03*
%TD*%
D13*
%TO.C,R7*%
X72325000Y-205830000D03*
X74625000Y-205830000D03*
%TD*%
D12*
%TO.C,Q3*%
X73475000Y-210080000D03*
X72525000Y-208080000D03*
X74425000Y-208080000D03*
%TD*%
D10*
%TO.C,D1*%
X77670000Y-154275000D03*
X75170000Y-154275000D03*
%TD*%
D21*
%TO.C,Q1*%
X71200000Y-216243000D03*
D22*
X75766000Y-216243000D03*
D23*
X71955000Y-225225000D03*
X75005000Y-225225000D03*
X71955000Y-221875000D03*
X75005000Y-221875000D03*
%TD*%
D24*
%TO.C,C12*%
X100435000Y-159450000D03*
X100435000Y-161850000D03*
%TD*%
D12*
%TO.C,Q5*%
X87202500Y-210080000D03*
X86252500Y-208080000D03*
X88152500Y-208080000D03*
%TD*%
D21*
%TO.C,Q6*%
X84927500Y-216243000D03*
D22*
X89493500Y-216243000D03*
D23*
X85682500Y-225225000D03*
X88732500Y-225225000D03*
X85682500Y-221875000D03*
X88732500Y-221875000D03*
%TD*%
D10*
%TO.C,D20*%
X71500000Y-154275000D03*
X69000000Y-154275000D03*
%TD*%
D13*
%TO.C,R9*%
X86052500Y-203330000D03*
X88352500Y-203330000D03*
%TD*%
D25*
%TO.C,U1*%
X104825000Y-153150000D03*
D26*
X98525000Y-155450000D03*
X98525000Y-153150000D03*
X98525000Y-150850000D03*
%TD*%
D13*
%TO.C,R33*%
X106155000Y-173690000D03*
X108455000Y-173690000D03*
%TD*%
D27*
%TO.C,SW1*%
X95885000Y-145970000D03*
X103685000Y-145970000D03*
X95885000Y-143770000D03*
X103685000Y-143770000D03*
D28*
X97585000Y-147170000D03*
X99035000Y-147170000D03*
X102035000Y-147170000D03*
%TD*%
D10*
%TO.C,D17*%
X153125000Y-229350000D03*
X155625000Y-229350000D03*
%TD*%
D11*
%TO.C,R5*%
X74625000Y-212250000D03*
X72325000Y-212250000D03*
%TD*%
D21*
%TO.C,Q12*%
X112945000Y-216243000D03*
D22*
X117511000Y-216243000D03*
D23*
X113700000Y-225225000D03*
X116750000Y-225225000D03*
X113700000Y-221875000D03*
X116750000Y-221875000D03*
%TD*%
D29*
%TO.C,SW5*%
X139125000Y-155890000D03*
X134925000Y-155890000D03*
X139125000Y-158090000D03*
X134925000Y-158090000D03*
%TD*%
D11*
%TO.C,R26*%
X105275000Y-200540000D03*
X102975000Y-200540000D03*
%TD*%
D13*
%TO.C,R27*%
X97055000Y-171440000D03*
X99355000Y-171440000D03*
%TD*%
D10*
%TO.C,D23*%
X144455000Y-177250000D03*
X141955000Y-177250000D03*
%TD*%
D13*
%TO.C,R18*%
X101052500Y-205830000D03*
X103352500Y-205830000D03*
%TD*%
%TO.C,R13*%
X86052500Y-205830000D03*
X88352500Y-205830000D03*
%TD*%
D10*
%TO.C,D11*%
X122725000Y-229350000D03*
X125225000Y-229350000D03*
%TD*%
D11*
%TO.C,R30*%
X99355000Y-173690000D03*
X97055000Y-173690000D03*
%TD*%
%TO.C,R20*%
X103352500Y-212250000D03*
X101052500Y-212250000D03*
%TD*%
D30*
%TO.C,C11*%
X99405000Y-175940000D03*
X97005000Y-175940000D03*
%TD*%
D13*
%TO.C,R19*%
X114070000Y-205830000D03*
X116370000Y-205830000D03*
%TD*%
D29*
%TO.C,SW2*%
X139125000Y-150740000D03*
X134925000Y-150740000D03*
X139125000Y-152940000D03*
X134925000Y-152940000D03*
%TD*%
D31*
%TO.C,D27*%
X115975000Y-196777500D03*
X115975000Y-193477500D03*
%TD*%
D12*
%TO.C,Q9*%
X115220000Y-210080000D03*
X114270000Y-208080000D03*
X116170000Y-208080000D03*
%TD*%
D10*
%TO.C,D8*%
X84525000Y-229350000D03*
X87025000Y-229350000D03*
%TD*%
%TO.C,D15*%
X144455000Y-169630000D03*
X141955000Y-169630000D03*
%TD*%
D11*
%TO.C,R32*%
X108455000Y-171440000D03*
X106155000Y-171440000D03*
%TD*%
D31*
%TO.C,D4*%
X153865000Y-202770000D03*
X153865000Y-206070000D03*
%TD*%
D21*
%TO.C,Q10*%
X99927500Y-216243000D03*
D22*
X104493500Y-216243000D03*
D23*
X100682500Y-225225000D03*
X103732500Y-225225000D03*
X100682500Y-221875000D03*
X103732500Y-221875000D03*
%TD*%
D13*
%TO.C,R17*%
X114070000Y-203330000D03*
X116370000Y-203330000D03*
%TD*%
%TO.C,R31*%
X97055000Y-178190000D03*
X99355000Y-178190000D03*
%TD*%
D32*
%TO.C,SW4*%
X140925000Y-156990000D03*
X133125000Y-156990000D03*
%TD*%
%TO.C,SW3*%
X140925000Y-151840000D03*
X133125000Y-151840000D03*
%TD*%
D10*
%TO.C,D21*%
X71500000Y-151775000D03*
X69000000Y-151775000D03*
%TD*%
D27*
%TO.C,SW6*%
X118500000Y-183075000D03*
X110700000Y-183075000D03*
X118500000Y-185275000D03*
X110700000Y-185275000D03*
D28*
X116800000Y-181875000D03*
X115350000Y-181875000D03*
X112350000Y-181875000D03*
%TD*%
D33*
%TO.C,Q16*%
X108525000Y-176975000D03*
X106525000Y-177925000D03*
X106525000Y-176025000D03*
%TD*%
D10*
%TO.C,D22*%
X137925000Y-128750000D03*
X140425000Y-128750000D03*
%TD*%
D27*
%TO.C,SW6*%
X118500000Y-82475000D03*
X110700000Y-82475000D03*
X118500000Y-84675000D03*
X110700000Y-84675000D03*
D28*
X116800000Y-81275000D03*
X115350000Y-81275000D03*
X112350000Y-81275000D03*
%TD*%
D33*
%TO.C,Q16*%
X108525000Y-76375000D03*
X106525000Y-77325000D03*
X106525000Y-75425000D03*
%TD*%
D13*
%TO.C,R31*%
X97055000Y-77590000D03*
X99355000Y-77590000D03*
%TD*%
D10*
%TO.C,D21*%
X71500000Y-51175000D03*
X69000000Y-51175000D03*
%TD*%
D32*
%TO.C,SW3*%
X140925000Y-51240000D03*
X133125000Y-51240000D03*
%TD*%
%TO.C,SW4*%
X140925000Y-56390000D03*
X133125000Y-56390000D03*
%TD*%
D29*
%TO.C,SW2*%
X139125000Y-50140000D03*
X134925000Y-50140000D03*
X139125000Y-52340000D03*
X134925000Y-52340000D03*
%TD*%
D13*
%TO.C,R13*%
X86052500Y-105230000D03*
X88352500Y-105230000D03*
%TD*%
%TO.C,R18*%
X101052500Y-105230000D03*
X103352500Y-105230000D03*
%TD*%
D10*
%TO.C,D11*%
X122725000Y-128750000D03*
X125225000Y-128750000D03*
%TD*%
D11*
%TO.C,R30*%
X99355000Y-73090000D03*
X97055000Y-73090000D03*
%TD*%
D30*
%TO.C,C11*%
X99405000Y-75340000D03*
X97005000Y-75340000D03*
%TD*%
D11*
%TO.C,R20*%
X103352500Y-111650000D03*
X101052500Y-111650000D03*
%TD*%
D13*
%TO.C,R19*%
X114070000Y-105230000D03*
X116370000Y-105230000D03*
%TD*%
%TO.C,R17*%
X114070000Y-102730000D03*
X116370000Y-102730000D03*
%TD*%
D21*
%TO.C,Q6*%
X84927500Y-115643000D03*
D22*
X89493500Y-115643000D03*
D23*
X85682500Y-124625000D03*
X88732500Y-124625000D03*
X85682500Y-121275000D03*
X88732500Y-121275000D03*
%TD*%
D12*
%TO.C,Q5*%
X87202500Y-109480000D03*
X86252500Y-107480000D03*
X88152500Y-107480000D03*
%TD*%
D13*
%TO.C,R33*%
X106155000Y-73090000D03*
X108455000Y-73090000D03*
%TD*%
D27*
%TO.C,SW1*%
X95885000Y-45370000D03*
X103685000Y-45370000D03*
X95885000Y-43170000D03*
X103685000Y-43170000D03*
D28*
X97585000Y-46570000D03*
X99035000Y-46570000D03*
X102035000Y-46570000D03*
%TD*%
D13*
%TO.C,R9*%
X86052500Y-102730000D03*
X88352500Y-102730000D03*
%TD*%
D25*
%TO.C,U1*%
X104825000Y-52550000D03*
D26*
X98525000Y-54850000D03*
X98525000Y-52550000D03*
X98525000Y-50250000D03*
%TD*%
D10*
%TO.C,D20*%
X71500000Y-53675000D03*
X69000000Y-53675000D03*
%TD*%
D13*
%TO.C,R27*%
X97055000Y-70840000D03*
X99355000Y-70840000D03*
%TD*%
D29*
%TO.C,SW5*%
X139125000Y-55290000D03*
X134925000Y-55290000D03*
X139125000Y-57490000D03*
X134925000Y-57490000D03*
%TD*%
D11*
%TO.C,R5*%
X74625000Y-111650000D03*
X72325000Y-111650000D03*
%TD*%
D21*
%TO.C,Q12*%
X112945000Y-115643000D03*
D22*
X117511000Y-115643000D03*
D23*
X113700000Y-124625000D03*
X116750000Y-124625000D03*
X113700000Y-121275000D03*
X116750000Y-121275000D03*
%TD*%
D10*
%TO.C,D23*%
X144455000Y-76650000D03*
X141955000Y-76650000D03*
%TD*%
D11*
%TO.C,R26*%
X105275000Y-99940000D03*
X102975000Y-99940000D03*
%TD*%
D10*
%TO.C,D1*%
X77670000Y-53675000D03*
X75170000Y-53675000D03*
%TD*%
D13*
%TO.C,R7*%
X72325000Y-105230000D03*
X74625000Y-105230000D03*
%TD*%
D10*
%TO.C,D10*%
X107425000Y-128750000D03*
X109925000Y-128750000D03*
%TD*%
D24*
%TO.C,C12*%
X100435000Y-58850000D03*
X100435000Y-61250000D03*
%TD*%
D12*
%TO.C,Q3*%
X73475000Y-109480000D03*
X72525000Y-107480000D03*
X74425000Y-107480000D03*
%TD*%
D20*
%TO.C,C3*%
X81825000Y-51900000D03*
X81825000Y-49500000D03*
%TD*%
D13*
%TO.C,R16*%
X101052500Y-102730000D03*
X103352500Y-102730000D03*
%TD*%
D21*
%TO.C,Q1*%
X71200000Y-115643000D03*
D22*
X75766000Y-115643000D03*
D23*
X71955000Y-124625000D03*
X75005000Y-124625000D03*
X71955000Y-121275000D03*
X75005000Y-121275000D03*
%TD*%
D11*
%TO.C,R21*%
X116370000Y-111650000D03*
X114070000Y-111650000D03*
%TD*%
D10*
%TO.C,D8*%
X84525000Y-128750000D03*
X87025000Y-128750000D03*
%TD*%
D21*
%TO.C,Q10*%
X99927500Y-115643000D03*
D22*
X104493500Y-115643000D03*
D23*
X100682500Y-124625000D03*
X103732500Y-124625000D03*
X100682500Y-121275000D03*
X103732500Y-121275000D03*
%TD*%
D12*
%TO.C,Q9*%
X115220000Y-109480000D03*
X114270000Y-107480000D03*
X116170000Y-107480000D03*
%TD*%
D11*
%TO.C,R32*%
X108455000Y-70840000D03*
X106155000Y-70840000D03*
%TD*%
D31*
%TO.C,D4*%
X153865000Y-102170000D03*
X153865000Y-105470000D03*
%TD*%
D10*
%TO.C,D15*%
X144455000Y-69030000D03*
X141955000Y-69030000D03*
%TD*%
D31*
%TO.C,D27*%
X115975000Y-96177500D03*
X115975000Y-92877500D03*
%TD*%
D15*
%TO.C,SW7*%
X117029000Y-78073000D03*
X117029000Y-76803000D03*
X117029000Y-75533000D03*
X117029000Y-74263000D03*
X124729000Y-74263000D03*
X124729000Y-75533000D03*
X124729000Y-76803000D03*
X124729000Y-78073000D03*
%TD*%
D14*
%TO.C,MO3*%
X88615000Y-98545000D03*
X88615000Y-89955000D03*
X73485000Y-98545000D03*
X73515000Y-89975000D03*
%TD*%
D16*
%TO.C,D5*%
X67415000Y-96070000D03*
X67415000Y-100070000D03*
%TD*%
D17*
%TO.C,U2*%
X117795000Y-56635000D03*
D18*
X127785000Y-49130000D03*
X127785000Y-50400000D03*
X127785000Y-51670000D03*
X127785000Y-52940000D03*
X127785000Y-54210000D03*
X127785000Y-55480000D03*
X127785000Y-56750000D03*
X127785000Y-58020000D03*
X127785000Y-59290000D03*
X127785000Y-60560000D03*
X127785000Y-61830000D03*
X127785000Y-63100000D03*
X127785000Y-64370000D03*
X127785000Y-65640000D03*
D19*
X125775000Y-67150000D03*
X124505000Y-67150000D03*
X123240000Y-67150000D03*
X121965000Y-67150000D03*
X120695000Y-67150000D03*
X119425000Y-67150000D03*
X118155000Y-67150000D03*
X116895000Y-67150000D03*
X115625000Y-67150000D03*
X114355000Y-67150000D03*
X113080000Y-67150000D03*
X111805000Y-67150000D03*
D18*
X109795000Y-65630000D03*
X109795000Y-64360000D03*
X109795000Y-63090000D03*
X109795000Y-61820000D03*
X109795000Y-60550000D03*
X109795000Y-59280000D03*
X109795000Y-58010000D03*
X109795000Y-56740000D03*
X109795000Y-55470000D03*
X109795000Y-54200000D03*
X109795000Y-52930000D03*
X109795000Y-51660000D03*
X109795000Y-50390000D03*
X109795000Y-49120000D03*
%TD*%
D10*
%TO.C,D2*%
X61725000Y-128750000D03*
X64225000Y-128750000D03*
%TD*%
D11*
%TO.C,R24*%
X105255000Y-89310000D03*
X102955000Y-89310000D03*
%TD*%
%TO.C,R14*%
X88352500Y-111650000D03*
X86052500Y-111650000D03*
%TD*%
D12*
%TO.C,Q8*%
X102202500Y-109480000D03*
X101252500Y-107480000D03*
X103152500Y-107480000D03*
%TD*%
D13*
%TO.C,R8*%
X72325000Y-102730000D03*
X74625000Y-102730000D03*
%TD*%
D10*
%TO.C,D6*%
X77670000Y-51175000D03*
X75170000Y-51175000D03*
%TD*%
%TO.C,D17*%
X153125000Y-128750000D03*
X155625000Y-128750000D03*
%TD*%
M02*
