%TF.GenerationSoftware,KiCad,Pcbnew,7.0.1*%
%TF.CreationDate,2024-04-02T15:52:51+09:00*%
%TF.ProjectId,Lift_Main_V5.0,4c696674-5f4d-4616-996e-5f56352e302e,rev?*%
%TF.SameCoordinates,Original*%
%TF.FileFunction,Legend,Bot*%
%TF.FilePolarity,Positive*%
%FSLAX46Y46*%
G04 Gerber Fmt 4.6, Leading zero omitted, Abs format (unit mm)*
G04 Created by KiCad (PCBNEW 7.0.1) date 2024-04-02 15:52:51*
%MOMM*%
%LPD*%
G01*
G04 APERTURE LIST*
%ADD10C,0.150000*%
%ADD11C,0.120000*%
%ADD12C,0.200000*%
%ADD13C,0.100000*%
G04 APERTURE END LIST*
D10*
%TO.C,R10*%
X92045713Y-369952619D02*
X91426666Y-369952619D01*
X91426666Y-369952619D02*
X91759999Y-370333571D01*
X91759999Y-370333571D02*
X91617142Y-370333571D01*
X91617142Y-370333571D02*
X91521904Y-370381190D01*
X91521904Y-370381190D02*
X91474285Y-370428809D01*
X91474285Y-370428809D02*
X91426666Y-370524047D01*
X91426666Y-370524047D02*
X91426666Y-370762142D01*
X91426666Y-370762142D02*
X91474285Y-370857380D01*
X91474285Y-370857380D02*
X91521904Y-370905000D01*
X91521904Y-370905000D02*
X91617142Y-370952619D01*
X91617142Y-370952619D02*
X91902856Y-370952619D01*
X91902856Y-370952619D02*
X91998094Y-370905000D01*
X91998094Y-370905000D02*
X92045713Y-370857380D01*
X91093332Y-369952619D02*
X90474285Y-369952619D01*
X90474285Y-369952619D02*
X90807618Y-370333571D01*
X90807618Y-370333571D02*
X90664761Y-370333571D01*
X90664761Y-370333571D02*
X90569523Y-370381190D01*
X90569523Y-370381190D02*
X90521904Y-370428809D01*
X90521904Y-370428809D02*
X90474285Y-370524047D01*
X90474285Y-370524047D02*
X90474285Y-370762142D01*
X90474285Y-370762142D02*
X90521904Y-370857380D01*
X90521904Y-370857380D02*
X90569523Y-370905000D01*
X90569523Y-370905000D02*
X90664761Y-370952619D01*
X90664761Y-370952619D02*
X90950475Y-370952619D01*
X90950475Y-370952619D02*
X91045713Y-370905000D01*
X91045713Y-370905000D02*
X91093332Y-370857380D01*
X89855237Y-369952619D02*
X89759999Y-369952619D01*
X89759999Y-369952619D02*
X89664761Y-370000238D01*
X89664761Y-370000238D02*
X89617142Y-370047857D01*
X89617142Y-370047857D02*
X89569523Y-370143095D01*
X89569523Y-370143095D02*
X89521904Y-370333571D01*
X89521904Y-370333571D02*
X89521904Y-370571666D01*
X89521904Y-370571666D02*
X89569523Y-370762142D01*
X89569523Y-370762142D02*
X89617142Y-370857380D01*
X89617142Y-370857380D02*
X89664761Y-370905000D01*
X89664761Y-370905000D02*
X89759999Y-370952619D01*
X89759999Y-370952619D02*
X89855237Y-370952619D01*
X89855237Y-370952619D02*
X89950475Y-370905000D01*
X89950475Y-370905000D02*
X89998094Y-370857380D01*
X89998094Y-370857380D02*
X90045713Y-370762142D01*
X90045713Y-370762142D02*
X90093332Y-370571666D01*
X90093332Y-370571666D02*
X90093332Y-370333571D01*
X90093332Y-370333571D02*
X90045713Y-370143095D01*
X90045713Y-370143095D02*
X89998094Y-370047857D01*
X89998094Y-370047857D02*
X89950475Y-370000238D01*
X89950475Y-370000238D02*
X89855237Y-369952619D01*
%TO.C,R19*%
X96545952Y-361449523D02*
X97212619Y-361449523D01*
X96165000Y-361211428D02*
X96879285Y-360973333D01*
X96879285Y-360973333D02*
X96879285Y-361592380D01*
X96212619Y-361878095D02*
X96212619Y-362544761D01*
X96212619Y-362544761D02*
X97212619Y-362116190D01*
X96212619Y-362830476D02*
X96212619Y-363449523D01*
X96212619Y-363449523D02*
X96593571Y-363116190D01*
X96593571Y-363116190D02*
X96593571Y-363259047D01*
X96593571Y-363259047D02*
X96641190Y-363354285D01*
X96641190Y-363354285D02*
X96688809Y-363401904D01*
X96688809Y-363401904D02*
X96784047Y-363449523D01*
X96784047Y-363449523D02*
X97022142Y-363449523D01*
X97022142Y-363449523D02*
X97117380Y-363401904D01*
X97117380Y-363401904D02*
X97165000Y-363354285D01*
X97165000Y-363354285D02*
X97212619Y-363259047D01*
X97212619Y-363259047D02*
X97212619Y-362973333D01*
X97212619Y-362973333D02*
X97165000Y-362878095D01*
X97165000Y-362878095D02*
X97117380Y-362830476D01*
X96688809Y-364211428D02*
X96688809Y-363878095D01*
X97212619Y-363878095D02*
X96212619Y-363878095D01*
X96212619Y-363878095D02*
X96212619Y-364354285D01*
%TO.C,R22*%
X125195238Y-312462619D02*
X125766666Y-312462619D01*
X125480952Y-312462619D02*
X125480952Y-311462619D01*
X125480952Y-311462619D02*
X125576190Y-311605476D01*
X125576190Y-311605476D02*
X125671428Y-311700714D01*
X125671428Y-311700714D02*
X125766666Y-311748333D01*
X124576190Y-311462619D02*
X124480952Y-311462619D01*
X124480952Y-311462619D02*
X124385714Y-311510238D01*
X124385714Y-311510238D02*
X124338095Y-311557857D01*
X124338095Y-311557857D02*
X124290476Y-311653095D01*
X124290476Y-311653095D02*
X124242857Y-311843571D01*
X124242857Y-311843571D02*
X124242857Y-312081666D01*
X124242857Y-312081666D02*
X124290476Y-312272142D01*
X124290476Y-312272142D02*
X124338095Y-312367380D01*
X124338095Y-312367380D02*
X124385714Y-312415000D01*
X124385714Y-312415000D02*
X124480952Y-312462619D01*
X124480952Y-312462619D02*
X124576190Y-312462619D01*
X124576190Y-312462619D02*
X124671428Y-312415000D01*
X124671428Y-312415000D02*
X124719047Y-312367380D01*
X124719047Y-312367380D02*
X124766666Y-312272142D01*
X124766666Y-312272142D02*
X124814285Y-312081666D01*
X124814285Y-312081666D02*
X124814285Y-311843571D01*
X124814285Y-311843571D02*
X124766666Y-311653095D01*
X124766666Y-311653095D02*
X124719047Y-311557857D01*
X124719047Y-311557857D02*
X124671428Y-311510238D01*
X124671428Y-311510238D02*
X124576190Y-311462619D01*
X123909523Y-311462619D02*
X123290476Y-311462619D01*
X123290476Y-311462619D02*
X123623809Y-311843571D01*
X123623809Y-311843571D02*
X123480952Y-311843571D01*
X123480952Y-311843571D02*
X123385714Y-311891190D01*
X123385714Y-311891190D02*
X123338095Y-311938809D01*
X123338095Y-311938809D02*
X123290476Y-312034047D01*
X123290476Y-312034047D02*
X123290476Y-312272142D01*
X123290476Y-312272142D02*
X123338095Y-312367380D01*
X123338095Y-312367380D02*
X123385714Y-312415000D01*
X123385714Y-312415000D02*
X123480952Y-312462619D01*
X123480952Y-312462619D02*
X123766666Y-312462619D01*
X123766666Y-312462619D02*
X123861904Y-312415000D01*
X123861904Y-312415000D02*
X123909523Y-312367380D01*
X122528571Y-311938809D02*
X122861904Y-311938809D01*
X122861904Y-312462619D02*
X122861904Y-311462619D01*
X122861904Y-311462619D02*
X122385714Y-311462619D01*
%TO.C,R25*%
X130295238Y-312462619D02*
X130866666Y-312462619D01*
X130580952Y-312462619D02*
X130580952Y-311462619D01*
X130580952Y-311462619D02*
X130676190Y-311605476D01*
X130676190Y-311605476D02*
X130771428Y-311700714D01*
X130771428Y-311700714D02*
X130866666Y-311748333D01*
X129676190Y-311462619D02*
X129580952Y-311462619D01*
X129580952Y-311462619D02*
X129485714Y-311510238D01*
X129485714Y-311510238D02*
X129438095Y-311557857D01*
X129438095Y-311557857D02*
X129390476Y-311653095D01*
X129390476Y-311653095D02*
X129342857Y-311843571D01*
X129342857Y-311843571D02*
X129342857Y-312081666D01*
X129342857Y-312081666D02*
X129390476Y-312272142D01*
X129390476Y-312272142D02*
X129438095Y-312367380D01*
X129438095Y-312367380D02*
X129485714Y-312415000D01*
X129485714Y-312415000D02*
X129580952Y-312462619D01*
X129580952Y-312462619D02*
X129676190Y-312462619D01*
X129676190Y-312462619D02*
X129771428Y-312415000D01*
X129771428Y-312415000D02*
X129819047Y-312367380D01*
X129819047Y-312367380D02*
X129866666Y-312272142D01*
X129866666Y-312272142D02*
X129914285Y-312081666D01*
X129914285Y-312081666D02*
X129914285Y-311843571D01*
X129914285Y-311843571D02*
X129866666Y-311653095D01*
X129866666Y-311653095D02*
X129819047Y-311557857D01*
X129819047Y-311557857D02*
X129771428Y-311510238D01*
X129771428Y-311510238D02*
X129676190Y-311462619D01*
X129009523Y-311462619D02*
X128390476Y-311462619D01*
X128390476Y-311462619D02*
X128723809Y-311843571D01*
X128723809Y-311843571D02*
X128580952Y-311843571D01*
X128580952Y-311843571D02*
X128485714Y-311891190D01*
X128485714Y-311891190D02*
X128438095Y-311938809D01*
X128438095Y-311938809D02*
X128390476Y-312034047D01*
X128390476Y-312034047D02*
X128390476Y-312272142D01*
X128390476Y-312272142D02*
X128438095Y-312367380D01*
X128438095Y-312367380D02*
X128485714Y-312415000D01*
X128485714Y-312415000D02*
X128580952Y-312462619D01*
X128580952Y-312462619D02*
X128866666Y-312462619D01*
X128866666Y-312462619D02*
X128961904Y-312415000D01*
X128961904Y-312415000D02*
X129009523Y-312367380D01*
X127628571Y-311938809D02*
X127961904Y-311938809D01*
X127961904Y-312462619D02*
X127961904Y-311462619D01*
X127961904Y-311462619D02*
X127485714Y-311462619D01*
%TO.C,R2*%
X296727857Y-317353333D02*
X296680238Y-317400952D01*
X296680238Y-317400952D02*
X296632619Y-317496190D01*
X296632619Y-317496190D02*
X296632619Y-317734285D01*
X296632619Y-317734285D02*
X296680238Y-317829523D01*
X296680238Y-317829523D02*
X296727857Y-317877142D01*
X296727857Y-317877142D02*
X296823095Y-317924761D01*
X296823095Y-317924761D02*
X296918333Y-317924761D01*
X296918333Y-317924761D02*
X297061190Y-317877142D01*
X297061190Y-317877142D02*
X297632619Y-317305714D01*
X297632619Y-317305714D02*
X297632619Y-317924761D01*
X296632619Y-318543809D02*
X296632619Y-318639047D01*
X296632619Y-318639047D02*
X296680238Y-318734285D01*
X296680238Y-318734285D02*
X296727857Y-318781904D01*
X296727857Y-318781904D02*
X296823095Y-318829523D01*
X296823095Y-318829523D02*
X297013571Y-318877142D01*
X297013571Y-318877142D02*
X297251666Y-318877142D01*
X297251666Y-318877142D02*
X297442142Y-318829523D01*
X297442142Y-318829523D02*
X297537380Y-318781904D01*
X297537380Y-318781904D02*
X297585000Y-318734285D01*
X297585000Y-318734285D02*
X297632619Y-318639047D01*
X297632619Y-318639047D02*
X297632619Y-318543809D01*
X297632619Y-318543809D02*
X297585000Y-318448571D01*
X297585000Y-318448571D02*
X297537380Y-318400952D01*
X297537380Y-318400952D02*
X297442142Y-318353333D01*
X297442142Y-318353333D02*
X297251666Y-318305714D01*
X297251666Y-318305714D02*
X297013571Y-318305714D01*
X297013571Y-318305714D02*
X296823095Y-318353333D01*
X296823095Y-318353333D02*
X296727857Y-318400952D01*
X296727857Y-318400952D02*
X296680238Y-318448571D01*
X296680238Y-318448571D02*
X296632619Y-318543809D01*
X296727857Y-319258095D02*
X296680238Y-319305714D01*
X296680238Y-319305714D02*
X296632619Y-319400952D01*
X296632619Y-319400952D02*
X296632619Y-319639047D01*
X296632619Y-319639047D02*
X296680238Y-319734285D01*
X296680238Y-319734285D02*
X296727857Y-319781904D01*
X296727857Y-319781904D02*
X296823095Y-319829523D01*
X296823095Y-319829523D02*
X296918333Y-319829523D01*
X296918333Y-319829523D02*
X297061190Y-319781904D01*
X297061190Y-319781904D02*
X297632619Y-319210476D01*
X297632619Y-319210476D02*
X297632619Y-319829523D01*
X297108809Y-320591428D02*
X297108809Y-320258095D01*
X297632619Y-320258095D02*
X296632619Y-320258095D01*
X296632619Y-320258095D02*
X296632619Y-320734285D01*
%TO.C,R5*%
X115035238Y-312462619D02*
X115606666Y-312462619D01*
X115320952Y-312462619D02*
X115320952Y-311462619D01*
X115320952Y-311462619D02*
X115416190Y-311605476D01*
X115416190Y-311605476D02*
X115511428Y-311700714D01*
X115511428Y-311700714D02*
X115606666Y-311748333D01*
X114416190Y-311462619D02*
X114320952Y-311462619D01*
X114320952Y-311462619D02*
X114225714Y-311510238D01*
X114225714Y-311510238D02*
X114178095Y-311557857D01*
X114178095Y-311557857D02*
X114130476Y-311653095D01*
X114130476Y-311653095D02*
X114082857Y-311843571D01*
X114082857Y-311843571D02*
X114082857Y-312081666D01*
X114082857Y-312081666D02*
X114130476Y-312272142D01*
X114130476Y-312272142D02*
X114178095Y-312367380D01*
X114178095Y-312367380D02*
X114225714Y-312415000D01*
X114225714Y-312415000D02*
X114320952Y-312462619D01*
X114320952Y-312462619D02*
X114416190Y-312462619D01*
X114416190Y-312462619D02*
X114511428Y-312415000D01*
X114511428Y-312415000D02*
X114559047Y-312367380D01*
X114559047Y-312367380D02*
X114606666Y-312272142D01*
X114606666Y-312272142D02*
X114654285Y-312081666D01*
X114654285Y-312081666D02*
X114654285Y-311843571D01*
X114654285Y-311843571D02*
X114606666Y-311653095D01*
X114606666Y-311653095D02*
X114559047Y-311557857D01*
X114559047Y-311557857D02*
X114511428Y-311510238D01*
X114511428Y-311510238D02*
X114416190Y-311462619D01*
X113749523Y-311462619D02*
X113130476Y-311462619D01*
X113130476Y-311462619D02*
X113463809Y-311843571D01*
X113463809Y-311843571D02*
X113320952Y-311843571D01*
X113320952Y-311843571D02*
X113225714Y-311891190D01*
X113225714Y-311891190D02*
X113178095Y-311938809D01*
X113178095Y-311938809D02*
X113130476Y-312034047D01*
X113130476Y-312034047D02*
X113130476Y-312272142D01*
X113130476Y-312272142D02*
X113178095Y-312367380D01*
X113178095Y-312367380D02*
X113225714Y-312415000D01*
X113225714Y-312415000D02*
X113320952Y-312462619D01*
X113320952Y-312462619D02*
X113606666Y-312462619D01*
X113606666Y-312462619D02*
X113701904Y-312415000D01*
X113701904Y-312415000D02*
X113749523Y-312367380D01*
X112368571Y-311938809D02*
X112701904Y-311938809D01*
X112701904Y-312462619D02*
X112701904Y-311462619D01*
X112701904Y-311462619D02*
X112225714Y-311462619D01*
%TO.C,R7*%
X294177857Y-317363333D02*
X294130238Y-317410952D01*
X294130238Y-317410952D02*
X294082619Y-317506190D01*
X294082619Y-317506190D02*
X294082619Y-317744285D01*
X294082619Y-317744285D02*
X294130238Y-317839523D01*
X294130238Y-317839523D02*
X294177857Y-317887142D01*
X294177857Y-317887142D02*
X294273095Y-317934761D01*
X294273095Y-317934761D02*
X294368333Y-317934761D01*
X294368333Y-317934761D02*
X294511190Y-317887142D01*
X294511190Y-317887142D02*
X295082619Y-317315714D01*
X295082619Y-317315714D02*
X295082619Y-317934761D01*
X294082619Y-318553809D02*
X294082619Y-318649047D01*
X294082619Y-318649047D02*
X294130238Y-318744285D01*
X294130238Y-318744285D02*
X294177857Y-318791904D01*
X294177857Y-318791904D02*
X294273095Y-318839523D01*
X294273095Y-318839523D02*
X294463571Y-318887142D01*
X294463571Y-318887142D02*
X294701666Y-318887142D01*
X294701666Y-318887142D02*
X294892142Y-318839523D01*
X294892142Y-318839523D02*
X294987380Y-318791904D01*
X294987380Y-318791904D02*
X295035000Y-318744285D01*
X295035000Y-318744285D02*
X295082619Y-318649047D01*
X295082619Y-318649047D02*
X295082619Y-318553809D01*
X295082619Y-318553809D02*
X295035000Y-318458571D01*
X295035000Y-318458571D02*
X294987380Y-318410952D01*
X294987380Y-318410952D02*
X294892142Y-318363333D01*
X294892142Y-318363333D02*
X294701666Y-318315714D01*
X294701666Y-318315714D02*
X294463571Y-318315714D01*
X294463571Y-318315714D02*
X294273095Y-318363333D01*
X294273095Y-318363333D02*
X294177857Y-318410952D01*
X294177857Y-318410952D02*
X294130238Y-318458571D01*
X294130238Y-318458571D02*
X294082619Y-318553809D01*
X294177857Y-319268095D02*
X294130238Y-319315714D01*
X294130238Y-319315714D02*
X294082619Y-319410952D01*
X294082619Y-319410952D02*
X294082619Y-319649047D01*
X294082619Y-319649047D02*
X294130238Y-319744285D01*
X294130238Y-319744285D02*
X294177857Y-319791904D01*
X294177857Y-319791904D02*
X294273095Y-319839523D01*
X294273095Y-319839523D02*
X294368333Y-319839523D01*
X294368333Y-319839523D02*
X294511190Y-319791904D01*
X294511190Y-319791904D02*
X295082619Y-319220476D01*
X295082619Y-319220476D02*
X295082619Y-319839523D01*
X294558809Y-320601428D02*
X294558809Y-320268095D01*
X295082619Y-320268095D02*
X294082619Y-320268095D01*
X294082619Y-320268095D02*
X294082619Y-320744285D01*
%TO.C,C21*%
X316592619Y-338773333D02*
X316592619Y-338201905D01*
X316592619Y-338487619D02*
X315592619Y-338487619D01*
X315592619Y-338487619D02*
X315735476Y-338392381D01*
X315735476Y-338392381D02*
X315830714Y-338297143D01*
X315830714Y-338297143D02*
X315878333Y-338201905D01*
X315592619Y-339392381D02*
X315592619Y-339487619D01*
X315592619Y-339487619D02*
X315640238Y-339582857D01*
X315640238Y-339582857D02*
X315687857Y-339630476D01*
X315687857Y-339630476D02*
X315783095Y-339678095D01*
X315783095Y-339678095D02*
X315973571Y-339725714D01*
X315973571Y-339725714D02*
X316211666Y-339725714D01*
X316211666Y-339725714D02*
X316402142Y-339678095D01*
X316402142Y-339678095D02*
X316497380Y-339630476D01*
X316497380Y-339630476D02*
X316545000Y-339582857D01*
X316545000Y-339582857D02*
X316592619Y-339487619D01*
X316592619Y-339487619D02*
X316592619Y-339392381D01*
X316592619Y-339392381D02*
X316545000Y-339297143D01*
X316545000Y-339297143D02*
X316497380Y-339249524D01*
X316497380Y-339249524D02*
X316402142Y-339201905D01*
X316402142Y-339201905D02*
X316211666Y-339154286D01*
X316211666Y-339154286D02*
X315973571Y-339154286D01*
X315973571Y-339154286D02*
X315783095Y-339201905D01*
X315783095Y-339201905D02*
X315687857Y-339249524D01*
X315687857Y-339249524D02*
X315640238Y-339297143D01*
X315640238Y-339297143D02*
X315592619Y-339392381D01*
X315592619Y-340582857D02*
X315592619Y-340392381D01*
X315592619Y-340392381D02*
X315640238Y-340297143D01*
X315640238Y-340297143D02*
X315687857Y-340249524D01*
X315687857Y-340249524D02*
X315830714Y-340154286D01*
X315830714Y-340154286D02*
X316021190Y-340106667D01*
X316021190Y-340106667D02*
X316402142Y-340106667D01*
X316402142Y-340106667D02*
X316497380Y-340154286D01*
X316497380Y-340154286D02*
X316545000Y-340201905D01*
X316545000Y-340201905D02*
X316592619Y-340297143D01*
X316592619Y-340297143D02*
X316592619Y-340487619D01*
X316592619Y-340487619D02*
X316545000Y-340582857D01*
X316545000Y-340582857D02*
X316497380Y-340630476D01*
X316497380Y-340630476D02*
X316402142Y-340678095D01*
X316402142Y-340678095D02*
X316164047Y-340678095D01*
X316164047Y-340678095D02*
X316068809Y-340630476D01*
X316068809Y-340630476D02*
X316021190Y-340582857D01*
X316021190Y-340582857D02*
X315973571Y-340487619D01*
X315973571Y-340487619D02*
X315973571Y-340297143D01*
X315973571Y-340297143D02*
X316021190Y-340201905D01*
X316021190Y-340201905D02*
X316068809Y-340154286D01*
X316068809Y-340154286D02*
X316164047Y-340106667D01*
%TO.C,R4*%
X350217857Y-304460833D02*
X350170238Y-304508452D01*
X350170238Y-304508452D02*
X350122619Y-304603690D01*
X350122619Y-304603690D02*
X350122619Y-304841785D01*
X350122619Y-304841785D02*
X350170238Y-304937023D01*
X350170238Y-304937023D02*
X350217857Y-304984642D01*
X350217857Y-304984642D02*
X350313095Y-305032261D01*
X350313095Y-305032261D02*
X350408333Y-305032261D01*
X350408333Y-305032261D02*
X350551190Y-304984642D01*
X350551190Y-304984642D02*
X351122619Y-304413214D01*
X351122619Y-304413214D02*
X351122619Y-305032261D01*
X350122619Y-305651309D02*
X350122619Y-305746547D01*
X350122619Y-305746547D02*
X350170238Y-305841785D01*
X350170238Y-305841785D02*
X350217857Y-305889404D01*
X350217857Y-305889404D02*
X350313095Y-305937023D01*
X350313095Y-305937023D02*
X350503571Y-305984642D01*
X350503571Y-305984642D02*
X350741666Y-305984642D01*
X350741666Y-305984642D02*
X350932142Y-305937023D01*
X350932142Y-305937023D02*
X351027380Y-305889404D01*
X351027380Y-305889404D02*
X351075000Y-305841785D01*
X351075000Y-305841785D02*
X351122619Y-305746547D01*
X351122619Y-305746547D02*
X351122619Y-305651309D01*
X351122619Y-305651309D02*
X351075000Y-305556071D01*
X351075000Y-305556071D02*
X351027380Y-305508452D01*
X351027380Y-305508452D02*
X350932142Y-305460833D01*
X350932142Y-305460833D02*
X350741666Y-305413214D01*
X350741666Y-305413214D02*
X350503571Y-305413214D01*
X350503571Y-305413214D02*
X350313095Y-305460833D01*
X350313095Y-305460833D02*
X350217857Y-305508452D01*
X350217857Y-305508452D02*
X350170238Y-305556071D01*
X350170238Y-305556071D02*
X350122619Y-305651309D01*
X350122619Y-306317976D02*
X350122619Y-306937023D01*
X350122619Y-306937023D02*
X350503571Y-306603690D01*
X350503571Y-306603690D02*
X350503571Y-306746547D01*
X350503571Y-306746547D02*
X350551190Y-306841785D01*
X350551190Y-306841785D02*
X350598809Y-306889404D01*
X350598809Y-306889404D02*
X350694047Y-306937023D01*
X350694047Y-306937023D02*
X350932142Y-306937023D01*
X350932142Y-306937023D02*
X351027380Y-306889404D01*
X351027380Y-306889404D02*
X351075000Y-306841785D01*
X351075000Y-306841785D02*
X351122619Y-306746547D01*
X351122619Y-306746547D02*
X351122619Y-306460833D01*
X351122619Y-306460833D02*
X351075000Y-306365595D01*
X351075000Y-306365595D02*
X351027380Y-306317976D01*
X350598809Y-307698928D02*
X350598809Y-307365595D01*
X351122619Y-307365595D02*
X350122619Y-307365595D01*
X350122619Y-307365595D02*
X350122619Y-307841785D01*
%TO.C,R26*%
X130275238Y-330412619D02*
X130846666Y-330412619D01*
X130560952Y-330412619D02*
X130560952Y-329412619D01*
X130560952Y-329412619D02*
X130656190Y-329555476D01*
X130656190Y-329555476D02*
X130751428Y-329650714D01*
X130751428Y-329650714D02*
X130846666Y-329698333D01*
X129656190Y-329412619D02*
X129560952Y-329412619D01*
X129560952Y-329412619D02*
X129465714Y-329460238D01*
X129465714Y-329460238D02*
X129418095Y-329507857D01*
X129418095Y-329507857D02*
X129370476Y-329603095D01*
X129370476Y-329603095D02*
X129322857Y-329793571D01*
X129322857Y-329793571D02*
X129322857Y-330031666D01*
X129322857Y-330031666D02*
X129370476Y-330222142D01*
X129370476Y-330222142D02*
X129418095Y-330317380D01*
X129418095Y-330317380D02*
X129465714Y-330365000D01*
X129465714Y-330365000D02*
X129560952Y-330412619D01*
X129560952Y-330412619D02*
X129656190Y-330412619D01*
X129656190Y-330412619D02*
X129751428Y-330365000D01*
X129751428Y-330365000D02*
X129799047Y-330317380D01*
X129799047Y-330317380D02*
X129846666Y-330222142D01*
X129846666Y-330222142D02*
X129894285Y-330031666D01*
X129894285Y-330031666D02*
X129894285Y-329793571D01*
X129894285Y-329793571D02*
X129846666Y-329603095D01*
X129846666Y-329603095D02*
X129799047Y-329507857D01*
X129799047Y-329507857D02*
X129751428Y-329460238D01*
X129751428Y-329460238D02*
X129656190Y-329412619D01*
X128989523Y-329412619D02*
X128370476Y-329412619D01*
X128370476Y-329412619D02*
X128703809Y-329793571D01*
X128703809Y-329793571D02*
X128560952Y-329793571D01*
X128560952Y-329793571D02*
X128465714Y-329841190D01*
X128465714Y-329841190D02*
X128418095Y-329888809D01*
X128418095Y-329888809D02*
X128370476Y-329984047D01*
X128370476Y-329984047D02*
X128370476Y-330222142D01*
X128370476Y-330222142D02*
X128418095Y-330317380D01*
X128418095Y-330317380D02*
X128465714Y-330365000D01*
X128465714Y-330365000D02*
X128560952Y-330412619D01*
X128560952Y-330412619D02*
X128846666Y-330412619D01*
X128846666Y-330412619D02*
X128941904Y-330365000D01*
X128941904Y-330365000D02*
X128989523Y-330317380D01*
X127608571Y-329888809D02*
X127941904Y-329888809D01*
X127941904Y-330412619D02*
X127941904Y-329412619D01*
X127941904Y-329412619D02*
X127465714Y-329412619D01*
%TO.C,R21*%
X282482619Y-329927142D02*
X282006428Y-329593809D01*
X282482619Y-329355714D02*
X281482619Y-329355714D01*
X281482619Y-329355714D02*
X281482619Y-329736666D01*
X281482619Y-329736666D02*
X281530238Y-329831904D01*
X281530238Y-329831904D02*
X281577857Y-329879523D01*
X281577857Y-329879523D02*
X281673095Y-329927142D01*
X281673095Y-329927142D02*
X281815952Y-329927142D01*
X281815952Y-329927142D02*
X281911190Y-329879523D01*
X281911190Y-329879523D02*
X281958809Y-329831904D01*
X281958809Y-329831904D02*
X282006428Y-329736666D01*
X282006428Y-329736666D02*
X282006428Y-329355714D01*
X281577857Y-330308095D02*
X281530238Y-330355714D01*
X281530238Y-330355714D02*
X281482619Y-330450952D01*
X281482619Y-330450952D02*
X281482619Y-330689047D01*
X281482619Y-330689047D02*
X281530238Y-330784285D01*
X281530238Y-330784285D02*
X281577857Y-330831904D01*
X281577857Y-330831904D02*
X281673095Y-330879523D01*
X281673095Y-330879523D02*
X281768333Y-330879523D01*
X281768333Y-330879523D02*
X281911190Y-330831904D01*
X281911190Y-330831904D02*
X282482619Y-330260476D01*
X282482619Y-330260476D02*
X282482619Y-330879523D01*
X282482619Y-331831904D02*
X282482619Y-331260476D01*
X282482619Y-331546190D02*
X281482619Y-331546190D01*
X281482619Y-331546190D02*
X281625476Y-331450952D01*
X281625476Y-331450952D02*
X281720714Y-331355714D01*
X281720714Y-331355714D02*
X281768333Y-331260476D01*
X281527857Y-337503333D02*
X281480238Y-337550952D01*
X281480238Y-337550952D02*
X281432619Y-337646190D01*
X281432619Y-337646190D02*
X281432619Y-337884285D01*
X281432619Y-337884285D02*
X281480238Y-337979523D01*
X281480238Y-337979523D02*
X281527857Y-338027142D01*
X281527857Y-338027142D02*
X281623095Y-338074761D01*
X281623095Y-338074761D02*
X281718333Y-338074761D01*
X281718333Y-338074761D02*
X281861190Y-338027142D01*
X281861190Y-338027142D02*
X282432619Y-337455714D01*
X282432619Y-337455714D02*
X282432619Y-338074761D01*
X281432619Y-338693809D02*
X281432619Y-338789047D01*
X281432619Y-338789047D02*
X281480238Y-338884285D01*
X281480238Y-338884285D02*
X281527857Y-338931904D01*
X281527857Y-338931904D02*
X281623095Y-338979523D01*
X281623095Y-338979523D02*
X281813571Y-339027142D01*
X281813571Y-339027142D02*
X282051666Y-339027142D01*
X282051666Y-339027142D02*
X282242142Y-338979523D01*
X282242142Y-338979523D02*
X282337380Y-338931904D01*
X282337380Y-338931904D02*
X282385000Y-338884285D01*
X282385000Y-338884285D02*
X282432619Y-338789047D01*
X282432619Y-338789047D02*
X282432619Y-338693809D01*
X282432619Y-338693809D02*
X282385000Y-338598571D01*
X282385000Y-338598571D02*
X282337380Y-338550952D01*
X282337380Y-338550952D02*
X282242142Y-338503333D01*
X282242142Y-338503333D02*
X282051666Y-338455714D01*
X282051666Y-338455714D02*
X281813571Y-338455714D01*
X281813571Y-338455714D02*
X281623095Y-338503333D01*
X281623095Y-338503333D02*
X281527857Y-338550952D01*
X281527857Y-338550952D02*
X281480238Y-338598571D01*
X281480238Y-338598571D02*
X281432619Y-338693809D01*
X281527857Y-339408095D02*
X281480238Y-339455714D01*
X281480238Y-339455714D02*
X281432619Y-339550952D01*
X281432619Y-339550952D02*
X281432619Y-339789047D01*
X281432619Y-339789047D02*
X281480238Y-339884285D01*
X281480238Y-339884285D02*
X281527857Y-339931904D01*
X281527857Y-339931904D02*
X281623095Y-339979523D01*
X281623095Y-339979523D02*
X281718333Y-339979523D01*
X281718333Y-339979523D02*
X281861190Y-339931904D01*
X281861190Y-339931904D02*
X282432619Y-339360476D01*
X282432619Y-339360476D02*
X282432619Y-339979523D01*
X281908809Y-340741428D02*
X281908809Y-340408095D01*
X282432619Y-340408095D02*
X281432619Y-340408095D01*
X281432619Y-340408095D02*
X281432619Y-340884285D01*
%TO.C,R6*%
X353047619Y-314960833D02*
X353047619Y-314389405D01*
X353047619Y-314675119D02*
X352047619Y-314675119D01*
X352047619Y-314675119D02*
X352190476Y-314579881D01*
X352190476Y-314579881D02*
X352285714Y-314484643D01*
X352285714Y-314484643D02*
X352333333Y-314389405D01*
X352142857Y-315341786D02*
X352095238Y-315389405D01*
X352095238Y-315389405D02*
X352047619Y-315484643D01*
X352047619Y-315484643D02*
X352047619Y-315722738D01*
X352047619Y-315722738D02*
X352095238Y-315817976D01*
X352095238Y-315817976D02*
X352142857Y-315865595D01*
X352142857Y-315865595D02*
X352238095Y-315913214D01*
X352238095Y-315913214D02*
X352333333Y-315913214D01*
X352333333Y-315913214D02*
X352476190Y-315865595D01*
X352476190Y-315865595D02*
X353047619Y-315294167D01*
X353047619Y-315294167D02*
X353047619Y-315913214D01*
X352047619Y-316532262D02*
X352047619Y-316627500D01*
X352047619Y-316627500D02*
X352095238Y-316722738D01*
X352095238Y-316722738D02*
X352142857Y-316770357D01*
X352142857Y-316770357D02*
X352238095Y-316817976D01*
X352238095Y-316817976D02*
X352428571Y-316865595D01*
X352428571Y-316865595D02*
X352666666Y-316865595D01*
X352666666Y-316865595D02*
X352857142Y-316817976D01*
X352857142Y-316817976D02*
X352952380Y-316770357D01*
X352952380Y-316770357D02*
X353000000Y-316722738D01*
X353000000Y-316722738D02*
X353047619Y-316627500D01*
X353047619Y-316627500D02*
X353047619Y-316532262D01*
X353047619Y-316532262D02*
X353000000Y-316437024D01*
X353000000Y-316437024D02*
X352952380Y-316389405D01*
X352952380Y-316389405D02*
X352857142Y-316341786D01*
X352857142Y-316341786D02*
X352666666Y-316294167D01*
X352666666Y-316294167D02*
X352428571Y-316294167D01*
X352428571Y-316294167D02*
X352238095Y-316341786D01*
X352238095Y-316341786D02*
X352142857Y-316389405D01*
X352142857Y-316389405D02*
X352095238Y-316437024D01*
X352095238Y-316437024D02*
X352047619Y-316532262D01*
%TO.C,C5*%
X218657380Y-344703333D02*
X218705000Y-344655714D01*
X218705000Y-344655714D02*
X218752619Y-344512857D01*
X218752619Y-344512857D02*
X218752619Y-344417619D01*
X218752619Y-344417619D02*
X218705000Y-344274762D01*
X218705000Y-344274762D02*
X218609761Y-344179524D01*
X218609761Y-344179524D02*
X218514523Y-344131905D01*
X218514523Y-344131905D02*
X218324047Y-344084286D01*
X218324047Y-344084286D02*
X218181190Y-344084286D01*
X218181190Y-344084286D02*
X217990714Y-344131905D01*
X217990714Y-344131905D02*
X217895476Y-344179524D01*
X217895476Y-344179524D02*
X217800238Y-344274762D01*
X217800238Y-344274762D02*
X217752619Y-344417619D01*
X217752619Y-344417619D02*
X217752619Y-344512857D01*
X217752619Y-344512857D02*
X217800238Y-344655714D01*
X217800238Y-344655714D02*
X217847857Y-344703333D01*
X217752619Y-345608095D02*
X217752619Y-345131905D01*
X217752619Y-345131905D02*
X218228809Y-345084286D01*
X218228809Y-345084286D02*
X218181190Y-345131905D01*
X218181190Y-345131905D02*
X218133571Y-345227143D01*
X218133571Y-345227143D02*
X218133571Y-345465238D01*
X218133571Y-345465238D02*
X218181190Y-345560476D01*
X218181190Y-345560476D02*
X218228809Y-345608095D01*
X218228809Y-345608095D02*
X218324047Y-345655714D01*
X218324047Y-345655714D02*
X218562142Y-345655714D01*
X218562142Y-345655714D02*
X218657380Y-345608095D01*
X218657380Y-345608095D02*
X218705000Y-345560476D01*
X218705000Y-345560476D02*
X218752619Y-345465238D01*
X218752619Y-345465238D02*
X218752619Y-345227143D01*
X218752619Y-345227143D02*
X218705000Y-345131905D01*
X218705000Y-345131905D02*
X218657380Y-345084286D01*
X222712619Y-344193333D02*
X222712619Y-343621905D01*
X222712619Y-343907619D02*
X221712619Y-343907619D01*
X221712619Y-343907619D02*
X221855476Y-343812381D01*
X221855476Y-343812381D02*
X221950714Y-343717143D01*
X221950714Y-343717143D02*
X221998333Y-343621905D01*
X221712619Y-344812381D02*
X221712619Y-344907619D01*
X221712619Y-344907619D02*
X221760238Y-345002857D01*
X221760238Y-345002857D02*
X221807857Y-345050476D01*
X221807857Y-345050476D02*
X221903095Y-345098095D01*
X221903095Y-345098095D02*
X222093571Y-345145714D01*
X222093571Y-345145714D02*
X222331666Y-345145714D01*
X222331666Y-345145714D02*
X222522142Y-345098095D01*
X222522142Y-345098095D02*
X222617380Y-345050476D01*
X222617380Y-345050476D02*
X222665000Y-345002857D01*
X222665000Y-345002857D02*
X222712619Y-344907619D01*
X222712619Y-344907619D02*
X222712619Y-344812381D01*
X222712619Y-344812381D02*
X222665000Y-344717143D01*
X222665000Y-344717143D02*
X222617380Y-344669524D01*
X222617380Y-344669524D02*
X222522142Y-344621905D01*
X222522142Y-344621905D02*
X222331666Y-344574286D01*
X222331666Y-344574286D02*
X222093571Y-344574286D01*
X222093571Y-344574286D02*
X221903095Y-344621905D01*
X221903095Y-344621905D02*
X221807857Y-344669524D01*
X221807857Y-344669524D02*
X221760238Y-344717143D01*
X221760238Y-344717143D02*
X221712619Y-344812381D01*
X222045952Y-346002857D02*
X222712619Y-346002857D01*
X221665000Y-345764762D02*
X222379285Y-345526667D01*
X222379285Y-345526667D02*
X222379285Y-346145714D01*
%TO.C,SW4*%
X357912619Y-267292380D02*
X357436428Y-266959047D01*
X357912619Y-266720952D02*
X356912619Y-266720952D01*
X356912619Y-266720952D02*
X356912619Y-267101904D01*
X356912619Y-267101904D02*
X356960238Y-267197142D01*
X356960238Y-267197142D02*
X357007857Y-267244761D01*
X357007857Y-267244761D02*
X357103095Y-267292380D01*
X357103095Y-267292380D02*
X357245952Y-267292380D01*
X357245952Y-267292380D02*
X357341190Y-267244761D01*
X357341190Y-267244761D02*
X357388809Y-267197142D01*
X357388809Y-267197142D02*
X357436428Y-267101904D01*
X357436428Y-267101904D02*
X357436428Y-266720952D01*
X357865000Y-267673333D02*
X357912619Y-267816190D01*
X357912619Y-267816190D02*
X357912619Y-268054285D01*
X357912619Y-268054285D02*
X357865000Y-268149523D01*
X357865000Y-268149523D02*
X357817380Y-268197142D01*
X357817380Y-268197142D02*
X357722142Y-268244761D01*
X357722142Y-268244761D02*
X357626904Y-268244761D01*
X357626904Y-268244761D02*
X357531666Y-268197142D01*
X357531666Y-268197142D02*
X357484047Y-268149523D01*
X357484047Y-268149523D02*
X357436428Y-268054285D01*
X357436428Y-268054285D02*
X357388809Y-267863809D01*
X357388809Y-267863809D02*
X357341190Y-267768571D01*
X357341190Y-267768571D02*
X357293571Y-267720952D01*
X357293571Y-267720952D02*
X357198333Y-267673333D01*
X357198333Y-267673333D02*
X357103095Y-267673333D01*
X357103095Y-267673333D02*
X357007857Y-267720952D01*
X357007857Y-267720952D02*
X356960238Y-267768571D01*
X356960238Y-267768571D02*
X356912619Y-267863809D01*
X356912619Y-267863809D02*
X356912619Y-268101904D01*
X356912619Y-268101904D02*
X356960238Y-268244761D01*
X356912619Y-268530476D02*
X356912619Y-269101904D01*
X357912619Y-268816190D02*
X356912619Y-268816190D01*
%TO.C,R11*%
X291677857Y-317353333D02*
X291630238Y-317400952D01*
X291630238Y-317400952D02*
X291582619Y-317496190D01*
X291582619Y-317496190D02*
X291582619Y-317734285D01*
X291582619Y-317734285D02*
X291630238Y-317829523D01*
X291630238Y-317829523D02*
X291677857Y-317877142D01*
X291677857Y-317877142D02*
X291773095Y-317924761D01*
X291773095Y-317924761D02*
X291868333Y-317924761D01*
X291868333Y-317924761D02*
X292011190Y-317877142D01*
X292011190Y-317877142D02*
X292582619Y-317305714D01*
X292582619Y-317305714D02*
X292582619Y-317924761D01*
X291582619Y-318543809D02*
X291582619Y-318639047D01*
X291582619Y-318639047D02*
X291630238Y-318734285D01*
X291630238Y-318734285D02*
X291677857Y-318781904D01*
X291677857Y-318781904D02*
X291773095Y-318829523D01*
X291773095Y-318829523D02*
X291963571Y-318877142D01*
X291963571Y-318877142D02*
X292201666Y-318877142D01*
X292201666Y-318877142D02*
X292392142Y-318829523D01*
X292392142Y-318829523D02*
X292487380Y-318781904D01*
X292487380Y-318781904D02*
X292535000Y-318734285D01*
X292535000Y-318734285D02*
X292582619Y-318639047D01*
X292582619Y-318639047D02*
X292582619Y-318543809D01*
X292582619Y-318543809D02*
X292535000Y-318448571D01*
X292535000Y-318448571D02*
X292487380Y-318400952D01*
X292487380Y-318400952D02*
X292392142Y-318353333D01*
X292392142Y-318353333D02*
X292201666Y-318305714D01*
X292201666Y-318305714D02*
X291963571Y-318305714D01*
X291963571Y-318305714D02*
X291773095Y-318353333D01*
X291773095Y-318353333D02*
X291677857Y-318400952D01*
X291677857Y-318400952D02*
X291630238Y-318448571D01*
X291630238Y-318448571D02*
X291582619Y-318543809D01*
X291677857Y-319258095D02*
X291630238Y-319305714D01*
X291630238Y-319305714D02*
X291582619Y-319400952D01*
X291582619Y-319400952D02*
X291582619Y-319639047D01*
X291582619Y-319639047D02*
X291630238Y-319734285D01*
X291630238Y-319734285D02*
X291677857Y-319781904D01*
X291677857Y-319781904D02*
X291773095Y-319829523D01*
X291773095Y-319829523D02*
X291868333Y-319829523D01*
X291868333Y-319829523D02*
X292011190Y-319781904D01*
X292011190Y-319781904D02*
X292582619Y-319210476D01*
X292582619Y-319210476D02*
X292582619Y-319829523D01*
X292058809Y-320591428D02*
X292058809Y-320258095D01*
X292582619Y-320258095D02*
X291582619Y-320258095D01*
X291582619Y-320258095D02*
X291582619Y-320734285D01*
%TO.C,R27*%
X295042619Y-350087142D02*
X294566428Y-349753809D01*
X295042619Y-349515714D02*
X294042619Y-349515714D01*
X294042619Y-349515714D02*
X294042619Y-349896666D01*
X294042619Y-349896666D02*
X294090238Y-349991904D01*
X294090238Y-349991904D02*
X294137857Y-350039523D01*
X294137857Y-350039523D02*
X294233095Y-350087142D01*
X294233095Y-350087142D02*
X294375952Y-350087142D01*
X294375952Y-350087142D02*
X294471190Y-350039523D01*
X294471190Y-350039523D02*
X294518809Y-349991904D01*
X294518809Y-349991904D02*
X294566428Y-349896666D01*
X294566428Y-349896666D02*
X294566428Y-349515714D01*
X294137857Y-350468095D02*
X294090238Y-350515714D01*
X294090238Y-350515714D02*
X294042619Y-350610952D01*
X294042619Y-350610952D02*
X294042619Y-350849047D01*
X294042619Y-350849047D02*
X294090238Y-350944285D01*
X294090238Y-350944285D02*
X294137857Y-350991904D01*
X294137857Y-350991904D02*
X294233095Y-351039523D01*
X294233095Y-351039523D02*
X294328333Y-351039523D01*
X294328333Y-351039523D02*
X294471190Y-350991904D01*
X294471190Y-350991904D02*
X295042619Y-350420476D01*
X295042619Y-350420476D02*
X295042619Y-351039523D01*
X294042619Y-351372857D02*
X294042619Y-352039523D01*
X294042619Y-352039523D02*
X295042619Y-351610952D01*
X296347857Y-344943333D02*
X296300238Y-344990952D01*
X296300238Y-344990952D02*
X296252619Y-345086190D01*
X296252619Y-345086190D02*
X296252619Y-345324285D01*
X296252619Y-345324285D02*
X296300238Y-345419523D01*
X296300238Y-345419523D02*
X296347857Y-345467142D01*
X296347857Y-345467142D02*
X296443095Y-345514761D01*
X296443095Y-345514761D02*
X296538333Y-345514761D01*
X296538333Y-345514761D02*
X296681190Y-345467142D01*
X296681190Y-345467142D02*
X297252619Y-344895714D01*
X297252619Y-344895714D02*
X297252619Y-345514761D01*
X296252619Y-346133809D02*
X296252619Y-346229047D01*
X296252619Y-346229047D02*
X296300238Y-346324285D01*
X296300238Y-346324285D02*
X296347857Y-346371904D01*
X296347857Y-346371904D02*
X296443095Y-346419523D01*
X296443095Y-346419523D02*
X296633571Y-346467142D01*
X296633571Y-346467142D02*
X296871666Y-346467142D01*
X296871666Y-346467142D02*
X297062142Y-346419523D01*
X297062142Y-346419523D02*
X297157380Y-346371904D01*
X297157380Y-346371904D02*
X297205000Y-346324285D01*
X297205000Y-346324285D02*
X297252619Y-346229047D01*
X297252619Y-346229047D02*
X297252619Y-346133809D01*
X297252619Y-346133809D02*
X297205000Y-346038571D01*
X297205000Y-346038571D02*
X297157380Y-345990952D01*
X297157380Y-345990952D02*
X297062142Y-345943333D01*
X297062142Y-345943333D02*
X296871666Y-345895714D01*
X296871666Y-345895714D02*
X296633571Y-345895714D01*
X296633571Y-345895714D02*
X296443095Y-345943333D01*
X296443095Y-345943333D02*
X296347857Y-345990952D01*
X296347857Y-345990952D02*
X296300238Y-346038571D01*
X296300238Y-346038571D02*
X296252619Y-346133809D01*
X296347857Y-346848095D02*
X296300238Y-346895714D01*
X296300238Y-346895714D02*
X296252619Y-346990952D01*
X296252619Y-346990952D02*
X296252619Y-347229047D01*
X296252619Y-347229047D02*
X296300238Y-347324285D01*
X296300238Y-347324285D02*
X296347857Y-347371904D01*
X296347857Y-347371904D02*
X296443095Y-347419523D01*
X296443095Y-347419523D02*
X296538333Y-347419523D01*
X296538333Y-347419523D02*
X296681190Y-347371904D01*
X296681190Y-347371904D02*
X297252619Y-346800476D01*
X297252619Y-346800476D02*
X297252619Y-347419523D01*
X296728809Y-348181428D02*
X296728809Y-347848095D01*
X297252619Y-347848095D02*
X296252619Y-347848095D01*
X296252619Y-347848095D02*
X296252619Y-348324285D01*
%TO.C,C1*%
X334866666Y-321662619D02*
X335438094Y-321662619D01*
X335152380Y-321662619D02*
X335152380Y-320662619D01*
X335152380Y-320662619D02*
X335247618Y-320805476D01*
X335247618Y-320805476D02*
X335342856Y-320900714D01*
X335342856Y-320900714D02*
X335438094Y-320948333D01*
X334247618Y-320662619D02*
X334152380Y-320662619D01*
X334152380Y-320662619D02*
X334057142Y-320710238D01*
X334057142Y-320710238D02*
X334009523Y-320757857D01*
X334009523Y-320757857D02*
X333961904Y-320853095D01*
X333961904Y-320853095D02*
X333914285Y-321043571D01*
X333914285Y-321043571D02*
X333914285Y-321281666D01*
X333914285Y-321281666D02*
X333961904Y-321472142D01*
X333961904Y-321472142D02*
X334009523Y-321567380D01*
X334009523Y-321567380D02*
X334057142Y-321615000D01*
X334057142Y-321615000D02*
X334152380Y-321662619D01*
X334152380Y-321662619D02*
X334247618Y-321662619D01*
X334247618Y-321662619D02*
X334342856Y-321615000D01*
X334342856Y-321615000D02*
X334390475Y-321567380D01*
X334390475Y-321567380D02*
X334438094Y-321472142D01*
X334438094Y-321472142D02*
X334485713Y-321281666D01*
X334485713Y-321281666D02*
X334485713Y-321043571D01*
X334485713Y-321043571D02*
X334438094Y-320853095D01*
X334438094Y-320853095D02*
X334390475Y-320757857D01*
X334390475Y-320757857D02*
X334342856Y-320710238D01*
X334342856Y-320710238D02*
X334247618Y-320662619D01*
X333057142Y-320995952D02*
X333057142Y-321662619D01*
X333295237Y-320615000D02*
X333533332Y-321329285D01*
X333533332Y-321329285D02*
X332914285Y-321329285D01*
%TO.C,R3*%
X319427857Y-252903333D02*
X319380238Y-252950952D01*
X319380238Y-252950952D02*
X319332619Y-253046190D01*
X319332619Y-253046190D02*
X319332619Y-253284285D01*
X319332619Y-253284285D02*
X319380238Y-253379523D01*
X319380238Y-253379523D02*
X319427857Y-253427142D01*
X319427857Y-253427142D02*
X319523095Y-253474761D01*
X319523095Y-253474761D02*
X319618333Y-253474761D01*
X319618333Y-253474761D02*
X319761190Y-253427142D01*
X319761190Y-253427142D02*
X320332619Y-252855714D01*
X320332619Y-252855714D02*
X320332619Y-253474761D01*
X319332619Y-254093809D02*
X319332619Y-254189047D01*
X319332619Y-254189047D02*
X319380238Y-254284285D01*
X319380238Y-254284285D02*
X319427857Y-254331904D01*
X319427857Y-254331904D02*
X319523095Y-254379523D01*
X319523095Y-254379523D02*
X319713571Y-254427142D01*
X319713571Y-254427142D02*
X319951666Y-254427142D01*
X319951666Y-254427142D02*
X320142142Y-254379523D01*
X320142142Y-254379523D02*
X320237380Y-254331904D01*
X320237380Y-254331904D02*
X320285000Y-254284285D01*
X320285000Y-254284285D02*
X320332619Y-254189047D01*
X320332619Y-254189047D02*
X320332619Y-254093809D01*
X320332619Y-254093809D02*
X320285000Y-253998571D01*
X320285000Y-253998571D02*
X320237380Y-253950952D01*
X320237380Y-253950952D02*
X320142142Y-253903333D01*
X320142142Y-253903333D02*
X319951666Y-253855714D01*
X319951666Y-253855714D02*
X319713571Y-253855714D01*
X319713571Y-253855714D02*
X319523095Y-253903333D01*
X319523095Y-253903333D02*
X319427857Y-253950952D01*
X319427857Y-253950952D02*
X319380238Y-253998571D01*
X319380238Y-253998571D02*
X319332619Y-254093809D01*
X319427857Y-254808095D02*
X319380238Y-254855714D01*
X319380238Y-254855714D02*
X319332619Y-254950952D01*
X319332619Y-254950952D02*
X319332619Y-255189047D01*
X319332619Y-255189047D02*
X319380238Y-255284285D01*
X319380238Y-255284285D02*
X319427857Y-255331904D01*
X319427857Y-255331904D02*
X319523095Y-255379523D01*
X319523095Y-255379523D02*
X319618333Y-255379523D01*
X319618333Y-255379523D02*
X319761190Y-255331904D01*
X319761190Y-255331904D02*
X320332619Y-254760476D01*
X320332619Y-254760476D02*
X320332619Y-255379523D01*
X319808809Y-256141428D02*
X319808809Y-255808095D01*
X320332619Y-255808095D02*
X319332619Y-255808095D01*
X319332619Y-255808095D02*
X319332619Y-256284285D01*
%TO.C,R17*%
X286577857Y-317353333D02*
X286530238Y-317400952D01*
X286530238Y-317400952D02*
X286482619Y-317496190D01*
X286482619Y-317496190D02*
X286482619Y-317734285D01*
X286482619Y-317734285D02*
X286530238Y-317829523D01*
X286530238Y-317829523D02*
X286577857Y-317877142D01*
X286577857Y-317877142D02*
X286673095Y-317924761D01*
X286673095Y-317924761D02*
X286768333Y-317924761D01*
X286768333Y-317924761D02*
X286911190Y-317877142D01*
X286911190Y-317877142D02*
X287482619Y-317305714D01*
X287482619Y-317305714D02*
X287482619Y-317924761D01*
X286482619Y-318543809D02*
X286482619Y-318639047D01*
X286482619Y-318639047D02*
X286530238Y-318734285D01*
X286530238Y-318734285D02*
X286577857Y-318781904D01*
X286577857Y-318781904D02*
X286673095Y-318829523D01*
X286673095Y-318829523D02*
X286863571Y-318877142D01*
X286863571Y-318877142D02*
X287101666Y-318877142D01*
X287101666Y-318877142D02*
X287292142Y-318829523D01*
X287292142Y-318829523D02*
X287387380Y-318781904D01*
X287387380Y-318781904D02*
X287435000Y-318734285D01*
X287435000Y-318734285D02*
X287482619Y-318639047D01*
X287482619Y-318639047D02*
X287482619Y-318543809D01*
X287482619Y-318543809D02*
X287435000Y-318448571D01*
X287435000Y-318448571D02*
X287387380Y-318400952D01*
X287387380Y-318400952D02*
X287292142Y-318353333D01*
X287292142Y-318353333D02*
X287101666Y-318305714D01*
X287101666Y-318305714D02*
X286863571Y-318305714D01*
X286863571Y-318305714D02*
X286673095Y-318353333D01*
X286673095Y-318353333D02*
X286577857Y-318400952D01*
X286577857Y-318400952D02*
X286530238Y-318448571D01*
X286530238Y-318448571D02*
X286482619Y-318543809D01*
X286577857Y-319258095D02*
X286530238Y-319305714D01*
X286530238Y-319305714D02*
X286482619Y-319400952D01*
X286482619Y-319400952D02*
X286482619Y-319639047D01*
X286482619Y-319639047D02*
X286530238Y-319734285D01*
X286530238Y-319734285D02*
X286577857Y-319781904D01*
X286577857Y-319781904D02*
X286673095Y-319829523D01*
X286673095Y-319829523D02*
X286768333Y-319829523D01*
X286768333Y-319829523D02*
X286911190Y-319781904D01*
X286911190Y-319781904D02*
X287482619Y-319210476D01*
X287482619Y-319210476D02*
X287482619Y-319829523D01*
X286958809Y-320591428D02*
X286958809Y-320258095D01*
X287482619Y-320258095D02*
X286482619Y-320258095D01*
X286482619Y-320258095D02*
X286482619Y-320734285D01*
%TO.C,R18*%
X120115238Y-312462619D02*
X120686666Y-312462619D01*
X120400952Y-312462619D02*
X120400952Y-311462619D01*
X120400952Y-311462619D02*
X120496190Y-311605476D01*
X120496190Y-311605476D02*
X120591428Y-311700714D01*
X120591428Y-311700714D02*
X120686666Y-311748333D01*
X119496190Y-311462619D02*
X119400952Y-311462619D01*
X119400952Y-311462619D02*
X119305714Y-311510238D01*
X119305714Y-311510238D02*
X119258095Y-311557857D01*
X119258095Y-311557857D02*
X119210476Y-311653095D01*
X119210476Y-311653095D02*
X119162857Y-311843571D01*
X119162857Y-311843571D02*
X119162857Y-312081666D01*
X119162857Y-312081666D02*
X119210476Y-312272142D01*
X119210476Y-312272142D02*
X119258095Y-312367380D01*
X119258095Y-312367380D02*
X119305714Y-312415000D01*
X119305714Y-312415000D02*
X119400952Y-312462619D01*
X119400952Y-312462619D02*
X119496190Y-312462619D01*
X119496190Y-312462619D02*
X119591428Y-312415000D01*
X119591428Y-312415000D02*
X119639047Y-312367380D01*
X119639047Y-312367380D02*
X119686666Y-312272142D01*
X119686666Y-312272142D02*
X119734285Y-312081666D01*
X119734285Y-312081666D02*
X119734285Y-311843571D01*
X119734285Y-311843571D02*
X119686666Y-311653095D01*
X119686666Y-311653095D02*
X119639047Y-311557857D01*
X119639047Y-311557857D02*
X119591428Y-311510238D01*
X119591428Y-311510238D02*
X119496190Y-311462619D01*
X118829523Y-311462619D02*
X118210476Y-311462619D01*
X118210476Y-311462619D02*
X118543809Y-311843571D01*
X118543809Y-311843571D02*
X118400952Y-311843571D01*
X118400952Y-311843571D02*
X118305714Y-311891190D01*
X118305714Y-311891190D02*
X118258095Y-311938809D01*
X118258095Y-311938809D02*
X118210476Y-312034047D01*
X118210476Y-312034047D02*
X118210476Y-312272142D01*
X118210476Y-312272142D02*
X118258095Y-312367380D01*
X118258095Y-312367380D02*
X118305714Y-312415000D01*
X118305714Y-312415000D02*
X118400952Y-312462619D01*
X118400952Y-312462619D02*
X118686666Y-312462619D01*
X118686666Y-312462619D02*
X118781904Y-312415000D01*
X118781904Y-312415000D02*
X118829523Y-312367380D01*
X117448571Y-311938809D02*
X117781904Y-311938809D01*
X117781904Y-312462619D02*
X117781904Y-311462619D01*
X117781904Y-311462619D02*
X117305714Y-311462619D01*
%TO.C,R30*%
X336687857Y-306433333D02*
X336640238Y-306480952D01*
X336640238Y-306480952D02*
X336592619Y-306576190D01*
X336592619Y-306576190D02*
X336592619Y-306814285D01*
X336592619Y-306814285D02*
X336640238Y-306909523D01*
X336640238Y-306909523D02*
X336687857Y-306957142D01*
X336687857Y-306957142D02*
X336783095Y-307004761D01*
X336783095Y-307004761D02*
X336878333Y-307004761D01*
X336878333Y-307004761D02*
X337021190Y-306957142D01*
X337021190Y-306957142D02*
X337592619Y-306385714D01*
X337592619Y-306385714D02*
X337592619Y-307004761D01*
X336592619Y-307623809D02*
X336592619Y-307719047D01*
X336592619Y-307719047D02*
X336640238Y-307814285D01*
X336640238Y-307814285D02*
X336687857Y-307861904D01*
X336687857Y-307861904D02*
X336783095Y-307909523D01*
X336783095Y-307909523D02*
X336973571Y-307957142D01*
X336973571Y-307957142D02*
X337211666Y-307957142D01*
X337211666Y-307957142D02*
X337402142Y-307909523D01*
X337402142Y-307909523D02*
X337497380Y-307861904D01*
X337497380Y-307861904D02*
X337545000Y-307814285D01*
X337545000Y-307814285D02*
X337592619Y-307719047D01*
X337592619Y-307719047D02*
X337592619Y-307623809D01*
X337592619Y-307623809D02*
X337545000Y-307528571D01*
X337545000Y-307528571D02*
X337497380Y-307480952D01*
X337497380Y-307480952D02*
X337402142Y-307433333D01*
X337402142Y-307433333D02*
X337211666Y-307385714D01*
X337211666Y-307385714D02*
X336973571Y-307385714D01*
X336973571Y-307385714D02*
X336783095Y-307433333D01*
X336783095Y-307433333D02*
X336687857Y-307480952D01*
X336687857Y-307480952D02*
X336640238Y-307528571D01*
X336640238Y-307528571D02*
X336592619Y-307623809D01*
X336687857Y-308338095D02*
X336640238Y-308385714D01*
X336640238Y-308385714D02*
X336592619Y-308480952D01*
X336592619Y-308480952D02*
X336592619Y-308719047D01*
X336592619Y-308719047D02*
X336640238Y-308814285D01*
X336640238Y-308814285D02*
X336687857Y-308861904D01*
X336687857Y-308861904D02*
X336783095Y-308909523D01*
X336783095Y-308909523D02*
X336878333Y-308909523D01*
X336878333Y-308909523D02*
X337021190Y-308861904D01*
X337021190Y-308861904D02*
X337592619Y-308290476D01*
X337592619Y-308290476D02*
X337592619Y-308909523D01*
X337068809Y-309671428D02*
X337068809Y-309338095D01*
X337592619Y-309338095D02*
X336592619Y-309338095D01*
X336592619Y-309338095D02*
X336592619Y-309814285D01*
%TO.C,R8*%
X350242857Y-323660833D02*
X350195238Y-323708452D01*
X350195238Y-323708452D02*
X350147619Y-323803690D01*
X350147619Y-323803690D02*
X350147619Y-324041785D01*
X350147619Y-324041785D02*
X350195238Y-324137023D01*
X350195238Y-324137023D02*
X350242857Y-324184642D01*
X350242857Y-324184642D02*
X350338095Y-324232261D01*
X350338095Y-324232261D02*
X350433333Y-324232261D01*
X350433333Y-324232261D02*
X350576190Y-324184642D01*
X350576190Y-324184642D02*
X351147619Y-323613214D01*
X351147619Y-323613214D02*
X351147619Y-324232261D01*
X350147619Y-324851309D02*
X350147619Y-324946547D01*
X350147619Y-324946547D02*
X350195238Y-325041785D01*
X350195238Y-325041785D02*
X350242857Y-325089404D01*
X350242857Y-325089404D02*
X350338095Y-325137023D01*
X350338095Y-325137023D02*
X350528571Y-325184642D01*
X350528571Y-325184642D02*
X350766666Y-325184642D01*
X350766666Y-325184642D02*
X350957142Y-325137023D01*
X350957142Y-325137023D02*
X351052380Y-325089404D01*
X351052380Y-325089404D02*
X351100000Y-325041785D01*
X351100000Y-325041785D02*
X351147619Y-324946547D01*
X351147619Y-324946547D02*
X351147619Y-324851309D01*
X351147619Y-324851309D02*
X351100000Y-324756071D01*
X351100000Y-324756071D02*
X351052380Y-324708452D01*
X351052380Y-324708452D02*
X350957142Y-324660833D01*
X350957142Y-324660833D02*
X350766666Y-324613214D01*
X350766666Y-324613214D02*
X350528571Y-324613214D01*
X350528571Y-324613214D02*
X350338095Y-324660833D01*
X350338095Y-324660833D02*
X350242857Y-324708452D01*
X350242857Y-324708452D02*
X350195238Y-324756071D01*
X350195238Y-324756071D02*
X350147619Y-324851309D01*
X350147619Y-325517976D02*
X350147619Y-326137023D01*
X350147619Y-326137023D02*
X350528571Y-325803690D01*
X350528571Y-325803690D02*
X350528571Y-325946547D01*
X350528571Y-325946547D02*
X350576190Y-326041785D01*
X350576190Y-326041785D02*
X350623809Y-326089404D01*
X350623809Y-326089404D02*
X350719047Y-326137023D01*
X350719047Y-326137023D02*
X350957142Y-326137023D01*
X350957142Y-326137023D02*
X351052380Y-326089404D01*
X351052380Y-326089404D02*
X351100000Y-326041785D01*
X351100000Y-326041785D02*
X351147619Y-325946547D01*
X351147619Y-325946547D02*
X351147619Y-325660833D01*
X351147619Y-325660833D02*
X351100000Y-325565595D01*
X351100000Y-325565595D02*
X351052380Y-325517976D01*
X350623809Y-326898928D02*
X350623809Y-326565595D01*
X351147619Y-326565595D02*
X350147619Y-326565595D01*
X350147619Y-326565595D02*
X350147619Y-327041785D01*
%TO.C,R24*%
X292562619Y-349987142D02*
X292086428Y-349653809D01*
X292562619Y-349415714D02*
X291562619Y-349415714D01*
X291562619Y-349415714D02*
X291562619Y-349796666D01*
X291562619Y-349796666D02*
X291610238Y-349891904D01*
X291610238Y-349891904D02*
X291657857Y-349939523D01*
X291657857Y-349939523D02*
X291753095Y-349987142D01*
X291753095Y-349987142D02*
X291895952Y-349987142D01*
X291895952Y-349987142D02*
X291991190Y-349939523D01*
X291991190Y-349939523D02*
X292038809Y-349891904D01*
X292038809Y-349891904D02*
X292086428Y-349796666D01*
X292086428Y-349796666D02*
X292086428Y-349415714D01*
X291657857Y-350368095D02*
X291610238Y-350415714D01*
X291610238Y-350415714D02*
X291562619Y-350510952D01*
X291562619Y-350510952D02*
X291562619Y-350749047D01*
X291562619Y-350749047D02*
X291610238Y-350844285D01*
X291610238Y-350844285D02*
X291657857Y-350891904D01*
X291657857Y-350891904D02*
X291753095Y-350939523D01*
X291753095Y-350939523D02*
X291848333Y-350939523D01*
X291848333Y-350939523D02*
X291991190Y-350891904D01*
X291991190Y-350891904D02*
X292562619Y-350320476D01*
X292562619Y-350320476D02*
X292562619Y-350939523D01*
X291895952Y-351796666D02*
X292562619Y-351796666D01*
X291515000Y-351558571D02*
X292229285Y-351320476D01*
X292229285Y-351320476D02*
X292229285Y-351939523D01*
X289547857Y-344923333D02*
X289500238Y-344970952D01*
X289500238Y-344970952D02*
X289452619Y-345066190D01*
X289452619Y-345066190D02*
X289452619Y-345304285D01*
X289452619Y-345304285D02*
X289500238Y-345399523D01*
X289500238Y-345399523D02*
X289547857Y-345447142D01*
X289547857Y-345447142D02*
X289643095Y-345494761D01*
X289643095Y-345494761D02*
X289738333Y-345494761D01*
X289738333Y-345494761D02*
X289881190Y-345447142D01*
X289881190Y-345447142D02*
X290452619Y-344875714D01*
X290452619Y-344875714D02*
X290452619Y-345494761D01*
X289452619Y-346113809D02*
X289452619Y-346209047D01*
X289452619Y-346209047D02*
X289500238Y-346304285D01*
X289500238Y-346304285D02*
X289547857Y-346351904D01*
X289547857Y-346351904D02*
X289643095Y-346399523D01*
X289643095Y-346399523D02*
X289833571Y-346447142D01*
X289833571Y-346447142D02*
X290071666Y-346447142D01*
X290071666Y-346447142D02*
X290262142Y-346399523D01*
X290262142Y-346399523D02*
X290357380Y-346351904D01*
X290357380Y-346351904D02*
X290405000Y-346304285D01*
X290405000Y-346304285D02*
X290452619Y-346209047D01*
X290452619Y-346209047D02*
X290452619Y-346113809D01*
X290452619Y-346113809D02*
X290405000Y-346018571D01*
X290405000Y-346018571D02*
X290357380Y-345970952D01*
X290357380Y-345970952D02*
X290262142Y-345923333D01*
X290262142Y-345923333D02*
X290071666Y-345875714D01*
X290071666Y-345875714D02*
X289833571Y-345875714D01*
X289833571Y-345875714D02*
X289643095Y-345923333D01*
X289643095Y-345923333D02*
X289547857Y-345970952D01*
X289547857Y-345970952D02*
X289500238Y-346018571D01*
X289500238Y-346018571D02*
X289452619Y-346113809D01*
X289547857Y-346828095D02*
X289500238Y-346875714D01*
X289500238Y-346875714D02*
X289452619Y-346970952D01*
X289452619Y-346970952D02*
X289452619Y-347209047D01*
X289452619Y-347209047D02*
X289500238Y-347304285D01*
X289500238Y-347304285D02*
X289547857Y-347351904D01*
X289547857Y-347351904D02*
X289643095Y-347399523D01*
X289643095Y-347399523D02*
X289738333Y-347399523D01*
X289738333Y-347399523D02*
X289881190Y-347351904D01*
X289881190Y-347351904D02*
X290452619Y-346780476D01*
X290452619Y-346780476D02*
X290452619Y-347399523D01*
X289928809Y-348161428D02*
X289928809Y-347828095D01*
X290452619Y-347828095D02*
X289452619Y-347828095D01*
X289452619Y-347828095D02*
X289452619Y-348304285D01*
%TO.C,R14*%
X289077857Y-329353333D02*
X289030238Y-329400952D01*
X289030238Y-329400952D02*
X288982619Y-329496190D01*
X288982619Y-329496190D02*
X288982619Y-329734285D01*
X288982619Y-329734285D02*
X289030238Y-329829523D01*
X289030238Y-329829523D02*
X289077857Y-329877142D01*
X289077857Y-329877142D02*
X289173095Y-329924761D01*
X289173095Y-329924761D02*
X289268333Y-329924761D01*
X289268333Y-329924761D02*
X289411190Y-329877142D01*
X289411190Y-329877142D02*
X289982619Y-329305714D01*
X289982619Y-329305714D02*
X289982619Y-329924761D01*
X288982619Y-330543809D02*
X288982619Y-330639047D01*
X288982619Y-330639047D02*
X289030238Y-330734285D01*
X289030238Y-330734285D02*
X289077857Y-330781904D01*
X289077857Y-330781904D02*
X289173095Y-330829523D01*
X289173095Y-330829523D02*
X289363571Y-330877142D01*
X289363571Y-330877142D02*
X289601666Y-330877142D01*
X289601666Y-330877142D02*
X289792142Y-330829523D01*
X289792142Y-330829523D02*
X289887380Y-330781904D01*
X289887380Y-330781904D02*
X289935000Y-330734285D01*
X289935000Y-330734285D02*
X289982619Y-330639047D01*
X289982619Y-330639047D02*
X289982619Y-330543809D01*
X289982619Y-330543809D02*
X289935000Y-330448571D01*
X289935000Y-330448571D02*
X289887380Y-330400952D01*
X289887380Y-330400952D02*
X289792142Y-330353333D01*
X289792142Y-330353333D02*
X289601666Y-330305714D01*
X289601666Y-330305714D02*
X289363571Y-330305714D01*
X289363571Y-330305714D02*
X289173095Y-330353333D01*
X289173095Y-330353333D02*
X289077857Y-330400952D01*
X289077857Y-330400952D02*
X289030238Y-330448571D01*
X289030238Y-330448571D02*
X288982619Y-330543809D01*
X289077857Y-331258095D02*
X289030238Y-331305714D01*
X289030238Y-331305714D02*
X288982619Y-331400952D01*
X288982619Y-331400952D02*
X288982619Y-331639047D01*
X288982619Y-331639047D02*
X289030238Y-331734285D01*
X289030238Y-331734285D02*
X289077857Y-331781904D01*
X289077857Y-331781904D02*
X289173095Y-331829523D01*
X289173095Y-331829523D02*
X289268333Y-331829523D01*
X289268333Y-331829523D02*
X289411190Y-331781904D01*
X289411190Y-331781904D02*
X289982619Y-331210476D01*
X289982619Y-331210476D02*
X289982619Y-331829523D01*
X289458809Y-332591428D02*
X289458809Y-332258095D01*
X289982619Y-332258095D02*
X288982619Y-332258095D01*
X288982619Y-332258095D02*
X288982619Y-332734285D01*
%TO.C,R28*%
X300132619Y-329927142D02*
X299656428Y-329593809D01*
X300132619Y-329355714D02*
X299132619Y-329355714D01*
X299132619Y-329355714D02*
X299132619Y-329736666D01*
X299132619Y-329736666D02*
X299180238Y-329831904D01*
X299180238Y-329831904D02*
X299227857Y-329879523D01*
X299227857Y-329879523D02*
X299323095Y-329927142D01*
X299323095Y-329927142D02*
X299465952Y-329927142D01*
X299465952Y-329927142D02*
X299561190Y-329879523D01*
X299561190Y-329879523D02*
X299608809Y-329831904D01*
X299608809Y-329831904D02*
X299656428Y-329736666D01*
X299656428Y-329736666D02*
X299656428Y-329355714D01*
X299227857Y-330308095D02*
X299180238Y-330355714D01*
X299180238Y-330355714D02*
X299132619Y-330450952D01*
X299132619Y-330450952D02*
X299132619Y-330689047D01*
X299132619Y-330689047D02*
X299180238Y-330784285D01*
X299180238Y-330784285D02*
X299227857Y-330831904D01*
X299227857Y-330831904D02*
X299323095Y-330879523D01*
X299323095Y-330879523D02*
X299418333Y-330879523D01*
X299418333Y-330879523D02*
X299561190Y-330831904D01*
X299561190Y-330831904D02*
X300132619Y-330260476D01*
X300132619Y-330260476D02*
X300132619Y-330879523D01*
X299561190Y-331450952D02*
X299513571Y-331355714D01*
X299513571Y-331355714D02*
X299465952Y-331308095D01*
X299465952Y-331308095D02*
X299370714Y-331260476D01*
X299370714Y-331260476D02*
X299323095Y-331260476D01*
X299323095Y-331260476D02*
X299227857Y-331308095D01*
X299227857Y-331308095D02*
X299180238Y-331355714D01*
X299180238Y-331355714D02*
X299132619Y-331450952D01*
X299132619Y-331450952D02*
X299132619Y-331641428D01*
X299132619Y-331641428D02*
X299180238Y-331736666D01*
X299180238Y-331736666D02*
X299227857Y-331784285D01*
X299227857Y-331784285D02*
X299323095Y-331831904D01*
X299323095Y-331831904D02*
X299370714Y-331831904D01*
X299370714Y-331831904D02*
X299465952Y-331784285D01*
X299465952Y-331784285D02*
X299513571Y-331736666D01*
X299513571Y-331736666D02*
X299561190Y-331641428D01*
X299561190Y-331641428D02*
X299561190Y-331450952D01*
X299561190Y-331450952D02*
X299608809Y-331355714D01*
X299608809Y-331355714D02*
X299656428Y-331308095D01*
X299656428Y-331308095D02*
X299751666Y-331260476D01*
X299751666Y-331260476D02*
X299942142Y-331260476D01*
X299942142Y-331260476D02*
X300037380Y-331308095D01*
X300037380Y-331308095D02*
X300085000Y-331355714D01*
X300085000Y-331355714D02*
X300132619Y-331450952D01*
X300132619Y-331450952D02*
X300132619Y-331641428D01*
X300132619Y-331641428D02*
X300085000Y-331736666D01*
X300085000Y-331736666D02*
X300037380Y-331784285D01*
X300037380Y-331784285D02*
X299942142Y-331831904D01*
X299942142Y-331831904D02*
X299751666Y-331831904D01*
X299751666Y-331831904D02*
X299656428Y-331784285D01*
X299656428Y-331784285D02*
X299608809Y-331736666D01*
X299608809Y-331736666D02*
X299561190Y-331641428D01*
X300132619Y-338174761D02*
X300132619Y-337603333D01*
X300132619Y-337889047D02*
X299132619Y-337889047D01*
X299132619Y-337889047D02*
X299275476Y-337793809D01*
X299275476Y-337793809D02*
X299370714Y-337698571D01*
X299370714Y-337698571D02*
X299418333Y-337603333D01*
X299132619Y-338793809D02*
X299132619Y-338889047D01*
X299132619Y-338889047D02*
X299180238Y-338984285D01*
X299180238Y-338984285D02*
X299227857Y-339031904D01*
X299227857Y-339031904D02*
X299323095Y-339079523D01*
X299323095Y-339079523D02*
X299513571Y-339127142D01*
X299513571Y-339127142D02*
X299751666Y-339127142D01*
X299751666Y-339127142D02*
X299942142Y-339079523D01*
X299942142Y-339079523D02*
X300037380Y-339031904D01*
X300037380Y-339031904D02*
X300085000Y-338984285D01*
X300085000Y-338984285D02*
X300132619Y-338889047D01*
X300132619Y-338889047D02*
X300132619Y-338793809D01*
X300132619Y-338793809D02*
X300085000Y-338698571D01*
X300085000Y-338698571D02*
X300037380Y-338650952D01*
X300037380Y-338650952D02*
X299942142Y-338603333D01*
X299942142Y-338603333D02*
X299751666Y-338555714D01*
X299751666Y-338555714D02*
X299513571Y-338555714D01*
X299513571Y-338555714D02*
X299323095Y-338603333D01*
X299323095Y-338603333D02*
X299227857Y-338650952D01*
X299227857Y-338650952D02*
X299180238Y-338698571D01*
X299180238Y-338698571D02*
X299132619Y-338793809D01*
X299132619Y-339460476D02*
X299132619Y-340079523D01*
X299132619Y-340079523D02*
X299513571Y-339746190D01*
X299513571Y-339746190D02*
X299513571Y-339889047D01*
X299513571Y-339889047D02*
X299561190Y-339984285D01*
X299561190Y-339984285D02*
X299608809Y-340031904D01*
X299608809Y-340031904D02*
X299704047Y-340079523D01*
X299704047Y-340079523D02*
X299942142Y-340079523D01*
X299942142Y-340079523D02*
X300037380Y-340031904D01*
X300037380Y-340031904D02*
X300085000Y-339984285D01*
X300085000Y-339984285D02*
X300132619Y-339889047D01*
X300132619Y-339889047D02*
X300132619Y-339603333D01*
X300132619Y-339603333D02*
X300085000Y-339508095D01*
X300085000Y-339508095D02*
X300037380Y-339460476D01*
X299608809Y-340841428D02*
X299608809Y-340508095D01*
X300132619Y-340508095D02*
X299132619Y-340508095D01*
X299132619Y-340508095D02*
X299132619Y-340984285D01*
%TO.C,R16*%
X115035238Y-330412619D02*
X115606666Y-330412619D01*
X115320952Y-330412619D02*
X115320952Y-329412619D01*
X115320952Y-329412619D02*
X115416190Y-329555476D01*
X115416190Y-329555476D02*
X115511428Y-329650714D01*
X115511428Y-329650714D02*
X115606666Y-329698333D01*
X114416190Y-329412619D02*
X114320952Y-329412619D01*
X114320952Y-329412619D02*
X114225714Y-329460238D01*
X114225714Y-329460238D02*
X114178095Y-329507857D01*
X114178095Y-329507857D02*
X114130476Y-329603095D01*
X114130476Y-329603095D02*
X114082857Y-329793571D01*
X114082857Y-329793571D02*
X114082857Y-330031666D01*
X114082857Y-330031666D02*
X114130476Y-330222142D01*
X114130476Y-330222142D02*
X114178095Y-330317380D01*
X114178095Y-330317380D02*
X114225714Y-330365000D01*
X114225714Y-330365000D02*
X114320952Y-330412619D01*
X114320952Y-330412619D02*
X114416190Y-330412619D01*
X114416190Y-330412619D02*
X114511428Y-330365000D01*
X114511428Y-330365000D02*
X114559047Y-330317380D01*
X114559047Y-330317380D02*
X114606666Y-330222142D01*
X114606666Y-330222142D02*
X114654285Y-330031666D01*
X114654285Y-330031666D02*
X114654285Y-329793571D01*
X114654285Y-329793571D02*
X114606666Y-329603095D01*
X114606666Y-329603095D02*
X114559047Y-329507857D01*
X114559047Y-329507857D02*
X114511428Y-329460238D01*
X114511428Y-329460238D02*
X114416190Y-329412619D01*
X113749523Y-329412619D02*
X113130476Y-329412619D01*
X113130476Y-329412619D02*
X113463809Y-329793571D01*
X113463809Y-329793571D02*
X113320952Y-329793571D01*
X113320952Y-329793571D02*
X113225714Y-329841190D01*
X113225714Y-329841190D02*
X113178095Y-329888809D01*
X113178095Y-329888809D02*
X113130476Y-329984047D01*
X113130476Y-329984047D02*
X113130476Y-330222142D01*
X113130476Y-330222142D02*
X113178095Y-330317380D01*
X113178095Y-330317380D02*
X113225714Y-330365000D01*
X113225714Y-330365000D02*
X113320952Y-330412619D01*
X113320952Y-330412619D02*
X113606666Y-330412619D01*
X113606666Y-330412619D02*
X113701904Y-330365000D01*
X113701904Y-330365000D02*
X113749523Y-330317380D01*
X112368571Y-329888809D02*
X112701904Y-329888809D01*
X112701904Y-330412619D02*
X112701904Y-329412619D01*
X112701904Y-329412619D02*
X112225714Y-329412619D01*
%TO.C,R23*%
X125205238Y-330412619D02*
X125776666Y-330412619D01*
X125490952Y-330412619D02*
X125490952Y-329412619D01*
X125490952Y-329412619D02*
X125586190Y-329555476D01*
X125586190Y-329555476D02*
X125681428Y-329650714D01*
X125681428Y-329650714D02*
X125776666Y-329698333D01*
X124586190Y-329412619D02*
X124490952Y-329412619D01*
X124490952Y-329412619D02*
X124395714Y-329460238D01*
X124395714Y-329460238D02*
X124348095Y-329507857D01*
X124348095Y-329507857D02*
X124300476Y-329603095D01*
X124300476Y-329603095D02*
X124252857Y-329793571D01*
X124252857Y-329793571D02*
X124252857Y-330031666D01*
X124252857Y-330031666D02*
X124300476Y-330222142D01*
X124300476Y-330222142D02*
X124348095Y-330317380D01*
X124348095Y-330317380D02*
X124395714Y-330365000D01*
X124395714Y-330365000D02*
X124490952Y-330412619D01*
X124490952Y-330412619D02*
X124586190Y-330412619D01*
X124586190Y-330412619D02*
X124681428Y-330365000D01*
X124681428Y-330365000D02*
X124729047Y-330317380D01*
X124729047Y-330317380D02*
X124776666Y-330222142D01*
X124776666Y-330222142D02*
X124824285Y-330031666D01*
X124824285Y-330031666D02*
X124824285Y-329793571D01*
X124824285Y-329793571D02*
X124776666Y-329603095D01*
X124776666Y-329603095D02*
X124729047Y-329507857D01*
X124729047Y-329507857D02*
X124681428Y-329460238D01*
X124681428Y-329460238D02*
X124586190Y-329412619D01*
X123919523Y-329412619D02*
X123300476Y-329412619D01*
X123300476Y-329412619D02*
X123633809Y-329793571D01*
X123633809Y-329793571D02*
X123490952Y-329793571D01*
X123490952Y-329793571D02*
X123395714Y-329841190D01*
X123395714Y-329841190D02*
X123348095Y-329888809D01*
X123348095Y-329888809D02*
X123300476Y-329984047D01*
X123300476Y-329984047D02*
X123300476Y-330222142D01*
X123300476Y-330222142D02*
X123348095Y-330317380D01*
X123348095Y-330317380D02*
X123395714Y-330365000D01*
X123395714Y-330365000D02*
X123490952Y-330412619D01*
X123490952Y-330412619D02*
X123776666Y-330412619D01*
X123776666Y-330412619D02*
X123871904Y-330365000D01*
X123871904Y-330365000D02*
X123919523Y-330317380D01*
X122538571Y-329888809D02*
X122871904Y-329888809D01*
X122871904Y-330412619D02*
X122871904Y-329412619D01*
X122871904Y-329412619D02*
X122395714Y-329412619D01*
%TO.C,R20*%
X120095238Y-330412619D02*
X120666666Y-330412619D01*
X120380952Y-330412619D02*
X120380952Y-329412619D01*
X120380952Y-329412619D02*
X120476190Y-329555476D01*
X120476190Y-329555476D02*
X120571428Y-329650714D01*
X120571428Y-329650714D02*
X120666666Y-329698333D01*
X119476190Y-329412619D02*
X119380952Y-329412619D01*
X119380952Y-329412619D02*
X119285714Y-329460238D01*
X119285714Y-329460238D02*
X119238095Y-329507857D01*
X119238095Y-329507857D02*
X119190476Y-329603095D01*
X119190476Y-329603095D02*
X119142857Y-329793571D01*
X119142857Y-329793571D02*
X119142857Y-330031666D01*
X119142857Y-330031666D02*
X119190476Y-330222142D01*
X119190476Y-330222142D02*
X119238095Y-330317380D01*
X119238095Y-330317380D02*
X119285714Y-330365000D01*
X119285714Y-330365000D02*
X119380952Y-330412619D01*
X119380952Y-330412619D02*
X119476190Y-330412619D01*
X119476190Y-330412619D02*
X119571428Y-330365000D01*
X119571428Y-330365000D02*
X119619047Y-330317380D01*
X119619047Y-330317380D02*
X119666666Y-330222142D01*
X119666666Y-330222142D02*
X119714285Y-330031666D01*
X119714285Y-330031666D02*
X119714285Y-329793571D01*
X119714285Y-329793571D02*
X119666666Y-329603095D01*
X119666666Y-329603095D02*
X119619047Y-329507857D01*
X119619047Y-329507857D02*
X119571428Y-329460238D01*
X119571428Y-329460238D02*
X119476190Y-329412619D01*
X118809523Y-329412619D02*
X118190476Y-329412619D01*
X118190476Y-329412619D02*
X118523809Y-329793571D01*
X118523809Y-329793571D02*
X118380952Y-329793571D01*
X118380952Y-329793571D02*
X118285714Y-329841190D01*
X118285714Y-329841190D02*
X118238095Y-329888809D01*
X118238095Y-329888809D02*
X118190476Y-329984047D01*
X118190476Y-329984047D02*
X118190476Y-330222142D01*
X118190476Y-330222142D02*
X118238095Y-330317380D01*
X118238095Y-330317380D02*
X118285714Y-330365000D01*
X118285714Y-330365000D02*
X118380952Y-330412619D01*
X118380952Y-330412619D02*
X118666666Y-330412619D01*
X118666666Y-330412619D02*
X118761904Y-330365000D01*
X118761904Y-330365000D02*
X118809523Y-330317380D01*
X117428571Y-329888809D02*
X117761904Y-329888809D01*
X117761904Y-330412619D02*
X117761904Y-329412619D01*
X117761904Y-329412619D02*
X117285714Y-329412619D01*
D11*
%TO.C,R10*%
X88420000Y-367560000D02*
X93120000Y-367560000D01*
X88420000Y-369560000D02*
X88420000Y-367560000D01*
D12*
X90320000Y-368760000D02*
X90520000Y-368310000D01*
X90520000Y-368310000D02*
X90770000Y-368810000D01*
X90770000Y-368810000D02*
X91020000Y-368310000D01*
X91020000Y-368310000D02*
X91220000Y-368760000D01*
D11*
X93120000Y-367560000D02*
X93120000Y-369560000D01*
X93120000Y-369560000D02*
X88420000Y-369560000D01*
%TO.C,SW7*%
X358730000Y-265800000D02*
X358830000Y-265800000D01*
X358730000Y-269900000D02*
X358730000Y-265800000D01*
X358730000Y-269900000D02*
X358830000Y-269900000D01*
X359480000Y-267550000D02*
X359480000Y-268100000D01*
X359730000Y-265800000D02*
X361030000Y-265800000D01*
X359730000Y-269900000D02*
X361030000Y-269900000D01*
X361280000Y-268100000D02*
X361280000Y-267550000D01*
X361930000Y-265800000D02*
X362030000Y-265800000D01*
X361930000Y-269900000D02*
X362030000Y-269900000D01*
X362030000Y-269900000D02*
X362030000Y-265800000D01*
X361280000Y-267550000D02*
G75*
G03*
X359480000Y-267550000I-900000J0D01*
G01*
X359480000Y-268100000D02*
G75*
G03*
X361280000Y-268100000I900000J0D01*
G01*
%TO.C,Q9*%
X204275000Y-285315000D02*
X202815000Y-285315000D01*
X204275000Y-285315000D02*
X204275000Y-286245000D01*
X204275000Y-288475000D02*
X202115000Y-288475000D01*
X204275000Y-288475000D02*
X204275000Y-287545000D01*
%TO.C,R19*%
X99740000Y-360280000D02*
X99740000Y-364980000D01*
X97740000Y-360280000D02*
X99740000Y-360280000D01*
D12*
X98540000Y-362180000D02*
X98990000Y-362380000D01*
X98990000Y-362380000D02*
X98490000Y-362630000D01*
X98490000Y-362630000D02*
X98990000Y-362880000D01*
X98990000Y-362880000D02*
X98540000Y-363080000D01*
D11*
X99740000Y-364980000D02*
X97740000Y-364980000D01*
X97740000Y-364980000D02*
X97740000Y-360280000D01*
%TO.C,D1*%
X321550000Y-315180000D02*
X316150000Y-315180000D01*
X321550000Y-311880000D02*
X321550000Y-315180000D01*
X321550000Y-311880000D02*
X316150000Y-311880000D01*
D13*
X318799440Y-312730920D02*
X318799440Y-314331120D01*
X318750000Y-313530000D02*
X317650000Y-314280000D01*
X317648820Y-312730920D01*
X318750000Y-313530000D01*
G36*
X318750000Y-313530000D02*
G01*
X317650000Y-314280000D01*
X317648820Y-312730920D01*
X318750000Y-313530000D01*
G37*
D11*
%TO.C,R22*%
X125100000Y-312850000D02*
X125100000Y-317550000D01*
X123100000Y-312850000D02*
X125100000Y-312850000D01*
D12*
X123900000Y-314750000D02*
X124350000Y-314950000D01*
X124350000Y-314950000D02*
X123850000Y-315200000D01*
X123850000Y-315200000D02*
X124350000Y-315450000D01*
X124350000Y-315450000D02*
X123900000Y-315650000D01*
D11*
X125100000Y-317550000D02*
X123100000Y-317550000D01*
X123100000Y-317550000D02*
X123100000Y-312850000D01*
%TO.C,R25*%
X130200000Y-312850000D02*
X130200000Y-317550000D01*
X128200000Y-312850000D02*
X130200000Y-312850000D01*
D12*
X129000000Y-314750000D02*
X129450000Y-314950000D01*
X129450000Y-314950000D02*
X128950000Y-315200000D01*
X128950000Y-315200000D02*
X129450000Y-315450000D01*
X129450000Y-315450000D02*
X129000000Y-315650000D01*
D11*
X130200000Y-317550000D02*
X128200000Y-317550000D01*
X128200000Y-317550000D02*
X128200000Y-312850000D01*
%TO.C,R2*%
X298170000Y-321370000D02*
X298170000Y-326070000D01*
X296170000Y-321370000D02*
X298170000Y-321370000D01*
D12*
X296970000Y-323270000D02*
X297420000Y-323470000D01*
X297420000Y-323470000D02*
X296920000Y-323720000D01*
X296920000Y-323720000D02*
X297420000Y-323970000D01*
X297420000Y-323970000D02*
X296970000Y-324170000D01*
D11*
X298170000Y-326070000D02*
X296170000Y-326070000D01*
X296170000Y-326070000D02*
X296170000Y-321370000D01*
%TO.C,Q14*%
X81700000Y-285345000D02*
X80240000Y-285345000D01*
X81700000Y-285345000D02*
X81700000Y-286275000D01*
X81700000Y-288505000D02*
X79540000Y-288505000D01*
X81700000Y-288505000D02*
X81700000Y-287575000D01*
%TO.C,D12*%
X106130000Y-284620000D02*
X102230000Y-284620000D01*
X106130000Y-282620000D02*
X106130000Y-284620000D01*
X106130000Y-282620000D02*
X102230000Y-282620000D01*
D13*
X104630000Y-283620000D02*
X104230000Y-283620000D01*
X104230000Y-283620000D02*
X104230000Y-284170000D01*
X104230000Y-283620000D02*
X104230000Y-283070000D01*
X103630000Y-283620000D02*
X103130000Y-283620000D01*
X104230000Y-283620000D02*
X103630000Y-284120000D01*
X103630000Y-283120000D01*
X104230000Y-283620000D01*
G36*
X104230000Y-283620000D02*
G01*
X103630000Y-284120000D01*
X103630000Y-283120000D01*
X104230000Y-283620000D01*
G37*
D11*
%TO.C,D10*%
X160640000Y-284625000D02*
X156740000Y-284625000D01*
X160640000Y-282625000D02*
X160640000Y-284625000D01*
X160640000Y-282625000D02*
X156740000Y-282625000D01*
D13*
X159140000Y-283625000D02*
X158740000Y-283625000D01*
X158740000Y-283625000D02*
X158740000Y-284175000D01*
X158740000Y-283625000D02*
X158740000Y-283075000D01*
X158140000Y-283625000D02*
X157640000Y-283625000D01*
X158740000Y-283625000D02*
X158140000Y-284125000D01*
X158140000Y-283125000D01*
X158740000Y-283625000D01*
G36*
X158740000Y-283625000D02*
G01*
X158140000Y-284125000D01*
X158140000Y-283125000D01*
X158740000Y-283625000D01*
G37*
D11*
%TO.C,R5*%
X114940000Y-312850000D02*
X114940000Y-317550000D01*
X112940000Y-312850000D02*
X114940000Y-312850000D01*
D12*
X113740000Y-314750000D02*
X114190000Y-314950000D01*
X114190000Y-314950000D02*
X113690000Y-315200000D01*
X113690000Y-315200000D02*
X114190000Y-315450000D01*
X114190000Y-315450000D02*
X113740000Y-315650000D01*
D11*
X114940000Y-317550000D02*
X112940000Y-317550000D01*
X112940000Y-317550000D02*
X112940000Y-312850000D01*
%TO.C,D7*%
X201550000Y-284600000D02*
X197650000Y-284600000D01*
X201550000Y-282600000D02*
X201550000Y-284600000D01*
X201550000Y-282600000D02*
X197650000Y-282600000D01*
D13*
X200050000Y-283600000D02*
X199650000Y-283600000D01*
X199650000Y-283600000D02*
X199650000Y-284150000D01*
X199650000Y-283600000D02*
X199650000Y-283050000D01*
X199050000Y-283600000D02*
X198550000Y-283600000D01*
X199650000Y-283600000D02*
X199050000Y-284100000D01*
X199050000Y-283100000D01*
X199650000Y-283600000D01*
G36*
X199650000Y-283600000D02*
G01*
X199050000Y-284100000D01*
X199050000Y-283100000D01*
X199650000Y-283600000D01*
G37*
D11*
%TO.C,R7*%
X295620000Y-321380000D02*
X295620000Y-326080000D01*
X293620000Y-321380000D02*
X295620000Y-321380000D01*
D12*
X294420000Y-323280000D02*
X294870000Y-323480000D01*
X294870000Y-323480000D02*
X294370000Y-323730000D01*
X294370000Y-323730000D02*
X294870000Y-323980000D01*
X294870000Y-323980000D02*
X294420000Y-324180000D01*
D11*
X295620000Y-326080000D02*
X293620000Y-326080000D01*
X293620000Y-326080000D02*
X293620000Y-321380000D01*
%TO.C,C21*%
X316930000Y-341690000D02*
X316930000Y-337190000D01*
X318930000Y-341690000D02*
X316930000Y-341690000D01*
X317080000Y-339940000D02*
X317080000Y-338940000D01*
X317930000Y-339590000D02*
X317930000Y-339865000D01*
X318280000Y-339590000D02*
X317580000Y-339590000D01*
X318280000Y-339290000D02*
X317580000Y-339290000D01*
X317930000Y-339240000D02*
X317930000Y-339015000D01*
X318780000Y-338940000D02*
X318780000Y-339940000D01*
X316930000Y-337190000D02*
X318930000Y-337190000D01*
X318930000Y-337190000D02*
X318930000Y-341690000D01*
%TO.C,Q5*%
X258780000Y-285295000D02*
X257320000Y-285295000D01*
X258780000Y-285295000D02*
X258780000Y-286225000D01*
X258780000Y-288455000D02*
X256620000Y-288455000D01*
X258780000Y-288455000D02*
X258780000Y-287525000D01*
%TO.C,R4*%
X349685000Y-312777500D02*
X349685000Y-308077500D01*
X351685000Y-312777500D02*
X349685000Y-312777500D01*
D12*
X350885000Y-310877500D02*
X350435000Y-310677500D01*
X350435000Y-310677500D02*
X350935000Y-310427500D01*
X350935000Y-310427500D02*
X350435000Y-310177500D01*
X350435000Y-310177500D02*
X350885000Y-309977500D01*
D11*
X349685000Y-308077500D02*
X351685000Y-308077500D01*
X351685000Y-308077500D02*
X351685000Y-312777500D01*
%TO.C,Q6*%
X190700000Y-285315000D02*
X189240000Y-285315000D01*
X190700000Y-285315000D02*
X190700000Y-286245000D01*
X190700000Y-288475000D02*
X188540000Y-288475000D01*
X190700000Y-288475000D02*
X190700000Y-287545000D01*
%TO.C,R26*%
X128180000Y-329100000D02*
X128180000Y-324400000D01*
X130180000Y-329100000D02*
X128180000Y-329100000D01*
D12*
X129380000Y-327200000D02*
X128930000Y-327000000D01*
X128930000Y-327000000D02*
X129430000Y-326750000D01*
X129430000Y-326750000D02*
X128930000Y-326500000D01*
X128930000Y-326500000D02*
X129380000Y-326300000D01*
D11*
X128180000Y-324400000D02*
X130180000Y-324400000D01*
X130180000Y-324400000D02*
X130180000Y-329100000D01*
%TO.C,R21*%
X280970000Y-337020000D02*
X280970000Y-332320000D01*
X282970000Y-337020000D02*
X280970000Y-337020000D01*
D12*
X282170000Y-335120000D02*
X281720000Y-334920000D01*
X281720000Y-334920000D02*
X282220000Y-334670000D01*
X282220000Y-334670000D02*
X281720000Y-334420000D01*
X281720000Y-334420000D02*
X282170000Y-334220000D01*
D11*
X280970000Y-332320000D02*
X282970000Y-332320000D01*
X282970000Y-332320000D02*
X282970000Y-337020000D01*
%TO.C,R6*%
X349685000Y-317977500D02*
X349685000Y-313277500D01*
X351685000Y-317977500D02*
X349685000Y-317977500D01*
D12*
X350885000Y-316077500D02*
X350435000Y-315877500D01*
X350435000Y-315877500D02*
X350935000Y-315627500D01*
X350935000Y-315627500D02*
X350435000Y-315377500D01*
X350435000Y-315377500D02*
X350885000Y-315177500D01*
D11*
X349685000Y-313277500D02*
X351685000Y-313277500D01*
X351685000Y-313277500D02*
X351685000Y-317977500D01*
%TO.C,Q1*%
X245205000Y-285315000D02*
X243745000Y-285315000D01*
X245205000Y-285315000D02*
X245205000Y-286245000D01*
X245205000Y-288475000D02*
X243045000Y-288475000D01*
X245205000Y-288475000D02*
X245205000Y-287545000D01*
%TO.C,SW3*%
X359495000Y-337925000D02*
X359495000Y-331475000D01*
X362370000Y-337925000D02*
X359495000Y-337925000D01*
X362370000Y-334700000D02*
X363720000Y-334700000D01*
X363720000Y-334700000D02*
X363720000Y-333400000D01*
X363720000Y-333400000D02*
X362370000Y-333400000D01*
X359495000Y-331475000D02*
X362370000Y-331475000D01*
X362370000Y-331475000D02*
X362370000Y-337925000D01*
%TO.C,D11*%
X92540000Y-284610000D02*
X88640000Y-284610000D01*
X92540000Y-282610000D02*
X92540000Y-284610000D01*
X92540000Y-282610000D02*
X88640000Y-282610000D01*
D13*
X91040000Y-283610000D02*
X90640000Y-283610000D01*
X90640000Y-283610000D02*
X90640000Y-284160000D01*
X90640000Y-283610000D02*
X90640000Y-283060000D01*
X90040000Y-283610000D02*
X89540000Y-283610000D01*
X90640000Y-283610000D02*
X90040000Y-284110000D01*
X90040000Y-283110000D01*
X90640000Y-283610000D01*
G36*
X90640000Y-283610000D02*
G01*
X90040000Y-284110000D01*
X90040000Y-283110000D01*
X90640000Y-283610000D01*
G37*
D11*
%TO.C,C5*%
X219210000Y-347110000D02*
X219210000Y-342610000D01*
X221210000Y-347110000D02*
X219210000Y-347110000D01*
X219360000Y-345360000D02*
X219360000Y-344360000D01*
X220210000Y-345010000D02*
X220210000Y-345285000D01*
X220560000Y-345010000D02*
X219860000Y-345010000D01*
X220560000Y-344710000D02*
X219860000Y-344710000D01*
X220210000Y-344660000D02*
X220210000Y-344435000D01*
X221060000Y-344360000D02*
X221060000Y-345360000D01*
X219210000Y-342610000D02*
X221210000Y-342610000D01*
X221210000Y-342610000D02*
X221210000Y-347110000D01*
%TO.C,SW4*%
X362230000Y-264790000D02*
X358530000Y-264790000D01*
X358530000Y-264790000D02*
X358530000Y-270910000D01*
X362230000Y-270910000D02*
X362230000Y-264790000D01*
X358530000Y-270910000D02*
X362230000Y-270910000D01*
%TO.C,D5*%
X269670000Y-284560000D02*
X265770000Y-284560000D01*
X269670000Y-282560000D02*
X269670000Y-284560000D01*
X269670000Y-282560000D02*
X265770000Y-282560000D01*
D13*
X268170000Y-283560000D02*
X267770000Y-283560000D01*
X267770000Y-283560000D02*
X267770000Y-284110000D01*
X267770000Y-283560000D02*
X267770000Y-283010000D01*
X267170000Y-283560000D02*
X266670000Y-283560000D01*
X267770000Y-283560000D02*
X267170000Y-284060000D01*
X267170000Y-283060000D01*
X267770000Y-283560000D01*
G36*
X267770000Y-283560000D02*
G01*
X267170000Y-284060000D01*
X267170000Y-283060000D01*
X267770000Y-283560000D01*
G37*
D11*
%TO.C,R11*%
X293120000Y-321370000D02*
X293120000Y-326070000D01*
X291120000Y-321370000D02*
X293120000Y-321370000D01*
D12*
X291920000Y-323270000D02*
X292370000Y-323470000D01*
X292370000Y-323470000D02*
X291870000Y-323720000D01*
X291870000Y-323720000D02*
X292370000Y-323970000D01*
X292370000Y-323970000D02*
X291920000Y-324170000D01*
D11*
X293120000Y-326070000D02*
X291120000Y-326070000D01*
X291120000Y-326070000D02*
X291120000Y-321370000D01*
%TO.C,D3*%
X256050000Y-284590000D02*
X252150000Y-284590000D01*
X256050000Y-282590000D02*
X256050000Y-284590000D01*
X256050000Y-282590000D02*
X252150000Y-282590000D01*
D13*
X254550000Y-283590000D02*
X254150000Y-283590000D01*
X254150000Y-283590000D02*
X254150000Y-284140000D01*
X254150000Y-283590000D02*
X254150000Y-283040000D01*
X253550000Y-283590000D02*
X253050000Y-283590000D01*
X254150000Y-283590000D02*
X253550000Y-284090000D01*
X253550000Y-283090000D01*
X254150000Y-283590000D01*
G36*
X254150000Y-283590000D02*
G01*
X253550000Y-284090000D01*
X253550000Y-283090000D01*
X254150000Y-283590000D01*
G37*
D11*
%TO.C,Q2*%
X343190000Y-306520000D02*
X341730000Y-306520000D01*
X343190000Y-306520000D02*
X343190000Y-307450000D01*
X343190000Y-309680000D02*
X341030000Y-309680000D01*
X343190000Y-309680000D02*
X343190000Y-308750000D01*
%TO.C,R27*%
X295630000Y-344280000D02*
X295630000Y-348980000D01*
X293630000Y-344280000D02*
X295630000Y-344280000D01*
D12*
X294430000Y-346180000D02*
X294880000Y-346380000D01*
X294880000Y-346380000D02*
X294380000Y-346630000D01*
X294380000Y-346630000D02*
X294880000Y-346880000D01*
X294880000Y-346880000D02*
X294430000Y-347080000D01*
D11*
X295630000Y-348980000D02*
X293630000Y-348980000D01*
X293630000Y-348980000D02*
X293630000Y-344280000D01*
%TO.C,C1*%
X336450000Y-320242500D02*
X331950000Y-320242500D01*
X336450000Y-318242500D02*
X336450000Y-320242500D01*
X334700000Y-320092500D02*
X333700000Y-320092500D01*
X334350000Y-319242500D02*
X334625000Y-319242500D01*
X334350000Y-318892500D02*
X334350000Y-319592500D01*
X334050000Y-318892500D02*
X334050000Y-319592500D01*
X334000000Y-319242500D02*
X333775000Y-319242500D01*
X333700000Y-318392500D02*
X334700000Y-318392500D01*
X331950000Y-320242500D02*
X331950000Y-318242500D01*
X331950000Y-318242500D02*
X336450000Y-318242500D01*
%TO.C,D9*%
X147040000Y-284610000D02*
X143140000Y-284610000D01*
X147040000Y-282610000D02*
X147040000Y-284610000D01*
X147040000Y-282610000D02*
X143140000Y-282610000D01*
D13*
X145540000Y-283610000D02*
X145140000Y-283610000D01*
X145140000Y-283610000D02*
X145140000Y-284160000D01*
X145140000Y-283610000D02*
X145140000Y-283060000D01*
X144540000Y-283610000D02*
X144040000Y-283610000D01*
X145140000Y-283610000D02*
X144540000Y-284110000D01*
X144540000Y-283110000D01*
X145140000Y-283610000D01*
G36*
X145140000Y-283610000D02*
G01*
X144540000Y-284110000D01*
X144540000Y-283110000D01*
X145140000Y-283610000D01*
G37*
D11*
%TO.C,R3*%
X316745000Y-256920000D02*
X316745000Y-252220000D01*
X318745000Y-256920000D02*
X316745000Y-256920000D01*
D12*
X317945000Y-255020000D02*
X317495000Y-254820000D01*
X317495000Y-254820000D02*
X317995000Y-254570000D01*
X317995000Y-254570000D02*
X317495000Y-254320000D01*
X317495000Y-254320000D02*
X317945000Y-254120000D01*
D11*
X316745000Y-252220000D02*
X318745000Y-252220000D01*
X318745000Y-252220000D02*
X318745000Y-256920000D01*
%TO.C,R17*%
X288020000Y-321370000D02*
X288020000Y-326070000D01*
X286020000Y-321370000D02*
X288020000Y-321370000D01*
D12*
X286820000Y-323270000D02*
X287270000Y-323470000D01*
X287270000Y-323470000D02*
X286770000Y-323720000D01*
X286770000Y-323720000D02*
X287270000Y-323970000D01*
X287270000Y-323970000D02*
X286820000Y-324170000D01*
D11*
X288020000Y-326070000D02*
X286020000Y-326070000D01*
X286020000Y-326070000D02*
X286020000Y-321370000D01*
%TO.C,R18*%
X120020000Y-312850000D02*
X120020000Y-317550000D01*
X118020000Y-312850000D02*
X120020000Y-312850000D01*
D12*
X118820000Y-314750000D02*
X119270000Y-314950000D01*
X119270000Y-314950000D02*
X118770000Y-315200000D01*
X118770000Y-315200000D02*
X119270000Y-315450000D01*
X119270000Y-315450000D02*
X118820000Y-315650000D01*
D11*
X120020000Y-317550000D02*
X118020000Y-317550000D01*
X118020000Y-317550000D02*
X118020000Y-312850000D01*
%TO.C,R30*%
X338130000Y-310450000D02*
X338130000Y-305750000D01*
X340130000Y-310450000D02*
X338130000Y-310450000D01*
D12*
X339330000Y-308550000D02*
X338880000Y-308350000D01*
X338880000Y-308350000D02*
X339380000Y-308100000D01*
X339380000Y-308100000D02*
X338880000Y-307850000D01*
X338880000Y-307850000D02*
X339330000Y-307650000D01*
D11*
X338130000Y-305750000D02*
X340130000Y-305750000D01*
X340130000Y-305750000D02*
X340130000Y-310450000D01*
%TO.C,Q13*%
X149800000Y-285340000D02*
X148340000Y-285340000D01*
X149800000Y-285340000D02*
X149800000Y-286270000D01*
X149800000Y-288500000D02*
X147640000Y-288500000D01*
X149800000Y-288500000D02*
X149800000Y-287570000D01*
%TO.C,R8*%
X349685000Y-323227500D02*
X349685000Y-318527500D01*
X351685000Y-323227500D02*
X349685000Y-323227500D01*
D12*
X350885000Y-321327500D02*
X350435000Y-321127500D01*
X350435000Y-321127500D02*
X350935000Y-320877500D01*
X350935000Y-320877500D02*
X350435000Y-320627500D01*
X350435000Y-320627500D02*
X350885000Y-320427500D01*
D11*
X349685000Y-318527500D02*
X351685000Y-318527500D01*
X351685000Y-318527500D02*
X351685000Y-323227500D01*
%TO.C,D8*%
X215140000Y-284605000D02*
X211240000Y-284605000D01*
X215140000Y-282605000D02*
X215140000Y-284605000D01*
X215140000Y-282605000D02*
X211240000Y-282605000D01*
D13*
X213640000Y-283605000D02*
X213240000Y-283605000D01*
X213240000Y-283605000D02*
X213240000Y-284155000D01*
X213240000Y-283605000D02*
X213240000Y-283055000D01*
X212640000Y-283605000D02*
X212140000Y-283605000D01*
X213240000Y-283605000D02*
X212640000Y-284105000D01*
X212640000Y-283105000D01*
X213240000Y-283605000D01*
G36*
X213240000Y-283605000D02*
G01*
X212640000Y-284105000D01*
X212640000Y-283105000D01*
X213240000Y-283605000D01*
G37*
D11*
%TO.C,R24*%
X293100000Y-344280000D02*
X293100000Y-348980000D01*
X291100000Y-344280000D02*
X293100000Y-344280000D01*
D12*
X291900000Y-346180000D02*
X292350000Y-346380000D01*
X292350000Y-346380000D02*
X291850000Y-346630000D01*
X291850000Y-346630000D02*
X292350000Y-346880000D01*
X292350000Y-346880000D02*
X291900000Y-347080000D01*
D11*
X293100000Y-348980000D02*
X291100000Y-348980000D01*
X291100000Y-348980000D02*
X291100000Y-344280000D01*
%TO.C,R14*%
X290520000Y-321370000D02*
X290520000Y-326070000D01*
X288520000Y-321370000D02*
X290520000Y-321370000D01*
D12*
X289320000Y-323270000D02*
X289770000Y-323470000D01*
X289770000Y-323470000D02*
X289270000Y-323720000D01*
X289270000Y-323720000D02*
X289770000Y-323970000D01*
X289770000Y-323970000D02*
X289320000Y-324170000D01*
D11*
X290520000Y-326070000D02*
X288520000Y-326070000D01*
X288520000Y-326070000D02*
X288520000Y-321370000D01*
%TO.C,R28*%
X300670000Y-332220000D02*
X300670000Y-336920000D01*
X298670000Y-332220000D02*
X300670000Y-332220000D01*
D12*
X299470000Y-334120000D02*
X299920000Y-334320000D01*
X299920000Y-334320000D02*
X299420000Y-334570000D01*
X299420000Y-334570000D02*
X299920000Y-334820000D01*
X299920000Y-334820000D02*
X299470000Y-335020000D01*
D11*
X300670000Y-336920000D02*
X298670000Y-336920000D01*
X298670000Y-336920000D02*
X298670000Y-332220000D01*
%TO.C,R16*%
X112940000Y-329100000D02*
X112940000Y-324400000D01*
X114940000Y-329100000D02*
X112940000Y-329100000D01*
D12*
X114140000Y-327200000D02*
X113690000Y-327000000D01*
X113690000Y-327000000D02*
X114190000Y-326750000D01*
X114190000Y-326750000D02*
X113690000Y-326500000D01*
X113690000Y-326500000D02*
X114140000Y-326300000D01*
D11*
X112940000Y-324400000D02*
X114940000Y-324400000D01*
X114940000Y-324400000D02*
X114940000Y-329100000D01*
%TO.C,Q17*%
X95325000Y-285345000D02*
X93865000Y-285345000D01*
X95325000Y-285345000D02*
X95325000Y-286275000D01*
X95325000Y-288505000D02*
X93165000Y-288505000D01*
X95325000Y-288505000D02*
X95325000Y-287575000D01*
%TO.C,R23*%
X123110000Y-329100000D02*
X123110000Y-324400000D01*
X125110000Y-329100000D02*
X123110000Y-329100000D01*
D12*
X124310000Y-327200000D02*
X123860000Y-327000000D01*
X123860000Y-327000000D02*
X124360000Y-326750000D01*
X124360000Y-326750000D02*
X123860000Y-326500000D01*
X123860000Y-326500000D02*
X124310000Y-326300000D01*
D11*
X123110000Y-324400000D02*
X125110000Y-324400000D01*
X125110000Y-324400000D02*
X125110000Y-329100000D01*
%TO.C,R20*%
X118000000Y-329100000D02*
X118000000Y-324400000D01*
X120000000Y-329100000D02*
X118000000Y-329100000D01*
D12*
X119200000Y-327200000D02*
X118750000Y-327000000D01*
X118750000Y-327000000D02*
X119250000Y-326750000D01*
X119250000Y-326750000D02*
X118750000Y-326500000D01*
X118750000Y-326500000D02*
X119200000Y-326300000D01*
D11*
X118000000Y-324400000D02*
X120000000Y-324400000D01*
X120000000Y-324400000D02*
X120000000Y-329100000D01*
%TO.C,Q10*%
X136200000Y-285340000D02*
X134740000Y-285340000D01*
X136200000Y-285340000D02*
X136200000Y-286270000D01*
X136200000Y-288500000D02*
X134040000Y-288500000D01*
X136200000Y-288500000D02*
X136200000Y-287570000D01*
%TO.C,D4*%
X81680000Y-325700000D02*
X77780000Y-325700000D01*
X81680000Y-323700000D02*
X81680000Y-325700000D01*
X81680000Y-323700000D02*
X77780000Y-323700000D01*
D13*
X80180000Y-324700000D02*
X79780000Y-324700000D01*
X79780000Y-324700000D02*
X79780000Y-325250000D01*
X79780000Y-324700000D02*
X79780000Y-324150000D01*
X79180000Y-324700000D02*
X78680000Y-324700000D01*
X79780000Y-324700000D02*
X79180000Y-325200000D01*
X79180000Y-324200000D01*
X79780000Y-324700000D01*
G36*
X79780000Y-324700000D02*
G01*
X79180000Y-325200000D01*
X79180000Y-324200000D01*
X79780000Y-324700000D01*
G37*
%TD*%
M02*
