%TF.GenerationSoftware,KiCad,Pcbnew,7.0.1*%
%TF.CreationDate,2024-04-02T15:52:51+09:00*%
%TF.ProjectId,Lift_Main_V5.0,4c696674-5f4d-4616-996e-5f56352e302e,rev?*%
%TF.SameCoordinates,Original*%
%TF.FileFunction,Soldermask,Top*%
%TF.FilePolarity,Negative*%
%FSLAX46Y46*%
G04 Gerber Fmt 4.6, Leading zero omitted, Abs format (unit mm)*
G04 Created by KiCad (PCBNEW 7.0.1) date 2024-04-02 15:52:51*
%MOMM*%
%LPD*%
G01*
G04 APERTURE LIST*
G04 Aperture macros list*
%AMRoundRect*
0 Rectangle with rounded corners*
0 $1 Rounding radius*
0 $2 $3 $4 $5 $6 $7 $8 $9 X,Y pos of 4 corners*
0 Add a 4 corners polygon primitive as box body*
4,1,4,$2,$3,$4,$5,$6,$7,$8,$9,$2,$3,0*
0 Add four circle primitives for the rounded corners*
1,1,$1+$1,$2,$3*
1,1,$1+$1,$4,$5*
1,1,$1+$1,$6,$7*
1,1,$1+$1,$8,$9*
0 Add four rect primitives between the rounded corners*
20,1,$1+$1,$2,$3,$4,$5,0*
20,1,$1+$1,$4,$5,$6,$7,0*
20,1,$1+$1,$6,$7,$8,$9,0*
20,1,$1+$1,$8,$9,$2,$3,0*%
%AMFreePoly0*
4,1,35,0.586062,0.786062,0.601000,0.750000,0.601000,-0.750000,0.586062,-0.786062,0.550000,-0.801000,0.000000,-0.801000,-0.012285,-0.795911,-0.071157,-0.795911,-0.085525,-0.793845,-0.222076,-0.753750,-0.235281,-0.747720,-0.355003,-0.670779,-0.365973,-0.661273,-0.459170,-0.553718,-0.467018,-0.541506,-0.526137,-0.412052,-0.530227,-0.398124,-0.550481,-0.257258,-0.551000,-0.250000,-0.551000,0.250000,
-0.550481,0.257258,-0.530227,0.398124,-0.526137,0.412052,-0.467018,0.541506,-0.459170,0.553718,-0.365973,0.661273,-0.355003,0.670779,-0.235281,0.747720,-0.222076,0.753750,-0.085525,0.793845,-0.071157,0.795911,-0.012285,0.795911,0.000000,0.801000,0.550000,0.801000,0.586062,0.786062,0.586062,0.786062,$1*%
%AMFreePoly1*
4,1,35,0.012285,0.795911,0.071157,0.795911,0.085525,0.793845,0.222076,0.753750,0.235281,0.747720,0.355003,0.670779,0.365973,0.661273,0.459170,0.553718,0.467018,0.541506,0.526137,0.412052,0.530227,0.398124,0.550481,0.257258,0.551000,0.250000,0.551000,-0.250000,0.550481,-0.257258,0.530227,-0.398124,0.526137,-0.412052,0.467018,-0.541506,0.459170,-0.553718,0.365973,-0.661273,
0.355003,-0.670779,0.235281,-0.747720,0.222076,-0.753750,0.085525,-0.793845,0.071157,-0.795911,0.012285,-0.795911,0.000000,-0.801000,-0.550000,-0.801000,-0.586062,-0.786062,-0.601000,-0.750000,-0.601000,0.750000,-0.586062,0.786062,-0.550000,0.801000,0.000000,0.801000,0.012285,0.795911,0.012285,0.795911,$1*%
G04 Aperture macros list end*
%ADD10C,0.100000*%
%ADD11RoundRect,0.051000X-2.500000X-2.500000X2.500000X-2.500000X2.500000X2.500000X-2.500000X2.500000X0*%
%ADD12C,5.102000*%
%ADD13C,2.902000*%
%ADD14C,1.802000*%
%ADD15RoundRect,0.051000X-1.000000X-1.000000X1.000000X-1.000000X1.000000X1.000000X-1.000000X1.000000X0*%
%ADD16C,2.102000*%
%ADD17C,8.102000*%
%ADD18RoundRect,0.051000X-0.650000X-0.650000X0.650000X-0.650000X0.650000X0.650000X-0.650000X0.650000X0*%
%ADD19RoundRect,0.051000X-0.625000X0.750000X-0.625000X-0.750000X0.625000X-0.750000X0.625000X0.750000X0*%
%ADD20RoundRect,0.051000X0.350000X-0.550000X0.350000X0.550000X-0.350000X0.550000X-0.350000X-0.550000X0*%
%ADD21C,1.662000*%
%ADD22RoundRect,0.051000X-0.780000X-0.900000X0.780000X-0.900000X0.780000X0.900000X-0.780000X0.900000X0*%
%ADD23C,6.102000*%
%ADD24C,3.102000*%
%ADD25RoundRect,0.301000X1.500000X0.550000X-1.500000X0.550000X-1.500000X-0.550000X1.500000X-0.550000X0*%
%ADD26RoundRect,0.376000X-0.325000X-0.325000X0.325000X-0.325000X0.325000X0.325000X-0.325000X0.325000X0*%
%ADD27RoundRect,0.051000X-0.750000X-0.625000X0.750000X-0.625000X0.750000X0.625000X-0.750000X0.625000X0*%
%ADD28C,4.602000*%
%ADD29C,13.602000*%
%ADD30RoundRect,0.051000X0.750000X-0.750000X0.750000X0.750000X-0.750000X0.750000X-0.750000X-0.750000X0*%
%ADD31RoundRect,0.051000X0.125000X-0.550000X0.125000X0.550000X-0.125000X0.550000X-0.125000X-0.550000X0*%
%ADD32RoundRect,0.376000X-0.325000X0.325000X-0.325000X-0.325000X0.325000X-0.325000X0.325000X0.325000X0*%
%ADD33RoundRect,0.201000X-0.825000X-0.150000X0.825000X-0.150000X0.825000X0.150000X-0.825000X0.150000X0*%
%ADD34RoundRect,0.300900X0.675100X-0.600100X0.675100X0.600100X-0.675100X0.600100X-0.675100X-0.600100X0*%
%ADD35O,1.952000X1.802000*%
%ADD36C,3.202000*%
%ADD37RoundRect,0.051000X-0.750000X0.750000X-0.750000X-0.750000X0.750000X-0.750000X0.750000X0.750000X0*%
%ADD38C,1.602000*%
%ADD39O,4.702000X1.602000*%
%ADD40C,2.602000*%
%ADD41RoundRect,0.301000X-0.600000X0.600000X-0.600000X-0.600000X0.600000X-0.600000X0.600000X0.600000X0*%
%ADD42RoundRect,0.051000X0.780000X-0.780000X0.780000X0.780000X-0.780000X0.780000X-0.780000X-0.780000X0*%
%ADD43RoundRect,0.051000X0.625000X-0.750000X0.625000X0.750000X-0.625000X0.750000X-0.625000X-0.750000X0*%
%ADD44RoundRect,0.051000X-1.500000X-1.500000X1.500000X-1.500000X1.500000X1.500000X-1.500000X1.500000X0*%
%ADD45RoundRect,0.351000X0.950000X0.950000X-0.950000X0.950000X-0.950000X-0.950000X0.950000X-0.950000X0*%
%ADD46RoundRect,0.051000X0.150000X0.650000X-0.150000X0.650000X-0.150000X-0.650000X0.150000X-0.650000X0*%
%ADD47RoundRect,0.051000X0.900000X1.100000X-0.900000X1.100000X-0.900000X-1.100000X0.900000X-1.100000X0*%
%ADD48RoundRect,0.051000X1.500000X-1.500000X1.500000X1.500000X-1.500000X1.500000X-1.500000X-1.500000X0*%
%ADD49RoundRect,0.201000X0.150000X-0.825000X0.150000X0.825000X-0.150000X0.825000X-0.150000X-0.825000X0*%
%ADD50RoundRect,0.551000X0.500000X-0.750000X0.500000X0.750000X-0.500000X0.750000X-0.500000X-0.750000X0*%
%ADD51RoundRect,0.801000X0.750000X-1.250000X0.750000X1.250000X-0.750000X1.250000X-0.750000X-1.250000X0*%
%ADD52FreePoly0,0.000000*%
%ADD53RoundRect,0.051000X-0.500000X-0.750000X0.500000X-0.750000X0.500000X0.750000X-0.500000X0.750000X0*%
%ADD54FreePoly1,0.000000*%
%ADD55C,0.902000*%
%ADD56RoundRect,0.051000X0.400000X0.800000X-0.400000X0.800000X-0.400000X-0.800000X0.400000X-0.800000X0*%
%ADD57RoundRect,0.051000X0.600000X0.500000X-0.600000X0.500000X-0.600000X-0.500000X0.600000X-0.500000X0*%
%ADD58RoundRect,0.051000X-1.500000X1.500000X-1.500000X-1.500000X1.500000X-1.500000X1.500000X1.500000X0*%
%ADD59RoundRect,0.051000X-0.900000X-0.900000X0.900000X-0.900000X0.900000X0.900000X-0.900000X0.900000X0*%
%ADD60C,1.902000*%
G04 APERTURE END LIST*
D10*
%TO.C,SW2*%
X94605000Y-361010000D02*
G75*
G03*
X94605000Y-361010000I-635000J0D01*
G01*
X93164500Y-363510000D02*
G75*
G03*
X93164500Y-363510000I-444500J0D01*
G01*
X88664500Y-363510000D02*
G75*
G03*
X88664500Y-363510000I-444500J0D01*
G01*
X87605000Y-361010000D02*
G75*
G03*
X87605000Y-361010000I-635000J0D01*
G01*
%TD*%
D11*
%TO.C,J5*%
X194670000Y-258570000D03*
D12*
X207670000Y-258570000D03*
%TD*%
D13*
%TO.C,K8*%
X91940000Y-291145000D03*
D14*
X81940000Y-280945000D03*
X91940000Y-280945000D03*
D13*
X86940000Y-278445000D03*
X81940000Y-291145000D03*
%TD*%
D15*
%TO.C,C12*%
X211180000Y-305850000D03*
D16*
X216180000Y-305850000D03*
%TD*%
D17*
%TO.C,H1*%
X182670000Y-346570000D03*
%TD*%
D18*
%TO.C,R1*%
X225820000Y-324020000D03*
X228220000Y-324020000D03*
%TD*%
D19*
%TO.C,C11*%
X270970000Y-298420000D03*
X270970000Y-300920000D03*
%TD*%
D17*
%TO.C,H5*%
X73670000Y-346570000D03*
%TD*%
D19*
%TO.C,C17*%
X282970000Y-298420000D03*
X282970000Y-300920000D03*
%TD*%
D20*
%TO.C,SW6*%
X359280000Y-265750000D03*
X359280000Y-269950000D03*
X361480000Y-265750000D03*
X361480000Y-269950000D03*
%TD*%
D21*
%TO.C,MO3*%
X220220000Y-324660000D03*
X220220000Y-322120000D03*
X220220000Y-319580000D03*
X220220000Y-317040000D03*
X220220000Y-329740000D03*
X220220000Y-327200000D03*
X220220000Y-337360000D03*
X220220000Y-334820000D03*
X220220000Y-332280000D03*
D22*
X220220000Y-339900000D03*
%TD*%
D23*
%TO.C,H4*%
X343670000Y-491570000D03*
%TD*%
D17*
%TO.C,H24*%
X343670000Y-209540000D03*
%TD*%
D13*
%TO.C,K6*%
X146440000Y-291145000D03*
D14*
X136440000Y-280945000D03*
X146440000Y-280945000D03*
D13*
X141440000Y-278445000D03*
X136440000Y-291145000D03*
%TD*%
D24*
%TO.C,J9*%
X174170000Y-258570000D03*
X174170000Y-253570000D03*
X169170000Y-258570000D03*
X169170000Y-253570000D03*
X164170000Y-258570000D03*
X164170000Y-253570000D03*
%TD*%
D17*
%TO.C,H15*%
X73670000Y-209540000D03*
%TD*%
D25*
%TO.C,C4*%
X267240000Y-319090000D03*
X261640000Y-319090000D03*
%TD*%
D26*
%TO.C,R15*%
X209630000Y-334780000D03*
X211930000Y-334780000D03*
%TD*%
D27*
%TO.C,C19*%
X107805000Y-273055625D03*
X110305000Y-273055625D03*
%TD*%
D17*
%TO.C,H4*%
X182670000Y-256570000D03*
%TD*%
%TO.C,H6*%
X237170000Y-256570000D03*
%TD*%
%TO.C,H20*%
X182670000Y-243570000D03*
%TD*%
D28*
%TO.C,J2*%
X324320000Y-268170000D03*
X331820000Y-268170000D03*
D29*
X328070000Y-261370000D03*
D28*
X324320000Y-254570000D03*
X331820000Y-254570000D03*
%TD*%
D27*
%TO.C,C7*%
X216904061Y-273145000D03*
X219404061Y-273145000D03*
%TD*%
D30*
%TO.C,SW5*%
X360380000Y-271750000D03*
X360380000Y-263950000D03*
%TD*%
D24*
%TO.C,SW2*%
X93970000Y-361010000D03*
X86970000Y-361010000D03*
D14*
X92720000Y-363510000D03*
X88220000Y-363510000D03*
%TD*%
D31*
%TO.C,U4*%
X231670000Y-323420000D03*
X232170000Y-323420000D03*
X232670000Y-323420000D03*
X233170000Y-323420000D03*
X233670000Y-323420000D03*
X233670000Y-319120000D03*
X233170000Y-319120000D03*
X232670000Y-319120000D03*
X232170000Y-319120000D03*
X231670000Y-319120000D03*
%TD*%
D17*
%TO.C,H9*%
X128170000Y-256570000D03*
%TD*%
D19*
%TO.C,C15*%
X279970000Y-298420000D03*
X279970000Y-300920000D03*
%TD*%
D13*
%TO.C,K3*%
X269070000Y-291095000D03*
D14*
X259070000Y-280895000D03*
X269070000Y-280895000D03*
D13*
X264070000Y-278395000D03*
X259070000Y-291095000D03*
%TD*%
D17*
%TO.C,H11*%
X343670000Y-256570000D03*
%TD*%
D32*
%TO.C,R13*%
X323830000Y-350700000D03*
X323830000Y-353000000D03*
%TD*%
D33*
%TO.C,U2*%
X261225000Y-270605000D03*
X261225000Y-271875000D03*
X261225000Y-273145000D03*
X261225000Y-274415000D03*
X266175000Y-274415000D03*
X266175000Y-273145000D03*
X266175000Y-271875000D03*
X266175000Y-270605000D03*
%TD*%
D26*
%TO.C,R29*%
X209630000Y-332240000D03*
X211930000Y-332240000D03*
%TD*%
D33*
%TO.C,U5*%
X206774061Y-270615000D03*
X206774061Y-271885000D03*
X206774061Y-273155000D03*
X206774061Y-274425000D03*
X211724061Y-274425000D03*
X211724061Y-273155000D03*
X211724061Y-271885000D03*
X211724061Y-270615000D03*
%TD*%
D34*
%TO.C,J7*%
X355920000Y-336340000D03*
D35*
X355920000Y-333840000D03*
X355920000Y-331340000D03*
X355920000Y-328840000D03*
%TD*%
D36*
%TO.C,J13*%
X354180000Y-320377500D03*
X354180000Y-308947500D03*
D37*
X347830000Y-319107500D03*
D38*
X345290000Y-317837500D03*
X347830000Y-316567500D03*
X345290000Y-315297500D03*
X347830000Y-314027500D03*
X345290000Y-312757500D03*
X347830000Y-311487500D03*
X345290000Y-310217500D03*
D39*
X357730000Y-322432500D03*
X357730000Y-306907500D03*
%TD*%
D17*
%TO.C,H19*%
X182670000Y-276570000D03*
%TD*%
D27*
%TO.C,C9*%
X162254061Y-273170000D03*
X164754061Y-273170000D03*
%TD*%
D24*
%TO.C,J6*%
X228670000Y-258570000D03*
X228670000Y-253570000D03*
X223670000Y-258570000D03*
X223670000Y-253570000D03*
X218670000Y-258570000D03*
X218670000Y-253570000D03*
%TD*%
D13*
%TO.C,K5*%
X214540000Y-291125000D03*
D14*
X204540000Y-280925000D03*
X214540000Y-280925000D03*
D13*
X209540000Y-278425000D03*
X204540000Y-291125000D03*
%TD*%
D27*
%TO.C,C8*%
X216904061Y-270620000D03*
X219404061Y-270620000D03*
%TD*%
D28*
%TO.C,J1*%
X294320000Y-268170000D03*
X301820000Y-268170000D03*
D29*
X298070000Y-261370000D03*
D28*
X294320000Y-254570000D03*
X301820000Y-254570000D03*
%TD*%
D40*
%TO.C,MO1*%
X328655000Y-319242500D03*
X328705000Y-302092500D03*
X289155000Y-319242500D03*
X289155000Y-302092500D03*
%TD*%
D41*
%TO.C,J10*%
X129170000Y-319717495D03*
D14*
X129170000Y-322257495D03*
X126630000Y-319717495D03*
X126630000Y-322257495D03*
X124090000Y-319717495D03*
X124090000Y-322257495D03*
X121550000Y-319717495D03*
X121550000Y-322257495D03*
X119010000Y-319717495D03*
X119010000Y-322257495D03*
X116470000Y-319717495D03*
X116470000Y-322257495D03*
X113930000Y-319717495D03*
X113930000Y-322257495D03*
X111390000Y-319717495D03*
X111390000Y-322257495D03*
X108850000Y-319717495D03*
X108850000Y-322257495D03*
X106310000Y-319717495D03*
X106310000Y-322257495D03*
X103770000Y-319717495D03*
X103770000Y-322257495D03*
X101230000Y-319717495D03*
X101230000Y-322257495D03*
X98690000Y-319717495D03*
X98690000Y-322257495D03*
X96150000Y-319717495D03*
X96150000Y-322257495D03*
X93610000Y-319717495D03*
X93610000Y-322257495D03*
%TD*%
D42*
%TO.C,U13*%
X264150000Y-353270000D03*
D21*
X266690000Y-353270000D03*
X269230000Y-353270000D03*
X271770000Y-353270000D03*
X274310000Y-353270000D03*
X276850000Y-353270000D03*
X279390000Y-353270000D03*
X281930000Y-353270000D03*
X284470000Y-353270000D03*
X287010000Y-353270000D03*
X289550000Y-353270000D03*
X292090000Y-353270000D03*
X294630000Y-353270000D03*
X297170000Y-353270000D03*
X299710000Y-353270000D03*
X302250000Y-353270000D03*
X304790000Y-353270000D03*
X307330000Y-353270000D03*
X309870000Y-353270000D03*
X312410000Y-353270000D03*
X312410000Y-327870000D03*
X309870000Y-327870000D03*
X307330000Y-327870000D03*
X304790000Y-327870000D03*
X302250000Y-327870000D03*
X299710000Y-327870000D03*
X297170000Y-327870000D03*
X294630000Y-327870000D03*
X292090000Y-327870000D03*
X289550000Y-327870000D03*
X287010000Y-327870000D03*
X284470000Y-327870000D03*
X281930000Y-327870000D03*
X279390000Y-327870000D03*
X276850000Y-327870000D03*
X274310000Y-327870000D03*
X271770000Y-327870000D03*
X269230000Y-327870000D03*
X266690000Y-327870000D03*
X264150000Y-327870000D03*
%TD*%
D23*
%TO.C,H7*%
X234669999Y-471570000D03*
%TD*%
D11*
%TO.C,J3*%
X249170000Y-258570000D03*
D12*
X262170000Y-258570000D03*
%TD*%
D43*
%TO.C,D2*%
X317745000Y-255795000D03*
X317745000Y-253295000D03*
%TD*%
D13*
%TO.C,K1*%
X255445000Y-291120000D03*
D14*
X245445000Y-280920000D03*
X255445000Y-280920000D03*
D13*
X250445000Y-278420000D03*
X245445000Y-291120000D03*
%TD*%
D44*
%TO.C,C10*%
X63370000Y-268420000D03*
D24*
X70370000Y-268420000D03*
%TD*%
D11*
%TO.C,J8*%
X140170000Y-258570000D03*
D12*
X153170000Y-258570000D03*
%TD*%
D17*
%TO.C,H25*%
X343670000Y-243570000D03*
%TD*%
D32*
%TO.C,R12*%
X321430000Y-350700000D03*
X321430000Y-353000000D03*
%TD*%
D27*
%TO.C,C16*%
X107805000Y-270530625D03*
X110305000Y-270530625D03*
%TD*%
D45*
%TO.C,MO2*%
X318210000Y-316520000D03*
X318210000Y-303320000D03*
X299710000Y-316520000D03*
X299710000Y-303320000D03*
%TD*%
D46*
%TO.C,J16*%
X118580000Y-345800000D03*
X118080000Y-345800000D03*
X117580000Y-345800000D03*
X117080000Y-345800000D03*
X116580000Y-345800000D03*
X116080000Y-345800000D03*
X115580000Y-345800000D03*
X115080000Y-345800000D03*
X114580000Y-345800000D03*
X114080000Y-345800000D03*
X113580000Y-345800000D03*
X113080000Y-345800000D03*
X112580000Y-345800000D03*
X112080000Y-345800000D03*
X111580000Y-345800000D03*
X111080000Y-345800000D03*
X110580000Y-345800000D03*
X110080000Y-345800000D03*
X109580000Y-345800000D03*
X109080000Y-345800000D03*
X108580000Y-345800000D03*
X108080000Y-345800000D03*
X107580000Y-345800000D03*
X107080000Y-345800000D03*
X106580000Y-345800000D03*
X106080000Y-345800000D03*
X105580000Y-345800000D03*
X105080000Y-345800000D03*
X104580000Y-345800000D03*
X104080000Y-345800000D03*
D47*
X120480000Y-342550000D03*
X102180000Y-342550000D03*
%TD*%
D27*
%TO.C,C3*%
X271254061Y-273160000D03*
X273754061Y-273160000D03*
%TD*%
D17*
%TO.C,H17*%
X182670000Y-209540000D03*
%TD*%
D33*
%TO.C,U7*%
X152224061Y-270615000D03*
X152224061Y-271885000D03*
X152224061Y-273155000D03*
X152224061Y-274425000D03*
X157174061Y-274425000D03*
X157174061Y-273155000D03*
X157174061Y-271885000D03*
X157174061Y-270615000D03*
%TD*%
D17*
%TO.C,H16*%
X128170000Y-209540000D03*
%TD*%
D13*
%TO.C,K4*%
X200940000Y-291125000D03*
D14*
X190940000Y-280925000D03*
X200940000Y-280925000D03*
D13*
X195940000Y-278425000D03*
X190940000Y-291125000D03*
%TD*%
D27*
%TO.C,C6*%
X162254061Y-270620000D03*
X164754061Y-270620000D03*
%TD*%
D48*
%TO.C,C20*%
X319645000Y-290470000D03*
D24*
X319645000Y-283470000D03*
%TD*%
D49*
%TO.C,U1*%
X319525000Y-347025000D03*
X320795000Y-347025000D03*
X322065000Y-347025000D03*
X323335000Y-347025000D03*
X323335000Y-342075000D03*
X322065000Y-342075000D03*
X320795000Y-342075000D03*
X319525000Y-342075000D03*
%TD*%
D41*
%TO.C,J15*%
X337680000Y-329747500D03*
D14*
X335140000Y-329747500D03*
X332600000Y-329747500D03*
X330060000Y-329747500D03*
X327520000Y-329747500D03*
X324980000Y-329747500D03*
X337680000Y-332287500D03*
X335140000Y-332287500D03*
X332600000Y-332287500D03*
X330060000Y-332287500D03*
X327520000Y-332287500D03*
X324980000Y-332287500D03*
%TD*%
D46*
%TO.C,J14*%
X334080000Y-351300000D03*
X333580000Y-351300000D03*
X333080000Y-351300000D03*
X332580000Y-351300000D03*
X332080000Y-351300000D03*
X331580000Y-351300000D03*
X331080000Y-351300000D03*
X330580000Y-351300000D03*
X330080000Y-351300000D03*
X329580000Y-351300000D03*
X329080000Y-351300000D03*
X328580000Y-351300000D03*
D47*
X335980000Y-348050000D03*
X326680000Y-348050000D03*
%TD*%
D23*
%TO.C,H10*%
X73669999Y-401570000D03*
%TD*%
%TO.C,H11*%
X73669999Y-491570000D03*
%TD*%
D50*
%TO.C,F1*%
X311445000Y-265780000D03*
D51*
X309945000Y-263370000D03*
D50*
X311445000Y-260990000D03*
X312445000Y-256550000D03*
D51*
X313895000Y-254120000D03*
D50*
X312445000Y-251760000D03*
%TD*%
D19*
%TO.C,C14*%
X276970000Y-298420000D03*
X276970000Y-300920000D03*
%TD*%
D17*
%TO.C,H10*%
X343670000Y-346570000D03*
%TD*%
D52*
%TO.C,JP2*%
X261270000Y-303870000D03*
D53*
X262570000Y-303870000D03*
D54*
X263870000Y-303870000D03*
%TD*%
D33*
%TO.C,U8*%
X97775000Y-270615000D03*
X97775000Y-271885000D03*
X97775000Y-273155000D03*
X97775000Y-274425000D03*
X102725000Y-274425000D03*
X102725000Y-273155000D03*
X102725000Y-271885000D03*
X102725000Y-270615000D03*
%TD*%
D55*
%TO.C,SW1*%
X99480000Y-368730000D03*
D56*
X98730000Y-366430000D03*
X101730000Y-366430000D03*
X103180000Y-366430000D03*
D57*
X104880000Y-369830000D03*
X104880000Y-367630000D03*
X97080000Y-369830000D03*
X97080000Y-367630000D03*
%TD*%
D11*
%TO.C,J11*%
X85670000Y-258570000D03*
D12*
X98670000Y-258570000D03*
%TD*%
D24*
%TO.C,J4*%
X283170000Y-258570000D03*
X283170000Y-253570000D03*
X278170000Y-258570000D03*
X278170000Y-253570000D03*
X273170000Y-258570000D03*
X273170000Y-253570000D03*
%TD*%
D17*
%TO.C,H13*%
X73670000Y-243570000D03*
%TD*%
%TO.C,H3*%
X73670000Y-256570000D03*
%TD*%
D19*
%TO.C,C13*%
X273970000Y-298420000D03*
X273970000Y-300920000D03*
%TD*%
D17*
%TO.C,H18*%
X182670000Y-229540000D03*
%TD*%
D27*
%TO.C,D6*%
X89420000Y-373080000D03*
X91920000Y-373080000D03*
%TD*%
%TO.C,C2*%
X271254061Y-270610000D03*
X273754061Y-270610000D03*
%TD*%
D32*
%TO.C,R9*%
X319030000Y-350700000D03*
X319030000Y-353000000D03*
%TD*%
D40*
%TO.C,K2*%
X84430000Y-334100000D03*
D38*
X74430000Y-323900000D03*
X84430000Y-323900000D03*
D40*
X79430000Y-321400000D03*
X74430000Y-334100000D03*
%TD*%
D13*
%TO.C,K9*%
X105540000Y-291145000D03*
D14*
X95540000Y-280945000D03*
X105540000Y-280945000D03*
D13*
X100540000Y-278445000D03*
X95540000Y-291145000D03*
%TD*%
%TO.C,K7*%
X160040000Y-291145000D03*
D14*
X150040000Y-280945000D03*
X160040000Y-280945000D03*
D13*
X155040000Y-278445000D03*
X150040000Y-291145000D03*
%TD*%
D23*
%TO.C,H5*%
X343670000Y-401570000D03*
%TD*%
D24*
%TO.C,J12*%
X119670000Y-258560000D03*
X119670000Y-253560000D03*
X114670000Y-258560000D03*
X114670000Y-253560000D03*
X109670000Y-258560000D03*
X109670000Y-253560000D03*
%TD*%
D23*
%TO.C,H1*%
X234669999Y-401570001D03*
%TD*%
D58*
%TO.C,C18*%
X313495000Y-283470000D03*
D24*
X313495000Y-290470000D03*
%TD*%
D59*
%TO.C,U6*%
X216237500Y-339860000D03*
D60*
X216237500Y-337320000D03*
X216237500Y-334780000D03*
X216237500Y-332240000D03*
X216237500Y-329700000D03*
X216237500Y-327160000D03*
X216237500Y-324620000D03*
X216237500Y-322080000D03*
%TD*%
D17*
%TO.C,H22*%
X237170000Y-209540000D03*
%TD*%
D55*
%TO.C,SW3*%
X360920000Y-333200000D03*
%TD*%
G36*
X333892347Y-350618509D02*
G01*
X333892116Y-350620263D01*
X333884766Y-350631262D01*
X333881000Y-350650199D01*
X333881000Y-351949801D01*
X333884766Y-351968737D01*
X333892114Y-351979733D01*
X333892345Y-351981487D01*
X333891094Y-351982738D01*
X333889340Y-351982507D01*
X333867311Y-351967788D01*
X333792689Y-351967788D01*
X333770659Y-351982507D01*
X333768905Y-351982738D01*
X333767654Y-351981487D01*
X333767885Y-351979733D01*
X333775233Y-351968737D01*
X333779000Y-351949801D01*
X333779000Y-350650199D01*
X333775233Y-350631262D01*
X333767884Y-350620264D01*
X333767653Y-350618510D01*
X333768904Y-350617259D01*
X333770658Y-350617490D01*
X333792690Y-350632211D01*
X333867310Y-350632211D01*
X333889342Y-350617489D01*
X333891096Y-350617258D01*
X333892347Y-350618509D01*
G37*
G36*
X333392347Y-350618509D02*
G01*
X333392116Y-350620263D01*
X333384766Y-350631262D01*
X333381000Y-350650199D01*
X333381000Y-351949801D01*
X333384766Y-351968737D01*
X333392114Y-351979733D01*
X333392345Y-351981487D01*
X333391094Y-351982738D01*
X333389340Y-351982507D01*
X333367311Y-351967788D01*
X333292689Y-351967788D01*
X333270659Y-351982507D01*
X333268905Y-351982738D01*
X333267654Y-351981487D01*
X333267885Y-351979733D01*
X333275233Y-351968737D01*
X333279000Y-351949801D01*
X333279000Y-350650199D01*
X333275233Y-350631262D01*
X333267884Y-350620264D01*
X333267653Y-350618510D01*
X333268904Y-350617259D01*
X333270658Y-350617490D01*
X333292690Y-350632211D01*
X333367310Y-350632211D01*
X333389342Y-350617489D01*
X333391096Y-350617258D01*
X333392347Y-350618509D01*
G37*
G36*
X332892347Y-350618509D02*
G01*
X332892116Y-350620263D01*
X332884766Y-350631262D01*
X332881000Y-350650199D01*
X332881000Y-351949801D01*
X332884766Y-351968737D01*
X332892114Y-351979733D01*
X332892345Y-351981487D01*
X332891094Y-351982738D01*
X332889340Y-351982507D01*
X332867311Y-351967788D01*
X332792689Y-351967788D01*
X332770659Y-351982507D01*
X332768905Y-351982738D01*
X332767654Y-351981487D01*
X332767885Y-351979733D01*
X332775233Y-351968737D01*
X332779000Y-351949801D01*
X332779000Y-350650199D01*
X332775233Y-350631262D01*
X332767884Y-350620264D01*
X332767653Y-350618510D01*
X332768904Y-350617259D01*
X332770658Y-350617490D01*
X332792690Y-350632211D01*
X332867310Y-350632211D01*
X332889342Y-350617489D01*
X332891096Y-350617258D01*
X332892347Y-350618509D01*
G37*
G36*
X332392347Y-350618509D02*
G01*
X332392116Y-350620263D01*
X332384766Y-350631262D01*
X332381000Y-350650199D01*
X332381000Y-351949801D01*
X332384766Y-351968737D01*
X332392114Y-351979733D01*
X332392345Y-351981487D01*
X332391094Y-351982738D01*
X332389340Y-351982507D01*
X332367311Y-351967788D01*
X332292689Y-351967788D01*
X332270659Y-351982507D01*
X332268905Y-351982738D01*
X332267654Y-351981487D01*
X332267885Y-351979733D01*
X332275233Y-351968737D01*
X332279000Y-351949801D01*
X332279000Y-350650199D01*
X332275233Y-350631262D01*
X332267884Y-350620264D01*
X332267653Y-350618510D01*
X332268904Y-350617259D01*
X332270658Y-350617490D01*
X332292690Y-350632211D01*
X332367310Y-350632211D01*
X332389342Y-350617489D01*
X332391096Y-350617258D01*
X332392347Y-350618509D01*
G37*
G36*
X331892347Y-350618509D02*
G01*
X331892116Y-350620263D01*
X331884766Y-350631262D01*
X331881000Y-350650199D01*
X331881000Y-351949801D01*
X331884766Y-351968737D01*
X331892114Y-351979733D01*
X331892345Y-351981487D01*
X331891094Y-351982738D01*
X331889340Y-351982507D01*
X331867311Y-351967788D01*
X331792689Y-351967788D01*
X331770659Y-351982507D01*
X331768905Y-351982738D01*
X331767654Y-351981487D01*
X331767885Y-351979733D01*
X331775233Y-351968737D01*
X331779000Y-351949801D01*
X331779000Y-350650199D01*
X331775233Y-350631262D01*
X331767884Y-350620264D01*
X331767653Y-350618510D01*
X331768904Y-350617259D01*
X331770658Y-350617490D01*
X331792690Y-350632211D01*
X331867310Y-350632211D01*
X331889342Y-350617489D01*
X331891096Y-350617258D01*
X331892347Y-350618509D01*
G37*
G36*
X331392347Y-350618509D02*
G01*
X331392116Y-350620263D01*
X331384766Y-350631262D01*
X331381000Y-350650199D01*
X331381000Y-351949801D01*
X331384766Y-351968737D01*
X331392114Y-351979733D01*
X331392345Y-351981487D01*
X331391094Y-351982738D01*
X331389340Y-351982507D01*
X331367311Y-351967788D01*
X331292689Y-351967788D01*
X331270659Y-351982507D01*
X331268905Y-351982738D01*
X331267654Y-351981487D01*
X331267885Y-351979733D01*
X331275233Y-351968737D01*
X331279000Y-351949801D01*
X331279000Y-350650199D01*
X331275233Y-350631262D01*
X331267884Y-350620264D01*
X331267653Y-350618510D01*
X331268904Y-350617259D01*
X331270658Y-350617490D01*
X331292690Y-350632211D01*
X331367310Y-350632211D01*
X331389342Y-350617489D01*
X331391096Y-350617258D01*
X331392347Y-350618509D01*
G37*
G36*
X330892347Y-350618509D02*
G01*
X330892116Y-350620263D01*
X330884766Y-350631262D01*
X330881000Y-350650199D01*
X330881000Y-351949801D01*
X330884766Y-351968737D01*
X330892114Y-351979733D01*
X330892345Y-351981487D01*
X330891094Y-351982738D01*
X330889340Y-351982507D01*
X330867311Y-351967788D01*
X330792689Y-351967788D01*
X330770659Y-351982507D01*
X330768905Y-351982738D01*
X330767654Y-351981487D01*
X330767885Y-351979733D01*
X330775233Y-351968737D01*
X330779000Y-351949801D01*
X330779000Y-350650199D01*
X330775233Y-350631262D01*
X330767884Y-350620264D01*
X330767653Y-350618510D01*
X330768904Y-350617259D01*
X330770658Y-350617490D01*
X330792690Y-350632211D01*
X330867310Y-350632211D01*
X330889342Y-350617489D01*
X330891096Y-350617258D01*
X330892347Y-350618509D01*
G37*
G36*
X330392347Y-350618509D02*
G01*
X330392116Y-350620263D01*
X330384766Y-350631262D01*
X330381000Y-350650199D01*
X330381000Y-351949801D01*
X330384766Y-351968737D01*
X330392114Y-351979733D01*
X330392345Y-351981487D01*
X330391094Y-351982738D01*
X330389340Y-351982507D01*
X330367311Y-351967788D01*
X330292689Y-351967788D01*
X330270659Y-351982507D01*
X330268905Y-351982738D01*
X330267654Y-351981487D01*
X330267885Y-351979733D01*
X330275233Y-351968737D01*
X330279000Y-351949801D01*
X330279000Y-350650199D01*
X330275233Y-350631262D01*
X330267884Y-350620264D01*
X330267653Y-350618510D01*
X330268904Y-350617259D01*
X330270658Y-350617490D01*
X330292690Y-350632211D01*
X330367310Y-350632211D01*
X330389342Y-350617489D01*
X330391096Y-350617258D01*
X330392347Y-350618509D01*
G37*
G36*
X329892347Y-350618509D02*
G01*
X329892116Y-350620263D01*
X329884766Y-350631262D01*
X329881000Y-350650199D01*
X329881000Y-351949801D01*
X329884766Y-351968737D01*
X329892114Y-351979733D01*
X329892345Y-351981487D01*
X329891094Y-351982738D01*
X329889340Y-351982507D01*
X329867311Y-351967788D01*
X329792689Y-351967788D01*
X329770659Y-351982507D01*
X329768905Y-351982738D01*
X329767654Y-351981487D01*
X329767885Y-351979733D01*
X329775233Y-351968737D01*
X329779000Y-351949801D01*
X329779000Y-350650199D01*
X329775233Y-350631262D01*
X329767884Y-350620264D01*
X329767653Y-350618510D01*
X329768904Y-350617259D01*
X329770658Y-350617490D01*
X329792690Y-350632211D01*
X329867310Y-350632211D01*
X329889342Y-350617489D01*
X329891096Y-350617258D01*
X329892347Y-350618509D01*
G37*
G36*
X329392347Y-350618509D02*
G01*
X329392116Y-350620263D01*
X329384766Y-350631262D01*
X329381000Y-350650199D01*
X329381000Y-351949801D01*
X329384766Y-351968737D01*
X329392114Y-351979733D01*
X329392345Y-351981487D01*
X329391094Y-351982738D01*
X329389340Y-351982507D01*
X329367311Y-351967788D01*
X329292689Y-351967788D01*
X329270659Y-351982507D01*
X329268905Y-351982738D01*
X329267654Y-351981487D01*
X329267885Y-351979733D01*
X329275233Y-351968737D01*
X329279000Y-351949801D01*
X329279000Y-350650199D01*
X329275233Y-350631262D01*
X329267884Y-350620264D01*
X329267653Y-350618510D01*
X329268904Y-350617259D01*
X329270658Y-350617490D01*
X329292690Y-350632211D01*
X329367310Y-350632211D01*
X329389342Y-350617489D01*
X329391096Y-350617258D01*
X329392347Y-350618509D01*
G37*
G36*
X328892347Y-350618509D02*
G01*
X328892116Y-350620263D01*
X328884766Y-350631262D01*
X328881000Y-350650199D01*
X328881000Y-351949801D01*
X328884766Y-351968737D01*
X328892114Y-351979733D01*
X328892345Y-351981487D01*
X328891094Y-351982738D01*
X328889340Y-351982507D01*
X328867311Y-351967788D01*
X328792689Y-351967788D01*
X328770659Y-351982507D01*
X328768905Y-351982738D01*
X328767654Y-351981487D01*
X328767885Y-351979733D01*
X328775233Y-351968737D01*
X328779000Y-351949801D01*
X328779000Y-350650199D01*
X328775233Y-350631262D01*
X328767884Y-350620264D01*
X328767653Y-350618510D01*
X328768904Y-350617259D01*
X328770658Y-350617490D01*
X328792690Y-350632211D01*
X328867310Y-350632211D01*
X328889342Y-350617489D01*
X328891096Y-350617258D01*
X328892347Y-350618509D01*
G37*
G36*
X118392347Y-345118509D02*
G01*
X118392116Y-345120263D01*
X118384766Y-345131262D01*
X118381000Y-345150199D01*
X118381000Y-346449801D01*
X118384766Y-346468737D01*
X118392114Y-346479733D01*
X118392345Y-346481487D01*
X118391094Y-346482738D01*
X118389340Y-346482507D01*
X118367311Y-346467788D01*
X118292689Y-346467788D01*
X118270659Y-346482507D01*
X118268905Y-346482738D01*
X118267654Y-346481487D01*
X118267885Y-346479733D01*
X118275233Y-346468737D01*
X118279000Y-346449801D01*
X118279000Y-345150199D01*
X118275233Y-345131262D01*
X118267884Y-345120264D01*
X118267653Y-345118510D01*
X118268904Y-345117259D01*
X118270658Y-345117490D01*
X118292690Y-345132211D01*
X118367310Y-345132211D01*
X118389342Y-345117489D01*
X118391096Y-345117258D01*
X118392347Y-345118509D01*
G37*
G36*
X117892347Y-345118509D02*
G01*
X117892116Y-345120263D01*
X117884766Y-345131262D01*
X117881000Y-345150199D01*
X117881000Y-346449801D01*
X117884766Y-346468737D01*
X117892114Y-346479733D01*
X117892345Y-346481487D01*
X117891094Y-346482738D01*
X117889340Y-346482507D01*
X117867311Y-346467788D01*
X117792689Y-346467788D01*
X117770659Y-346482507D01*
X117768905Y-346482738D01*
X117767654Y-346481487D01*
X117767885Y-346479733D01*
X117775233Y-346468737D01*
X117779000Y-346449801D01*
X117779000Y-345150199D01*
X117775233Y-345131262D01*
X117767884Y-345120264D01*
X117767653Y-345118510D01*
X117768904Y-345117259D01*
X117770658Y-345117490D01*
X117792690Y-345132211D01*
X117867310Y-345132211D01*
X117889342Y-345117489D01*
X117891096Y-345117258D01*
X117892347Y-345118509D01*
G37*
G36*
X117392347Y-345118509D02*
G01*
X117392116Y-345120263D01*
X117384766Y-345131262D01*
X117381000Y-345150199D01*
X117381000Y-346449801D01*
X117384766Y-346468737D01*
X117392114Y-346479733D01*
X117392345Y-346481487D01*
X117391094Y-346482738D01*
X117389340Y-346482507D01*
X117367311Y-346467788D01*
X117292689Y-346467788D01*
X117270659Y-346482507D01*
X117268905Y-346482738D01*
X117267654Y-346481487D01*
X117267885Y-346479733D01*
X117275233Y-346468737D01*
X117279000Y-346449801D01*
X117279000Y-345150199D01*
X117275233Y-345131262D01*
X117267884Y-345120264D01*
X117267653Y-345118510D01*
X117268904Y-345117259D01*
X117270658Y-345117490D01*
X117292690Y-345132211D01*
X117367310Y-345132211D01*
X117389342Y-345117489D01*
X117391096Y-345117258D01*
X117392347Y-345118509D01*
G37*
G36*
X116892347Y-345118509D02*
G01*
X116892116Y-345120263D01*
X116884766Y-345131262D01*
X116881000Y-345150199D01*
X116881000Y-346449801D01*
X116884766Y-346468737D01*
X116892114Y-346479733D01*
X116892345Y-346481487D01*
X116891094Y-346482738D01*
X116889340Y-346482507D01*
X116867311Y-346467788D01*
X116792689Y-346467788D01*
X116770659Y-346482507D01*
X116768905Y-346482738D01*
X116767654Y-346481487D01*
X116767885Y-346479733D01*
X116775233Y-346468737D01*
X116779000Y-346449801D01*
X116779000Y-345150199D01*
X116775233Y-345131262D01*
X116767884Y-345120264D01*
X116767653Y-345118510D01*
X116768904Y-345117259D01*
X116770658Y-345117490D01*
X116792690Y-345132211D01*
X116867310Y-345132211D01*
X116889342Y-345117489D01*
X116891096Y-345117258D01*
X116892347Y-345118509D01*
G37*
G36*
X116392347Y-345118509D02*
G01*
X116392116Y-345120263D01*
X116384766Y-345131262D01*
X116381000Y-345150199D01*
X116381000Y-346449801D01*
X116384766Y-346468737D01*
X116392114Y-346479733D01*
X116392345Y-346481487D01*
X116391094Y-346482738D01*
X116389340Y-346482507D01*
X116367311Y-346467788D01*
X116292689Y-346467788D01*
X116270659Y-346482507D01*
X116268905Y-346482738D01*
X116267654Y-346481487D01*
X116267885Y-346479733D01*
X116275233Y-346468737D01*
X116279000Y-346449801D01*
X116279000Y-345150199D01*
X116275233Y-345131262D01*
X116267884Y-345120264D01*
X116267653Y-345118510D01*
X116268904Y-345117259D01*
X116270658Y-345117490D01*
X116292690Y-345132211D01*
X116367310Y-345132211D01*
X116389342Y-345117489D01*
X116391096Y-345117258D01*
X116392347Y-345118509D01*
G37*
G36*
X115892347Y-345118509D02*
G01*
X115892116Y-345120263D01*
X115884766Y-345131262D01*
X115881000Y-345150199D01*
X115881000Y-346449801D01*
X115884766Y-346468737D01*
X115892114Y-346479733D01*
X115892345Y-346481487D01*
X115891094Y-346482738D01*
X115889340Y-346482507D01*
X115867311Y-346467788D01*
X115792689Y-346467788D01*
X115770659Y-346482507D01*
X115768905Y-346482738D01*
X115767654Y-346481487D01*
X115767885Y-346479733D01*
X115775233Y-346468737D01*
X115779000Y-346449801D01*
X115779000Y-345150199D01*
X115775233Y-345131262D01*
X115767884Y-345120264D01*
X115767653Y-345118510D01*
X115768904Y-345117259D01*
X115770658Y-345117490D01*
X115792690Y-345132211D01*
X115867310Y-345132211D01*
X115889342Y-345117489D01*
X115891096Y-345117258D01*
X115892347Y-345118509D01*
G37*
G36*
X115392347Y-345118509D02*
G01*
X115392116Y-345120263D01*
X115384766Y-345131262D01*
X115381000Y-345150199D01*
X115381000Y-346449801D01*
X115384766Y-346468737D01*
X115392114Y-346479733D01*
X115392345Y-346481487D01*
X115391094Y-346482738D01*
X115389340Y-346482507D01*
X115367311Y-346467788D01*
X115292689Y-346467788D01*
X115270659Y-346482507D01*
X115268905Y-346482738D01*
X115267654Y-346481487D01*
X115267885Y-346479733D01*
X115275233Y-346468737D01*
X115279000Y-346449801D01*
X115279000Y-345150199D01*
X115275233Y-345131262D01*
X115267884Y-345120264D01*
X115267653Y-345118510D01*
X115268904Y-345117259D01*
X115270658Y-345117490D01*
X115292690Y-345132211D01*
X115367310Y-345132211D01*
X115389342Y-345117489D01*
X115391096Y-345117258D01*
X115392347Y-345118509D01*
G37*
G36*
X114892347Y-345118509D02*
G01*
X114892116Y-345120263D01*
X114884766Y-345131262D01*
X114881000Y-345150199D01*
X114881000Y-346449801D01*
X114884766Y-346468737D01*
X114892114Y-346479733D01*
X114892345Y-346481487D01*
X114891094Y-346482738D01*
X114889340Y-346482507D01*
X114867311Y-346467788D01*
X114792689Y-346467788D01*
X114770659Y-346482507D01*
X114768905Y-346482738D01*
X114767654Y-346481487D01*
X114767885Y-346479733D01*
X114775233Y-346468737D01*
X114779000Y-346449801D01*
X114779000Y-345150199D01*
X114775233Y-345131262D01*
X114767884Y-345120264D01*
X114767653Y-345118510D01*
X114768904Y-345117259D01*
X114770658Y-345117490D01*
X114792690Y-345132211D01*
X114867310Y-345132211D01*
X114889342Y-345117489D01*
X114891096Y-345117258D01*
X114892347Y-345118509D01*
G37*
G36*
X114392347Y-345118509D02*
G01*
X114392116Y-345120263D01*
X114384766Y-345131262D01*
X114381000Y-345150199D01*
X114381000Y-346449801D01*
X114384766Y-346468737D01*
X114392114Y-346479733D01*
X114392345Y-346481487D01*
X114391094Y-346482738D01*
X114389340Y-346482507D01*
X114367311Y-346467788D01*
X114292689Y-346467788D01*
X114270659Y-346482507D01*
X114268905Y-346482738D01*
X114267654Y-346481487D01*
X114267885Y-346479733D01*
X114275233Y-346468737D01*
X114279000Y-346449801D01*
X114279000Y-345150199D01*
X114275233Y-345131262D01*
X114267884Y-345120264D01*
X114267653Y-345118510D01*
X114268904Y-345117259D01*
X114270658Y-345117490D01*
X114292690Y-345132211D01*
X114367310Y-345132211D01*
X114389342Y-345117489D01*
X114391096Y-345117258D01*
X114392347Y-345118509D01*
G37*
G36*
X113892347Y-345118509D02*
G01*
X113892116Y-345120263D01*
X113884766Y-345131262D01*
X113881000Y-345150199D01*
X113881000Y-346449801D01*
X113884766Y-346468737D01*
X113892114Y-346479733D01*
X113892345Y-346481487D01*
X113891094Y-346482738D01*
X113889340Y-346482507D01*
X113867311Y-346467788D01*
X113792689Y-346467788D01*
X113770659Y-346482507D01*
X113768905Y-346482738D01*
X113767654Y-346481487D01*
X113767885Y-346479733D01*
X113775233Y-346468737D01*
X113779000Y-346449801D01*
X113779000Y-345150199D01*
X113775233Y-345131262D01*
X113767884Y-345120264D01*
X113767653Y-345118510D01*
X113768904Y-345117259D01*
X113770658Y-345117490D01*
X113792690Y-345132211D01*
X113867310Y-345132211D01*
X113889342Y-345117489D01*
X113891096Y-345117258D01*
X113892347Y-345118509D01*
G37*
G36*
X113392347Y-345118509D02*
G01*
X113392116Y-345120263D01*
X113384766Y-345131262D01*
X113381000Y-345150199D01*
X113381000Y-346449801D01*
X113384766Y-346468737D01*
X113392114Y-346479733D01*
X113392345Y-346481487D01*
X113391094Y-346482738D01*
X113389340Y-346482507D01*
X113367311Y-346467788D01*
X113292689Y-346467788D01*
X113270659Y-346482507D01*
X113268905Y-346482738D01*
X113267654Y-346481487D01*
X113267885Y-346479733D01*
X113275233Y-346468737D01*
X113279000Y-346449801D01*
X113279000Y-345150199D01*
X113275233Y-345131262D01*
X113267884Y-345120264D01*
X113267653Y-345118510D01*
X113268904Y-345117259D01*
X113270658Y-345117490D01*
X113292690Y-345132211D01*
X113367310Y-345132211D01*
X113389342Y-345117489D01*
X113391096Y-345117258D01*
X113392347Y-345118509D01*
G37*
G36*
X112892347Y-345118509D02*
G01*
X112892116Y-345120263D01*
X112884766Y-345131262D01*
X112881000Y-345150199D01*
X112881000Y-346449801D01*
X112884766Y-346468737D01*
X112892114Y-346479733D01*
X112892345Y-346481487D01*
X112891094Y-346482738D01*
X112889340Y-346482507D01*
X112867311Y-346467788D01*
X112792689Y-346467788D01*
X112770659Y-346482507D01*
X112768905Y-346482738D01*
X112767654Y-346481487D01*
X112767885Y-346479733D01*
X112775233Y-346468737D01*
X112779000Y-346449801D01*
X112779000Y-345150199D01*
X112775233Y-345131262D01*
X112767884Y-345120264D01*
X112767653Y-345118510D01*
X112768904Y-345117259D01*
X112770658Y-345117490D01*
X112792690Y-345132211D01*
X112867310Y-345132211D01*
X112889342Y-345117489D01*
X112891096Y-345117258D01*
X112892347Y-345118509D01*
G37*
G36*
X112392347Y-345118509D02*
G01*
X112392116Y-345120263D01*
X112384766Y-345131262D01*
X112381000Y-345150199D01*
X112381000Y-346449801D01*
X112384766Y-346468737D01*
X112392114Y-346479733D01*
X112392345Y-346481487D01*
X112391094Y-346482738D01*
X112389340Y-346482507D01*
X112367311Y-346467788D01*
X112292689Y-346467788D01*
X112270659Y-346482507D01*
X112268905Y-346482738D01*
X112267654Y-346481487D01*
X112267885Y-346479733D01*
X112275233Y-346468737D01*
X112279000Y-346449801D01*
X112279000Y-345150199D01*
X112275233Y-345131262D01*
X112267884Y-345120264D01*
X112267653Y-345118510D01*
X112268904Y-345117259D01*
X112270658Y-345117490D01*
X112292690Y-345132211D01*
X112367310Y-345132211D01*
X112389342Y-345117489D01*
X112391096Y-345117258D01*
X112392347Y-345118509D01*
G37*
G36*
X111892347Y-345118509D02*
G01*
X111892116Y-345120263D01*
X111884766Y-345131262D01*
X111881000Y-345150199D01*
X111881000Y-346449801D01*
X111884766Y-346468737D01*
X111892114Y-346479733D01*
X111892345Y-346481487D01*
X111891094Y-346482738D01*
X111889340Y-346482507D01*
X111867311Y-346467788D01*
X111792689Y-346467788D01*
X111770659Y-346482507D01*
X111768905Y-346482738D01*
X111767654Y-346481487D01*
X111767885Y-346479733D01*
X111775233Y-346468737D01*
X111779000Y-346449801D01*
X111779000Y-345150199D01*
X111775233Y-345131262D01*
X111767884Y-345120264D01*
X111767653Y-345118510D01*
X111768904Y-345117259D01*
X111770658Y-345117490D01*
X111792690Y-345132211D01*
X111867310Y-345132211D01*
X111889342Y-345117489D01*
X111891096Y-345117258D01*
X111892347Y-345118509D01*
G37*
G36*
X111392347Y-345118509D02*
G01*
X111392116Y-345120263D01*
X111384766Y-345131262D01*
X111381000Y-345150199D01*
X111381000Y-346449801D01*
X111384766Y-346468737D01*
X111392114Y-346479733D01*
X111392345Y-346481487D01*
X111391094Y-346482738D01*
X111389340Y-346482507D01*
X111367311Y-346467788D01*
X111292689Y-346467788D01*
X111270659Y-346482507D01*
X111268905Y-346482738D01*
X111267654Y-346481487D01*
X111267885Y-346479733D01*
X111275233Y-346468737D01*
X111279000Y-346449801D01*
X111279000Y-345150199D01*
X111275233Y-345131262D01*
X111267884Y-345120264D01*
X111267653Y-345118510D01*
X111268904Y-345117259D01*
X111270658Y-345117490D01*
X111292690Y-345132211D01*
X111367310Y-345132211D01*
X111389342Y-345117489D01*
X111391096Y-345117258D01*
X111392347Y-345118509D01*
G37*
G36*
X110892347Y-345118509D02*
G01*
X110892116Y-345120263D01*
X110884766Y-345131262D01*
X110881000Y-345150199D01*
X110881000Y-346449801D01*
X110884766Y-346468737D01*
X110892114Y-346479733D01*
X110892345Y-346481487D01*
X110891094Y-346482738D01*
X110889340Y-346482507D01*
X110867311Y-346467788D01*
X110792689Y-346467788D01*
X110770659Y-346482507D01*
X110768905Y-346482738D01*
X110767654Y-346481487D01*
X110767885Y-346479733D01*
X110775233Y-346468737D01*
X110779000Y-346449801D01*
X110779000Y-345150199D01*
X110775233Y-345131262D01*
X110767884Y-345120264D01*
X110767653Y-345118510D01*
X110768904Y-345117259D01*
X110770658Y-345117490D01*
X110792690Y-345132211D01*
X110867310Y-345132211D01*
X110889342Y-345117489D01*
X110891096Y-345117258D01*
X110892347Y-345118509D01*
G37*
G36*
X110392347Y-345118509D02*
G01*
X110392116Y-345120263D01*
X110384766Y-345131262D01*
X110381000Y-345150199D01*
X110381000Y-346449801D01*
X110384766Y-346468737D01*
X110392114Y-346479733D01*
X110392345Y-346481487D01*
X110391094Y-346482738D01*
X110389340Y-346482507D01*
X110367311Y-346467788D01*
X110292689Y-346467788D01*
X110270659Y-346482507D01*
X110268905Y-346482738D01*
X110267654Y-346481487D01*
X110267885Y-346479733D01*
X110275233Y-346468737D01*
X110279000Y-346449801D01*
X110279000Y-345150199D01*
X110275233Y-345131262D01*
X110267884Y-345120264D01*
X110267653Y-345118510D01*
X110268904Y-345117259D01*
X110270658Y-345117490D01*
X110292690Y-345132211D01*
X110367310Y-345132211D01*
X110389342Y-345117489D01*
X110391096Y-345117258D01*
X110392347Y-345118509D01*
G37*
G36*
X109892347Y-345118509D02*
G01*
X109892116Y-345120263D01*
X109884766Y-345131262D01*
X109881000Y-345150199D01*
X109881000Y-346449801D01*
X109884766Y-346468737D01*
X109892114Y-346479733D01*
X109892345Y-346481487D01*
X109891094Y-346482738D01*
X109889340Y-346482507D01*
X109867311Y-346467788D01*
X109792689Y-346467788D01*
X109770659Y-346482507D01*
X109768905Y-346482738D01*
X109767654Y-346481487D01*
X109767885Y-346479733D01*
X109775233Y-346468737D01*
X109779000Y-346449801D01*
X109779000Y-345150199D01*
X109775233Y-345131262D01*
X109767884Y-345120264D01*
X109767653Y-345118510D01*
X109768904Y-345117259D01*
X109770658Y-345117490D01*
X109792690Y-345132211D01*
X109867310Y-345132211D01*
X109889342Y-345117489D01*
X109891096Y-345117258D01*
X109892347Y-345118509D01*
G37*
G36*
X109392347Y-345118509D02*
G01*
X109392116Y-345120263D01*
X109384766Y-345131262D01*
X109381000Y-345150199D01*
X109381000Y-346449801D01*
X109384766Y-346468737D01*
X109392114Y-346479733D01*
X109392345Y-346481487D01*
X109391094Y-346482738D01*
X109389340Y-346482507D01*
X109367311Y-346467788D01*
X109292689Y-346467788D01*
X109270659Y-346482507D01*
X109268905Y-346482738D01*
X109267654Y-346481487D01*
X109267885Y-346479733D01*
X109275233Y-346468737D01*
X109279000Y-346449801D01*
X109279000Y-345150199D01*
X109275233Y-345131262D01*
X109267884Y-345120264D01*
X109267653Y-345118510D01*
X109268904Y-345117259D01*
X109270658Y-345117490D01*
X109292690Y-345132211D01*
X109367310Y-345132211D01*
X109389342Y-345117489D01*
X109391096Y-345117258D01*
X109392347Y-345118509D01*
G37*
G36*
X108892347Y-345118509D02*
G01*
X108892116Y-345120263D01*
X108884766Y-345131262D01*
X108881000Y-345150199D01*
X108881000Y-346449801D01*
X108884766Y-346468737D01*
X108892114Y-346479733D01*
X108892345Y-346481487D01*
X108891094Y-346482738D01*
X108889340Y-346482507D01*
X108867311Y-346467788D01*
X108792689Y-346467788D01*
X108770659Y-346482507D01*
X108768905Y-346482738D01*
X108767654Y-346481487D01*
X108767885Y-346479733D01*
X108775233Y-346468737D01*
X108779000Y-346449801D01*
X108779000Y-345150199D01*
X108775233Y-345131262D01*
X108767884Y-345120264D01*
X108767653Y-345118510D01*
X108768904Y-345117259D01*
X108770658Y-345117490D01*
X108792690Y-345132211D01*
X108867310Y-345132211D01*
X108889342Y-345117489D01*
X108891096Y-345117258D01*
X108892347Y-345118509D01*
G37*
G36*
X108392347Y-345118509D02*
G01*
X108392116Y-345120263D01*
X108384766Y-345131262D01*
X108381000Y-345150199D01*
X108381000Y-346449801D01*
X108384766Y-346468737D01*
X108392114Y-346479733D01*
X108392345Y-346481487D01*
X108391094Y-346482738D01*
X108389340Y-346482507D01*
X108367311Y-346467788D01*
X108292689Y-346467788D01*
X108270659Y-346482507D01*
X108268905Y-346482738D01*
X108267654Y-346481487D01*
X108267885Y-346479733D01*
X108275233Y-346468737D01*
X108279000Y-346449801D01*
X108279000Y-345150199D01*
X108275233Y-345131262D01*
X108267884Y-345120264D01*
X108267653Y-345118510D01*
X108268904Y-345117259D01*
X108270658Y-345117490D01*
X108292690Y-345132211D01*
X108367310Y-345132211D01*
X108389342Y-345117489D01*
X108391096Y-345117258D01*
X108392347Y-345118509D01*
G37*
G36*
X107892347Y-345118509D02*
G01*
X107892116Y-345120263D01*
X107884766Y-345131262D01*
X107881000Y-345150199D01*
X107881000Y-346449801D01*
X107884766Y-346468737D01*
X107892114Y-346479733D01*
X107892345Y-346481487D01*
X107891094Y-346482738D01*
X107889340Y-346482507D01*
X107867311Y-346467788D01*
X107792689Y-346467788D01*
X107770659Y-346482507D01*
X107768905Y-346482738D01*
X107767654Y-346481487D01*
X107767885Y-346479733D01*
X107775233Y-346468737D01*
X107779000Y-346449801D01*
X107779000Y-345150199D01*
X107775233Y-345131262D01*
X107767884Y-345120264D01*
X107767653Y-345118510D01*
X107768904Y-345117259D01*
X107770658Y-345117490D01*
X107792690Y-345132211D01*
X107867310Y-345132211D01*
X107889342Y-345117489D01*
X107891096Y-345117258D01*
X107892347Y-345118509D01*
G37*
G36*
X107392347Y-345118509D02*
G01*
X107392116Y-345120263D01*
X107384766Y-345131262D01*
X107381000Y-345150199D01*
X107381000Y-346449801D01*
X107384766Y-346468737D01*
X107392114Y-346479733D01*
X107392345Y-346481487D01*
X107391094Y-346482738D01*
X107389340Y-346482507D01*
X107367311Y-346467788D01*
X107292689Y-346467788D01*
X107270659Y-346482507D01*
X107268905Y-346482738D01*
X107267654Y-346481487D01*
X107267885Y-346479733D01*
X107275233Y-346468737D01*
X107279000Y-346449801D01*
X107279000Y-345150199D01*
X107275233Y-345131262D01*
X107267884Y-345120264D01*
X107267653Y-345118510D01*
X107268904Y-345117259D01*
X107270658Y-345117490D01*
X107292690Y-345132211D01*
X107367310Y-345132211D01*
X107389342Y-345117489D01*
X107391096Y-345117258D01*
X107392347Y-345118509D01*
G37*
G36*
X106892347Y-345118509D02*
G01*
X106892116Y-345120263D01*
X106884766Y-345131262D01*
X106881000Y-345150199D01*
X106881000Y-346449801D01*
X106884766Y-346468737D01*
X106892114Y-346479733D01*
X106892345Y-346481487D01*
X106891094Y-346482738D01*
X106889340Y-346482507D01*
X106867311Y-346467788D01*
X106792689Y-346467788D01*
X106770659Y-346482507D01*
X106768905Y-346482738D01*
X106767654Y-346481487D01*
X106767885Y-346479733D01*
X106775233Y-346468737D01*
X106779000Y-346449801D01*
X106779000Y-345150199D01*
X106775233Y-345131262D01*
X106767884Y-345120264D01*
X106767653Y-345118510D01*
X106768904Y-345117259D01*
X106770658Y-345117490D01*
X106792690Y-345132211D01*
X106867310Y-345132211D01*
X106889342Y-345117489D01*
X106891096Y-345117258D01*
X106892347Y-345118509D01*
G37*
G36*
X106392347Y-345118509D02*
G01*
X106392116Y-345120263D01*
X106384766Y-345131262D01*
X106381000Y-345150199D01*
X106381000Y-346449801D01*
X106384766Y-346468737D01*
X106392114Y-346479733D01*
X106392345Y-346481487D01*
X106391094Y-346482738D01*
X106389340Y-346482507D01*
X106367311Y-346467788D01*
X106292689Y-346467788D01*
X106270659Y-346482507D01*
X106268905Y-346482738D01*
X106267654Y-346481487D01*
X106267885Y-346479733D01*
X106275233Y-346468737D01*
X106279000Y-346449801D01*
X106279000Y-345150199D01*
X106275233Y-345131262D01*
X106267884Y-345120264D01*
X106267653Y-345118510D01*
X106268904Y-345117259D01*
X106270658Y-345117490D01*
X106292690Y-345132211D01*
X106367310Y-345132211D01*
X106389342Y-345117489D01*
X106391096Y-345117258D01*
X106392347Y-345118509D01*
G37*
G36*
X105892347Y-345118509D02*
G01*
X105892116Y-345120263D01*
X105884766Y-345131262D01*
X105881000Y-345150199D01*
X105881000Y-346449801D01*
X105884766Y-346468737D01*
X105892114Y-346479733D01*
X105892345Y-346481487D01*
X105891094Y-346482738D01*
X105889340Y-346482507D01*
X105867311Y-346467788D01*
X105792689Y-346467788D01*
X105770659Y-346482507D01*
X105768905Y-346482738D01*
X105767654Y-346481487D01*
X105767885Y-346479733D01*
X105775233Y-346468737D01*
X105779000Y-346449801D01*
X105779000Y-345150199D01*
X105775233Y-345131262D01*
X105767884Y-345120264D01*
X105767653Y-345118510D01*
X105768904Y-345117259D01*
X105770658Y-345117490D01*
X105792690Y-345132211D01*
X105867310Y-345132211D01*
X105889342Y-345117489D01*
X105891096Y-345117258D01*
X105892347Y-345118509D01*
G37*
G36*
X105392347Y-345118509D02*
G01*
X105392116Y-345120263D01*
X105384766Y-345131262D01*
X105381000Y-345150199D01*
X105381000Y-346449801D01*
X105384766Y-346468737D01*
X105392114Y-346479733D01*
X105392345Y-346481487D01*
X105391094Y-346482738D01*
X105389340Y-346482507D01*
X105367311Y-346467788D01*
X105292689Y-346467788D01*
X105270659Y-346482507D01*
X105268905Y-346482738D01*
X105267654Y-346481487D01*
X105267885Y-346479733D01*
X105275233Y-346468737D01*
X105279000Y-346449801D01*
X105279000Y-345150199D01*
X105275233Y-345131262D01*
X105267884Y-345120264D01*
X105267653Y-345118510D01*
X105268904Y-345117259D01*
X105270658Y-345117490D01*
X105292690Y-345132211D01*
X105367310Y-345132211D01*
X105389342Y-345117489D01*
X105391096Y-345117258D01*
X105392347Y-345118509D01*
G37*
G36*
X104892347Y-345118509D02*
G01*
X104892116Y-345120263D01*
X104884766Y-345131262D01*
X104881000Y-345150199D01*
X104881000Y-346449801D01*
X104884766Y-346468737D01*
X104892114Y-346479733D01*
X104892345Y-346481487D01*
X104891094Y-346482738D01*
X104889340Y-346482507D01*
X104867311Y-346467788D01*
X104792689Y-346467788D01*
X104770659Y-346482507D01*
X104768905Y-346482738D01*
X104767654Y-346481487D01*
X104767885Y-346479733D01*
X104775233Y-346468737D01*
X104779000Y-346449801D01*
X104779000Y-345150199D01*
X104775233Y-345131262D01*
X104767884Y-345120264D01*
X104767653Y-345118510D01*
X104768904Y-345117259D01*
X104770658Y-345117490D01*
X104792690Y-345132211D01*
X104867310Y-345132211D01*
X104889342Y-345117489D01*
X104891096Y-345117258D01*
X104892347Y-345118509D01*
G37*
G36*
X104392347Y-345118509D02*
G01*
X104392116Y-345120263D01*
X104384766Y-345131262D01*
X104381000Y-345150199D01*
X104381000Y-346449801D01*
X104384766Y-346468737D01*
X104392114Y-346479733D01*
X104392345Y-346481487D01*
X104391094Y-346482738D01*
X104389340Y-346482507D01*
X104367311Y-346467788D01*
X104292689Y-346467788D01*
X104270659Y-346482507D01*
X104268905Y-346482738D01*
X104267654Y-346481487D01*
X104267885Y-346479733D01*
X104275233Y-346468737D01*
X104279000Y-346449801D01*
X104279000Y-345150199D01*
X104275233Y-345131262D01*
X104267884Y-345120264D01*
X104267653Y-345118510D01*
X104268904Y-345117259D01*
X104270658Y-345117490D01*
X104292690Y-345132211D01*
X104367310Y-345132211D01*
X104389342Y-345117489D01*
X104391096Y-345117258D01*
X104392347Y-345118509D01*
G37*
G36*
X233498163Y-322855309D02*
G01*
X233498621Y-322857018D01*
X233496000Y-322870199D01*
X233496000Y-323969801D01*
X233498628Y-323983017D01*
X233498170Y-323984726D01*
X233496536Y-323985403D01*
X233495003Y-323984519D01*
X233485677Y-323970571D01*
X233354112Y-323970682D01*
X233345040Y-323984298D01*
X233343508Y-323985185D01*
X233341873Y-323984508D01*
X233341414Y-323982799D01*
X233344000Y-323969801D01*
X233344000Y-322870199D01*
X233341378Y-322857019D01*
X233341836Y-322855310D01*
X233343471Y-322854633D01*
X233345003Y-322855518D01*
X233354262Y-322869372D01*
X233485738Y-322869372D01*
X233494996Y-322855517D01*
X233496528Y-322854632D01*
X233498163Y-322855309D01*
G37*
G36*
X232998163Y-322855309D02*
G01*
X232998621Y-322857018D01*
X232996000Y-322870199D01*
X232996000Y-323969801D01*
X232998628Y-323983017D01*
X232998170Y-323984726D01*
X232996536Y-323985403D01*
X232995003Y-323984519D01*
X232985677Y-323970571D01*
X232854112Y-323970682D01*
X232845040Y-323984298D01*
X232843508Y-323985185D01*
X232841873Y-323984508D01*
X232841414Y-323982799D01*
X232844000Y-323969801D01*
X232844000Y-322870199D01*
X232841378Y-322857019D01*
X232841836Y-322855310D01*
X232843471Y-322854633D01*
X232845003Y-322855518D01*
X232854262Y-322869372D01*
X232985738Y-322869372D01*
X232994996Y-322855517D01*
X232996528Y-322854632D01*
X232998163Y-322855309D01*
G37*
G36*
X232498163Y-322855309D02*
G01*
X232498621Y-322857018D01*
X232496000Y-322870199D01*
X232496000Y-323969801D01*
X232498628Y-323983017D01*
X232498170Y-323984726D01*
X232496536Y-323985403D01*
X232495003Y-323984519D01*
X232485677Y-323970571D01*
X232354112Y-323970682D01*
X232345040Y-323984298D01*
X232343508Y-323985185D01*
X232341873Y-323984508D01*
X232341414Y-323982799D01*
X232344000Y-323969801D01*
X232344000Y-322870199D01*
X232341378Y-322857019D01*
X232341836Y-322855310D01*
X232343471Y-322854633D01*
X232345003Y-322855518D01*
X232354262Y-322869372D01*
X232485738Y-322869372D01*
X232494996Y-322855517D01*
X232496528Y-322854632D01*
X232498163Y-322855309D01*
G37*
G36*
X231998163Y-322855309D02*
G01*
X231998621Y-322857018D01*
X231996000Y-322870199D01*
X231996000Y-323969801D01*
X231998628Y-323983017D01*
X231998170Y-323984726D01*
X231996536Y-323985403D01*
X231995003Y-323984519D01*
X231985677Y-323970571D01*
X231854112Y-323970682D01*
X231845040Y-323984298D01*
X231843508Y-323985185D01*
X231841873Y-323984508D01*
X231841414Y-323982799D01*
X231844000Y-323969801D01*
X231844000Y-322870199D01*
X231841378Y-322857019D01*
X231841836Y-322855310D01*
X231843471Y-322854633D01*
X231845003Y-322855518D01*
X231854262Y-322869372D01*
X231985738Y-322869372D01*
X231994996Y-322855517D01*
X231996528Y-322854632D01*
X231998163Y-322855309D01*
G37*
G36*
X233498163Y-318555309D02*
G01*
X233498621Y-318557018D01*
X233496000Y-318570199D01*
X233496000Y-319669801D01*
X233498628Y-319683017D01*
X233498170Y-319684726D01*
X233496536Y-319685403D01*
X233495003Y-319684519D01*
X233485677Y-319670571D01*
X233354112Y-319670682D01*
X233345040Y-319684298D01*
X233343508Y-319685185D01*
X233341873Y-319684508D01*
X233341414Y-319682799D01*
X233344000Y-319669801D01*
X233344000Y-318570199D01*
X233341378Y-318557019D01*
X233341836Y-318555310D01*
X233343471Y-318554633D01*
X233345003Y-318555518D01*
X233354262Y-318569372D01*
X233485738Y-318569372D01*
X233494996Y-318555517D01*
X233496528Y-318554632D01*
X233498163Y-318555309D01*
G37*
G36*
X232998163Y-318555309D02*
G01*
X232998621Y-318557018D01*
X232996000Y-318570199D01*
X232996000Y-319669801D01*
X232998628Y-319683017D01*
X232998170Y-319684726D01*
X232996536Y-319685403D01*
X232995003Y-319684519D01*
X232985677Y-319670571D01*
X232854112Y-319670682D01*
X232845040Y-319684298D01*
X232843508Y-319685185D01*
X232841873Y-319684508D01*
X232841414Y-319682799D01*
X232844000Y-319669801D01*
X232844000Y-318570199D01*
X232841378Y-318557019D01*
X232841836Y-318555310D01*
X232843471Y-318554633D01*
X232845003Y-318555518D01*
X232854262Y-318569372D01*
X232985738Y-318569372D01*
X232994996Y-318555517D01*
X232996528Y-318554632D01*
X232998163Y-318555309D01*
G37*
G36*
X232498163Y-318555309D02*
G01*
X232498621Y-318557018D01*
X232496000Y-318570199D01*
X232496000Y-319669801D01*
X232498628Y-319683017D01*
X232498170Y-319684726D01*
X232496536Y-319685403D01*
X232495003Y-319684519D01*
X232485677Y-319670571D01*
X232354112Y-319670682D01*
X232345040Y-319684298D01*
X232343508Y-319685185D01*
X232341873Y-319684508D01*
X232341414Y-319682799D01*
X232344000Y-319669801D01*
X232344000Y-318570199D01*
X232341378Y-318557019D01*
X232341836Y-318555310D01*
X232343471Y-318554633D01*
X232345003Y-318555518D01*
X232354262Y-318569372D01*
X232485738Y-318569372D01*
X232494996Y-318555517D01*
X232496528Y-318554632D01*
X232498163Y-318555309D01*
G37*
G36*
X231998163Y-318555309D02*
G01*
X231998621Y-318557018D01*
X231996000Y-318570199D01*
X231996000Y-319669801D01*
X231998628Y-319683017D01*
X231998170Y-319684726D01*
X231996536Y-319685403D01*
X231995003Y-319684519D01*
X231985677Y-319670571D01*
X231854112Y-319670682D01*
X231845040Y-319684298D01*
X231843508Y-319685185D01*
X231841873Y-319684508D01*
X231841414Y-319682799D01*
X231844000Y-319669801D01*
X231844000Y-318570199D01*
X231841378Y-318557019D01*
X231841836Y-318555310D01*
X231843471Y-318554633D01*
X231845003Y-318555518D01*
X231854262Y-318569372D01*
X231985738Y-318569372D01*
X231994996Y-318555517D01*
X231996528Y-318554632D01*
X231998163Y-318555309D01*
G37*
G36*
X263273163Y-303105309D02*
G01*
X263273621Y-303107018D01*
X263271000Y-303120199D01*
X263271000Y-304619801D01*
X263273628Y-304633017D01*
X263273170Y-304634726D01*
X263271536Y-304635403D01*
X263270003Y-304634519D01*
X263260677Y-304620571D01*
X263129112Y-304620682D01*
X263120040Y-304634298D01*
X263118508Y-304635185D01*
X263116873Y-304634508D01*
X263116414Y-304632799D01*
X263119000Y-304619801D01*
X263119000Y-303120199D01*
X263116378Y-303107019D01*
X263116836Y-303105310D01*
X263118471Y-303104633D01*
X263120003Y-303105518D01*
X263129262Y-303119372D01*
X263260738Y-303119372D01*
X263269996Y-303105517D01*
X263271528Y-303104632D01*
X263273163Y-303105309D01*
G37*
G36*
X262023163Y-303105309D02*
G01*
X262023621Y-303107018D01*
X262021000Y-303120199D01*
X262021000Y-304619801D01*
X262023628Y-304633017D01*
X262023170Y-304634726D01*
X262021536Y-304635403D01*
X262020003Y-304634519D01*
X262010677Y-304620571D01*
X261879112Y-304620682D01*
X261870040Y-304634298D01*
X261868508Y-304635185D01*
X261866873Y-304634508D01*
X261866414Y-304632799D01*
X261869000Y-304619801D01*
X261869000Y-303120199D01*
X261866378Y-303107019D01*
X261866836Y-303105310D01*
X261868471Y-303104633D01*
X261870003Y-303105518D01*
X261879262Y-303119372D01*
X262010738Y-303119372D01*
X262019996Y-303105517D01*
X262021528Y-303104632D01*
X262023163Y-303105309D01*
G37*
G36*
X312345414Y-253059586D02*
G01*
X312346000Y-253061000D01*
X312346000Y-255249000D01*
X312345414Y-255250414D01*
X312344000Y-255251000D01*
X312270778Y-255251000D01*
X312269364Y-255250414D01*
X312268778Y-255249000D01*
X312269364Y-255247586D01*
X312342000Y-255174949D01*
X312342000Y-253135050D01*
X312269364Y-253062414D01*
X312268778Y-253061000D01*
X312269364Y-253059586D01*
X312270778Y-253059000D01*
X312344000Y-253059000D01*
X312345414Y-253059586D01*
G37*
M02*
