%TF.GenerationSoftware,KiCad,Pcbnew,7.0.1*%
%TF.CreationDate,2024-04-02T15:52:52+09:00*%
%TF.ProjectId,Lift_Main_V5.0,4c696674-5f4d-4616-996e-5f56352e302e,rev?*%
%TF.SameCoordinates,Original*%
%TF.FileFunction,Profile,NP*%
%FSLAX46Y46*%
G04 Gerber Fmt 4.6, Leading zero omitted, Abs format (unit mm)*
G04 Created by KiCad (PCBNEW 7.0.1) date 2024-04-02 15:52:52*
%MOMM*%
%LPD*%
G01*
G04 APERTURE LIST*
%TA.AperFunction,Profile*%
%ADD10C,0.050000*%
%TD*%
%ADD11C,0.750000*%
G04 APERTURE END LIST*
D10*
X350670000Y-372070000D02*
X350670000Y-346070000D01*
X335600000Y-371989995D02*
X335600000Y-370549995D01*
X68669999Y-499070000D02*
X79569999Y-499070000D01*
X81739999Y-376150001D02*
X81739999Y-377590001D01*
X203660000Y-371989995D02*
X203660000Y-370549995D01*
X203639999Y-377590001D02*
G75*
G03*
X203739999Y-377690001I1J-99999D01*
G01*
X81710000Y-370550000D02*
G75*
G03*
X81610000Y-370449995I0J100000D01*
G01*
X56670000Y-237570000D02*
G75*
G03*
X54670000Y-239570000I0J-2000000D01*
G01*
X337670000Y-497070000D02*
G75*
G03*
X339670000Y-499070000I2000000J0D01*
G01*
X362670000Y-263570000D02*
G75*
G03*
X360670000Y-261570000I-2000000J0D01*
G01*
X213679999Y-376150001D02*
G75*
G03*
X213579999Y-376050001I1J100001D01*
G01*
X360670000Y-237570000D02*
G75*
G03*
X362670000Y-235570000I0J2000000D01*
G01*
X68670000Y-249070000D02*
G75*
G03*
X66670000Y-251070000I0J-2000000D01*
G01*
X54670000Y-339070000D02*
G75*
G03*
X56670000Y-341070000I2000000J0D01*
G01*
X71770000Y-370449995D02*
X81610000Y-370449995D01*
X213580001Y-377690001D02*
G75*
G03*
X213679999Y-377590001I99999J1D01*
G01*
X213600000Y-372089995D02*
X203760000Y-372089995D01*
X345669999Y-376150001D02*
X345669999Y-377590001D01*
X362670000Y-239570000D02*
G75*
G03*
X360670000Y-237570000I-2000000J0D01*
G01*
X54670000Y-247070000D02*
G75*
G03*
X56670000Y-249070000I2000000J0D01*
G01*
X83569999Y-477569999D02*
G75*
G03*
X81569999Y-479570000I1J-2000001D01*
G01*
X148659999Y-376150001D02*
G75*
G03*
X148559999Y-376050001I1J100001D01*
G01*
X278560001Y-377690001D02*
G75*
G03*
X278659999Y-377590001I99999J1D01*
G01*
X213579999Y-377690001D02*
X203739999Y-377690001D01*
X278720000Y-370550000D02*
G75*
G03*
X278620000Y-370449995I0J100000D01*
G01*
X335700000Y-370449995D02*
X345540000Y-370449995D01*
X66670000Y-346070000D02*
G75*
G03*
X61670000Y-341070000I-5000000J0D01*
G01*
X345669999Y-376150001D02*
G75*
G03*
X345569999Y-376050001I1J100001D01*
G01*
X362669999Y-485070001D02*
X362679999Y-409070001D01*
X148620000Y-372089995D02*
X138780000Y-372089995D01*
X138779995Y-370449995D02*
G75*
G03*
X138680000Y-370549995I-99995J-5D01*
G01*
X337670000Y-482570000D02*
G75*
G03*
X335670000Y-480570000I-2000000J0D01*
G01*
X66670000Y-497070000D02*
G75*
G03*
X68669999Y-499070000I2000000J0D01*
G01*
X360670000Y-261570000D02*
X355670000Y-261570000D01*
X54670000Y-235570000D02*
G75*
G03*
X56670000Y-237570000I2000000J0D01*
G01*
X278659999Y-376150001D02*
G75*
G03*
X278559999Y-376050001I1J100001D01*
G01*
X268719999Y-376050001D02*
X278559999Y-376050001D01*
X278720000Y-370549995D02*
X278720000Y-371989995D01*
X61670000Y-261070000D02*
G75*
G03*
X66670000Y-256070000I0J5000000D01*
G01*
X355670000Y-341070000D02*
G75*
G03*
X350670000Y-346070000I0J-5000000D01*
G01*
X355679999Y-407070001D02*
X360679999Y-407070001D01*
X268780000Y-370449995D02*
X278620000Y-370449995D01*
X138719999Y-376050001D02*
X148559999Y-376050001D01*
X360670000Y-249070000D02*
G75*
G03*
X362670000Y-247070000I0J2000000D01*
G01*
X81639999Y-377690001D02*
X71799999Y-377690001D01*
X79569999Y-499069999D02*
G75*
G03*
X81569999Y-497070000I1J1999999D01*
G01*
X337670000Y-497070000D02*
X337670000Y-482570000D01*
X81739999Y-376150001D02*
G75*
G03*
X81639999Y-376050001I1J100001D01*
G01*
X66669998Y-491570001D02*
X66669999Y-497070000D01*
X138680000Y-371990000D02*
G75*
G03*
X138780000Y-372089995I0J-100000D01*
G01*
X71670000Y-371989995D02*
X71670000Y-370549995D01*
X81710000Y-370549995D02*
X81710000Y-371989995D01*
X61679999Y-407069999D02*
G75*
G03*
X66679999Y-402070001I1J4999999D01*
G01*
X138720001Y-376050001D02*
G75*
G03*
X138619999Y-376150001I-100001J1D01*
G01*
X56670000Y-202040000D02*
X360670000Y-202040000D01*
X268680000Y-371990000D02*
G75*
G03*
X268780000Y-372089995I0J-100000D01*
G01*
X203740001Y-376050001D02*
G75*
G03*
X203639999Y-376150001I-100001J1D01*
G01*
X339670000Y-499070000D02*
X348670000Y-499070000D01*
X71699999Y-377590001D02*
X71699999Y-376150001D01*
X66670000Y-251070000D02*
X66670000Y-256070000D01*
X335629999Y-377590001D02*
X335629999Y-376150001D01*
X148619995Y-372089995D02*
G75*
G03*
X148720000Y-371989995I100005J-5D01*
G01*
X268619999Y-377590001D02*
G75*
G03*
X268719999Y-377690001I1J-99999D01*
G01*
X268720001Y-376050001D02*
G75*
G03*
X268619999Y-376150001I-100001J1D01*
G01*
X83569999Y-477570000D02*
X124969999Y-477570000D01*
X335730001Y-376050001D02*
G75*
G03*
X335629999Y-376150001I-100001J1D01*
G01*
X335629999Y-377590001D02*
G75*
G03*
X335729999Y-377690001I1J-99999D01*
G01*
X278619995Y-372089995D02*
G75*
G03*
X278720000Y-371989995I100005J-5D01*
G01*
X81569999Y-497070000D02*
X81569999Y-479570000D01*
X126970005Y-479570000D02*
G75*
G03*
X127969999Y-480571596I999995J-1600D01*
G01*
X54670000Y-263070000D02*
X54670000Y-339070000D01*
X126970000Y-479570000D02*
G75*
G03*
X124969999Y-477570000I-2000000J0D01*
G01*
X148659999Y-376150001D02*
X148659999Y-377590001D01*
X345570001Y-377690001D02*
G75*
G03*
X345669999Y-377590001I99999J1D01*
G01*
X203660000Y-371990000D02*
G75*
G03*
X203760000Y-372089995I0J-100000D01*
G01*
X355669999Y-487069999D02*
G75*
G03*
X350669999Y-492070001I1J-5000001D01*
G01*
X348670000Y-374070000D02*
G75*
G03*
X350670000Y-372070000I0J2000000D01*
G01*
X71769995Y-370449995D02*
G75*
G03*
X71670000Y-370549995I-99995J-5D01*
G01*
X355670000Y-341070000D02*
X360670000Y-341070000D01*
X54669999Y-484570001D02*
G75*
G03*
X56669998Y-486570001I2000001J1D01*
G01*
X345540000Y-372089995D02*
X335700000Y-372089995D01*
X56670000Y-202040000D02*
G75*
G03*
X54670000Y-204040000I0J-2000000D01*
G01*
X362670000Y-204040000D02*
X362670000Y-235570000D01*
X138619999Y-377590001D02*
X138619999Y-376150001D01*
X213679999Y-376150001D02*
X213679999Y-377590001D01*
X68669999Y-374069999D02*
X348670000Y-374069999D01*
X348670000Y-499070000D02*
G75*
G03*
X350670000Y-497070000I0J2000000D01*
G01*
X71799999Y-376050001D02*
X81639999Y-376050001D01*
X81610000Y-372089995D02*
X71770000Y-372089995D01*
X268619999Y-377590001D02*
X268619999Y-376150001D01*
X203760000Y-370449995D02*
X213600000Y-370449995D01*
X81640001Y-377690001D02*
G75*
G03*
X81739999Y-377590001I99999J1D01*
G01*
X345640000Y-370549995D02*
X345640000Y-371989995D01*
X81609995Y-372089995D02*
G75*
G03*
X81710000Y-371989995I100005J-5D01*
G01*
X66670000Y-346070000D02*
X66670000Y-372070000D01*
X71699999Y-377590001D02*
G75*
G03*
X71799999Y-377690001I1J-99999D01*
G01*
X350670000Y-256570000D02*
G75*
G03*
X355670000Y-261570000I5000000J0D01*
G01*
X268779995Y-370449995D02*
G75*
G03*
X268680000Y-370549995I-99995J-5D01*
G01*
X278659999Y-376150001D02*
X278659999Y-377590001D01*
X278620000Y-372089995D02*
X268780000Y-372089995D01*
X345569999Y-377690001D02*
X335729999Y-377690001D01*
X213599995Y-372089995D02*
G75*
G03*
X213700000Y-371989995I100005J-5D01*
G01*
X335699995Y-370449995D02*
G75*
G03*
X335600000Y-370549995I-99995J-5D01*
G01*
X362670000Y-204040000D02*
G75*
G03*
X360670000Y-202040000I-2000000J0D01*
G01*
X66670000Y-372070000D02*
G75*
G03*
X68670000Y-374070000I2000000J0D01*
G01*
X138680000Y-371989995D02*
X138680000Y-370549995D01*
X54670000Y-239570000D02*
X54670000Y-247070000D01*
X61670000Y-261070000D02*
X56670000Y-261070000D01*
X345640000Y-370550000D02*
G75*
G03*
X345540000Y-370449995I0J100000D01*
G01*
X56670000Y-237570000D02*
X360670000Y-237570000D01*
X71800001Y-376050001D02*
G75*
G03*
X71699999Y-376150001I-100001J1D01*
G01*
X54679999Y-409070001D02*
X54669998Y-484570001D01*
X359170000Y-243560000D02*
G75*
G03*
X359170000Y-243560000I-2000000J0D01*
G01*
X138619999Y-377590001D02*
G75*
G03*
X138719999Y-377690001I1J-99999D01*
G01*
X56670000Y-261070000D02*
G75*
G03*
X54670000Y-263070000I0J-2000000D01*
G01*
X62170000Y-207540000D02*
G75*
G03*
X62170000Y-207540000I-2000000J0D01*
G01*
X148560001Y-377690001D02*
G75*
G03*
X148659999Y-377590001I99999J1D01*
G01*
X350670000Y-256570000D02*
X350670000Y-251070000D01*
X359170000Y-207540000D02*
G75*
G03*
X359170000Y-207540000I-2000000J0D01*
G01*
X355669999Y-487070001D02*
X360669999Y-487070001D01*
X62170000Y-243570000D02*
G75*
G03*
X62170000Y-243570000I-2000000J0D01*
G01*
X56679999Y-407069999D02*
G75*
G03*
X54679999Y-409070001I1J-2000001D01*
G01*
X66669999Y-376070000D02*
X66679999Y-402070001D01*
X335600000Y-371990000D02*
G75*
G03*
X335700000Y-372089995I0J-100000D01*
G01*
X66669999Y-491570001D02*
G75*
G03*
X61669998Y-486570001I-4999999J1D01*
G01*
X350670000Y-376070000D02*
G75*
G03*
X348670000Y-374070000I-2000000J0D01*
G01*
X56679999Y-407070001D02*
X61679999Y-407070001D01*
X56670000Y-249070000D02*
X360670000Y-249070000D01*
X268680000Y-371989995D02*
X268680000Y-370549995D01*
X350670000Y-497070000D02*
X350669999Y-492070001D01*
X360669999Y-487069999D02*
G75*
G03*
X362669999Y-485070001I1J1999999D01*
G01*
X56669998Y-486570001D02*
X61669998Y-486570001D01*
X360670000Y-341070000D02*
G75*
G03*
X362670000Y-339070000I0J2000000D01*
G01*
X68670000Y-249070000D02*
X348670000Y-249070000D01*
X362670000Y-339070000D02*
X362670000Y-263570000D01*
X345539995Y-372089995D02*
G75*
G03*
X345640000Y-371989995I100005J-5D01*
G01*
X213700000Y-370549995D02*
X213700000Y-371989995D01*
X203759995Y-370449995D02*
G75*
G03*
X203660000Y-370549995I-99995J-5D01*
G01*
X362679999Y-409070001D02*
G75*
G03*
X360679999Y-407070001I-1999999J1D01*
G01*
X54670000Y-204040000D02*
X54670000Y-235570000D01*
X127969999Y-480571596D02*
X335670000Y-480570000D01*
X335729999Y-376050001D02*
X345569999Y-376050001D01*
X350679999Y-402070001D02*
G75*
G03*
X355679999Y-407070001I5000001J1D01*
G01*
X68669999Y-374069999D02*
G75*
G03*
X66669999Y-376070000I1J-2000001D01*
G01*
X350670000Y-251070000D02*
G75*
G03*
X348670000Y-249070000I-2000000J0D01*
G01*
X213700000Y-370550000D02*
G75*
G03*
X213600000Y-370449995I0J100000D01*
G01*
X71670000Y-371990000D02*
G75*
G03*
X71770000Y-372089995I0J-100000D01*
G01*
X278559999Y-377690001D02*
X268719999Y-377690001D01*
X203739999Y-376050001D02*
X213579999Y-376050001D01*
X148559999Y-377690001D02*
X138719999Y-377690001D01*
X203639999Y-377590001D02*
X203639999Y-376150001D01*
X56670000Y-341070000D02*
X61670000Y-341070000D01*
X350679999Y-402070001D02*
X350670000Y-376070000D01*
X362670000Y-239570000D02*
X362670000Y-247070000D01*
X138780000Y-370449995D02*
X148620000Y-370449995D01*
X148720000Y-370550000D02*
G75*
G03*
X148620000Y-370449995I0J100000D01*
G01*
X148720000Y-370549995D02*
X148720000Y-371989995D01*
D11*
X369896190Y-371403095D02*
X371562857Y-376403095D01*
X371562857Y-376403095D02*
X373229523Y-371403095D01*
X374896190Y-374498333D02*
X378705714Y-374498333D01*
X383943809Y-375926904D02*
X383705713Y-376165000D01*
X383705713Y-376165000D02*
X382991428Y-376403095D01*
X382991428Y-376403095D02*
X382515237Y-376403095D01*
X382515237Y-376403095D02*
X381800951Y-376165000D01*
X381800951Y-376165000D02*
X381324761Y-375688809D01*
X381324761Y-375688809D02*
X381086666Y-375212619D01*
X381086666Y-375212619D02*
X380848570Y-374260238D01*
X380848570Y-374260238D02*
X380848570Y-373545952D01*
X380848570Y-373545952D02*
X381086666Y-372593571D01*
X381086666Y-372593571D02*
X381324761Y-372117380D01*
X381324761Y-372117380D02*
X381800951Y-371641190D01*
X381800951Y-371641190D02*
X382515237Y-371403095D01*
X382515237Y-371403095D02*
X382991428Y-371403095D01*
X382991428Y-371403095D02*
X383705713Y-371641190D01*
X383705713Y-371641190D02*
X383943809Y-371879285D01*
X386086666Y-371403095D02*
X386086666Y-375450714D01*
X386086666Y-375450714D02*
X386324761Y-375926904D01*
X386324761Y-375926904D02*
X386562856Y-376165000D01*
X386562856Y-376165000D02*
X387039047Y-376403095D01*
X387039047Y-376403095D02*
X387991428Y-376403095D01*
X387991428Y-376403095D02*
X388467618Y-376165000D01*
X388467618Y-376165000D02*
X388705713Y-375926904D01*
X388705713Y-375926904D02*
X388943809Y-375450714D01*
X388943809Y-375450714D02*
X388943809Y-371403095D01*
X390610475Y-371403095D02*
X393467618Y-371403095D01*
X392039046Y-376403095D02*
X392039046Y-371403095D01*
X370166190Y-247003095D02*
X371832857Y-252003095D01*
X371832857Y-252003095D02*
X373499523Y-247003095D01*
X375166190Y-250098333D02*
X378975714Y-250098333D01*
X384213809Y-251526904D02*
X383975713Y-251765000D01*
X383975713Y-251765000D02*
X383261428Y-252003095D01*
X383261428Y-252003095D02*
X382785237Y-252003095D01*
X382785237Y-252003095D02*
X382070951Y-251765000D01*
X382070951Y-251765000D02*
X381594761Y-251288809D01*
X381594761Y-251288809D02*
X381356666Y-250812619D01*
X381356666Y-250812619D02*
X381118570Y-249860238D01*
X381118570Y-249860238D02*
X381118570Y-249145952D01*
X381118570Y-249145952D02*
X381356666Y-248193571D01*
X381356666Y-248193571D02*
X381594761Y-247717380D01*
X381594761Y-247717380D02*
X382070951Y-247241190D01*
X382070951Y-247241190D02*
X382785237Y-247003095D01*
X382785237Y-247003095D02*
X383261428Y-247003095D01*
X383261428Y-247003095D02*
X383975713Y-247241190D01*
X383975713Y-247241190D02*
X384213809Y-247479285D01*
X386356666Y-247003095D02*
X386356666Y-251050714D01*
X386356666Y-251050714D02*
X386594761Y-251526904D01*
X386594761Y-251526904D02*
X386832856Y-251765000D01*
X386832856Y-251765000D02*
X387309047Y-252003095D01*
X387309047Y-252003095D02*
X388261428Y-252003095D01*
X388261428Y-252003095D02*
X388737618Y-251765000D01*
X388737618Y-251765000D02*
X388975713Y-251526904D01*
X388975713Y-251526904D02*
X389213809Y-251050714D01*
X389213809Y-251050714D02*
X389213809Y-247003095D01*
X390880475Y-247003095D02*
X393737618Y-247003095D01*
X392309046Y-252003095D02*
X392309046Y-247003095D01*
M02*
