M48
; DRILL file {KiCad 7.0.1} date Tue Apr  2 15:52:40 2024
; FORMAT={-:-/ absolute / inch / decimal}
; #@! TF.CreationDate,2024-04-02T15:52:40+09:00
; #@! TF.GenerationSoftware,Kicad,Pcbnew,7.0.1
; #@! TF.FileFunction,Plated,1,2,PTH
FMAT,2
INCH
; #@! TA.AperFunction,Plated,PTH,ViaDrill
T1C0.0157
; #@! TA.AperFunction,Plated,PTH,ComponentDrill
T2C0.0157
; #@! TA.AperFunction,Plated,PTH,ComponentDrill
T3C0.0236
; #@! TA.AperFunction,Plated,PTH,ComponentDrill
T4C0.0276
; #@! TA.AperFunction,Plated,PTH,ComponentDrill
T5C0.0283
; #@! TA.AperFunction,Plated,PTH,ComponentDrill
T6C0.0295
; #@! TA.AperFunction,Plated,PTH,ComponentDrill
T7C0.0315
; #@! TA.AperFunction,Plated,PTH,ComponentDrill
T8C0.0335
; #@! TA.AperFunction,Plated,PTH,ComponentDrill
T9C0.0354
; #@! TA.AperFunction,Plated,PTH,ComponentDrill
T10C0.0374
; #@! TA.AperFunction,Plated,PTH,ComponentDrill
T11C0.0394
; #@! TA.AperFunction,Plated,PTH,ComponentDrill
T12C0.0433
; #@! TA.AperFunction,Plated,PTH,ComponentDrill
T13C0.0512
; #@! TA.AperFunction,Plated,PTH,ComponentDrill
T14C0.0787
; #@! TA.AperFunction,Plated,PTH,ComponentDrill
T15C0.0827
; #@! TA.AperFunction,Plated,PTH,ComponentDrill
T16C0.1260
; #@! TA.AperFunction,Plated,PTH,ComponentDrill
T17C0.1417
; #@! TA.AperFunction,Plated,PTH,ComponentDrill
T18C0.2165
%
G90
G05
T1
X2.9323Y-12.3386
X2.9827Y-14.1579
X2.9827Y-14.276
X2.9827Y-14.3941
X3.1008Y-14.1579
X3.1008Y-14.276
X3.1008Y-14.3941
X3.1272Y-12.3701
X3.1921Y-13.1555
X3.3142Y-12.5303
X3.5264Y-13.3803
X3.5264Y-13.8681
X3.5343Y-11.8945
X3.5713Y-14.6295
X3.572Y-13.9134
X3.6189Y-14.6882
X3.6402Y-13.8323
X3.6732Y-13.1323
X3.7824Y-10.8014
X3.7825Y-10.7542
X3.7825Y-10.8486
X3.7825Y-10.6518
X3.7827Y-10.6046
X3.7827Y-10.699
X3.7858Y-11.7768
X3.7866Y-12.7894
X3.7866Y-13.563
X3.8455Y-10.8486
X3.8457Y-10.6043
X3.8472Y-11.8547
X3.8858Y-13.4083
X3.8874Y-14.4756
X3.889Y-13.8661
X3.9085Y-10.8013
X3.9086Y-10.754
X3.9086Y-10.8485
X3.9087Y-10.6517
X3.9088Y-10.6044
X3.9088Y-10.6989
X4.0051Y-13.874
X4.0051Y-14.3701
X4.0697Y-11.8945
X4.1134Y-13.4902
X4.1764Y-13.4098
X4.1862Y-11.8945
X4.2394Y-13.5472
X4.2488Y-14.1567
X4.2488Y-14.2748
X4.2488Y-14.3929
X4.2632Y-10.6541
X4.2632Y-11.8234
X4.2945Y-13.5079
X4.3535Y-13.6752
X4.3669Y-14.1567
X4.3669Y-14.2748
X4.3669Y-14.3929
X4.3732Y-12.9291
X4.3732Y-13.4469
X4.3854Y-12.4217
X4.389Y-13.0906
X4.4106Y-13.6929
X4.4232Y-10.7043
X4.4232Y-12.4846
X4.4382Y-13.4921
X4.4598Y-13.0827
X4.4598Y-13.4449
X4.485Y-14.1567
X4.485Y-14.2748
X4.485Y-14.3929
X4.4858Y-12.2547
X4.4913Y-13.6732
X4.4953Y-13.0323
X4.5228Y-13.2618
X4.5228Y-13.5098
X4.5642Y-13.2972
X4.5642Y-13.5413
X4.5858Y-12.3913
X4.6031Y-14.1567
X4.6031Y-14.2748
X4.6031Y-14.3929
X4.6252Y-13.5
X4.635Y-13.2618
X4.6744Y-13.4469
X4.6854Y-12.9594
X4.6862Y-12.2252
X4.7213Y-14.1567
X4.7213Y-14.2748
X4.7213Y-14.3929
X4.7551Y-13.2972
X4.7846Y-13.7382
X4.7854Y-12.1949
X4.7854Y-12.7744
X4.8358Y-13.5374
X4.8394Y-14.1567
X4.8394Y-14.2748
X4.8394Y-14.3929
X4.8858Y-12.2878
X4.8862Y-13.2335
X4.9343Y-13.7165
X4.9366Y-11.8591
X4.9575Y-14.1567
X4.9575Y-14.2748
X4.9575Y-14.3929
X5.0031Y-13.565
X5.0071Y-13.6969
X5.0346Y-13.6634
X5.0756Y-14.1567
X5.0756Y-14.2748
X5.0756Y-14.3929
X5.0862Y-13.8555
X5.1319Y-12.3622
X5.1453Y-13.4063
X5.1937Y-14.1567
X5.1937Y-14.2748
X5.1937Y-14.3929
X5.198Y-12.5866
X5.198Y-13.6142
X5.2748Y-12.2882
X5.3043Y-13.0807
X5.3118Y-14.1567
X5.3118Y-14.2748
X5.3118Y-14.3929
X5.4299Y-14.1567
X5.4299Y-14.2748
X5.4299Y-14.3929
X5.463Y-12.1941
X5.548Y-14.1567
X5.548Y-14.2748
X5.548Y-14.3929
X5.6661Y-14.1567
X5.6661Y-14.2748
X5.6661Y-14.3929
X5.6799Y-11.8654
X5.7843Y-14.1567
X5.7843Y-14.2748
X5.7843Y-14.3929
X5.8358Y-13.2331
X5.9024Y-14.1567
X5.9024Y-14.2748
X5.9024Y-14.3929
X5.928Y-10.8048
X5.9282Y-10.7576
X5.9282Y-10.8521
X5.9282Y-10.6552
X5.9283Y-10.608
X5.9283Y-10.7025
X5.9912Y-10.8521
X5.9913Y-10.6078
X5.9972Y-13.0827
X6.0035Y-12.774
X6.0205Y-14.1567
X6.0205Y-14.2748
X6.0205Y-14.3929
X6.0542Y-10.8047
X6.0543Y-10.7575
X6.0543Y-10.852
X6.0543Y-10.6551
X6.0545Y-10.6079
X6.0545Y-10.7024
X6.1386Y-14.1567
X6.1386Y-14.2748
X6.1386Y-14.3929
X6.215Y-11.8654
X6.2567Y-14.1567
X6.2567Y-14.2748
X6.2567Y-14.3929
X6.3748Y-14.1567
X6.3748Y-14.2748
X6.3748Y-14.3929
X6.4085Y-10.6542
X6.4085Y-11.8235
X6.4929Y-14.1567
X6.4929Y-14.2748
X6.4929Y-14.3929
X6.5177Y-10.7047
X6.5177Y-12.5819
X6.611Y-14.1567
X6.611Y-14.2748
X6.611Y-14.3929
X6.7291Y-14.1567
X6.7291Y-14.2748
X6.7291Y-14.3929
X6.8472Y-14.1567
X6.8472Y-14.2748
X6.8472Y-14.3929
X6.9654Y-14.1567
X6.9654Y-14.2748
X6.9654Y-14.3929
X7.0835Y-14.1567
X7.0835Y-14.2748
X7.0835Y-14.3929
X7.2016Y-14.1567
X7.2016Y-14.2748
X7.2016Y-14.3929
X7.3197Y-14.1567
X7.3197Y-14.2748
X7.3197Y-14.3929
X7.4378Y-14.1567
X7.4378Y-14.2748
X7.4378Y-14.3929
X7.4382Y-12.2252
X7.5559Y-14.1567
X7.5559Y-14.2748
X7.5559Y-14.3929
X7.6142Y-12.3902
X7.674Y-14.1567
X7.674Y-14.2748
X7.674Y-14.3929
X7.7921Y-14.1567
X7.7921Y-14.2748
X7.7921Y-14.3929
X7.8256Y-11.8654
X7.9102Y-14.1567
X7.9102Y-14.2748
X7.9102Y-14.3929
X7.9811Y-12.9594
X7.9815Y-12.322
X8.0283Y-14.1567
X8.0283Y-14.2748
X8.0283Y-14.3929
X8.0776Y-10.8048
X8.0778Y-10.7576
X8.0778Y-10.8521
X8.0778Y-10.6552
X8.078Y-10.608
X8.078Y-10.7025
X8.1343Y-12.7433
X8.1408Y-10.8521
X8.1409Y-10.6078
X8.1465Y-14.1567
X8.1465Y-14.2748
X8.1465Y-14.3929
X8.1921Y-13.0807
X8.1921Y-13.1791
X8.1961Y-13.3602
X8.2038Y-10.8047
X8.2039Y-10.7575
X8.2039Y-10.852
X8.2039Y-10.6551
X8.2041Y-10.6079
X8.2041Y-10.7024
X8.2646Y-14.1567
X8.2646Y-14.2748
X8.2646Y-14.3929
X8.361Y-11.8654
X8.3827Y-14.1567
X8.3827Y-14.2748
X8.3827Y-14.3929
X8.5008Y-14.1567
X8.5008Y-14.2748
X8.5008Y-14.3929
X8.5476Y-10.6543
X8.5476Y-11.8236
X8.6053Y-10.7041
X8.6189Y-14.1567
X8.6189Y-14.2748
X8.6189Y-14.3929
X8.735Y-12.5638
X8.737Y-14.1567
X8.737Y-14.2748
X8.737Y-14.3929
X8.8315Y-12.5224
X8.8315Y-13.0815
X8.8315Y-13.4181
X8.8551Y-14.1567
X8.8551Y-14.2748
X8.8551Y-14.3929
X8.9201Y-12.4909
X8.9201Y-12.7567
X8.9209Y-13.3819
X8.9732Y-14.1567
X8.9732Y-14.2748
X8.9732Y-14.3929
X8.989Y-12.9791
X9.0618Y-12.735
X9.0913Y-14.1567
X9.0913Y-14.2748
X9.0913Y-14.3929
X9.1213Y-12.4594
X9.1215Y-12.8445
X9.1602Y-12.4949
X9.2094Y-14.1567
X9.2094Y-14.2748
X9.2094Y-14.3929
X9.2396Y-12.564
X9.2406Y-12.7795
X9.3276Y-14.1567
X9.3276Y-14.2748
X9.3276Y-14.3929
X9.4457Y-14.1567
X9.4457Y-14.2748
X9.4457Y-14.3929
X9.5638Y-14.1567
X9.5638Y-14.2748
X9.5638Y-14.3929
X9.5717Y-12.2547
X9.6819Y-14.1567
X9.6819Y-14.2748
X9.6819Y-14.3929
X9.7236Y-12.7047
X9.7508Y-12.422
X9.8Y-14.1567
X9.8Y-14.2748
X9.8Y-14.3929
X9.8093Y-11.9537
X9.8093Y-12.0246
X9.8093Y-12.0955
X9.8093Y-12.1663
X9.8801Y-11.9537
X9.8801Y-12.0246
X9.8801Y-12.0955
X9.8801Y-12.1663
X9.9181Y-14.1567
X9.9181Y-14.2748
X9.9181Y-14.3929
X9.9709Y-11.8654
X10.0362Y-14.1567
X10.0362Y-14.2748
X10.0362Y-14.3929
X10.1193Y-11.1327
X10.1307Y-13.0283
X10.1543Y-14.1567
X10.1543Y-14.2748
X10.1543Y-14.3929
X10.2138Y-12.7047
X10.2194Y-10.8054
X10.2195Y-10.7582
X10.2195Y-10.8527
X10.2195Y-10.6558
X10.2197Y-10.6086
X10.2197Y-10.7031
X10.2724Y-14.1567
X10.2724Y-14.2748
X10.2724Y-14.3929
X10.2825Y-10.8527
X10.2827Y-10.6084
X10.3433Y-12.989
X10.3455Y-10.8053
X10.3456Y-10.7581
X10.3456Y-10.8526
X10.3457Y-10.6557
X10.3458Y-10.6085
X10.3458Y-10.703
X10.3906Y-14.1567
X10.3906Y-14.2748
X10.3906Y-14.3929
X10.3988Y-12.7382
X10.4685Y-11.8236
X10.4685Y-11.9634
X10.4992Y-13.3819
X10.5008Y-12.5677
X10.5071Y-11.8654
X10.5087Y-14.1567
X10.5087Y-14.2748
X10.5087Y-14.3929
X10.5213Y-11.9303
X10.5234Y-12.0979
X10.5234Y-12.1688
X10.5551Y-10.6539
X10.5943Y-12.0979
X10.5943Y-12.1688
X10.5996Y-12.7165
X10.6268Y-14.1567
X10.6268Y-14.2748
X10.6268Y-14.3929
X10.6823Y-12.685
X10.6953Y-11.1327
X10.724Y-10.7035
X10.7252Y-12.8118
X10.7449Y-14.1567
X10.7449Y-14.2748
X10.7449Y-14.3929
X10.7484Y-12.9636
X10.8142Y-12.689
X10.863Y-14.1567
X10.863Y-14.2748
X10.863Y-14.3929
X10.9004Y-12.6346
X10.9811Y-14.1567
X10.9811Y-14.2748
X10.9811Y-14.3929
X10.9996Y-13.3465
X11.0598Y-13.2232
X11.0992Y-14.1567
X11.0992Y-14.2748
X11.0992Y-14.3929
X11.1016Y-13.5965
X11.1996Y-13.6713
X11.2173Y-14.1567
X11.2173Y-14.2748
X11.2173Y-14.3929
X11.2984Y-13.5669
X11.3Y-12.2892
X11.3354Y-14.1567
X11.3354Y-14.2748
X11.3354Y-14.3929
X11.4535Y-14.1567
X11.4535Y-14.2748
X11.4535Y-14.3929
X11.4614Y-12.3039
X11.4996Y-13.4417
X11.5008Y-12.2281
X11.549Y-13.0283
X11.55Y-13.8268
X11.5717Y-14.1567
X11.5717Y-14.2748
X11.5717Y-14.3929
X11.6898Y-14.1567
X11.6898Y-14.2748
X11.6898Y-14.3929
X11.7Y-12.2303
X11.7587Y-13.1252
X11.7657Y-13.4441
X11.8079Y-14.1567
X11.8079Y-14.2748
X11.8079Y-14.3929
X11.8157Y-13.3925
X11.9016Y-13.1504
X11.926Y-14.1567
X11.926Y-14.2748
X11.926Y-14.3929
X11.9992Y-13.0205
X12.0311Y-12.0232
X12.0311Y-12.102
X12.0311Y-12.1807
X12.0441Y-14.1567
X12.0441Y-14.2748
X12.0441Y-14.3929
X12.0488Y-12.6198
X12.0488Y-12.6985
X12.0992Y-13.1819
X12.1098Y-12.0232
X12.1098Y-12.102
X12.1098Y-12.1807
X12.1276Y-12.6198
X12.1276Y-12.6985
X12.1622Y-14.1567
X12.1622Y-14.2748
X12.1622Y-14.3929
X12.2197Y-13.0709
X12.2197Y-13.1303
X12.2197Y-13.2091
X12.2728Y-13.4213
X12.2803Y-14.1567
X12.2803Y-14.2748
X12.2803Y-14.3929
X12.2996Y-13.3205
X12.365Y-13.2551
X12.365Y-12.5684
X12.3653Y-11.9717
X12.3654Y-13.4449
X12.3984Y-14.1567
X12.3984Y-14.2748
X12.3984Y-14.3929
X12.4181Y-13.4909
X12.4531Y-12.0846
X12.4795Y-12.6201
X12.4795Y-12.6988
X12.4921Y-13.0709
X12.4921Y-13.1303
X12.4921Y-13.2091
X12.5051Y-13.8957
X12.5106Y-9.9949
X12.5165Y-14.1567
X12.5165Y-14.2748
X12.5165Y-14.3929
X12.5169Y-13.4685
X12.5583Y-12.6201
X12.5583Y-12.6988
X12.5709Y-13.0709
X12.5709Y-13.1303
X12.5709Y-13.2091
X12.6016Y-13.3957
X12.6039Y-12.5685
X12.6043Y-11.9713
X12.6346Y-14.1567
X12.6346Y-14.2748
X12.6346Y-14.3929
X12.6961Y-12.3307
X12.7118Y-13.3957
X12.7244Y-12.0232
X12.7244Y-12.1374
X12.7244Y-12.2161
X12.7276Y-12.372
X12.7528Y-14.1567
X12.7528Y-14.2748
X12.7528Y-14.3929
X12.7945Y-12.8583
X12.8031Y-12.0232
X12.8031Y-12.1374
X12.8031Y-12.2161
X12.8437Y-13.7972
X12.8709Y-14.1567
X12.8709Y-14.2748
X12.8709Y-14.3929
X12.8945Y-12.8248
X12.8945Y-13.8996
X12.8969Y-14.061
X12.9421Y-13.6732
X12.9441Y-13.7382
X12.9835Y-13.9331
X12.989Y-14.1567
X12.989Y-14.2748
X12.989Y-14.3929
X12.9933Y-12.8071
X12.9953Y-14.0394
X13.0445Y-13.6358
X13.0937Y-12.7815
X13.0937Y-14.0197
X13.0945Y-13.935
X13.1071Y-14.1567
X13.1071Y-14.2748
X13.1071Y-14.3929
X13.1386Y-10.8835
X13.1386Y-10.9819
X13.1386Y-11.0803
X13.1386Y-11.1787
X13.1386Y-11.2772
X13.1386Y-11.3756
X13.1386Y-11.474
X13.1386Y-11.5724
X13.1386Y-11.6709
X13.1386Y-11.7693
X13.1386Y-11.8677
X13.1386Y-11.9661
X13.1386Y-12.163
X13.1449Y-13.7441
X13.1902Y-13.9961
X13.1941Y-12.748
X13.1945Y-13.9154
X13.2252Y-14.1567
X13.2252Y-14.2748
X13.2252Y-14.3929
X13.237Y-10.8835
X13.237Y-10.9819
X13.237Y-11.0803
X13.237Y-11.1787
X13.237Y-11.2772
X13.237Y-11.3756
X13.237Y-11.474
X13.237Y-11.5724
X13.237Y-11.6709
X13.237Y-11.7693
X13.237Y-11.8677
X13.237Y-11.9661
X13.2433Y-13.7874
X13.2945Y-13.8819
X13.2945Y-13.9646
X13.3039Y-12.0846
X13.3339Y-13.8287
X13.3354Y-10.8835
X13.3354Y-10.9819
X13.3354Y-11.0803
X13.3354Y-11.1787
X13.3354Y-11.2772
X13.3354Y-11.3756
X13.3354Y-11.474
X13.3354Y-11.5724
X13.3354Y-11.6709
X13.3354Y-11.7693
X13.3354Y-11.8677
X13.3354Y-11.9661
X13.3752Y-13.3205
X13.4339Y-10.8835
X13.4339Y-10.9819
X13.4339Y-11.0803
X13.4339Y-11.1787
X13.4339Y-11.2772
X13.4339Y-11.3756
X13.4339Y-11.474
X13.4339Y-11.5724
X13.4339Y-11.6709
X13.4339Y-11.7693
X13.4339Y-11.8677
X13.4339Y-11.9661
X13.5323Y-10.8835
X13.5323Y-10.9819
X13.5323Y-11.0803
X13.5323Y-11.1787
X13.5323Y-11.2772
X13.5323Y-11.3756
X13.5323Y-11.474
X13.5323Y-11.5724
X13.5323Y-11.6709
X13.5323Y-11.7693
X13.5323Y-11.8677
X13.5323Y-11.9661
X13.6307Y-10.8835
X13.6307Y-10.9819
X13.6307Y-11.0803
X13.6307Y-11.1787
X13.6307Y-11.2772
X13.6307Y-11.3756
X13.6307Y-11.474
X13.6307Y-11.5724
X13.6307Y-11.6709
X13.6307Y-11.7693
X13.6307Y-11.8677
X13.6307Y-11.9661
X13.7291Y-10.8835
X13.7291Y-10.9819
X13.7291Y-11.0803
X13.7291Y-11.1787
X13.7291Y-11.2772
X13.7291Y-11.3756
X13.7291Y-11.474
X13.7291Y-11.5724
X13.7291Y-11.6709
X13.7291Y-11.7693
X13.7291Y-11.8677
X13.7291Y-11.9661
X13.761Y-12.8142
X13.7677Y-13.3669
X13.8051Y-12.7626
X13.8098Y-13.2575
X13.8276Y-10.8835
X13.8276Y-10.9819
X13.8276Y-11.0803
X13.8276Y-11.1787
X13.8276Y-11.2772
X13.8276Y-11.3756
X13.8276Y-11.474
X13.8276Y-11.5724
X13.8276Y-11.6709
X13.8276Y-11.7693
X13.8276Y-11.8677
X13.8276Y-11.9661
X13.926Y-10.8835
X13.926Y-10.9819
X13.926Y-11.0803
X13.926Y-11.1787
X13.926Y-11.2772
X13.926Y-11.3756
X13.926Y-11.474
X13.926Y-11.5724
X13.926Y-11.6709
X13.926Y-11.7693
X13.926Y-11.8677
X13.926Y-11.9661
X14.0244Y-10.8835
X14.0244Y-10.9819
X14.0244Y-11.0803
X14.0244Y-11.1787
X14.0244Y-11.2772
X14.0244Y-11.3756
X14.0244Y-11.474
X14.0244Y-11.5724
X14.0244Y-11.6709
X14.0244Y-11.7693
X14.0244Y-11.8677
X14.0244Y-11.9661
X14.0594Y-13.3205
X14.0791Y-10.3913
X14.1197Y-12.7626
X14.2282Y-12.8089
X14.2492Y-12.8421
T4
X2.9303Y-12.752
X3.324Y-12.752
T5
X14.0126Y-13.0449
X14.0126Y-13.1433
T6
X10.3996Y-12.9083
X10.3996Y-13.9083
X10.4996Y-12.9083
X10.4996Y-13.9083
X10.5996Y-12.9083
X10.5996Y-13.9083
X10.6996Y-12.9083
X10.6996Y-13.9083
X10.7996Y-12.9083
X10.7996Y-13.9083
X10.8996Y-12.9083
X10.8996Y-13.9083
X10.9996Y-12.9083
X10.9996Y-13.9083
X11.0996Y-12.9083
X11.0996Y-13.9083
X11.1996Y-12.9083
X11.1996Y-13.9083
X11.2996Y-12.9083
X11.2996Y-13.9083
X11.3996Y-12.9083
X11.3996Y-13.9083
X11.4996Y-12.9083
X11.4996Y-13.9083
X11.5996Y-12.9083
X11.5996Y-13.9083
X11.6996Y-12.9083
X11.6996Y-13.9083
X11.7996Y-12.9083
X11.7996Y-13.9083
X11.8996Y-12.9083
X11.8996Y-13.9083
X11.9996Y-12.9083
X11.9996Y-13.9083
X12.0996Y-12.9083
X12.0996Y-13.9083
X12.1996Y-12.9083
X12.1996Y-13.9083
X12.2996Y-12.9083
X12.2996Y-13.9083
X14.0126Y-12.9465
X14.0126Y-13.2417
T7
X3.226Y-11.0608
X3.4732Y-14.3114
X3.6197Y-11.0608
X3.6504Y-14.3114
X3.7614Y-11.0608
X4.1551Y-11.0608
X5.3717Y-11.0608
X5.7654Y-11.0608
X5.9071Y-11.0608
X6.3008Y-11.0608
X7.5173Y-11.06
X7.911Y-11.06
X8.0528Y-11.06
X8.4465Y-11.06
X9.6632Y-11.0598
X10.0569Y-11.0598
X10.1996Y-11.0589
X10.5933Y-11.0589
X12.7945Y-12.9822
X12.7945Y-13.0822
X12.8945Y-12.9822
X12.8945Y-13.0822
X12.9945Y-12.9822
X12.9945Y-13.0822
X13.0945Y-12.9822
X13.0945Y-13.0822
X13.1945Y-12.9822
X13.1945Y-13.0822
X13.2945Y-12.9822
X13.2945Y-13.0822
T8
X8.5133Y-12.6803
X8.5133Y-12.7803
X8.5133Y-12.8803
X8.5133Y-12.9803
X8.5133Y-13.0803
X8.5133Y-13.1803
X8.5133Y-13.2803
X8.5133Y-13.3803
T9
X2.4949Y-10.5677
X2.7705Y-10.5677
X3.6854Y-12.5873
X3.6854Y-12.6873
X3.7854Y-12.5873
X3.7854Y-12.6873
X3.8854Y-12.5873
X3.8854Y-12.6873
X3.9854Y-12.5873
X3.9854Y-12.6873
X4.0854Y-12.5873
X4.0854Y-12.6873
X4.1854Y-12.5873
X4.1854Y-12.6873
X4.2854Y-12.5873
X4.2854Y-12.6873
X4.3854Y-12.5873
X4.3854Y-12.6873
X4.4854Y-12.5873
X4.4854Y-12.6873
X4.5854Y-12.5873
X4.5854Y-12.6873
X4.6854Y-12.5873
X4.6854Y-12.6873
X4.7854Y-12.5873
X4.7854Y-12.6873
X4.8854Y-12.5873
X4.8854Y-12.6873
X4.9854Y-12.5873
X4.9854Y-12.6873
X5.0854Y-12.5873
X5.0854Y-12.6873
X8.6701Y-12.4819
X8.6701Y-12.5819
X8.6701Y-12.6819
X8.6701Y-12.7819
X8.6701Y-12.8819
X8.6701Y-12.9819
X8.6701Y-13.0819
X8.6701Y-13.1819
X8.6701Y-13.2819
X8.6701Y-13.3819
X12.3423Y-11.1602
X12.3423Y-11.4358
X12.5844Y-11.1602
X12.5844Y-11.4358
X12.9392Y-12.5686
X13.5941Y-12.2133
X13.5941Y-12.3133
X13.5941Y-12.4133
X13.5941Y-12.5133
X13.6941Y-12.2633
X13.6941Y-12.3633
X13.6941Y-12.4633
X13.6941Y-12.5633
T10
X4.3177Y-9.9827
X4.3177Y-10.1795
X4.5146Y-9.9827
X4.5146Y-10.1795
X4.7114Y-9.9827
X4.7114Y-10.1795
X6.4634Y-9.9831
X6.4634Y-10.1799
X6.6602Y-9.9831
X6.6602Y-10.1799
X6.8571Y-9.9831
X6.8571Y-10.1799
X8.6091Y-9.9831
X8.6091Y-10.1799
X8.8059Y-9.9831
X8.8059Y-10.1799
X9.0028Y-9.9831
X9.0028Y-10.1799
X10.7547Y-9.9831
X10.7547Y-10.1799
X10.9516Y-9.9831
X10.9516Y-10.1799
X11.1484Y-9.9831
X11.1484Y-10.1799
T11
X8.3142Y-12.0413
X8.511Y-12.0413
X11.3841Y-11.8934
X11.3841Y-12.5686
X12.9411Y-11.8934
T12
X2.9303Y-13.1535
X3.1272Y-12.6535
X3.226Y-11.4624
X3.324Y-13.1535
X3.4228Y-10.9624
X3.6197Y-11.4624
X3.7614Y-11.4624
X3.9583Y-10.9624
X4.1551Y-11.4624
X5.3717Y-11.4624
X5.5685Y-10.9624
X5.7654Y-11.4624
X5.9071Y-11.4624
X6.1039Y-10.9624
X6.3008Y-11.4624
X7.5173Y-11.4616
X7.7142Y-10.9616
X7.911Y-11.4616
X8.0528Y-11.4616
X8.2496Y-10.9616
X8.4465Y-11.4616
X9.6632Y-11.4614
X9.86Y-10.9614
X10.0569Y-11.4614
X10.1996Y-11.4604
X10.3965Y-10.9604
X10.5933Y-11.4604
T13
X3.424Y-14.213
X3.6996Y-14.213
T14
X3.3728Y-10.1799
X3.8846Y-10.1799
X5.5185Y-10.1799
X6.0303Y-10.1799
X7.6642Y-10.1799
X8.176Y-10.1799
X9.8098Y-10.1799
X10.3217Y-10.1799
T15
X11.5874Y-10.0224
X11.5874Y-10.5579
X11.8827Y-10.0224
X11.8827Y-10.5579
X12.7685Y-10.0224
X12.7685Y-10.5579
X13.0638Y-10.0224
X13.0638Y-10.5579
T16
X2.9004Y-15.8098
X2.9004Y-19.3531
X2.9004Y-8.2496
X2.9004Y-9.5894
X2.9004Y-10.1012
X2.9004Y-13.6445
X5.0461Y-8.2496
X5.0461Y-10.1012
X7.1917Y-8.2496
X7.1917Y-9.037
X7.1917Y-9.5894
X7.1917Y-10.1012
X7.1917Y-10.8886
X7.1917Y-13.6445
X9.239Y-15.8098
X9.239Y-18.5657
X9.3374Y-8.2496
X9.3374Y-10.1012
X13.5303Y-8.2496
X13.5303Y-9.5894
X13.5303Y-10.1012
X13.5303Y-13.6445
X13.5303Y-15.8098
X13.5303Y-19.3531
T18
X11.735Y-10.2902
X12.9161Y-10.2902
T2
G00X14.1469Y-12.083
M15
G01X14.0209Y-12.083
M16
G05
G00X14.1469Y-12.6942
M15
G01X14.0209Y-12.6942
M16
G05
T3
G00X12.2616Y-10.2909
M15
G01X12.2616Y-10.2594
M16
G05
G00X12.2616Y-10.4795
M15
G01X12.2616Y-10.448
M16
G05
G00X12.301Y-9.9276
M15
G01X12.301Y-9.8961
M16
G05
G00X12.301Y-10.1161
M15
G01X12.301Y-10.0846
M16
G05
T17
G00X2.9008Y-16.7122
M15
G01X2.9008Y-17.3106
M16
G05
T0
M30
