M48
; DRILL file {KiCad 8.0.4} date 2024-11-04T15:17:41+0900
; FORMAT={-:-/ absolute / inch / decimal}
; #@! TF.CreationDate,2024-11-04T15:17:41+09:00
; #@! TF.GenerationSoftware,Kicad,Pcbnew,8.0.4
; #@! TF.FileFunction,Plated,1,2,PTH
FMAT,2
INCH
; #@! TA.AperFunction,Plated,PTH,ViaDrill
T1C0.0157
; #@! TA.AperFunction,Plated,PTH,ComponentDrill
T2C0.0315
; #@! TA.AperFunction,Plated,PTH,ComponentDrill
T3C0.0335
; #@! TA.AperFunction,Plated,PTH,ComponentDrill
T4C0.0787
%
G90
G05
T1
X1.6965Y-1.9547
X1.6965Y-2.939
X1.6965Y-3.9232
X1.6965Y-4.9075
X1.7909Y-2.0035
X1.7909Y-2.9878
X1.7909Y-3.972
X1.7909Y-4.9563
X1.9331Y-1.8988
X1.9331Y-1.9882
X1.9331Y-2.0768
X1.9331Y-2.165
X1.9331Y-2.2539
X1.9331Y-2.3406
X1.9331Y-2.4587
X1.9331Y-2.8831
X1.9331Y-2.9724
X1.9331Y-3.061
X1.9331Y-3.1492
X1.9331Y-3.2382
X1.9331Y-3.3248
X1.9331Y-3.4429
X1.9331Y-3.8673
X1.9331Y-3.9567
X1.9331Y-4.0453
X1.9331Y-4.1335
X1.9331Y-4.2224
X1.9331Y-4.3091
X1.9331Y-4.4272
X1.9331Y-4.8516
X1.9331Y-4.9409
X1.9331Y-5.0295
X1.9331Y-5.1177
X1.9331Y-5.2067
X1.9331Y-5.2933
X1.9331Y-5.4114
X2.1654Y-2.3898
X2.1654Y-2.6949
X2.1654Y-3.374
X2.1654Y-3.6791
X2.1654Y-4.3583
X2.1654Y-4.6634
X2.1654Y-5.3425
X2.1654Y-5.6476
X2.2071Y-1.9882
X2.2071Y-2.9724
X2.2071Y-3.9567
X2.2071Y-4.9409
X2.2283Y-2.2559
X2.2283Y-3.2402
X2.2283Y-4.2244
X2.2283Y-5.2087
X2.2291Y-2.6535
X2.2291Y-3.6378
X2.2291Y-4.622
X2.2291Y-5.6063
X2.2366Y-1.8988
X2.2366Y-2.8831
X2.2366Y-3.8673
X2.2366Y-4.8516
X2.2626Y-1.9457
X2.2626Y-2.9299
X2.2626Y-3.9142
X2.2626Y-4.8984
X2.2844Y-2.3327
X2.2844Y-3.3169
X2.2844Y-4.3012
X2.2844Y-5.2854
X2.3947Y-2.2077
X2.3947Y-3.1919
X2.3947Y-4.1762
X2.3947Y-5.1604
X2.4705Y-2.2303
X2.4705Y-2.4587
X2.4705Y-3.2146
X2.4705Y-3.4429
X2.4705Y-4.1988
X2.4705Y-4.4272
X2.4705Y-5.1831
X2.4705Y-5.4114
X2.5585Y-2.0132
X2.5585Y-2.9974
X2.5585Y-3.9817
X2.5585Y-4.9659
X2.6161Y-2.4016
X2.6161Y-3.3858
X2.6161Y-4.3701
X2.6161Y-5.3543
X2.6242Y-2.0175
X2.6242Y-3.0018
X2.6242Y-3.986
X2.6242Y-4.9703
X2.6673Y-2.4488
X2.6673Y-2.6929
X2.6673Y-3.4331
X2.6673Y-3.6772
X2.6673Y-4.4173
X2.6673Y-4.6614
X2.6673Y-5.4016
X2.6673Y-5.6457
X2.7165Y-2.1492
X2.7165Y-2.2303
X2.7165Y-3.1335
X2.7165Y-3.2146
X2.7165Y-4.1177
X2.7165Y-4.1988
X2.7165Y-5.102
X2.7165Y-5.1831
X2.8346Y-2.4252
X2.8346Y-3.4094
X2.8346Y-4.3937
X2.8346Y-5.378
X2.8366Y-2.5177
X2.8366Y-3.502
X2.8366Y-4.4862
X2.8366Y-5.4705
X3.035Y-1.9547
X3.035Y-2.939
X3.035Y-3.9232
X3.035Y-4.9075
X3.1295Y-2.0035
X3.1295Y-2.9878
X3.1295Y-3.972
X3.1295Y-4.9563
X3.2717Y-1.8988
X3.2717Y-1.9882
X3.2717Y-2.0768
X3.2717Y-2.165
X3.2717Y-2.2539
X3.2717Y-2.3406
X3.2717Y-2.4587
X3.2717Y-2.8831
X3.2717Y-2.9724
X3.2717Y-3.061
X3.2717Y-3.1492
X3.2717Y-3.2382
X3.2717Y-3.3248
X3.2717Y-3.4429
X3.2717Y-3.8673
X3.2717Y-3.9567
X3.2717Y-4.0453
X3.2717Y-4.1335
X3.2717Y-4.2224
X3.2717Y-4.3091
X3.2717Y-4.4272
X3.2717Y-4.8516
X3.2717Y-4.9409
X3.2717Y-5.0295
X3.2717Y-5.1177
X3.2717Y-5.2067
X3.2717Y-5.2933
X3.2717Y-5.4114
X3.5039Y-2.3898
X3.5039Y-2.6949
X3.5039Y-3.374
X3.5039Y-3.6791
X3.5039Y-4.3583
X3.5039Y-4.6634
X3.5039Y-5.3425
X3.5039Y-5.6476
X3.5457Y-1.9882
X3.5457Y-2.9724
X3.5457Y-3.9567
X3.5457Y-4.9409
X3.5669Y-2.2559
X3.5669Y-3.2402
X3.5669Y-4.2244
X3.5669Y-5.2087
X3.5677Y-2.6535
X3.5677Y-3.6378
X3.5677Y-4.622
X3.5677Y-5.6063
X3.5752Y-1.8988
X3.5752Y-2.8831
X3.5752Y-3.8673
X3.5752Y-4.8516
X3.6012Y-1.9457
X3.6012Y-2.9299
X3.6012Y-3.9142
X3.6012Y-4.8984
X3.623Y-2.3327
X3.623Y-3.3169
X3.623Y-4.3012
X3.623Y-5.2854
X3.7333Y-2.2077
X3.7333Y-3.1919
X3.7333Y-4.1762
X3.7333Y-5.1604
X3.8091Y-2.2303
X3.8091Y-2.4587
X3.8091Y-3.2146
X3.8091Y-3.4429
X3.8091Y-4.1988
X3.8091Y-4.4272
X3.8091Y-5.1831
X3.8091Y-5.4114
X3.897Y-2.0132
X3.897Y-2.9974
X3.897Y-3.9817
X3.897Y-4.9659
X3.9547Y-2.4016
X3.9547Y-3.3858
X3.9547Y-4.3701
X3.9547Y-5.3543
X3.9628Y-2.0175
X3.9628Y-3.0018
X3.9628Y-3.986
X3.9628Y-4.9703
X4.0059Y-2.4488
X4.0059Y-2.6929
X4.0059Y-3.4331
X4.0059Y-3.6772
X4.0059Y-4.4173
X4.0059Y-4.6614
X4.0059Y-5.4016
X4.0059Y-5.6457
X4.0551Y-2.1492
X4.0551Y-2.2303
X4.0551Y-3.1335
X4.0551Y-3.2146
X4.0551Y-4.1177
X4.0551Y-4.1988
X4.0551Y-5.102
X4.0551Y-5.1831
X4.1732Y-2.4252
X4.1732Y-3.4094
X4.1732Y-4.3937
X4.1732Y-5.378
X4.1752Y-2.5177
X4.1752Y-3.502
X4.1752Y-4.4862
X4.1752Y-5.4705
X4.3736Y-1.9547
X4.3736Y-2.939
X4.3736Y-3.9232
X4.3736Y-4.9075
X4.4681Y-2.0035
X4.4681Y-2.9878
X4.4681Y-3.972
X4.4681Y-4.9563
X4.6102Y-1.8988
X4.6102Y-1.9882
X4.6102Y-2.0768
X4.6102Y-2.165
X4.6102Y-2.2539
X4.6102Y-2.3406
X4.6102Y-2.4587
X4.6102Y-2.8831
X4.6102Y-2.9724
X4.6102Y-3.061
X4.6102Y-3.1492
X4.6102Y-3.2382
X4.6102Y-3.3248
X4.6102Y-3.4429
X4.6102Y-3.8673
X4.6102Y-3.9567
X4.6102Y-4.0453
X4.6102Y-4.1335
X4.6102Y-4.2224
X4.6102Y-4.3091
X4.6102Y-4.4272
X4.6102Y-4.8516
X4.6102Y-4.9409
X4.6102Y-5.0295
X4.6102Y-5.1177
X4.6102Y-5.2067
X4.6102Y-5.2933
X4.6102Y-5.4114
X4.8425Y-2.3898
X4.8425Y-2.6949
X4.8425Y-3.374
X4.8425Y-3.6791
X4.8425Y-4.3583
X4.8425Y-4.6634
X4.8425Y-5.3425
X4.8425Y-5.6476
X4.8843Y-1.9882
X4.8843Y-2.9724
X4.8843Y-3.9567
X4.8843Y-4.9409
X4.9055Y-2.2559
X4.9055Y-3.2402
X4.9055Y-4.2244
X4.9055Y-5.2087
X4.9063Y-2.6535
X4.9063Y-3.6378
X4.9063Y-4.622
X4.9063Y-5.6063
X4.9138Y-1.8988
X4.9138Y-2.8831
X4.9138Y-3.8673
X4.9138Y-4.8516
X4.9398Y-1.9457
X4.9398Y-2.9299
X4.9398Y-3.9142
X4.9398Y-4.8984
X4.9616Y-2.3327
X4.9616Y-3.3169
X4.9616Y-4.3012
X4.9616Y-5.2854
X5.0719Y-2.2077
X5.0719Y-3.1919
X5.0719Y-4.1762
X5.0719Y-5.1604
X5.1476Y-2.2303
X5.1476Y-2.4587
X5.1476Y-3.2146
X5.1476Y-3.4429
X5.1476Y-4.1988
X5.1476Y-4.4272
X5.1476Y-5.1831
X5.1476Y-5.4114
X5.2356Y-2.0132
X5.2356Y-2.9974
X5.2356Y-3.9817
X5.2356Y-4.9659
X5.2933Y-2.4016
X5.2933Y-3.3858
X5.2933Y-4.3701
X5.2933Y-5.3543
X5.3014Y-2.0175
X5.3014Y-3.0018
X5.3014Y-3.986
X5.3014Y-4.9703
X5.3445Y-2.4488
X5.3445Y-2.6929
X5.3445Y-3.4331
X5.3445Y-3.6772
X5.3445Y-4.4173
X5.3445Y-4.6614
X5.3445Y-5.4016
X5.3445Y-5.6457
X5.3937Y-2.1492
X5.3937Y-2.2303
X5.3937Y-3.1335
X5.3937Y-3.2146
X5.3937Y-4.1177
X5.3937Y-4.1988
X5.3937Y-5.102
X5.3937Y-5.1831
X5.5118Y-2.4252
X5.5118Y-3.4094
X5.5118Y-4.3937
X5.5118Y-5.378
X5.5138Y-2.5177
X5.5138Y-3.502
X5.5138Y-4.4862
X5.5138Y-5.4705
X5.7122Y-1.9547
X5.7122Y-2.939
X5.7122Y-3.9232
X5.7122Y-4.9075
X5.8067Y-2.0035
X5.8067Y-2.9878
X5.8067Y-3.972
X5.8067Y-4.9563
X5.9488Y-1.8988
X5.9488Y-1.9882
X5.9488Y-2.0768
X5.9488Y-2.165
X5.9488Y-2.2539
X5.9488Y-2.3406
X5.9488Y-2.4587
X5.9488Y-2.8831
X5.9488Y-2.9724
X5.9488Y-3.061
X5.9488Y-3.1492
X5.9488Y-3.2382
X5.9488Y-3.3248
X5.9488Y-3.4429
X5.9488Y-3.8673
X5.9488Y-3.9567
X5.9488Y-4.0453
X5.9488Y-4.1335
X5.9488Y-4.2224
X5.9488Y-4.3091
X5.9488Y-4.4272
X5.9488Y-4.8516
X5.9488Y-4.9409
X5.9488Y-5.0295
X5.9488Y-5.1177
X5.9488Y-5.2067
X5.9488Y-5.2933
X5.9488Y-5.4114
X6.1811Y-2.3898
X6.1811Y-2.6949
X6.1811Y-3.374
X6.1811Y-3.6791
X6.1811Y-4.3583
X6.1811Y-4.6634
X6.1811Y-5.3425
X6.1811Y-5.6476
X6.2228Y-1.9882
X6.2228Y-2.9724
X6.2228Y-3.9567
X6.2228Y-4.9409
X6.2441Y-2.2559
X6.2441Y-3.2402
X6.2441Y-4.2244
X6.2441Y-5.2087
X6.2449Y-2.6535
X6.2449Y-3.6378
X6.2449Y-4.622
X6.2449Y-5.6063
X6.2524Y-1.8988
X6.2524Y-2.8831
X6.2524Y-3.8673
X6.2524Y-4.8516
X6.2783Y-1.9457
X6.2783Y-2.9299
X6.2783Y-3.9142
X6.2783Y-4.8984
X6.3002Y-2.3327
X6.3002Y-3.3169
X6.3002Y-4.3012
X6.3002Y-5.2854
X6.4104Y-2.2077
X6.4104Y-3.1919
X6.4104Y-4.1762
X6.4104Y-5.1604
X6.4862Y-2.2303
X6.4862Y-2.4587
X6.4862Y-3.2146
X6.4862Y-3.4429
X6.4862Y-4.1988
X6.4862Y-4.4272
X6.4862Y-5.1831
X6.4862Y-5.4114
X6.5742Y-2.0132
X6.5742Y-2.9974
X6.5742Y-3.9817
X6.5742Y-4.9659
X6.6319Y-2.4016
X6.6319Y-3.3858
X6.6319Y-4.3701
X6.6319Y-5.3543
X6.64Y-2.0175
X6.64Y-3.0018
X6.64Y-3.986
X6.64Y-4.9703
X6.6831Y-2.4488
X6.6831Y-2.6929
X6.6831Y-3.4331
X6.6831Y-3.6772
X6.6831Y-4.4173
X6.6831Y-4.6614
X6.6831Y-5.4016
X6.6831Y-5.6457
X6.7323Y-2.1492
X6.7323Y-2.2303
X6.7323Y-3.1335
X6.7323Y-3.2146
X6.7323Y-4.1177
X6.7323Y-4.1988
X6.7323Y-5.102
X6.7323Y-5.1831
X6.8504Y-2.4252
X6.8504Y-3.4094
X6.8504Y-4.3937
X6.8504Y-5.378
X6.8524Y-2.5177
X6.8524Y-3.502
X6.8524Y-4.4862
X6.8524Y-5.4705
X7.0508Y-1.9547
X7.0508Y-2.939
X7.0508Y-3.9232
X7.0508Y-4.9075
X7.1453Y-2.0035
X7.1453Y-2.9878
X7.1453Y-3.972
X7.1453Y-4.9563
X7.2874Y-1.8988
X7.2874Y-1.9882
X7.2874Y-2.0768
X7.2874Y-2.165
X7.2874Y-2.2539
X7.2874Y-2.3406
X7.2874Y-2.4587
X7.2874Y-2.8831
X7.2874Y-2.9724
X7.2874Y-3.061
X7.2874Y-3.1492
X7.2874Y-3.2382
X7.2874Y-3.3248
X7.2874Y-3.4429
X7.2874Y-3.8673
X7.2874Y-3.9567
X7.2874Y-4.0453
X7.2874Y-4.1335
X7.2874Y-4.2224
X7.2874Y-4.3091
X7.2874Y-4.4272
X7.2874Y-4.8516
X7.2874Y-4.9409
X7.2874Y-5.0295
X7.2874Y-5.1177
X7.2874Y-5.2067
X7.2874Y-5.2933
X7.2874Y-5.4114
X7.5197Y-2.3898
X7.5197Y-2.6949
X7.5197Y-3.374
X7.5197Y-3.6791
X7.5197Y-4.3583
X7.5197Y-4.6634
X7.5197Y-5.3425
X7.5197Y-5.6476
X7.5614Y-1.9882
X7.5614Y-2.9724
X7.5614Y-3.9567
X7.5614Y-4.9409
X7.5827Y-2.2559
X7.5827Y-3.2402
X7.5827Y-4.2244
X7.5827Y-5.2087
X7.5835Y-2.6535
X7.5835Y-3.6378
X7.5835Y-4.622
X7.5835Y-5.6063
X7.5909Y-1.8988
X7.5909Y-2.8831
X7.5909Y-3.8673
X7.5909Y-4.8516
X7.6169Y-1.9457
X7.6169Y-2.9299
X7.6169Y-3.9142
X7.6169Y-4.8984
X7.6388Y-2.3327
X7.6388Y-3.3169
X7.6388Y-4.3012
X7.6388Y-5.2854
X7.749Y-2.2077
X7.749Y-3.1919
X7.749Y-4.1762
X7.749Y-5.1604
X7.8248Y-2.2303
X7.8248Y-2.4587
X7.8248Y-3.2146
X7.8248Y-3.4429
X7.8248Y-4.1988
X7.8248Y-4.4272
X7.8248Y-5.1831
X7.8248Y-5.4114
X7.9128Y-2.0132
X7.9128Y-2.9974
X7.9128Y-3.9817
X7.9128Y-4.9659
X7.9705Y-2.4016
X7.9705Y-3.3858
X7.9705Y-4.3701
X7.9705Y-5.3543
X7.9785Y-2.0175
X7.9785Y-3.0018
X7.9785Y-3.986
X7.9785Y-4.9703
X8.0217Y-2.4488
X8.0217Y-2.6929
X8.0217Y-3.4331
X8.0217Y-3.6772
X8.0217Y-4.4173
X8.0217Y-4.6614
X8.0217Y-5.4016
X8.0217Y-5.6457
X8.0709Y-2.1492
X8.0709Y-2.2303
X8.0709Y-3.1335
X8.0709Y-3.2146
X8.0709Y-4.1177
X8.0709Y-4.1988
X8.0709Y-5.102
X8.0709Y-5.1831
X8.189Y-2.4252
X8.189Y-3.4094
X8.189Y-4.3937
X8.189Y-5.378
X8.1909Y-2.5177
X8.1909Y-3.502
X8.1909Y-4.4862
X8.1909Y-5.4705
T2
X2.03Y-2.46
X2.03Y-2.5584
X2.03Y-3.4443
X2.03Y-3.5427
X2.03Y-4.4285
X2.03Y-4.5269
X2.03Y-5.4128
X2.03Y-5.5112
X3.3686Y-2.46
X3.3686Y-2.5584
X3.3686Y-3.4443
X3.3686Y-3.5427
X3.3686Y-4.4285
X3.3686Y-4.5269
X3.3686Y-5.4128
X3.3686Y-5.5112
X4.7072Y-2.46
X4.7072Y-2.5584
X4.7072Y-3.4443
X4.7072Y-3.5427
X4.7072Y-4.4285
X4.7072Y-4.5269
X4.7072Y-5.4128
X4.7072Y-5.5112
X6.0457Y-2.46
X6.0457Y-2.5584
X6.0457Y-3.4443
X6.0457Y-3.5427
X6.0457Y-4.4285
X6.0457Y-4.5269
X6.0457Y-5.4128
X6.0457Y-5.5112
X7.3843Y-2.46
X7.3843Y-2.5584
X7.3843Y-3.4443
X7.3843Y-3.5427
X7.3843Y-4.4285
X7.3843Y-4.5269
X7.3843Y-5.4128
X7.3843Y-5.5112
T3
X2.4705Y-2.5984
X2.4705Y-3.5827
X2.4705Y-4.5669
X2.4705Y-5.5512
X2.5689Y-2.5984
X2.5689Y-3.5827
X2.5689Y-4.5669
X2.5689Y-5.5512
X2.6673Y-2.5984
X2.6673Y-3.5827
X2.6673Y-4.5669
X2.6673Y-5.5512
X2.7657Y-2.5984
X2.7657Y-3.5827
X2.7657Y-4.5669
X2.7657Y-5.5512
X3.8091Y-2.5984
X3.8091Y-3.5827
X3.8091Y-4.5669
X3.8091Y-5.5512
X3.9075Y-2.5984
X3.9075Y-3.5827
X3.9075Y-4.5669
X3.9075Y-5.5512
X4.0059Y-2.5984
X4.0059Y-3.5827
X4.0059Y-4.5669
X4.0059Y-5.5512
X4.1043Y-2.5984
X4.1043Y-3.5827
X4.1043Y-4.5669
X4.1043Y-5.5512
X5.1476Y-2.5984
X5.1476Y-3.5827
X5.1476Y-4.5669
X5.1476Y-5.5512
X5.2461Y-2.5984
X5.2461Y-3.5827
X5.2461Y-4.5669
X5.2461Y-5.5512
X5.3445Y-2.5984
X5.3445Y-3.5827
X5.3445Y-4.5669
X5.3445Y-5.5512
X5.4429Y-2.5984
X5.4429Y-3.5827
X5.4429Y-4.5669
X5.4429Y-5.5512
X6.4862Y-2.5984
X6.4862Y-3.5827
X6.4862Y-4.5669
X6.4862Y-5.5512
X6.5846Y-2.5984
X6.5846Y-3.5827
X6.5846Y-4.5669
X6.5846Y-5.5512
X6.6831Y-2.5984
X6.6831Y-3.5827
X6.6831Y-4.5669
X6.6831Y-5.5512
X6.7815Y-2.5984
X6.7815Y-3.5827
X6.7815Y-4.5669
X6.7815Y-5.5512
X7.8248Y-2.5984
X7.8248Y-3.5827
X7.8248Y-4.5669
X7.8248Y-5.5512
X7.9232Y-2.5984
X7.9232Y-3.5827
X7.9232Y-4.5669
X7.9232Y-5.5512
X8.0217Y-2.5984
X8.0217Y-3.5827
X8.0217Y-4.5669
X8.0217Y-5.5512
X8.1201Y-2.5984
X8.1201Y-3.5827
X8.1201Y-4.5669
X8.1201Y-5.5512
T4
G00X2.4783Y-1.8583
M15
G01X2.7146Y-1.8583
M16
G05
G00X2.4783Y-2.8425
M15
G01X2.7146Y-2.8425
M16
G05
G00X2.4783Y-3.8268
M15
G01X2.7146Y-3.8268
M16
G05
G00X2.4783Y-4.811
M15
G01X2.7146Y-4.811
M16
G05
G00X3.8169Y-1.8583
M15
G01X4.0531Y-1.8583
M16
G05
G00X3.8169Y-2.8425
M15
G01X4.0531Y-2.8425
M16
G05
G00X3.8169Y-3.8268
M15
G01X4.0531Y-3.8268
M16
G05
G00X3.8169Y-4.811
M15
G01X4.0531Y-4.811
M16
G05
G00X5.1555Y-1.8583
M15
G01X5.3917Y-1.8583
M16
G05
G00X5.1555Y-2.8425
M15
G01X5.3917Y-2.8425
M16
G05
G00X5.1555Y-3.8268
M15
G01X5.3917Y-3.8268
M16
G05
G00X5.1555Y-4.811
M15
G01X5.3917Y-4.811
M16
G05
G00X6.4941Y-1.8583
M15
G01X6.7303Y-1.8583
M16
G05
G00X6.4941Y-2.8425
M15
G01X6.7303Y-2.8425
M16
G05
G00X6.4941Y-3.8268
M15
G01X6.7303Y-3.8268
M16
G05
G00X6.4941Y-4.811
M15
G01X6.7303Y-4.811
M16
G05
G00X7.8327Y-1.8583
M15
G01X8.0689Y-1.8583
M16
G05
G00X7.8327Y-2.8425
M15
G01X8.0689Y-2.8425
M16
G05
G00X7.8327Y-3.8268
M15
G01X8.0689Y-3.8268
M16
G05
G00X7.8327Y-4.811
M15
G01X8.0689Y-4.811
M16
G05
M30
