%TF.GenerationSoftware,KiCad,Pcbnew,8.0.4*%
%TF.CreationDate,2024-11-04T15:17:51+09:00*%
%TF.ProjectId,L-CON RS485 V2.0,4c2d434f-4e20-4525-9334-38352056322e,rev?*%
%TF.SameCoordinates,Original*%
%TF.FileFunction,Soldermask,Bot*%
%TF.FilePolarity,Negative*%
%FSLAX46Y46*%
G04 Gerber Fmt 4.6, Leading zero omitted, Abs format (unit mm)*
G04 Created by KiCad (PCBNEW 8.0.4) date 2024-11-04 15:17:51*
%MOMM*%
%LPD*%
G01*
G04 APERTURE LIST*
G04 Aperture macros list*
%AMRoundRect*
0 Rectangle with rounded corners*
0 $1 Rounding radius*
0 $2 $3 $4 $5 $6 $7 $8 $9 X,Y pos of 4 corners*
0 Add a 4 corners polygon primitive as box body*
4,1,4,$2,$3,$4,$5,$6,$7,$8,$9,$2,$3,0*
0 Add four circle primitives for the rounded corners*
1,1,$1+$1,$2,$3*
1,1,$1+$1,$4,$5*
1,1,$1+$1,$6,$7*
1,1,$1+$1,$8,$9*
0 Add four rect primitives between the rounded corners*
20,1,$1+$1,$2,$3,$4,$5,0*
20,1,$1+$1,$4,$5,$6,$7,0*
20,1,$1+$1,$6,$7,$8,$9,0*
20,1,$1+$1,$8,$9,$2,$3,0*%
G04 Aperture macros list end*
%ADD10RoundRect,0.325000X0.325000X0.325000X-0.325000X0.325000X-0.325000X-0.325000X0.325000X-0.325000X0*%
%ADD11RoundRect,0.249900X-0.600100X-0.675100X0.600100X-0.675100X0.600100X0.675100X-0.600100X0.675100X0*%
%ADD12O,1.700000X1.850000*%
%ADD13RoundRect,0.312500X-0.312500X0.437500X-0.312500X-0.437500X0.312500X-0.437500X0.312500X0.437500X0*%
%ADD14RoundRect,0.312500X0.437500X0.312500X-0.437500X0.312500X-0.437500X-0.312500X0.437500X-0.312500X0*%
%ADD15RoundRect,0.325000X-0.325000X-0.325000X0.325000X-0.325000X0.325000X0.325000X-0.325000X0.325000X0*%
%ADD16R,1.600000X1.600000*%
%ADD17C,1.600000*%
%ADD18O,12.000000X5.000000*%
G04 APERTURE END LIST*
D10*
%TO.C,R44*%
X191000000Y-134500000D03*
X188700000Y-134500000D03*
%TD*%
%TO.C,R43*%
X191000000Y-130000000D03*
X188700000Y-130000000D03*
%TD*%
D11*
%TO.C,J11*%
X198750000Y-141000000D03*
D12*
X201250000Y-141000000D03*
X203750000Y-141000000D03*
X206250000Y-141000000D03*
%TD*%
D10*
%TO.C,R42*%
X191000000Y-127750000D03*
X188700000Y-127750000D03*
%TD*%
%TO.C,R45*%
X205900000Y-138450000D03*
X203600000Y-138450000D03*
%TD*%
D13*
%TO.C,C5*%
X178900000Y-131700000D03*
X178900000Y-134100000D03*
%TD*%
D14*
%TO.C,C1*%
X183500000Y-137450000D03*
X181100000Y-137450000D03*
%TD*%
D10*
%TO.C,R41*%
X191000000Y-125500000D03*
X188700000Y-125500000D03*
%TD*%
D15*
%TO.C,R46*%
X188700000Y-132250000D03*
X191000000Y-132250000D03*
%TD*%
D13*
%TO.C,C4*%
X181150000Y-131700000D03*
X181150000Y-134100000D03*
%TD*%
D15*
%TO.C,R10*%
X188680000Y-123230000D03*
X190980000Y-123230000D03*
%TD*%
D13*
%TO.C,C2*%
X183400000Y-131700000D03*
X183400000Y-134100000D03*
%TD*%
%TO.C,C6*%
X176650000Y-131700000D03*
X176650000Y-134100000D03*
%TD*%
D16*
%TO.C,C7*%
X187562000Y-137484000D03*
D17*
X187562000Y-139984000D03*
%TD*%
D18*
%TO.C,J3*%
X201950000Y-122200000D03*
%TD*%
D10*
%TO.C,R44*%
X157000000Y-134500000D03*
X154700000Y-134500000D03*
%TD*%
%TO.C,R43*%
X157000000Y-130000000D03*
X154700000Y-130000000D03*
%TD*%
D11*
%TO.C,J11*%
X164750000Y-141000000D03*
D12*
X167250000Y-141000000D03*
X169750000Y-141000000D03*
X172250000Y-141000000D03*
%TD*%
D10*
%TO.C,R42*%
X157000000Y-127750000D03*
X154700000Y-127750000D03*
%TD*%
%TO.C,R45*%
X171900000Y-138450000D03*
X169600000Y-138450000D03*
%TD*%
D13*
%TO.C,C5*%
X144900000Y-131700000D03*
X144900000Y-134100000D03*
%TD*%
D14*
%TO.C,C1*%
X149500000Y-137450000D03*
X147100000Y-137450000D03*
%TD*%
D10*
%TO.C,R41*%
X157000000Y-125500000D03*
X154700000Y-125500000D03*
%TD*%
D15*
%TO.C,R46*%
X154700000Y-132250000D03*
X157000000Y-132250000D03*
%TD*%
D13*
%TO.C,C4*%
X147150000Y-131700000D03*
X147150000Y-134100000D03*
%TD*%
D15*
%TO.C,R10*%
X154680000Y-123230000D03*
X156980000Y-123230000D03*
%TD*%
D13*
%TO.C,C2*%
X149400000Y-131700000D03*
X149400000Y-134100000D03*
%TD*%
%TO.C,C6*%
X142650000Y-131700000D03*
X142650000Y-134100000D03*
%TD*%
D16*
%TO.C,C7*%
X153562000Y-137484000D03*
D17*
X153562000Y-139984000D03*
%TD*%
D18*
%TO.C,J3*%
X167950000Y-122200000D03*
%TD*%
D10*
%TO.C,R44*%
X123000000Y-134500000D03*
X120700000Y-134500000D03*
%TD*%
%TO.C,R43*%
X123000000Y-130000000D03*
X120700000Y-130000000D03*
%TD*%
D11*
%TO.C,J11*%
X130750000Y-141000000D03*
D12*
X133250000Y-141000000D03*
X135750000Y-141000000D03*
X138250000Y-141000000D03*
%TD*%
D10*
%TO.C,R42*%
X123000000Y-127750000D03*
X120700000Y-127750000D03*
%TD*%
%TO.C,R45*%
X137900000Y-138450000D03*
X135600000Y-138450000D03*
%TD*%
D13*
%TO.C,C5*%
X110900000Y-131700000D03*
X110900000Y-134100000D03*
%TD*%
D14*
%TO.C,C1*%
X115500000Y-137450000D03*
X113100000Y-137450000D03*
%TD*%
D10*
%TO.C,R41*%
X123000000Y-125500000D03*
X120700000Y-125500000D03*
%TD*%
D15*
%TO.C,R46*%
X120700000Y-132250000D03*
X123000000Y-132250000D03*
%TD*%
D13*
%TO.C,C4*%
X113150000Y-131700000D03*
X113150000Y-134100000D03*
%TD*%
D15*
%TO.C,R10*%
X120680000Y-123230000D03*
X122980000Y-123230000D03*
%TD*%
D13*
%TO.C,C2*%
X115400000Y-131700000D03*
X115400000Y-134100000D03*
%TD*%
%TO.C,C6*%
X108650000Y-131700000D03*
X108650000Y-134100000D03*
%TD*%
D16*
%TO.C,C7*%
X119562000Y-137484000D03*
D17*
X119562000Y-139984000D03*
%TD*%
D18*
%TO.C,J3*%
X133950000Y-122200000D03*
%TD*%
D10*
%TO.C,R44*%
X89000000Y-134500000D03*
X86700000Y-134500000D03*
%TD*%
%TO.C,R43*%
X89000000Y-130000000D03*
X86700000Y-130000000D03*
%TD*%
D11*
%TO.C,J11*%
X96750000Y-141000000D03*
D12*
X99250000Y-141000000D03*
X101750000Y-141000000D03*
X104250000Y-141000000D03*
%TD*%
D10*
%TO.C,R42*%
X89000000Y-127750000D03*
X86700000Y-127750000D03*
%TD*%
%TO.C,R45*%
X103900000Y-138450000D03*
X101600000Y-138450000D03*
%TD*%
D13*
%TO.C,C5*%
X76900000Y-131700000D03*
X76900000Y-134100000D03*
%TD*%
D14*
%TO.C,C1*%
X81500000Y-137450000D03*
X79100000Y-137450000D03*
%TD*%
D10*
%TO.C,R41*%
X89000000Y-125500000D03*
X86700000Y-125500000D03*
%TD*%
D15*
%TO.C,R46*%
X86700000Y-132250000D03*
X89000000Y-132250000D03*
%TD*%
D13*
%TO.C,C4*%
X79150000Y-131700000D03*
X79150000Y-134100000D03*
%TD*%
D15*
%TO.C,R10*%
X86680000Y-123230000D03*
X88980000Y-123230000D03*
%TD*%
D13*
%TO.C,C2*%
X81400000Y-131700000D03*
X81400000Y-134100000D03*
%TD*%
%TO.C,C6*%
X74650000Y-131700000D03*
X74650000Y-134100000D03*
%TD*%
D16*
%TO.C,C7*%
X85562000Y-137484000D03*
D17*
X85562000Y-139984000D03*
%TD*%
D18*
%TO.C,J3*%
X99950000Y-122200000D03*
%TD*%
D10*
%TO.C,R44*%
X55000000Y-134500000D03*
X52700000Y-134500000D03*
%TD*%
%TO.C,R43*%
X55000000Y-130000000D03*
X52700000Y-130000000D03*
%TD*%
D11*
%TO.C,J11*%
X62750000Y-141000000D03*
D12*
X65250000Y-141000000D03*
X67750000Y-141000000D03*
X70250000Y-141000000D03*
%TD*%
D10*
%TO.C,R42*%
X55000000Y-127750000D03*
X52700000Y-127750000D03*
%TD*%
%TO.C,R45*%
X69900000Y-138450000D03*
X67600000Y-138450000D03*
%TD*%
D13*
%TO.C,C5*%
X42900000Y-131700000D03*
X42900000Y-134100000D03*
%TD*%
D14*
%TO.C,C1*%
X47500000Y-137450000D03*
X45100000Y-137450000D03*
%TD*%
D10*
%TO.C,R41*%
X55000000Y-125500000D03*
X52700000Y-125500000D03*
%TD*%
D15*
%TO.C,R46*%
X52700000Y-132250000D03*
X55000000Y-132250000D03*
%TD*%
D13*
%TO.C,C4*%
X45150000Y-131700000D03*
X45150000Y-134100000D03*
%TD*%
D15*
%TO.C,R10*%
X52680000Y-123230000D03*
X54980000Y-123230000D03*
%TD*%
D13*
%TO.C,C2*%
X47400000Y-131700000D03*
X47400000Y-134100000D03*
%TD*%
%TO.C,C6*%
X40650000Y-131700000D03*
X40650000Y-134100000D03*
%TD*%
D16*
%TO.C,C7*%
X51562000Y-137484000D03*
D17*
X51562000Y-139984000D03*
%TD*%
D18*
%TO.C,J3*%
X65950000Y-122200000D03*
%TD*%
D10*
%TO.C,R44*%
X191000000Y-109500000D03*
X188700000Y-109500000D03*
%TD*%
%TO.C,R43*%
X191000000Y-105000000D03*
X188700000Y-105000000D03*
%TD*%
D11*
%TO.C,J11*%
X198750000Y-116000000D03*
D12*
X201250000Y-116000000D03*
X203750000Y-116000000D03*
X206250000Y-116000000D03*
%TD*%
D10*
%TO.C,R42*%
X191000000Y-102750000D03*
X188700000Y-102750000D03*
%TD*%
%TO.C,R45*%
X205900000Y-113450000D03*
X203600000Y-113450000D03*
%TD*%
D13*
%TO.C,C5*%
X178900000Y-106700000D03*
X178900000Y-109100000D03*
%TD*%
D14*
%TO.C,C1*%
X183500000Y-112450000D03*
X181100000Y-112450000D03*
%TD*%
D10*
%TO.C,R41*%
X191000000Y-100500000D03*
X188700000Y-100500000D03*
%TD*%
D15*
%TO.C,R46*%
X188700000Y-107250000D03*
X191000000Y-107250000D03*
%TD*%
D13*
%TO.C,C4*%
X181150000Y-106700000D03*
X181150000Y-109100000D03*
%TD*%
D15*
%TO.C,R10*%
X188680000Y-98230000D03*
X190980000Y-98230000D03*
%TD*%
D13*
%TO.C,C2*%
X183400000Y-106700000D03*
X183400000Y-109100000D03*
%TD*%
%TO.C,C6*%
X176650000Y-106700000D03*
X176650000Y-109100000D03*
%TD*%
D16*
%TO.C,C7*%
X187562000Y-112484000D03*
D17*
X187562000Y-114984000D03*
%TD*%
D18*
%TO.C,J3*%
X201950000Y-97200000D03*
%TD*%
D10*
%TO.C,R44*%
X157000000Y-109500000D03*
X154700000Y-109500000D03*
%TD*%
%TO.C,R43*%
X157000000Y-105000000D03*
X154700000Y-105000000D03*
%TD*%
D11*
%TO.C,J11*%
X164750000Y-116000000D03*
D12*
X167250000Y-116000000D03*
X169750000Y-116000000D03*
X172250000Y-116000000D03*
%TD*%
D10*
%TO.C,R42*%
X157000000Y-102750000D03*
X154700000Y-102750000D03*
%TD*%
%TO.C,R45*%
X171900000Y-113450000D03*
X169600000Y-113450000D03*
%TD*%
D13*
%TO.C,C5*%
X144900000Y-106700000D03*
X144900000Y-109100000D03*
%TD*%
D14*
%TO.C,C1*%
X149500000Y-112450000D03*
X147100000Y-112450000D03*
%TD*%
D10*
%TO.C,R41*%
X157000000Y-100500000D03*
X154700000Y-100500000D03*
%TD*%
D15*
%TO.C,R46*%
X154700000Y-107250000D03*
X157000000Y-107250000D03*
%TD*%
D13*
%TO.C,C4*%
X147150000Y-106700000D03*
X147150000Y-109100000D03*
%TD*%
D15*
%TO.C,R10*%
X154680000Y-98230000D03*
X156980000Y-98230000D03*
%TD*%
D13*
%TO.C,C2*%
X149400000Y-106700000D03*
X149400000Y-109100000D03*
%TD*%
%TO.C,C6*%
X142650000Y-106700000D03*
X142650000Y-109100000D03*
%TD*%
D16*
%TO.C,C7*%
X153562000Y-112484000D03*
D17*
X153562000Y-114984000D03*
%TD*%
D18*
%TO.C,J3*%
X167950000Y-97200000D03*
%TD*%
D10*
%TO.C,R44*%
X123000000Y-109500000D03*
X120700000Y-109500000D03*
%TD*%
%TO.C,R43*%
X123000000Y-105000000D03*
X120700000Y-105000000D03*
%TD*%
D11*
%TO.C,J11*%
X130750000Y-116000000D03*
D12*
X133250000Y-116000000D03*
X135750000Y-116000000D03*
X138250000Y-116000000D03*
%TD*%
D10*
%TO.C,R42*%
X123000000Y-102750000D03*
X120700000Y-102750000D03*
%TD*%
%TO.C,R45*%
X137900000Y-113450000D03*
X135600000Y-113450000D03*
%TD*%
D13*
%TO.C,C5*%
X110900000Y-106700000D03*
X110900000Y-109100000D03*
%TD*%
D14*
%TO.C,C1*%
X115500000Y-112450000D03*
X113100000Y-112450000D03*
%TD*%
D10*
%TO.C,R41*%
X123000000Y-100500000D03*
X120700000Y-100500000D03*
%TD*%
D15*
%TO.C,R46*%
X120700000Y-107250000D03*
X123000000Y-107250000D03*
%TD*%
D13*
%TO.C,C4*%
X113150000Y-106700000D03*
X113150000Y-109100000D03*
%TD*%
D15*
%TO.C,R10*%
X120680000Y-98230000D03*
X122980000Y-98230000D03*
%TD*%
D13*
%TO.C,C2*%
X115400000Y-106700000D03*
X115400000Y-109100000D03*
%TD*%
%TO.C,C6*%
X108650000Y-106700000D03*
X108650000Y-109100000D03*
%TD*%
D16*
%TO.C,C7*%
X119562000Y-112484000D03*
D17*
X119562000Y-114984000D03*
%TD*%
D18*
%TO.C,J3*%
X133950000Y-97200000D03*
%TD*%
D10*
%TO.C,R44*%
X89000000Y-109500000D03*
X86700000Y-109500000D03*
%TD*%
%TO.C,R43*%
X89000000Y-105000000D03*
X86700000Y-105000000D03*
%TD*%
D11*
%TO.C,J11*%
X96750000Y-116000000D03*
D12*
X99250000Y-116000000D03*
X101750000Y-116000000D03*
X104250000Y-116000000D03*
%TD*%
D10*
%TO.C,R42*%
X89000000Y-102750000D03*
X86700000Y-102750000D03*
%TD*%
%TO.C,R45*%
X103900000Y-113450000D03*
X101600000Y-113450000D03*
%TD*%
D13*
%TO.C,C5*%
X76900000Y-106700000D03*
X76900000Y-109100000D03*
%TD*%
D14*
%TO.C,C1*%
X81500000Y-112450000D03*
X79100000Y-112450000D03*
%TD*%
D10*
%TO.C,R41*%
X89000000Y-100500000D03*
X86700000Y-100500000D03*
%TD*%
D15*
%TO.C,R46*%
X86700000Y-107250000D03*
X89000000Y-107250000D03*
%TD*%
D13*
%TO.C,C4*%
X79150000Y-106700000D03*
X79150000Y-109100000D03*
%TD*%
D15*
%TO.C,R10*%
X86680000Y-98230000D03*
X88980000Y-98230000D03*
%TD*%
D13*
%TO.C,C2*%
X81400000Y-106700000D03*
X81400000Y-109100000D03*
%TD*%
%TO.C,C6*%
X74650000Y-106700000D03*
X74650000Y-109100000D03*
%TD*%
D16*
%TO.C,C7*%
X85562000Y-112484000D03*
D17*
X85562000Y-114984000D03*
%TD*%
D18*
%TO.C,J3*%
X99950000Y-97200000D03*
%TD*%
D10*
%TO.C,R44*%
X55000000Y-109500000D03*
X52700000Y-109500000D03*
%TD*%
%TO.C,R43*%
X55000000Y-105000000D03*
X52700000Y-105000000D03*
%TD*%
D11*
%TO.C,J11*%
X62750000Y-116000000D03*
D12*
X65250000Y-116000000D03*
X67750000Y-116000000D03*
X70250000Y-116000000D03*
%TD*%
D10*
%TO.C,R42*%
X55000000Y-102750000D03*
X52700000Y-102750000D03*
%TD*%
%TO.C,R45*%
X69900000Y-113450000D03*
X67600000Y-113450000D03*
%TD*%
D13*
%TO.C,C5*%
X42900000Y-106700000D03*
X42900000Y-109100000D03*
%TD*%
D14*
%TO.C,C1*%
X47500000Y-112450000D03*
X45100000Y-112450000D03*
%TD*%
D10*
%TO.C,R41*%
X55000000Y-100500000D03*
X52700000Y-100500000D03*
%TD*%
D15*
%TO.C,R46*%
X52700000Y-107250000D03*
X55000000Y-107250000D03*
%TD*%
D13*
%TO.C,C4*%
X45150000Y-106700000D03*
X45150000Y-109100000D03*
%TD*%
D15*
%TO.C,R10*%
X52680000Y-98230000D03*
X54980000Y-98230000D03*
%TD*%
D13*
%TO.C,C2*%
X47400000Y-106700000D03*
X47400000Y-109100000D03*
%TD*%
%TO.C,C6*%
X40650000Y-106700000D03*
X40650000Y-109100000D03*
%TD*%
D16*
%TO.C,C7*%
X51562000Y-112484000D03*
D17*
X51562000Y-114984000D03*
%TD*%
D18*
%TO.C,J3*%
X65950000Y-97200000D03*
%TD*%
D10*
%TO.C,R44*%
X191000000Y-84500000D03*
X188700000Y-84500000D03*
%TD*%
%TO.C,R43*%
X191000000Y-80000000D03*
X188700000Y-80000000D03*
%TD*%
D11*
%TO.C,J11*%
X198750000Y-91000000D03*
D12*
X201250000Y-91000000D03*
X203750000Y-91000000D03*
X206250000Y-91000000D03*
%TD*%
D10*
%TO.C,R42*%
X191000000Y-77750000D03*
X188700000Y-77750000D03*
%TD*%
%TO.C,R45*%
X205900000Y-88450000D03*
X203600000Y-88450000D03*
%TD*%
D13*
%TO.C,C5*%
X178900000Y-81700000D03*
X178900000Y-84100000D03*
%TD*%
D14*
%TO.C,C1*%
X183500000Y-87450000D03*
X181100000Y-87450000D03*
%TD*%
D10*
%TO.C,R41*%
X191000000Y-75500000D03*
X188700000Y-75500000D03*
%TD*%
D15*
%TO.C,R46*%
X188700000Y-82250000D03*
X191000000Y-82250000D03*
%TD*%
D13*
%TO.C,C4*%
X181150000Y-81700000D03*
X181150000Y-84100000D03*
%TD*%
D15*
%TO.C,R10*%
X188680000Y-73230000D03*
X190980000Y-73230000D03*
%TD*%
D13*
%TO.C,C2*%
X183400000Y-81700000D03*
X183400000Y-84100000D03*
%TD*%
%TO.C,C6*%
X176650000Y-81700000D03*
X176650000Y-84100000D03*
%TD*%
D16*
%TO.C,C7*%
X187562000Y-87484000D03*
D17*
X187562000Y-89984000D03*
%TD*%
D18*
%TO.C,J3*%
X201950000Y-72200000D03*
%TD*%
D10*
%TO.C,R44*%
X157000000Y-84500000D03*
X154700000Y-84500000D03*
%TD*%
%TO.C,R43*%
X157000000Y-80000000D03*
X154700000Y-80000000D03*
%TD*%
D11*
%TO.C,J11*%
X164750000Y-91000000D03*
D12*
X167250000Y-91000000D03*
X169750000Y-91000000D03*
X172250000Y-91000000D03*
%TD*%
D10*
%TO.C,R42*%
X157000000Y-77750000D03*
X154700000Y-77750000D03*
%TD*%
%TO.C,R45*%
X171900000Y-88450000D03*
X169600000Y-88450000D03*
%TD*%
D13*
%TO.C,C5*%
X144900000Y-81700000D03*
X144900000Y-84100000D03*
%TD*%
D14*
%TO.C,C1*%
X149500000Y-87450000D03*
X147100000Y-87450000D03*
%TD*%
D10*
%TO.C,R41*%
X157000000Y-75500000D03*
X154700000Y-75500000D03*
%TD*%
D15*
%TO.C,R46*%
X154700000Y-82250000D03*
X157000000Y-82250000D03*
%TD*%
D13*
%TO.C,C4*%
X147150000Y-81700000D03*
X147150000Y-84100000D03*
%TD*%
D15*
%TO.C,R10*%
X154680000Y-73230000D03*
X156980000Y-73230000D03*
%TD*%
D13*
%TO.C,C2*%
X149400000Y-81700000D03*
X149400000Y-84100000D03*
%TD*%
%TO.C,C6*%
X142650000Y-81700000D03*
X142650000Y-84100000D03*
%TD*%
D16*
%TO.C,C7*%
X153562000Y-87484000D03*
D17*
X153562000Y-89984000D03*
%TD*%
D18*
%TO.C,J3*%
X167950000Y-72200000D03*
%TD*%
D10*
%TO.C,R44*%
X123000000Y-84500000D03*
X120700000Y-84500000D03*
%TD*%
%TO.C,R43*%
X123000000Y-80000000D03*
X120700000Y-80000000D03*
%TD*%
D11*
%TO.C,J11*%
X130750000Y-91000000D03*
D12*
X133250000Y-91000000D03*
X135750000Y-91000000D03*
X138250000Y-91000000D03*
%TD*%
D10*
%TO.C,R42*%
X123000000Y-77750000D03*
X120700000Y-77750000D03*
%TD*%
%TO.C,R45*%
X137900000Y-88450000D03*
X135600000Y-88450000D03*
%TD*%
D13*
%TO.C,C5*%
X110900000Y-81700000D03*
X110900000Y-84100000D03*
%TD*%
D14*
%TO.C,C1*%
X115500000Y-87450000D03*
X113100000Y-87450000D03*
%TD*%
D10*
%TO.C,R41*%
X123000000Y-75500000D03*
X120700000Y-75500000D03*
%TD*%
D15*
%TO.C,R46*%
X120700000Y-82250000D03*
X123000000Y-82250000D03*
%TD*%
D13*
%TO.C,C4*%
X113150000Y-81700000D03*
X113150000Y-84100000D03*
%TD*%
D15*
%TO.C,R10*%
X120680000Y-73230000D03*
X122980000Y-73230000D03*
%TD*%
D13*
%TO.C,C2*%
X115400000Y-81700000D03*
X115400000Y-84100000D03*
%TD*%
%TO.C,C6*%
X108650000Y-81700000D03*
X108650000Y-84100000D03*
%TD*%
D16*
%TO.C,C7*%
X119562000Y-87484000D03*
D17*
X119562000Y-89984000D03*
%TD*%
D18*
%TO.C,J3*%
X133950000Y-72200000D03*
%TD*%
D10*
%TO.C,R44*%
X89000000Y-84500000D03*
X86700000Y-84500000D03*
%TD*%
%TO.C,R43*%
X89000000Y-80000000D03*
X86700000Y-80000000D03*
%TD*%
D11*
%TO.C,J11*%
X96750000Y-91000000D03*
D12*
X99250000Y-91000000D03*
X101750000Y-91000000D03*
X104250000Y-91000000D03*
%TD*%
D10*
%TO.C,R42*%
X89000000Y-77750000D03*
X86700000Y-77750000D03*
%TD*%
%TO.C,R45*%
X103900000Y-88450000D03*
X101600000Y-88450000D03*
%TD*%
D13*
%TO.C,C5*%
X76900000Y-81700000D03*
X76900000Y-84100000D03*
%TD*%
D14*
%TO.C,C1*%
X81500000Y-87450000D03*
X79100000Y-87450000D03*
%TD*%
D10*
%TO.C,R41*%
X89000000Y-75500000D03*
X86700000Y-75500000D03*
%TD*%
D15*
%TO.C,R46*%
X86700000Y-82250000D03*
X89000000Y-82250000D03*
%TD*%
D13*
%TO.C,C4*%
X79150000Y-81700000D03*
X79150000Y-84100000D03*
%TD*%
D15*
%TO.C,R10*%
X86680000Y-73230000D03*
X88980000Y-73230000D03*
%TD*%
D13*
%TO.C,C2*%
X81400000Y-81700000D03*
X81400000Y-84100000D03*
%TD*%
%TO.C,C6*%
X74650000Y-81700000D03*
X74650000Y-84100000D03*
%TD*%
D16*
%TO.C,C7*%
X85562000Y-87484000D03*
D17*
X85562000Y-89984000D03*
%TD*%
D18*
%TO.C,J3*%
X99950000Y-72200000D03*
%TD*%
D10*
%TO.C,R44*%
X55000000Y-84500000D03*
X52700000Y-84500000D03*
%TD*%
%TO.C,R43*%
X55000000Y-80000000D03*
X52700000Y-80000000D03*
%TD*%
D11*
%TO.C,J11*%
X62750000Y-91000000D03*
D12*
X65250000Y-91000000D03*
X67750000Y-91000000D03*
X70250000Y-91000000D03*
%TD*%
D10*
%TO.C,R42*%
X55000000Y-77750000D03*
X52700000Y-77750000D03*
%TD*%
%TO.C,R45*%
X69900000Y-88450000D03*
X67600000Y-88450000D03*
%TD*%
D13*
%TO.C,C5*%
X42900000Y-81700000D03*
X42900000Y-84100000D03*
%TD*%
D14*
%TO.C,C1*%
X47500000Y-87450000D03*
X45100000Y-87450000D03*
%TD*%
D10*
%TO.C,R41*%
X55000000Y-75500000D03*
X52700000Y-75500000D03*
%TD*%
D15*
%TO.C,R46*%
X52700000Y-82250000D03*
X55000000Y-82250000D03*
%TD*%
D13*
%TO.C,C4*%
X45150000Y-81700000D03*
X45150000Y-84100000D03*
%TD*%
D15*
%TO.C,R10*%
X52680000Y-73230000D03*
X54980000Y-73230000D03*
%TD*%
D13*
%TO.C,C2*%
X47400000Y-81700000D03*
X47400000Y-84100000D03*
%TD*%
%TO.C,C6*%
X40650000Y-81700000D03*
X40650000Y-84100000D03*
%TD*%
D16*
%TO.C,C7*%
X51562000Y-87484000D03*
D17*
X51562000Y-89984000D03*
%TD*%
D18*
%TO.C,J3*%
X65950000Y-72200000D03*
%TD*%
D10*
%TO.C,R44*%
X191000000Y-59500000D03*
X188700000Y-59500000D03*
%TD*%
%TO.C,R43*%
X191000000Y-55000000D03*
X188700000Y-55000000D03*
%TD*%
D11*
%TO.C,J11*%
X198750000Y-66000000D03*
D12*
X201250000Y-66000000D03*
X203750000Y-66000000D03*
X206250000Y-66000000D03*
%TD*%
D10*
%TO.C,R42*%
X191000000Y-52750000D03*
X188700000Y-52750000D03*
%TD*%
%TO.C,R45*%
X205900000Y-63450000D03*
X203600000Y-63450000D03*
%TD*%
D13*
%TO.C,C5*%
X178900000Y-56700000D03*
X178900000Y-59100000D03*
%TD*%
D14*
%TO.C,C1*%
X183500000Y-62450000D03*
X181100000Y-62450000D03*
%TD*%
D10*
%TO.C,R41*%
X191000000Y-50500000D03*
X188700000Y-50500000D03*
%TD*%
D15*
%TO.C,R46*%
X188700000Y-57250000D03*
X191000000Y-57250000D03*
%TD*%
D13*
%TO.C,C4*%
X181150000Y-56700000D03*
X181150000Y-59100000D03*
%TD*%
D15*
%TO.C,R10*%
X188680000Y-48230000D03*
X190980000Y-48230000D03*
%TD*%
D13*
%TO.C,C2*%
X183400000Y-56700000D03*
X183400000Y-59100000D03*
%TD*%
%TO.C,C6*%
X176650000Y-56700000D03*
X176650000Y-59100000D03*
%TD*%
D16*
%TO.C,C7*%
X187562000Y-62484000D03*
D17*
X187562000Y-64984000D03*
%TD*%
D18*
%TO.C,J3*%
X201950000Y-47200000D03*
%TD*%
D10*
%TO.C,R44*%
X157000000Y-59500000D03*
X154700000Y-59500000D03*
%TD*%
%TO.C,R43*%
X157000000Y-55000000D03*
X154700000Y-55000000D03*
%TD*%
D11*
%TO.C,J11*%
X164750000Y-66000000D03*
D12*
X167250000Y-66000000D03*
X169750000Y-66000000D03*
X172250000Y-66000000D03*
%TD*%
D10*
%TO.C,R42*%
X157000000Y-52750000D03*
X154700000Y-52750000D03*
%TD*%
%TO.C,R45*%
X171900000Y-63450000D03*
X169600000Y-63450000D03*
%TD*%
D13*
%TO.C,C5*%
X144900000Y-56700000D03*
X144900000Y-59100000D03*
%TD*%
D14*
%TO.C,C1*%
X149500000Y-62450000D03*
X147100000Y-62450000D03*
%TD*%
D10*
%TO.C,R41*%
X157000000Y-50500000D03*
X154700000Y-50500000D03*
%TD*%
D15*
%TO.C,R46*%
X154700000Y-57250000D03*
X157000000Y-57250000D03*
%TD*%
D13*
%TO.C,C4*%
X147150000Y-56700000D03*
X147150000Y-59100000D03*
%TD*%
D15*
%TO.C,R10*%
X154680000Y-48230000D03*
X156980000Y-48230000D03*
%TD*%
D13*
%TO.C,C2*%
X149400000Y-56700000D03*
X149400000Y-59100000D03*
%TD*%
%TO.C,C6*%
X142650000Y-56700000D03*
X142650000Y-59100000D03*
%TD*%
D16*
%TO.C,C7*%
X153562000Y-62484000D03*
D17*
X153562000Y-64984000D03*
%TD*%
D18*
%TO.C,J3*%
X167950000Y-47200000D03*
%TD*%
D10*
%TO.C,R44*%
X123000000Y-59500000D03*
X120700000Y-59500000D03*
%TD*%
%TO.C,R43*%
X123000000Y-55000000D03*
X120700000Y-55000000D03*
%TD*%
D11*
%TO.C,J11*%
X130750000Y-66000000D03*
D12*
X133250000Y-66000000D03*
X135750000Y-66000000D03*
X138250000Y-66000000D03*
%TD*%
D10*
%TO.C,R42*%
X123000000Y-52750000D03*
X120700000Y-52750000D03*
%TD*%
%TO.C,R45*%
X137900000Y-63450000D03*
X135600000Y-63450000D03*
%TD*%
D13*
%TO.C,C5*%
X110900000Y-56700000D03*
X110900000Y-59100000D03*
%TD*%
D14*
%TO.C,C1*%
X115500000Y-62450000D03*
X113100000Y-62450000D03*
%TD*%
D10*
%TO.C,R41*%
X123000000Y-50500000D03*
X120700000Y-50500000D03*
%TD*%
D15*
%TO.C,R46*%
X120700000Y-57250000D03*
X123000000Y-57250000D03*
%TD*%
D13*
%TO.C,C4*%
X113150000Y-56700000D03*
X113150000Y-59100000D03*
%TD*%
D15*
%TO.C,R10*%
X120680000Y-48230000D03*
X122980000Y-48230000D03*
%TD*%
D13*
%TO.C,C2*%
X115400000Y-56700000D03*
X115400000Y-59100000D03*
%TD*%
%TO.C,C6*%
X108650000Y-56700000D03*
X108650000Y-59100000D03*
%TD*%
D16*
%TO.C,C7*%
X119562000Y-62484000D03*
D17*
X119562000Y-64984000D03*
%TD*%
D18*
%TO.C,J3*%
X133950000Y-47200000D03*
%TD*%
D10*
%TO.C,R44*%
X89000000Y-59500000D03*
X86700000Y-59500000D03*
%TD*%
%TO.C,R43*%
X89000000Y-55000000D03*
X86700000Y-55000000D03*
%TD*%
D11*
%TO.C,J11*%
X96750000Y-66000000D03*
D12*
X99250000Y-66000000D03*
X101750000Y-66000000D03*
X104250000Y-66000000D03*
%TD*%
D10*
%TO.C,R42*%
X89000000Y-52750000D03*
X86700000Y-52750000D03*
%TD*%
%TO.C,R45*%
X103900000Y-63450000D03*
X101600000Y-63450000D03*
%TD*%
D13*
%TO.C,C5*%
X76900000Y-56700000D03*
X76900000Y-59100000D03*
%TD*%
D14*
%TO.C,C1*%
X81500000Y-62450000D03*
X79100000Y-62450000D03*
%TD*%
D10*
%TO.C,R41*%
X89000000Y-50500000D03*
X86700000Y-50500000D03*
%TD*%
D15*
%TO.C,R46*%
X86700000Y-57250000D03*
X89000000Y-57250000D03*
%TD*%
D13*
%TO.C,C4*%
X79150000Y-56700000D03*
X79150000Y-59100000D03*
%TD*%
D15*
%TO.C,R10*%
X86680000Y-48230000D03*
X88980000Y-48230000D03*
%TD*%
D13*
%TO.C,C2*%
X81400000Y-56700000D03*
X81400000Y-59100000D03*
%TD*%
%TO.C,C6*%
X74650000Y-56700000D03*
X74650000Y-59100000D03*
%TD*%
D16*
%TO.C,C7*%
X85562000Y-62484000D03*
D17*
X85562000Y-64984000D03*
%TD*%
D18*
%TO.C,J3*%
X99950000Y-47200000D03*
%TD*%
D11*
%TO.C,J11*%
X62750000Y-66000000D03*
D12*
X65250000Y-66000000D03*
X67750000Y-66000000D03*
X70250000Y-66000000D03*
%TD*%
D18*
%TO.C,J3*%
X65950000Y-47200000D03*
%TD*%
D16*
%TO.C,C7*%
X51562000Y-62484000D03*
D17*
X51562000Y-64984000D03*
%TD*%
D10*
%TO.C,R43*%
X55000000Y-55000000D03*
X52700000Y-55000000D03*
%TD*%
%TO.C,R44*%
X55000000Y-59500000D03*
X52700000Y-59500000D03*
%TD*%
D13*
%TO.C,C6*%
X40650000Y-56700000D03*
X40650000Y-59100000D03*
%TD*%
D15*
%TO.C,R10*%
X52680000Y-48230000D03*
X54980000Y-48230000D03*
%TD*%
D13*
%TO.C,C2*%
X47400000Y-56700000D03*
X47400000Y-59100000D03*
%TD*%
%TO.C,C5*%
X42900000Y-56700000D03*
X42900000Y-59100000D03*
%TD*%
%TO.C,C4*%
X45150000Y-56700000D03*
X45150000Y-59100000D03*
%TD*%
D15*
%TO.C,R46*%
X52700000Y-57250000D03*
X55000000Y-57250000D03*
%TD*%
D10*
%TO.C,R41*%
X55000000Y-50500000D03*
X52700000Y-50500000D03*
%TD*%
D14*
%TO.C,C1*%
X47500000Y-62450000D03*
X45100000Y-62450000D03*
%TD*%
D10*
%TO.C,R45*%
X69900000Y-63450000D03*
X67600000Y-63450000D03*
%TD*%
%TO.C,R42*%
X55000000Y-52750000D03*
X52700000Y-52750000D03*
%TD*%
M02*
