%TF.GenerationSoftware,KiCad,Pcbnew,8.0.4*%
%TF.CreationDate,2024-11-04T15:17:52+09:00*%
%TF.ProjectId,L-CON RS485 V2.0,4c2d434f-4e20-4525-9334-38352056322e,rev?*%
%TF.SameCoordinates,Original*%
%TF.FileFunction,Profile,NP*%
%FSLAX46Y46*%
G04 Gerber Fmt 4.6, Leading zero omitted, Abs format (unit mm)*
G04 Created by KiCad (PCBNEW 8.0.4) date 2024-11-04 15:17:52*
%MOMM*%
%LPD*%
G01*
G04 APERTURE LIST*
%TA.AperFunction,Profile*%
%ADD10C,0.100000*%
%TD*%
%ADD11C,1.000000*%
G04 APERTURE END LIST*
D10*
X176850000Y-144250000D02*
X207850000Y-144250000D01*
X209350000Y-120750000D02*
X209350000Y-142750000D01*
X176850000Y-144250000D02*
G75*
G02*
X175350000Y-142750000I0J1500000D01*
G01*
X207850000Y-119250000D02*
G75*
G02*
X209350000Y-120750000I0J-1500000D01*
G01*
X176850000Y-119250000D02*
X207850000Y-119250000D01*
X209350000Y-142750000D02*
G75*
G02*
X207850000Y-144250000I-1500000J0D01*
G01*
X175350000Y-120750000D02*
G75*
G02*
X176850000Y-119250000I1500000J0D01*
G01*
X175350000Y-142750000D02*
X175350000Y-120750000D01*
X142850000Y-144250000D02*
X173850000Y-144250000D01*
X175350000Y-120750000D02*
X175350000Y-142750000D01*
X142850000Y-144250000D02*
G75*
G02*
X141350000Y-142750000I0J1500000D01*
G01*
X173850000Y-119250000D02*
G75*
G02*
X175350000Y-120750000I0J-1500000D01*
G01*
X142850000Y-119250000D02*
X173850000Y-119250000D01*
X175350000Y-142750000D02*
G75*
G02*
X173850000Y-144250000I-1500000J0D01*
G01*
X141350000Y-120750000D02*
G75*
G02*
X142850000Y-119250000I1500000J0D01*
G01*
X141350000Y-142750000D02*
X141350000Y-120750000D01*
X108850000Y-144250000D02*
X139850000Y-144250000D01*
X141350000Y-120750000D02*
X141350000Y-142750000D01*
X108850000Y-144250000D02*
G75*
G02*
X107350000Y-142750000I0J1500000D01*
G01*
X139850000Y-119250000D02*
G75*
G02*
X141350000Y-120750000I0J-1500000D01*
G01*
X108850000Y-119250000D02*
X139850000Y-119250000D01*
X141350000Y-142750000D02*
G75*
G02*
X139850000Y-144250000I-1500000J0D01*
G01*
X107350000Y-120750000D02*
G75*
G02*
X108850000Y-119250000I1500000J0D01*
G01*
X107350000Y-142750000D02*
X107350000Y-120750000D01*
X74850000Y-144250000D02*
X105850000Y-144250000D01*
X107350000Y-120750000D02*
X107350000Y-142750000D01*
X74850000Y-144250000D02*
G75*
G02*
X73350000Y-142750000I0J1500000D01*
G01*
X105850000Y-119250000D02*
G75*
G02*
X107350000Y-120750000I0J-1500000D01*
G01*
X74850000Y-119250000D02*
X105850000Y-119250000D01*
X107350000Y-142750000D02*
G75*
G02*
X105850000Y-144250000I-1500000J0D01*
G01*
X73350000Y-120750000D02*
G75*
G02*
X74850000Y-119250000I1500000J0D01*
G01*
X73350000Y-142750000D02*
X73350000Y-120750000D01*
X40850000Y-144250000D02*
X71850000Y-144250000D01*
X73350000Y-120750000D02*
X73350000Y-142750000D01*
X40850000Y-144250000D02*
G75*
G02*
X39350000Y-142750000I0J1500000D01*
G01*
X71850000Y-119250000D02*
G75*
G02*
X73350000Y-120750000I0J-1500000D01*
G01*
X40850000Y-119250000D02*
X71850000Y-119250000D01*
X73350000Y-142750000D02*
G75*
G02*
X71850000Y-144250000I-1500000J0D01*
G01*
X39350000Y-120750000D02*
G75*
G02*
X40850000Y-119250000I1500000J0D01*
G01*
X39350000Y-142750000D02*
X39350000Y-120750000D01*
X176850000Y-119250000D02*
X207850000Y-119250000D01*
X209350000Y-95750000D02*
X209350000Y-117750000D01*
X176850000Y-119250000D02*
G75*
G02*
X175350000Y-117750000I0J1500000D01*
G01*
X207850000Y-94250000D02*
G75*
G02*
X209350000Y-95750000I0J-1500000D01*
G01*
X176850000Y-94250000D02*
X207850000Y-94250000D01*
X209350000Y-117750000D02*
G75*
G02*
X207850000Y-119250000I-1500000J0D01*
G01*
X175350000Y-95750000D02*
G75*
G02*
X176850000Y-94250000I1500000J0D01*
G01*
X175350000Y-117750000D02*
X175350000Y-95750000D01*
X142850000Y-119250000D02*
X173850000Y-119250000D01*
X175350000Y-95750000D02*
X175350000Y-117750000D01*
X142850000Y-119250000D02*
G75*
G02*
X141350000Y-117750000I0J1500000D01*
G01*
X173850000Y-94250000D02*
G75*
G02*
X175350000Y-95750000I0J-1500000D01*
G01*
X142850000Y-94250000D02*
X173850000Y-94250000D01*
X175350000Y-117750000D02*
G75*
G02*
X173850000Y-119250000I-1500000J0D01*
G01*
X141350000Y-95750000D02*
G75*
G02*
X142850000Y-94250000I1500000J0D01*
G01*
X141350000Y-117750000D02*
X141350000Y-95750000D01*
X108850000Y-119250000D02*
X139850000Y-119250000D01*
X141350000Y-95750000D02*
X141350000Y-117750000D01*
X108850000Y-119250000D02*
G75*
G02*
X107350000Y-117750000I0J1500000D01*
G01*
X139850000Y-94250000D02*
G75*
G02*
X141350000Y-95750000I0J-1500000D01*
G01*
X108850000Y-94250000D02*
X139850000Y-94250000D01*
X141350000Y-117750000D02*
G75*
G02*
X139850000Y-119250000I-1500000J0D01*
G01*
X107350000Y-95750000D02*
G75*
G02*
X108850000Y-94250000I1500000J0D01*
G01*
X107350000Y-117750000D02*
X107350000Y-95750000D01*
X74850000Y-119250000D02*
X105850000Y-119250000D01*
X107350000Y-95750000D02*
X107350000Y-117750000D01*
X74850000Y-119250000D02*
G75*
G02*
X73350000Y-117750000I0J1500000D01*
G01*
X105850000Y-94250000D02*
G75*
G02*
X107350000Y-95750000I0J-1500000D01*
G01*
X74850000Y-94250000D02*
X105850000Y-94250000D01*
X107350000Y-117750000D02*
G75*
G02*
X105850000Y-119250000I-1500000J0D01*
G01*
X73350000Y-95750000D02*
G75*
G02*
X74850000Y-94250000I1500000J0D01*
G01*
X73350000Y-117750000D02*
X73350000Y-95750000D01*
X40850000Y-119250000D02*
X71850000Y-119250000D01*
X73350000Y-95750000D02*
X73350000Y-117750000D01*
X40850000Y-119250000D02*
G75*
G02*
X39350000Y-117750000I0J1500000D01*
G01*
X71850000Y-94250000D02*
G75*
G02*
X73350000Y-95750000I0J-1500000D01*
G01*
X40850000Y-94250000D02*
X71850000Y-94250000D01*
X73350000Y-117750000D02*
G75*
G02*
X71850000Y-119250000I-1500000J0D01*
G01*
X39350000Y-95750000D02*
G75*
G02*
X40850000Y-94250000I1500000J0D01*
G01*
X39350000Y-117750000D02*
X39350000Y-95750000D01*
X176850000Y-94250000D02*
X207850000Y-94250000D01*
X209350000Y-70750000D02*
X209350000Y-92750000D01*
X176850000Y-94250000D02*
G75*
G02*
X175350000Y-92750000I0J1500000D01*
G01*
X207850000Y-69250000D02*
G75*
G02*
X209350000Y-70750000I0J-1500000D01*
G01*
X176850000Y-69250000D02*
X207850000Y-69250000D01*
X209350000Y-92750000D02*
G75*
G02*
X207850000Y-94250000I-1500000J0D01*
G01*
X175350000Y-70750000D02*
G75*
G02*
X176850000Y-69250000I1500000J0D01*
G01*
X175350000Y-92750000D02*
X175350000Y-70750000D01*
X142850000Y-94250000D02*
X173850000Y-94250000D01*
X175350000Y-70750000D02*
X175350000Y-92750000D01*
X142850000Y-94250000D02*
G75*
G02*
X141350000Y-92750000I0J1500000D01*
G01*
X173850000Y-69250000D02*
G75*
G02*
X175350000Y-70750000I0J-1500000D01*
G01*
X142850000Y-69250000D02*
X173850000Y-69250000D01*
X175350000Y-92750000D02*
G75*
G02*
X173850000Y-94250000I-1500000J0D01*
G01*
X141350000Y-70750000D02*
G75*
G02*
X142850000Y-69250000I1500000J0D01*
G01*
X141350000Y-92750000D02*
X141350000Y-70750000D01*
X108850000Y-94250000D02*
X139850000Y-94250000D01*
X141350000Y-70750000D02*
X141350000Y-92750000D01*
X108850000Y-94250000D02*
G75*
G02*
X107350000Y-92750000I0J1500000D01*
G01*
X139850000Y-69250000D02*
G75*
G02*
X141350000Y-70750000I0J-1500000D01*
G01*
X108850000Y-69250000D02*
X139850000Y-69250000D01*
X141350000Y-92750000D02*
G75*
G02*
X139850000Y-94250000I-1500000J0D01*
G01*
X107350000Y-70750000D02*
G75*
G02*
X108850000Y-69250000I1500000J0D01*
G01*
X107350000Y-92750000D02*
X107350000Y-70750000D01*
X74850000Y-94250000D02*
X105850000Y-94250000D01*
X107350000Y-70750000D02*
X107350000Y-92750000D01*
X74850000Y-94250000D02*
G75*
G02*
X73350000Y-92750000I0J1500000D01*
G01*
X105850000Y-69250000D02*
G75*
G02*
X107350000Y-70750000I0J-1500000D01*
G01*
X74850000Y-69250000D02*
X105850000Y-69250000D01*
X107350000Y-92750000D02*
G75*
G02*
X105850000Y-94250000I-1500000J0D01*
G01*
X73350000Y-70750000D02*
G75*
G02*
X74850000Y-69250000I1500000J0D01*
G01*
X73350000Y-92750000D02*
X73350000Y-70750000D01*
X40850000Y-94250000D02*
X71850000Y-94250000D01*
X73350000Y-70750000D02*
X73350000Y-92750000D01*
X40850000Y-94250000D02*
G75*
G02*
X39350000Y-92750000I0J1500000D01*
G01*
X71850000Y-69250000D02*
G75*
G02*
X73350000Y-70750000I0J-1500000D01*
G01*
X40850000Y-69250000D02*
X71850000Y-69250000D01*
X73350000Y-92750000D02*
G75*
G02*
X71850000Y-94250000I-1500000J0D01*
G01*
X39350000Y-70750000D02*
G75*
G02*
X40850000Y-69250000I1500000J0D01*
G01*
X39350000Y-92750000D02*
X39350000Y-70750000D01*
X176850000Y-69250000D02*
X207850000Y-69250000D01*
X209350000Y-45750000D02*
X209350000Y-67750000D01*
X176850000Y-69250000D02*
G75*
G02*
X175350000Y-67750000I0J1500000D01*
G01*
X207850000Y-44250000D02*
G75*
G02*
X209350000Y-45750000I0J-1500000D01*
G01*
X176850000Y-44250000D02*
X207850000Y-44250000D01*
X209350000Y-67750000D02*
G75*
G02*
X207850000Y-69250000I-1500000J0D01*
G01*
X175350000Y-45750000D02*
G75*
G02*
X176850000Y-44250000I1500000J0D01*
G01*
X175350000Y-67750000D02*
X175350000Y-45750000D01*
X142850000Y-69250000D02*
X173850000Y-69250000D01*
X175350000Y-45750000D02*
X175350000Y-67750000D01*
X142850000Y-69250000D02*
G75*
G02*
X141350000Y-67750000I0J1500000D01*
G01*
X173850000Y-44250000D02*
G75*
G02*
X175350000Y-45750000I0J-1500000D01*
G01*
X142850000Y-44250000D02*
X173850000Y-44250000D01*
X175350000Y-67750000D02*
G75*
G02*
X173850000Y-69250000I-1500000J0D01*
G01*
X141350000Y-45750000D02*
G75*
G02*
X142850000Y-44250000I1500000J0D01*
G01*
X141350000Y-67750000D02*
X141350000Y-45750000D01*
X108850000Y-69250000D02*
X139850000Y-69250000D01*
X141350000Y-45750000D02*
X141350000Y-67750000D01*
X108850000Y-69250000D02*
G75*
G02*
X107350000Y-67750000I0J1500000D01*
G01*
X139850000Y-44250000D02*
G75*
G02*
X141350000Y-45750000I0J-1500000D01*
G01*
X108850000Y-44250000D02*
X139850000Y-44250000D01*
X141350000Y-67750000D02*
G75*
G02*
X139850000Y-69250000I-1500000J0D01*
G01*
X107350000Y-45750000D02*
G75*
G02*
X108850000Y-44250000I1500000J0D01*
G01*
X107350000Y-67750000D02*
X107350000Y-45750000D01*
X74850000Y-69250000D02*
X105850000Y-69250000D01*
X107350000Y-45750000D02*
X107350000Y-67750000D01*
X74850000Y-69250000D02*
G75*
G02*
X73350000Y-67750000I0J1500000D01*
G01*
X105850000Y-44250000D02*
G75*
G02*
X107350000Y-45750000I0J-1500000D01*
G01*
X74850000Y-44250000D02*
X105850000Y-44250000D01*
X107350000Y-67750000D02*
G75*
G02*
X105850000Y-69250000I-1500000J0D01*
G01*
X73350000Y-45750000D02*
G75*
G02*
X74850000Y-44250000I1500000J0D01*
G01*
X73350000Y-67750000D02*
X73350000Y-45750000D01*
X39350000Y-45750000D02*
G75*
G02*
X40850000Y-44250000I1500000J0D01*
G01*
X39350000Y-67750000D02*
X39350000Y-45750000D01*
X40850000Y-44250000D02*
X71850000Y-44250000D01*
X73350000Y-67750000D02*
G75*
G02*
X71850000Y-69250000I-1500000J0D01*
G01*
X71850000Y-44250000D02*
G75*
G02*
X73350000Y-45750000I0J-1500000D01*
G01*
X73350000Y-45750000D02*
X73350000Y-67750000D01*
X40850000Y-69250000D02*
G75*
G02*
X39350000Y-67750000I0J1500000D01*
G01*
X40850000Y-69250000D02*
X71850000Y-69250000D01*
D11*
X224274084Y-90766095D02*
X225940751Y-95766095D01*
X225940751Y-95766095D02*
X227607417Y-90766095D01*
X233083608Y-93861333D02*
X236893132Y-93861333D01*
X245940751Y-95289904D02*
X245702655Y-95528000D01*
X245702655Y-95528000D02*
X244988370Y-95766095D01*
X244988370Y-95766095D02*
X244512179Y-95766095D01*
X244512179Y-95766095D02*
X243797893Y-95528000D01*
X243797893Y-95528000D02*
X243321703Y-95051809D01*
X243321703Y-95051809D02*
X243083608Y-94575619D01*
X243083608Y-94575619D02*
X242845512Y-93623238D01*
X242845512Y-93623238D02*
X242845512Y-92908952D01*
X242845512Y-92908952D02*
X243083608Y-91956571D01*
X243083608Y-91956571D02*
X243321703Y-91480380D01*
X243321703Y-91480380D02*
X243797893Y-91004190D01*
X243797893Y-91004190D02*
X244512179Y-90766095D01*
X244512179Y-90766095D02*
X244988370Y-90766095D01*
X244988370Y-90766095D02*
X245702655Y-91004190D01*
X245702655Y-91004190D02*
X245940751Y-91242285D01*
X248083608Y-90766095D02*
X248083608Y-94813714D01*
X248083608Y-94813714D02*
X248321703Y-95289904D01*
X248321703Y-95289904D02*
X248559798Y-95528000D01*
X248559798Y-95528000D02*
X249035989Y-95766095D01*
X249035989Y-95766095D02*
X249988370Y-95766095D01*
X249988370Y-95766095D02*
X250464560Y-95528000D01*
X250464560Y-95528000D02*
X250702655Y-95289904D01*
X250702655Y-95289904D02*
X250940751Y-94813714D01*
X250940751Y-94813714D02*
X250940751Y-90766095D01*
X252607417Y-90766095D02*
X255464560Y-90766095D01*
X254035988Y-95766095D02*
X254035988Y-90766095D01*
M02*
