%TF.GenerationSoftware,KiCad,Pcbnew,8.0.4*%
%TF.CreationDate,2024-11-04T15:17:51+09:00*%
%TF.ProjectId,L-CON RS485 V2.0,4c2d434f-4e20-4525-9334-38352056322e,rev?*%
%TF.SameCoordinates,Original*%
%TF.FileFunction,Paste,Top*%
%TF.FilePolarity,Positive*%
%FSLAX46Y46*%
G04 Gerber Fmt 4.6, Leading zero omitted, Abs format (unit mm)*
G04 Created by KiCad (PCBNEW 8.0.4) date 2024-11-04 15:17:51*
%MOMM*%
%LPD*%
G01*
G04 APERTURE LIST*
G04 Aperture macros list*
%AMRoundRect*
0 Rectangle with rounded corners*
0 $1 Rounding radius*
0 $2 $3 $4 $5 $6 $7 $8 $9 X,Y pos of 4 corners*
0 Add a 4 corners polygon primitive as box body*
4,1,4,$2,$3,$4,$5,$6,$7,$8,$9,$2,$3,0*
0 Add four circle primitives for the rounded corners*
1,1,$1+$1,$2,$3*
1,1,$1+$1,$4,$5*
1,1,$1+$1,$6,$7*
1,1,$1+$1,$8,$9*
0 Add four rect primitives between the rounded corners*
20,1,$1+$1,$2,$3,$4,$5,0*
20,1,$1+$1,$4,$5,$6,$7,0*
20,1,$1+$1,$6,$7,$8,$9,0*
20,1,$1+$1,$8,$9,$2,$3,0*%
G04 Aperture macros list end*
%ADD10RoundRect,0.163800X-0.136200X0.711200X-0.136200X-0.711200X0.136200X-0.711200X0.136200X0.711200X0*%
%ADD11RoundRect,0.150000X-0.700000X0.150000X-0.700000X-0.150000X0.700000X-0.150000X0.700000X0.150000X0*%
%ADD12RoundRect,0.250000X-1.100000X0.250000X-1.100000X-0.250000X1.100000X-0.250000X1.100000X0.250000X0*%
%ADD13R,1.500000X1.250000*%
%ADD14R,1.100000X1.000000*%
%ADD15RoundRect,0.312500X-0.312500X0.437500X-0.312500X-0.437500X0.312500X-0.437500X0.312500X0.437500X0*%
G04 APERTURE END LIST*
D10*
%TO.C,U4*%
X205000000Y-127825000D03*
X203730000Y-127825000D03*
X202460000Y-127825000D03*
X201190000Y-127825000D03*
X201190000Y-134175000D03*
X202460000Y-134175000D03*
X203730000Y-134175000D03*
X205000000Y-134175000D03*
%TD*%
D11*
%TO.C,J1*%
X180410000Y-136135000D03*
X180410000Y-137385000D03*
X180410000Y-138635000D03*
X180410000Y-139885000D03*
D12*
X177210000Y-134285000D03*
X177210000Y-141735000D03*
%TD*%
D13*
%TO.C,D6*%
X195140000Y-127670000D03*
X197640000Y-127670000D03*
%TD*%
D14*
%TO.C,D1*%
X194975000Y-132325000D03*
X194975000Y-134225000D03*
X196975000Y-133275000D03*
%TD*%
D11*
%TO.C,J4*%
X180400000Y-123395000D03*
X180400000Y-124645000D03*
X180400000Y-125895000D03*
X180400000Y-127145000D03*
D12*
X177200000Y-121545000D03*
X177200000Y-128995000D03*
%TD*%
D15*
%TO.C,C3*%
X208000000Y-131600000D03*
X208000000Y-134000000D03*
%TD*%
D10*
%TO.C,U4*%
X171000000Y-127825000D03*
X169730000Y-127825000D03*
X168460000Y-127825000D03*
X167190000Y-127825000D03*
X167190000Y-134175000D03*
X168460000Y-134175000D03*
X169730000Y-134175000D03*
X171000000Y-134175000D03*
%TD*%
D11*
%TO.C,J1*%
X146410000Y-136135000D03*
X146410000Y-137385000D03*
X146410000Y-138635000D03*
X146410000Y-139885000D03*
D12*
X143210000Y-134285000D03*
X143210000Y-141735000D03*
%TD*%
D13*
%TO.C,D6*%
X161140000Y-127670000D03*
X163640000Y-127670000D03*
%TD*%
D14*
%TO.C,D1*%
X160975000Y-132325000D03*
X160975000Y-134225000D03*
X162975000Y-133275000D03*
%TD*%
D11*
%TO.C,J4*%
X146400000Y-123395000D03*
X146400000Y-124645000D03*
X146400000Y-125895000D03*
X146400000Y-127145000D03*
D12*
X143200000Y-121545000D03*
X143200000Y-128995000D03*
%TD*%
D15*
%TO.C,C3*%
X174000000Y-131600000D03*
X174000000Y-134000000D03*
%TD*%
D10*
%TO.C,U4*%
X137000000Y-127825000D03*
X135730000Y-127825000D03*
X134460000Y-127825000D03*
X133190000Y-127825000D03*
X133190000Y-134175000D03*
X134460000Y-134175000D03*
X135730000Y-134175000D03*
X137000000Y-134175000D03*
%TD*%
D11*
%TO.C,J1*%
X112410000Y-136135000D03*
X112410000Y-137385000D03*
X112410000Y-138635000D03*
X112410000Y-139885000D03*
D12*
X109210000Y-134285000D03*
X109210000Y-141735000D03*
%TD*%
D13*
%TO.C,D6*%
X127140000Y-127670000D03*
X129640000Y-127670000D03*
%TD*%
D14*
%TO.C,D1*%
X126975000Y-132325000D03*
X126975000Y-134225000D03*
X128975000Y-133275000D03*
%TD*%
D11*
%TO.C,J4*%
X112400000Y-123395000D03*
X112400000Y-124645000D03*
X112400000Y-125895000D03*
X112400000Y-127145000D03*
D12*
X109200000Y-121545000D03*
X109200000Y-128995000D03*
%TD*%
D15*
%TO.C,C3*%
X140000000Y-131600000D03*
X140000000Y-134000000D03*
%TD*%
D10*
%TO.C,U4*%
X103000000Y-127825000D03*
X101730000Y-127825000D03*
X100460000Y-127825000D03*
X99190000Y-127825000D03*
X99190000Y-134175000D03*
X100460000Y-134175000D03*
X101730000Y-134175000D03*
X103000000Y-134175000D03*
%TD*%
D11*
%TO.C,J1*%
X78410000Y-136135000D03*
X78410000Y-137385000D03*
X78410000Y-138635000D03*
X78410000Y-139885000D03*
D12*
X75210000Y-134285000D03*
X75210000Y-141735000D03*
%TD*%
D13*
%TO.C,D6*%
X93140000Y-127670000D03*
X95640000Y-127670000D03*
%TD*%
D14*
%TO.C,D1*%
X92975000Y-132325000D03*
X92975000Y-134225000D03*
X94975000Y-133275000D03*
%TD*%
D11*
%TO.C,J4*%
X78400000Y-123395000D03*
X78400000Y-124645000D03*
X78400000Y-125895000D03*
X78400000Y-127145000D03*
D12*
X75200000Y-121545000D03*
X75200000Y-128995000D03*
%TD*%
D15*
%TO.C,C3*%
X106000000Y-131600000D03*
X106000000Y-134000000D03*
%TD*%
D10*
%TO.C,U4*%
X69000000Y-127825000D03*
X67730000Y-127825000D03*
X66460000Y-127825000D03*
X65190000Y-127825000D03*
X65190000Y-134175000D03*
X66460000Y-134175000D03*
X67730000Y-134175000D03*
X69000000Y-134175000D03*
%TD*%
D11*
%TO.C,J1*%
X44410000Y-136135000D03*
X44410000Y-137385000D03*
X44410000Y-138635000D03*
X44410000Y-139885000D03*
D12*
X41210000Y-134285000D03*
X41210000Y-141735000D03*
%TD*%
D13*
%TO.C,D6*%
X59140000Y-127670000D03*
X61640000Y-127670000D03*
%TD*%
D14*
%TO.C,D1*%
X58975000Y-132325000D03*
X58975000Y-134225000D03*
X60975000Y-133275000D03*
%TD*%
D11*
%TO.C,J4*%
X44400000Y-123395000D03*
X44400000Y-124645000D03*
X44400000Y-125895000D03*
X44400000Y-127145000D03*
D12*
X41200000Y-121545000D03*
X41200000Y-128995000D03*
%TD*%
D15*
%TO.C,C3*%
X72000000Y-131600000D03*
X72000000Y-134000000D03*
%TD*%
D10*
%TO.C,U4*%
X205000000Y-102825000D03*
X203730000Y-102825000D03*
X202460000Y-102825000D03*
X201190000Y-102825000D03*
X201190000Y-109175000D03*
X202460000Y-109175000D03*
X203730000Y-109175000D03*
X205000000Y-109175000D03*
%TD*%
D11*
%TO.C,J1*%
X180410000Y-111135000D03*
X180410000Y-112385000D03*
X180410000Y-113635000D03*
X180410000Y-114885000D03*
D12*
X177210000Y-109285000D03*
X177210000Y-116735000D03*
%TD*%
D13*
%TO.C,D6*%
X195140000Y-102670000D03*
X197640000Y-102670000D03*
%TD*%
D14*
%TO.C,D1*%
X194975000Y-107325000D03*
X194975000Y-109225000D03*
X196975000Y-108275000D03*
%TD*%
D11*
%TO.C,J4*%
X180400000Y-98395000D03*
X180400000Y-99645000D03*
X180400000Y-100895000D03*
X180400000Y-102145000D03*
D12*
X177200000Y-96545000D03*
X177200000Y-103995000D03*
%TD*%
D15*
%TO.C,C3*%
X208000000Y-106600000D03*
X208000000Y-109000000D03*
%TD*%
D10*
%TO.C,U4*%
X171000000Y-102825000D03*
X169730000Y-102825000D03*
X168460000Y-102825000D03*
X167190000Y-102825000D03*
X167190000Y-109175000D03*
X168460000Y-109175000D03*
X169730000Y-109175000D03*
X171000000Y-109175000D03*
%TD*%
D11*
%TO.C,J1*%
X146410000Y-111135000D03*
X146410000Y-112385000D03*
X146410000Y-113635000D03*
X146410000Y-114885000D03*
D12*
X143210000Y-109285000D03*
X143210000Y-116735000D03*
%TD*%
D13*
%TO.C,D6*%
X161140000Y-102670000D03*
X163640000Y-102670000D03*
%TD*%
D14*
%TO.C,D1*%
X160975000Y-107325000D03*
X160975000Y-109225000D03*
X162975000Y-108275000D03*
%TD*%
D11*
%TO.C,J4*%
X146400000Y-98395000D03*
X146400000Y-99645000D03*
X146400000Y-100895000D03*
X146400000Y-102145000D03*
D12*
X143200000Y-96545000D03*
X143200000Y-103995000D03*
%TD*%
D15*
%TO.C,C3*%
X174000000Y-106600000D03*
X174000000Y-109000000D03*
%TD*%
D10*
%TO.C,U4*%
X137000000Y-102825000D03*
X135730000Y-102825000D03*
X134460000Y-102825000D03*
X133190000Y-102825000D03*
X133190000Y-109175000D03*
X134460000Y-109175000D03*
X135730000Y-109175000D03*
X137000000Y-109175000D03*
%TD*%
D11*
%TO.C,J1*%
X112410000Y-111135000D03*
X112410000Y-112385000D03*
X112410000Y-113635000D03*
X112410000Y-114885000D03*
D12*
X109210000Y-109285000D03*
X109210000Y-116735000D03*
%TD*%
D13*
%TO.C,D6*%
X127140000Y-102670000D03*
X129640000Y-102670000D03*
%TD*%
D14*
%TO.C,D1*%
X126975000Y-107325000D03*
X126975000Y-109225000D03*
X128975000Y-108275000D03*
%TD*%
D11*
%TO.C,J4*%
X112400000Y-98395000D03*
X112400000Y-99645000D03*
X112400000Y-100895000D03*
X112400000Y-102145000D03*
D12*
X109200000Y-96545000D03*
X109200000Y-103995000D03*
%TD*%
D15*
%TO.C,C3*%
X140000000Y-106600000D03*
X140000000Y-109000000D03*
%TD*%
D10*
%TO.C,U4*%
X103000000Y-102825000D03*
X101730000Y-102825000D03*
X100460000Y-102825000D03*
X99190000Y-102825000D03*
X99190000Y-109175000D03*
X100460000Y-109175000D03*
X101730000Y-109175000D03*
X103000000Y-109175000D03*
%TD*%
D11*
%TO.C,J1*%
X78410000Y-111135000D03*
X78410000Y-112385000D03*
X78410000Y-113635000D03*
X78410000Y-114885000D03*
D12*
X75210000Y-109285000D03*
X75210000Y-116735000D03*
%TD*%
D13*
%TO.C,D6*%
X93140000Y-102670000D03*
X95640000Y-102670000D03*
%TD*%
D14*
%TO.C,D1*%
X92975000Y-107325000D03*
X92975000Y-109225000D03*
X94975000Y-108275000D03*
%TD*%
D11*
%TO.C,J4*%
X78400000Y-98395000D03*
X78400000Y-99645000D03*
X78400000Y-100895000D03*
X78400000Y-102145000D03*
D12*
X75200000Y-96545000D03*
X75200000Y-103995000D03*
%TD*%
D15*
%TO.C,C3*%
X106000000Y-106600000D03*
X106000000Y-109000000D03*
%TD*%
D10*
%TO.C,U4*%
X69000000Y-102825000D03*
X67730000Y-102825000D03*
X66460000Y-102825000D03*
X65190000Y-102825000D03*
X65190000Y-109175000D03*
X66460000Y-109175000D03*
X67730000Y-109175000D03*
X69000000Y-109175000D03*
%TD*%
D11*
%TO.C,J1*%
X44410000Y-111135000D03*
X44410000Y-112385000D03*
X44410000Y-113635000D03*
X44410000Y-114885000D03*
D12*
X41210000Y-109285000D03*
X41210000Y-116735000D03*
%TD*%
D13*
%TO.C,D6*%
X59140000Y-102670000D03*
X61640000Y-102670000D03*
%TD*%
D14*
%TO.C,D1*%
X58975000Y-107325000D03*
X58975000Y-109225000D03*
X60975000Y-108275000D03*
%TD*%
D11*
%TO.C,J4*%
X44400000Y-98395000D03*
X44400000Y-99645000D03*
X44400000Y-100895000D03*
X44400000Y-102145000D03*
D12*
X41200000Y-96545000D03*
X41200000Y-103995000D03*
%TD*%
D15*
%TO.C,C3*%
X72000000Y-106600000D03*
X72000000Y-109000000D03*
%TD*%
D10*
%TO.C,U4*%
X205000000Y-77825000D03*
X203730000Y-77825000D03*
X202460000Y-77825000D03*
X201190000Y-77825000D03*
X201190000Y-84175000D03*
X202460000Y-84175000D03*
X203730000Y-84175000D03*
X205000000Y-84175000D03*
%TD*%
D11*
%TO.C,J1*%
X180410000Y-86135000D03*
X180410000Y-87385000D03*
X180410000Y-88635000D03*
X180410000Y-89885000D03*
D12*
X177210000Y-84285000D03*
X177210000Y-91735000D03*
%TD*%
D13*
%TO.C,D6*%
X195140000Y-77670000D03*
X197640000Y-77670000D03*
%TD*%
D14*
%TO.C,D1*%
X194975000Y-82325000D03*
X194975000Y-84225000D03*
X196975000Y-83275000D03*
%TD*%
D11*
%TO.C,J4*%
X180400000Y-73395000D03*
X180400000Y-74645000D03*
X180400000Y-75895000D03*
X180400000Y-77145000D03*
D12*
X177200000Y-71545000D03*
X177200000Y-78995000D03*
%TD*%
D15*
%TO.C,C3*%
X208000000Y-81600000D03*
X208000000Y-84000000D03*
%TD*%
D10*
%TO.C,U4*%
X171000000Y-77825000D03*
X169730000Y-77825000D03*
X168460000Y-77825000D03*
X167190000Y-77825000D03*
X167190000Y-84175000D03*
X168460000Y-84175000D03*
X169730000Y-84175000D03*
X171000000Y-84175000D03*
%TD*%
D11*
%TO.C,J1*%
X146410000Y-86135000D03*
X146410000Y-87385000D03*
X146410000Y-88635000D03*
X146410000Y-89885000D03*
D12*
X143210000Y-84285000D03*
X143210000Y-91735000D03*
%TD*%
D13*
%TO.C,D6*%
X161140000Y-77670000D03*
X163640000Y-77670000D03*
%TD*%
D14*
%TO.C,D1*%
X160975000Y-82325000D03*
X160975000Y-84225000D03*
X162975000Y-83275000D03*
%TD*%
D11*
%TO.C,J4*%
X146400000Y-73395000D03*
X146400000Y-74645000D03*
X146400000Y-75895000D03*
X146400000Y-77145000D03*
D12*
X143200000Y-71545000D03*
X143200000Y-78995000D03*
%TD*%
D15*
%TO.C,C3*%
X174000000Y-81600000D03*
X174000000Y-84000000D03*
%TD*%
D10*
%TO.C,U4*%
X137000000Y-77825000D03*
X135730000Y-77825000D03*
X134460000Y-77825000D03*
X133190000Y-77825000D03*
X133190000Y-84175000D03*
X134460000Y-84175000D03*
X135730000Y-84175000D03*
X137000000Y-84175000D03*
%TD*%
D11*
%TO.C,J1*%
X112410000Y-86135000D03*
X112410000Y-87385000D03*
X112410000Y-88635000D03*
X112410000Y-89885000D03*
D12*
X109210000Y-84285000D03*
X109210000Y-91735000D03*
%TD*%
D13*
%TO.C,D6*%
X127140000Y-77670000D03*
X129640000Y-77670000D03*
%TD*%
D14*
%TO.C,D1*%
X126975000Y-82325000D03*
X126975000Y-84225000D03*
X128975000Y-83275000D03*
%TD*%
D11*
%TO.C,J4*%
X112400000Y-73395000D03*
X112400000Y-74645000D03*
X112400000Y-75895000D03*
X112400000Y-77145000D03*
D12*
X109200000Y-71545000D03*
X109200000Y-78995000D03*
%TD*%
D15*
%TO.C,C3*%
X140000000Y-81600000D03*
X140000000Y-84000000D03*
%TD*%
D10*
%TO.C,U4*%
X103000000Y-77825000D03*
X101730000Y-77825000D03*
X100460000Y-77825000D03*
X99190000Y-77825000D03*
X99190000Y-84175000D03*
X100460000Y-84175000D03*
X101730000Y-84175000D03*
X103000000Y-84175000D03*
%TD*%
D11*
%TO.C,J1*%
X78410000Y-86135000D03*
X78410000Y-87385000D03*
X78410000Y-88635000D03*
X78410000Y-89885000D03*
D12*
X75210000Y-84285000D03*
X75210000Y-91735000D03*
%TD*%
D13*
%TO.C,D6*%
X93140000Y-77670000D03*
X95640000Y-77670000D03*
%TD*%
D14*
%TO.C,D1*%
X92975000Y-82325000D03*
X92975000Y-84225000D03*
X94975000Y-83275000D03*
%TD*%
D11*
%TO.C,J4*%
X78400000Y-73395000D03*
X78400000Y-74645000D03*
X78400000Y-75895000D03*
X78400000Y-77145000D03*
D12*
X75200000Y-71545000D03*
X75200000Y-78995000D03*
%TD*%
D15*
%TO.C,C3*%
X106000000Y-81600000D03*
X106000000Y-84000000D03*
%TD*%
D10*
%TO.C,U4*%
X69000000Y-77825000D03*
X67730000Y-77825000D03*
X66460000Y-77825000D03*
X65190000Y-77825000D03*
X65190000Y-84175000D03*
X66460000Y-84175000D03*
X67730000Y-84175000D03*
X69000000Y-84175000D03*
%TD*%
D11*
%TO.C,J1*%
X44410000Y-86135000D03*
X44410000Y-87385000D03*
X44410000Y-88635000D03*
X44410000Y-89885000D03*
D12*
X41210000Y-84285000D03*
X41210000Y-91735000D03*
%TD*%
D13*
%TO.C,D6*%
X59140000Y-77670000D03*
X61640000Y-77670000D03*
%TD*%
D14*
%TO.C,D1*%
X58975000Y-82325000D03*
X58975000Y-84225000D03*
X60975000Y-83275000D03*
%TD*%
D11*
%TO.C,J4*%
X44400000Y-73395000D03*
X44400000Y-74645000D03*
X44400000Y-75895000D03*
X44400000Y-77145000D03*
D12*
X41200000Y-71545000D03*
X41200000Y-78995000D03*
%TD*%
D15*
%TO.C,C3*%
X72000000Y-81600000D03*
X72000000Y-84000000D03*
%TD*%
D10*
%TO.C,U4*%
X205000000Y-52825000D03*
X203730000Y-52825000D03*
X202460000Y-52825000D03*
X201190000Y-52825000D03*
X201190000Y-59175000D03*
X202460000Y-59175000D03*
X203730000Y-59175000D03*
X205000000Y-59175000D03*
%TD*%
D11*
%TO.C,J1*%
X180410000Y-61135000D03*
X180410000Y-62385000D03*
X180410000Y-63635000D03*
X180410000Y-64885000D03*
D12*
X177210000Y-59285000D03*
X177210000Y-66735000D03*
%TD*%
D13*
%TO.C,D6*%
X195140000Y-52670000D03*
X197640000Y-52670000D03*
%TD*%
D14*
%TO.C,D1*%
X194975000Y-57325000D03*
X194975000Y-59225000D03*
X196975000Y-58275000D03*
%TD*%
D11*
%TO.C,J4*%
X180400000Y-48395000D03*
X180400000Y-49645000D03*
X180400000Y-50895000D03*
X180400000Y-52145000D03*
D12*
X177200000Y-46545000D03*
X177200000Y-53995000D03*
%TD*%
D15*
%TO.C,C3*%
X208000000Y-56600000D03*
X208000000Y-59000000D03*
%TD*%
D10*
%TO.C,U4*%
X171000000Y-52825000D03*
X169730000Y-52825000D03*
X168460000Y-52825000D03*
X167190000Y-52825000D03*
X167190000Y-59175000D03*
X168460000Y-59175000D03*
X169730000Y-59175000D03*
X171000000Y-59175000D03*
%TD*%
D11*
%TO.C,J1*%
X146410000Y-61135000D03*
X146410000Y-62385000D03*
X146410000Y-63635000D03*
X146410000Y-64885000D03*
D12*
X143210000Y-59285000D03*
X143210000Y-66735000D03*
%TD*%
D13*
%TO.C,D6*%
X161140000Y-52670000D03*
X163640000Y-52670000D03*
%TD*%
D14*
%TO.C,D1*%
X160975000Y-57325000D03*
X160975000Y-59225000D03*
X162975000Y-58275000D03*
%TD*%
D11*
%TO.C,J4*%
X146400000Y-48395000D03*
X146400000Y-49645000D03*
X146400000Y-50895000D03*
X146400000Y-52145000D03*
D12*
X143200000Y-46545000D03*
X143200000Y-53995000D03*
%TD*%
D15*
%TO.C,C3*%
X174000000Y-56600000D03*
X174000000Y-59000000D03*
%TD*%
D10*
%TO.C,U4*%
X137000000Y-52825000D03*
X135730000Y-52825000D03*
X134460000Y-52825000D03*
X133190000Y-52825000D03*
X133190000Y-59175000D03*
X134460000Y-59175000D03*
X135730000Y-59175000D03*
X137000000Y-59175000D03*
%TD*%
D11*
%TO.C,J1*%
X112410000Y-61135000D03*
X112410000Y-62385000D03*
X112410000Y-63635000D03*
X112410000Y-64885000D03*
D12*
X109210000Y-59285000D03*
X109210000Y-66735000D03*
%TD*%
D13*
%TO.C,D6*%
X127140000Y-52670000D03*
X129640000Y-52670000D03*
%TD*%
D14*
%TO.C,D1*%
X126975000Y-57325000D03*
X126975000Y-59225000D03*
X128975000Y-58275000D03*
%TD*%
D11*
%TO.C,J4*%
X112400000Y-48395000D03*
X112400000Y-49645000D03*
X112400000Y-50895000D03*
X112400000Y-52145000D03*
D12*
X109200000Y-46545000D03*
X109200000Y-53995000D03*
%TD*%
D15*
%TO.C,C3*%
X140000000Y-56600000D03*
X140000000Y-59000000D03*
%TD*%
D10*
%TO.C,U4*%
X103000000Y-52825000D03*
X101730000Y-52825000D03*
X100460000Y-52825000D03*
X99190000Y-52825000D03*
X99190000Y-59175000D03*
X100460000Y-59175000D03*
X101730000Y-59175000D03*
X103000000Y-59175000D03*
%TD*%
D11*
%TO.C,J1*%
X78410000Y-61135000D03*
X78410000Y-62385000D03*
X78410000Y-63635000D03*
X78410000Y-64885000D03*
D12*
X75210000Y-59285000D03*
X75210000Y-66735000D03*
%TD*%
D13*
%TO.C,D6*%
X93140000Y-52670000D03*
X95640000Y-52670000D03*
%TD*%
D14*
%TO.C,D1*%
X92975000Y-57325000D03*
X92975000Y-59225000D03*
X94975000Y-58275000D03*
%TD*%
D11*
%TO.C,J4*%
X78400000Y-48395000D03*
X78400000Y-49645000D03*
X78400000Y-50895000D03*
X78400000Y-52145000D03*
D12*
X75200000Y-46545000D03*
X75200000Y-53995000D03*
%TD*%
D15*
%TO.C,C3*%
X106000000Y-56600000D03*
X106000000Y-59000000D03*
%TD*%
D11*
%TO.C,J1*%
X44410000Y-61135000D03*
X44410000Y-62385000D03*
X44410000Y-63635000D03*
X44410000Y-64885000D03*
D12*
X41210000Y-59285000D03*
X41210000Y-66735000D03*
%TD*%
D10*
%TO.C,U4*%
X69000000Y-52825000D03*
X67730000Y-52825000D03*
X66460000Y-52825000D03*
X65190000Y-52825000D03*
X65190000Y-59175000D03*
X66460000Y-59175000D03*
X67730000Y-59175000D03*
X69000000Y-59175000D03*
%TD*%
D11*
%TO.C,J4*%
X44400000Y-48395000D03*
X44400000Y-49645000D03*
X44400000Y-50895000D03*
X44400000Y-52145000D03*
D12*
X41200000Y-46545000D03*
X41200000Y-53995000D03*
%TD*%
D15*
%TO.C,C3*%
X72000000Y-56600000D03*
X72000000Y-59000000D03*
%TD*%
D14*
%TO.C,D1*%
X58975000Y-57325000D03*
X58975000Y-59225000D03*
X60975000Y-58275000D03*
%TD*%
D13*
%TO.C,D6*%
X59140000Y-52670000D03*
X61640000Y-52670000D03*
%TD*%
M02*
