%TF.GenerationSoftware,KiCad,Pcbnew,8.0.8*%
%TF.CreationDate,2025-02-23T19:37:12+09:00*%
%TF.ProjectId,Marre-Cover-V2.2,4d617272-652d-4436-9f76-65722d56322e,rev?*%
%TF.SameCoordinates,Original*%
%TF.FileFunction,Profile,NP*%
%FSLAX46Y46*%
G04 Gerber Fmt 4.6, Leading zero omitted, Abs format (unit mm)*
G04 Created by KiCad (PCBNEW 8.0.8) date 2025-02-23 19:37:12*
%MOMM*%
%LPD*%
G01*
G04 APERTURE LIST*
%TA.AperFunction,Profile*%
%ADD10C,0.050000*%
%TD*%
%TA.AperFunction,Profile*%
%ADD11C,0.120000*%
%TD*%
G04 APERTURE END LIST*
D10*
X137280000Y-99200000D02*
G75*
G02*
X139280000Y-101200000I0J-2000000D01*
G01*
X181565000Y-118190003D02*
G75*
G02*
X181565000Y-110189997I0J4000003D01*
G01*
X29650000Y-175700000D02*
X182700000Y-175700000D01*
X27650000Y-101200000D02*
X27650000Y-173700000D01*
X181565000Y-118190003D02*
X184100000Y-118190003D01*
X155710000Y-112690000D02*
G75*
G02*
X153710000Y-114690000I-2000000J0D01*
G01*
X155710000Y-101200000D02*
X155710000Y-112690000D01*
X184700000Y-109590000D02*
G75*
G02*
X184100000Y-110190000I-600000J0D01*
G01*
X27650000Y-101200000D02*
G75*
G02*
X29650000Y-99200000I2000000J0D01*
G01*
X182700000Y-99200000D02*
G75*
G02*
X184700000Y-101200000I0J-2000000D01*
G01*
X184700000Y-118790000D02*
X184700000Y-173700000D01*
X153710000Y-114690000D02*
X141280000Y-114690000D01*
X184700000Y-173700000D02*
G75*
G02*
X182700000Y-175700000I-2000000J0D01*
G01*
X181565000Y-110189997D02*
X184100000Y-110189997D01*
X29650000Y-175700000D02*
G75*
G02*
X27650000Y-173700000I0J2000000D01*
G01*
X182700000Y-99200000D02*
X157710000Y-99200000D01*
X139280000Y-112690000D02*
X139280000Y-101200000D01*
X155710000Y-101200000D02*
G75*
G02*
X157710000Y-99200000I2000000J0D01*
G01*
X184700000Y-109590000D02*
X184700000Y-101200000D01*
X29650000Y-99200000D02*
X137280000Y-99200000D01*
X184100000Y-118190000D02*
G75*
G02*
X184700000Y-118790000I0J-600000D01*
G01*
X141280000Y-114690000D02*
G75*
G02*
X139280000Y-112690000I0J2000000D01*
G01*
X182700000Y-175700000D02*
X157710000Y-175700000D01*
X155710000Y-24700000D02*
G75*
G02*
X157710000Y-22700000I2000000J0D01*
G01*
X155710000Y-24700000D02*
X155710000Y-36190000D01*
X181565000Y-33689997D02*
X184100000Y-33689997D01*
X184700000Y-33090000D02*
X184700000Y-24700000D01*
X29650000Y-99200000D02*
G75*
G02*
X27650000Y-97200000I0J2000000D01*
G01*
X184700000Y-42290000D02*
X184700000Y-97200000D01*
X184700000Y-97200000D02*
G75*
G02*
X182700000Y-99200000I-2000000J0D01*
G01*
X182700000Y-22700000D02*
G75*
G02*
X184700000Y-24700000I0J-2000000D01*
G01*
X181565000Y-41690003D02*
X184100000Y-41690003D01*
X153710000Y-38190000D02*
X141280000Y-38190000D01*
X27650000Y-24700000D02*
G75*
G02*
X29650000Y-22700000I2000000J0D01*
G01*
X181565000Y-41690003D02*
G75*
G02*
X181565000Y-33689997I0J4000003D01*
G01*
X141280000Y-38190000D02*
G75*
G02*
X139280000Y-36190000I0J2000000D01*
G01*
X184700000Y-33090000D02*
G75*
G02*
X184100000Y-33690000I-600000J0D01*
G01*
X139280000Y-36190000D02*
X139280000Y-24700000D01*
X155710000Y-36190000D02*
G75*
G02*
X153710000Y-38190000I-2000000J0D01*
G01*
X184100000Y-41690000D02*
G75*
G02*
X184700000Y-42290000I0J-600000D01*
G01*
X27650000Y-24700000D02*
X27650000Y-97200000D01*
X182700000Y-22700000D02*
X157710000Y-22700000D01*
X29650000Y-99200000D02*
X182700000Y-99200000D01*
X182700000Y-99200000D02*
X157710000Y-99200000D01*
X137280000Y-22700000D02*
G75*
G02*
X139280000Y-24700000I0J-2000000D01*
G01*
X29650000Y-22700000D02*
X137280000Y-22700000D01*
%TO.C,SW6*%
X44195000Y-105520000D02*
X44195000Y-114280001D01*
X44415000Y-105300000D02*
X47975000Y-105299999D01*
X44415000Y-114500001D02*
X47975001Y-114500000D01*
X48195000Y-105519999D02*
X48195001Y-114280000D01*
X44195000Y-105520000D02*
G75*
G02*
X44415000Y-105300000I0J220000D01*
G01*
X44415000Y-114500001D02*
G75*
G02*
X44195000Y-114280001I-220000J0D01*
G01*
X47975000Y-105299999D02*
G75*
G02*
X48195000Y-105520000I220000J-1D01*
G01*
X48195001Y-114280000D02*
G75*
G02*
X47975000Y-114500000I-1J-220000D01*
G01*
%TO.C,U1*%
D11*
X78490000Y-107100000D02*
X76490000Y-107100000D01*
X76490000Y-128100000D01*
X78490000Y-128100000D01*
X78490000Y-107100000D01*
X78490000Y-30600000D02*
X76490000Y-30600000D01*
X76490000Y-51600000D01*
X78490000Y-51600000D01*
X78490000Y-30600000D01*
D10*
%TO.C,SW6*%
X44195000Y-29020000D02*
X44195000Y-37780001D01*
X44415000Y-28800000D02*
X47975000Y-28799999D01*
X44415000Y-38000001D02*
X47975001Y-38000000D01*
X48195000Y-29019999D02*
X48195001Y-37780000D01*
X44195000Y-29020000D02*
G75*
G02*
X44415000Y-28800000I0J220000D01*
G01*
X44415000Y-38000001D02*
G75*
G02*
X44195000Y-37780001I-220000J0D01*
G01*
X47975000Y-28799999D02*
G75*
G02*
X48195000Y-29020000I220000J-1D01*
G01*
X48195001Y-37780000D02*
G75*
G02*
X47975000Y-38000000I-1J-220000D01*
G01*
%TD*%
M02*
