M48
; DRILL file {KiCad 8.0.8} date 2025-02-23T19:37:08+0900
; FORMAT={-:-/ absolute / inch / decimal}
; #@! TF.CreationDate,2025-02-23T19:37:08+09:00
; #@! TF.GenerationSoftware,Kicad,Pcbnew,8.0.8
; #@! TF.FileFunction,Plated,1,2,PTH
FMAT,2
INCH
; #@! TA.AperFunction,Plated,PTH,ViaDrill
T1C0.0157
; #@! TA.AperFunction,Plated,PTH,ComponentDrill
T2C0.0354
; #@! TA.AperFunction,Plated,PTH,ComponentDrill
T3C0.1260
%
G90
G05
T1
X1.6063Y-3.0236
X1.6063Y-3.126
X1.6063Y-6.0354
X1.6063Y-6.1378
X1.7024Y-0.9984
X1.7024Y-4.0102
X1.8307Y-1.6142
X1.8307Y-4.626
X1.9028Y-2.0709
X1.9028Y-5.0827
X1.9165Y-0.9984
X1.9165Y-4.0102
X1.948Y-2.0886
X1.948Y-5.1004
X1.9565Y-1.4134
X1.9565Y-4.4252
X1.9894Y-2.1094
X1.9894Y-5.1213
X2.0118Y-1.948
X2.0118Y-4.9598
X2.0252Y-2.135
X2.0252Y-5.1469
X2.0256Y-1.6059
X2.0256Y-4.6177
X2.061Y-1.4154
X2.061Y-4.4272
X2.0669Y-1.7555
X2.0669Y-4.7673
X2.0673Y-2.2866
X2.0673Y-5.2984
X2.0776Y-1.4795
X2.0776Y-4.4913
X2.1043Y-2.1559
X2.1043Y-5.1677
X2.152Y-2.1835
X2.152Y-5.1953
X2.2425Y-1.4547
X2.2425Y-4.4665
X2.248Y-1.7343
X2.248Y-4.7461
X2.3063Y-3.0937
X2.3063Y-6.1055
X2.3071Y-1.7343
X2.3071Y-4.7461
X2.335Y-1.4543
X2.335Y-4.4661
X2.3563Y-1.7748
X2.3563Y-4.7866
X2.387Y-2.0449
X2.387Y-5.0567
X2.3878Y-1.7165
X2.3878Y-4.7283
X2.3882Y-1.4831
X2.3882Y-4.4949
X2.4366Y-2.3142
X2.4366Y-5.326
X2.4862Y-1.7165
X2.4862Y-4.7283
X2.487Y-2.0697
X2.487Y-5.0815
X2.5035Y-1.5858
X2.5035Y-4.5976
X2.5374Y-1.7165
X2.5374Y-4.7283
X2.5504Y-1.6075
X2.5504Y-4.6193
X2.5866Y-1.7165
X2.5866Y-4.7283
X2.587Y-2.0917
X2.587Y-5.1035
X2.6Y-1.6323
X2.6Y-4.6441
X2.6382Y-1.9469
X2.6382Y-4.9587
X2.6772Y-1.6713
X2.6772Y-4.6831
X2.687Y-2.1114
X2.687Y-5.1232
X2.787Y-2.1354
X2.787Y-5.1472
X2.8862Y-1.7744
X2.8862Y-4.7862
X2.887Y-2.1693
X2.887Y-5.1811
X3.0205Y-3.0937
X3.0205Y-6.1055
X3.7374Y-3.0937
X3.7374Y-6.1055
X4.2776Y-1.7293
X4.2776Y-4.7411
X4.2795Y-1.5207
X4.2795Y-4.5325
X4.7492Y-3.152
X4.7492Y-6.1638
X5.3697Y-1.9024
X5.3697Y-4.9142
X5.376Y-3.2185
X5.376Y-6.2303
X5.4976Y-2.1024
X5.4976Y-5.1142
X5.4996Y-2.1772
X5.4996Y-5.189
X5.5949Y-2.1583
X5.5949Y-5.1701
X5.5972Y-2.0575
X5.5972Y-5.0693
X5.6378Y-3.2047
X5.6378Y-6.2165
X5.6925Y-2.1528
X5.6925Y-5.1646
X5.6969Y-2.0197
X5.6969Y-5.0315
X5.7945Y-2.1476
X5.7945Y-5.1594
X5.8756Y-2.2382
X5.8756Y-5.25
X5.8969Y-1.8693
X5.8969Y-4.8811
X5.8972Y-1.7146
X5.8972Y-4.7264
X5.9961Y-1.8724
X5.9961Y-4.8843
X6.0768Y-2.1028
X6.0768Y-5.1146
X6.1114Y-2.0654
X6.1114Y-5.0772
X6.1453Y-3.0713
X6.1453Y-6.0831
X6.161Y-2.0335
X6.161Y-5.0453
X6.163Y-1.9571
X6.163Y-4.9689
X6.3091Y-1.9083
X6.3091Y-4.9201
X6.5843Y-3.0591
X6.5843Y-6.0709
T2
X1.2819Y-3.3205
X1.2819Y-6.3323
X1.6559Y-3.4051
X1.6559Y-6.4169
X1.9925Y-3.3205
X1.9925Y-6.3323
X2.3665Y-3.4051
X2.3665Y-6.4169
X2.7012Y-3.3205
X2.7012Y-6.3323
X3.0752Y-3.4051
X3.0752Y-6.4169
X3.4098Y-3.3205
X3.4098Y-6.3323
X3.7839Y-3.4051
X3.7839Y-6.4169
X4.4217Y-3.3205
X4.4217Y-6.3323
X4.7957Y-3.4051
X4.7957Y-6.4169
X5.1303Y-3.3205
X5.1303Y-6.3323
X5.5043Y-3.4051
X5.5043Y-6.4169
X5.839Y-3.3205
X5.839Y-6.3323
X6.213Y-3.4051
X6.213Y-6.4169
X6.5429Y-1.7142
X6.5429Y-2.1846
X6.5429Y-2.6819
X6.5429Y-3.3205
X6.5429Y-4.726
X6.5429Y-5.1965
X6.5429Y-5.6937
X6.5429Y-6.3323
X6.9169Y-1.7988
X6.9169Y-2.2693
X6.9169Y-2.7665
X6.9169Y-3.4051
X6.9169Y-4.8106
X6.9169Y-5.2811
X6.9169Y-5.7783
X6.9169Y-6.4169
T3
X1.3248Y-1.1299
X1.3248Y-4.1417
X4.2126Y-3.5709
X4.2126Y-6.5827
X7.0354Y-1.1299
X7.0354Y-4.1417
M30
