%TF.GenerationSoftware,KiCad,Pcbnew,8.0.8*%
%TF.CreationDate,2025-02-23T19:37:12+09:00*%
%TF.ProjectId,Marre-Cover-V2.2,4d617272-652d-4436-9f76-65722d56322e,rev?*%
%TF.SameCoordinates,Original*%
%TF.FileFunction,Copper,L1,Top*%
%TF.FilePolarity,Positive*%
%FSLAX46Y46*%
G04 Gerber Fmt 4.6, Leading zero omitted, Abs format (unit mm)*
G04 Created by KiCad (PCBNEW 8.0.8) date 2025-02-23 19:37:12*
%MOMM*%
%LPD*%
G01*
G04 APERTURE LIST*
%TA.AperFunction,ComponentPad*%
%ADD10C,2.500000*%
%TD*%
%TA.AperFunction,ComponentPad*%
%ADD11C,6.000000*%
%TD*%
%TA.AperFunction,SMDPad,CuDef*%
%ADD12R,1.500000X1.250000*%
%TD*%
%TA.AperFunction,ViaPad*%
%ADD13C,0.800000*%
%TD*%
%TA.AperFunction,Conductor*%
%ADD14C,0.300000*%
%TD*%
%TA.AperFunction,Conductor*%
%ADD15C,0.500000*%
%TD*%
G04 APERTURE END LIST*
D10*
%TO.P,SW10,1,A*%
%TO.N,Net-(D14-K)*%
X148310000Y-160840000D03*
%TO.P,SW10,2,B*%
%TO.N,Net-(SW10A-B)*%
X157810000Y-162990000D03*
%TD*%
D11*
%TO.P,H1,1*%
%TO.N,N/C*%
X33650000Y-105200000D03*
%TD*%
D10*
%TO.P,SW11,1,A*%
%TO.N,Net-(D15-K)*%
X166190000Y-160840000D03*
%TO.P,SW11,2,B*%
%TO.N,Net-(SW10A-B)*%
X175690000Y-162990000D03*
%TD*%
%TO.P,SW4,1,A*%
%TO.N,Net-(D4-K)*%
X68610000Y-160840000D03*
%TO.P,SW4,2,B*%
%TO.N,Net-(SW10A-B)*%
X78110000Y-162990000D03*
%TD*%
D11*
%TO.P,H2,1*%
%TO.N,N/C*%
X107000000Y-167200000D03*
%TD*%
D10*
%TO.P,SW7,1,A*%
%TO.N,Net-(D7-K)*%
X166190000Y-144620000D03*
%TO.P,SW7,2,B*%
%TO.N,Net-(SW10A-B)*%
X175690000Y-146770000D03*
%TD*%
%TO.P,SW3,1,A*%
%TO.N,Net-(D3-K)*%
X50610000Y-160840000D03*
%TO.P,SW3,2,B*%
%TO.N,Net-(SW10A-B)*%
X60110000Y-162990000D03*
%TD*%
%TO.P,SW8,1,A*%
%TO.N,Net-(D12-K)*%
X112310000Y-160840000D03*
%TO.P,SW8,2,B*%
%TO.N,Net-(SW10A-B)*%
X121810000Y-162990000D03*
%TD*%
%TO.P,SW1,1,A*%
%TO.N,Net-(D6-K)*%
X166190000Y-131990000D03*
%TO.P,SW1,2,B*%
%TO.N,Net-(SW10A-B)*%
X175690000Y-134140000D03*
%TD*%
D11*
%TO.P,H4,1*%
%TO.N,N/C*%
X178700000Y-105200000D03*
%TD*%
D10*
%TO.P,SW2,1,A*%
%TO.N,Net-(D2-K)*%
X32560000Y-160840000D03*
%TO.P,SW2,2,B*%
%TO.N,Net-(SW10A-B)*%
X42060000Y-162990000D03*
%TD*%
D12*
%TO.P,D1,1,K*%
%TO.N,GNDPWR*%
X44945000Y-101860000D03*
%TO.P,D1,2,A*%
%TO.N,Net-(D1-A)*%
X47445000Y-101860000D03*
%TD*%
D10*
%TO.P,SW12,1,A*%
%TO.N,Net-(D16-K)*%
X166190000Y-120040000D03*
%TO.P,SW12,2,B*%
%TO.N,Net-(SW10A-B)*%
X175690000Y-122190000D03*
%TD*%
%TO.P,SW5,1,A*%
%TO.N,Net-(D5-K)*%
X86610000Y-160840000D03*
%TO.P,SW5,2,B*%
%TO.N,Net-(SW10A-B)*%
X96110000Y-162990000D03*
%TD*%
%TO.P,SW9,1,A*%
%TO.N,Net-(D13-K)*%
X130310000Y-160840000D03*
%TO.P,SW9,2,B*%
%TO.N,Net-(SW10A-B)*%
X139810000Y-162990000D03*
%TD*%
%TO.P,SW9,1,A*%
%TO.N,Net-(D13-K)*%
X130310000Y-84340000D03*
%TO.P,SW9,2,B*%
%TO.N,Net-(SW10A-B)*%
X139810000Y-86490000D03*
%TD*%
%TO.P,SW2,1,A*%
%TO.N,Net-(D2-K)*%
X32560000Y-84340000D03*
%TO.P,SW2,2,B*%
%TO.N,Net-(SW10A-B)*%
X42060000Y-86490000D03*
%TD*%
%TO.P,SW12,1,A*%
%TO.N,Net-(D16-K)*%
X166190000Y-43540000D03*
%TO.P,SW12,2,B*%
%TO.N,Net-(SW10A-B)*%
X175690000Y-45690000D03*
%TD*%
D12*
%TO.P,D1,1,K*%
%TO.N,GNDPWR*%
X44945000Y-25360000D03*
%TO.P,D1,2,A*%
%TO.N,Net-(D1-A)*%
X47445000Y-25360000D03*
%TD*%
D11*
%TO.P,H4,1*%
%TO.N,N/C*%
X178700000Y-28700000D03*
%TD*%
D10*
%TO.P,SW1,1,A*%
%TO.N,Net-(D6-K)*%
X166190000Y-55490000D03*
%TO.P,SW1,2,B*%
%TO.N,Net-(SW10A-B)*%
X175690000Y-57640000D03*
%TD*%
%TO.P,SW8,1,A*%
%TO.N,Net-(D12-K)*%
X112310000Y-84340000D03*
%TO.P,SW8,2,B*%
%TO.N,Net-(SW10A-B)*%
X121810000Y-86490000D03*
%TD*%
D11*
%TO.P,H2,1*%
%TO.N,N/C*%
X107000000Y-90700000D03*
%TD*%
D10*
%TO.P,SW4,1,A*%
%TO.N,Net-(D4-K)*%
X68610000Y-84340000D03*
%TO.P,SW4,2,B*%
%TO.N,Net-(SW10A-B)*%
X78110000Y-86490000D03*
%TD*%
%TO.P,SW3,1,A*%
%TO.N,Net-(D3-K)*%
X50610000Y-84340000D03*
%TO.P,SW3,2,B*%
%TO.N,Net-(SW10A-B)*%
X60110000Y-86490000D03*
%TD*%
%TO.P,SW7,1,A*%
%TO.N,Net-(D7-K)*%
X166190000Y-68120000D03*
%TO.P,SW7,2,B*%
%TO.N,Net-(SW10A-B)*%
X175690000Y-70270000D03*
%TD*%
%TO.P,SW11,1,A*%
%TO.N,Net-(D15-K)*%
X166190000Y-84340000D03*
%TO.P,SW11,2,B*%
%TO.N,Net-(SW10A-B)*%
X175690000Y-86490000D03*
%TD*%
D11*
%TO.P,H1,1*%
%TO.N,N/C*%
X33650000Y-28700000D03*
%TD*%
D10*
%TO.P,SW10,1,A*%
%TO.N,Net-(D14-K)*%
X148310000Y-84340000D03*
%TO.P,SW10,2,B*%
%TO.N,Net-(SW10A-B)*%
X157810000Y-86490000D03*
%TD*%
%TO.P,SW5,1,A*%
%TO.N,Net-(D5-K)*%
X86610000Y-84340000D03*
%TO.P,SW5,2,B*%
%TO.N,Net-(SW10A-B)*%
X96110000Y-86490000D03*
%TD*%
D13*
%TO.N,+3.3V*%
X61890000Y-135280000D03*
%TO.N,Net-(J1-Pin_12)*%
X160250000Y-124970000D03*
X152300000Y-124060000D03*
X49695000Y-112400000D03*
X52350000Y-112450000D03*
%TO.N,Net-(J1-Pin_10)*%
X149790000Y-120050000D03*
%TO.N,/INV*%
X155230000Y-128960000D03*
%TO.N,ST-7789V-TP_TINT*%
X48330000Y-129100000D03*
%TO.N,/TV*%
X156490000Y-128150000D03*
%TO.N,/INV*%
X142170000Y-128760000D03*
%TO.N,/TV*%
X144700000Y-127800000D03*
%TO.N,+3.3V*%
X52500000Y-121090000D03*
%TO.N,ST-7789V-TP_TINT*%
X60660000Y-114170000D03*
%TO.N,+3.3V*%
X52770000Y-114080000D03*
%TO.N,ST-7789V-TP_SDA*%
X70790000Y-130740000D03*
%TO.N,ST-7789V-RESET*%
X63150000Y-120100000D03*
%TO.N,ST-7789V-TP_TINT*%
X60650000Y-120100000D03*
%TO.N,ST-7789V-TP_SDA*%
X53450000Y-131260000D03*
%TO.N,Net-(J1-Pin_10)*%
X149780000Y-123980000D03*
%TO.N,+3.3V*%
X52510000Y-134580000D03*
%TO.N,ST-7789V-TP_TINT*%
X60630000Y-128440000D03*
%TO.N,Net-(J1-Pin_12)*%
X136390000Y-124820000D03*
%TO.N,ST-7789V-SDA*%
X64780000Y-117330500D03*
%TO.N,ST-7789V-SCL*%
X66040000Y-117960000D03*
X65710000Y-129630000D03*
X50530000Y-130080000D03*
%TO.N,ST-7789V-SDA*%
X64450000Y-120100000D03*
%TO.N,ST-7789V-SCL*%
X65700000Y-120100000D03*
%TO.N,ST-7789V-RESET*%
X63170000Y-129070000D03*
X49480000Y-129550000D03*
X63590000Y-116780000D03*
%TO.N,GNDPWR*%
X108650000Y-120425000D03*
X51450000Y-117290000D03*
X144590000Y-131180000D03*
X120630000Y-156560000D03*
%TO.N,ST-7789V-LED_K*%
X73310000Y-121570000D03*
%TO.N,/LED_OUT_08*%
X154350000Y-129910000D03*
%TO.N,Net-(D1-A)*%
X48680000Y-101860000D03*
%TO.N,ST-7789V-LED_K*%
X54660000Y-131960000D03*
%TO.N,/LED_OUT_08*%
X139640000Y-129900000D03*
%TO.N,GNDPWR*%
X43240000Y-101860000D03*
%TO.N,ST-7789V-D{slash}C*%
X51440000Y-130730000D03*
X68250000Y-130130000D03*
%TO.N,ST-7789V-LED_K*%
X73330000Y-131600000D03*
X59850000Y-121580000D03*
%TO.N,GNDPWR*%
X147180000Y-131050000D03*
X156090000Y-154510000D03*
%TO.N,ST-7789V-CS*%
X51100000Y-125980000D03*
X67010000Y-125950000D03*
%TO.N,GNDPWR*%
X108700000Y-115125000D03*
X156540000Y-126210000D03*
X142110000Y-131320000D03*
X149240000Y-133350000D03*
X68000000Y-118950000D03*
X94930000Y-155080000D03*
X59310000Y-113440000D03*
X58580000Y-155080000D03*
X56960000Y-113450000D03*
X57100000Y-120550000D03*
X136550000Y-158250000D03*
X167240000Y-154200000D03*
X76720000Y-155080000D03*
X139690000Y-131800000D03*
X40800000Y-155900000D03*
X46500000Y-117500000D03*
X143200000Y-157900000D03*
X58600000Y-120550000D03*
X40800000Y-153300000D03*
%TO.N,+3.3V*%
X61890000Y-58780000D03*
%TO.N,GNDPWR*%
X59310000Y-36940000D03*
X156540000Y-49710000D03*
X108700000Y-38625000D03*
X94930000Y-78580000D03*
X149240000Y-56850000D03*
X68000000Y-42450000D03*
X142110000Y-54820000D03*
X139690000Y-55300000D03*
X76720000Y-78580000D03*
X58600000Y-44050000D03*
X143200000Y-81400000D03*
X46500000Y-41000000D03*
X40800000Y-79400000D03*
X57100000Y-44050000D03*
X58580000Y-78580000D03*
X56960000Y-36950000D03*
X167240000Y-77700000D03*
X136550000Y-81750000D03*
X40800000Y-76800000D03*
X144590000Y-54680000D03*
X51450000Y-40790000D03*
X108650000Y-43925000D03*
X43240000Y-25360000D03*
X156090000Y-78010000D03*
X147180000Y-54550000D03*
X120630000Y-80060000D03*
%TO.N,Net-(D1-A)*%
X48680000Y-25360000D03*
%TO.N,/LED_OUT_08*%
X154350000Y-53410000D03*
X139640000Y-53400000D03*
%TO.N,ST-7789V-LED_K*%
X54660000Y-55460000D03*
X73310000Y-45070000D03*
X59850000Y-45080000D03*
X73330000Y-55100000D03*
%TO.N,ST-7789V-D{slash}C*%
X68250000Y-53630000D03*
X51440000Y-54230000D03*
%TO.N,ST-7789V-CS*%
X67010000Y-49450000D03*
X51100000Y-49480000D03*
%TO.N,ST-7789V-SCL*%
X65710000Y-53130000D03*
X50530000Y-53580000D03*
X65700000Y-43600000D03*
X66040000Y-41460000D03*
%TO.N,ST-7789V-SDA*%
X64450000Y-43600000D03*
X64780000Y-40830500D03*
%TO.N,ST-7789V-RESET*%
X49480000Y-53050000D03*
X63590000Y-40280000D03*
X63170000Y-52570000D03*
X63150000Y-43600000D03*
%TO.N,ST-7789V-TP_SDA*%
X53450000Y-54760000D03*
X70790000Y-54240000D03*
%TO.N,ST-7789V-TP_TINT*%
X48330000Y-52600000D03*
X60650000Y-43600000D03*
X60630000Y-51940000D03*
X60660000Y-37670000D03*
%TO.N,+3.3V*%
X52500000Y-44590000D03*
X52770000Y-37580000D03*
X52510000Y-58080000D03*
%TO.N,/TV*%
X144700000Y-51300000D03*
X156490000Y-51650000D03*
%TO.N,/INV*%
X142170000Y-52260000D03*
X155230000Y-52460000D03*
%TO.N,Net-(J1-Pin_10)*%
X149790000Y-43550000D03*
X149780000Y-47480000D03*
%TO.N,Net-(J1-Pin_12)*%
X136390000Y-48320000D03*
X152300000Y-47560000D03*
X160250000Y-48470000D03*
X52350000Y-35950000D03*
X49695000Y-35900000D03*
%TD*%
D14*
%TO.N,+3.3V*%
X61040000Y-135280000D02*
X61890000Y-135280000D01*
X52510000Y-134580000D02*
X60340000Y-134580000D01*
X60340000Y-134580000D02*
X61040000Y-135280000D01*
D15*
%TO.N,Net-(J1-Pin_12)*%
X152340000Y-124990000D02*
X136560000Y-124990000D01*
X49745000Y-112450000D02*
X49695000Y-112400000D01*
X152300000Y-124950000D02*
X152340000Y-124990000D01*
X52350000Y-112450000D02*
X49745000Y-112450000D01*
%TO.N,Net-(J1-Pin_10)*%
X149780000Y-123980000D02*
X149780000Y-120060000D01*
%TO.N,Net-(J1-Pin_12)*%
X160250000Y-124970000D02*
X160230000Y-124990000D01*
X152300000Y-124060000D02*
X152300000Y-124950000D01*
X136560000Y-124990000D02*
X136390000Y-124820000D01*
X160230000Y-124990000D02*
X152340000Y-124990000D01*
%TO.N,Net-(J1-Pin_10)*%
X149780000Y-120060000D02*
X149790000Y-120050000D01*
D14*
%TO.N,/INV*%
X155230000Y-128960000D02*
X142370000Y-128960000D01*
%TO.N,/TV*%
X156490000Y-128150000D02*
X145050000Y-128150000D01*
X145050000Y-128150000D02*
X144700000Y-127800000D01*
%TO.N,/INV*%
X142370000Y-128960000D02*
X142170000Y-128760000D01*
%TO.N,ST-7789V-TP_SDA*%
X53450000Y-131260000D02*
X53700000Y-131010000D01*
%TO.N,ST-7789V-TP_TINT*%
X60660000Y-114170000D02*
X60650000Y-114180000D01*
X60320000Y-128750000D02*
X60630000Y-128440000D01*
%TO.N,+3.3V*%
X52500000Y-114350000D02*
X52500000Y-121090000D01*
X52770000Y-114080000D02*
X52500000Y-114350000D01*
%TO.N,ST-7789V-TP_SDA*%
X70520000Y-131010000D02*
X70790000Y-130740000D01*
%TO.N,ST-7789V-TP_TINT*%
X48680000Y-128750000D02*
X60320000Y-128750000D01*
X48330000Y-129100000D02*
X48680000Y-128750000D01*
%TO.N,ST-7789V-TP_SDA*%
X53700000Y-131010000D02*
X70520000Y-131010000D01*
%TO.N,ST-7789V-TP_TINT*%
X60650000Y-114180000D02*
X60650000Y-120100000D01*
%TO.N,ST-7789V-LED_K*%
X73310000Y-121570000D02*
X73290000Y-121590000D01*
%TO.N,/LED_OUT_08*%
X154350000Y-129910000D02*
X139650000Y-129910000D01*
%TO.N,ST-7789V-LED_K*%
X54660000Y-131960000D02*
X55020000Y-131600000D01*
X73290000Y-121590000D02*
X59860000Y-121590000D01*
%TO.N,/LED_OUT_08*%
X139650000Y-129910000D02*
X139640000Y-129900000D01*
%TO.N,ST-7789V-D{slash}C*%
X51730000Y-130440000D02*
X67940000Y-130440000D01*
X67940000Y-130440000D02*
X68250000Y-130130000D01*
%TO.N,ST-7789V-LED_K*%
X55020000Y-131600000D02*
X73330000Y-131600000D01*
X59860000Y-121590000D02*
X59850000Y-121580000D01*
%TO.N,ST-7789V-SCL*%
X65480000Y-129860000D02*
X65710000Y-129630000D01*
%TO.N,ST-7789V-SDA*%
X64450000Y-117660500D02*
X64450000Y-120100000D01*
%TO.N,ST-7789V-RESET*%
X63590000Y-116780000D02*
X63150000Y-117220000D01*
%TO.N,ST-7789V-D{slash}C*%
X51440000Y-130730000D02*
X51730000Y-130440000D01*
%TO.N,ST-7789V-RESET*%
X62950000Y-129290000D02*
X63170000Y-129070000D01*
%TO.N,ST-7789V-CS*%
X67010000Y-125950000D02*
X51130000Y-125950000D01*
%TO.N,ST-7789V-RESET*%
X49480000Y-129550000D02*
X49740000Y-129290000D01*
%TO.N,ST-7789V-SDA*%
X64780000Y-117330500D02*
X64450000Y-117660500D01*
%TO.N,ST-7789V-SCL*%
X65700000Y-120100000D02*
X65700000Y-118300000D01*
%TO.N,ST-7789V-RESET*%
X49740000Y-129290000D02*
X62950000Y-129290000D01*
%TO.N,ST-7789V-SCL*%
X65700000Y-118300000D02*
X66040000Y-117960000D01*
%TO.N,ST-7789V-RESET*%
X63150000Y-117220000D02*
X63150000Y-120100000D01*
%TO.N,ST-7789V-SCL*%
X50770000Y-130080000D02*
X50990000Y-129860000D01*
X50990000Y-129860000D02*
X65480000Y-129860000D01*
%TO.N,ST-7789V-CS*%
X51130000Y-125950000D02*
X51100000Y-125980000D01*
%TO.N,ST-7789V-SCL*%
X50530000Y-130080000D02*
X50770000Y-130080000D01*
%TO.N,Net-(D1-A)*%
X47445000Y-101860000D02*
X48680000Y-101860000D01*
%TO.N,+3.3V*%
X61040000Y-58780000D02*
X61890000Y-58780000D01*
X60340000Y-58080000D02*
X61040000Y-58780000D01*
X52510000Y-58080000D02*
X60340000Y-58080000D01*
%TO.N,Net-(D1-A)*%
X47445000Y-25360000D02*
X48680000Y-25360000D01*
%TO.N,/LED_OUT_08*%
X139650000Y-53410000D02*
X139640000Y-53400000D01*
X154350000Y-53410000D02*
X139650000Y-53410000D01*
%TO.N,ST-7789V-LED_K*%
X54660000Y-55460000D02*
X55020000Y-55100000D01*
X55020000Y-55100000D02*
X73330000Y-55100000D01*
X73310000Y-45070000D02*
X73290000Y-45090000D01*
X59860000Y-45090000D02*
X59850000Y-45080000D01*
X73290000Y-45090000D02*
X59860000Y-45090000D01*
%TO.N,ST-7789V-D{slash}C*%
X67940000Y-53940000D02*
X68250000Y-53630000D01*
X51730000Y-53940000D02*
X67940000Y-53940000D01*
X51440000Y-54230000D02*
X51730000Y-53940000D01*
%TO.N,ST-7789V-CS*%
X67010000Y-49450000D02*
X51130000Y-49450000D01*
X51130000Y-49450000D02*
X51100000Y-49480000D01*
%TO.N,ST-7789V-SCL*%
X50770000Y-53580000D02*
X50990000Y-53360000D01*
X50990000Y-53360000D02*
X65480000Y-53360000D01*
X65700000Y-41800000D02*
X66040000Y-41460000D01*
X65700000Y-43600000D02*
X65700000Y-41800000D01*
X50530000Y-53580000D02*
X50770000Y-53580000D01*
X65480000Y-53360000D02*
X65710000Y-53130000D01*
%TO.N,ST-7789V-SDA*%
X64450000Y-41160500D02*
X64450000Y-43600000D01*
X64780000Y-40830500D02*
X64450000Y-41160500D01*
%TO.N,ST-7789V-RESET*%
X49740000Y-52790000D02*
X62950000Y-52790000D01*
X63150000Y-40720000D02*
X63150000Y-43600000D01*
X62950000Y-52790000D02*
X63170000Y-52570000D01*
X49480000Y-53050000D02*
X49740000Y-52790000D01*
X63590000Y-40280000D02*
X63150000Y-40720000D01*
%TO.N,ST-7789V-TP_SDA*%
X53450000Y-54760000D02*
X53700000Y-54510000D01*
X70520000Y-54510000D02*
X70790000Y-54240000D01*
X53700000Y-54510000D02*
X70520000Y-54510000D01*
%TO.N,ST-7789V-TP_TINT*%
X60650000Y-37680000D02*
X60650000Y-43600000D01*
X60320000Y-52250000D02*
X60630000Y-51940000D01*
X48330000Y-52600000D02*
X48680000Y-52250000D01*
X48680000Y-52250000D02*
X60320000Y-52250000D01*
X60660000Y-37670000D02*
X60650000Y-37680000D01*
%TO.N,+3.3V*%
X52500000Y-37850000D02*
X52500000Y-44590000D01*
X52770000Y-37580000D02*
X52500000Y-37850000D01*
%TO.N,/TV*%
X145050000Y-51650000D02*
X144700000Y-51300000D01*
X156490000Y-51650000D02*
X145050000Y-51650000D01*
%TO.N,/INV*%
X142370000Y-52460000D02*
X142170000Y-52260000D01*
X155230000Y-52460000D02*
X142370000Y-52460000D01*
D15*
%TO.N,Net-(J1-Pin_10)*%
X149780000Y-47480000D02*
X149780000Y-43560000D01*
X149780000Y-43560000D02*
X149790000Y-43550000D01*
%TO.N,Net-(J1-Pin_12)*%
X160230000Y-48490000D02*
X152340000Y-48490000D01*
X52350000Y-35950000D02*
X49745000Y-35950000D01*
X152300000Y-47560000D02*
X152300000Y-48450000D01*
X136560000Y-48490000D02*
X136390000Y-48320000D01*
X152300000Y-48450000D02*
X152340000Y-48490000D01*
X49745000Y-35950000D02*
X49695000Y-35900000D01*
X160250000Y-48470000D02*
X160230000Y-48490000D01*
X152340000Y-48490000D02*
X136560000Y-48490000D01*
%TD*%
%TA.AperFunction,Conductor*%
%TO.N,GNDPWR*%
G36*
X137284487Y-22950821D02*
G01*
X137336090Y-22954511D01*
X137519998Y-22967664D01*
X137537784Y-22970222D01*
X137764083Y-23019451D01*
X137781322Y-23024511D01*
X137998331Y-23105452D01*
X138014678Y-23112918D01*
X138217944Y-23223910D01*
X138233067Y-23233629D01*
X138418467Y-23372417D01*
X138432053Y-23384190D01*
X138595809Y-23547946D01*
X138607582Y-23561532D01*
X138746370Y-23746932D01*
X138756089Y-23762055D01*
X138867081Y-23965321D01*
X138874550Y-23981674D01*
X138955485Y-24198669D01*
X138960549Y-24215919D01*
X139009776Y-24442210D01*
X139012335Y-24460004D01*
X139027673Y-24674467D01*
X139028527Y-24686402D01*
X139029179Y-24695511D01*
X139029500Y-24704500D01*
X139029500Y-36326133D01*
X139062317Y-36596401D01*
X139062318Y-36596407D01*
X139127473Y-36860753D01*
X139222785Y-37112069D01*
X139224019Y-37115322D01*
X139350544Y-37356397D01*
X139504888Y-37580002D01*
X139505209Y-37580466D01*
X139505213Y-37580471D01*
X139685747Y-37784252D01*
X139889528Y-37964786D01*
X139889533Y-37964790D01*
X139889538Y-37964794D01*
X140113603Y-38119456D01*
X140354678Y-38245981D01*
X140609246Y-38342526D01*
X140873595Y-38407682D01*
X141143870Y-38440500D01*
X141143874Y-38440500D01*
X153846126Y-38440500D01*
X153846130Y-38440500D01*
X154116405Y-38407682D01*
X154380754Y-38342526D01*
X154635322Y-38245981D01*
X154876397Y-38119456D01*
X155100462Y-37964794D01*
X155304252Y-37784252D01*
X155484794Y-37580462D01*
X155639456Y-37356397D01*
X155765981Y-37115322D01*
X155862526Y-36860754D01*
X155927682Y-36596405D01*
X155960500Y-36326130D01*
X155960500Y-36190000D01*
X155960500Y-36145830D01*
X155960500Y-28699996D01*
X175394652Y-28699996D01*
X175394652Y-28700003D01*
X175414028Y-29057371D01*
X175471928Y-29410548D01*
X175471928Y-29410551D01*
X175567674Y-29755399D01*
X175567675Y-29755402D01*
X175700142Y-30087868D01*
X175700149Y-30087884D01*
X175867782Y-30404074D01*
X175867788Y-30404084D01*
X175867789Y-30404085D01*
X176068635Y-30700311D01*
X176300332Y-30973086D01*
X176300335Y-30973088D01*
X176300336Y-30973090D01*
X176560148Y-31219198D01*
X176560156Y-31219205D01*
X176560163Y-31219211D01*
X176845081Y-31435800D01*
X177151747Y-31620315D01*
X177476565Y-31770591D01*
X177697928Y-31845177D01*
X177815719Y-31884866D01*
X177815721Y-31884866D01*
X177815726Y-31884868D01*
X178165254Y-31961805D01*
X178521052Y-32000500D01*
X178521060Y-32000500D01*
X178878940Y-32000500D01*
X178878948Y-32000500D01*
X179234746Y-31961805D01*
X179584274Y-31884868D01*
X179923435Y-31770591D01*
X180248253Y-31620315D01*
X180554919Y-31435800D01*
X180839837Y-31219211D01*
X181099668Y-30973086D01*
X181331365Y-30700311D01*
X181532211Y-30404085D01*
X181699853Y-30087880D01*
X181832324Y-29755403D01*
X181928071Y-29410552D01*
X181985972Y-29057371D01*
X182005348Y-28700000D01*
X182004874Y-28691266D01*
X181997188Y-28549499D01*
X181985972Y-28342629D01*
X181928071Y-27989448D01*
X181832324Y-27644597D01*
X181699853Y-27312120D01*
X181643972Y-27206718D01*
X181532217Y-26995925D01*
X181532211Y-26995915D01*
X181331365Y-26699689D01*
X181099668Y-26426914D01*
X181099663Y-26426909D01*
X180839851Y-26180801D01*
X180839841Y-26180793D01*
X180839837Y-26180789D01*
X180554919Y-25964200D01*
X180248253Y-25779685D01*
X179923435Y-25629409D01*
X179919877Y-25628210D01*
X179584280Y-25515133D01*
X179584275Y-25515132D01*
X179234762Y-25438198D01*
X179234749Y-25438195D01*
X179234746Y-25438195D01*
X179234743Y-25438194D01*
X179234734Y-25438193D01*
X178878955Y-25399500D01*
X178878948Y-25399500D01*
X178521052Y-25399500D01*
X178521044Y-25399500D01*
X178165265Y-25438193D01*
X178165237Y-25438198D01*
X177815724Y-25515132D01*
X177815719Y-25515133D01*
X177476567Y-25629408D01*
X177476565Y-25629409D01*
X177350076Y-25687929D01*
X177151741Y-25779688D01*
X176845082Y-25964199D01*
X176845076Y-25964203D01*
X176560164Y-26180788D01*
X176560148Y-26180801D01*
X176300336Y-26426909D01*
X176252351Y-26483400D01*
X176068635Y-26699689D01*
X176068631Y-26699694D01*
X176068630Y-26699696D01*
X175867788Y-26995915D01*
X175867782Y-26995925D01*
X175700149Y-27312115D01*
X175700142Y-27312131D01*
X175567675Y-27644597D01*
X175567674Y-27644600D01*
X175471928Y-27989448D01*
X175471928Y-27989451D01*
X175414028Y-28342628D01*
X175394652Y-28699996D01*
X155960500Y-28699996D01*
X155960500Y-24704500D01*
X155960821Y-24695512D01*
X155976034Y-24482795D01*
X155977664Y-24459999D01*
X155980221Y-24442216D01*
X156029451Y-24215912D01*
X156034510Y-24198681D01*
X156115454Y-23981662D01*
X156122918Y-23965321D01*
X156233910Y-23762055D01*
X156243625Y-23746937D01*
X156382423Y-23561524D01*
X156394183Y-23547953D01*
X156557953Y-23384183D01*
X156571524Y-23372423D01*
X156756937Y-23233625D01*
X156772055Y-23223910D01*
X156975321Y-23112918D01*
X156991662Y-23105454D01*
X157208681Y-23024510D01*
X157225912Y-23019451D01*
X157452216Y-22970221D01*
X157469999Y-22967664D01*
X157661515Y-22953967D01*
X157705513Y-22950821D01*
X157714501Y-22950500D01*
X157754170Y-22950500D01*
X182655830Y-22950500D01*
X182695499Y-22950500D01*
X182704487Y-22950821D01*
X182756090Y-22954511D01*
X182939998Y-22967664D01*
X182957784Y-22970222D01*
X183184083Y-23019451D01*
X183201322Y-23024511D01*
X183418331Y-23105452D01*
X183434678Y-23112918D01*
X183637944Y-23223910D01*
X183653067Y-23233629D01*
X183838467Y-23372417D01*
X183852053Y-23384190D01*
X184015809Y-23547946D01*
X184027582Y-23561532D01*
X184166370Y-23746932D01*
X184176089Y-23762055D01*
X184287081Y-23965321D01*
X184294550Y-23981674D01*
X184375485Y-24198669D01*
X184380549Y-24215919D01*
X184429776Y-24442210D01*
X184432335Y-24460004D01*
X184447673Y-24674467D01*
X184448527Y-24686402D01*
X184449179Y-24695511D01*
X184449500Y-24704500D01*
X184449500Y-33081742D01*
X184448422Y-33098189D01*
X184439756Y-33164010D01*
X184431243Y-33195781D01*
X184409024Y-33249423D01*
X184392578Y-33277909D01*
X184357232Y-33323973D01*
X184333973Y-33347232D01*
X184287909Y-33382578D01*
X184259423Y-33399024D01*
X184205781Y-33421243D01*
X184174010Y-33429756D01*
X184125838Y-33436098D01*
X184108210Y-33438419D01*
X184091765Y-33439497D01*
X181609170Y-33439497D01*
X181565000Y-33439497D01*
X181362524Y-33439497D01*
X181362522Y-33439497D01*
X181362504Y-33439498D01*
X180959410Y-33477989D01*
X180959391Y-33477991D01*
X180561774Y-33554627D01*
X180561758Y-33554631D01*
X180173216Y-33668717D01*
X179797289Y-33819215D01*
X179797267Y-33819225D01*
X179437338Y-34004782D01*
X179096671Y-34223715D01*
X179096665Y-34223719D01*
X178778364Y-34474034D01*
X178778359Y-34474038D01*
X178778356Y-34474041D01*
X178636646Y-34609162D01*
X178485281Y-34753488D01*
X178220095Y-35059527D01*
X178220094Y-35059528D01*
X178091431Y-35240210D01*
X177992245Y-35379498D01*
X177985187Y-35389409D01*
X177985185Y-35389412D01*
X177782716Y-35740099D01*
X177614496Y-36108451D01*
X177614495Y-36108455D01*
X177482048Y-36491133D01*
X177482045Y-36491143D01*
X177417686Y-36756438D01*
X177386576Y-36884675D01*
X177333753Y-37252070D01*
X177328943Y-37285522D01*
X177309677Y-37689993D01*
X177309677Y-37690006D01*
X177328943Y-38094477D01*
X177328944Y-38094489D01*
X177328945Y-38094494D01*
X177383570Y-38474415D01*
X177386576Y-38495324D01*
X177482045Y-38888856D01*
X177482048Y-38888866D01*
X177614495Y-39271544D01*
X177614496Y-39271548D01*
X177782716Y-39639900D01*
X177985185Y-39990587D01*
X177985187Y-39990590D01*
X177985190Y-39990594D01*
X177985194Y-39990601D01*
X178220090Y-40320466D01*
X178485278Y-40626509D01*
X178778356Y-40905959D01*
X179096670Y-41156284D01*
X179437339Y-41375218D01*
X179691727Y-41506364D01*
X179751266Y-41537059D01*
X179797275Y-41560778D01*
X179797281Y-41560780D01*
X179797289Y-41560784D01*
X179960476Y-41626114D01*
X180173220Y-41711284D01*
X180561770Y-41825372D01*
X180801914Y-41871656D01*
X180959391Y-41902008D01*
X180959396Y-41902008D01*
X180959404Y-41902010D01*
X181362524Y-41940503D01*
X181515172Y-41940503D01*
X184091765Y-41940503D01*
X184108210Y-41941581D01*
X184125308Y-41943831D01*
X184174011Y-41950243D01*
X184205778Y-41958755D01*
X184259425Y-41980976D01*
X184287907Y-41997420D01*
X184296292Y-42003854D01*
X184333973Y-42032767D01*
X184357232Y-42056026D01*
X184392578Y-42102090D01*
X184409024Y-42130576D01*
X184431243Y-42184218D01*
X184439756Y-42215989D01*
X184448422Y-42281810D01*
X184449500Y-42298257D01*
X184449500Y-97195499D01*
X184449179Y-97204488D01*
X184432335Y-97439995D01*
X184429776Y-97457789D01*
X184380549Y-97684080D01*
X184375485Y-97701330D01*
X184294550Y-97918325D01*
X184287081Y-97934678D01*
X184176089Y-98137944D01*
X184166370Y-98153067D01*
X184027582Y-98338467D01*
X184015809Y-98352053D01*
X183852053Y-98515809D01*
X183838467Y-98527582D01*
X183653067Y-98666370D01*
X183637944Y-98676089D01*
X183434678Y-98787081D01*
X183418325Y-98794550D01*
X183201330Y-98875485D01*
X183184080Y-98880549D01*
X182957789Y-98929776D01*
X182939995Y-98932335D01*
X182704488Y-98949179D01*
X182695499Y-98949500D01*
X29654501Y-98949500D01*
X29645512Y-98949179D01*
X29410004Y-98932335D01*
X29392210Y-98929776D01*
X29165919Y-98880549D01*
X29148669Y-98875485D01*
X28931674Y-98794550D01*
X28915321Y-98787081D01*
X28712055Y-98676089D01*
X28696932Y-98666370D01*
X28511532Y-98527582D01*
X28497946Y-98515809D01*
X28334190Y-98352053D01*
X28322417Y-98338467D01*
X28183629Y-98153067D01*
X28173910Y-98137944D01*
X28062918Y-97934678D01*
X28055452Y-97918331D01*
X27974511Y-97701322D01*
X27969450Y-97684080D01*
X27920223Y-97457789D01*
X27917664Y-97439994D01*
X27900821Y-97204487D01*
X27900500Y-97195499D01*
X27900500Y-90699996D01*
X103694652Y-90699996D01*
X103694652Y-90700003D01*
X103714028Y-91057371D01*
X103771928Y-91410548D01*
X103771928Y-91410551D01*
X103867674Y-91755399D01*
X103867675Y-91755402D01*
X104000142Y-92087868D01*
X104000149Y-92087884D01*
X104167782Y-92404074D01*
X104167788Y-92404084D01*
X104167789Y-92404085D01*
X104368635Y-92700311D01*
X104600332Y-92973086D01*
X104600335Y-92973088D01*
X104600336Y-92973090D01*
X104860148Y-93219198D01*
X104860156Y-93219205D01*
X104860163Y-93219211D01*
X105145081Y-93435800D01*
X105451747Y-93620315D01*
X105776565Y-93770591D01*
X105997928Y-93845177D01*
X106115719Y-93884866D01*
X106115721Y-93884866D01*
X106115726Y-93884868D01*
X106465254Y-93961805D01*
X106821052Y-94000500D01*
X106821060Y-94000500D01*
X107178940Y-94000500D01*
X107178948Y-94000500D01*
X107534746Y-93961805D01*
X107884274Y-93884868D01*
X108223435Y-93770591D01*
X108548253Y-93620315D01*
X108854919Y-93435800D01*
X109139837Y-93219211D01*
X109399668Y-92973086D01*
X109631365Y-92700311D01*
X109832211Y-92404085D01*
X109999853Y-92087880D01*
X110132324Y-91755403D01*
X110228071Y-91410552D01*
X110285972Y-91057371D01*
X110305348Y-90700000D01*
X110285972Y-90342629D01*
X110228071Y-89989448D01*
X110132324Y-89644597D01*
X109999853Y-89312120D01*
X109943972Y-89206718D01*
X109832217Y-88995925D01*
X109832211Y-88995915D01*
X109631365Y-88699689D01*
X109399668Y-88426914D01*
X109399663Y-88426909D01*
X109139851Y-88180801D01*
X109139841Y-88180793D01*
X109139837Y-88180789D01*
X108854919Y-87964200D01*
X108548253Y-87779685D01*
X108223435Y-87629409D01*
X108219877Y-87628210D01*
X107884280Y-87515133D01*
X107884275Y-87515132D01*
X107534762Y-87438198D01*
X107534749Y-87438195D01*
X107534746Y-87438195D01*
X107534743Y-87438194D01*
X107534734Y-87438193D01*
X107178955Y-87399500D01*
X107178948Y-87399500D01*
X106821052Y-87399500D01*
X106821044Y-87399500D01*
X106465265Y-87438193D01*
X106465237Y-87438198D01*
X106115724Y-87515132D01*
X106115719Y-87515133D01*
X105776567Y-87629408D01*
X105451741Y-87779688D01*
X105145082Y-87964199D01*
X105145076Y-87964203D01*
X104860164Y-88180788D01*
X104860148Y-88180801D01*
X104600336Y-88426909D01*
X104600332Y-88426914D01*
X104368635Y-88699689D01*
X104368631Y-88699694D01*
X104368630Y-88699696D01*
X104167788Y-88995915D01*
X104167782Y-88995925D01*
X104000149Y-89312115D01*
X104000142Y-89312131D01*
X103867675Y-89644597D01*
X103867674Y-89644600D01*
X103771928Y-89989448D01*
X103771928Y-89989451D01*
X103714028Y-90342628D01*
X103694652Y-90699996D01*
X27900500Y-90699996D01*
X27900500Y-86490000D01*
X40504706Y-86490000D01*
X40523854Y-86733302D01*
X40580827Y-86970609D01*
X40674222Y-87196087D01*
X40801742Y-87404180D01*
X40801743Y-87404182D01*
X40960240Y-87589759D01*
X41145817Y-87748256D01*
X41145821Y-87748259D01*
X41353911Y-87875777D01*
X41579388Y-87969172D01*
X41816698Y-88026146D01*
X42060000Y-88045294D01*
X42303302Y-88026146D01*
X42540612Y-87969172D01*
X42766089Y-87875777D01*
X42974179Y-87748259D01*
X43159759Y-87589759D01*
X43318259Y-87404179D01*
X43445777Y-87196089D01*
X43539172Y-86970612D01*
X43596146Y-86733302D01*
X43615294Y-86490000D01*
X58554706Y-86490000D01*
X58573854Y-86733302D01*
X58630827Y-86970609D01*
X58724222Y-87196087D01*
X58851742Y-87404180D01*
X58851743Y-87404182D01*
X59010240Y-87589759D01*
X59195817Y-87748256D01*
X59195821Y-87748259D01*
X59403911Y-87875777D01*
X59629388Y-87969172D01*
X59866698Y-88026146D01*
X60110000Y-88045294D01*
X60353302Y-88026146D01*
X60590612Y-87969172D01*
X60816089Y-87875777D01*
X61024179Y-87748259D01*
X61209759Y-87589759D01*
X61368259Y-87404179D01*
X61495777Y-87196089D01*
X61589172Y-86970612D01*
X61646146Y-86733302D01*
X61665294Y-86490000D01*
X76554706Y-86490000D01*
X76573854Y-86733302D01*
X76630827Y-86970609D01*
X76724222Y-87196087D01*
X76851742Y-87404180D01*
X76851743Y-87404182D01*
X77010240Y-87589759D01*
X77195817Y-87748256D01*
X77195821Y-87748259D01*
X77403911Y-87875777D01*
X77629388Y-87969172D01*
X77866698Y-88026146D01*
X78110000Y-88045294D01*
X78353302Y-88026146D01*
X78590612Y-87969172D01*
X78816089Y-87875777D01*
X79024179Y-87748259D01*
X79209759Y-87589759D01*
X79368259Y-87404179D01*
X79495777Y-87196089D01*
X79589172Y-86970612D01*
X79646146Y-86733302D01*
X79665294Y-86490000D01*
X94554706Y-86490000D01*
X94573854Y-86733302D01*
X94630827Y-86970609D01*
X94724222Y-87196087D01*
X94851742Y-87404180D01*
X94851743Y-87404182D01*
X95010240Y-87589759D01*
X95195817Y-87748256D01*
X95195821Y-87748259D01*
X95403911Y-87875777D01*
X95629388Y-87969172D01*
X95866698Y-88026146D01*
X96110000Y-88045294D01*
X96353302Y-88026146D01*
X96590612Y-87969172D01*
X96816089Y-87875777D01*
X97024179Y-87748259D01*
X97209759Y-87589759D01*
X97368259Y-87404179D01*
X97495777Y-87196089D01*
X97589172Y-86970612D01*
X97646146Y-86733302D01*
X97665294Y-86490000D01*
X120254706Y-86490000D01*
X120273854Y-86733302D01*
X120330827Y-86970609D01*
X120424222Y-87196087D01*
X120551742Y-87404180D01*
X120551743Y-87404182D01*
X120710240Y-87589759D01*
X120895817Y-87748256D01*
X120895821Y-87748259D01*
X121103911Y-87875777D01*
X121329388Y-87969172D01*
X121566698Y-88026146D01*
X121810000Y-88045294D01*
X122053302Y-88026146D01*
X122290612Y-87969172D01*
X122516089Y-87875777D01*
X122724179Y-87748259D01*
X122909759Y-87589759D01*
X123068259Y-87404179D01*
X123195777Y-87196089D01*
X123289172Y-86970612D01*
X123346146Y-86733302D01*
X123365294Y-86490000D01*
X138254706Y-86490000D01*
X138273854Y-86733302D01*
X138330827Y-86970609D01*
X138424222Y-87196087D01*
X138551742Y-87404180D01*
X138551743Y-87404182D01*
X138710240Y-87589759D01*
X138895817Y-87748256D01*
X138895821Y-87748259D01*
X139103911Y-87875777D01*
X139329388Y-87969172D01*
X139566698Y-88026146D01*
X139810000Y-88045294D01*
X140053302Y-88026146D01*
X140290612Y-87969172D01*
X140516089Y-87875777D01*
X140724179Y-87748259D01*
X140909759Y-87589759D01*
X141068259Y-87404179D01*
X141195777Y-87196089D01*
X141289172Y-86970612D01*
X141346146Y-86733302D01*
X141365294Y-86490000D01*
X156254706Y-86490000D01*
X156273854Y-86733302D01*
X156330827Y-86970609D01*
X156424222Y-87196087D01*
X156551742Y-87404180D01*
X156551743Y-87404182D01*
X156710240Y-87589759D01*
X156895817Y-87748256D01*
X156895821Y-87748259D01*
X157103911Y-87875777D01*
X157329388Y-87969172D01*
X157566698Y-88026146D01*
X157810000Y-88045294D01*
X158053302Y-88026146D01*
X158290612Y-87969172D01*
X158516089Y-87875777D01*
X158724179Y-87748259D01*
X158909759Y-87589759D01*
X159068259Y-87404179D01*
X159195777Y-87196089D01*
X159289172Y-86970612D01*
X159346146Y-86733302D01*
X159365294Y-86490000D01*
X174134706Y-86490000D01*
X174153854Y-86733302D01*
X174210827Y-86970609D01*
X174304222Y-87196087D01*
X174431742Y-87404180D01*
X174431743Y-87404182D01*
X174590240Y-87589759D01*
X174775817Y-87748256D01*
X174775821Y-87748259D01*
X174983911Y-87875777D01*
X175209388Y-87969172D01*
X175446698Y-88026146D01*
X175690000Y-88045294D01*
X175933302Y-88026146D01*
X176170612Y-87969172D01*
X176396089Y-87875777D01*
X176604179Y-87748259D01*
X176789759Y-87589759D01*
X176948259Y-87404179D01*
X177075777Y-87196089D01*
X177169172Y-86970612D01*
X177226146Y-86733302D01*
X177245294Y-86490000D01*
X177226146Y-86246698D01*
X177169172Y-86009388D01*
X177075777Y-85783911D01*
X176948259Y-85575821D01*
X176948256Y-85575817D01*
X176789759Y-85390240D01*
X176604182Y-85231743D01*
X176604180Y-85231742D01*
X176604179Y-85231741D01*
X176396089Y-85104223D01*
X176170612Y-85010828D01*
X176170610Y-85010827D01*
X176170609Y-85010827D01*
X176042900Y-84980166D01*
X175933302Y-84953854D01*
X175933303Y-84953854D01*
X175690000Y-84934706D01*
X175446697Y-84953854D01*
X175209390Y-85010827D01*
X174983912Y-85104222D01*
X174775819Y-85231742D01*
X174775817Y-85231743D01*
X174590240Y-85390240D01*
X174431743Y-85575817D01*
X174431742Y-85575819D01*
X174304222Y-85783912D01*
X174210827Y-86009390D01*
X174153854Y-86246697D01*
X174134706Y-86490000D01*
X159365294Y-86490000D01*
X159346146Y-86246698D01*
X159289172Y-86009388D01*
X159195777Y-85783911D01*
X159068259Y-85575821D01*
X159068256Y-85575817D01*
X158909759Y-85390240D01*
X158724182Y-85231743D01*
X158724180Y-85231742D01*
X158724179Y-85231741D01*
X158516089Y-85104223D01*
X158290612Y-85010828D01*
X158290610Y-85010827D01*
X158290609Y-85010827D01*
X158162900Y-84980166D01*
X158053302Y-84953854D01*
X158053303Y-84953854D01*
X157810000Y-84934706D01*
X157566697Y-84953854D01*
X157329390Y-85010827D01*
X157103912Y-85104222D01*
X156895819Y-85231742D01*
X156895817Y-85231743D01*
X156710240Y-85390240D01*
X156551743Y-85575817D01*
X156551742Y-85575819D01*
X156424222Y-85783912D01*
X156330827Y-86009390D01*
X156273854Y-86246697D01*
X156254706Y-86490000D01*
X141365294Y-86490000D01*
X141346146Y-86246698D01*
X141289172Y-86009388D01*
X141195777Y-85783911D01*
X141068259Y-85575821D01*
X141068256Y-85575817D01*
X140909759Y-85390240D01*
X140724182Y-85231743D01*
X140724180Y-85231742D01*
X140724179Y-85231741D01*
X140516089Y-85104223D01*
X140290612Y-85010828D01*
X140290610Y-85010827D01*
X140290609Y-85010827D01*
X140162900Y-84980166D01*
X140053302Y-84953854D01*
X140053303Y-84953854D01*
X139810000Y-84934706D01*
X139566697Y-84953854D01*
X139329390Y-85010827D01*
X139103912Y-85104222D01*
X138895819Y-85231742D01*
X138895817Y-85231743D01*
X138710240Y-85390240D01*
X138551743Y-85575817D01*
X138551742Y-85575819D01*
X138424222Y-85783912D01*
X138330827Y-86009390D01*
X138273854Y-86246697D01*
X138254706Y-86490000D01*
X123365294Y-86490000D01*
X123346146Y-86246698D01*
X123289172Y-86009388D01*
X123195777Y-85783911D01*
X123068259Y-85575821D01*
X123068256Y-85575817D01*
X122909759Y-85390240D01*
X122724182Y-85231743D01*
X122724180Y-85231742D01*
X122724179Y-85231741D01*
X122516089Y-85104223D01*
X122290612Y-85010828D01*
X122290610Y-85010827D01*
X122290609Y-85010827D01*
X122162900Y-84980166D01*
X122053302Y-84953854D01*
X122053303Y-84953854D01*
X121810000Y-84934706D01*
X121566697Y-84953854D01*
X121329390Y-85010827D01*
X121103912Y-85104222D01*
X120895819Y-85231742D01*
X120895817Y-85231743D01*
X120710240Y-85390240D01*
X120551743Y-85575817D01*
X120551742Y-85575819D01*
X120424222Y-85783912D01*
X120330827Y-86009390D01*
X120273854Y-86246697D01*
X120254706Y-86490000D01*
X97665294Y-86490000D01*
X97646146Y-86246698D01*
X97589172Y-86009388D01*
X97495777Y-85783911D01*
X97368259Y-85575821D01*
X97368256Y-85575817D01*
X97209759Y-85390240D01*
X97024182Y-85231743D01*
X97024180Y-85231742D01*
X97024179Y-85231741D01*
X96816089Y-85104223D01*
X96590612Y-85010828D01*
X96590610Y-85010827D01*
X96590609Y-85010827D01*
X96462900Y-84980166D01*
X96353302Y-84953854D01*
X96353303Y-84953854D01*
X96110000Y-84934706D01*
X95866697Y-84953854D01*
X95629390Y-85010827D01*
X95403912Y-85104222D01*
X95195819Y-85231742D01*
X95195817Y-85231743D01*
X95010240Y-85390240D01*
X94851743Y-85575817D01*
X94851742Y-85575819D01*
X94724222Y-85783912D01*
X94630827Y-86009390D01*
X94573854Y-86246697D01*
X94554706Y-86490000D01*
X79665294Y-86490000D01*
X79646146Y-86246698D01*
X79589172Y-86009388D01*
X79495777Y-85783911D01*
X79368259Y-85575821D01*
X79368256Y-85575817D01*
X79209759Y-85390240D01*
X79024182Y-85231743D01*
X79024180Y-85231742D01*
X79024179Y-85231741D01*
X78816089Y-85104223D01*
X78590612Y-85010828D01*
X78590610Y-85010827D01*
X78590609Y-85010827D01*
X78462900Y-84980166D01*
X78353302Y-84953854D01*
X78353303Y-84953854D01*
X78110000Y-84934706D01*
X77866697Y-84953854D01*
X77629390Y-85010827D01*
X77403912Y-85104222D01*
X77195819Y-85231742D01*
X77195817Y-85231743D01*
X77010240Y-85390240D01*
X76851743Y-85575817D01*
X76851742Y-85575819D01*
X76724222Y-85783912D01*
X76630827Y-86009390D01*
X76573854Y-86246697D01*
X76554706Y-86490000D01*
X61665294Y-86490000D01*
X61646146Y-86246698D01*
X61589172Y-86009388D01*
X61495777Y-85783911D01*
X61368259Y-85575821D01*
X61368256Y-85575817D01*
X61209759Y-85390240D01*
X61024182Y-85231743D01*
X61024180Y-85231742D01*
X61024179Y-85231741D01*
X60816089Y-85104223D01*
X60590612Y-85010828D01*
X60590610Y-85010827D01*
X60590609Y-85010827D01*
X60462900Y-84980166D01*
X60353302Y-84953854D01*
X60353303Y-84953854D01*
X60110000Y-84934706D01*
X59866697Y-84953854D01*
X59629390Y-85010827D01*
X59403912Y-85104222D01*
X59195819Y-85231742D01*
X59195817Y-85231743D01*
X59010240Y-85390240D01*
X58851743Y-85575817D01*
X58851742Y-85575819D01*
X58724222Y-85783912D01*
X58630827Y-86009390D01*
X58573854Y-86246697D01*
X58554706Y-86490000D01*
X43615294Y-86490000D01*
X43596146Y-86246698D01*
X43539172Y-86009388D01*
X43445777Y-85783911D01*
X43318259Y-85575821D01*
X43318256Y-85575817D01*
X43159759Y-85390240D01*
X42974182Y-85231743D01*
X42974180Y-85231742D01*
X42974179Y-85231741D01*
X42766089Y-85104223D01*
X42540612Y-85010828D01*
X42540610Y-85010827D01*
X42540609Y-85010827D01*
X42412900Y-84980166D01*
X42303302Y-84953854D01*
X42303303Y-84953854D01*
X42060000Y-84934706D01*
X41816697Y-84953854D01*
X41579390Y-85010827D01*
X41353912Y-85104222D01*
X41145819Y-85231742D01*
X41145817Y-85231743D01*
X40960240Y-85390240D01*
X40801743Y-85575817D01*
X40801742Y-85575819D01*
X40674222Y-85783912D01*
X40580827Y-86009390D01*
X40523854Y-86246697D01*
X40504706Y-86490000D01*
X27900500Y-86490000D01*
X27900500Y-84340000D01*
X31004706Y-84340000D01*
X31023854Y-84583302D01*
X31080827Y-84820609D01*
X31159617Y-85010828D01*
X31174223Y-85046089D01*
X31287992Y-85231743D01*
X31301742Y-85254180D01*
X31301743Y-85254182D01*
X31460240Y-85439759D01*
X31619547Y-85575819D01*
X31645821Y-85598259D01*
X31853911Y-85725777D01*
X32079388Y-85819172D01*
X32316698Y-85876146D01*
X32560000Y-85895294D01*
X32803302Y-85876146D01*
X33040612Y-85819172D01*
X33266089Y-85725777D01*
X33474179Y-85598259D01*
X33659759Y-85439759D01*
X33818259Y-85254179D01*
X33945777Y-85046089D01*
X34039172Y-84820612D01*
X34096146Y-84583302D01*
X34115294Y-84340000D01*
X49054706Y-84340000D01*
X49073854Y-84583302D01*
X49130827Y-84820609D01*
X49209617Y-85010828D01*
X49224223Y-85046089D01*
X49337992Y-85231743D01*
X49351742Y-85254180D01*
X49351743Y-85254182D01*
X49510240Y-85439759D01*
X49669547Y-85575819D01*
X49695821Y-85598259D01*
X49903911Y-85725777D01*
X50129388Y-85819172D01*
X50366698Y-85876146D01*
X50610000Y-85895294D01*
X50853302Y-85876146D01*
X51090612Y-85819172D01*
X51316089Y-85725777D01*
X51524179Y-85598259D01*
X51709759Y-85439759D01*
X51868259Y-85254179D01*
X51995777Y-85046089D01*
X52089172Y-84820612D01*
X52146146Y-84583302D01*
X52165294Y-84340000D01*
X67054706Y-84340000D01*
X67073854Y-84583302D01*
X67130827Y-84820609D01*
X67209617Y-85010828D01*
X67224223Y-85046089D01*
X67337992Y-85231743D01*
X67351742Y-85254180D01*
X67351743Y-85254182D01*
X67510240Y-85439759D01*
X67669547Y-85575819D01*
X67695821Y-85598259D01*
X67903911Y-85725777D01*
X68129388Y-85819172D01*
X68366698Y-85876146D01*
X68610000Y-85895294D01*
X68853302Y-85876146D01*
X69090612Y-85819172D01*
X69316089Y-85725777D01*
X69524179Y-85598259D01*
X69709759Y-85439759D01*
X69868259Y-85254179D01*
X69995777Y-85046089D01*
X70089172Y-84820612D01*
X70146146Y-84583302D01*
X70165294Y-84340000D01*
X85054706Y-84340000D01*
X85073854Y-84583302D01*
X85130827Y-84820609D01*
X85209617Y-85010828D01*
X85224223Y-85046089D01*
X85337992Y-85231743D01*
X85351742Y-85254180D01*
X85351743Y-85254182D01*
X85510240Y-85439759D01*
X85669547Y-85575819D01*
X85695821Y-85598259D01*
X85903911Y-85725777D01*
X86129388Y-85819172D01*
X86366698Y-85876146D01*
X86610000Y-85895294D01*
X86853302Y-85876146D01*
X87090612Y-85819172D01*
X87316089Y-85725777D01*
X87524179Y-85598259D01*
X87709759Y-85439759D01*
X87868259Y-85254179D01*
X87995777Y-85046089D01*
X88089172Y-84820612D01*
X88146146Y-84583302D01*
X88165294Y-84340000D01*
X110754706Y-84340000D01*
X110773854Y-84583302D01*
X110830827Y-84820609D01*
X110909617Y-85010828D01*
X110924223Y-85046089D01*
X111037992Y-85231743D01*
X111051742Y-85254180D01*
X111051743Y-85254182D01*
X111210240Y-85439759D01*
X111369547Y-85575819D01*
X111395821Y-85598259D01*
X111603911Y-85725777D01*
X111829388Y-85819172D01*
X112066698Y-85876146D01*
X112310000Y-85895294D01*
X112553302Y-85876146D01*
X112790612Y-85819172D01*
X113016089Y-85725777D01*
X113224179Y-85598259D01*
X113409759Y-85439759D01*
X113568259Y-85254179D01*
X113695777Y-85046089D01*
X113789172Y-84820612D01*
X113846146Y-84583302D01*
X113865294Y-84340000D01*
X128754706Y-84340000D01*
X128773854Y-84583302D01*
X128830827Y-84820609D01*
X128909617Y-85010828D01*
X128924223Y-85046089D01*
X129037992Y-85231743D01*
X129051742Y-85254180D01*
X129051743Y-85254182D01*
X129210240Y-85439759D01*
X129369547Y-85575819D01*
X129395821Y-85598259D01*
X129603911Y-85725777D01*
X129829388Y-85819172D01*
X130066698Y-85876146D01*
X130310000Y-85895294D01*
X130553302Y-85876146D01*
X130790612Y-85819172D01*
X131016089Y-85725777D01*
X131224179Y-85598259D01*
X131409759Y-85439759D01*
X131568259Y-85254179D01*
X131695777Y-85046089D01*
X131789172Y-84820612D01*
X131846146Y-84583302D01*
X131865294Y-84340000D01*
X146754706Y-84340000D01*
X146773854Y-84583302D01*
X146830827Y-84820609D01*
X146909617Y-85010828D01*
X146924223Y-85046089D01*
X147037992Y-85231743D01*
X147051742Y-85254180D01*
X147051743Y-85254182D01*
X147210240Y-85439759D01*
X147369547Y-85575819D01*
X147395821Y-85598259D01*
X147603911Y-85725777D01*
X147829388Y-85819172D01*
X148066698Y-85876146D01*
X148310000Y-85895294D01*
X148553302Y-85876146D01*
X148790612Y-85819172D01*
X149016089Y-85725777D01*
X149224179Y-85598259D01*
X149409759Y-85439759D01*
X149568259Y-85254179D01*
X149695777Y-85046089D01*
X149789172Y-84820612D01*
X149846146Y-84583302D01*
X149865294Y-84340000D01*
X164634706Y-84340000D01*
X164653854Y-84583302D01*
X164710827Y-84820609D01*
X164789617Y-85010828D01*
X164804223Y-85046089D01*
X164917992Y-85231743D01*
X164931742Y-85254180D01*
X164931743Y-85254182D01*
X165090240Y-85439759D01*
X165249547Y-85575819D01*
X165275821Y-85598259D01*
X165483911Y-85725777D01*
X165709388Y-85819172D01*
X165946698Y-85876146D01*
X166190000Y-85895294D01*
X166433302Y-85876146D01*
X166670612Y-85819172D01*
X166896089Y-85725777D01*
X167104179Y-85598259D01*
X167289759Y-85439759D01*
X167448259Y-85254179D01*
X167575777Y-85046089D01*
X167669172Y-84820612D01*
X167726146Y-84583302D01*
X167745294Y-84340000D01*
X167726146Y-84096698D01*
X167669172Y-83859388D01*
X167575777Y-83633911D01*
X167448259Y-83425821D01*
X167448256Y-83425817D01*
X167289759Y-83240240D01*
X167104182Y-83081743D01*
X167104180Y-83081742D01*
X167104179Y-83081741D01*
X166896089Y-82954223D01*
X166670612Y-82860828D01*
X166670610Y-82860827D01*
X166670609Y-82860827D01*
X166542900Y-82830166D01*
X166433302Y-82803854D01*
X166433303Y-82803854D01*
X166190000Y-82784706D01*
X165946697Y-82803854D01*
X165709390Y-82860827D01*
X165483912Y-82954222D01*
X165275819Y-83081742D01*
X165275817Y-83081743D01*
X165090240Y-83240240D01*
X164931743Y-83425817D01*
X164931742Y-83425819D01*
X164804222Y-83633912D01*
X164710827Y-83859390D01*
X164653854Y-84096697D01*
X164634706Y-84340000D01*
X149865294Y-84340000D01*
X149846146Y-84096698D01*
X149789172Y-83859388D01*
X149695777Y-83633911D01*
X149568259Y-83425821D01*
X149568256Y-83425817D01*
X149409759Y-83240240D01*
X149224182Y-83081743D01*
X149224180Y-83081742D01*
X149224179Y-83081741D01*
X149016089Y-82954223D01*
X148790612Y-82860828D01*
X148790610Y-82860827D01*
X148790609Y-82860827D01*
X148662900Y-82830166D01*
X148553302Y-82803854D01*
X148553303Y-82803854D01*
X148310000Y-82784706D01*
X148066697Y-82803854D01*
X147829390Y-82860827D01*
X147603912Y-82954222D01*
X147395819Y-83081742D01*
X147395817Y-83081743D01*
X147210240Y-83240240D01*
X147051743Y-83425817D01*
X147051742Y-83425819D01*
X146924222Y-83633912D01*
X146830827Y-83859390D01*
X146773854Y-84096697D01*
X146754706Y-84340000D01*
X131865294Y-84340000D01*
X131846146Y-84096698D01*
X131789172Y-83859388D01*
X131695777Y-83633911D01*
X131568259Y-83425821D01*
X131568256Y-83425817D01*
X131409759Y-83240240D01*
X131224182Y-83081743D01*
X131224180Y-83081742D01*
X131224179Y-83081741D01*
X131016089Y-82954223D01*
X130790612Y-82860828D01*
X130790610Y-82860827D01*
X130790609Y-82860827D01*
X130662900Y-82830166D01*
X130553302Y-82803854D01*
X130553303Y-82803854D01*
X130310000Y-82784706D01*
X130066697Y-82803854D01*
X129829390Y-82860827D01*
X129603912Y-82954222D01*
X129395819Y-83081742D01*
X129395817Y-83081743D01*
X129210240Y-83240240D01*
X129051743Y-83425817D01*
X129051742Y-83425819D01*
X128924222Y-83633912D01*
X128830827Y-83859390D01*
X128773854Y-84096697D01*
X128754706Y-84340000D01*
X113865294Y-84340000D01*
X113846146Y-84096698D01*
X113789172Y-83859388D01*
X113695777Y-83633911D01*
X113568259Y-83425821D01*
X113568256Y-83425817D01*
X113409759Y-83240240D01*
X113224182Y-83081743D01*
X113224180Y-83081742D01*
X113224179Y-83081741D01*
X113016089Y-82954223D01*
X112790612Y-82860828D01*
X112790610Y-82860827D01*
X112790609Y-82860827D01*
X112662900Y-82830166D01*
X112553302Y-82803854D01*
X112553303Y-82803854D01*
X112310000Y-82784706D01*
X112066697Y-82803854D01*
X111829390Y-82860827D01*
X111603912Y-82954222D01*
X111395819Y-83081742D01*
X111395817Y-83081743D01*
X111210240Y-83240240D01*
X111051743Y-83425817D01*
X111051742Y-83425819D01*
X110924222Y-83633912D01*
X110830827Y-83859390D01*
X110773854Y-84096697D01*
X110754706Y-84340000D01*
X88165294Y-84340000D01*
X88146146Y-84096698D01*
X88089172Y-83859388D01*
X87995777Y-83633911D01*
X87868259Y-83425821D01*
X87868256Y-83425817D01*
X87709759Y-83240240D01*
X87524182Y-83081743D01*
X87524180Y-83081742D01*
X87524179Y-83081741D01*
X87316089Y-82954223D01*
X87090612Y-82860828D01*
X87090610Y-82860827D01*
X87090609Y-82860827D01*
X86962900Y-82830166D01*
X86853302Y-82803854D01*
X86853303Y-82803854D01*
X86610000Y-82784706D01*
X86366697Y-82803854D01*
X86129390Y-82860827D01*
X85903912Y-82954222D01*
X85695819Y-83081742D01*
X85695817Y-83081743D01*
X85510240Y-83240240D01*
X85351743Y-83425817D01*
X85351742Y-83425819D01*
X85224222Y-83633912D01*
X85130827Y-83859390D01*
X85073854Y-84096697D01*
X85054706Y-84340000D01*
X70165294Y-84340000D01*
X70146146Y-84096698D01*
X70089172Y-83859388D01*
X69995777Y-83633911D01*
X69868259Y-83425821D01*
X69868256Y-83425817D01*
X69709759Y-83240240D01*
X69524182Y-83081743D01*
X69524180Y-83081742D01*
X69524179Y-83081741D01*
X69316089Y-82954223D01*
X69090612Y-82860828D01*
X69090610Y-82860827D01*
X69090609Y-82860827D01*
X68962900Y-82830166D01*
X68853302Y-82803854D01*
X68853303Y-82803854D01*
X68610000Y-82784706D01*
X68366697Y-82803854D01*
X68129390Y-82860827D01*
X67903912Y-82954222D01*
X67695819Y-83081742D01*
X67695817Y-83081743D01*
X67510240Y-83240240D01*
X67351743Y-83425817D01*
X67351742Y-83425819D01*
X67224222Y-83633912D01*
X67130827Y-83859390D01*
X67073854Y-84096697D01*
X67054706Y-84340000D01*
X52165294Y-84340000D01*
X52146146Y-84096698D01*
X52089172Y-83859388D01*
X51995777Y-83633911D01*
X51868259Y-83425821D01*
X51868256Y-83425817D01*
X51709759Y-83240240D01*
X51524182Y-83081743D01*
X51524180Y-83081742D01*
X51524179Y-83081741D01*
X51316089Y-82954223D01*
X51090612Y-82860828D01*
X51090610Y-82860827D01*
X51090609Y-82860827D01*
X50962900Y-82830166D01*
X50853302Y-82803854D01*
X50853303Y-82803854D01*
X50610000Y-82784706D01*
X50366697Y-82803854D01*
X50129390Y-82860827D01*
X49903912Y-82954222D01*
X49695819Y-83081742D01*
X49695817Y-83081743D01*
X49510240Y-83240240D01*
X49351743Y-83425817D01*
X49351742Y-83425819D01*
X49224222Y-83633912D01*
X49130827Y-83859390D01*
X49073854Y-84096697D01*
X49054706Y-84340000D01*
X34115294Y-84340000D01*
X34096146Y-84096698D01*
X34039172Y-83859388D01*
X33945777Y-83633911D01*
X33818259Y-83425821D01*
X33818256Y-83425817D01*
X33659759Y-83240240D01*
X33474182Y-83081743D01*
X33474180Y-83081742D01*
X33474179Y-83081741D01*
X33266089Y-82954223D01*
X33040612Y-82860828D01*
X33040610Y-82860827D01*
X33040609Y-82860827D01*
X32912900Y-82830166D01*
X32803302Y-82803854D01*
X32803303Y-82803854D01*
X32560000Y-82784706D01*
X32316697Y-82803854D01*
X32079390Y-82860827D01*
X31853912Y-82954222D01*
X31645819Y-83081742D01*
X31645817Y-83081743D01*
X31460240Y-83240240D01*
X31301743Y-83425817D01*
X31301742Y-83425819D01*
X31174222Y-83633912D01*
X31080827Y-83859390D01*
X31023854Y-84096697D01*
X31004706Y-84340000D01*
X27900500Y-84340000D01*
X27900500Y-75650000D01*
X70950000Y-75650000D01*
X135950000Y-75650000D01*
X135950000Y-70270000D01*
X174134706Y-70270000D01*
X174153854Y-70513302D01*
X174210827Y-70750609D01*
X174304222Y-70976087D01*
X174431742Y-71184180D01*
X174431743Y-71184182D01*
X174590240Y-71369759D01*
X174775817Y-71528256D01*
X174775821Y-71528259D01*
X174983911Y-71655777D01*
X175209388Y-71749172D01*
X175446698Y-71806146D01*
X175690000Y-71825294D01*
X175933302Y-71806146D01*
X176170612Y-71749172D01*
X176396089Y-71655777D01*
X176604179Y-71528259D01*
X176789759Y-71369759D01*
X176948259Y-71184179D01*
X177075777Y-70976089D01*
X177169172Y-70750612D01*
X177226146Y-70513302D01*
X177245294Y-70270000D01*
X177226146Y-70026698D01*
X177169172Y-69789388D01*
X177075777Y-69563911D01*
X176948259Y-69355821D01*
X176948256Y-69355817D01*
X176789759Y-69170240D01*
X176604182Y-69011743D01*
X176604180Y-69011742D01*
X176604179Y-69011741D01*
X176396089Y-68884223D01*
X176170612Y-68790828D01*
X176170610Y-68790827D01*
X176170609Y-68790827D01*
X176042900Y-68760166D01*
X175933302Y-68733854D01*
X175933303Y-68733854D01*
X175690000Y-68714706D01*
X175446697Y-68733854D01*
X175209390Y-68790827D01*
X174983912Y-68884222D01*
X174775819Y-69011742D01*
X174775817Y-69011743D01*
X174590240Y-69170240D01*
X174431743Y-69355817D01*
X174431742Y-69355819D01*
X174304222Y-69563912D01*
X174210827Y-69789390D01*
X174153854Y-70026697D01*
X174134706Y-70270000D01*
X135950000Y-70270000D01*
X135950000Y-68120000D01*
X164634706Y-68120000D01*
X164653854Y-68363302D01*
X164710827Y-68600609D01*
X164789617Y-68790828D01*
X164804223Y-68826089D01*
X164917992Y-69011743D01*
X164931742Y-69034180D01*
X164931743Y-69034182D01*
X165090240Y-69219759D01*
X165249547Y-69355819D01*
X165275821Y-69378259D01*
X165483911Y-69505777D01*
X165709388Y-69599172D01*
X165946698Y-69656146D01*
X166190000Y-69675294D01*
X166433302Y-69656146D01*
X166670612Y-69599172D01*
X166896089Y-69505777D01*
X167104179Y-69378259D01*
X167289759Y-69219759D01*
X167448259Y-69034179D01*
X167575777Y-68826089D01*
X167669172Y-68600612D01*
X167726146Y-68363302D01*
X167745294Y-68120000D01*
X167726146Y-67876698D01*
X167669172Y-67639388D01*
X167575777Y-67413911D01*
X167448259Y-67205821D01*
X167448256Y-67205817D01*
X167289759Y-67020240D01*
X167104182Y-66861743D01*
X167104180Y-66861742D01*
X167104179Y-66861741D01*
X166896089Y-66734223D01*
X166670612Y-66640828D01*
X166670610Y-66640827D01*
X166670609Y-66640827D01*
X166542900Y-66610166D01*
X166433302Y-66583854D01*
X166433303Y-66583854D01*
X166190000Y-66564706D01*
X165946697Y-66583854D01*
X165709390Y-66640827D01*
X165483912Y-66734222D01*
X165275819Y-66861742D01*
X165275817Y-66861743D01*
X165090240Y-67020240D01*
X164931743Y-67205817D01*
X164931742Y-67205819D01*
X164804222Y-67413912D01*
X164710827Y-67639390D01*
X164653854Y-67876697D01*
X164634706Y-68120000D01*
X135950000Y-68120000D01*
X135950000Y-60650000D01*
X70950000Y-60650000D01*
X70950000Y-75650000D01*
X27900500Y-75650000D01*
X27900500Y-58079997D01*
X51804355Y-58079997D01*
X51804355Y-58080002D01*
X51824859Y-58248871D01*
X51885179Y-58407925D01*
X51885181Y-58407929D01*
X51969787Y-58530500D01*
X51981817Y-58547929D01*
X52109148Y-58660734D01*
X52259775Y-58739790D01*
X52259776Y-58739790D01*
X52259778Y-58739791D01*
X52416461Y-58778409D01*
X52424944Y-58780500D01*
X52424947Y-58780500D01*
X52595053Y-58780500D01*
X52595056Y-58780500D01*
X52760225Y-58739790D01*
X52910852Y-58660734D01*
X53022089Y-58562187D01*
X53086342Y-58531987D01*
X53105642Y-58530500D01*
X60101207Y-58530500D01*
X60169328Y-58550502D01*
X60190297Y-58567400D01*
X60763386Y-59140489D01*
X60800892Y-59162143D01*
X60866114Y-59199799D01*
X60980691Y-59230500D01*
X61294358Y-59230500D01*
X61362479Y-59250502D01*
X61377911Y-59262187D01*
X61489148Y-59360734D01*
X61639775Y-59439790D01*
X61639776Y-59439790D01*
X61639778Y-59439791D01*
X61796461Y-59478409D01*
X61804944Y-59480500D01*
X61804947Y-59480500D01*
X61975053Y-59480500D01*
X61975056Y-59480500D01*
X62140225Y-59439790D01*
X62290852Y-59360734D01*
X62418183Y-59247929D01*
X62514818Y-59107930D01*
X62575140Y-58948872D01*
X62581975Y-58892581D01*
X62595645Y-58780002D01*
X62595645Y-58779997D01*
X62575140Y-58611128D01*
X62514820Y-58452074D01*
X62514818Y-58452070D01*
X62418183Y-58312071D01*
X62418181Y-58312069D01*
X62290857Y-58199270D01*
X62290851Y-58199265D01*
X62140225Y-58120210D01*
X62140221Y-58120208D01*
X61975059Y-58079500D01*
X61975056Y-58079500D01*
X61804944Y-58079500D01*
X61804940Y-58079500D01*
X61639778Y-58120208D01*
X61639774Y-58120210D01*
X61489148Y-58199265D01*
X61489147Y-58199266D01*
X61433155Y-58248871D01*
X61377911Y-58297813D01*
X61313658Y-58328013D01*
X61294358Y-58329500D01*
X61278793Y-58329500D01*
X61210672Y-58309498D01*
X61189702Y-58292599D01*
X60616614Y-57719511D01*
X60616612Y-57719510D01*
X60616610Y-57719508D01*
X60513891Y-57660203D01*
X60513889Y-57660202D01*
X60513887Y-57660201D01*
X60513880Y-57660199D01*
X60489673Y-57653712D01*
X60489673Y-57653713D01*
X60438495Y-57640000D01*
X174134706Y-57640000D01*
X174153854Y-57883302D01*
X174210827Y-58120609D01*
X174290131Y-58312069D01*
X174304223Y-58346089D01*
X174427910Y-58547928D01*
X174431742Y-58554180D01*
X174431743Y-58554182D01*
X174590240Y-58739759D01*
X174775817Y-58898256D01*
X174775821Y-58898259D01*
X174983911Y-59025777D01*
X175209388Y-59119172D01*
X175446698Y-59176146D01*
X175690000Y-59195294D01*
X175933302Y-59176146D01*
X176170612Y-59119172D01*
X176396089Y-59025777D01*
X176604179Y-58898259D01*
X176789759Y-58739759D01*
X176948259Y-58554179D01*
X177075777Y-58346089D01*
X177169172Y-58120612D01*
X177226146Y-57883302D01*
X177245294Y-57640000D01*
X177226146Y-57396698D01*
X177169172Y-57159388D01*
X177075777Y-56933911D01*
X176948259Y-56725821D01*
X176948256Y-56725817D01*
X176789759Y-56540240D01*
X176604182Y-56381743D01*
X176604180Y-56381742D01*
X176604179Y-56381741D01*
X176396089Y-56254223D01*
X176170612Y-56160828D01*
X176170610Y-56160827D01*
X176170609Y-56160827D01*
X175999675Y-56119789D01*
X175933302Y-56103854D01*
X175933303Y-56103854D01*
X175690000Y-56084706D01*
X175446697Y-56103854D01*
X175209390Y-56160827D01*
X174983912Y-56254222D01*
X174775819Y-56381742D01*
X174775817Y-56381743D01*
X174590240Y-56540240D01*
X174431743Y-56725817D01*
X174431742Y-56725819D01*
X174304222Y-56933912D01*
X174210827Y-57159390D01*
X174153854Y-57396697D01*
X174134706Y-57640000D01*
X60438495Y-57640000D01*
X60399309Y-57629500D01*
X60399308Y-57629500D01*
X53105642Y-57629500D01*
X53037521Y-57609498D01*
X53022089Y-57597813D01*
X53020599Y-57596493D01*
X52910852Y-57499266D01*
X52910851Y-57499265D01*
X52760225Y-57420210D01*
X52760221Y-57420208D01*
X52595059Y-57379500D01*
X52595056Y-57379500D01*
X52424944Y-57379500D01*
X52424940Y-57379500D01*
X52259778Y-57420208D01*
X52259774Y-57420210D01*
X52109148Y-57499265D01*
X52109142Y-57499270D01*
X51981818Y-57612069D01*
X51981816Y-57612071D01*
X51885181Y-57752070D01*
X51885179Y-57752074D01*
X51824859Y-57911128D01*
X51804355Y-58079997D01*
X27900500Y-58079997D01*
X27900500Y-52599997D01*
X47624355Y-52599997D01*
X47624355Y-52600002D01*
X47644859Y-52768871D01*
X47705179Y-52927925D01*
X47705181Y-52927929D01*
X47801816Y-53067928D01*
X47801818Y-53067930D01*
X47927225Y-53179031D01*
X47929148Y-53180734D01*
X48079775Y-53259790D01*
X48079776Y-53259790D01*
X48079778Y-53259791D01*
X48210579Y-53292030D01*
X48244944Y-53300500D01*
X48244947Y-53300500D01*
X48415053Y-53300500D01*
X48415056Y-53300500D01*
X48580225Y-53259790D01*
X48646237Y-53225143D01*
X48715848Y-53211196D01*
X48781951Y-53237098D01*
X48822604Y-53292030D01*
X48855179Y-53377925D01*
X48855181Y-53377929D01*
X48951816Y-53517928D01*
X48951818Y-53517930D01*
X49078321Y-53630002D01*
X49079148Y-53630734D01*
X49229775Y-53709790D01*
X49229776Y-53709790D01*
X49229778Y-53709791D01*
X49343941Y-53737929D01*
X49394944Y-53750500D01*
X49394947Y-53750500D01*
X49565053Y-53750500D01*
X49565056Y-53750500D01*
X49713123Y-53714005D01*
X49784050Y-53717124D01*
X49842033Y-53758094D01*
X49861088Y-53791664D01*
X49905179Y-53907925D01*
X49905181Y-53907929D01*
X50001816Y-54047928D01*
X50001818Y-54047930D01*
X50061157Y-54100500D01*
X50129148Y-54160734D01*
X50279775Y-54239790D01*
X50279776Y-54239790D01*
X50279778Y-54239791D01*
X50436461Y-54278409D01*
X50444944Y-54280500D01*
X50444947Y-54280500D01*
X50622678Y-54280500D01*
X50622678Y-54282192D01*
X50683612Y-54292321D01*
X50736236Y-54339979D01*
X50753851Y-54390568D01*
X50754859Y-54398872D01*
X50815179Y-54557925D01*
X50815181Y-54557929D01*
X50911816Y-54697928D01*
X50911818Y-54697930D01*
X50995509Y-54772074D01*
X51039148Y-54810734D01*
X51189775Y-54889790D01*
X51189776Y-54889790D01*
X51189778Y-54889791D01*
X51346461Y-54928409D01*
X51354944Y-54930500D01*
X51354947Y-54930500D01*
X51525053Y-54930500D01*
X51525056Y-54930500D01*
X51690225Y-54889790D01*
X51840852Y-54810734D01*
X51968183Y-54697929D01*
X52064818Y-54557930D01*
X52079481Y-54519267D01*
X52097475Y-54471821D01*
X52140332Y-54415219D01*
X52206988Y-54390774D01*
X52215287Y-54390500D01*
X52658405Y-54390500D01*
X52726526Y-54410502D01*
X52773019Y-54464158D01*
X52783123Y-54534432D01*
X52776217Y-54561179D01*
X52764859Y-54591126D01*
X52764859Y-54591127D01*
X52744355Y-54759997D01*
X52744355Y-54760002D01*
X52764859Y-54928871D01*
X52825179Y-55087925D01*
X52825181Y-55087929D01*
X52833515Y-55100002D01*
X52921817Y-55227929D01*
X53049148Y-55340734D01*
X53199775Y-55419790D01*
X53199776Y-55419790D01*
X53199778Y-55419791D01*
X53326916Y-55451127D01*
X53364944Y-55460500D01*
X53364947Y-55460500D01*
X53535053Y-55460500D01*
X53535056Y-55460500D01*
X53700225Y-55419790D01*
X53772909Y-55381641D01*
X53842517Y-55367696D01*
X53908620Y-55393598D01*
X53950226Y-55451127D01*
X53956542Y-55478022D01*
X53974859Y-55628871D01*
X54035179Y-55787925D01*
X54035181Y-55787929D01*
X54043859Y-55800500D01*
X54131817Y-55927929D01*
X54259148Y-56040734D01*
X54409775Y-56119790D01*
X54409776Y-56119790D01*
X54409778Y-56119791D01*
X54566461Y-56158409D01*
X54574944Y-56160500D01*
X54574947Y-56160500D01*
X54745053Y-56160500D01*
X54745056Y-56160500D01*
X54910225Y-56119790D01*
X55060852Y-56040734D01*
X55188183Y-55927929D01*
X55284818Y-55787930D01*
X55295490Y-55759790D01*
X55344022Y-55631821D01*
X55386879Y-55575219D01*
X55453535Y-55550774D01*
X55461834Y-55550500D01*
X72734358Y-55550500D01*
X72802479Y-55570502D01*
X72817911Y-55582187D01*
X72929148Y-55680734D01*
X73079775Y-55759790D01*
X73079776Y-55759790D01*
X73079778Y-55759791D01*
X73193941Y-55787929D01*
X73244944Y-55800500D01*
X73244947Y-55800500D01*
X73415053Y-55800500D01*
X73415056Y-55800500D01*
X73580225Y-55759790D01*
X73730852Y-55680734D01*
X73858183Y-55567929D01*
X73911974Y-55490000D01*
X164634706Y-55490000D01*
X164653854Y-55733302D01*
X164710827Y-55970609D01*
X164789617Y-56160828D01*
X164804223Y-56196089D01*
X164917992Y-56381743D01*
X164931742Y-56404180D01*
X164931743Y-56404182D01*
X165090240Y-56589759D01*
X165249547Y-56725819D01*
X165275821Y-56748259D01*
X165483911Y-56875777D01*
X165709388Y-56969172D01*
X165946698Y-57026146D01*
X166190000Y-57045294D01*
X166433302Y-57026146D01*
X166670612Y-56969172D01*
X166896089Y-56875777D01*
X167104179Y-56748259D01*
X167289759Y-56589759D01*
X167448259Y-56404179D01*
X167575777Y-56196089D01*
X167669172Y-55970612D01*
X167726146Y-55733302D01*
X167745294Y-55490000D01*
X167726146Y-55246698D01*
X167669172Y-55009388D01*
X167575777Y-54783911D01*
X167448259Y-54575821D01*
X167448256Y-54575817D01*
X167289759Y-54390240D01*
X167104182Y-54231743D01*
X167104180Y-54231742D01*
X167104179Y-54231741D01*
X166896089Y-54104223D01*
X166887098Y-54100499D01*
X166788820Y-54059791D01*
X166670612Y-54010828D01*
X166670610Y-54010827D01*
X166670609Y-54010827D01*
X166450279Y-53957930D01*
X166433302Y-53953854D01*
X166433303Y-53953854D01*
X166190000Y-53934706D01*
X165946697Y-53953854D01*
X165709390Y-54010827D01*
X165483912Y-54104222D01*
X165275819Y-54231742D01*
X165275817Y-54231743D01*
X165090240Y-54390240D01*
X164931743Y-54575817D01*
X164931742Y-54575819D01*
X164804222Y-54783912D01*
X164710827Y-55009390D01*
X164653854Y-55246697D01*
X164634706Y-55490000D01*
X73911974Y-55490000D01*
X73954818Y-55427930D01*
X73957906Y-55419789D01*
X73987887Y-55340734D01*
X74015140Y-55268872D01*
X74035645Y-55100000D01*
X74034179Y-55087930D01*
X74015140Y-54931128D01*
X73954820Y-54772074D01*
X73954818Y-54772070D01*
X73858183Y-54632071D01*
X73858181Y-54632069D01*
X73730857Y-54519270D01*
X73730851Y-54519265D01*
X73580225Y-54440210D01*
X73580221Y-54440208D01*
X73415059Y-54399500D01*
X73415056Y-54399500D01*
X73244944Y-54399500D01*
X73244940Y-54399500D01*
X73079778Y-54440208D01*
X73079774Y-54440210D01*
X72929148Y-54519265D01*
X72929147Y-54519266D01*
X72865315Y-54575817D01*
X72817911Y-54617813D01*
X72753658Y-54648013D01*
X72734358Y-54649500D01*
X71566425Y-54649500D01*
X71498304Y-54629498D01*
X71451811Y-54575842D01*
X71441707Y-54505568D01*
X71448613Y-54478820D01*
X71472733Y-54415219D01*
X71475140Y-54408872D01*
X71490522Y-54282192D01*
X71495645Y-54240002D01*
X71495645Y-54239997D01*
X71475140Y-54071128D01*
X71414820Y-53912074D01*
X71414818Y-53912070D01*
X71318183Y-53772071D01*
X71318181Y-53772069D01*
X71190857Y-53659270D01*
X71190851Y-53659265D01*
X71040225Y-53580210D01*
X71040221Y-53580208D01*
X70875059Y-53539500D01*
X70875056Y-53539500D01*
X70704944Y-53539500D01*
X70704940Y-53539500D01*
X70539778Y-53580208D01*
X70539774Y-53580210D01*
X70389148Y-53659265D01*
X70389142Y-53659270D01*
X70261818Y-53772069D01*
X70261816Y-53772071D01*
X70165181Y-53912070D01*
X70165178Y-53912076D01*
X70140110Y-53978179D01*
X70097253Y-54034781D01*
X70030597Y-54059226D01*
X70022298Y-54059500D01*
X69018840Y-54059500D01*
X68950719Y-54039498D01*
X68904226Y-53985842D01*
X68894122Y-53915568D01*
X68901028Y-53888820D01*
X68935140Y-53798871D01*
X68938395Y-53772069D01*
X68952091Y-53659270D01*
X68955645Y-53630002D01*
X68955645Y-53629997D01*
X68935140Y-53461128D01*
X68911957Y-53399997D01*
X138934355Y-53399997D01*
X138934355Y-53400002D01*
X138954859Y-53568871D01*
X139015179Y-53727925D01*
X139015181Y-53727929D01*
X139111816Y-53867928D01*
X139111818Y-53867930D01*
X139213407Y-53957930D01*
X139239148Y-53980734D01*
X139389775Y-54059790D01*
X139389776Y-54059790D01*
X139389778Y-54059791D01*
X139546461Y-54098409D01*
X139554944Y-54100500D01*
X139554947Y-54100500D01*
X139725053Y-54100500D01*
X139725056Y-54100500D01*
X139890225Y-54059790D01*
X140040852Y-53980734D01*
X140140801Y-53892186D01*
X140205054Y-53861987D01*
X140224354Y-53860500D01*
X153754358Y-53860500D01*
X153822479Y-53880502D01*
X153837911Y-53892187D01*
X153949148Y-53990734D01*
X154099775Y-54069790D01*
X154099776Y-54069790D01*
X154099778Y-54069791D01*
X154224368Y-54100499D01*
X154264944Y-54110500D01*
X154264947Y-54110500D01*
X154435053Y-54110500D01*
X154435056Y-54110500D01*
X154600225Y-54069790D01*
X154750852Y-53990734D01*
X154878183Y-53877929D01*
X154974818Y-53737930D01*
X154978611Y-53727930D01*
X155004651Y-53659265D01*
X155035140Y-53578872D01*
X155055645Y-53410000D01*
X155055424Y-53408180D01*
X155042494Y-53301687D01*
X155054139Y-53231652D01*
X155101799Y-53179031D01*
X155167575Y-53160500D01*
X155315053Y-53160500D01*
X155315056Y-53160500D01*
X155480225Y-53119790D01*
X155630852Y-53040734D01*
X155758183Y-52927929D01*
X155854818Y-52787930D01*
X155915140Y-52628872D01*
X155935645Y-52460000D01*
X155935645Y-52459997D01*
X155924402Y-52367403D01*
X155936047Y-52297368D01*
X155983707Y-52244746D01*
X156052251Y-52226245D01*
X156108035Y-52240647D01*
X156239775Y-52309790D01*
X156239776Y-52309790D01*
X156239778Y-52309791D01*
X156396461Y-52348409D01*
X156404944Y-52350500D01*
X156404947Y-52350500D01*
X156575053Y-52350500D01*
X156575056Y-52350500D01*
X156740225Y-52309790D01*
X156890852Y-52230734D01*
X157018183Y-52117929D01*
X157114818Y-51977930D01*
X157175140Y-51818872D01*
X157192091Y-51679270D01*
X157195645Y-51650002D01*
X157195645Y-51649997D01*
X157175140Y-51481128D01*
X157114820Y-51322074D01*
X157114818Y-51322070D01*
X157018183Y-51182071D01*
X157018181Y-51182069D01*
X156890857Y-51069270D01*
X156890851Y-51069265D01*
X156740225Y-50990210D01*
X156740221Y-50990208D01*
X156575059Y-50949500D01*
X156575056Y-50949500D01*
X156404944Y-50949500D01*
X156404940Y-50949500D01*
X156239778Y-50990208D01*
X156239774Y-50990210D01*
X156089148Y-51069265D01*
X156089147Y-51069266D01*
X156033935Y-51118180D01*
X155977911Y-51167813D01*
X155913658Y-51198013D01*
X155894358Y-51199500D01*
X145498042Y-51199500D01*
X145429921Y-51179498D01*
X145383428Y-51125842D01*
X145380230Y-51118180D01*
X145324820Y-50972074D01*
X145324818Y-50972070D01*
X145228183Y-50832071D01*
X145228181Y-50832069D01*
X145100857Y-50719270D01*
X145100851Y-50719265D01*
X144950225Y-50640210D01*
X144950221Y-50640208D01*
X144785059Y-50599500D01*
X144785056Y-50599500D01*
X144614944Y-50599500D01*
X144614940Y-50599500D01*
X144449778Y-50640208D01*
X144449774Y-50640210D01*
X144299148Y-50719265D01*
X144299142Y-50719270D01*
X144171818Y-50832069D01*
X144171816Y-50832071D01*
X144075181Y-50972070D01*
X144075179Y-50972074D01*
X144014859Y-51131128D01*
X143994355Y-51299997D01*
X143994355Y-51300002D01*
X144014859Y-51468871D01*
X144075179Y-51627925D01*
X144075181Y-51627929D01*
X144171815Y-51767927D01*
X144171816Y-51767928D01*
X144171817Y-51767929D01*
X144179551Y-51774781D01*
X144195814Y-51789188D01*
X144233539Y-51849332D01*
X144232759Y-51920325D01*
X144193721Y-51979625D01*
X144128820Y-52008407D01*
X144112260Y-52009500D01*
X142911155Y-52009500D01*
X142843034Y-51989498D01*
X142798886Y-51938549D01*
X142798363Y-51938824D01*
X142797192Y-51936593D01*
X142796541Y-51935842D01*
X142795544Y-51933454D01*
X142794818Y-51932070D01*
X142698183Y-51792071D01*
X142698181Y-51792069D01*
X142570857Y-51679270D01*
X142570851Y-51679265D01*
X142420225Y-51600210D01*
X142420221Y-51600208D01*
X142255059Y-51559500D01*
X142255056Y-51559500D01*
X142084944Y-51559500D01*
X142084940Y-51559500D01*
X141919778Y-51600208D01*
X141919774Y-51600210D01*
X141769148Y-51679265D01*
X141769142Y-51679270D01*
X141641818Y-51792069D01*
X141641816Y-51792071D01*
X141545181Y-51932070D01*
X141545179Y-51932074D01*
X141484859Y-52091128D01*
X141464355Y-52259997D01*
X141464355Y-52260002D01*
X141484859Y-52428871D01*
X141545179Y-52587925D01*
X141545181Y-52587929D01*
X141641816Y-52727928D01*
X141641817Y-52727929D01*
X141654525Y-52739187D01*
X141692251Y-52799330D01*
X141691472Y-52870323D01*
X141652436Y-52929624D01*
X141587535Y-52958407D01*
X141570973Y-52959500D01*
X140246929Y-52959500D01*
X140178808Y-52939498D01*
X140163376Y-52927812D01*
X140040857Y-52819270D01*
X140040851Y-52819265D01*
X139890225Y-52740210D01*
X139890221Y-52740208D01*
X139725059Y-52699500D01*
X139725056Y-52699500D01*
X139554944Y-52699500D01*
X139554940Y-52699500D01*
X139389778Y-52740208D01*
X139389774Y-52740210D01*
X139239148Y-52819265D01*
X139239142Y-52819270D01*
X139111818Y-52932069D01*
X139111816Y-52932071D01*
X139015181Y-53072070D01*
X139015179Y-53072074D01*
X138954859Y-53231128D01*
X138934355Y-53399997D01*
X68911957Y-53399997D01*
X68874820Y-53302074D01*
X68874818Y-53302070D01*
X68778183Y-53162071D01*
X68778181Y-53162069D01*
X68650857Y-53049270D01*
X68650851Y-53049265D01*
X68500225Y-52970210D01*
X68500221Y-52970208D01*
X68335059Y-52929500D01*
X68335056Y-52929500D01*
X68164944Y-52929500D01*
X68164940Y-52929500D01*
X67999778Y-52970208D01*
X67999774Y-52970210D01*
X67849148Y-53049265D01*
X67849142Y-53049270D01*
X67721818Y-53162069D01*
X67721816Y-53162071D01*
X67625181Y-53302070D01*
X67625179Y-53302074D01*
X67584940Y-53408180D01*
X67542082Y-53464781D01*
X67475427Y-53489226D01*
X67467128Y-53489500D01*
X66505387Y-53489500D01*
X66437266Y-53469498D01*
X66390773Y-53415842D01*
X66380669Y-53345568D01*
X66387575Y-53318819D01*
X66395140Y-53298872D01*
X66409485Y-53180729D01*
X66415645Y-53130002D01*
X66415645Y-53129997D01*
X66395140Y-52961128D01*
X66334820Y-52802074D01*
X66334818Y-52802070D01*
X66238183Y-52662071D01*
X66238181Y-52662069D01*
X66110857Y-52549270D01*
X66110851Y-52549265D01*
X65960225Y-52470210D01*
X65960221Y-52470208D01*
X65795059Y-52429500D01*
X65795056Y-52429500D01*
X65624944Y-52429500D01*
X65624940Y-52429500D01*
X65459778Y-52470208D01*
X65459774Y-52470210D01*
X65309148Y-52549265D01*
X65309142Y-52549270D01*
X65181818Y-52662069D01*
X65181816Y-52662071D01*
X65085181Y-52802070D01*
X65085181Y-52802071D01*
X65075281Y-52828178D01*
X65032424Y-52884780D01*
X64965769Y-52909226D01*
X64957468Y-52909500D01*
X63972972Y-52909500D01*
X63904851Y-52889498D01*
X63858358Y-52835842D01*
X63848254Y-52765568D01*
X63855013Y-52739388D01*
X63855140Y-52738872D01*
X63875645Y-52570002D01*
X63875645Y-52569997D01*
X63855140Y-52401128D01*
X63794820Y-52242074D01*
X63794818Y-52242070D01*
X63698183Y-52102071D01*
X63698181Y-52102069D01*
X63570857Y-51989270D01*
X63570851Y-51989265D01*
X63420225Y-51910210D01*
X63420221Y-51910208D01*
X63255059Y-51869500D01*
X63255056Y-51869500D01*
X63084944Y-51869500D01*
X63084940Y-51869500D01*
X62919778Y-51910208D01*
X62919774Y-51910210D01*
X62769148Y-51989265D01*
X62769142Y-51989270D01*
X62641818Y-52102069D01*
X62641816Y-52102071D01*
X62545182Y-52242070D01*
X62539073Y-52258179D01*
X62496216Y-52314781D01*
X62429561Y-52339226D01*
X62421261Y-52339500D01*
X61410217Y-52339500D01*
X61342096Y-52319498D01*
X61295603Y-52265842D01*
X61285499Y-52195568D01*
X61292405Y-52168819D01*
X61315140Y-52108872D01*
X61329635Y-51989498D01*
X61335645Y-51940002D01*
X61335645Y-51939997D01*
X61315140Y-51771128D01*
X61254820Y-51612074D01*
X61254818Y-51612070D01*
X61158183Y-51472071D01*
X61158181Y-51472069D01*
X61030857Y-51359270D01*
X61030851Y-51359265D01*
X60880225Y-51280210D01*
X60880221Y-51280208D01*
X60715059Y-51239500D01*
X60715056Y-51239500D01*
X60544944Y-51239500D01*
X60544940Y-51239500D01*
X60379778Y-51280208D01*
X60379774Y-51280210D01*
X60229148Y-51359265D01*
X60229142Y-51359270D01*
X60101818Y-51472069D01*
X60101816Y-51472071D01*
X60005181Y-51612070D01*
X60005179Y-51612074D01*
X59964940Y-51718180D01*
X59922082Y-51774781D01*
X59855427Y-51799226D01*
X59847128Y-51799500D01*
X48620690Y-51799500D01*
X48530325Y-51823713D01*
X48530324Y-51823712D01*
X48506115Y-51830200D01*
X48415320Y-51882620D01*
X48352321Y-51899500D01*
X48244940Y-51899500D01*
X48079778Y-51940208D01*
X48079774Y-51940210D01*
X47929148Y-52019265D01*
X47929142Y-52019270D01*
X47801818Y-52132069D01*
X47801816Y-52132071D01*
X47705181Y-52272070D01*
X47705179Y-52272074D01*
X47644859Y-52431128D01*
X47624355Y-52599997D01*
X27900500Y-52599997D01*
X27900500Y-49479997D01*
X50394355Y-49479997D01*
X50394355Y-49480002D01*
X50414859Y-49648871D01*
X50475179Y-49807925D01*
X50475181Y-49807929D01*
X50571816Y-49947928D01*
X50571818Y-49947930D01*
X50665282Y-50030732D01*
X50699148Y-50060734D01*
X50849775Y-50139790D01*
X50849776Y-50139790D01*
X50849778Y-50139791D01*
X51006461Y-50178409D01*
X51014944Y-50180500D01*
X51014947Y-50180500D01*
X51185053Y-50180500D01*
X51185056Y-50180500D01*
X51350225Y-50139790D01*
X51500852Y-50060734D01*
X51628183Y-49947929D01*
X51628187Y-49947922D01*
X51632597Y-49942946D01*
X51692742Y-49905221D01*
X51726909Y-49900500D01*
X66414358Y-49900500D01*
X66482479Y-49920502D01*
X66497911Y-49932187D01*
X66609148Y-50030734D01*
X66759775Y-50109790D01*
X66759776Y-50109790D01*
X66759778Y-50109791D01*
X66881487Y-50139789D01*
X66924944Y-50150500D01*
X66924947Y-50150500D01*
X67095053Y-50150500D01*
X67095056Y-50150500D01*
X67260225Y-50109790D01*
X67410852Y-50030734D01*
X67538183Y-49917929D01*
X67634818Y-49777930D01*
X67695140Y-49618872D01*
X67715645Y-49450000D01*
X67695140Y-49281128D01*
X67653185Y-49170500D01*
X67634820Y-49122074D01*
X67634818Y-49122070D01*
X67538183Y-48982071D01*
X67538181Y-48982069D01*
X67410857Y-48869270D01*
X67410851Y-48869265D01*
X67260225Y-48790210D01*
X67260221Y-48790208D01*
X67095059Y-48749500D01*
X67095056Y-48749500D01*
X66924944Y-48749500D01*
X66924940Y-48749500D01*
X66759778Y-48790208D01*
X66759774Y-48790210D01*
X66609148Y-48869265D01*
X66609147Y-48869266D01*
X66573628Y-48900734D01*
X66497911Y-48967813D01*
X66433658Y-48998013D01*
X66414358Y-48999500D01*
X51661778Y-48999500D01*
X51593657Y-48979498D01*
X51578227Y-48967815D01*
X51500852Y-48899266D01*
X51500851Y-48899265D01*
X51350225Y-48820210D01*
X51350221Y-48820208D01*
X51185059Y-48779500D01*
X51185056Y-48779500D01*
X51014944Y-48779500D01*
X51014940Y-48779500D01*
X50849778Y-48820208D01*
X50849774Y-48820210D01*
X50699148Y-48899265D01*
X50699142Y-48899270D01*
X50571818Y-49012069D01*
X50571816Y-49012071D01*
X50475181Y-49152070D01*
X50475179Y-49152074D01*
X50414859Y-49311128D01*
X50394355Y-49479997D01*
X27900500Y-49479997D01*
X27900500Y-44589997D01*
X51794355Y-44589997D01*
X51794355Y-44590002D01*
X51814859Y-44758871D01*
X51875179Y-44917925D01*
X51875181Y-44917929D01*
X51971816Y-45057928D01*
X51971818Y-45057930D01*
X52013993Y-45095294D01*
X52099148Y-45170734D01*
X52249775Y-45249790D01*
X52249776Y-45249790D01*
X52249778Y-45249791D01*
X52406461Y-45288409D01*
X52414944Y-45290500D01*
X52414947Y-45290500D01*
X52585053Y-45290500D01*
X52585056Y-45290500D01*
X52750225Y-45249790D01*
X52900852Y-45170734D01*
X53003273Y-45079997D01*
X59144355Y-45079997D01*
X59144355Y-45080002D01*
X59164859Y-45248871D01*
X59225179Y-45407925D01*
X59225181Y-45407929D01*
X59321816Y-45547928D01*
X59321818Y-45547930D01*
X59437854Y-45650729D01*
X59449148Y-45660734D01*
X59599775Y-45739790D01*
X59599776Y-45739790D01*
X59599778Y-45739791D01*
X59724368Y-45770499D01*
X59764944Y-45780500D01*
X59764947Y-45780500D01*
X59935053Y-45780500D01*
X59935056Y-45780500D01*
X60100225Y-45739790D01*
X60250852Y-45660734D01*
X60350801Y-45572186D01*
X60415054Y-45541987D01*
X60434354Y-45540500D01*
X72736933Y-45540500D01*
X72805054Y-45560502D01*
X72820486Y-45572187D01*
X72909148Y-45650734D01*
X73059775Y-45729790D01*
X73059776Y-45729790D01*
X73059778Y-45729791D01*
X73216461Y-45768409D01*
X73224944Y-45770500D01*
X73224947Y-45770500D01*
X73395053Y-45770500D01*
X73395056Y-45770500D01*
X73560225Y-45729790D01*
X73710852Y-45650734D01*
X73838183Y-45537929D01*
X73934818Y-45397930D01*
X73995140Y-45238872D01*
X74015645Y-45070000D01*
X74014179Y-45057930D01*
X73995140Y-44901128D01*
X73934820Y-44742074D01*
X73934818Y-44742070D01*
X73838183Y-44602071D01*
X73838181Y-44602069D01*
X73710857Y-44489270D01*
X73710851Y-44489265D01*
X73560225Y-44410210D01*
X73560221Y-44410208D01*
X73395059Y-44369500D01*
X73395056Y-44369500D01*
X73224944Y-44369500D01*
X73224940Y-44369500D01*
X73059778Y-44410208D01*
X73059774Y-44410210D01*
X72909148Y-44489265D01*
X72909146Y-44489267D01*
X72776112Y-44607125D01*
X72773996Y-44604736D01*
X72726169Y-44634764D01*
X72691950Y-44639500D01*
X60456929Y-44639500D01*
X60388808Y-44619498D01*
X60373376Y-44607812D01*
X60250857Y-44499270D01*
X60250851Y-44499265D01*
X60100225Y-44420210D01*
X60100221Y-44420208D01*
X59935059Y-44379500D01*
X59935056Y-44379500D01*
X59764944Y-44379500D01*
X59764940Y-44379500D01*
X59599778Y-44420208D01*
X59599774Y-44420210D01*
X59449148Y-44499265D01*
X59449142Y-44499270D01*
X59321818Y-44612069D01*
X59321816Y-44612071D01*
X59225181Y-44752070D01*
X59225179Y-44752074D01*
X59164859Y-44911128D01*
X59144355Y-45079997D01*
X53003273Y-45079997D01*
X53028183Y-45057929D01*
X53124818Y-44917930D01*
X53185140Y-44758872D01*
X53202965Y-44612071D01*
X53205645Y-44590002D01*
X53205645Y-44589997D01*
X53185140Y-44421128D01*
X53124820Y-44262074D01*
X53124818Y-44262070D01*
X53028184Y-44122072D01*
X52992946Y-44090854D01*
X52955221Y-44030709D01*
X52950500Y-43996542D01*
X52950500Y-43599997D01*
X59944355Y-43599997D01*
X59944355Y-43600002D01*
X59964859Y-43768871D01*
X60025179Y-43927925D01*
X60025181Y-43927929D01*
X60121816Y-44067928D01*
X60121818Y-44067930D01*
X60218806Y-44153854D01*
X60249148Y-44180734D01*
X60399775Y-44259790D01*
X60399776Y-44259790D01*
X60399778Y-44259791D01*
X60556461Y-44298409D01*
X60564944Y-44300500D01*
X60564947Y-44300500D01*
X60735053Y-44300500D01*
X60735056Y-44300500D01*
X60900225Y-44259790D01*
X61050852Y-44180734D01*
X61178183Y-44067929D01*
X61274818Y-43927930D01*
X61335140Y-43768872D01*
X61355645Y-43600000D01*
X61355645Y-43599997D01*
X62444355Y-43599997D01*
X62444355Y-43600002D01*
X62464859Y-43768871D01*
X62525179Y-43927925D01*
X62525181Y-43927929D01*
X62621816Y-44067928D01*
X62621818Y-44067930D01*
X62718806Y-44153854D01*
X62749148Y-44180734D01*
X62899775Y-44259790D01*
X62899776Y-44259790D01*
X62899778Y-44259791D01*
X63056461Y-44298409D01*
X63064944Y-44300500D01*
X63064947Y-44300500D01*
X63235053Y-44300500D01*
X63235056Y-44300500D01*
X63400225Y-44259790D01*
X63550852Y-44180734D01*
X63678183Y-44067929D01*
X63696304Y-44041675D01*
X63751462Y-43996976D01*
X63822031Y-43989193D01*
X63885605Y-44020798D01*
X63903696Y-44041676D01*
X63921816Y-44067928D01*
X63921818Y-44067930D01*
X64018806Y-44153854D01*
X64049148Y-44180734D01*
X64199775Y-44259790D01*
X64199776Y-44259790D01*
X64199778Y-44259791D01*
X64356461Y-44298409D01*
X64364944Y-44300500D01*
X64364947Y-44300500D01*
X64535053Y-44300500D01*
X64535056Y-44300500D01*
X64700225Y-44259790D01*
X64850852Y-44180734D01*
X64978183Y-44067929D01*
X64978187Y-44067922D01*
X64980689Y-44065100D01*
X64983043Y-44063623D01*
X64983888Y-44062875D01*
X64984012Y-44063015D01*
X65040834Y-44027376D01*
X65111827Y-44028157D01*
X65166016Y-44062982D01*
X65166112Y-44062875D01*
X65166807Y-44063490D01*
X65169311Y-44065100D01*
X65171819Y-44067931D01*
X65268806Y-44153854D01*
X65299148Y-44180734D01*
X65449775Y-44259790D01*
X65449776Y-44259790D01*
X65449778Y-44259791D01*
X65606461Y-44298409D01*
X65614944Y-44300500D01*
X65614947Y-44300500D01*
X65785053Y-44300500D01*
X65785056Y-44300500D01*
X65950225Y-44259790D01*
X66100852Y-44180734D01*
X66228183Y-44067929D01*
X66324818Y-43927930D01*
X66385140Y-43768872D01*
X66405645Y-43600000D01*
X66399573Y-43549997D01*
X66385140Y-43431128D01*
X66324820Y-43272074D01*
X66324818Y-43272070D01*
X66228184Y-43132072D01*
X66192946Y-43100854D01*
X66155221Y-43040709D01*
X66150500Y-43006542D01*
X66150500Y-42252943D01*
X66170502Y-42184822D01*
X66224158Y-42138329D01*
X66246344Y-42130605D01*
X66290225Y-42119790D01*
X66440852Y-42040734D01*
X66568183Y-41927929D01*
X66664818Y-41787930D01*
X66725140Y-41628872D01*
X66736381Y-41536297D01*
X66745645Y-41460002D01*
X66745645Y-41459997D01*
X66725140Y-41291128D01*
X66664820Y-41132074D01*
X66664818Y-41132070D01*
X66568183Y-40992071D01*
X66568181Y-40992069D01*
X66440857Y-40879270D01*
X66440851Y-40879265D01*
X66290225Y-40800210D01*
X66290221Y-40800208D01*
X66125059Y-40759500D01*
X66125056Y-40759500D01*
X65954944Y-40759500D01*
X65954940Y-40759500D01*
X65789778Y-40800208D01*
X65789770Y-40800212D01*
X65662041Y-40867250D01*
X65592428Y-40881197D01*
X65526326Y-40855294D01*
X65484721Y-40797765D01*
X65478405Y-40770870D01*
X65465140Y-40661629D01*
X65464784Y-40660691D01*
X65438609Y-40591672D01*
X65404820Y-40502574D01*
X65404818Y-40502570D01*
X65308183Y-40362571D01*
X65308181Y-40362569D01*
X65180857Y-40249770D01*
X65180851Y-40249765D01*
X65030225Y-40170710D01*
X65030221Y-40170708D01*
X64865059Y-40130000D01*
X64865056Y-40130000D01*
X64694944Y-40130000D01*
X64694940Y-40130000D01*
X64529778Y-40170708D01*
X64529770Y-40170712D01*
X64458829Y-40207945D01*
X64389216Y-40221892D01*
X64323113Y-40195988D01*
X64281509Y-40138459D01*
X64275191Y-40111552D01*
X64275140Y-40111128D01*
X64275139Y-40111126D01*
X64275139Y-40111124D01*
X64214820Y-39952074D01*
X64214818Y-39952070D01*
X64118183Y-39812071D01*
X64118181Y-39812069D01*
X63990857Y-39699270D01*
X63990851Y-39699265D01*
X63840225Y-39620210D01*
X63840221Y-39620208D01*
X63675059Y-39579500D01*
X63675056Y-39579500D01*
X63504944Y-39579500D01*
X63504940Y-39579500D01*
X63339778Y-39620208D01*
X63339774Y-39620210D01*
X63189148Y-39699265D01*
X63189142Y-39699270D01*
X63061818Y-39812069D01*
X63061816Y-39812071D01*
X62965181Y-39952070D01*
X62965179Y-39952074D01*
X62904859Y-40111128D01*
X62884355Y-40279997D01*
X62884382Y-40280220D01*
X62884355Y-40280382D01*
X62884355Y-40287621D01*
X62883151Y-40287621D01*
X62872735Y-40350255D01*
X62848396Y-40384500D01*
X62789513Y-40443383D01*
X62789510Y-40443387D01*
X62730200Y-40546112D01*
X62730199Y-40546115D01*
X62727250Y-40557125D01*
X62727250Y-40557127D01*
X62699500Y-40660692D01*
X62699500Y-43006542D01*
X62679498Y-43074663D01*
X62657054Y-43100854D01*
X62621815Y-43132072D01*
X62525181Y-43272070D01*
X62525179Y-43272074D01*
X62464859Y-43431128D01*
X62444355Y-43599997D01*
X61355645Y-43599997D01*
X61349573Y-43549997D01*
X61335140Y-43431128D01*
X61274820Y-43272074D01*
X61274818Y-43272070D01*
X61178184Y-43132072D01*
X61142946Y-43100854D01*
X61105221Y-43040709D01*
X61100500Y-43006542D01*
X61100500Y-38272317D01*
X61120502Y-38204196D01*
X61142947Y-38178004D01*
X61188183Y-38137929D01*
X61284818Y-37997930D01*
X61292353Y-37978063D01*
X61313487Y-37922335D01*
X61345140Y-37838872D01*
X61363217Y-37690000D01*
X61365645Y-37670002D01*
X61365645Y-37669997D01*
X61345140Y-37501128D01*
X61284820Y-37342074D01*
X61284818Y-37342070D01*
X61188183Y-37202071D01*
X61188181Y-37202069D01*
X61060857Y-37089270D01*
X61060851Y-37089265D01*
X60910225Y-37010210D01*
X60910221Y-37010208D01*
X60745059Y-36969500D01*
X60745056Y-36969500D01*
X60574944Y-36969500D01*
X60574940Y-36969500D01*
X60409778Y-37010208D01*
X60409774Y-37010210D01*
X60259148Y-37089265D01*
X60259142Y-37089270D01*
X60131818Y-37202069D01*
X60131816Y-37202071D01*
X60035181Y-37342070D01*
X60035179Y-37342074D01*
X59974859Y-37501128D01*
X59954355Y-37669997D01*
X59954355Y-37670002D01*
X59974859Y-37838871D01*
X60035179Y-37997925D01*
X60035181Y-37997929D01*
X60131816Y-38137928D01*
X60131821Y-38137933D01*
X60157051Y-38160284D01*
X60194778Y-38220427D01*
X60199500Y-38254598D01*
X60199500Y-43006542D01*
X60179498Y-43074663D01*
X60157054Y-43100854D01*
X60121815Y-43132072D01*
X60025181Y-43272070D01*
X60025179Y-43272074D01*
X59964859Y-43431128D01*
X59944355Y-43599997D01*
X52950500Y-43599997D01*
X52950500Y-38352553D01*
X52970502Y-38284432D01*
X53017945Y-38240986D01*
X53020222Y-38239790D01*
X53020225Y-38239790D01*
X53170852Y-38160734D01*
X53298183Y-38047929D01*
X53394818Y-37907930D01*
X53455140Y-37748872D01*
X53462289Y-37689993D01*
X53475645Y-37580002D01*
X53475645Y-37579997D01*
X53455140Y-37411128D01*
X53394820Y-37252074D01*
X53394818Y-37252070D01*
X53298183Y-37112071D01*
X53298181Y-37112069D01*
X53170857Y-36999270D01*
X53170851Y-36999265D01*
X53020225Y-36920210D01*
X53020221Y-36920208D01*
X52855059Y-36879500D01*
X52855056Y-36879500D01*
X52684944Y-36879500D01*
X52684940Y-36879500D01*
X52519778Y-36920208D01*
X52519774Y-36920210D01*
X52369148Y-36999265D01*
X52369142Y-36999270D01*
X52241818Y-37112069D01*
X52241816Y-37112071D01*
X52145181Y-37252070D01*
X52145179Y-37252074D01*
X52084859Y-37411128D01*
X52064355Y-37579997D01*
X52064355Y-37580002D01*
X52074385Y-37662610D01*
X52071011Y-37710407D01*
X52049500Y-37790690D01*
X52049500Y-43996542D01*
X52029498Y-44064663D01*
X52007054Y-44090854D01*
X51971815Y-44122072D01*
X51875181Y-44262070D01*
X51875179Y-44262074D01*
X51814859Y-44421128D01*
X51794355Y-44589997D01*
X27900500Y-44589997D01*
X27900500Y-28699996D01*
X30344652Y-28699996D01*
X30344652Y-28700003D01*
X30364028Y-29057371D01*
X30421928Y-29410548D01*
X30421928Y-29410551D01*
X30517674Y-29755399D01*
X30517675Y-29755402D01*
X30650142Y-30087868D01*
X30650149Y-30087884D01*
X30817782Y-30404074D01*
X30817788Y-30404084D01*
X30817789Y-30404085D01*
X31018635Y-30700311D01*
X31250332Y-30973086D01*
X31250335Y-30973088D01*
X31250336Y-30973090D01*
X31510148Y-31219198D01*
X31510156Y-31219205D01*
X31510163Y-31219211D01*
X31795081Y-31435800D01*
X32101747Y-31620315D01*
X32426565Y-31770591D01*
X32647928Y-31845177D01*
X32765719Y-31884866D01*
X32765721Y-31884866D01*
X32765726Y-31884868D01*
X33115254Y-31961805D01*
X33471052Y-32000500D01*
X33471060Y-32000500D01*
X33828940Y-32000500D01*
X33828948Y-32000500D01*
X34184746Y-31961805D01*
X34534274Y-31884868D01*
X34873435Y-31770591D01*
X35198253Y-31620315D01*
X35504919Y-31435800D01*
X35789837Y-31219211D01*
X36049668Y-30973086D01*
X36281365Y-30700311D01*
X36482211Y-30404085D01*
X36649853Y-30087880D01*
X36782324Y-29755403D01*
X36878071Y-29410552D01*
X36935972Y-29057371D01*
X36948737Y-28821936D01*
X43720584Y-28821936D01*
X43744696Y-28950925D01*
X43803191Y-29068398D01*
X43891594Y-29165372D01*
X43898323Y-29170959D01*
X43896045Y-29173702D01*
X43932205Y-29214023D01*
X43944500Y-29268311D01*
X43944500Y-37531687D01*
X43924498Y-37599808D01*
X43896736Y-37627129D01*
X43898323Y-37629040D01*
X43891594Y-37634626D01*
X43803191Y-37731600D01*
X43744696Y-37849073D01*
X43720584Y-37978063D01*
X43732691Y-38108732D01*
X43780096Y-38231099D01*
X43780098Y-38231102D01*
X43859175Y-38335817D01*
X43859178Y-38335821D01*
X43963894Y-38414900D01*
X43963901Y-38414904D01*
X44025082Y-38438605D01*
X44086265Y-38462308D01*
X44216932Y-38474416D01*
X44345925Y-38450304D01*
X44463395Y-38391811D01*
X44560373Y-38303404D01*
X44560373Y-38303403D01*
X44565960Y-38296676D01*
X44568703Y-38298953D01*
X44609023Y-38262795D01*
X44663311Y-38250500D01*
X47726688Y-38250500D01*
X47794809Y-38270502D01*
X47822113Y-38298276D01*
X47824040Y-38296677D01*
X47829626Y-38303405D01*
X47926601Y-38391808D01*
X47926603Y-38391810D01*
X48044073Y-38450303D01*
X48173066Y-38474416D01*
X48303733Y-38462308D01*
X48426099Y-38414904D01*
X48530821Y-38335822D01*
X48609903Y-38231101D01*
X48657308Y-38108735D01*
X48669416Y-37978068D01*
X48645304Y-37849075D01*
X48586811Y-37731605D01*
X48586809Y-37731603D01*
X48586809Y-37731602D01*
X48498406Y-37634628D01*
X48491675Y-37629039D01*
X48493943Y-37626307D01*
X48457751Y-37585883D01*
X48445500Y-37531688D01*
X48445500Y-35899997D01*
X48989355Y-35899997D01*
X48989355Y-35900002D01*
X49009859Y-36068871D01*
X49070179Y-36227925D01*
X49070181Y-36227929D01*
X49166816Y-36367928D01*
X49166818Y-36367930D01*
X49256960Y-36447789D01*
X49294148Y-36480734D01*
X49444775Y-36559790D01*
X49444776Y-36559790D01*
X49444778Y-36559791D01*
X49593313Y-36596401D01*
X49609944Y-36600500D01*
X49609947Y-36600500D01*
X49780053Y-36600500D01*
X49780056Y-36600500D01*
X49945225Y-36559790D01*
X50000586Y-36530734D01*
X50030693Y-36514933D01*
X50089248Y-36500500D01*
X51867235Y-36500500D01*
X51935356Y-36520502D01*
X51945988Y-36528553D01*
X51949148Y-36530734D01*
X52099775Y-36609790D01*
X52099776Y-36609790D01*
X52099778Y-36609791D01*
X52256461Y-36648409D01*
X52264944Y-36650500D01*
X52264947Y-36650500D01*
X52435053Y-36650500D01*
X52435056Y-36650500D01*
X52600225Y-36609790D01*
X52750852Y-36530734D01*
X52878183Y-36417929D01*
X52974818Y-36277930D01*
X53035140Y-36118872D01*
X53055645Y-35950000D01*
X53049573Y-35899997D01*
X53035140Y-35781128D01*
X52974820Y-35622074D01*
X52974818Y-35622070D01*
X52878183Y-35482071D01*
X52878181Y-35482069D01*
X52750857Y-35369270D01*
X52750851Y-35369265D01*
X52600225Y-35290210D01*
X52600221Y-35290208D01*
X52435059Y-35249500D01*
X52435056Y-35249500D01*
X52264944Y-35249500D01*
X52264940Y-35249500D01*
X52099778Y-35290208D01*
X52099774Y-35290210D01*
X51949148Y-35369265D01*
X51942874Y-35373597D01*
X51941798Y-35372039D01*
X51886529Y-35398014D01*
X51867235Y-35399500D01*
X50234203Y-35399500D01*
X50166082Y-35379498D01*
X50150653Y-35367815D01*
X50095852Y-35319266D01*
X49945225Y-35240210D01*
X49945221Y-35240208D01*
X49780059Y-35199500D01*
X49780056Y-35199500D01*
X49609944Y-35199500D01*
X49609940Y-35199500D01*
X49444778Y-35240208D01*
X49444774Y-35240210D01*
X49294148Y-35319265D01*
X49294142Y-35319270D01*
X49166818Y-35432069D01*
X49166816Y-35432071D01*
X49070181Y-35572070D01*
X49070179Y-35572074D01*
X49009859Y-35731128D01*
X48989355Y-35899997D01*
X48445500Y-35899997D01*
X48445500Y-30550171D01*
X76239500Y-30550171D01*
X76239500Y-51649828D01*
X76277635Y-51741896D01*
X76277638Y-51741900D01*
X76348099Y-51812361D01*
X76348103Y-51812364D01*
X76440172Y-51850500D01*
X78539828Y-51850500D01*
X78631897Y-51812364D01*
X78702364Y-51741897D01*
X78740500Y-51649828D01*
X78740500Y-48319997D01*
X135684355Y-48319997D01*
X135684355Y-48320002D01*
X135704859Y-48488871D01*
X135765179Y-48647925D01*
X135765181Y-48647929D01*
X135861816Y-48787928D01*
X135861818Y-48787930D01*
X135987489Y-48899265D01*
X135989148Y-48900734D01*
X136139775Y-48979790D01*
X136139776Y-48979790D01*
X136139778Y-48979791D01*
X136270746Y-49012071D01*
X136304944Y-49020500D01*
X136396295Y-49020500D01*
X136428906Y-49024793D01*
X136487525Y-49040500D01*
X152267525Y-49040500D01*
X152267526Y-49040500D01*
X152412475Y-49040500D01*
X159798593Y-49040500D01*
X159857147Y-49054932D01*
X159999775Y-49129790D01*
X159999776Y-49129790D01*
X159999778Y-49129791D01*
X160156461Y-49168409D01*
X160164944Y-49170500D01*
X160164947Y-49170500D01*
X160335053Y-49170500D01*
X160335056Y-49170500D01*
X160500225Y-49129790D01*
X160650852Y-49050734D01*
X160778183Y-48937929D01*
X160874818Y-48797930D01*
X160878611Y-48787930D01*
X160893185Y-48749500D01*
X160935140Y-48638872D01*
X160941975Y-48582581D01*
X160955645Y-48470002D01*
X160955645Y-48469997D01*
X160935140Y-48301128D01*
X160874820Y-48142074D01*
X160874818Y-48142070D01*
X160778183Y-48002071D01*
X160778181Y-48002069D01*
X160650857Y-47889270D01*
X160650851Y-47889265D01*
X160500225Y-47810210D01*
X160500221Y-47810208D01*
X160335059Y-47769500D01*
X160335056Y-47769500D01*
X160164944Y-47769500D01*
X160164940Y-47769500D01*
X159999778Y-47810208D01*
X159999774Y-47810210D01*
X159849145Y-47889267D01*
X159849144Y-47889268D01*
X159828213Y-47907812D01*
X159763961Y-47938013D01*
X159744660Y-47939500D01*
X153087802Y-47939500D01*
X153019681Y-47919498D01*
X152973188Y-47865842D01*
X152963084Y-47795568D01*
X152969990Y-47768819D01*
X152985140Y-47728872D01*
X153005645Y-47560000D01*
X152995931Y-47480002D01*
X152985140Y-47391128D01*
X152924820Y-47232074D01*
X152924818Y-47232070D01*
X152828183Y-47092071D01*
X152828181Y-47092069D01*
X152700857Y-46979270D01*
X152700851Y-46979265D01*
X152550225Y-46900210D01*
X152550221Y-46900208D01*
X152385059Y-46859500D01*
X152385056Y-46859500D01*
X152214944Y-46859500D01*
X152214940Y-46859500D01*
X152049778Y-46900208D01*
X152049774Y-46900210D01*
X151899148Y-46979265D01*
X151899142Y-46979270D01*
X151771818Y-47092069D01*
X151771816Y-47092071D01*
X151675181Y-47232070D01*
X151675179Y-47232074D01*
X151614859Y-47391128D01*
X151594355Y-47559997D01*
X151594355Y-47560002D01*
X151614859Y-47728869D01*
X151614859Y-47728871D01*
X151614860Y-47728872D01*
X151618803Y-47739270D01*
X151630010Y-47768819D01*
X151635464Y-47839606D01*
X151601782Y-47902104D01*
X151539657Y-47936471D01*
X151512198Y-47939500D01*
X150537463Y-47939500D01*
X150469342Y-47919498D01*
X150422849Y-47865842D01*
X150412745Y-47795568D01*
X150419651Y-47768820D01*
X150465140Y-47648871D01*
X150485645Y-47480002D01*
X150485645Y-47479997D01*
X150465140Y-47311128D01*
X150404818Y-47152069D01*
X150352804Y-47076714D01*
X150330568Y-47009290D01*
X150330500Y-47005138D01*
X150330500Y-45690000D01*
X174134706Y-45690000D01*
X174153854Y-45933302D01*
X174210827Y-46170609D01*
X174304222Y-46396087D01*
X174431742Y-46604180D01*
X174431743Y-46604182D01*
X174590240Y-46789759D01*
X174775817Y-46948256D01*
X174775821Y-46948259D01*
X174983911Y-47075777D01*
X175209388Y-47169172D01*
X175446698Y-47226146D01*
X175690000Y-47245294D01*
X175933302Y-47226146D01*
X176170612Y-47169172D01*
X176396089Y-47075777D01*
X176604179Y-46948259D01*
X176789759Y-46789759D01*
X176948259Y-46604179D01*
X177075777Y-46396089D01*
X177169172Y-46170612D01*
X177226146Y-45933302D01*
X177245294Y-45690000D01*
X177226146Y-45446698D01*
X177169172Y-45209388D01*
X177075777Y-44983911D01*
X176948259Y-44775821D01*
X176948256Y-44775817D01*
X176789759Y-44590240D01*
X176604182Y-44431743D01*
X176604180Y-44431742D01*
X176604179Y-44431741D01*
X176396089Y-44304223D01*
X176387098Y-44300499D01*
X176288820Y-44259791D01*
X176170612Y-44210828D01*
X176170610Y-44210827D01*
X176170609Y-44210827D01*
X176042900Y-44180166D01*
X175933302Y-44153854D01*
X175933303Y-44153854D01*
X175690000Y-44134706D01*
X175446697Y-44153854D01*
X175209390Y-44210827D01*
X174983912Y-44304222D01*
X174775819Y-44431742D01*
X174775817Y-44431743D01*
X174590240Y-44590240D01*
X174431743Y-44775817D01*
X174431742Y-44775819D01*
X174304222Y-44983912D01*
X174210827Y-45209390D01*
X174153854Y-45446697D01*
X174134706Y-45690000D01*
X150330500Y-45690000D01*
X150330500Y-44039347D01*
X150350502Y-43971226D01*
X150352805Y-43967770D01*
X150414818Y-43877930D01*
X150475140Y-43718872D01*
X150495645Y-43550000D01*
X150494431Y-43540000D01*
X164634706Y-43540000D01*
X164653854Y-43783302D01*
X164705899Y-44000084D01*
X164710828Y-44020612D01*
X164730427Y-44067928D01*
X164789617Y-44210828D01*
X164804223Y-44246089D01*
X164917992Y-44431743D01*
X164931742Y-44454180D01*
X164931743Y-44454182D01*
X165090240Y-44639759D01*
X165249547Y-44775819D01*
X165275821Y-44798259D01*
X165483911Y-44925777D01*
X165709388Y-45019172D01*
X165946698Y-45076146D01*
X166190000Y-45095294D01*
X166433302Y-45076146D01*
X166670612Y-45019172D01*
X166896089Y-44925777D01*
X167104179Y-44798259D01*
X167289759Y-44639759D01*
X167448259Y-44454179D01*
X167575777Y-44246089D01*
X167669172Y-44020612D01*
X167726146Y-43783302D01*
X167745294Y-43540000D01*
X167726146Y-43296698D01*
X167669172Y-43059388D01*
X167575777Y-42833911D01*
X167448259Y-42625821D01*
X167448256Y-42625817D01*
X167289759Y-42440240D01*
X167104182Y-42281743D01*
X167104180Y-42281742D01*
X167104179Y-42281741D01*
X166896089Y-42154223D01*
X166670612Y-42060828D01*
X166670610Y-42060827D01*
X166670609Y-42060827D01*
X166542900Y-42030166D01*
X166433302Y-42003854D01*
X166433303Y-42003854D01*
X166190000Y-41984706D01*
X165946697Y-42003854D01*
X165709390Y-42060827D01*
X165483912Y-42154222D01*
X165275819Y-42281742D01*
X165275817Y-42281743D01*
X165090240Y-42440240D01*
X164931743Y-42625817D01*
X164931742Y-42625819D01*
X164804222Y-42833912D01*
X164710827Y-43059390D01*
X164653854Y-43296697D01*
X164634706Y-43540000D01*
X150494431Y-43540000D01*
X150475140Y-43381128D01*
X150458962Y-43338470D01*
X150414820Y-43222074D01*
X150414818Y-43222070D01*
X150318183Y-43082071D01*
X150318181Y-43082069D01*
X150190857Y-42969270D01*
X150190851Y-42969265D01*
X150040225Y-42890210D01*
X150040221Y-42890208D01*
X149875059Y-42849500D01*
X149875056Y-42849500D01*
X149704944Y-42849500D01*
X149704940Y-42849500D01*
X149539778Y-42890208D01*
X149539774Y-42890210D01*
X149389148Y-42969265D01*
X149389142Y-42969270D01*
X149261818Y-43082069D01*
X149261816Y-43082071D01*
X149165181Y-43222070D01*
X149165179Y-43222074D01*
X149104859Y-43381128D01*
X149084355Y-43549997D01*
X149084355Y-43550002D01*
X149104859Y-43718871D01*
X149165179Y-43877925D01*
X149165181Y-43877929D01*
X149189591Y-43913293D01*
X149199363Y-43927450D01*
X149207196Y-43938797D01*
X149229432Y-44006221D01*
X149229500Y-44010373D01*
X149229500Y-47005138D01*
X149209498Y-47073259D01*
X149207196Y-47076714D01*
X149155181Y-47152069D01*
X149094859Y-47311128D01*
X149074355Y-47479997D01*
X149074355Y-47480002D01*
X149094859Y-47648871D01*
X149140349Y-47768820D01*
X149145803Y-47839607D01*
X149112120Y-47902105D01*
X149049995Y-47936472D01*
X149022537Y-47939500D01*
X137044661Y-47939500D01*
X136976540Y-47919498D01*
X136940965Y-47885077D01*
X136927688Y-47865842D01*
X136918183Y-47852071D01*
X136870932Y-47810210D01*
X136790857Y-47739270D01*
X136790851Y-47739265D01*
X136640225Y-47660210D01*
X136640221Y-47660208D01*
X136475059Y-47619500D01*
X136475056Y-47619500D01*
X136304944Y-47619500D01*
X136304940Y-47619500D01*
X136139778Y-47660208D01*
X136139774Y-47660210D01*
X135989148Y-47739265D01*
X135989142Y-47739270D01*
X135861818Y-47852069D01*
X135861816Y-47852071D01*
X135765181Y-47992070D01*
X135765179Y-47992074D01*
X135704859Y-48151128D01*
X135684355Y-48319997D01*
X78740500Y-48319997D01*
X78740500Y-30550172D01*
X78702364Y-30458103D01*
X78702361Y-30458099D01*
X78631900Y-30387638D01*
X78631896Y-30387635D01*
X78539828Y-30349500D01*
X76539828Y-30349500D01*
X76440172Y-30349500D01*
X76348103Y-30387635D01*
X76348099Y-30387638D01*
X76277638Y-30458099D01*
X76277635Y-30458103D01*
X76239500Y-30550171D01*
X48445500Y-30550171D01*
X48445500Y-29268312D01*
X48465502Y-29200191D01*
X48493279Y-29172894D01*
X48491675Y-29170962D01*
X48498404Y-29165374D01*
X48535978Y-29124157D01*
X48586810Y-29068397D01*
X48645303Y-28950927D01*
X48669416Y-28821934D01*
X48657308Y-28691267D01*
X48609904Y-28568901D01*
X48530822Y-28464179D01*
X48530821Y-28464178D01*
X48426105Y-28385099D01*
X48426098Y-28385095D01*
X48303736Y-28337692D01*
X48271068Y-28334665D01*
X48173068Y-28325584D01*
X48173067Y-28325584D01*
X48173065Y-28325584D01*
X48044076Y-28349695D01*
X47926602Y-28408190D01*
X47829628Y-28496593D01*
X47824039Y-28503325D01*
X47821300Y-28501051D01*
X47780930Y-28537226D01*
X47726689Y-28549499D01*
X44663311Y-28549499D01*
X44595190Y-28529497D01*
X44567888Y-28501726D01*
X44565962Y-28503326D01*
X44560372Y-28496594D01*
X44463397Y-28408191D01*
X44463398Y-28408191D01*
X44345925Y-28349696D01*
X44216935Y-28325584D01*
X44216934Y-28325584D01*
X44086266Y-28337692D01*
X44086263Y-28337692D01*
X43963902Y-28385095D01*
X43963896Y-28385099D01*
X43859178Y-28464178D01*
X43780099Y-28568896D01*
X43780095Y-28568902D01*
X43732692Y-28691263D01*
X43732692Y-28691266D01*
X43720584Y-28821936D01*
X36948737Y-28821936D01*
X36955348Y-28700000D01*
X36954874Y-28691266D01*
X36947188Y-28549499D01*
X36935972Y-28342629D01*
X36878071Y-27989448D01*
X36782324Y-27644597D01*
X36649853Y-27312120D01*
X36593972Y-27206718D01*
X36482217Y-26995925D01*
X36482211Y-26995915D01*
X36281365Y-26699689D01*
X36049668Y-26426914D01*
X36049663Y-26426909D01*
X35789851Y-26180801D01*
X35789841Y-26180793D01*
X35789837Y-26180789D01*
X35596209Y-26033597D01*
X43687000Y-26033597D01*
X43693505Y-26094093D01*
X43744555Y-26230964D01*
X43744555Y-26230965D01*
X43832095Y-26347904D01*
X43949034Y-26435444D01*
X44085906Y-26486494D01*
X44146402Y-26492999D01*
X44146415Y-26493000D01*
X44795000Y-26493000D01*
X45095000Y-26493000D01*
X45743585Y-26493000D01*
X45743597Y-26492999D01*
X45804093Y-26486494D01*
X45940964Y-26435444D01*
X45940965Y-26435444D01*
X46057904Y-26347904D01*
X46145444Y-26230965D01*
X46188176Y-26116394D01*
X46230722Y-26059558D01*
X46297242Y-26034747D01*
X46366617Y-26049838D01*
X46416819Y-26100040D01*
X46421495Y-26109530D01*
X46442793Y-26157763D01*
X46442795Y-26157767D01*
X46522232Y-26237204D01*
X46522234Y-26237205D01*
X46522235Y-26237206D01*
X46625009Y-26282585D01*
X46650135Y-26285500D01*
X48239864Y-26285499D01*
X48264991Y-26282585D01*
X48367765Y-26237206D01*
X48447206Y-26157765D01*
X48457757Y-26133867D01*
X48503566Y-26079634D01*
X48571429Y-26058773D01*
X48588211Y-26059682D01*
X48594942Y-26060499D01*
X48594944Y-26060500D01*
X48594946Y-26060500D01*
X48765053Y-26060500D01*
X48765056Y-26060500D01*
X48930225Y-26019790D01*
X49080852Y-25940734D01*
X49208183Y-25827929D01*
X49304818Y-25687930D01*
X49365140Y-25528872D01*
X49385645Y-25360000D01*
X49365140Y-25191128D01*
X49304818Y-25032070D01*
X49208183Y-24892071D01*
X49080852Y-24779266D01*
X49080851Y-24779265D01*
X48930225Y-24700210D01*
X48930221Y-24700208D01*
X48765059Y-24659500D01*
X48765056Y-24659500D01*
X48594944Y-24659500D01*
X48594942Y-24659500D01*
X48588202Y-24660318D01*
X48518167Y-24648670D01*
X48465548Y-24601007D01*
X48457759Y-24586137D01*
X48447206Y-24562235D01*
X48447205Y-24562234D01*
X48447205Y-24562233D01*
X48367767Y-24482795D01*
X48367765Y-24482794D01*
X48264989Y-24437414D01*
X48264990Y-24437414D01*
X48239868Y-24434500D01*
X46650140Y-24434500D01*
X46650133Y-24434501D01*
X46625009Y-24437414D01*
X46625005Y-24437416D01*
X46522234Y-24482793D01*
X46442793Y-24562234D01*
X46421497Y-24610468D01*
X46375684Y-24664705D01*
X46307821Y-24685564D01*
X46239453Y-24666422D01*
X46192288Y-24613356D01*
X46188177Y-24603606D01*
X46145444Y-24489035D01*
X46145444Y-24489034D01*
X46057904Y-24372095D01*
X45940965Y-24284555D01*
X45804093Y-24233505D01*
X45743597Y-24227000D01*
X45095000Y-24227000D01*
X45095000Y-26493000D01*
X44795000Y-26493000D01*
X44795000Y-25510000D01*
X43687000Y-25510000D01*
X43687000Y-26033597D01*
X35596209Y-26033597D01*
X35504919Y-25964200D01*
X35198253Y-25779685D01*
X34873435Y-25629409D01*
X34869877Y-25628210D01*
X34534280Y-25515133D01*
X34534275Y-25515132D01*
X34184762Y-25438198D01*
X34184749Y-25438195D01*
X34184746Y-25438195D01*
X34184743Y-25438194D01*
X34184734Y-25438193D01*
X33828955Y-25399500D01*
X33828948Y-25399500D01*
X33471052Y-25399500D01*
X33471044Y-25399500D01*
X33115265Y-25438193D01*
X33115237Y-25438198D01*
X32765724Y-25515132D01*
X32765719Y-25515133D01*
X32426567Y-25629408D01*
X32426565Y-25629409D01*
X32300076Y-25687929D01*
X32101741Y-25779688D01*
X31795082Y-25964199D01*
X31795076Y-25964203D01*
X31510164Y-26180788D01*
X31510148Y-26180801D01*
X31250336Y-26426909D01*
X31202351Y-26483400D01*
X31018635Y-26699689D01*
X31018631Y-26699694D01*
X31018630Y-26699696D01*
X30817788Y-26995915D01*
X30817782Y-26995925D01*
X30650149Y-27312115D01*
X30650142Y-27312131D01*
X30517675Y-27644597D01*
X30517674Y-27644600D01*
X30421928Y-27989448D01*
X30421928Y-27989451D01*
X30364028Y-28342628D01*
X30344652Y-28699996D01*
X27900500Y-28699996D01*
X27900500Y-24704500D01*
X27900821Y-24695512D01*
X27901473Y-24686402D01*
X43687000Y-24686402D01*
X43687000Y-25210000D01*
X44795000Y-25210000D01*
X44795000Y-24227000D01*
X44146402Y-24227000D01*
X44085906Y-24233505D01*
X43949035Y-24284555D01*
X43949034Y-24284555D01*
X43832095Y-24372095D01*
X43744555Y-24489034D01*
X43744555Y-24489035D01*
X43693505Y-24625906D01*
X43687000Y-24686402D01*
X27901473Y-24686402D01*
X27916034Y-24482795D01*
X27917664Y-24459999D01*
X27920221Y-24442216D01*
X27969451Y-24215912D01*
X27974510Y-24198681D01*
X28055454Y-23981662D01*
X28062918Y-23965321D01*
X28173910Y-23762055D01*
X28183625Y-23746937D01*
X28322423Y-23561524D01*
X28334183Y-23547953D01*
X28497953Y-23384183D01*
X28511524Y-23372423D01*
X28696937Y-23233625D01*
X28712055Y-23223910D01*
X28915321Y-23112918D01*
X28931662Y-23105454D01*
X29148681Y-23024510D01*
X29165912Y-23019451D01*
X29392216Y-22970221D01*
X29409999Y-22967664D01*
X29601515Y-22953967D01*
X29645513Y-22950821D01*
X29654501Y-22950500D01*
X29694170Y-22950500D01*
X137235830Y-22950500D01*
X137275499Y-22950500D01*
X137284487Y-22950821D01*
G37*
%TD.AperFunction*%
%TD*%
%TA.AperFunction,Conductor*%
%TO.N,GNDPWR*%
G36*
X137284487Y-99450821D02*
G01*
X137336090Y-99454511D01*
X137519998Y-99467664D01*
X137537784Y-99470222D01*
X137764083Y-99519451D01*
X137781322Y-99524511D01*
X137998331Y-99605452D01*
X138014678Y-99612918D01*
X138217944Y-99723910D01*
X138233067Y-99733629D01*
X138418467Y-99872417D01*
X138432053Y-99884190D01*
X138595809Y-100047946D01*
X138607582Y-100061532D01*
X138746370Y-100246932D01*
X138756089Y-100262055D01*
X138867081Y-100465321D01*
X138874550Y-100481674D01*
X138955485Y-100698669D01*
X138960549Y-100715919D01*
X139009776Y-100942210D01*
X139012335Y-100960004D01*
X139027673Y-101174467D01*
X139028527Y-101186402D01*
X139029179Y-101195511D01*
X139029500Y-101204500D01*
X139029500Y-112826133D01*
X139062317Y-113096401D01*
X139062318Y-113096407D01*
X139127473Y-113360753D01*
X139222785Y-113612069D01*
X139224019Y-113615322D01*
X139350544Y-113856397D01*
X139504888Y-114080002D01*
X139505209Y-114080466D01*
X139505213Y-114080471D01*
X139685747Y-114284252D01*
X139889528Y-114464786D01*
X139889533Y-114464790D01*
X139889538Y-114464794D01*
X140113603Y-114619456D01*
X140354678Y-114745981D01*
X140609246Y-114842526D01*
X140873595Y-114907682D01*
X141143870Y-114940500D01*
X141143874Y-114940500D01*
X153846126Y-114940500D01*
X153846130Y-114940500D01*
X154116405Y-114907682D01*
X154380754Y-114842526D01*
X154635322Y-114745981D01*
X154876397Y-114619456D01*
X155100462Y-114464794D01*
X155304252Y-114284252D01*
X155484794Y-114080462D01*
X155639456Y-113856397D01*
X155765981Y-113615322D01*
X155862526Y-113360754D01*
X155927682Y-113096405D01*
X155960500Y-112826130D01*
X155960500Y-112690000D01*
X155960500Y-112645830D01*
X155960500Y-105199996D01*
X175394652Y-105199996D01*
X175394652Y-105200003D01*
X175414028Y-105557371D01*
X175471928Y-105910548D01*
X175471928Y-105910551D01*
X175567674Y-106255399D01*
X175567675Y-106255402D01*
X175700142Y-106587868D01*
X175700149Y-106587884D01*
X175867782Y-106904074D01*
X175867788Y-106904084D01*
X175867789Y-106904085D01*
X176068635Y-107200311D01*
X176300332Y-107473086D01*
X176300335Y-107473088D01*
X176300336Y-107473090D01*
X176560148Y-107719198D01*
X176560156Y-107719205D01*
X176560163Y-107719211D01*
X176845081Y-107935800D01*
X177151747Y-108120315D01*
X177476565Y-108270591D01*
X177697928Y-108345177D01*
X177815719Y-108384866D01*
X177815721Y-108384866D01*
X177815726Y-108384868D01*
X178165254Y-108461805D01*
X178521052Y-108500500D01*
X178521060Y-108500500D01*
X178878940Y-108500500D01*
X178878948Y-108500500D01*
X179234746Y-108461805D01*
X179584274Y-108384868D01*
X179923435Y-108270591D01*
X180248253Y-108120315D01*
X180554919Y-107935800D01*
X180839837Y-107719211D01*
X181099668Y-107473086D01*
X181331365Y-107200311D01*
X181532211Y-106904085D01*
X181699853Y-106587880D01*
X181832324Y-106255403D01*
X181928071Y-105910552D01*
X181985972Y-105557371D01*
X182005348Y-105200000D01*
X182004874Y-105191266D01*
X181997188Y-105049499D01*
X181985972Y-104842629D01*
X181928071Y-104489448D01*
X181832324Y-104144597D01*
X181699853Y-103812120D01*
X181643972Y-103706718D01*
X181532217Y-103495925D01*
X181532211Y-103495915D01*
X181331365Y-103199689D01*
X181099668Y-102926914D01*
X181099663Y-102926909D01*
X180839851Y-102680801D01*
X180839841Y-102680793D01*
X180839837Y-102680789D01*
X180554919Y-102464200D01*
X180248253Y-102279685D01*
X179923435Y-102129409D01*
X179919877Y-102128210D01*
X179584280Y-102015133D01*
X179584275Y-102015132D01*
X179234762Y-101938198D01*
X179234749Y-101938195D01*
X179234746Y-101938195D01*
X179234743Y-101938194D01*
X179234734Y-101938193D01*
X178878955Y-101899500D01*
X178878948Y-101899500D01*
X178521052Y-101899500D01*
X178521044Y-101899500D01*
X178165265Y-101938193D01*
X178165237Y-101938198D01*
X177815724Y-102015132D01*
X177815719Y-102015133D01*
X177476567Y-102129408D01*
X177476565Y-102129409D01*
X177350076Y-102187929D01*
X177151741Y-102279688D01*
X176845082Y-102464199D01*
X176845076Y-102464203D01*
X176560164Y-102680788D01*
X176560148Y-102680801D01*
X176300336Y-102926909D01*
X176252351Y-102983400D01*
X176068635Y-103199689D01*
X176068631Y-103199694D01*
X176068630Y-103199696D01*
X175867788Y-103495915D01*
X175867782Y-103495925D01*
X175700149Y-103812115D01*
X175700142Y-103812131D01*
X175567675Y-104144597D01*
X175567674Y-104144600D01*
X175471928Y-104489448D01*
X175471928Y-104489451D01*
X175414028Y-104842628D01*
X175394652Y-105199996D01*
X155960500Y-105199996D01*
X155960500Y-101204500D01*
X155960821Y-101195512D01*
X155976034Y-100982795D01*
X155977664Y-100959999D01*
X155980221Y-100942216D01*
X156029451Y-100715912D01*
X156034510Y-100698681D01*
X156115454Y-100481662D01*
X156122918Y-100465321D01*
X156233910Y-100262055D01*
X156243625Y-100246937D01*
X156382423Y-100061524D01*
X156394183Y-100047953D01*
X156557953Y-99884183D01*
X156571524Y-99872423D01*
X156756937Y-99733625D01*
X156772055Y-99723910D01*
X156889000Y-99660053D01*
X156975323Y-99612917D01*
X156991662Y-99605454D01*
X157208681Y-99524510D01*
X157225912Y-99519451D01*
X157452216Y-99470221D01*
X157469999Y-99467664D01*
X157661515Y-99453967D01*
X157705513Y-99450821D01*
X157714501Y-99450500D01*
X157754170Y-99450500D01*
X182655830Y-99450500D01*
X182695499Y-99450500D01*
X182704487Y-99450821D01*
X182756090Y-99454511D01*
X182939998Y-99467664D01*
X182957784Y-99470222D01*
X183184083Y-99519451D01*
X183201322Y-99524511D01*
X183418331Y-99605452D01*
X183434678Y-99612918D01*
X183637944Y-99723910D01*
X183653067Y-99733629D01*
X183838467Y-99872417D01*
X183852053Y-99884190D01*
X184015809Y-100047946D01*
X184027582Y-100061532D01*
X184166370Y-100246932D01*
X184176089Y-100262055D01*
X184287081Y-100465321D01*
X184294550Y-100481674D01*
X184375485Y-100698669D01*
X184380549Y-100715919D01*
X184429776Y-100942210D01*
X184432335Y-100960004D01*
X184447673Y-101174467D01*
X184448527Y-101186402D01*
X184449179Y-101195511D01*
X184449500Y-101204500D01*
X184449500Y-109581742D01*
X184448422Y-109598189D01*
X184439756Y-109664010D01*
X184431243Y-109695781D01*
X184409024Y-109749423D01*
X184392578Y-109777909D01*
X184357232Y-109823973D01*
X184333973Y-109847232D01*
X184287909Y-109882578D01*
X184259423Y-109899024D01*
X184205781Y-109921243D01*
X184174010Y-109929756D01*
X184125838Y-109936098D01*
X184108210Y-109938419D01*
X184091765Y-109939497D01*
X181609170Y-109939497D01*
X181565000Y-109939497D01*
X181362524Y-109939497D01*
X181362522Y-109939497D01*
X181362504Y-109939498D01*
X180959410Y-109977989D01*
X180959391Y-109977991D01*
X180561774Y-110054627D01*
X180561758Y-110054631D01*
X180173216Y-110168717D01*
X179797289Y-110319215D01*
X179797267Y-110319225D01*
X179437338Y-110504782D01*
X179096671Y-110723715D01*
X179096665Y-110723719D01*
X178778364Y-110974034D01*
X178778359Y-110974038D01*
X178778356Y-110974041D01*
X178636646Y-111109162D01*
X178485281Y-111253488D01*
X178220095Y-111559527D01*
X178220094Y-111559528D01*
X178091431Y-111740210D01*
X177992245Y-111879498D01*
X177985187Y-111889409D01*
X177985185Y-111889412D01*
X177782716Y-112240099D01*
X177614496Y-112608451D01*
X177614495Y-112608455D01*
X177482048Y-112991133D01*
X177482045Y-112991143D01*
X177417686Y-113256438D01*
X177386576Y-113384675D01*
X177333753Y-113752070D01*
X177328943Y-113785522D01*
X177309677Y-114189993D01*
X177309677Y-114190006D01*
X177328943Y-114594477D01*
X177328944Y-114594489D01*
X177328945Y-114594494D01*
X177383570Y-114974415D01*
X177386576Y-114995324D01*
X177482045Y-115388856D01*
X177482048Y-115388866D01*
X177614495Y-115771544D01*
X177614496Y-115771548D01*
X177782716Y-116139900D01*
X177985185Y-116490587D01*
X177985187Y-116490590D01*
X177985190Y-116490594D01*
X177985194Y-116490601D01*
X178220090Y-116820466D01*
X178485278Y-117126509D01*
X178778356Y-117405959D01*
X179096670Y-117656284D01*
X179437339Y-117875218D01*
X179691727Y-118006364D01*
X179751266Y-118037059D01*
X179797275Y-118060778D01*
X179797281Y-118060780D01*
X179797289Y-118060784D01*
X179960476Y-118126114D01*
X180173220Y-118211284D01*
X180561770Y-118325372D01*
X180801914Y-118371656D01*
X180959391Y-118402008D01*
X180959396Y-118402008D01*
X180959404Y-118402010D01*
X181362524Y-118440503D01*
X181515172Y-118440503D01*
X184091765Y-118440503D01*
X184108210Y-118441581D01*
X184125308Y-118443831D01*
X184174011Y-118450243D01*
X184205778Y-118458755D01*
X184259425Y-118480976D01*
X184287907Y-118497420D01*
X184296292Y-118503854D01*
X184333973Y-118532767D01*
X184357232Y-118556026D01*
X184392578Y-118602090D01*
X184409024Y-118630576D01*
X184431243Y-118684218D01*
X184439756Y-118715989D01*
X184448422Y-118781810D01*
X184449500Y-118798257D01*
X184449500Y-173695499D01*
X184449179Y-173704488D01*
X184432335Y-173939995D01*
X184429776Y-173957789D01*
X184380549Y-174184080D01*
X184375485Y-174201330D01*
X184294550Y-174418325D01*
X184287081Y-174434678D01*
X184176089Y-174637944D01*
X184166370Y-174653067D01*
X184027582Y-174838467D01*
X184015809Y-174852053D01*
X183852053Y-175015809D01*
X183838467Y-175027582D01*
X183653067Y-175166370D01*
X183637944Y-175176089D01*
X183434678Y-175287081D01*
X183418325Y-175294550D01*
X183201330Y-175375485D01*
X183184080Y-175380549D01*
X182957789Y-175429776D01*
X182939995Y-175432335D01*
X182704488Y-175449179D01*
X182695499Y-175449500D01*
X29654501Y-175449500D01*
X29645512Y-175449179D01*
X29410004Y-175432335D01*
X29392210Y-175429776D01*
X29165919Y-175380549D01*
X29148669Y-175375485D01*
X28931674Y-175294550D01*
X28915321Y-175287081D01*
X28712055Y-175176089D01*
X28696932Y-175166370D01*
X28511532Y-175027582D01*
X28497946Y-175015809D01*
X28334190Y-174852053D01*
X28322417Y-174838467D01*
X28183629Y-174653067D01*
X28173910Y-174637944D01*
X28062918Y-174434678D01*
X28055452Y-174418331D01*
X27974511Y-174201322D01*
X27969450Y-174184080D01*
X27920223Y-173957789D01*
X27917664Y-173939994D01*
X27900821Y-173704487D01*
X27900500Y-173695499D01*
X27900500Y-167199996D01*
X103694652Y-167199996D01*
X103694652Y-167200003D01*
X103714028Y-167557371D01*
X103771928Y-167910548D01*
X103771928Y-167910551D01*
X103867674Y-168255399D01*
X103867675Y-168255402D01*
X104000142Y-168587868D01*
X104000149Y-168587884D01*
X104167782Y-168904074D01*
X104167788Y-168904084D01*
X104167789Y-168904085D01*
X104368635Y-169200311D01*
X104600332Y-169473086D01*
X104600335Y-169473088D01*
X104600336Y-169473090D01*
X104860148Y-169719198D01*
X104860156Y-169719205D01*
X104860163Y-169719211D01*
X105145081Y-169935800D01*
X105451747Y-170120315D01*
X105776565Y-170270591D01*
X105997928Y-170345177D01*
X106115719Y-170384866D01*
X106115721Y-170384866D01*
X106115726Y-170384868D01*
X106465254Y-170461805D01*
X106821052Y-170500500D01*
X106821060Y-170500500D01*
X107178940Y-170500500D01*
X107178948Y-170500500D01*
X107534746Y-170461805D01*
X107884274Y-170384868D01*
X108223435Y-170270591D01*
X108548253Y-170120315D01*
X108854919Y-169935800D01*
X109139837Y-169719211D01*
X109399668Y-169473086D01*
X109631365Y-169200311D01*
X109832211Y-168904085D01*
X109999853Y-168587880D01*
X110132324Y-168255403D01*
X110228071Y-167910552D01*
X110285972Y-167557371D01*
X110305348Y-167200000D01*
X110285972Y-166842629D01*
X110228071Y-166489448D01*
X110132324Y-166144597D01*
X109999853Y-165812120D01*
X109943972Y-165706718D01*
X109832217Y-165495925D01*
X109832211Y-165495915D01*
X109631365Y-165199689D01*
X109399668Y-164926914D01*
X109399663Y-164926909D01*
X109139851Y-164680801D01*
X109139841Y-164680793D01*
X109139837Y-164680789D01*
X108854919Y-164464200D01*
X108548253Y-164279685D01*
X108223435Y-164129409D01*
X108219877Y-164128210D01*
X107884280Y-164015133D01*
X107884275Y-164015132D01*
X107534762Y-163938198D01*
X107534749Y-163938195D01*
X107534746Y-163938195D01*
X107534743Y-163938194D01*
X107534734Y-163938193D01*
X107178955Y-163899500D01*
X107178948Y-163899500D01*
X106821052Y-163899500D01*
X106821044Y-163899500D01*
X106465265Y-163938193D01*
X106465237Y-163938198D01*
X106115724Y-164015132D01*
X106115719Y-164015133D01*
X105776567Y-164129408D01*
X105451741Y-164279688D01*
X105145082Y-164464199D01*
X105145076Y-164464203D01*
X104860164Y-164680788D01*
X104860148Y-164680801D01*
X104600336Y-164926909D01*
X104600332Y-164926914D01*
X104368635Y-165199689D01*
X104368631Y-165199694D01*
X104368630Y-165199696D01*
X104167788Y-165495915D01*
X104167782Y-165495925D01*
X104000149Y-165812115D01*
X104000142Y-165812131D01*
X103867675Y-166144597D01*
X103867674Y-166144600D01*
X103771928Y-166489448D01*
X103771928Y-166489451D01*
X103714028Y-166842628D01*
X103694652Y-167199996D01*
X27900500Y-167199996D01*
X27900500Y-162990000D01*
X40504706Y-162990000D01*
X40523854Y-163233302D01*
X40580827Y-163470609D01*
X40674222Y-163696087D01*
X40801742Y-163904180D01*
X40801743Y-163904182D01*
X40960240Y-164089759D01*
X41145817Y-164248256D01*
X41145821Y-164248259D01*
X41353911Y-164375777D01*
X41579388Y-164469172D01*
X41816698Y-164526146D01*
X42060000Y-164545294D01*
X42303302Y-164526146D01*
X42540612Y-164469172D01*
X42766089Y-164375777D01*
X42974179Y-164248259D01*
X43159759Y-164089759D01*
X43318259Y-163904179D01*
X43445777Y-163696089D01*
X43539172Y-163470612D01*
X43596146Y-163233302D01*
X43615294Y-162990000D01*
X58554706Y-162990000D01*
X58573854Y-163233302D01*
X58630827Y-163470609D01*
X58724222Y-163696087D01*
X58851742Y-163904180D01*
X58851743Y-163904182D01*
X59010240Y-164089759D01*
X59195817Y-164248256D01*
X59195821Y-164248259D01*
X59403911Y-164375777D01*
X59629388Y-164469172D01*
X59866698Y-164526146D01*
X60110000Y-164545294D01*
X60353302Y-164526146D01*
X60590612Y-164469172D01*
X60816089Y-164375777D01*
X61024179Y-164248259D01*
X61209759Y-164089759D01*
X61368259Y-163904179D01*
X61495777Y-163696089D01*
X61589172Y-163470612D01*
X61646146Y-163233302D01*
X61665294Y-162990000D01*
X76554706Y-162990000D01*
X76573854Y-163233302D01*
X76630827Y-163470609D01*
X76724222Y-163696087D01*
X76851742Y-163904180D01*
X76851743Y-163904182D01*
X77010240Y-164089759D01*
X77195817Y-164248256D01*
X77195821Y-164248259D01*
X77403911Y-164375777D01*
X77629388Y-164469172D01*
X77866698Y-164526146D01*
X78110000Y-164545294D01*
X78353302Y-164526146D01*
X78590612Y-164469172D01*
X78816089Y-164375777D01*
X79024179Y-164248259D01*
X79209759Y-164089759D01*
X79368259Y-163904179D01*
X79495777Y-163696089D01*
X79589172Y-163470612D01*
X79646146Y-163233302D01*
X79665294Y-162990000D01*
X94554706Y-162990000D01*
X94573854Y-163233302D01*
X94630827Y-163470609D01*
X94724222Y-163696087D01*
X94851742Y-163904180D01*
X94851743Y-163904182D01*
X95010240Y-164089759D01*
X95195817Y-164248256D01*
X95195821Y-164248259D01*
X95403911Y-164375777D01*
X95629388Y-164469172D01*
X95866698Y-164526146D01*
X96110000Y-164545294D01*
X96353302Y-164526146D01*
X96590612Y-164469172D01*
X96816089Y-164375777D01*
X97024179Y-164248259D01*
X97209759Y-164089759D01*
X97368259Y-163904179D01*
X97495777Y-163696089D01*
X97589172Y-163470612D01*
X97646146Y-163233302D01*
X97665294Y-162990000D01*
X120254706Y-162990000D01*
X120273854Y-163233302D01*
X120330827Y-163470609D01*
X120424222Y-163696087D01*
X120551742Y-163904180D01*
X120551743Y-163904182D01*
X120710240Y-164089759D01*
X120895817Y-164248256D01*
X120895821Y-164248259D01*
X121103911Y-164375777D01*
X121329388Y-164469172D01*
X121566698Y-164526146D01*
X121810000Y-164545294D01*
X122053302Y-164526146D01*
X122290612Y-164469172D01*
X122516089Y-164375777D01*
X122724179Y-164248259D01*
X122909759Y-164089759D01*
X123068259Y-163904179D01*
X123195777Y-163696089D01*
X123289172Y-163470612D01*
X123346146Y-163233302D01*
X123365294Y-162990000D01*
X138254706Y-162990000D01*
X138273854Y-163233302D01*
X138330827Y-163470609D01*
X138424222Y-163696087D01*
X138551742Y-163904180D01*
X138551743Y-163904182D01*
X138710240Y-164089759D01*
X138895817Y-164248256D01*
X138895821Y-164248259D01*
X139103911Y-164375777D01*
X139329388Y-164469172D01*
X139566698Y-164526146D01*
X139810000Y-164545294D01*
X140053302Y-164526146D01*
X140290612Y-164469172D01*
X140516089Y-164375777D01*
X140724179Y-164248259D01*
X140909759Y-164089759D01*
X141068259Y-163904179D01*
X141195777Y-163696089D01*
X141289172Y-163470612D01*
X141346146Y-163233302D01*
X141365294Y-162990000D01*
X156254706Y-162990000D01*
X156273854Y-163233302D01*
X156330827Y-163470609D01*
X156424222Y-163696087D01*
X156551742Y-163904180D01*
X156551743Y-163904182D01*
X156710240Y-164089759D01*
X156895817Y-164248256D01*
X156895821Y-164248259D01*
X157103911Y-164375777D01*
X157329388Y-164469172D01*
X157566698Y-164526146D01*
X157810000Y-164545294D01*
X158053302Y-164526146D01*
X158290612Y-164469172D01*
X158516089Y-164375777D01*
X158724179Y-164248259D01*
X158909759Y-164089759D01*
X159068259Y-163904179D01*
X159195777Y-163696089D01*
X159289172Y-163470612D01*
X159346146Y-163233302D01*
X159365294Y-162990000D01*
X174134706Y-162990000D01*
X174153854Y-163233302D01*
X174210827Y-163470609D01*
X174304222Y-163696087D01*
X174431742Y-163904180D01*
X174431743Y-163904182D01*
X174590240Y-164089759D01*
X174775817Y-164248256D01*
X174775821Y-164248259D01*
X174983911Y-164375777D01*
X175209388Y-164469172D01*
X175446698Y-164526146D01*
X175690000Y-164545294D01*
X175933302Y-164526146D01*
X176170612Y-164469172D01*
X176396089Y-164375777D01*
X176604179Y-164248259D01*
X176789759Y-164089759D01*
X176948259Y-163904179D01*
X177075777Y-163696089D01*
X177169172Y-163470612D01*
X177226146Y-163233302D01*
X177245294Y-162990000D01*
X177226146Y-162746698D01*
X177169172Y-162509388D01*
X177075777Y-162283911D01*
X176948259Y-162075821D01*
X176948256Y-162075817D01*
X176789759Y-161890240D01*
X176604182Y-161731743D01*
X176604180Y-161731742D01*
X176604179Y-161731741D01*
X176396089Y-161604223D01*
X176170612Y-161510828D01*
X176170610Y-161510827D01*
X176170609Y-161510827D01*
X176042900Y-161480166D01*
X175933302Y-161453854D01*
X175933303Y-161453854D01*
X175690000Y-161434706D01*
X175446697Y-161453854D01*
X175209390Y-161510827D01*
X174983912Y-161604222D01*
X174775819Y-161731742D01*
X174775817Y-161731743D01*
X174590240Y-161890240D01*
X174431743Y-162075817D01*
X174431742Y-162075819D01*
X174304222Y-162283912D01*
X174210827Y-162509390D01*
X174153854Y-162746697D01*
X174134706Y-162990000D01*
X159365294Y-162990000D01*
X159346146Y-162746698D01*
X159289172Y-162509388D01*
X159195777Y-162283911D01*
X159068259Y-162075821D01*
X159068256Y-162075817D01*
X158909759Y-161890240D01*
X158724182Y-161731743D01*
X158724180Y-161731742D01*
X158724179Y-161731741D01*
X158516089Y-161604223D01*
X158290612Y-161510828D01*
X158290610Y-161510827D01*
X158290609Y-161510827D01*
X158162900Y-161480166D01*
X158053302Y-161453854D01*
X158053303Y-161453854D01*
X157810000Y-161434706D01*
X157566697Y-161453854D01*
X157329390Y-161510827D01*
X157103912Y-161604222D01*
X156895819Y-161731742D01*
X156895817Y-161731743D01*
X156710240Y-161890240D01*
X156551743Y-162075817D01*
X156551742Y-162075819D01*
X156424222Y-162283912D01*
X156330827Y-162509390D01*
X156273854Y-162746697D01*
X156254706Y-162990000D01*
X141365294Y-162990000D01*
X141346146Y-162746698D01*
X141289172Y-162509388D01*
X141195777Y-162283911D01*
X141068259Y-162075821D01*
X141068256Y-162075817D01*
X140909759Y-161890240D01*
X140724182Y-161731743D01*
X140724180Y-161731742D01*
X140724179Y-161731741D01*
X140516089Y-161604223D01*
X140290612Y-161510828D01*
X140290610Y-161510827D01*
X140290609Y-161510827D01*
X140162900Y-161480166D01*
X140053302Y-161453854D01*
X140053303Y-161453854D01*
X139810000Y-161434706D01*
X139566697Y-161453854D01*
X139329390Y-161510827D01*
X139103912Y-161604222D01*
X138895819Y-161731742D01*
X138895817Y-161731743D01*
X138710240Y-161890240D01*
X138551743Y-162075817D01*
X138551742Y-162075819D01*
X138424222Y-162283912D01*
X138330827Y-162509390D01*
X138273854Y-162746697D01*
X138254706Y-162990000D01*
X123365294Y-162990000D01*
X123346146Y-162746698D01*
X123289172Y-162509388D01*
X123195777Y-162283911D01*
X123068259Y-162075821D01*
X123068256Y-162075817D01*
X122909759Y-161890240D01*
X122724182Y-161731743D01*
X122724180Y-161731742D01*
X122724179Y-161731741D01*
X122516089Y-161604223D01*
X122290612Y-161510828D01*
X122290610Y-161510827D01*
X122290609Y-161510827D01*
X122162900Y-161480166D01*
X122053302Y-161453854D01*
X122053303Y-161453854D01*
X121810000Y-161434706D01*
X121566697Y-161453854D01*
X121329390Y-161510827D01*
X121103912Y-161604222D01*
X120895819Y-161731742D01*
X120895817Y-161731743D01*
X120710240Y-161890240D01*
X120551743Y-162075817D01*
X120551742Y-162075819D01*
X120424222Y-162283912D01*
X120330827Y-162509390D01*
X120273854Y-162746697D01*
X120254706Y-162990000D01*
X97665294Y-162990000D01*
X97646146Y-162746698D01*
X97589172Y-162509388D01*
X97495777Y-162283911D01*
X97368259Y-162075821D01*
X97368256Y-162075817D01*
X97209759Y-161890240D01*
X97024182Y-161731743D01*
X97024180Y-161731742D01*
X97024179Y-161731741D01*
X96816089Y-161604223D01*
X96590612Y-161510828D01*
X96590610Y-161510827D01*
X96590609Y-161510827D01*
X96462900Y-161480166D01*
X96353302Y-161453854D01*
X96353303Y-161453854D01*
X96110000Y-161434706D01*
X95866697Y-161453854D01*
X95629390Y-161510827D01*
X95403912Y-161604222D01*
X95195819Y-161731742D01*
X95195817Y-161731743D01*
X95010240Y-161890240D01*
X94851743Y-162075817D01*
X94851742Y-162075819D01*
X94724222Y-162283912D01*
X94630827Y-162509390D01*
X94573854Y-162746697D01*
X94554706Y-162990000D01*
X79665294Y-162990000D01*
X79646146Y-162746698D01*
X79589172Y-162509388D01*
X79495777Y-162283911D01*
X79368259Y-162075821D01*
X79368256Y-162075817D01*
X79209759Y-161890240D01*
X79024182Y-161731743D01*
X79024180Y-161731742D01*
X79024179Y-161731741D01*
X78816089Y-161604223D01*
X78590612Y-161510828D01*
X78590610Y-161510827D01*
X78590609Y-161510827D01*
X78462900Y-161480166D01*
X78353302Y-161453854D01*
X78353303Y-161453854D01*
X78110000Y-161434706D01*
X77866697Y-161453854D01*
X77629390Y-161510827D01*
X77403912Y-161604222D01*
X77195819Y-161731742D01*
X77195817Y-161731743D01*
X77010240Y-161890240D01*
X76851743Y-162075817D01*
X76851742Y-162075819D01*
X76724222Y-162283912D01*
X76630827Y-162509390D01*
X76573854Y-162746697D01*
X76554706Y-162990000D01*
X61665294Y-162990000D01*
X61646146Y-162746698D01*
X61589172Y-162509388D01*
X61495777Y-162283911D01*
X61368259Y-162075821D01*
X61368256Y-162075817D01*
X61209759Y-161890240D01*
X61024182Y-161731743D01*
X61024180Y-161731742D01*
X61024179Y-161731741D01*
X60816089Y-161604223D01*
X60590612Y-161510828D01*
X60590610Y-161510827D01*
X60590609Y-161510827D01*
X60462900Y-161480166D01*
X60353302Y-161453854D01*
X60353303Y-161453854D01*
X60110000Y-161434706D01*
X59866697Y-161453854D01*
X59629390Y-161510827D01*
X59403912Y-161604222D01*
X59195819Y-161731742D01*
X59195817Y-161731743D01*
X59010240Y-161890240D01*
X58851743Y-162075817D01*
X58851742Y-162075819D01*
X58724222Y-162283912D01*
X58630827Y-162509390D01*
X58573854Y-162746697D01*
X58554706Y-162990000D01*
X43615294Y-162990000D01*
X43596146Y-162746698D01*
X43539172Y-162509388D01*
X43445777Y-162283911D01*
X43318259Y-162075821D01*
X43318256Y-162075817D01*
X43159759Y-161890240D01*
X42974182Y-161731743D01*
X42974180Y-161731742D01*
X42974179Y-161731741D01*
X42766089Y-161604223D01*
X42540612Y-161510828D01*
X42540610Y-161510827D01*
X42540609Y-161510827D01*
X42412900Y-161480166D01*
X42303302Y-161453854D01*
X42303303Y-161453854D01*
X42060000Y-161434706D01*
X41816697Y-161453854D01*
X41579390Y-161510827D01*
X41353912Y-161604222D01*
X41145819Y-161731742D01*
X41145817Y-161731743D01*
X40960240Y-161890240D01*
X40801743Y-162075817D01*
X40801742Y-162075819D01*
X40674222Y-162283912D01*
X40580827Y-162509390D01*
X40523854Y-162746697D01*
X40504706Y-162990000D01*
X27900500Y-162990000D01*
X27900500Y-160840000D01*
X31004706Y-160840000D01*
X31023854Y-161083302D01*
X31080827Y-161320609D01*
X31159617Y-161510828D01*
X31174223Y-161546089D01*
X31287992Y-161731743D01*
X31301742Y-161754180D01*
X31301743Y-161754182D01*
X31460240Y-161939759D01*
X31619547Y-162075819D01*
X31645821Y-162098259D01*
X31853911Y-162225777D01*
X32079388Y-162319172D01*
X32316698Y-162376146D01*
X32560000Y-162395294D01*
X32803302Y-162376146D01*
X33040612Y-162319172D01*
X33266089Y-162225777D01*
X33474179Y-162098259D01*
X33659759Y-161939759D01*
X33818259Y-161754179D01*
X33945777Y-161546089D01*
X34039172Y-161320612D01*
X34096146Y-161083302D01*
X34115294Y-160840000D01*
X49054706Y-160840000D01*
X49073854Y-161083302D01*
X49130827Y-161320609D01*
X49209617Y-161510828D01*
X49224223Y-161546089D01*
X49337992Y-161731743D01*
X49351742Y-161754180D01*
X49351743Y-161754182D01*
X49510240Y-161939759D01*
X49669547Y-162075819D01*
X49695821Y-162098259D01*
X49903911Y-162225777D01*
X50129388Y-162319172D01*
X50366698Y-162376146D01*
X50610000Y-162395294D01*
X50853302Y-162376146D01*
X51090612Y-162319172D01*
X51316089Y-162225777D01*
X51524179Y-162098259D01*
X51709759Y-161939759D01*
X51868259Y-161754179D01*
X51995777Y-161546089D01*
X52089172Y-161320612D01*
X52146146Y-161083302D01*
X52165294Y-160840000D01*
X67054706Y-160840000D01*
X67073854Y-161083302D01*
X67130827Y-161320609D01*
X67209617Y-161510828D01*
X67224223Y-161546089D01*
X67337992Y-161731743D01*
X67351742Y-161754180D01*
X67351743Y-161754182D01*
X67510240Y-161939759D01*
X67669547Y-162075819D01*
X67695821Y-162098259D01*
X67903911Y-162225777D01*
X68129388Y-162319172D01*
X68366698Y-162376146D01*
X68610000Y-162395294D01*
X68853302Y-162376146D01*
X69090612Y-162319172D01*
X69316089Y-162225777D01*
X69524179Y-162098259D01*
X69709759Y-161939759D01*
X69868259Y-161754179D01*
X69995777Y-161546089D01*
X70089172Y-161320612D01*
X70146146Y-161083302D01*
X70165294Y-160840000D01*
X85054706Y-160840000D01*
X85073854Y-161083302D01*
X85130827Y-161320609D01*
X85209617Y-161510828D01*
X85224223Y-161546089D01*
X85337992Y-161731743D01*
X85351742Y-161754180D01*
X85351743Y-161754182D01*
X85510240Y-161939759D01*
X85669547Y-162075819D01*
X85695821Y-162098259D01*
X85903911Y-162225777D01*
X86129388Y-162319172D01*
X86366698Y-162376146D01*
X86610000Y-162395294D01*
X86853302Y-162376146D01*
X87090612Y-162319172D01*
X87316089Y-162225777D01*
X87524179Y-162098259D01*
X87709759Y-161939759D01*
X87868259Y-161754179D01*
X87995777Y-161546089D01*
X88089172Y-161320612D01*
X88146146Y-161083302D01*
X88165294Y-160840000D01*
X110754706Y-160840000D01*
X110773854Y-161083302D01*
X110830827Y-161320609D01*
X110909617Y-161510828D01*
X110924223Y-161546089D01*
X111037992Y-161731743D01*
X111051742Y-161754180D01*
X111051743Y-161754182D01*
X111210240Y-161939759D01*
X111369547Y-162075819D01*
X111395821Y-162098259D01*
X111603911Y-162225777D01*
X111829388Y-162319172D01*
X112066698Y-162376146D01*
X112310000Y-162395294D01*
X112553302Y-162376146D01*
X112790612Y-162319172D01*
X113016089Y-162225777D01*
X113224179Y-162098259D01*
X113409759Y-161939759D01*
X113568259Y-161754179D01*
X113695777Y-161546089D01*
X113789172Y-161320612D01*
X113846146Y-161083302D01*
X113865294Y-160840000D01*
X128754706Y-160840000D01*
X128773854Y-161083302D01*
X128830827Y-161320609D01*
X128909617Y-161510828D01*
X128924223Y-161546089D01*
X129037992Y-161731743D01*
X129051742Y-161754180D01*
X129051743Y-161754182D01*
X129210240Y-161939759D01*
X129369547Y-162075819D01*
X129395821Y-162098259D01*
X129603911Y-162225777D01*
X129829388Y-162319172D01*
X130066698Y-162376146D01*
X130310000Y-162395294D01*
X130553302Y-162376146D01*
X130790612Y-162319172D01*
X131016089Y-162225777D01*
X131224179Y-162098259D01*
X131409759Y-161939759D01*
X131568259Y-161754179D01*
X131695777Y-161546089D01*
X131789172Y-161320612D01*
X131846146Y-161083302D01*
X131865294Y-160840000D01*
X146754706Y-160840000D01*
X146773854Y-161083302D01*
X146830827Y-161320609D01*
X146909617Y-161510828D01*
X146924223Y-161546089D01*
X147037992Y-161731743D01*
X147051742Y-161754180D01*
X147051743Y-161754182D01*
X147210240Y-161939759D01*
X147369547Y-162075819D01*
X147395821Y-162098259D01*
X147603911Y-162225777D01*
X147829388Y-162319172D01*
X148066698Y-162376146D01*
X148310000Y-162395294D01*
X148553302Y-162376146D01*
X148790612Y-162319172D01*
X149016089Y-162225777D01*
X149224179Y-162098259D01*
X149409759Y-161939759D01*
X149568259Y-161754179D01*
X149695777Y-161546089D01*
X149789172Y-161320612D01*
X149846146Y-161083302D01*
X149865294Y-160840000D01*
X164634706Y-160840000D01*
X164653854Y-161083302D01*
X164710827Y-161320609D01*
X164789617Y-161510828D01*
X164804223Y-161546089D01*
X164917992Y-161731743D01*
X164931742Y-161754180D01*
X164931743Y-161754182D01*
X165090240Y-161939759D01*
X165249547Y-162075819D01*
X165275821Y-162098259D01*
X165483911Y-162225777D01*
X165709388Y-162319172D01*
X165946698Y-162376146D01*
X166190000Y-162395294D01*
X166433302Y-162376146D01*
X166670612Y-162319172D01*
X166896089Y-162225777D01*
X167104179Y-162098259D01*
X167289759Y-161939759D01*
X167448259Y-161754179D01*
X167575777Y-161546089D01*
X167669172Y-161320612D01*
X167726146Y-161083302D01*
X167745294Y-160840000D01*
X167726146Y-160596698D01*
X167669172Y-160359388D01*
X167575777Y-160133911D01*
X167448259Y-159925821D01*
X167448256Y-159925817D01*
X167289759Y-159740240D01*
X167104182Y-159581743D01*
X167104180Y-159581742D01*
X167104179Y-159581741D01*
X166896089Y-159454223D01*
X166670612Y-159360828D01*
X166670610Y-159360827D01*
X166670609Y-159360827D01*
X166542900Y-159330166D01*
X166433302Y-159303854D01*
X166433303Y-159303854D01*
X166190000Y-159284706D01*
X165946697Y-159303854D01*
X165709390Y-159360827D01*
X165483912Y-159454222D01*
X165275819Y-159581742D01*
X165275817Y-159581743D01*
X165090240Y-159740240D01*
X164931743Y-159925817D01*
X164931742Y-159925819D01*
X164804222Y-160133912D01*
X164710827Y-160359390D01*
X164653854Y-160596697D01*
X164634706Y-160840000D01*
X149865294Y-160840000D01*
X149846146Y-160596698D01*
X149789172Y-160359388D01*
X149695777Y-160133911D01*
X149568259Y-159925821D01*
X149568256Y-159925817D01*
X149409759Y-159740240D01*
X149224182Y-159581743D01*
X149224180Y-159581742D01*
X149224179Y-159581741D01*
X149016089Y-159454223D01*
X148790612Y-159360828D01*
X148790610Y-159360827D01*
X148790609Y-159360827D01*
X148662900Y-159330166D01*
X148553302Y-159303854D01*
X148553303Y-159303854D01*
X148310000Y-159284706D01*
X148066697Y-159303854D01*
X147829390Y-159360827D01*
X147603912Y-159454222D01*
X147395819Y-159581742D01*
X147395817Y-159581743D01*
X147210240Y-159740240D01*
X147051743Y-159925817D01*
X147051742Y-159925819D01*
X146924222Y-160133912D01*
X146830827Y-160359390D01*
X146773854Y-160596697D01*
X146754706Y-160840000D01*
X131865294Y-160840000D01*
X131846146Y-160596698D01*
X131789172Y-160359388D01*
X131695777Y-160133911D01*
X131568259Y-159925821D01*
X131568256Y-159925817D01*
X131409759Y-159740240D01*
X131224182Y-159581743D01*
X131224180Y-159581742D01*
X131224179Y-159581741D01*
X131016089Y-159454223D01*
X130790612Y-159360828D01*
X130790610Y-159360827D01*
X130790609Y-159360827D01*
X130662900Y-159330166D01*
X130553302Y-159303854D01*
X130553303Y-159303854D01*
X130310000Y-159284706D01*
X130066697Y-159303854D01*
X129829390Y-159360827D01*
X129603912Y-159454222D01*
X129395819Y-159581742D01*
X129395817Y-159581743D01*
X129210240Y-159740240D01*
X129051743Y-159925817D01*
X129051742Y-159925819D01*
X128924222Y-160133912D01*
X128830827Y-160359390D01*
X128773854Y-160596697D01*
X128754706Y-160840000D01*
X113865294Y-160840000D01*
X113846146Y-160596698D01*
X113789172Y-160359388D01*
X113695777Y-160133911D01*
X113568259Y-159925821D01*
X113568256Y-159925817D01*
X113409759Y-159740240D01*
X113224182Y-159581743D01*
X113224180Y-159581742D01*
X113224179Y-159581741D01*
X113016089Y-159454223D01*
X112790612Y-159360828D01*
X112790610Y-159360827D01*
X112790609Y-159360827D01*
X112662900Y-159330166D01*
X112553302Y-159303854D01*
X112553303Y-159303854D01*
X112310000Y-159284706D01*
X112066697Y-159303854D01*
X111829390Y-159360827D01*
X111603912Y-159454222D01*
X111395819Y-159581742D01*
X111395817Y-159581743D01*
X111210240Y-159740240D01*
X111051743Y-159925817D01*
X111051742Y-159925819D01*
X110924222Y-160133912D01*
X110830827Y-160359390D01*
X110773854Y-160596697D01*
X110754706Y-160840000D01*
X88165294Y-160840000D01*
X88146146Y-160596698D01*
X88089172Y-160359388D01*
X87995777Y-160133911D01*
X87868259Y-159925821D01*
X87868256Y-159925817D01*
X87709759Y-159740240D01*
X87524182Y-159581743D01*
X87524180Y-159581742D01*
X87524179Y-159581741D01*
X87316089Y-159454223D01*
X87090612Y-159360828D01*
X87090610Y-159360827D01*
X87090609Y-159360827D01*
X86962900Y-159330166D01*
X86853302Y-159303854D01*
X86853303Y-159303854D01*
X86610000Y-159284706D01*
X86366697Y-159303854D01*
X86129390Y-159360827D01*
X85903912Y-159454222D01*
X85695819Y-159581742D01*
X85695817Y-159581743D01*
X85510240Y-159740240D01*
X85351743Y-159925817D01*
X85351742Y-159925819D01*
X85224222Y-160133912D01*
X85130827Y-160359390D01*
X85073854Y-160596697D01*
X85054706Y-160840000D01*
X70165294Y-160840000D01*
X70146146Y-160596698D01*
X70089172Y-160359388D01*
X69995777Y-160133911D01*
X69868259Y-159925821D01*
X69868256Y-159925817D01*
X69709759Y-159740240D01*
X69524182Y-159581743D01*
X69524180Y-159581742D01*
X69524179Y-159581741D01*
X69316089Y-159454223D01*
X69090612Y-159360828D01*
X69090610Y-159360827D01*
X69090609Y-159360827D01*
X68962900Y-159330166D01*
X68853302Y-159303854D01*
X68853303Y-159303854D01*
X68610000Y-159284706D01*
X68366697Y-159303854D01*
X68129390Y-159360827D01*
X67903912Y-159454222D01*
X67695819Y-159581742D01*
X67695817Y-159581743D01*
X67510240Y-159740240D01*
X67351743Y-159925817D01*
X67351742Y-159925819D01*
X67224222Y-160133912D01*
X67130827Y-160359390D01*
X67073854Y-160596697D01*
X67054706Y-160840000D01*
X52165294Y-160840000D01*
X52146146Y-160596698D01*
X52089172Y-160359388D01*
X51995777Y-160133911D01*
X51868259Y-159925821D01*
X51868256Y-159925817D01*
X51709759Y-159740240D01*
X51524182Y-159581743D01*
X51524180Y-159581742D01*
X51524179Y-159581741D01*
X51316089Y-159454223D01*
X51090612Y-159360828D01*
X51090610Y-159360827D01*
X51090609Y-159360827D01*
X50962900Y-159330166D01*
X50853302Y-159303854D01*
X50853303Y-159303854D01*
X50610000Y-159284706D01*
X50366697Y-159303854D01*
X50129390Y-159360827D01*
X49903912Y-159454222D01*
X49695819Y-159581742D01*
X49695817Y-159581743D01*
X49510240Y-159740240D01*
X49351743Y-159925817D01*
X49351742Y-159925819D01*
X49224222Y-160133912D01*
X49130827Y-160359390D01*
X49073854Y-160596697D01*
X49054706Y-160840000D01*
X34115294Y-160840000D01*
X34096146Y-160596698D01*
X34039172Y-160359388D01*
X33945777Y-160133911D01*
X33818259Y-159925821D01*
X33818256Y-159925817D01*
X33659759Y-159740240D01*
X33474182Y-159581743D01*
X33474180Y-159581742D01*
X33474179Y-159581741D01*
X33266089Y-159454223D01*
X33040612Y-159360828D01*
X33040610Y-159360827D01*
X33040609Y-159360827D01*
X32912900Y-159330166D01*
X32803302Y-159303854D01*
X32803303Y-159303854D01*
X32560000Y-159284706D01*
X32316697Y-159303854D01*
X32079390Y-159360827D01*
X31853912Y-159454222D01*
X31645819Y-159581742D01*
X31645817Y-159581743D01*
X31460240Y-159740240D01*
X31301743Y-159925817D01*
X31301742Y-159925819D01*
X31174222Y-160133912D01*
X31080827Y-160359390D01*
X31023854Y-160596697D01*
X31004706Y-160840000D01*
X27900500Y-160840000D01*
X27900500Y-152150000D01*
X70950000Y-152150000D01*
X135950000Y-152150000D01*
X135950000Y-146770000D01*
X174134706Y-146770000D01*
X174153854Y-147013302D01*
X174210827Y-147250609D01*
X174304222Y-147476087D01*
X174431742Y-147684180D01*
X174431743Y-147684182D01*
X174590240Y-147869759D01*
X174775817Y-148028256D01*
X174775821Y-148028259D01*
X174983911Y-148155777D01*
X175209388Y-148249172D01*
X175446698Y-148306146D01*
X175690000Y-148325294D01*
X175933302Y-148306146D01*
X176170612Y-148249172D01*
X176396089Y-148155777D01*
X176604179Y-148028259D01*
X176789759Y-147869759D01*
X176948259Y-147684179D01*
X177075777Y-147476089D01*
X177169172Y-147250612D01*
X177226146Y-147013302D01*
X177245294Y-146770000D01*
X177226146Y-146526698D01*
X177169172Y-146289388D01*
X177075777Y-146063911D01*
X176948259Y-145855821D01*
X176948256Y-145855817D01*
X176789759Y-145670240D01*
X176604182Y-145511743D01*
X176604180Y-145511742D01*
X176604179Y-145511741D01*
X176396089Y-145384223D01*
X176170612Y-145290828D01*
X176170610Y-145290827D01*
X176170609Y-145290827D01*
X176042900Y-145260166D01*
X175933302Y-145233854D01*
X175933303Y-145233854D01*
X175690000Y-145214706D01*
X175446697Y-145233854D01*
X175209390Y-145290827D01*
X174983912Y-145384222D01*
X174775819Y-145511742D01*
X174775817Y-145511743D01*
X174590240Y-145670240D01*
X174431743Y-145855817D01*
X174431742Y-145855819D01*
X174304222Y-146063912D01*
X174210827Y-146289390D01*
X174153854Y-146526697D01*
X174134706Y-146770000D01*
X135950000Y-146770000D01*
X135950000Y-144620000D01*
X164634706Y-144620000D01*
X164653854Y-144863302D01*
X164710827Y-145100609D01*
X164789617Y-145290828D01*
X164804223Y-145326089D01*
X164917992Y-145511743D01*
X164931742Y-145534180D01*
X164931743Y-145534182D01*
X165090240Y-145719759D01*
X165249547Y-145855819D01*
X165275821Y-145878259D01*
X165483911Y-146005777D01*
X165709388Y-146099172D01*
X165946698Y-146156146D01*
X166190000Y-146175294D01*
X166433302Y-146156146D01*
X166670612Y-146099172D01*
X166896089Y-146005777D01*
X167104179Y-145878259D01*
X167289759Y-145719759D01*
X167448259Y-145534179D01*
X167575777Y-145326089D01*
X167669172Y-145100612D01*
X167726146Y-144863302D01*
X167745294Y-144620000D01*
X167726146Y-144376698D01*
X167669172Y-144139388D01*
X167575777Y-143913911D01*
X167448259Y-143705821D01*
X167448256Y-143705817D01*
X167289759Y-143520240D01*
X167104182Y-143361743D01*
X167104180Y-143361742D01*
X167104179Y-143361741D01*
X166896089Y-143234223D01*
X166670612Y-143140828D01*
X166670610Y-143140827D01*
X166670609Y-143140827D01*
X166542900Y-143110166D01*
X166433302Y-143083854D01*
X166433303Y-143083854D01*
X166190000Y-143064706D01*
X165946697Y-143083854D01*
X165709390Y-143140827D01*
X165483912Y-143234222D01*
X165275819Y-143361742D01*
X165275817Y-143361743D01*
X165090240Y-143520240D01*
X164931743Y-143705817D01*
X164931742Y-143705819D01*
X164804222Y-143913912D01*
X164710827Y-144139390D01*
X164653854Y-144376697D01*
X164634706Y-144620000D01*
X135950000Y-144620000D01*
X135950000Y-137150000D01*
X70950000Y-137150000D01*
X70950000Y-152150000D01*
X27900500Y-152150000D01*
X27900500Y-134579997D01*
X51804355Y-134579997D01*
X51804355Y-134580002D01*
X51824859Y-134748871D01*
X51885179Y-134907925D01*
X51885181Y-134907929D01*
X51969787Y-135030500D01*
X51981817Y-135047929D01*
X52109148Y-135160734D01*
X52259775Y-135239790D01*
X52259776Y-135239790D01*
X52259778Y-135239791D01*
X52416461Y-135278409D01*
X52424944Y-135280500D01*
X52424947Y-135280500D01*
X52595053Y-135280500D01*
X52595056Y-135280500D01*
X52760225Y-135239790D01*
X52910852Y-135160734D01*
X53022089Y-135062187D01*
X53086342Y-135031987D01*
X53105642Y-135030500D01*
X60101207Y-135030500D01*
X60169328Y-135050502D01*
X60190297Y-135067400D01*
X60763386Y-135640489D01*
X60800892Y-135662143D01*
X60866114Y-135699799D01*
X60980691Y-135730500D01*
X61294358Y-135730500D01*
X61362479Y-135750502D01*
X61377911Y-135762187D01*
X61489148Y-135860734D01*
X61639775Y-135939790D01*
X61639776Y-135939790D01*
X61639778Y-135939791D01*
X61796461Y-135978409D01*
X61804944Y-135980500D01*
X61804947Y-135980500D01*
X61975053Y-135980500D01*
X61975056Y-135980500D01*
X62140225Y-135939790D01*
X62290852Y-135860734D01*
X62418183Y-135747929D01*
X62514818Y-135607930D01*
X62575140Y-135448872D01*
X62581975Y-135392581D01*
X62595645Y-135280002D01*
X62595645Y-135279997D01*
X62575140Y-135111128D01*
X62514820Y-134952074D01*
X62514818Y-134952070D01*
X62418183Y-134812071D01*
X62418181Y-134812069D01*
X62290857Y-134699270D01*
X62290851Y-134699265D01*
X62140225Y-134620210D01*
X62140221Y-134620208D01*
X61975059Y-134579500D01*
X61975056Y-134579500D01*
X61804944Y-134579500D01*
X61804940Y-134579500D01*
X61639778Y-134620208D01*
X61639774Y-134620210D01*
X61489148Y-134699265D01*
X61489147Y-134699266D01*
X61433155Y-134748871D01*
X61377911Y-134797813D01*
X61313658Y-134828013D01*
X61294358Y-134829500D01*
X61278793Y-134829500D01*
X61210672Y-134809498D01*
X61189702Y-134792599D01*
X60616614Y-134219511D01*
X60616612Y-134219510D01*
X60616610Y-134219508D01*
X60513891Y-134160203D01*
X60513889Y-134160202D01*
X60513887Y-134160201D01*
X60513880Y-134160199D01*
X60489673Y-134153712D01*
X60489673Y-134153713D01*
X60438495Y-134140000D01*
X174134706Y-134140000D01*
X174153854Y-134383302D01*
X174210827Y-134620609D01*
X174290131Y-134812069D01*
X174304223Y-134846089D01*
X174427910Y-135047928D01*
X174431742Y-135054180D01*
X174431743Y-135054182D01*
X174590240Y-135239759D01*
X174775817Y-135398256D01*
X174775821Y-135398259D01*
X174983911Y-135525777D01*
X175209388Y-135619172D01*
X175446698Y-135676146D01*
X175690000Y-135695294D01*
X175933302Y-135676146D01*
X176170612Y-135619172D01*
X176396089Y-135525777D01*
X176604179Y-135398259D01*
X176789759Y-135239759D01*
X176948259Y-135054179D01*
X177075777Y-134846089D01*
X177169172Y-134620612D01*
X177226146Y-134383302D01*
X177245294Y-134140000D01*
X177226146Y-133896698D01*
X177169172Y-133659388D01*
X177075777Y-133433911D01*
X176948259Y-133225821D01*
X176948256Y-133225817D01*
X176789759Y-133040240D01*
X176604182Y-132881743D01*
X176604180Y-132881742D01*
X176604179Y-132881741D01*
X176396089Y-132754223D01*
X176170612Y-132660828D01*
X176170610Y-132660827D01*
X176170609Y-132660827D01*
X175999675Y-132619789D01*
X175933302Y-132603854D01*
X175933303Y-132603854D01*
X175690000Y-132584706D01*
X175446697Y-132603854D01*
X175209390Y-132660827D01*
X174983912Y-132754222D01*
X174775819Y-132881742D01*
X174775817Y-132881743D01*
X174590240Y-133040240D01*
X174431743Y-133225817D01*
X174431742Y-133225819D01*
X174304222Y-133433912D01*
X174210827Y-133659390D01*
X174153854Y-133896697D01*
X174134706Y-134140000D01*
X60438495Y-134140000D01*
X60399309Y-134129500D01*
X60399308Y-134129500D01*
X53105642Y-134129500D01*
X53037521Y-134109498D01*
X53022089Y-134097813D01*
X53020599Y-134096493D01*
X52910852Y-133999266D01*
X52910851Y-133999265D01*
X52760225Y-133920210D01*
X52760221Y-133920208D01*
X52595059Y-133879500D01*
X52595056Y-133879500D01*
X52424944Y-133879500D01*
X52424940Y-133879500D01*
X52259778Y-133920208D01*
X52259774Y-133920210D01*
X52109148Y-133999265D01*
X52109142Y-133999270D01*
X51981818Y-134112069D01*
X51981816Y-134112071D01*
X51885181Y-134252070D01*
X51885179Y-134252074D01*
X51824859Y-134411128D01*
X51804355Y-134579997D01*
X27900500Y-134579997D01*
X27900500Y-129099997D01*
X47624355Y-129099997D01*
X47624355Y-129100002D01*
X47644859Y-129268871D01*
X47705179Y-129427925D01*
X47705181Y-129427929D01*
X47801816Y-129567928D01*
X47801818Y-129567930D01*
X47927225Y-129679031D01*
X47929148Y-129680734D01*
X48079775Y-129759790D01*
X48079776Y-129759790D01*
X48079778Y-129759791D01*
X48210579Y-129792030D01*
X48244944Y-129800500D01*
X48244947Y-129800500D01*
X48415053Y-129800500D01*
X48415056Y-129800500D01*
X48580225Y-129759790D01*
X48646237Y-129725143D01*
X48715848Y-129711196D01*
X48781951Y-129737098D01*
X48822604Y-129792030D01*
X48855179Y-129877925D01*
X48855181Y-129877929D01*
X48951816Y-130017928D01*
X48951818Y-130017930D01*
X49078321Y-130130002D01*
X49079148Y-130130734D01*
X49229775Y-130209790D01*
X49229776Y-130209790D01*
X49229778Y-130209791D01*
X49343941Y-130237929D01*
X49394944Y-130250500D01*
X49394947Y-130250500D01*
X49565053Y-130250500D01*
X49565056Y-130250500D01*
X49713123Y-130214005D01*
X49784050Y-130217124D01*
X49842033Y-130258094D01*
X49861088Y-130291664D01*
X49905179Y-130407925D01*
X49905181Y-130407929D01*
X50001816Y-130547928D01*
X50001818Y-130547930D01*
X50061157Y-130600500D01*
X50129148Y-130660734D01*
X50279775Y-130739790D01*
X50279776Y-130739790D01*
X50279778Y-130739791D01*
X50436461Y-130778409D01*
X50444944Y-130780500D01*
X50444947Y-130780500D01*
X50622678Y-130780500D01*
X50622678Y-130782192D01*
X50683612Y-130792321D01*
X50736236Y-130839979D01*
X50753851Y-130890568D01*
X50754859Y-130898872D01*
X50815179Y-131057925D01*
X50815181Y-131057929D01*
X50911816Y-131197928D01*
X50911818Y-131197930D01*
X50995509Y-131272074D01*
X51039148Y-131310734D01*
X51189775Y-131389790D01*
X51189776Y-131389790D01*
X51189778Y-131389791D01*
X51346461Y-131428409D01*
X51354944Y-131430500D01*
X51354947Y-131430500D01*
X51525053Y-131430500D01*
X51525056Y-131430500D01*
X51690225Y-131389790D01*
X51840852Y-131310734D01*
X51968183Y-131197929D01*
X52064818Y-131057930D01*
X52079481Y-131019267D01*
X52097475Y-130971821D01*
X52140332Y-130915219D01*
X52206988Y-130890774D01*
X52215287Y-130890500D01*
X52658405Y-130890500D01*
X52726526Y-130910502D01*
X52773019Y-130964158D01*
X52783123Y-131034432D01*
X52776217Y-131061179D01*
X52764859Y-131091126D01*
X52764859Y-131091127D01*
X52744355Y-131259997D01*
X52744355Y-131260002D01*
X52764859Y-131428871D01*
X52825179Y-131587925D01*
X52825181Y-131587929D01*
X52833515Y-131600002D01*
X52921817Y-131727929D01*
X53049148Y-131840734D01*
X53199775Y-131919790D01*
X53199776Y-131919790D01*
X53199778Y-131919791D01*
X53326916Y-131951127D01*
X53364944Y-131960500D01*
X53364947Y-131960500D01*
X53535053Y-131960500D01*
X53535056Y-131960500D01*
X53700225Y-131919790D01*
X53772909Y-131881641D01*
X53842517Y-131867696D01*
X53908620Y-131893598D01*
X53950226Y-131951127D01*
X53956542Y-131978022D01*
X53974859Y-132128871D01*
X54035179Y-132287925D01*
X54035181Y-132287929D01*
X54043859Y-132300500D01*
X54131817Y-132427929D01*
X54259148Y-132540734D01*
X54409775Y-132619790D01*
X54409776Y-132619790D01*
X54409778Y-132619791D01*
X54566461Y-132658409D01*
X54574944Y-132660500D01*
X54574947Y-132660500D01*
X54745053Y-132660500D01*
X54745056Y-132660500D01*
X54910225Y-132619790D01*
X55060852Y-132540734D01*
X55188183Y-132427929D01*
X55284818Y-132287930D01*
X55295490Y-132259790D01*
X55344022Y-132131821D01*
X55386879Y-132075219D01*
X55453535Y-132050774D01*
X55461834Y-132050500D01*
X72734358Y-132050500D01*
X72802479Y-132070502D01*
X72817911Y-132082187D01*
X72929148Y-132180734D01*
X73079775Y-132259790D01*
X73079776Y-132259790D01*
X73079778Y-132259791D01*
X73193941Y-132287929D01*
X73244944Y-132300500D01*
X73244947Y-132300500D01*
X73415053Y-132300500D01*
X73415056Y-132300500D01*
X73580225Y-132259790D01*
X73730852Y-132180734D01*
X73858183Y-132067929D01*
X73911974Y-131990000D01*
X164634706Y-131990000D01*
X164653854Y-132233302D01*
X164710827Y-132470609D01*
X164789617Y-132660828D01*
X164804223Y-132696089D01*
X164917992Y-132881743D01*
X164931742Y-132904180D01*
X164931743Y-132904182D01*
X165090240Y-133089759D01*
X165249547Y-133225819D01*
X165275821Y-133248259D01*
X165483911Y-133375777D01*
X165709388Y-133469172D01*
X165946698Y-133526146D01*
X166190000Y-133545294D01*
X166433302Y-133526146D01*
X166670612Y-133469172D01*
X166896089Y-133375777D01*
X167104179Y-133248259D01*
X167289759Y-133089759D01*
X167448259Y-132904179D01*
X167575777Y-132696089D01*
X167669172Y-132470612D01*
X167726146Y-132233302D01*
X167745294Y-131990000D01*
X167726146Y-131746698D01*
X167669172Y-131509388D01*
X167575777Y-131283911D01*
X167448259Y-131075821D01*
X167448256Y-131075817D01*
X167289759Y-130890240D01*
X167104182Y-130731743D01*
X167104180Y-130731742D01*
X167104179Y-130731741D01*
X166896089Y-130604223D01*
X166887098Y-130600499D01*
X166788820Y-130559791D01*
X166670612Y-130510828D01*
X166670610Y-130510827D01*
X166670609Y-130510827D01*
X166450279Y-130457930D01*
X166433302Y-130453854D01*
X166433303Y-130453854D01*
X166190000Y-130434706D01*
X165946697Y-130453854D01*
X165709390Y-130510827D01*
X165483912Y-130604222D01*
X165275819Y-130731742D01*
X165275817Y-130731743D01*
X165090240Y-130890240D01*
X164931743Y-131075817D01*
X164931742Y-131075819D01*
X164804222Y-131283912D01*
X164710827Y-131509390D01*
X164653854Y-131746697D01*
X164634706Y-131990000D01*
X73911974Y-131990000D01*
X73954818Y-131927930D01*
X73957906Y-131919789D01*
X73987887Y-131840734D01*
X74015140Y-131768872D01*
X74035645Y-131600000D01*
X74034179Y-131587930D01*
X74015140Y-131431128D01*
X73954820Y-131272074D01*
X73954818Y-131272070D01*
X73858183Y-131132071D01*
X73858181Y-131132069D01*
X73730857Y-131019270D01*
X73730851Y-131019265D01*
X73580225Y-130940210D01*
X73580221Y-130940208D01*
X73415059Y-130899500D01*
X73415056Y-130899500D01*
X73244944Y-130899500D01*
X73244940Y-130899500D01*
X73079778Y-130940208D01*
X73079774Y-130940210D01*
X72929148Y-131019265D01*
X72929147Y-131019266D01*
X72865315Y-131075817D01*
X72817911Y-131117813D01*
X72753658Y-131148013D01*
X72734358Y-131149500D01*
X71566425Y-131149500D01*
X71498304Y-131129498D01*
X71451811Y-131075842D01*
X71441707Y-131005568D01*
X71448613Y-130978820D01*
X71472733Y-130915219D01*
X71475140Y-130908872D01*
X71490522Y-130782192D01*
X71495645Y-130740002D01*
X71495645Y-130739997D01*
X71475140Y-130571128D01*
X71414820Y-130412074D01*
X71414818Y-130412070D01*
X71318183Y-130272071D01*
X71318181Y-130272069D01*
X71190857Y-130159270D01*
X71190851Y-130159265D01*
X71040225Y-130080210D01*
X71040221Y-130080208D01*
X70875059Y-130039500D01*
X70875056Y-130039500D01*
X70704944Y-130039500D01*
X70704940Y-130039500D01*
X70539778Y-130080208D01*
X70539774Y-130080210D01*
X70389148Y-130159265D01*
X70389142Y-130159270D01*
X70261818Y-130272069D01*
X70261816Y-130272071D01*
X70165181Y-130412070D01*
X70165178Y-130412076D01*
X70140110Y-130478179D01*
X70097253Y-130534781D01*
X70030597Y-130559226D01*
X70022298Y-130559500D01*
X69018840Y-130559500D01*
X68950719Y-130539498D01*
X68904226Y-130485842D01*
X68894122Y-130415568D01*
X68901028Y-130388820D01*
X68935140Y-130298871D01*
X68938395Y-130272069D01*
X68952091Y-130159270D01*
X68955645Y-130130002D01*
X68955645Y-130129997D01*
X68935140Y-129961128D01*
X68911957Y-129899997D01*
X138934355Y-129899997D01*
X138934355Y-129900002D01*
X138954859Y-130068871D01*
X139015179Y-130227925D01*
X139015181Y-130227929D01*
X139111816Y-130367928D01*
X139111818Y-130367930D01*
X139213407Y-130457930D01*
X139239148Y-130480734D01*
X139389775Y-130559790D01*
X139389776Y-130559790D01*
X139389778Y-130559791D01*
X139546461Y-130598409D01*
X139554944Y-130600500D01*
X139554947Y-130600500D01*
X139725053Y-130600500D01*
X139725056Y-130600500D01*
X139890225Y-130559790D01*
X140040852Y-130480734D01*
X140140801Y-130392186D01*
X140205054Y-130361987D01*
X140224354Y-130360500D01*
X153754358Y-130360500D01*
X153822479Y-130380502D01*
X153837911Y-130392187D01*
X153949148Y-130490734D01*
X154099775Y-130569790D01*
X154099776Y-130569790D01*
X154099778Y-130569791D01*
X154224368Y-130600499D01*
X154264944Y-130610500D01*
X154264947Y-130610500D01*
X154435053Y-130610500D01*
X154435056Y-130610500D01*
X154600225Y-130569790D01*
X154750852Y-130490734D01*
X154878183Y-130377929D01*
X154974818Y-130237930D01*
X154978611Y-130227930D01*
X155004651Y-130159265D01*
X155035140Y-130078872D01*
X155055645Y-129910000D01*
X155055424Y-129908180D01*
X155042494Y-129801687D01*
X155054139Y-129731652D01*
X155101799Y-129679031D01*
X155167575Y-129660500D01*
X155315053Y-129660500D01*
X155315056Y-129660500D01*
X155480225Y-129619790D01*
X155630852Y-129540734D01*
X155758183Y-129427929D01*
X155854818Y-129287930D01*
X155915140Y-129128872D01*
X155935645Y-128960000D01*
X155935645Y-128959997D01*
X155924402Y-128867403D01*
X155936047Y-128797368D01*
X155983707Y-128744746D01*
X156052251Y-128726245D01*
X156108035Y-128740647D01*
X156239775Y-128809790D01*
X156239776Y-128809790D01*
X156239778Y-128809791D01*
X156396461Y-128848409D01*
X156404944Y-128850500D01*
X156404947Y-128850500D01*
X156575053Y-128850500D01*
X156575056Y-128850500D01*
X156740225Y-128809790D01*
X156890852Y-128730734D01*
X157018183Y-128617929D01*
X157114818Y-128477930D01*
X157175140Y-128318872D01*
X157192091Y-128179270D01*
X157195645Y-128150002D01*
X157195645Y-128149997D01*
X157175140Y-127981128D01*
X157114820Y-127822074D01*
X157114818Y-127822070D01*
X157018183Y-127682071D01*
X157018181Y-127682069D01*
X156890857Y-127569270D01*
X156890851Y-127569265D01*
X156740225Y-127490210D01*
X156740221Y-127490208D01*
X156575059Y-127449500D01*
X156575056Y-127449500D01*
X156404944Y-127449500D01*
X156404940Y-127449500D01*
X156239778Y-127490208D01*
X156239774Y-127490210D01*
X156089148Y-127569265D01*
X156089147Y-127569266D01*
X156033935Y-127618180D01*
X155977911Y-127667813D01*
X155913658Y-127698013D01*
X155894358Y-127699500D01*
X145498042Y-127699500D01*
X145429921Y-127679498D01*
X145383428Y-127625842D01*
X145380230Y-127618180D01*
X145324820Y-127472074D01*
X145324818Y-127472070D01*
X145228183Y-127332071D01*
X145228181Y-127332069D01*
X145100857Y-127219270D01*
X145100851Y-127219265D01*
X144950225Y-127140210D01*
X144950221Y-127140208D01*
X144785059Y-127099500D01*
X144785056Y-127099500D01*
X144614944Y-127099500D01*
X144614940Y-127099500D01*
X144449778Y-127140208D01*
X144449774Y-127140210D01*
X144299148Y-127219265D01*
X144299142Y-127219270D01*
X144171818Y-127332069D01*
X144171816Y-127332071D01*
X144075181Y-127472070D01*
X144075179Y-127472074D01*
X144014859Y-127631128D01*
X143994355Y-127799997D01*
X143994355Y-127800002D01*
X144014859Y-127968871D01*
X144075179Y-128127925D01*
X144075181Y-128127929D01*
X144171815Y-128267927D01*
X144171816Y-128267928D01*
X144171817Y-128267929D01*
X144179551Y-128274781D01*
X144195814Y-128289188D01*
X144233539Y-128349332D01*
X144232759Y-128420325D01*
X144193721Y-128479625D01*
X144128820Y-128508407D01*
X144112260Y-128509500D01*
X142911155Y-128509500D01*
X142843034Y-128489498D01*
X142798886Y-128438549D01*
X142798363Y-128438824D01*
X142797192Y-128436593D01*
X142796541Y-128435842D01*
X142795544Y-128433454D01*
X142794818Y-128432070D01*
X142698183Y-128292071D01*
X142698181Y-128292069D01*
X142570857Y-128179270D01*
X142570851Y-128179265D01*
X142420225Y-128100210D01*
X142420221Y-128100208D01*
X142255059Y-128059500D01*
X142255056Y-128059500D01*
X142084944Y-128059500D01*
X142084940Y-128059500D01*
X141919778Y-128100208D01*
X141919774Y-128100210D01*
X141769148Y-128179265D01*
X141769142Y-128179270D01*
X141641818Y-128292069D01*
X141641816Y-128292071D01*
X141545181Y-128432070D01*
X141545179Y-128432074D01*
X141484859Y-128591128D01*
X141464355Y-128759997D01*
X141464355Y-128760002D01*
X141484859Y-128928871D01*
X141545179Y-129087925D01*
X141545181Y-129087929D01*
X141641816Y-129227928D01*
X141641817Y-129227929D01*
X141654525Y-129239187D01*
X141692251Y-129299330D01*
X141691472Y-129370323D01*
X141652436Y-129429624D01*
X141587535Y-129458407D01*
X141570973Y-129459500D01*
X140246929Y-129459500D01*
X140178808Y-129439498D01*
X140163376Y-129427812D01*
X140040857Y-129319270D01*
X140040851Y-129319265D01*
X139890225Y-129240210D01*
X139890221Y-129240208D01*
X139725059Y-129199500D01*
X139725056Y-129199500D01*
X139554944Y-129199500D01*
X139554940Y-129199500D01*
X139389778Y-129240208D01*
X139389774Y-129240210D01*
X139239148Y-129319265D01*
X139239142Y-129319270D01*
X139111818Y-129432069D01*
X139111816Y-129432071D01*
X139015181Y-129572070D01*
X139015179Y-129572074D01*
X138954859Y-129731128D01*
X138934355Y-129899997D01*
X68911957Y-129899997D01*
X68874820Y-129802074D01*
X68874818Y-129802070D01*
X68778183Y-129662071D01*
X68778181Y-129662069D01*
X68650857Y-129549270D01*
X68650851Y-129549265D01*
X68500225Y-129470210D01*
X68500221Y-129470208D01*
X68335059Y-129429500D01*
X68335056Y-129429500D01*
X68164944Y-129429500D01*
X68164940Y-129429500D01*
X67999778Y-129470208D01*
X67999774Y-129470210D01*
X67849148Y-129549265D01*
X67849142Y-129549270D01*
X67721818Y-129662069D01*
X67721816Y-129662071D01*
X67625181Y-129802070D01*
X67625179Y-129802074D01*
X67584940Y-129908180D01*
X67542082Y-129964781D01*
X67475427Y-129989226D01*
X67467128Y-129989500D01*
X66505387Y-129989500D01*
X66437266Y-129969498D01*
X66390773Y-129915842D01*
X66380669Y-129845568D01*
X66387575Y-129818819D01*
X66395140Y-129798872D01*
X66409485Y-129680729D01*
X66415645Y-129630002D01*
X66415645Y-129629997D01*
X66395140Y-129461128D01*
X66334820Y-129302074D01*
X66334818Y-129302070D01*
X66238183Y-129162071D01*
X66238181Y-129162069D01*
X66110857Y-129049270D01*
X66110851Y-129049265D01*
X65960225Y-128970210D01*
X65960221Y-128970208D01*
X65795059Y-128929500D01*
X65795056Y-128929500D01*
X65624944Y-128929500D01*
X65624940Y-128929500D01*
X65459778Y-128970208D01*
X65459774Y-128970210D01*
X65309148Y-129049265D01*
X65309142Y-129049270D01*
X65181818Y-129162069D01*
X65181816Y-129162071D01*
X65085181Y-129302070D01*
X65085181Y-129302071D01*
X65075281Y-129328178D01*
X65032424Y-129384780D01*
X64965769Y-129409226D01*
X64957468Y-129409500D01*
X63972972Y-129409500D01*
X63904851Y-129389498D01*
X63858358Y-129335842D01*
X63848254Y-129265568D01*
X63855013Y-129239388D01*
X63855140Y-129238872D01*
X63875645Y-129070002D01*
X63875645Y-129069997D01*
X63855140Y-128901128D01*
X63794820Y-128742074D01*
X63794818Y-128742070D01*
X63698183Y-128602071D01*
X63698181Y-128602069D01*
X63570857Y-128489270D01*
X63570851Y-128489265D01*
X63420225Y-128410210D01*
X63420221Y-128410208D01*
X63255059Y-128369500D01*
X63255056Y-128369500D01*
X63084944Y-128369500D01*
X63084940Y-128369500D01*
X62919778Y-128410208D01*
X62919774Y-128410210D01*
X62769148Y-128489265D01*
X62769142Y-128489270D01*
X62641818Y-128602069D01*
X62641816Y-128602071D01*
X62545182Y-128742070D01*
X62539073Y-128758179D01*
X62496216Y-128814781D01*
X62429561Y-128839226D01*
X62421261Y-128839500D01*
X61410217Y-128839500D01*
X61342096Y-128819498D01*
X61295603Y-128765842D01*
X61285499Y-128695568D01*
X61292405Y-128668819D01*
X61315140Y-128608872D01*
X61329635Y-128489498D01*
X61335645Y-128440002D01*
X61335645Y-128439997D01*
X61315140Y-128271128D01*
X61254820Y-128112074D01*
X61254818Y-128112070D01*
X61158183Y-127972071D01*
X61158181Y-127972069D01*
X61030857Y-127859270D01*
X61030851Y-127859265D01*
X60880225Y-127780210D01*
X60880221Y-127780208D01*
X60715059Y-127739500D01*
X60715056Y-127739500D01*
X60544944Y-127739500D01*
X60544940Y-127739500D01*
X60379778Y-127780208D01*
X60379774Y-127780210D01*
X60229148Y-127859265D01*
X60229142Y-127859270D01*
X60101818Y-127972069D01*
X60101816Y-127972071D01*
X60005181Y-128112070D01*
X60005179Y-128112074D01*
X59964940Y-128218180D01*
X59922082Y-128274781D01*
X59855427Y-128299226D01*
X59847128Y-128299500D01*
X48620690Y-128299500D01*
X48530325Y-128323713D01*
X48530324Y-128323712D01*
X48506115Y-128330200D01*
X48415320Y-128382620D01*
X48352321Y-128399500D01*
X48244940Y-128399500D01*
X48079778Y-128440208D01*
X48079774Y-128440210D01*
X47929148Y-128519265D01*
X47929142Y-128519270D01*
X47801818Y-128632069D01*
X47801816Y-128632071D01*
X47705181Y-128772070D01*
X47705179Y-128772074D01*
X47644859Y-128931128D01*
X47624355Y-129099997D01*
X27900500Y-129099997D01*
X27900500Y-125979997D01*
X50394355Y-125979997D01*
X50394355Y-125980002D01*
X50414859Y-126148871D01*
X50475179Y-126307925D01*
X50475181Y-126307929D01*
X50571816Y-126447928D01*
X50571818Y-126447930D01*
X50665282Y-126530732D01*
X50699148Y-126560734D01*
X50849775Y-126639790D01*
X50849776Y-126639790D01*
X50849778Y-126639791D01*
X51006461Y-126678409D01*
X51014944Y-126680500D01*
X51014947Y-126680500D01*
X51185053Y-126680500D01*
X51185056Y-126680500D01*
X51350225Y-126639790D01*
X51500852Y-126560734D01*
X51628183Y-126447929D01*
X51628187Y-126447922D01*
X51632597Y-126442946D01*
X51692742Y-126405221D01*
X51726909Y-126400500D01*
X66414358Y-126400500D01*
X66482479Y-126420502D01*
X66497911Y-126432187D01*
X66609148Y-126530734D01*
X66759775Y-126609790D01*
X66759776Y-126609790D01*
X66759778Y-126609791D01*
X66881487Y-126639789D01*
X66924944Y-126650500D01*
X66924947Y-126650500D01*
X67095053Y-126650500D01*
X67095056Y-126650500D01*
X67260225Y-126609790D01*
X67410852Y-126530734D01*
X67538183Y-126417929D01*
X67634818Y-126277930D01*
X67695140Y-126118872D01*
X67715645Y-125950000D01*
X67695140Y-125781128D01*
X67653185Y-125670500D01*
X67634820Y-125622074D01*
X67634818Y-125622070D01*
X67538183Y-125482071D01*
X67538181Y-125482069D01*
X67410857Y-125369270D01*
X67410851Y-125369265D01*
X67260225Y-125290210D01*
X67260221Y-125290208D01*
X67095059Y-125249500D01*
X67095056Y-125249500D01*
X66924944Y-125249500D01*
X66924940Y-125249500D01*
X66759778Y-125290208D01*
X66759774Y-125290210D01*
X66609148Y-125369265D01*
X66609147Y-125369266D01*
X66573628Y-125400734D01*
X66497911Y-125467813D01*
X66433658Y-125498013D01*
X66414358Y-125499500D01*
X51661778Y-125499500D01*
X51593657Y-125479498D01*
X51578227Y-125467815D01*
X51500852Y-125399266D01*
X51500851Y-125399265D01*
X51350225Y-125320210D01*
X51350221Y-125320208D01*
X51185059Y-125279500D01*
X51185056Y-125279500D01*
X51014944Y-125279500D01*
X51014940Y-125279500D01*
X50849778Y-125320208D01*
X50849774Y-125320210D01*
X50699148Y-125399265D01*
X50699142Y-125399270D01*
X50571818Y-125512069D01*
X50571816Y-125512071D01*
X50475181Y-125652070D01*
X50475179Y-125652074D01*
X50414859Y-125811128D01*
X50394355Y-125979997D01*
X27900500Y-125979997D01*
X27900500Y-121089997D01*
X51794355Y-121089997D01*
X51794355Y-121090002D01*
X51814859Y-121258871D01*
X51875179Y-121417925D01*
X51875181Y-121417929D01*
X51971816Y-121557928D01*
X51971818Y-121557930D01*
X52013993Y-121595294D01*
X52099148Y-121670734D01*
X52249775Y-121749790D01*
X52249776Y-121749790D01*
X52249778Y-121749791D01*
X52406461Y-121788409D01*
X52414944Y-121790500D01*
X52414947Y-121790500D01*
X52585053Y-121790500D01*
X52585056Y-121790500D01*
X52750225Y-121749790D01*
X52900852Y-121670734D01*
X53003273Y-121579997D01*
X59144355Y-121579997D01*
X59144355Y-121580002D01*
X59164859Y-121748871D01*
X59225179Y-121907925D01*
X59225181Y-121907929D01*
X59321816Y-122047928D01*
X59321818Y-122047930D01*
X59437854Y-122150729D01*
X59449148Y-122160734D01*
X59599775Y-122239790D01*
X59599776Y-122239790D01*
X59599778Y-122239791D01*
X59724368Y-122270499D01*
X59764944Y-122280500D01*
X59764947Y-122280500D01*
X59935053Y-122280500D01*
X59935056Y-122280500D01*
X60100225Y-122239790D01*
X60250852Y-122160734D01*
X60350801Y-122072186D01*
X60415054Y-122041987D01*
X60434354Y-122040500D01*
X72736933Y-122040500D01*
X72805054Y-122060502D01*
X72820486Y-122072187D01*
X72909148Y-122150734D01*
X73059775Y-122229790D01*
X73059776Y-122229790D01*
X73059778Y-122229791D01*
X73216461Y-122268409D01*
X73224944Y-122270500D01*
X73224947Y-122270500D01*
X73395053Y-122270500D01*
X73395056Y-122270500D01*
X73560225Y-122229790D01*
X73710852Y-122150734D01*
X73838183Y-122037929D01*
X73934818Y-121897930D01*
X73995140Y-121738872D01*
X74015645Y-121570000D01*
X74014179Y-121557930D01*
X73995140Y-121401128D01*
X73934820Y-121242074D01*
X73934818Y-121242070D01*
X73838183Y-121102071D01*
X73838181Y-121102069D01*
X73710857Y-120989270D01*
X73710851Y-120989265D01*
X73560225Y-120910210D01*
X73560221Y-120910208D01*
X73395059Y-120869500D01*
X73395056Y-120869500D01*
X73224944Y-120869500D01*
X73224940Y-120869500D01*
X73059778Y-120910208D01*
X73059774Y-120910210D01*
X72909148Y-120989265D01*
X72909146Y-120989267D01*
X72776112Y-121107125D01*
X72773996Y-121104736D01*
X72726169Y-121134764D01*
X72691950Y-121139500D01*
X60456929Y-121139500D01*
X60388808Y-121119498D01*
X60373376Y-121107812D01*
X60250857Y-120999270D01*
X60250851Y-120999265D01*
X60100225Y-120920210D01*
X60100221Y-120920208D01*
X59935059Y-120879500D01*
X59935056Y-120879500D01*
X59764944Y-120879500D01*
X59764940Y-120879500D01*
X59599778Y-120920208D01*
X59599774Y-120920210D01*
X59449148Y-120999265D01*
X59449142Y-120999270D01*
X59321818Y-121112069D01*
X59321816Y-121112071D01*
X59225181Y-121252070D01*
X59225179Y-121252074D01*
X59164859Y-121411128D01*
X59144355Y-121579997D01*
X53003273Y-121579997D01*
X53028183Y-121557929D01*
X53124818Y-121417930D01*
X53185140Y-121258872D01*
X53202965Y-121112071D01*
X53205645Y-121090002D01*
X53205645Y-121089997D01*
X53185140Y-120921128D01*
X53124820Y-120762074D01*
X53124818Y-120762070D01*
X53028184Y-120622072D01*
X52992946Y-120590854D01*
X52955221Y-120530709D01*
X52950500Y-120496542D01*
X52950500Y-120099997D01*
X59944355Y-120099997D01*
X59944355Y-120100002D01*
X59964859Y-120268871D01*
X60025179Y-120427925D01*
X60025181Y-120427929D01*
X60121816Y-120567928D01*
X60121818Y-120567930D01*
X60218806Y-120653854D01*
X60249148Y-120680734D01*
X60399775Y-120759790D01*
X60399776Y-120759790D01*
X60399778Y-120759791D01*
X60556461Y-120798409D01*
X60564944Y-120800500D01*
X60564947Y-120800500D01*
X60735053Y-120800500D01*
X60735056Y-120800500D01*
X60900225Y-120759790D01*
X61050852Y-120680734D01*
X61178183Y-120567929D01*
X61274818Y-120427930D01*
X61335140Y-120268872D01*
X61355645Y-120100000D01*
X61355645Y-120099997D01*
X62444355Y-120099997D01*
X62444355Y-120100002D01*
X62464859Y-120268871D01*
X62525179Y-120427925D01*
X62525181Y-120427929D01*
X62621816Y-120567928D01*
X62621818Y-120567930D01*
X62718806Y-120653854D01*
X62749148Y-120680734D01*
X62899775Y-120759790D01*
X62899776Y-120759790D01*
X62899778Y-120759791D01*
X63056461Y-120798409D01*
X63064944Y-120800500D01*
X63064947Y-120800500D01*
X63235053Y-120800500D01*
X63235056Y-120800500D01*
X63400225Y-120759790D01*
X63550852Y-120680734D01*
X63678183Y-120567929D01*
X63696304Y-120541675D01*
X63751462Y-120496976D01*
X63822031Y-120489193D01*
X63885605Y-120520798D01*
X63903696Y-120541676D01*
X63921816Y-120567928D01*
X63921818Y-120567930D01*
X64018806Y-120653854D01*
X64049148Y-120680734D01*
X64199775Y-120759790D01*
X64199776Y-120759790D01*
X64199778Y-120759791D01*
X64356461Y-120798409D01*
X64364944Y-120800500D01*
X64364947Y-120800500D01*
X64535053Y-120800500D01*
X64535056Y-120800500D01*
X64700225Y-120759790D01*
X64850852Y-120680734D01*
X64978183Y-120567929D01*
X64978187Y-120567922D01*
X64980689Y-120565100D01*
X64983043Y-120563623D01*
X64983888Y-120562875D01*
X64984012Y-120563015D01*
X65040834Y-120527376D01*
X65111827Y-120528157D01*
X65166016Y-120562982D01*
X65166112Y-120562875D01*
X65166807Y-120563490D01*
X65169311Y-120565100D01*
X65171819Y-120567931D01*
X65268806Y-120653854D01*
X65299148Y-120680734D01*
X65449775Y-120759790D01*
X65449776Y-120759790D01*
X65449778Y-120759791D01*
X65606461Y-120798409D01*
X65614944Y-120800500D01*
X65614947Y-120800500D01*
X65785053Y-120800500D01*
X65785056Y-120800500D01*
X65950225Y-120759790D01*
X66100852Y-120680734D01*
X66228183Y-120567929D01*
X66324818Y-120427930D01*
X66385140Y-120268872D01*
X66405645Y-120100000D01*
X66399573Y-120049997D01*
X66385140Y-119931128D01*
X66324820Y-119772074D01*
X66324818Y-119772070D01*
X66228184Y-119632072D01*
X66192946Y-119600854D01*
X66155221Y-119540709D01*
X66150500Y-119506542D01*
X66150500Y-118752943D01*
X66170502Y-118684822D01*
X66224158Y-118638329D01*
X66246344Y-118630605D01*
X66290225Y-118619790D01*
X66440852Y-118540734D01*
X66568183Y-118427929D01*
X66664818Y-118287930D01*
X66725140Y-118128872D01*
X66736381Y-118036297D01*
X66745645Y-117960002D01*
X66745645Y-117959997D01*
X66725140Y-117791128D01*
X66664820Y-117632074D01*
X66664818Y-117632070D01*
X66568183Y-117492071D01*
X66568181Y-117492069D01*
X66440857Y-117379270D01*
X66440851Y-117379265D01*
X66290225Y-117300210D01*
X66290221Y-117300208D01*
X66125059Y-117259500D01*
X66125056Y-117259500D01*
X65954944Y-117259500D01*
X65954940Y-117259500D01*
X65789778Y-117300208D01*
X65789770Y-117300212D01*
X65662041Y-117367250D01*
X65592428Y-117381197D01*
X65526326Y-117355294D01*
X65484721Y-117297765D01*
X65478405Y-117270870D01*
X65465140Y-117161629D01*
X65464784Y-117160691D01*
X65438609Y-117091672D01*
X65404820Y-117002574D01*
X65404818Y-117002570D01*
X65308183Y-116862571D01*
X65308181Y-116862569D01*
X65180857Y-116749770D01*
X65180851Y-116749765D01*
X65030225Y-116670710D01*
X65030221Y-116670708D01*
X64865059Y-116630000D01*
X64865056Y-116630000D01*
X64694944Y-116630000D01*
X64694940Y-116630000D01*
X64529778Y-116670708D01*
X64529770Y-116670712D01*
X64458829Y-116707945D01*
X64389216Y-116721892D01*
X64323113Y-116695988D01*
X64281509Y-116638459D01*
X64275191Y-116611552D01*
X64275140Y-116611128D01*
X64275139Y-116611126D01*
X64275139Y-116611124D01*
X64214820Y-116452074D01*
X64214818Y-116452070D01*
X64118183Y-116312071D01*
X64118181Y-116312069D01*
X63990857Y-116199270D01*
X63990851Y-116199265D01*
X63840225Y-116120210D01*
X63840221Y-116120208D01*
X63675059Y-116079500D01*
X63675056Y-116079500D01*
X63504944Y-116079500D01*
X63504940Y-116079500D01*
X63339778Y-116120208D01*
X63339774Y-116120210D01*
X63189148Y-116199265D01*
X63189142Y-116199270D01*
X63061818Y-116312069D01*
X63061816Y-116312071D01*
X62965181Y-116452070D01*
X62965179Y-116452074D01*
X62904859Y-116611128D01*
X62884355Y-116779997D01*
X62884382Y-116780220D01*
X62884355Y-116780382D01*
X62884355Y-116787621D01*
X62883151Y-116787621D01*
X62872735Y-116850255D01*
X62848396Y-116884500D01*
X62789513Y-116943383D01*
X62789510Y-116943387D01*
X62730200Y-117046112D01*
X62730199Y-117046115D01*
X62727250Y-117057125D01*
X62727250Y-117057127D01*
X62699500Y-117160692D01*
X62699500Y-119506542D01*
X62679498Y-119574663D01*
X62657054Y-119600854D01*
X62621815Y-119632072D01*
X62525181Y-119772070D01*
X62525179Y-119772074D01*
X62464859Y-119931128D01*
X62444355Y-120099997D01*
X61355645Y-120099997D01*
X61349573Y-120049997D01*
X61335140Y-119931128D01*
X61274820Y-119772074D01*
X61274818Y-119772070D01*
X61178184Y-119632072D01*
X61142946Y-119600854D01*
X61105221Y-119540709D01*
X61100500Y-119506542D01*
X61100500Y-114772317D01*
X61120502Y-114704196D01*
X61142947Y-114678004D01*
X61188183Y-114637929D01*
X61284818Y-114497930D01*
X61292353Y-114478063D01*
X61313487Y-114422335D01*
X61345140Y-114338872D01*
X61363217Y-114190000D01*
X61365645Y-114170002D01*
X61365645Y-114169997D01*
X61345140Y-114001128D01*
X61284820Y-113842074D01*
X61284818Y-113842070D01*
X61188183Y-113702071D01*
X61188181Y-113702069D01*
X61060857Y-113589270D01*
X61060851Y-113589265D01*
X60910225Y-113510210D01*
X60910221Y-113510208D01*
X60745059Y-113469500D01*
X60745056Y-113469500D01*
X60574944Y-113469500D01*
X60574940Y-113469500D01*
X60409778Y-113510208D01*
X60409774Y-113510210D01*
X60259148Y-113589265D01*
X60259142Y-113589270D01*
X60131818Y-113702069D01*
X60131816Y-113702071D01*
X60035181Y-113842070D01*
X60035179Y-113842074D01*
X59974859Y-114001128D01*
X59954355Y-114169997D01*
X59954355Y-114170002D01*
X59974859Y-114338871D01*
X60035179Y-114497925D01*
X60035181Y-114497929D01*
X60131816Y-114637928D01*
X60131821Y-114637933D01*
X60157051Y-114660284D01*
X60194778Y-114720427D01*
X60199500Y-114754598D01*
X60199500Y-119506542D01*
X60179498Y-119574663D01*
X60157054Y-119600854D01*
X60121815Y-119632072D01*
X60025181Y-119772070D01*
X60025179Y-119772074D01*
X59964859Y-119931128D01*
X59944355Y-120099997D01*
X52950500Y-120099997D01*
X52950500Y-114852553D01*
X52970502Y-114784432D01*
X53017945Y-114740986D01*
X53020222Y-114739790D01*
X53020225Y-114739790D01*
X53170852Y-114660734D01*
X53298183Y-114547929D01*
X53394818Y-114407930D01*
X53455140Y-114248872D01*
X53462289Y-114189993D01*
X53475645Y-114080002D01*
X53475645Y-114079997D01*
X53455140Y-113911128D01*
X53394820Y-113752074D01*
X53394818Y-113752070D01*
X53298183Y-113612071D01*
X53298181Y-113612069D01*
X53170857Y-113499270D01*
X53170851Y-113499265D01*
X53020225Y-113420210D01*
X53020221Y-113420208D01*
X52855059Y-113379500D01*
X52855056Y-113379500D01*
X52684944Y-113379500D01*
X52684940Y-113379500D01*
X52519778Y-113420208D01*
X52519774Y-113420210D01*
X52369148Y-113499265D01*
X52369142Y-113499270D01*
X52241818Y-113612069D01*
X52241816Y-113612071D01*
X52145181Y-113752070D01*
X52145179Y-113752074D01*
X52084859Y-113911128D01*
X52064355Y-114079997D01*
X52064355Y-114080002D01*
X52074385Y-114162610D01*
X52071011Y-114210407D01*
X52049500Y-114290690D01*
X52049500Y-120496542D01*
X52029498Y-120564663D01*
X52007054Y-120590854D01*
X51971815Y-120622072D01*
X51875181Y-120762070D01*
X51875179Y-120762074D01*
X51814859Y-120921128D01*
X51794355Y-121089997D01*
X27900500Y-121089997D01*
X27900500Y-105199996D01*
X30344652Y-105199996D01*
X30344652Y-105200003D01*
X30364028Y-105557371D01*
X30421928Y-105910548D01*
X30421928Y-105910551D01*
X30517674Y-106255399D01*
X30517675Y-106255402D01*
X30650142Y-106587868D01*
X30650149Y-106587884D01*
X30817782Y-106904074D01*
X30817788Y-106904084D01*
X30817789Y-106904085D01*
X31018635Y-107200311D01*
X31250332Y-107473086D01*
X31250335Y-107473088D01*
X31250336Y-107473090D01*
X31510148Y-107719198D01*
X31510156Y-107719205D01*
X31510163Y-107719211D01*
X31795081Y-107935800D01*
X32101747Y-108120315D01*
X32426565Y-108270591D01*
X32647928Y-108345177D01*
X32765719Y-108384866D01*
X32765721Y-108384866D01*
X32765726Y-108384868D01*
X33115254Y-108461805D01*
X33471052Y-108500500D01*
X33471060Y-108500500D01*
X33828940Y-108500500D01*
X33828948Y-108500500D01*
X34184746Y-108461805D01*
X34534274Y-108384868D01*
X34873435Y-108270591D01*
X35198253Y-108120315D01*
X35504919Y-107935800D01*
X35789837Y-107719211D01*
X36049668Y-107473086D01*
X36281365Y-107200311D01*
X36482211Y-106904085D01*
X36649853Y-106587880D01*
X36782324Y-106255403D01*
X36878071Y-105910552D01*
X36935972Y-105557371D01*
X36948737Y-105321936D01*
X43720584Y-105321936D01*
X43744696Y-105450925D01*
X43803191Y-105568398D01*
X43891594Y-105665372D01*
X43898323Y-105670959D01*
X43896045Y-105673702D01*
X43932205Y-105714023D01*
X43944500Y-105768311D01*
X43944500Y-114031687D01*
X43924498Y-114099808D01*
X43896736Y-114127129D01*
X43898323Y-114129040D01*
X43891594Y-114134626D01*
X43803191Y-114231600D01*
X43744696Y-114349073D01*
X43720584Y-114478063D01*
X43732691Y-114608732D01*
X43780096Y-114731099D01*
X43780098Y-114731102D01*
X43859175Y-114835817D01*
X43859178Y-114835821D01*
X43963894Y-114914900D01*
X43963901Y-114914904D01*
X44025082Y-114938605D01*
X44086265Y-114962308D01*
X44216932Y-114974416D01*
X44345925Y-114950304D01*
X44463395Y-114891811D01*
X44560373Y-114803404D01*
X44560373Y-114803403D01*
X44565960Y-114796676D01*
X44568703Y-114798953D01*
X44609023Y-114762795D01*
X44663311Y-114750500D01*
X47726688Y-114750500D01*
X47794809Y-114770502D01*
X47822113Y-114798276D01*
X47824040Y-114796677D01*
X47829626Y-114803405D01*
X47926601Y-114891808D01*
X47926603Y-114891810D01*
X48044073Y-114950303D01*
X48173066Y-114974416D01*
X48303733Y-114962308D01*
X48426099Y-114914904D01*
X48530821Y-114835822D01*
X48609903Y-114731101D01*
X48657308Y-114608735D01*
X48669416Y-114478068D01*
X48645304Y-114349075D01*
X48586811Y-114231605D01*
X48586809Y-114231603D01*
X48586809Y-114231602D01*
X48498406Y-114134628D01*
X48491675Y-114129039D01*
X48493943Y-114126307D01*
X48457751Y-114085883D01*
X48445500Y-114031688D01*
X48445500Y-112399997D01*
X48989355Y-112399997D01*
X48989355Y-112400002D01*
X49009859Y-112568871D01*
X49070179Y-112727925D01*
X49070181Y-112727929D01*
X49166816Y-112867928D01*
X49166818Y-112867930D01*
X49256960Y-112947789D01*
X49294148Y-112980734D01*
X49444775Y-113059790D01*
X49444776Y-113059790D01*
X49444778Y-113059791D01*
X49593313Y-113096401D01*
X49609944Y-113100500D01*
X49609947Y-113100500D01*
X49780053Y-113100500D01*
X49780056Y-113100500D01*
X49945225Y-113059790D01*
X50000586Y-113030734D01*
X50030693Y-113014933D01*
X50089248Y-113000500D01*
X51867235Y-113000500D01*
X51935356Y-113020502D01*
X51945988Y-113028553D01*
X51949148Y-113030734D01*
X52099775Y-113109790D01*
X52099776Y-113109790D01*
X52099778Y-113109791D01*
X52256461Y-113148409D01*
X52264944Y-113150500D01*
X52264947Y-113150500D01*
X52435053Y-113150500D01*
X52435056Y-113150500D01*
X52600225Y-113109790D01*
X52750852Y-113030734D01*
X52878183Y-112917929D01*
X52974818Y-112777930D01*
X53035140Y-112618872D01*
X53055645Y-112450000D01*
X53049573Y-112399997D01*
X53035140Y-112281128D01*
X52974820Y-112122074D01*
X52974818Y-112122070D01*
X52878183Y-111982071D01*
X52878181Y-111982069D01*
X52750857Y-111869270D01*
X52750851Y-111869265D01*
X52600225Y-111790210D01*
X52600221Y-111790208D01*
X52435059Y-111749500D01*
X52435056Y-111749500D01*
X52264944Y-111749500D01*
X52264940Y-111749500D01*
X52099778Y-111790208D01*
X52099774Y-111790210D01*
X51949148Y-111869265D01*
X51942874Y-111873597D01*
X51941798Y-111872039D01*
X51886529Y-111898014D01*
X51867235Y-111899500D01*
X50234203Y-111899500D01*
X50166082Y-111879498D01*
X50150653Y-111867815D01*
X50095852Y-111819266D01*
X49945225Y-111740210D01*
X49945221Y-111740208D01*
X49780059Y-111699500D01*
X49780056Y-111699500D01*
X49609944Y-111699500D01*
X49609940Y-111699500D01*
X49444778Y-111740208D01*
X49444774Y-111740210D01*
X49294148Y-111819265D01*
X49294142Y-111819270D01*
X49166818Y-111932069D01*
X49166816Y-111932071D01*
X49070181Y-112072070D01*
X49070179Y-112072074D01*
X49009859Y-112231128D01*
X48989355Y-112399997D01*
X48445500Y-112399997D01*
X48445500Y-107050171D01*
X76239500Y-107050171D01*
X76239500Y-128149828D01*
X76277635Y-128241896D01*
X76277638Y-128241900D01*
X76348099Y-128312361D01*
X76348103Y-128312364D01*
X76440172Y-128350500D01*
X78539828Y-128350500D01*
X78631897Y-128312364D01*
X78702364Y-128241897D01*
X78740500Y-128149828D01*
X78740500Y-124819997D01*
X135684355Y-124819997D01*
X135684355Y-124820002D01*
X135704859Y-124988871D01*
X135765179Y-125147925D01*
X135765181Y-125147929D01*
X135861816Y-125287928D01*
X135861818Y-125287930D01*
X135987489Y-125399265D01*
X135989148Y-125400734D01*
X136139775Y-125479790D01*
X136139776Y-125479790D01*
X136139778Y-125479791D01*
X136270746Y-125512071D01*
X136304944Y-125520500D01*
X136396295Y-125520500D01*
X136428906Y-125524793D01*
X136487525Y-125540500D01*
X152267525Y-125540500D01*
X152267526Y-125540500D01*
X152412475Y-125540500D01*
X159798593Y-125540500D01*
X159857147Y-125554932D01*
X159999775Y-125629790D01*
X159999776Y-125629790D01*
X159999778Y-125629791D01*
X160156461Y-125668409D01*
X160164944Y-125670500D01*
X160164947Y-125670500D01*
X160335053Y-125670500D01*
X160335056Y-125670500D01*
X160500225Y-125629790D01*
X160650852Y-125550734D01*
X160778183Y-125437929D01*
X160874818Y-125297930D01*
X160878611Y-125287930D01*
X160893185Y-125249500D01*
X160935140Y-125138872D01*
X160941975Y-125082581D01*
X160955645Y-124970002D01*
X160955645Y-124969997D01*
X160935140Y-124801128D01*
X160874820Y-124642074D01*
X160874818Y-124642070D01*
X160778183Y-124502071D01*
X160778181Y-124502069D01*
X160650857Y-124389270D01*
X160650851Y-124389265D01*
X160500225Y-124310210D01*
X160500221Y-124310208D01*
X160335059Y-124269500D01*
X160335056Y-124269500D01*
X160164944Y-124269500D01*
X160164940Y-124269500D01*
X159999778Y-124310208D01*
X159999774Y-124310210D01*
X159849145Y-124389267D01*
X159849144Y-124389268D01*
X159828213Y-124407812D01*
X159763961Y-124438013D01*
X159744660Y-124439500D01*
X153087802Y-124439500D01*
X153019681Y-124419498D01*
X152973188Y-124365842D01*
X152963084Y-124295568D01*
X152969990Y-124268819D01*
X152985140Y-124228872D01*
X153005645Y-124060000D01*
X152995931Y-123980002D01*
X152985140Y-123891128D01*
X152924820Y-123732074D01*
X152924818Y-123732070D01*
X152828183Y-123592071D01*
X152828181Y-123592069D01*
X152700857Y-123479270D01*
X152700851Y-123479265D01*
X152550225Y-123400210D01*
X152550221Y-123400208D01*
X152385059Y-123359500D01*
X152385056Y-123359500D01*
X152214944Y-123359500D01*
X152214940Y-123359500D01*
X152049778Y-123400208D01*
X152049774Y-123400210D01*
X151899148Y-123479265D01*
X151899142Y-123479270D01*
X151771818Y-123592069D01*
X151771816Y-123592071D01*
X151675181Y-123732070D01*
X151675179Y-123732074D01*
X151614859Y-123891128D01*
X151594355Y-124059997D01*
X151594355Y-124060002D01*
X151614859Y-124228869D01*
X151614859Y-124228871D01*
X151614860Y-124228872D01*
X151618803Y-124239270D01*
X151630010Y-124268819D01*
X151635464Y-124339606D01*
X151601782Y-124402104D01*
X151539657Y-124436471D01*
X151512198Y-124439500D01*
X150537463Y-124439500D01*
X150469342Y-124419498D01*
X150422849Y-124365842D01*
X150412745Y-124295568D01*
X150419651Y-124268820D01*
X150465140Y-124148871D01*
X150485645Y-123980002D01*
X150485645Y-123979997D01*
X150465140Y-123811128D01*
X150404818Y-123652069D01*
X150352804Y-123576714D01*
X150330568Y-123509290D01*
X150330500Y-123505138D01*
X150330500Y-122190000D01*
X174134706Y-122190000D01*
X174153854Y-122433302D01*
X174210827Y-122670609D01*
X174304222Y-122896087D01*
X174431742Y-123104180D01*
X174431743Y-123104182D01*
X174590240Y-123289759D01*
X174775817Y-123448256D01*
X174775821Y-123448259D01*
X174983911Y-123575777D01*
X175209388Y-123669172D01*
X175446698Y-123726146D01*
X175690000Y-123745294D01*
X175933302Y-123726146D01*
X176170612Y-123669172D01*
X176396089Y-123575777D01*
X176604179Y-123448259D01*
X176789759Y-123289759D01*
X176948259Y-123104179D01*
X177075777Y-122896089D01*
X177169172Y-122670612D01*
X177226146Y-122433302D01*
X177245294Y-122190000D01*
X177226146Y-121946698D01*
X177169172Y-121709388D01*
X177075777Y-121483911D01*
X176948259Y-121275821D01*
X176948256Y-121275817D01*
X176789759Y-121090240D01*
X176604182Y-120931743D01*
X176604180Y-120931742D01*
X176604179Y-120931741D01*
X176396089Y-120804223D01*
X176387098Y-120800499D01*
X176288820Y-120759791D01*
X176170612Y-120710828D01*
X176170610Y-120710827D01*
X176170609Y-120710827D01*
X176042900Y-120680166D01*
X175933302Y-120653854D01*
X175933303Y-120653854D01*
X175690000Y-120634706D01*
X175446697Y-120653854D01*
X175209390Y-120710827D01*
X174983912Y-120804222D01*
X174775819Y-120931742D01*
X174775817Y-120931743D01*
X174590240Y-121090240D01*
X174431743Y-121275817D01*
X174431742Y-121275819D01*
X174304222Y-121483912D01*
X174210827Y-121709390D01*
X174153854Y-121946697D01*
X174134706Y-122190000D01*
X150330500Y-122190000D01*
X150330500Y-120539347D01*
X150350502Y-120471226D01*
X150352805Y-120467770D01*
X150414818Y-120377930D01*
X150475140Y-120218872D01*
X150495645Y-120050000D01*
X150494431Y-120040000D01*
X164634706Y-120040000D01*
X164653854Y-120283302D01*
X164705899Y-120500084D01*
X164710828Y-120520612D01*
X164730427Y-120567928D01*
X164789617Y-120710828D01*
X164804223Y-120746089D01*
X164917992Y-120931743D01*
X164931742Y-120954180D01*
X164931743Y-120954182D01*
X165090240Y-121139759D01*
X165249547Y-121275819D01*
X165275821Y-121298259D01*
X165483911Y-121425777D01*
X165709388Y-121519172D01*
X165946698Y-121576146D01*
X166190000Y-121595294D01*
X166433302Y-121576146D01*
X166670612Y-121519172D01*
X166896089Y-121425777D01*
X167104179Y-121298259D01*
X167289759Y-121139759D01*
X167448259Y-120954179D01*
X167575777Y-120746089D01*
X167669172Y-120520612D01*
X167726146Y-120283302D01*
X167745294Y-120040000D01*
X167726146Y-119796698D01*
X167669172Y-119559388D01*
X167575777Y-119333911D01*
X167448259Y-119125821D01*
X167448256Y-119125817D01*
X167289759Y-118940240D01*
X167104182Y-118781743D01*
X167104180Y-118781742D01*
X167104179Y-118781741D01*
X166896089Y-118654223D01*
X166670612Y-118560828D01*
X166670610Y-118560827D01*
X166670609Y-118560827D01*
X166542900Y-118530166D01*
X166433302Y-118503854D01*
X166433303Y-118503854D01*
X166190000Y-118484706D01*
X165946697Y-118503854D01*
X165709390Y-118560827D01*
X165483912Y-118654222D01*
X165275819Y-118781742D01*
X165275817Y-118781743D01*
X165090240Y-118940240D01*
X164931743Y-119125817D01*
X164931742Y-119125819D01*
X164804222Y-119333912D01*
X164710827Y-119559390D01*
X164653854Y-119796697D01*
X164634706Y-120040000D01*
X150494431Y-120040000D01*
X150475140Y-119881128D01*
X150458962Y-119838470D01*
X150414820Y-119722074D01*
X150414818Y-119722070D01*
X150318183Y-119582071D01*
X150318181Y-119582069D01*
X150190857Y-119469270D01*
X150190851Y-119469265D01*
X150040225Y-119390210D01*
X150040221Y-119390208D01*
X149875059Y-119349500D01*
X149875056Y-119349500D01*
X149704944Y-119349500D01*
X149704940Y-119349500D01*
X149539778Y-119390208D01*
X149539774Y-119390210D01*
X149389148Y-119469265D01*
X149389142Y-119469270D01*
X149261818Y-119582069D01*
X149261816Y-119582071D01*
X149165181Y-119722070D01*
X149165179Y-119722074D01*
X149104859Y-119881128D01*
X149084355Y-120049997D01*
X149084355Y-120050002D01*
X149104859Y-120218871D01*
X149165179Y-120377925D01*
X149165181Y-120377929D01*
X149189591Y-120413293D01*
X149199363Y-120427450D01*
X149207196Y-120438797D01*
X149229432Y-120506221D01*
X149229500Y-120510373D01*
X149229500Y-123505138D01*
X149209498Y-123573259D01*
X149207196Y-123576714D01*
X149155181Y-123652069D01*
X149094859Y-123811128D01*
X149074355Y-123979997D01*
X149074355Y-123980002D01*
X149094859Y-124148871D01*
X149140349Y-124268820D01*
X149145803Y-124339607D01*
X149112120Y-124402105D01*
X149049995Y-124436472D01*
X149022537Y-124439500D01*
X137044661Y-124439500D01*
X136976540Y-124419498D01*
X136940965Y-124385077D01*
X136927688Y-124365842D01*
X136918183Y-124352071D01*
X136870932Y-124310210D01*
X136790857Y-124239270D01*
X136790851Y-124239265D01*
X136640225Y-124160210D01*
X136640221Y-124160208D01*
X136475059Y-124119500D01*
X136475056Y-124119500D01*
X136304944Y-124119500D01*
X136304940Y-124119500D01*
X136139778Y-124160208D01*
X136139774Y-124160210D01*
X135989148Y-124239265D01*
X135989142Y-124239270D01*
X135861818Y-124352069D01*
X135861816Y-124352071D01*
X135765181Y-124492070D01*
X135765179Y-124492074D01*
X135704859Y-124651128D01*
X135684355Y-124819997D01*
X78740500Y-124819997D01*
X78740500Y-107050172D01*
X78702364Y-106958103D01*
X78702361Y-106958099D01*
X78631900Y-106887638D01*
X78631896Y-106887635D01*
X78539828Y-106849500D01*
X76539828Y-106849500D01*
X76440172Y-106849500D01*
X76348103Y-106887635D01*
X76348099Y-106887638D01*
X76277638Y-106958099D01*
X76277635Y-106958103D01*
X76239500Y-107050171D01*
X48445500Y-107050171D01*
X48445500Y-105768312D01*
X48465502Y-105700191D01*
X48493279Y-105672894D01*
X48491675Y-105670962D01*
X48498404Y-105665374D01*
X48535978Y-105624157D01*
X48586810Y-105568397D01*
X48645303Y-105450927D01*
X48669416Y-105321934D01*
X48657308Y-105191267D01*
X48609904Y-105068901D01*
X48530822Y-104964179D01*
X48530821Y-104964178D01*
X48426105Y-104885099D01*
X48426098Y-104885095D01*
X48303736Y-104837692D01*
X48271068Y-104834665D01*
X48173068Y-104825584D01*
X48173067Y-104825584D01*
X48173065Y-104825584D01*
X48044076Y-104849695D01*
X47926602Y-104908190D01*
X47829628Y-104996593D01*
X47824039Y-105003325D01*
X47821300Y-105001051D01*
X47780930Y-105037226D01*
X47726689Y-105049499D01*
X44663311Y-105049499D01*
X44595190Y-105029497D01*
X44567888Y-105001726D01*
X44565962Y-105003326D01*
X44560372Y-104996594D01*
X44463397Y-104908191D01*
X44463398Y-104908191D01*
X44345925Y-104849696D01*
X44216935Y-104825584D01*
X44216934Y-104825584D01*
X44086266Y-104837692D01*
X44086263Y-104837692D01*
X43963902Y-104885095D01*
X43963896Y-104885099D01*
X43859178Y-104964178D01*
X43780099Y-105068896D01*
X43780095Y-105068902D01*
X43732692Y-105191263D01*
X43732692Y-105191266D01*
X43720584Y-105321936D01*
X36948737Y-105321936D01*
X36955348Y-105200000D01*
X36954874Y-105191266D01*
X36947188Y-105049499D01*
X36935972Y-104842629D01*
X36878071Y-104489448D01*
X36782324Y-104144597D01*
X36649853Y-103812120D01*
X36593972Y-103706718D01*
X36482217Y-103495925D01*
X36482211Y-103495915D01*
X36281365Y-103199689D01*
X36049668Y-102926914D01*
X36049663Y-102926909D01*
X35789851Y-102680801D01*
X35789841Y-102680793D01*
X35789837Y-102680789D01*
X35596209Y-102533597D01*
X43687000Y-102533597D01*
X43693505Y-102594093D01*
X43744555Y-102730964D01*
X43744555Y-102730965D01*
X43832095Y-102847904D01*
X43949034Y-102935444D01*
X44085906Y-102986494D01*
X44146402Y-102992999D01*
X44146415Y-102993000D01*
X44795000Y-102993000D01*
X45095000Y-102993000D01*
X45743585Y-102993000D01*
X45743597Y-102992999D01*
X45804093Y-102986494D01*
X45940964Y-102935444D01*
X45940965Y-102935444D01*
X46057904Y-102847904D01*
X46145444Y-102730965D01*
X46188176Y-102616394D01*
X46230722Y-102559558D01*
X46297242Y-102534747D01*
X46366617Y-102549838D01*
X46416819Y-102600040D01*
X46421495Y-102609530D01*
X46442793Y-102657763D01*
X46442795Y-102657767D01*
X46522232Y-102737204D01*
X46522234Y-102737205D01*
X46522235Y-102737206D01*
X46625009Y-102782585D01*
X46650135Y-102785500D01*
X48239864Y-102785499D01*
X48264991Y-102782585D01*
X48367765Y-102737206D01*
X48447206Y-102657765D01*
X48457757Y-102633867D01*
X48503566Y-102579634D01*
X48571429Y-102558773D01*
X48588211Y-102559682D01*
X48594942Y-102560499D01*
X48594944Y-102560500D01*
X48594946Y-102560500D01*
X48765053Y-102560500D01*
X48765056Y-102560500D01*
X48930225Y-102519790D01*
X49080852Y-102440734D01*
X49208183Y-102327929D01*
X49304818Y-102187930D01*
X49365140Y-102028872D01*
X49385645Y-101860000D01*
X49365140Y-101691128D01*
X49304818Y-101532070D01*
X49208183Y-101392071D01*
X49080852Y-101279266D01*
X49080851Y-101279265D01*
X48930225Y-101200210D01*
X48930221Y-101200208D01*
X48765059Y-101159500D01*
X48765056Y-101159500D01*
X48594944Y-101159500D01*
X48594942Y-101159500D01*
X48588202Y-101160318D01*
X48518167Y-101148670D01*
X48465548Y-101101007D01*
X48457759Y-101086137D01*
X48447206Y-101062235D01*
X48447205Y-101062234D01*
X48447205Y-101062233D01*
X48367767Y-100982795D01*
X48367765Y-100982794D01*
X48264989Y-100937414D01*
X48264990Y-100937414D01*
X48239868Y-100934500D01*
X46650140Y-100934500D01*
X46650133Y-100934501D01*
X46625009Y-100937414D01*
X46625005Y-100937416D01*
X46522234Y-100982793D01*
X46442793Y-101062234D01*
X46421497Y-101110468D01*
X46375684Y-101164705D01*
X46307821Y-101185564D01*
X46239453Y-101166422D01*
X46192288Y-101113356D01*
X46188177Y-101103606D01*
X46145444Y-100989035D01*
X46145444Y-100989034D01*
X46057904Y-100872095D01*
X45940965Y-100784555D01*
X45804093Y-100733505D01*
X45743597Y-100727000D01*
X45095000Y-100727000D01*
X45095000Y-102993000D01*
X44795000Y-102993000D01*
X44795000Y-102010000D01*
X43687000Y-102010000D01*
X43687000Y-102533597D01*
X35596209Y-102533597D01*
X35504919Y-102464200D01*
X35198253Y-102279685D01*
X34873435Y-102129409D01*
X34869877Y-102128210D01*
X34534280Y-102015133D01*
X34534275Y-102015132D01*
X34184762Y-101938198D01*
X34184749Y-101938195D01*
X34184746Y-101938195D01*
X34184743Y-101938194D01*
X34184734Y-101938193D01*
X33828955Y-101899500D01*
X33828948Y-101899500D01*
X33471052Y-101899500D01*
X33471044Y-101899500D01*
X33115265Y-101938193D01*
X33115237Y-101938198D01*
X32765724Y-102015132D01*
X32765719Y-102015133D01*
X32426567Y-102129408D01*
X32426565Y-102129409D01*
X32300076Y-102187929D01*
X32101741Y-102279688D01*
X31795082Y-102464199D01*
X31795076Y-102464203D01*
X31510164Y-102680788D01*
X31510148Y-102680801D01*
X31250336Y-102926909D01*
X31202351Y-102983400D01*
X31018635Y-103199689D01*
X31018631Y-103199694D01*
X31018630Y-103199696D01*
X30817788Y-103495915D01*
X30817782Y-103495925D01*
X30650149Y-103812115D01*
X30650142Y-103812131D01*
X30517675Y-104144597D01*
X30517674Y-104144600D01*
X30421928Y-104489448D01*
X30421928Y-104489451D01*
X30364028Y-104842628D01*
X30344652Y-105199996D01*
X27900500Y-105199996D01*
X27900500Y-101204500D01*
X27900821Y-101195512D01*
X27901473Y-101186402D01*
X43687000Y-101186402D01*
X43687000Y-101710000D01*
X44795000Y-101710000D01*
X44795000Y-100727000D01*
X44146402Y-100727000D01*
X44085906Y-100733505D01*
X43949035Y-100784555D01*
X43949034Y-100784555D01*
X43832095Y-100872095D01*
X43744555Y-100989034D01*
X43744555Y-100989035D01*
X43693505Y-101125906D01*
X43687000Y-101186402D01*
X27901473Y-101186402D01*
X27916034Y-100982795D01*
X27917664Y-100959999D01*
X27920221Y-100942216D01*
X27969451Y-100715912D01*
X27974510Y-100698681D01*
X28055454Y-100481662D01*
X28062918Y-100465321D01*
X28173910Y-100262055D01*
X28183625Y-100246937D01*
X28322423Y-100061524D01*
X28334183Y-100047953D01*
X28497953Y-99884183D01*
X28511524Y-99872423D01*
X28696937Y-99733625D01*
X28712055Y-99723910D01*
X28829000Y-99660053D01*
X28915323Y-99612917D01*
X28931662Y-99605454D01*
X29148681Y-99524510D01*
X29165912Y-99519451D01*
X29392216Y-99470221D01*
X29409999Y-99467664D01*
X29601515Y-99453967D01*
X29645513Y-99450821D01*
X29654501Y-99450500D01*
X29694170Y-99450500D01*
X137235830Y-99450500D01*
X137275499Y-99450500D01*
X137284487Y-99450821D01*
G37*
%TD.AperFunction*%
%TD*%
M02*
