M48
; DRILL file {KiCad 8.0.4} date 2024-11-04T15:19:37+0900
; FORMAT={-:-/ absolute / inch / decimal}
; #@! TF.CreationDate,2024-11-04T15:19:37+09:00
; #@! TF.GenerationSoftware,Kicad,Pcbnew,8.0.4
; #@! TF.FileFunction,Plated,1,2,PTH
FMAT,2
INCH
; #@! TA.AperFunction,Plated,PTH,ViaDrill
T1C0.0157
; #@! TA.AperFunction,Plated,PTH,ComponentDrill
T2C0.0220
; #@! TA.AperFunction,Plated,PTH,ComponentDrill
T3C0.0315
; #@! TA.AperFunction,Plated,PTH,ComponentDrill
T4C0.0335
; #@! TA.AperFunction,Plated,PTH,ComponentDrill
T5C0.1260
%
G90
G05
T1
X1.5098Y-2.872
X1.5098Y-3.3543
X1.5098Y-3.4094
X1.5098Y-5.0217
X1.5098Y-5.5039
X1.5098Y-5.5591
X1.5098Y-7.1713
X1.5098Y-7.6535
X1.5098Y-7.7087
X1.5098Y-9.3209
X1.5098Y-9.8031
X1.5098Y-9.8583
X1.5138Y-2.3413
X1.5138Y-4.4909
X1.5138Y-6.6406
X1.5138Y-8.7902
X1.6102Y-2.7598
X1.6102Y-4.9094
X1.6102Y-7.0591
X1.6102Y-9.2087
X1.6358Y-2.0587
X1.6358Y-4.2083
X1.6358Y-6.3579
X1.6358Y-8.5075
X1.6555Y-3.4587
X1.6555Y-5.6083
X1.6555Y-7.7579
X1.6555Y-9.9075
X1.6693Y-3.2106
X1.6693Y-3.2618
X1.6693Y-5.3602
X1.6693Y-5.4114
X1.6693Y-7.5098
X1.6693Y-7.561
X1.6693Y-9.6594
X1.6693Y-9.7106
X1.6732Y-3.3091
X1.6732Y-5.4587
X1.6732Y-7.6083
X1.6732Y-9.7579
X1.6791Y-3.5157
X1.6791Y-5.6654
X1.6791Y-7.815
X1.6791Y-9.9646
X1.6831Y-3.124
X1.6831Y-5.2736
X1.6831Y-7.4232
X1.6831Y-9.5728
X1.6949Y-2.7657
X1.6949Y-4.9154
X1.6949Y-7.065
X1.6949Y-9.2146
X1.7378Y-2.0598
X1.7378Y-4.2094
X1.7378Y-6.3591
X1.7378Y-8.5087
X1.7835Y-3.3563
X1.7835Y-5.5059
X1.7835Y-7.6555
X1.7835Y-9.8051
X1.8858Y-3.5256
X1.8858Y-5.6752
X1.8858Y-7.8248
X1.8858Y-9.9744
X1.8976Y-3.2874
X1.8976Y-5.437
X1.8976Y-7.5866
X1.8976Y-9.7362
X1.9547Y-3.1201
X1.9547Y-5.2697
X1.9547Y-7.4193
X1.9547Y-9.5689
X1.9882Y-2.75
X1.9882Y-4.8996
X1.9882Y-7.0492
X1.9882Y-9.1988
X1.9902Y-2.9331
X1.9902Y-5.0827
X1.9902Y-7.2323
X1.9902Y-9.3819
X2.022Y-2.2571
X2.022Y-4.4067
X2.022Y-6.5563
X2.022Y-8.7059
X2.0236Y-3.3705
X2.0236Y-5.5201
X2.0236Y-7.6697
X2.0236Y-9.8193
X2.0622Y-2.0697
X2.0622Y-4.2193
X2.0622Y-6.3689
X2.0622Y-8.5185
X2.0669Y-3.1752
X2.0669Y-5.3248
X2.0669Y-7.4744
X2.0669Y-9.624
X2.0933Y-3.4949
X2.0933Y-5.6445
X2.0933Y-7.7941
X2.0933Y-9.9437
X2.1004Y-2.811
X2.1004Y-3.1988
X2.1004Y-4.9606
X2.1004Y-5.3484
X2.1004Y-7.1102
X2.1004Y-7.498
X2.1004Y-9.2598
X2.1004Y-9.6476
X2.1122Y-3.0098
X2.1122Y-5.1594
X2.1122Y-7.3091
X2.1122Y-9.4587
X2.1376Y-3.5417
X2.1376Y-5.6913
X2.1376Y-7.8409
X2.1376Y-9.9906
X2.1752Y-2.5201
X2.1752Y-4.6697
X2.1752Y-6.8193
X2.1752Y-8.9689
X2.2071Y-4.0677
X2.2071Y-6.2173
X2.2071Y-8.3669
X2.2071Y-10.5165
X2.2079Y-2.3413
X2.2079Y-4.4909
X2.2079Y-6.6406
X2.2079Y-8.7902
X2.2587Y-3.2142
X2.2587Y-5.3638
X2.2587Y-7.5134
X2.2587Y-9.663
X2.2602Y-2.8201
X2.2602Y-3.0169
X2.2602Y-4.9697
X2.2602Y-5.1665
X2.2602Y-7.1193
X2.2602Y-7.3161
X2.2602Y-9.2689
X2.2602Y-9.4657
X2.2713Y-3.3161
X2.2713Y-5.4657
X2.2713Y-7.6154
X2.2713Y-9.765
X2.2815Y-3.1024
X2.2815Y-5.252
X2.2815Y-7.4016
X2.2815Y-9.5512
X2.2833Y-2.711
X2.2833Y-4.8606
X2.2833Y-7.0102
X2.2833Y-9.1598
X2.2835Y-2.8996
X2.2835Y-5.0492
X2.2835Y-7.1988
X2.2835Y-9.3484
X2.2843Y-3.585
X2.2843Y-5.7346
X2.2843Y-7.8843
X2.2843Y-10.0339
X2.3134Y-3.6535
X2.3134Y-5.8031
X2.3134Y-7.9528
X2.3134Y-10.1024
X2.3252Y-2.1406
X2.3252Y-4.2902
X2.3252Y-6.4398
X2.3252Y-8.5894
X2.3642Y-2.5807
X2.3642Y-4.7303
X2.3642Y-6.8799
X2.3642Y-9.0295
X2.4717Y-3.6331
X2.4717Y-5.7827
X2.4717Y-7.9323
X2.4717Y-10.0819
X2.5124Y-3.0303
X2.5124Y-5.1799
X2.5124Y-7.3295
X2.5124Y-9.4791
X2.5136Y-2.687
X2.5136Y-4.8366
X2.5136Y-6.9862
X2.5136Y-9.1358
X2.5341Y-2.8634
X2.5341Y-5.013
X2.5341Y-7.1626
X2.5341Y-9.3122
X2.5348Y-2.9795
X2.5348Y-5.1291
X2.5348Y-7.2787
X2.5348Y-9.4283
X2.535Y-3.9874
X2.535Y-6.137
X2.535Y-8.2866
X2.535Y-10.4362
X2.5461Y-3.774
X2.5461Y-5.9236
X2.5461Y-8.0732
X2.5461Y-10.2228
X2.5618Y-2.5799
X2.5618Y-4.7295
X2.5618Y-6.8791
X2.5618Y-9.0287
X2.5744Y-2.2114
X2.5744Y-4.361
X2.5744Y-6.5106
X2.5744Y-8.6602
X2.5866Y-3.5157
X2.5866Y-5.6654
X2.5866Y-7.815
X2.5866Y-9.9646
X2.6283Y-3.724
X2.6283Y-5.8736
X2.6283Y-8.0232
X2.6283Y-10.1728
X2.6496Y-3.4303
X2.6496Y-5.5799
X2.6496Y-7.7295
X2.6496Y-9.8791
X2.688Y-2.9303
X2.688Y-5.0799
X2.688Y-7.2295
X2.688Y-9.3791
X2.6884Y-2.9795
X2.6884Y-5.1291
X2.6884Y-7.2787
X2.6884Y-9.4283
X2.6888Y-3.0303
X2.6888Y-5.1799
X2.6888Y-7.3295
X2.6888Y-9.4791
X2.6892Y-3.0807
X2.6892Y-3.1303
X2.6892Y-5.2303
X2.6892Y-5.2799
X2.6892Y-7.3799
X2.6892Y-7.4295
X2.6892Y-9.5295
X2.6892Y-9.5791
X2.69Y-3.1803
X2.69Y-3.2299
X2.69Y-5.3299
X2.69Y-5.3795
X2.69Y-7.4795
X2.69Y-7.5291
X2.69Y-9.6291
X2.69Y-9.6787
X2.6904Y-3.2799
X2.6904Y-5.4295
X2.6904Y-7.5791
X2.6904Y-9.7287
X2.7431Y-2.7291
X2.7431Y-4.8787
X2.7431Y-7.0283
X2.7431Y-9.178
X2.7555Y-3.6106
X2.7555Y-5.7602
X2.7555Y-7.9098
X2.7555Y-10.0594
X2.7921Y-3.4303
X2.7921Y-5.5799
X2.7921Y-7.7295
X2.7921Y-9.8791
X2.8016Y-3.6969
X2.8016Y-5.8465
X2.8016Y-7.9961
X2.8016Y-10.1457
X2.8094Y-4.037
X2.8094Y-6.1866
X2.8094Y-8.3362
X2.8094Y-10.4858
X2.8467Y-2.9461
X2.8467Y-5.0957
X2.8467Y-7.2453
X2.8467Y-9.3949
X2.8494Y-3.0476
X2.8494Y-3.1264
X2.8494Y-3.2051
X2.8494Y-3.2839
X2.8494Y-3.3626
X2.8494Y-5.1972
X2.8494Y-5.276
X2.8494Y-5.3547
X2.8494Y-5.4335
X2.8494Y-5.5122
X2.8494Y-7.3469
X2.8494Y-7.4256
X2.8494Y-7.5043
X2.8494Y-7.5831
X2.8494Y-7.6618
X2.8494Y-9.4965
X2.8494Y-9.5752
X2.8494Y-9.6539
X2.8494Y-9.7327
X2.8494Y-9.8114
X2.9031Y-3.7709
X2.9031Y-5.9205
X2.9031Y-8.0701
X2.9031Y-10.2197
X2.9171Y-2.5996
X2.9171Y-4.7492
X2.9171Y-6.8988
X2.9171Y-9.0484
X2.9281Y-3.0476
X2.9281Y-3.1264
X2.9281Y-3.2051
X2.9281Y-3.2839
X2.9281Y-3.3626
X2.9281Y-5.1972
X2.9281Y-5.276
X2.9281Y-5.3547
X2.9281Y-5.4335
X2.9281Y-5.5122
X2.9281Y-7.3469
X2.9281Y-7.4256
X2.9281Y-7.5043
X2.9281Y-7.5831
X2.9281Y-7.6618
X2.9281Y-9.4965
X2.9281Y-9.5752
X2.9281Y-9.6539
X2.9281Y-9.7327
X2.9281Y-9.8114
X2.9431Y-2.7039
X2.9431Y-4.8535
X2.9431Y-7.0031
X2.9431Y-9.1528
X2.9606Y-2.5327
X2.9606Y-4.6823
X2.9606Y-6.8319
X2.9606Y-8.9815
X2.9724Y-3.6055
X2.9724Y-5.7551
X2.9724Y-7.9047
X2.9724Y-10.0543
X2.9732Y-3.6587
X2.9732Y-5.8083
X2.9732Y-7.9579
X2.9732Y-10.1075
X2.9831Y-4.0622
X2.9831Y-6.2118
X2.9831Y-8.3614
X2.9831Y-10.511
X3.0031Y-3.4547
X3.0031Y-5.6043
X3.0031Y-7.7539
X3.0031Y-9.9035
X3.0069Y-3.0476
X3.0069Y-3.1264
X3.0069Y-3.2051
X3.0069Y-3.2839
X3.0069Y-3.3626
X3.0069Y-5.1972
X3.0069Y-5.276
X3.0069Y-5.3547
X3.0069Y-5.4335
X3.0069Y-5.5122
X3.0069Y-7.3469
X3.0069Y-7.4256
X3.0069Y-7.5043
X3.0069Y-7.5831
X3.0069Y-7.6618
X3.0069Y-9.4965
X3.0069Y-9.5752
X3.0069Y-9.6539
X3.0069Y-9.7327
X3.0069Y-9.8114
X3.0179Y-2.8913
X3.0179Y-5.0409
X3.0179Y-7.1906
X3.0179Y-9.3402
X3.0518Y-2.7461
X3.0518Y-4.8957
X3.0518Y-7.0453
X3.0518Y-9.1949
X3.0535Y-3.5638
X3.0535Y-5.7134
X3.0535Y-7.863
X3.0535Y-10.0126
X3.0622Y-3.9512
X3.0622Y-6.1008
X3.0622Y-8.2504
X3.0622Y-10.4
X3.0795Y-3.6524
X3.0795Y-5.802
X3.0795Y-7.9516
X3.0795Y-10.1012
X3.0925Y-2.1976
X3.0925Y-4.3472
X3.0925Y-6.4969
X3.0925Y-8.6465
X3.1128Y-3.9067
X3.1128Y-6.0563
X3.1128Y-8.2059
X3.1128Y-10.3555
X3.1256Y-3.6094
X3.1256Y-5.7591
X3.1256Y-7.9087
X3.1256Y-10.0583
X3.1539Y-3.5646
X3.1539Y-5.7142
X3.1539Y-7.8638
X3.1539Y-10.0134
X3.1693Y-3.7957
X3.1693Y-5.9453
X3.1693Y-8.0949
X3.1693Y-10.2445
X3.1722Y-2.5587
X3.1722Y-4.7083
X3.1722Y-6.8579
X3.1722Y-9.0075
X3.1726Y-2.7335
X3.1726Y-4.8831
X3.1726Y-7.0327
X3.1726Y-9.1823
X3.1951Y-2.8909
X3.1951Y-5.0406
X3.1951Y-7.1902
X3.1951Y-9.3398
X3.2031Y-3.622
X3.2031Y-5.7717
X3.2031Y-7.9213
X3.2031Y-10.0709
X3.2039Y-3.6646
X3.2039Y-5.8142
X3.2039Y-7.9638
X3.2039Y-10.1134
X3.211Y-3.9299
X3.211Y-6.0795
X3.211Y-8.2291
X3.211Y-10.3787
X3.212Y-2.5189
X3.212Y-2.7154
X3.212Y-4.6685
X3.212Y-4.865
X3.212Y-6.8181
X3.212Y-7.0146
X3.212Y-8.9677
X3.212Y-9.1642
X3.2715Y-2.8909
X3.2715Y-5.0406
X3.2715Y-7.1902
X3.2715Y-9.3398
X3.2929Y-3.6646
X3.2929Y-5.8142
X3.2929Y-7.9638
X3.2929Y-10.1134
X3.2965Y-3.824
X3.2965Y-5.9736
X3.2965Y-8.1232
X3.2965Y-10.2728
X3.3417Y-2.315
X3.3417Y-4.4646
X3.3417Y-6.6142
X3.3417Y-8.7638
X3.3496Y-2.6484
X3.3496Y-4.798
X3.3496Y-6.9476
X3.3496Y-9.0972
X3.3541Y-3.5654
X3.3541Y-5.715
X3.3541Y-7.8646
X3.3541Y-10.0142
X3.3756Y-3.7913
X3.3756Y-5.9409
X3.3756Y-8.0906
X3.3756Y-10.2402
X3.3772Y-3.6972
X3.3772Y-5.8469
X3.3772Y-7.9965
X3.3772Y-10.1461
X3.3858Y-2.5996
X3.3858Y-4.7492
X3.3858Y-6.8988
X3.3858Y-9.0484
X3.4031Y-3.4476
X3.4031Y-5.5972
X3.4031Y-7.7469
X3.4031Y-9.8965
X3.4142Y-3.735
X3.4142Y-5.8846
X3.4142Y-8.0343
X3.4142Y-10.1839
X3.4218Y-2.7397
X3.4218Y-4.8894
X3.4218Y-7.039
X3.4218Y-9.1886
X3.4266Y-2.8831
X3.4266Y-5.0327
X3.4266Y-7.1823
X3.4266Y-9.3319
X3.4274Y-2.9815
X3.4274Y-5.1311
X3.4274Y-7.2807
X3.4274Y-9.4303
X3.4494Y-3.6634
X3.4494Y-5.813
X3.4494Y-7.9626
X3.4494Y-10.1122
X3.4783Y-3.7608
X3.4783Y-5.9104
X3.4783Y-8.06
X3.4783Y-10.2096
X3.5766Y-3.7874
X3.5766Y-5.937
X3.5766Y-8.0866
X3.5766Y-10.2362
X3.714Y-3.8362
X3.714Y-5.9858
X3.714Y-8.1354
X3.714Y-10.285
X3.7175Y-3.6398
X3.7175Y-5.7894
X3.7175Y-7.939
X3.7175Y-10.0886
X3.872Y-2.872
X3.872Y-3.3543
X3.872Y-3.4094
X3.872Y-5.0217
X3.872Y-5.5039
X3.872Y-5.5591
X3.872Y-7.1713
X3.872Y-7.6535
X3.872Y-7.7087
X3.872Y-9.3209
X3.872Y-9.8031
X3.872Y-9.8583
X3.876Y-2.3413
X3.876Y-4.4909
X3.876Y-6.6406
X3.876Y-8.7902
X3.9724Y-2.7598
X3.9724Y-4.9094
X3.9724Y-7.0591
X3.9724Y-9.2087
X3.998Y-2.0587
X3.998Y-4.2083
X3.998Y-6.3579
X3.998Y-8.5075
X4.0177Y-3.4587
X4.0177Y-5.6083
X4.0177Y-7.7579
X4.0177Y-9.9075
X4.0315Y-3.2106
X4.0315Y-3.2618
X4.0315Y-5.3602
X4.0315Y-5.4114
X4.0315Y-7.5098
X4.0315Y-7.561
X4.0315Y-9.6594
X4.0315Y-9.7106
X4.0354Y-3.3091
X4.0354Y-5.4587
X4.0354Y-7.6083
X4.0354Y-9.7579
X4.0413Y-3.5157
X4.0413Y-5.6654
X4.0413Y-7.815
X4.0413Y-9.9646
X4.0453Y-3.124
X4.0453Y-5.2736
X4.0453Y-7.4232
X4.0453Y-9.5728
X4.0571Y-2.7657
X4.0571Y-4.9154
X4.0571Y-7.065
X4.0571Y-9.2146
X4.1Y-2.0598
X4.1Y-4.2094
X4.1Y-6.3591
X4.1Y-8.5087
X4.1457Y-3.3563
X4.1457Y-5.5059
X4.1457Y-7.6555
X4.1457Y-9.8051
X4.248Y-3.5256
X4.248Y-5.6752
X4.248Y-7.8248
X4.248Y-9.9744
X4.2598Y-3.2874
X4.2598Y-5.437
X4.2598Y-7.5866
X4.2598Y-9.7362
X4.3169Y-3.1201
X4.3169Y-5.2697
X4.3169Y-7.4193
X4.3169Y-9.5689
X4.3504Y-2.75
X4.3504Y-4.8996
X4.3504Y-7.0492
X4.3504Y-9.1988
X4.3524Y-2.9331
X4.3524Y-5.0827
X4.3524Y-7.2323
X4.3524Y-9.3819
X4.3843Y-2.2571
X4.3843Y-4.4067
X4.3843Y-6.5563
X4.3843Y-8.7059
X4.3858Y-3.3705
X4.3858Y-5.5201
X4.3858Y-7.6697
X4.3858Y-9.8193
X4.4244Y-2.0697
X4.4244Y-4.2193
X4.4244Y-6.3689
X4.4244Y-8.5185
X4.4291Y-3.1752
X4.4291Y-5.3248
X4.4291Y-7.4744
X4.4291Y-9.624
X4.4555Y-3.4949
X4.4555Y-5.6445
X4.4555Y-7.7941
X4.4555Y-9.9437
X4.4626Y-2.811
X4.4626Y-3.1988
X4.4626Y-4.9606
X4.4626Y-5.3484
X4.4626Y-7.1102
X4.4626Y-7.498
X4.4626Y-9.2598
X4.4626Y-9.6476
X4.4744Y-3.0098
X4.4744Y-5.1594
X4.4744Y-7.3091
X4.4744Y-9.4587
X4.4998Y-3.5417
X4.4998Y-5.6913
X4.4998Y-7.8409
X4.4998Y-9.9906
X4.5374Y-2.5201
X4.5374Y-4.6697
X4.5374Y-6.8193
X4.5374Y-8.9689
X4.5693Y-4.0677
X4.5693Y-6.2173
X4.5693Y-8.3669
X4.5693Y-10.5165
X4.5701Y-2.3413
X4.5701Y-4.4909
X4.5701Y-6.6406
X4.5701Y-8.7902
X4.6209Y-3.2142
X4.6209Y-5.3638
X4.6209Y-7.5134
X4.6209Y-9.663
X4.6224Y-2.8201
X4.6224Y-3.0169
X4.6224Y-4.9697
X4.6224Y-5.1665
X4.6224Y-7.1193
X4.6224Y-7.3161
X4.6224Y-9.2689
X4.6224Y-9.4657
X4.6335Y-3.3161
X4.6335Y-5.4657
X4.6335Y-7.6154
X4.6335Y-9.765
X4.6437Y-3.1024
X4.6437Y-5.252
X4.6437Y-7.4016
X4.6437Y-9.5512
X4.6455Y-2.711
X4.6455Y-4.8606
X4.6455Y-7.0102
X4.6455Y-9.1598
X4.6457Y-2.8996
X4.6457Y-5.0492
X4.6457Y-7.1988
X4.6457Y-9.3484
X4.6465Y-3.585
X4.6465Y-5.7346
X4.6465Y-7.8843
X4.6465Y-10.0339
X4.6756Y-3.6535
X4.6756Y-5.8031
X4.6756Y-7.9528
X4.6756Y-10.1024
X4.6874Y-2.1406
X4.6874Y-4.2902
X4.6874Y-6.4398
X4.6874Y-8.5894
X4.7264Y-2.5807
X4.7264Y-4.7303
X4.7264Y-6.8799
X4.7264Y-9.0295
X4.8339Y-3.6331
X4.8339Y-5.7827
X4.8339Y-7.9323
X4.8339Y-10.0819
X4.8746Y-3.0303
X4.8746Y-5.1799
X4.8746Y-7.3295
X4.8746Y-9.4791
X4.8758Y-2.687
X4.8758Y-4.8366
X4.8758Y-6.9862
X4.8758Y-9.1358
X4.8963Y-2.8634
X4.8963Y-5.013
X4.8963Y-7.1626
X4.8963Y-9.3122
X4.897Y-2.9795
X4.897Y-5.1291
X4.897Y-7.2787
X4.897Y-9.4283
X4.8972Y-3.9874
X4.8972Y-6.137
X4.8972Y-8.2866
X4.8972Y-10.4362
X4.9083Y-3.774
X4.9083Y-5.9236
X4.9083Y-8.0732
X4.9083Y-10.2228
X4.924Y-2.5799
X4.924Y-4.7295
X4.924Y-6.8791
X4.924Y-9.0287
X4.9366Y-2.2114
X4.9366Y-4.361
X4.9366Y-6.5106
X4.9366Y-8.6602
X4.9488Y-3.5157
X4.9488Y-5.6654
X4.9488Y-7.815
X4.9488Y-9.9646
X4.9906Y-3.724
X4.9906Y-5.8736
X4.9906Y-8.0232
X4.9906Y-10.1728
X5.0118Y-3.4303
X5.0118Y-5.5799
X5.0118Y-7.7295
X5.0118Y-9.8791
X5.0502Y-2.9303
X5.0502Y-5.0799
X5.0502Y-7.2295
X5.0502Y-9.3791
X5.0506Y-2.9795
X5.0506Y-5.1291
X5.0506Y-7.2787
X5.0506Y-9.4283
X5.051Y-3.0303
X5.051Y-5.1799
X5.051Y-7.3295
X5.051Y-9.4791
X5.0514Y-3.0807
X5.0514Y-3.1303
X5.0514Y-5.2303
X5.0514Y-5.2799
X5.0514Y-7.3799
X5.0514Y-7.4295
X5.0514Y-9.5295
X5.0514Y-9.5791
X5.0522Y-3.1803
X5.0522Y-3.2299
X5.0522Y-5.3299
X5.0522Y-5.3795
X5.0522Y-7.4795
X5.0522Y-7.5291
X5.0522Y-9.6291
X5.0522Y-9.6787
X5.0526Y-3.2799
X5.0526Y-5.4295
X5.0526Y-7.5791
X5.0526Y-9.7287
X5.1053Y-2.7291
X5.1053Y-4.8787
X5.1053Y-7.0283
X5.1053Y-9.178
X5.1177Y-3.6106
X5.1177Y-5.7602
X5.1177Y-7.9098
X5.1177Y-10.0594
X5.1543Y-3.4303
X5.1543Y-5.5799
X5.1543Y-7.7295
X5.1543Y-9.8791
X5.1638Y-3.6969
X5.1638Y-5.8465
X5.1638Y-7.9961
X5.1638Y-10.1457
X5.1717Y-4.037
X5.1717Y-6.1866
X5.1717Y-8.3362
X5.1717Y-10.4858
X5.2089Y-2.9461
X5.2089Y-5.0957
X5.2089Y-7.2453
X5.2089Y-9.3949
X5.2116Y-3.0476
X5.2116Y-3.1264
X5.2116Y-3.2051
X5.2116Y-3.2839
X5.2116Y-3.3626
X5.2116Y-5.1972
X5.2116Y-5.276
X5.2116Y-5.3547
X5.2116Y-5.4335
X5.2116Y-5.5122
X5.2116Y-7.3469
X5.2116Y-7.4256
X5.2116Y-7.5043
X5.2116Y-7.5831
X5.2116Y-7.6618
X5.2116Y-9.4965
X5.2116Y-9.5752
X5.2116Y-9.6539
X5.2116Y-9.7327
X5.2116Y-9.8114
X5.2654Y-3.7709
X5.2654Y-5.9205
X5.2654Y-8.0701
X5.2654Y-10.2197
X5.2793Y-2.5996
X5.2793Y-4.7492
X5.2793Y-6.8988
X5.2793Y-9.0484
X5.2904Y-3.0476
X5.2904Y-3.1264
X5.2904Y-3.2051
X5.2904Y-3.2839
X5.2904Y-3.3626
X5.2904Y-5.1972
X5.2904Y-5.276
X5.2904Y-5.3547
X5.2904Y-5.4335
X5.2904Y-5.5122
X5.2904Y-7.3469
X5.2904Y-7.4256
X5.2904Y-7.5043
X5.2904Y-7.5831
X5.2904Y-7.6618
X5.2904Y-9.4965
X5.2904Y-9.5752
X5.2904Y-9.6539
X5.2904Y-9.7327
X5.2904Y-9.8114
X5.3053Y-2.7039
X5.3053Y-4.8535
X5.3053Y-7.0031
X5.3053Y-9.1528
X5.3228Y-2.5327
X5.3228Y-4.6823
X5.3228Y-6.8319
X5.3228Y-8.9815
X5.3346Y-3.6055
X5.3346Y-5.7551
X5.3346Y-7.9047
X5.3346Y-10.0543
X5.3354Y-3.6587
X5.3354Y-5.8083
X5.3354Y-7.9579
X5.3354Y-10.1075
X5.3453Y-4.0622
X5.3453Y-6.2118
X5.3453Y-8.3614
X5.3453Y-10.511
X5.3654Y-3.4547
X5.3654Y-5.6043
X5.3654Y-7.7539
X5.3654Y-9.9035
X5.3691Y-3.0476
X5.3691Y-3.1264
X5.3691Y-3.2051
X5.3691Y-3.2839
X5.3691Y-3.3626
X5.3691Y-5.1972
X5.3691Y-5.276
X5.3691Y-5.3547
X5.3691Y-5.4335
X5.3691Y-5.5122
X5.3691Y-7.3469
X5.3691Y-7.4256
X5.3691Y-7.5043
X5.3691Y-7.5831
X5.3691Y-7.6618
X5.3691Y-9.4965
X5.3691Y-9.5752
X5.3691Y-9.6539
X5.3691Y-9.7327
X5.3691Y-9.8114
X5.3801Y-2.8913
X5.3801Y-5.0409
X5.3801Y-7.1906
X5.3801Y-9.3402
X5.414Y-2.7461
X5.414Y-4.8957
X5.414Y-7.0453
X5.414Y-9.1949
X5.4157Y-3.5638
X5.4157Y-5.7134
X5.4157Y-7.863
X5.4157Y-10.0126
X5.4244Y-3.9512
X5.4244Y-6.1008
X5.4244Y-8.2504
X5.4244Y-10.4
X5.4417Y-3.6524
X5.4417Y-5.802
X5.4417Y-7.9516
X5.4417Y-10.1012
X5.4547Y-2.1976
X5.4547Y-4.3472
X5.4547Y-6.4969
X5.4547Y-8.6465
X5.475Y-3.9067
X5.475Y-6.0563
X5.475Y-8.2059
X5.475Y-10.3555
X5.4878Y-3.6094
X5.4878Y-5.7591
X5.4878Y-7.9087
X5.4878Y-10.0583
X5.5161Y-3.5646
X5.5161Y-5.7142
X5.5161Y-7.8638
X5.5161Y-10.0134
X5.5315Y-3.7957
X5.5315Y-5.9453
X5.5315Y-8.0949
X5.5315Y-10.2445
X5.5344Y-2.5587
X5.5344Y-4.7083
X5.5344Y-6.8579
X5.5344Y-9.0075
X5.5348Y-2.7335
X5.5348Y-4.8831
X5.5348Y-7.0327
X5.5348Y-9.1823
X5.5573Y-2.8909
X5.5573Y-5.0406
X5.5573Y-7.1902
X5.5573Y-9.3398
X5.5654Y-3.622
X5.5654Y-5.7717
X5.5654Y-7.9213
X5.5654Y-10.0709
X5.5661Y-3.6646
X5.5661Y-5.8142
X5.5661Y-7.9638
X5.5661Y-10.1134
X5.5732Y-3.9299
X5.5732Y-6.0795
X5.5732Y-8.2291
X5.5732Y-10.3787
X5.5742Y-2.5189
X5.5742Y-2.7154
X5.5742Y-4.6685
X5.5742Y-4.865
X5.5742Y-6.8181
X5.5742Y-7.0146
X5.5742Y-8.9677
X5.5742Y-9.1642
X5.6337Y-2.8909
X5.6337Y-5.0406
X5.6337Y-7.1902
X5.6337Y-9.3398
X5.6551Y-3.6646
X5.6551Y-5.8142
X5.6551Y-7.9638
X5.6551Y-10.1134
X5.6587Y-3.824
X5.6587Y-5.9736
X5.6587Y-8.1232
X5.6587Y-10.2728
X5.7039Y-2.315
X5.7039Y-4.4646
X5.7039Y-6.6142
X5.7039Y-8.7638
X5.7118Y-2.6484
X5.7118Y-4.798
X5.7118Y-6.9476
X5.7118Y-9.0972
X5.7163Y-3.5654
X5.7163Y-5.715
X5.7163Y-7.8646
X5.7163Y-10.0142
X5.7378Y-3.7913
X5.7378Y-5.9409
X5.7378Y-8.0906
X5.7378Y-10.2402
X5.7394Y-3.6972
X5.7394Y-5.8469
X5.7394Y-7.9965
X5.7394Y-10.1461
X5.748Y-2.5996
X5.748Y-4.7492
X5.748Y-6.8988
X5.748Y-9.0484
X5.7654Y-3.4476
X5.7654Y-5.5972
X5.7654Y-7.7469
X5.7654Y-9.8965
X5.7764Y-3.735
X5.7764Y-5.8846
X5.7764Y-8.0343
X5.7764Y-10.1839
X5.784Y-2.7397
X5.784Y-4.8894
X5.784Y-7.039
X5.784Y-9.1886
X5.7888Y-2.8831
X5.7888Y-5.0327
X5.7888Y-7.1823
X5.7888Y-9.3319
X5.7896Y-2.9815
X5.7896Y-5.1311
X5.7896Y-7.2807
X5.7896Y-9.4303
X5.8116Y-3.6634
X5.8116Y-5.813
X5.8116Y-7.9626
X5.8116Y-10.1122
X5.8406Y-3.7608
X5.8406Y-5.9104
X5.8406Y-8.06
X5.8406Y-10.2096
X5.9388Y-3.7874
X5.9388Y-5.937
X5.9388Y-8.0866
X5.9388Y-10.2362
X6.0762Y-3.8362
X6.0762Y-5.9858
X6.0762Y-8.1354
X6.0762Y-10.285
X6.0797Y-3.6398
X6.0797Y-5.7894
X6.0797Y-7.939
X6.0797Y-10.0886
X6.2343Y-2.872
X6.2343Y-3.3543
X6.2343Y-3.4094
X6.2343Y-5.0217
X6.2343Y-5.5039
X6.2343Y-5.5591
X6.2343Y-7.1713
X6.2343Y-7.6535
X6.2343Y-7.7087
X6.2343Y-9.3209
X6.2343Y-9.8031
X6.2343Y-9.8583
X6.2382Y-2.3413
X6.2382Y-4.4909
X6.2382Y-6.6406
X6.2382Y-8.7902
X6.3346Y-2.7598
X6.3346Y-4.9094
X6.3346Y-7.0591
X6.3346Y-9.2087
X6.3602Y-2.0587
X6.3602Y-4.2083
X6.3602Y-6.3579
X6.3602Y-8.5075
X6.3799Y-3.4587
X6.3799Y-5.6083
X6.3799Y-7.7579
X6.3799Y-9.9075
X6.3937Y-3.2106
X6.3937Y-3.2618
X6.3937Y-5.3602
X6.3937Y-5.4114
X6.3937Y-7.5098
X6.3937Y-7.561
X6.3937Y-9.6594
X6.3937Y-9.7106
X6.3976Y-3.3091
X6.3976Y-5.4587
X6.3976Y-7.6083
X6.3976Y-9.7579
X6.4035Y-3.5157
X6.4035Y-5.6654
X6.4035Y-7.815
X6.4035Y-9.9646
X6.4075Y-3.124
X6.4075Y-5.2736
X6.4075Y-7.4232
X6.4075Y-9.5728
X6.4193Y-2.7657
X6.4193Y-4.9154
X6.4193Y-7.065
X6.4193Y-9.2146
X6.4622Y-2.0598
X6.4622Y-4.2094
X6.4622Y-6.3591
X6.4622Y-8.5087
X6.5079Y-3.3563
X6.5079Y-5.5059
X6.5079Y-7.6555
X6.5079Y-9.8051
X6.6102Y-3.5256
X6.6102Y-5.6752
X6.6102Y-7.8248
X6.6102Y-9.9744
X6.622Y-3.2874
X6.622Y-5.437
X6.622Y-7.5866
X6.622Y-9.7362
X6.6791Y-3.1201
X6.6791Y-5.2697
X6.6791Y-7.4193
X6.6791Y-9.5689
X6.7126Y-2.75
X6.7126Y-4.8996
X6.7126Y-7.0492
X6.7126Y-9.1988
X6.7146Y-2.9331
X6.7146Y-5.0827
X6.7146Y-7.2323
X6.7146Y-9.3819
X6.7465Y-2.2571
X6.7465Y-4.4067
X6.7465Y-6.5563
X6.7465Y-8.7059
X6.748Y-3.3705
X6.748Y-5.5201
X6.748Y-7.6697
X6.748Y-9.8193
X6.7866Y-2.0697
X6.7866Y-4.2193
X6.7866Y-6.3689
X6.7866Y-8.5185
X6.7913Y-3.1752
X6.7913Y-5.3248
X6.7913Y-7.4744
X6.7913Y-9.624
X6.8177Y-3.4949
X6.8177Y-5.6445
X6.8177Y-7.7941
X6.8177Y-9.9437
X6.8248Y-2.811
X6.8248Y-3.1988
X6.8248Y-4.9606
X6.8248Y-5.3484
X6.8248Y-7.1102
X6.8248Y-7.498
X6.8248Y-9.2598
X6.8248Y-9.6476
X6.8366Y-3.0098
X6.8366Y-5.1594
X6.8366Y-7.3091
X6.8366Y-9.4587
X6.862Y-3.5417
X6.862Y-5.6913
X6.862Y-7.8409
X6.862Y-9.9906
X6.8996Y-2.5201
X6.8996Y-4.6697
X6.8996Y-6.8193
X6.8996Y-8.9689
X6.9315Y-4.0677
X6.9315Y-6.2173
X6.9315Y-8.3669
X6.9315Y-10.5165
X6.9323Y-2.3413
X6.9323Y-4.4909
X6.9323Y-6.6406
X6.9323Y-8.7902
X6.9831Y-3.2142
X6.9831Y-5.3638
X6.9831Y-7.5134
X6.9831Y-9.663
X6.9846Y-2.8201
X6.9846Y-3.0169
X6.9846Y-4.9697
X6.9846Y-5.1665
X6.9846Y-7.1193
X6.9846Y-7.3161
X6.9846Y-9.2689
X6.9846Y-9.4657
X6.9957Y-3.3161
X6.9957Y-5.4657
X6.9957Y-7.6154
X6.9957Y-9.765
X7.0059Y-3.1024
X7.0059Y-5.252
X7.0059Y-7.4016
X7.0059Y-9.5512
X7.0077Y-2.711
X7.0077Y-4.8606
X7.0077Y-7.0102
X7.0077Y-9.1598
X7.0079Y-2.8996
X7.0079Y-5.0492
X7.0079Y-7.1988
X7.0079Y-9.3484
X7.0087Y-3.585
X7.0087Y-5.7346
X7.0087Y-7.8843
X7.0087Y-10.0339
X7.0378Y-3.6535
X7.0378Y-5.8031
X7.0378Y-7.9528
X7.0378Y-10.1024
X7.0496Y-2.1406
X7.0496Y-4.2902
X7.0496Y-6.4398
X7.0496Y-8.5894
X7.0886Y-2.5807
X7.0886Y-4.7303
X7.0886Y-6.8799
X7.0886Y-9.0295
X7.1961Y-3.6331
X7.1961Y-5.7827
X7.1961Y-7.9323
X7.1961Y-10.0819
X7.2368Y-3.0303
X7.2368Y-5.1799
X7.2368Y-7.3295
X7.2368Y-9.4791
X7.238Y-2.687
X7.238Y-4.8366
X7.238Y-6.9862
X7.238Y-9.1358
X7.2585Y-2.8634
X7.2585Y-5.013
X7.2585Y-7.1626
X7.2585Y-9.3122
X7.2593Y-2.9795
X7.2593Y-5.1291
X7.2593Y-7.2787
X7.2593Y-9.4283
X7.2594Y-3.9874
X7.2594Y-6.137
X7.2594Y-8.2866
X7.2594Y-10.4362
X7.2705Y-3.774
X7.2705Y-5.9236
X7.2705Y-8.0732
X7.2705Y-10.2228
X7.2862Y-2.5799
X7.2862Y-4.7295
X7.2862Y-6.8791
X7.2862Y-9.0287
X7.2988Y-2.2114
X7.2988Y-4.361
X7.2988Y-6.5106
X7.2988Y-8.6602
X7.311Y-3.5157
X7.311Y-5.6654
X7.311Y-7.815
X7.311Y-9.9646
X7.3528Y-3.724
X7.3528Y-5.8736
X7.3528Y-8.0232
X7.3528Y-10.1728
X7.374Y-3.4303
X7.374Y-5.5799
X7.374Y-7.7295
X7.374Y-9.8791
X7.4124Y-2.9303
X7.4124Y-5.0799
X7.4124Y-7.2295
X7.4124Y-9.3791
X7.4128Y-2.9795
X7.4128Y-5.1291
X7.4128Y-7.2787
X7.4128Y-9.4283
X7.4132Y-3.0303
X7.4132Y-5.1799
X7.4132Y-7.3295
X7.4132Y-9.4791
X7.4136Y-3.0807
X7.4136Y-3.1303
X7.4136Y-5.2303
X7.4136Y-5.2799
X7.4136Y-7.3799
X7.4136Y-7.4295
X7.4136Y-9.5295
X7.4136Y-9.5791
X7.4144Y-3.1803
X7.4144Y-3.2299
X7.4144Y-5.3299
X7.4144Y-5.3795
X7.4144Y-7.4795
X7.4144Y-7.5291
X7.4144Y-9.6291
X7.4144Y-9.6787
X7.4148Y-3.2799
X7.4148Y-5.4295
X7.4148Y-7.5791
X7.4148Y-9.7287
X7.4675Y-2.7291
X7.4675Y-4.8787
X7.4675Y-7.0283
X7.4675Y-9.178
X7.4799Y-3.6106
X7.4799Y-5.7602
X7.4799Y-7.9098
X7.4799Y-10.0594
X7.5165Y-3.4303
X7.5165Y-5.5799
X7.5165Y-7.7295
X7.5165Y-9.8791
X7.526Y-3.6969
X7.526Y-5.8465
X7.526Y-7.9961
X7.526Y-10.1457
X7.5339Y-4.037
X7.5339Y-6.1866
X7.5339Y-8.3362
X7.5339Y-10.4858
X7.5711Y-2.9461
X7.5711Y-5.0957
X7.5711Y-7.2453
X7.5711Y-9.3949
X7.5738Y-3.0476
X7.5738Y-3.1264
X7.5738Y-3.2051
X7.5738Y-3.2839
X7.5738Y-3.3626
X7.5738Y-5.1972
X7.5738Y-5.276
X7.5738Y-5.3547
X7.5738Y-5.4335
X7.5738Y-5.5122
X7.5738Y-7.3469
X7.5738Y-7.4256
X7.5738Y-7.5043
X7.5738Y-7.5831
X7.5738Y-7.6618
X7.5738Y-9.4965
X7.5738Y-9.5752
X7.5738Y-9.6539
X7.5738Y-9.7327
X7.5738Y-9.8114
X7.6276Y-3.7709
X7.6276Y-5.9205
X7.6276Y-8.0701
X7.6276Y-10.2197
X7.6415Y-2.5996
X7.6415Y-4.7492
X7.6415Y-6.8988
X7.6415Y-9.0484
X7.6526Y-3.0476
X7.6526Y-3.1264
X7.6526Y-3.2051
X7.6526Y-3.2839
X7.6526Y-3.3626
X7.6526Y-5.1972
X7.6526Y-5.276
X7.6526Y-5.3547
X7.6526Y-5.4335
X7.6526Y-5.5122
X7.6526Y-7.3469
X7.6526Y-7.4256
X7.6526Y-7.5043
X7.6526Y-7.5831
X7.6526Y-7.6618
X7.6526Y-9.4965
X7.6526Y-9.5752
X7.6526Y-9.6539
X7.6526Y-9.7327
X7.6526Y-9.8114
X7.6675Y-2.7039
X7.6675Y-4.8535
X7.6675Y-7.0031
X7.6675Y-9.1528
X7.685Y-2.5327
X7.685Y-4.6823
X7.685Y-6.8319
X7.685Y-8.9815
X7.6969Y-3.6055
X7.6969Y-5.7551
X7.6969Y-7.9047
X7.6969Y-10.0543
X7.6976Y-3.6587
X7.6976Y-5.8083
X7.6976Y-7.9579
X7.6976Y-10.1075
X7.7075Y-4.0622
X7.7075Y-6.2118
X7.7075Y-8.3614
X7.7075Y-10.511
X7.7276Y-3.4547
X7.7276Y-5.6043
X7.7276Y-7.7539
X7.7276Y-9.9035
X7.7313Y-3.0476
X7.7313Y-3.1264
X7.7313Y-3.2051
X7.7313Y-3.2839
X7.7313Y-3.3626
X7.7313Y-5.1972
X7.7313Y-5.276
X7.7313Y-5.3547
X7.7313Y-5.4335
X7.7313Y-5.5122
X7.7313Y-7.3469
X7.7313Y-7.4256
X7.7313Y-7.5043
X7.7313Y-7.5831
X7.7313Y-7.6618
X7.7313Y-9.4965
X7.7313Y-9.5752
X7.7313Y-9.6539
X7.7313Y-9.7327
X7.7313Y-9.8114
X7.7423Y-2.8913
X7.7423Y-5.0409
X7.7423Y-7.1906
X7.7423Y-9.3402
X7.7762Y-2.7461
X7.7762Y-4.8957
X7.7762Y-7.0453
X7.7762Y-9.1949
X7.778Y-3.5638
X7.778Y-5.7134
X7.778Y-7.863
X7.778Y-10.0126
X7.7866Y-3.9512
X7.7866Y-6.1008
X7.7866Y-8.2504
X7.7866Y-10.4
X7.8039Y-3.6524
X7.8039Y-5.802
X7.8039Y-7.9516
X7.8039Y-10.1012
X7.8169Y-2.1976
X7.8169Y-4.3472
X7.8169Y-6.4969
X7.8169Y-8.6465
X7.8372Y-3.9067
X7.8372Y-6.0563
X7.8372Y-8.2059
X7.8372Y-10.3555
X7.85Y-3.6094
X7.85Y-5.7591
X7.85Y-7.9087
X7.85Y-10.0583
X7.8783Y-3.5646
X7.8783Y-5.7142
X7.8783Y-7.8638
X7.8783Y-10.0134
X7.8937Y-3.7957
X7.8937Y-5.9453
X7.8937Y-8.0949
X7.8937Y-10.2445
X7.8967Y-2.5587
X7.8967Y-4.7083
X7.8967Y-6.8579
X7.8967Y-9.0075
X7.897Y-2.7335
X7.897Y-4.8831
X7.897Y-7.0327
X7.897Y-9.1823
X7.9195Y-2.8909
X7.9195Y-5.0406
X7.9195Y-7.1902
X7.9195Y-9.3398
X7.9276Y-3.622
X7.9276Y-5.7717
X7.9276Y-7.9213
X7.9276Y-10.0709
X7.9283Y-3.6646
X7.9283Y-5.8142
X7.9283Y-7.9638
X7.9283Y-10.1134
X7.9354Y-3.9299
X7.9354Y-6.0795
X7.9354Y-8.2291
X7.9354Y-10.3787
X7.9364Y-2.5189
X7.9364Y-2.7154
X7.9364Y-4.6685
X7.9364Y-4.865
X7.9364Y-6.8181
X7.9364Y-7.0146
X7.9364Y-8.9677
X7.9364Y-9.1642
X7.9959Y-2.8909
X7.9959Y-5.0406
X7.9959Y-7.1902
X7.9959Y-9.3398
X8.0173Y-3.6646
X8.0173Y-5.8142
X8.0173Y-7.9638
X8.0173Y-10.1134
X8.0209Y-3.824
X8.0209Y-5.9736
X8.0209Y-8.1232
X8.0209Y-10.2728
X8.0661Y-2.315
X8.0661Y-4.4646
X8.0661Y-6.6142
X8.0661Y-8.7638
X8.074Y-2.6484
X8.074Y-4.798
X8.074Y-6.9476
X8.074Y-9.0972
X8.0785Y-3.5654
X8.0785Y-5.715
X8.0785Y-7.8646
X8.0785Y-10.0142
X8.1Y-3.7913
X8.1Y-5.9409
X8.1Y-8.0906
X8.1Y-10.2402
X8.1016Y-3.6972
X8.1016Y-5.8469
X8.1016Y-7.9965
X8.1016Y-10.1461
X8.1102Y-2.5996
X8.1102Y-4.7492
X8.1102Y-6.8988
X8.1102Y-9.0484
X8.1276Y-3.4476
X8.1276Y-5.5972
X8.1276Y-7.7469
X8.1276Y-9.8965
X8.1386Y-3.735
X8.1386Y-5.8846
X8.1386Y-8.0343
X8.1386Y-10.1839
X8.1462Y-2.7397
X8.1462Y-4.8894
X8.1462Y-7.039
X8.1462Y-9.1886
X8.151Y-2.8831
X8.151Y-5.0327
X8.151Y-7.1823
X8.151Y-9.3319
X8.1518Y-2.9815
X8.1518Y-5.1311
X8.1518Y-7.2807
X8.1518Y-9.4303
X8.1738Y-3.6634
X8.1738Y-5.813
X8.1738Y-7.9626
X8.1738Y-10.1122
X8.2028Y-3.7608
X8.2028Y-5.9104
X8.2028Y-8.06
X8.2028Y-10.2096
X8.301Y-3.7874
X8.301Y-5.937
X8.301Y-8.0866
X8.301Y-10.2362
X8.4384Y-3.8362
X8.4384Y-5.9858
X8.4384Y-8.1354
X8.4384Y-10.285
X8.4419Y-3.6398
X8.4419Y-5.7894
X8.4419Y-7.939
X8.4419Y-10.0886
X8.5965Y-2.872
X8.5965Y-3.3543
X8.5965Y-3.4094
X8.5965Y-5.0217
X8.5965Y-5.5039
X8.5965Y-5.5591
X8.5965Y-7.1713
X8.5965Y-7.6535
X8.5965Y-7.7087
X8.5965Y-9.3209
X8.5965Y-9.8031
X8.5965Y-9.8583
X8.6004Y-2.3413
X8.6004Y-4.4909
X8.6004Y-6.6406
X8.6004Y-8.7902
X8.6969Y-2.7598
X8.6969Y-4.9094
X8.6969Y-7.0591
X8.6969Y-9.2087
X8.7224Y-2.0587
X8.7224Y-4.2083
X8.7224Y-6.3579
X8.7224Y-8.5075
X8.7421Y-3.4587
X8.7421Y-5.6083
X8.7421Y-7.7579
X8.7421Y-9.9075
X8.7559Y-3.2106
X8.7559Y-3.2618
X8.7559Y-5.3602
X8.7559Y-5.4114
X8.7559Y-7.5098
X8.7559Y-7.561
X8.7559Y-9.6594
X8.7559Y-9.7106
X8.7598Y-3.3091
X8.7598Y-5.4587
X8.7598Y-7.6083
X8.7598Y-9.7579
X8.7657Y-3.5157
X8.7657Y-5.6654
X8.7657Y-7.815
X8.7657Y-9.9646
X8.7697Y-3.124
X8.7697Y-5.2736
X8.7697Y-7.4232
X8.7697Y-9.5728
X8.7815Y-2.7657
X8.7815Y-4.9154
X8.7815Y-7.065
X8.7815Y-9.2146
X8.8244Y-2.0598
X8.8244Y-4.2094
X8.8244Y-6.3591
X8.8244Y-8.5087
X8.8701Y-3.3563
X8.8701Y-5.5059
X8.8701Y-7.6555
X8.8701Y-9.8051
X8.9724Y-3.5256
X8.9724Y-5.6752
X8.9724Y-7.8248
X8.9724Y-9.9744
X8.9843Y-3.2874
X8.9843Y-5.437
X8.9843Y-7.5866
X8.9843Y-9.7362
X9.0413Y-3.1201
X9.0413Y-5.2697
X9.0413Y-7.4193
X9.0413Y-9.5689
X9.0748Y-2.75
X9.0748Y-4.8996
X9.0748Y-7.0492
X9.0748Y-9.1988
X9.0768Y-2.9331
X9.0768Y-5.0827
X9.0768Y-7.2323
X9.0768Y-9.3819
X9.1087Y-2.2571
X9.1087Y-4.4067
X9.1087Y-6.5563
X9.1087Y-8.7059
X9.1102Y-3.3705
X9.1102Y-5.5201
X9.1102Y-7.6697
X9.1102Y-9.8193
X9.1488Y-2.0697
X9.1488Y-4.2193
X9.1488Y-6.3689
X9.1488Y-8.5185
X9.1535Y-3.1752
X9.1535Y-5.3248
X9.1535Y-7.4744
X9.1535Y-9.624
X9.1799Y-3.4949
X9.1799Y-5.6445
X9.1799Y-7.7941
X9.1799Y-9.9437
X9.187Y-2.811
X9.187Y-3.1988
X9.187Y-4.9606
X9.187Y-5.3484
X9.187Y-7.1102
X9.187Y-7.498
X9.187Y-9.2598
X9.187Y-9.6476
X9.1988Y-3.0098
X9.1988Y-5.1594
X9.1988Y-7.3091
X9.1988Y-9.4587
X9.2242Y-3.5417
X9.2242Y-5.6913
X9.2242Y-7.8409
X9.2242Y-9.9906
X9.2618Y-2.5201
X9.2618Y-4.6697
X9.2618Y-6.8193
X9.2618Y-8.9689
X9.2937Y-4.0677
X9.2937Y-6.2173
X9.2937Y-8.3669
X9.2937Y-10.5165
X9.2945Y-2.3413
X9.2945Y-4.4909
X9.2945Y-6.6406
X9.2945Y-8.7902
X9.3453Y-3.2142
X9.3453Y-5.3638
X9.3453Y-7.5134
X9.3453Y-9.663
X9.3469Y-2.8201
X9.3469Y-3.0169
X9.3469Y-4.9697
X9.3469Y-5.1665
X9.3469Y-7.1193
X9.3469Y-7.3161
X9.3469Y-9.2689
X9.3469Y-9.4657
X9.3579Y-3.3161
X9.3579Y-5.4657
X9.3579Y-7.6154
X9.3579Y-9.765
X9.3681Y-3.1024
X9.3681Y-5.252
X9.3681Y-7.4016
X9.3681Y-9.5512
X9.3699Y-2.711
X9.3699Y-4.8606
X9.3699Y-7.0102
X9.3699Y-9.1598
X9.3701Y-2.8996
X9.3701Y-5.0492
X9.3701Y-7.1988
X9.3701Y-9.3484
X9.3709Y-3.585
X9.3709Y-5.7346
X9.3709Y-7.8843
X9.3709Y-10.0339
X9.4Y-3.6535
X9.4Y-5.8031
X9.4Y-7.9528
X9.4Y-10.1024
X9.4118Y-2.1406
X9.4118Y-4.2902
X9.4118Y-6.4398
X9.4118Y-8.5894
X9.4508Y-2.5807
X9.4508Y-4.7303
X9.4508Y-6.8799
X9.4508Y-9.0295
X9.5583Y-3.6331
X9.5583Y-5.7827
X9.5583Y-7.9323
X9.5583Y-10.0819
X9.599Y-3.0303
X9.599Y-5.1799
X9.599Y-7.3295
X9.599Y-9.4791
X9.6002Y-2.687
X9.6002Y-4.8366
X9.6002Y-6.9862
X9.6002Y-9.1358
X9.6207Y-2.8634
X9.6207Y-5.013
X9.6207Y-7.1626
X9.6207Y-9.3122
X9.6215Y-2.9795
X9.6215Y-5.1291
X9.6215Y-7.2787
X9.6215Y-9.4283
X9.6217Y-3.9874
X9.6217Y-6.137
X9.6217Y-8.2866
X9.6217Y-10.4362
X9.6327Y-3.774
X9.6327Y-5.9236
X9.6327Y-8.0732
X9.6327Y-10.2228
X9.6484Y-2.5799
X9.6484Y-4.7295
X9.6484Y-6.8791
X9.6484Y-9.0287
X9.661Y-2.2114
X9.661Y-4.361
X9.661Y-6.5106
X9.661Y-8.6602
X9.6732Y-3.5157
X9.6732Y-5.6654
X9.6732Y-7.815
X9.6732Y-9.9646
X9.715Y-3.724
X9.715Y-5.8736
X9.715Y-8.0232
X9.715Y-10.1728
X9.7362Y-3.4303
X9.7362Y-5.5799
X9.7362Y-7.7295
X9.7362Y-9.8791
X9.7746Y-2.9303
X9.7746Y-5.0799
X9.7746Y-7.2295
X9.7746Y-9.3791
X9.775Y-2.9795
X9.775Y-5.1291
X9.775Y-7.2787
X9.775Y-9.4283
X9.7754Y-3.0303
X9.7754Y-5.1799
X9.7754Y-7.3295
X9.7754Y-9.4791
X9.7758Y-3.0807
X9.7758Y-3.1303
X9.7758Y-5.2303
X9.7758Y-5.2799
X9.7758Y-7.3799
X9.7758Y-7.4295
X9.7758Y-9.5295
X9.7758Y-9.5791
X9.7766Y-3.1803
X9.7766Y-3.2299
X9.7766Y-5.3299
X9.7766Y-5.3795
X9.7766Y-7.4795
X9.7766Y-7.5291
X9.7766Y-9.6291
X9.7766Y-9.6787
X9.777Y-3.2799
X9.777Y-5.4295
X9.777Y-7.5791
X9.777Y-9.7287
X9.8297Y-2.7291
X9.8297Y-4.8787
X9.8297Y-7.0283
X9.8297Y-9.178
X9.8421Y-3.6106
X9.8421Y-5.7602
X9.8421Y-7.9098
X9.8421Y-10.0594
X9.8787Y-3.4303
X9.8787Y-5.5799
X9.8787Y-7.7295
X9.8787Y-9.8791
X9.8882Y-3.6969
X9.8882Y-5.8465
X9.8882Y-7.9961
X9.8882Y-10.1457
X9.8961Y-4.037
X9.8961Y-6.1866
X9.8961Y-8.3362
X9.8961Y-10.4858
X9.9333Y-2.9461
X9.9333Y-5.0957
X9.9333Y-7.2453
X9.9333Y-9.3949
X9.936Y-3.0476
X9.936Y-3.1264
X9.936Y-3.2051
X9.936Y-3.2839
X9.936Y-3.3626
X9.936Y-5.1972
X9.936Y-5.276
X9.936Y-5.3547
X9.936Y-5.4335
X9.936Y-5.5122
X9.936Y-7.3469
X9.936Y-7.4256
X9.936Y-7.5043
X9.936Y-7.5831
X9.936Y-7.6618
X9.936Y-9.4965
X9.936Y-9.5752
X9.936Y-9.6539
X9.936Y-9.7327
X9.936Y-9.8114
X9.9898Y-3.7709
X9.9898Y-5.9205
X9.9898Y-8.0701
X9.9898Y-10.2197
X10.0037Y-2.5996
X10.0037Y-4.7492
X10.0037Y-6.8988
X10.0037Y-9.0484
X10.0148Y-3.0476
X10.0148Y-3.1264
X10.0148Y-3.2051
X10.0148Y-3.2839
X10.0148Y-3.3626
X10.0148Y-5.1972
X10.0148Y-5.276
X10.0148Y-5.3547
X10.0148Y-5.4335
X10.0148Y-5.5122
X10.0148Y-7.3469
X10.0148Y-7.4256
X10.0148Y-7.5043
X10.0148Y-7.5831
X10.0148Y-7.6618
X10.0148Y-9.4965
X10.0148Y-9.5752
X10.0148Y-9.6539
X10.0148Y-9.7327
X10.0148Y-9.8114
X10.0297Y-2.7039
X10.0297Y-4.8535
X10.0297Y-7.0031
X10.0297Y-9.1528
X10.0472Y-2.5327
X10.0472Y-4.6823
X10.0472Y-6.8319
X10.0472Y-8.9815
X10.0591Y-3.6055
X10.0591Y-5.7551
X10.0591Y-7.9047
X10.0591Y-10.0543
X10.0598Y-3.6587
X10.0598Y-5.8083
X10.0598Y-7.9579
X10.0598Y-10.1075
X10.0697Y-4.0622
X10.0697Y-6.2118
X10.0697Y-8.3614
X10.0697Y-10.511
X10.0898Y-3.4547
X10.0898Y-5.6043
X10.0898Y-7.7539
X10.0898Y-9.9035
X10.0935Y-3.0476
X10.0935Y-3.1264
X10.0935Y-3.2051
X10.0935Y-3.2839
X10.0935Y-3.3626
X10.0935Y-5.1972
X10.0935Y-5.276
X10.0935Y-5.3547
X10.0935Y-5.4335
X10.0935Y-5.5122
X10.0935Y-7.3469
X10.0935Y-7.4256
X10.0935Y-7.5043
X10.0935Y-7.5831
X10.0935Y-7.6618
X10.0935Y-9.4965
X10.0935Y-9.5752
X10.0935Y-9.6539
X10.0935Y-9.7327
X10.0935Y-9.8114
X10.1045Y-2.8913
X10.1045Y-5.0409
X10.1045Y-7.1906
X10.1045Y-9.3402
X10.1384Y-2.7461
X10.1384Y-4.8957
X10.1384Y-7.0453
X10.1384Y-9.1949
X10.1402Y-3.5638
X10.1402Y-5.7134
X10.1402Y-7.863
X10.1402Y-10.0126
X10.1488Y-3.9512
X10.1488Y-6.1008
X10.1488Y-8.2504
X10.1488Y-10.4
X10.1661Y-3.6524
X10.1661Y-5.802
X10.1661Y-7.9516
X10.1661Y-10.1012
X10.1791Y-2.1976
X10.1791Y-4.3472
X10.1791Y-6.4969
X10.1791Y-8.6465
X10.1994Y-3.9067
X10.1994Y-6.0563
X10.1994Y-8.2059
X10.1994Y-10.3555
X10.2122Y-3.6094
X10.2122Y-5.7591
X10.2122Y-7.9087
X10.2122Y-10.0583
X10.2406Y-3.5646
X10.2406Y-5.7142
X10.2406Y-7.8638
X10.2406Y-10.0134
X10.2559Y-3.7957
X10.2559Y-5.9453
X10.2559Y-8.0949
X10.2559Y-10.2445
X10.2589Y-2.5587
X10.2589Y-4.7083
X10.2589Y-6.8579
X10.2589Y-9.0075
X10.2593Y-2.7335
X10.2593Y-4.8831
X10.2593Y-7.0327
X10.2593Y-9.1823
X10.2817Y-2.8909
X10.2817Y-5.0406
X10.2817Y-7.1902
X10.2817Y-9.3398
X10.2898Y-3.622
X10.2898Y-5.7717
X10.2898Y-7.9213
X10.2898Y-10.0709
X10.2906Y-3.6646
X10.2906Y-5.8142
X10.2906Y-7.9638
X10.2906Y-10.1134
X10.2976Y-3.9299
X10.2976Y-6.0795
X10.2976Y-8.2291
X10.2976Y-10.3787
X10.2986Y-2.5189
X10.2986Y-2.7154
X10.2986Y-4.6685
X10.2986Y-4.865
X10.2986Y-6.8181
X10.2986Y-7.0146
X10.2986Y-8.9677
X10.2986Y-9.1642
X10.3581Y-2.8909
X10.3581Y-5.0406
X10.3581Y-7.1902
X10.3581Y-9.3398
X10.3795Y-3.6646
X10.3795Y-5.8142
X10.3795Y-7.9638
X10.3795Y-10.1134
X10.3831Y-3.824
X10.3831Y-5.9736
X10.3831Y-8.1232
X10.3831Y-10.2728
X10.4283Y-2.315
X10.4283Y-4.4646
X10.4283Y-6.6142
X10.4283Y-8.7638
X10.4362Y-2.6484
X10.4362Y-4.798
X10.4362Y-6.9476
X10.4362Y-9.0972
X10.4407Y-3.5654
X10.4407Y-5.715
X10.4407Y-7.8646
X10.4407Y-10.0142
X10.4622Y-3.7913
X10.4622Y-5.9409
X10.4622Y-8.0906
X10.4622Y-10.2402
X10.4638Y-3.6972
X10.4638Y-5.8469
X10.4638Y-7.9965
X10.4638Y-10.1461
X10.4724Y-2.5996
X10.4724Y-4.7492
X10.4724Y-6.8988
X10.4724Y-9.0484
X10.4898Y-3.4476
X10.4898Y-5.5972
X10.4898Y-7.7469
X10.4898Y-9.8965
X10.5008Y-3.735
X10.5008Y-5.8846
X10.5008Y-8.0343
X10.5008Y-10.1839
X10.5084Y-2.7397
X10.5084Y-4.8894
X10.5084Y-7.039
X10.5084Y-9.1886
X10.5132Y-2.8831
X10.5132Y-5.0327
X10.5132Y-7.1823
X10.5132Y-9.3319
X10.514Y-2.9815
X10.514Y-5.1311
X10.514Y-7.2807
X10.514Y-9.4303
X10.536Y-3.6634
X10.536Y-5.813
X10.536Y-7.9626
X10.536Y-10.1122
X10.565Y-3.7608
X10.565Y-5.9104
X10.565Y-8.06
X10.565Y-10.2096
X10.6632Y-3.7874
X10.6632Y-5.937
X10.6632Y-8.0866
X10.6632Y-10.2362
X10.8006Y-3.8362
X10.8006Y-5.9858
X10.8006Y-8.1354
X10.8006Y-10.285
X10.8041Y-3.6398
X10.8041Y-5.7894
X10.8041Y-7.939
X10.8041Y-10.0886
X10.9587Y-2.872
X10.9587Y-3.3543
X10.9587Y-3.4094
X10.9587Y-5.0217
X10.9587Y-5.5039
X10.9587Y-5.5591
X10.9587Y-7.1713
X10.9587Y-7.6535
X10.9587Y-7.7087
X10.9587Y-9.3209
X10.9587Y-9.8031
X10.9587Y-9.8583
X10.9626Y-2.3413
X10.9626Y-4.4909
X10.9626Y-6.6406
X10.9626Y-8.7902
X11.0591Y-2.7598
X11.0591Y-4.9094
X11.0591Y-7.0591
X11.0591Y-9.2087
X11.0846Y-2.0587
X11.0846Y-4.2083
X11.0846Y-6.3579
X11.0846Y-8.5075
X11.1043Y-3.4587
X11.1043Y-5.6083
X11.1043Y-7.7579
X11.1043Y-9.9075
X11.1181Y-3.2106
X11.1181Y-3.2618
X11.1181Y-5.3602
X11.1181Y-5.4114
X11.1181Y-7.5098
X11.1181Y-7.561
X11.1181Y-9.6594
X11.1181Y-9.7106
X11.122Y-3.3091
X11.122Y-5.4587
X11.122Y-7.6083
X11.122Y-9.7579
X11.128Y-3.5157
X11.128Y-5.6654
X11.128Y-7.815
X11.128Y-9.9646
X11.1319Y-3.124
X11.1319Y-5.2736
X11.1319Y-7.4232
X11.1319Y-9.5728
X11.1437Y-2.7657
X11.1437Y-4.9154
X11.1437Y-7.065
X11.1437Y-9.2146
X11.1866Y-2.0598
X11.1866Y-4.2094
X11.1866Y-6.3591
X11.1866Y-8.5087
X11.2323Y-3.3563
X11.2323Y-5.5059
X11.2323Y-7.6555
X11.2323Y-9.8051
X11.3346Y-3.5256
X11.3346Y-5.6752
X11.3346Y-7.8248
X11.3346Y-9.9744
X11.3465Y-3.2874
X11.3465Y-5.437
X11.3465Y-7.5866
X11.3465Y-9.7362
X11.4035Y-3.1201
X11.4035Y-5.2697
X11.4035Y-7.4193
X11.4035Y-9.5689
X11.437Y-2.75
X11.437Y-4.8996
X11.437Y-7.0492
X11.437Y-9.1988
X11.439Y-2.9331
X11.439Y-5.0827
X11.439Y-7.2323
X11.439Y-9.3819
X11.4709Y-2.2571
X11.4709Y-4.4067
X11.4709Y-6.5563
X11.4709Y-8.7059
X11.4724Y-3.3705
X11.4724Y-5.5201
X11.4724Y-7.6697
X11.4724Y-9.8193
X11.511Y-2.0697
X11.511Y-4.2193
X11.511Y-6.3689
X11.511Y-8.5185
X11.5157Y-3.1752
X11.5157Y-5.3248
X11.5157Y-7.4744
X11.5157Y-9.624
X11.5421Y-3.4949
X11.5421Y-5.6445
X11.5421Y-7.7941
X11.5421Y-9.9437
X11.5492Y-2.811
X11.5492Y-3.1988
X11.5492Y-4.9606
X11.5492Y-5.3484
X11.5492Y-7.1102
X11.5492Y-7.498
X11.5492Y-9.2598
X11.5492Y-9.6476
X11.561Y-3.0098
X11.561Y-5.1594
X11.561Y-7.3091
X11.561Y-9.4587
X11.5864Y-3.5417
X11.5864Y-5.6913
X11.5864Y-7.8409
X11.5864Y-9.9906
X11.624Y-2.5201
X11.624Y-4.6697
X11.624Y-6.8193
X11.624Y-8.9689
X11.6559Y-4.0677
X11.6559Y-6.2173
X11.6559Y-8.3669
X11.6559Y-10.5165
X11.6567Y-2.3413
X11.6567Y-4.4909
X11.6567Y-6.6406
X11.6567Y-8.7902
X11.7075Y-3.2142
X11.7075Y-5.3638
X11.7075Y-7.5134
X11.7075Y-9.663
X11.7091Y-2.8201
X11.7091Y-3.0169
X11.7091Y-4.9697
X11.7091Y-5.1665
X11.7091Y-7.1193
X11.7091Y-7.3161
X11.7091Y-9.2689
X11.7091Y-9.4657
X11.7201Y-3.3161
X11.7201Y-5.4657
X11.7201Y-7.6154
X11.7201Y-9.765
X11.7303Y-3.1024
X11.7303Y-5.252
X11.7303Y-7.4016
X11.7303Y-9.5512
X11.7321Y-2.711
X11.7321Y-4.8606
X11.7321Y-7.0102
X11.7321Y-9.1598
X11.7323Y-2.8996
X11.7323Y-5.0492
X11.7323Y-7.1988
X11.7323Y-9.3484
X11.7331Y-3.585
X11.7331Y-5.7346
X11.7331Y-7.8843
X11.7331Y-10.0339
X11.7622Y-3.6535
X11.7622Y-5.8031
X11.7622Y-7.9528
X11.7622Y-10.1024
X11.774Y-2.1406
X11.774Y-4.2902
X11.774Y-6.4398
X11.774Y-8.5894
X11.813Y-2.5807
X11.813Y-4.7303
X11.813Y-6.8799
X11.813Y-9.0295
X11.9205Y-3.6331
X11.9205Y-5.7827
X11.9205Y-7.9323
X11.9205Y-10.0819
X11.9612Y-3.0303
X11.9612Y-5.1799
X11.9612Y-7.3295
X11.9612Y-9.4791
X11.9624Y-2.687
X11.9624Y-4.8366
X11.9624Y-6.9862
X11.9624Y-9.1358
X11.9829Y-2.8634
X11.9829Y-5.013
X11.9829Y-7.1626
X11.9829Y-9.3122
X11.9837Y-2.9795
X11.9837Y-5.1291
X11.9837Y-7.2787
X11.9837Y-9.4283
X11.9839Y-3.9874
X11.9839Y-6.137
X11.9839Y-8.2866
X11.9839Y-10.4362
X11.9949Y-3.774
X11.9949Y-5.9236
X11.9949Y-8.0732
X11.9949Y-10.2228
X12.0106Y-2.5799
X12.0106Y-4.7295
X12.0106Y-6.8791
X12.0106Y-9.0287
X12.0232Y-2.2114
X12.0232Y-4.361
X12.0232Y-6.5106
X12.0232Y-8.6602
X12.0354Y-3.5157
X12.0354Y-5.6654
X12.0354Y-7.815
X12.0354Y-9.9646
X12.0772Y-3.724
X12.0772Y-5.8736
X12.0772Y-8.0232
X12.0772Y-10.1728
X12.0984Y-3.4303
X12.0984Y-5.5799
X12.0984Y-7.7295
X12.0984Y-9.8791
X12.1368Y-2.9303
X12.1368Y-5.0799
X12.1368Y-7.2295
X12.1368Y-9.3791
X12.1372Y-2.9795
X12.1372Y-5.1291
X12.1372Y-7.2787
X12.1372Y-9.4283
X12.1376Y-3.0303
X12.1376Y-5.1799
X12.1376Y-7.3295
X12.1376Y-9.4791
X12.138Y-3.0807
X12.138Y-3.1303
X12.138Y-5.2303
X12.138Y-5.2799
X12.138Y-7.3799
X12.138Y-7.4295
X12.138Y-9.5295
X12.138Y-9.5791
X12.1388Y-3.1803
X12.1388Y-3.2299
X12.1388Y-5.3299
X12.1388Y-5.3795
X12.1388Y-7.4795
X12.1388Y-7.5291
X12.1388Y-9.6291
X12.1388Y-9.6787
X12.1392Y-3.2799
X12.1392Y-5.4295
X12.1392Y-7.5791
X12.1392Y-9.7287
X12.1919Y-2.7291
X12.1919Y-4.8787
X12.1919Y-7.0283
X12.1919Y-9.178
X12.2043Y-3.6106
X12.2043Y-5.7602
X12.2043Y-7.9098
X12.2043Y-10.0594
X12.2409Y-3.4303
X12.2409Y-5.5799
X12.2409Y-7.7295
X12.2409Y-9.8791
X12.2504Y-3.6969
X12.2504Y-5.8465
X12.2504Y-7.9961
X12.2504Y-10.1457
X12.2583Y-4.037
X12.2583Y-6.1866
X12.2583Y-8.3362
X12.2583Y-10.4858
X12.2955Y-2.9461
X12.2955Y-5.0957
X12.2955Y-7.2453
X12.2955Y-9.3949
X12.2982Y-3.0476
X12.2982Y-3.1264
X12.2982Y-3.2051
X12.2982Y-3.2839
X12.2982Y-3.3626
X12.2982Y-5.1972
X12.2982Y-5.276
X12.2982Y-5.3547
X12.2982Y-5.4335
X12.2982Y-5.5122
X12.2982Y-7.3469
X12.2982Y-7.4256
X12.2982Y-7.5043
X12.2982Y-7.5831
X12.2982Y-7.6618
X12.2982Y-9.4965
X12.2982Y-9.5752
X12.2982Y-9.6539
X12.2982Y-9.7327
X12.2982Y-9.8114
X12.352Y-3.7709
X12.352Y-5.9205
X12.352Y-8.0701
X12.352Y-10.2197
X12.3659Y-2.5996
X12.3659Y-4.7492
X12.3659Y-6.8988
X12.3659Y-9.0484
X12.377Y-3.0476
X12.377Y-3.1264
X12.377Y-3.2051
X12.377Y-3.2839
X12.377Y-3.3626
X12.377Y-5.1972
X12.377Y-5.276
X12.377Y-5.3547
X12.377Y-5.4335
X12.377Y-5.5122
X12.377Y-7.3469
X12.377Y-7.4256
X12.377Y-7.5043
X12.377Y-7.5831
X12.377Y-7.6618
X12.377Y-9.4965
X12.377Y-9.5752
X12.377Y-9.6539
X12.377Y-9.7327
X12.377Y-9.8114
X12.3919Y-2.7039
X12.3919Y-4.8535
X12.3919Y-7.0031
X12.3919Y-9.1528
X12.4094Y-2.5327
X12.4094Y-4.6823
X12.4094Y-6.8319
X12.4094Y-8.9815
X12.4213Y-3.6055
X12.4213Y-5.7551
X12.4213Y-7.9047
X12.4213Y-10.0543
X12.422Y-3.6587
X12.422Y-5.8083
X12.422Y-7.9579
X12.422Y-10.1075
X12.4319Y-4.0622
X12.4319Y-6.2118
X12.4319Y-8.3614
X12.4319Y-10.511
X12.452Y-3.4547
X12.452Y-5.6043
X12.452Y-7.7539
X12.452Y-9.9035
X12.4557Y-3.0476
X12.4557Y-3.1264
X12.4557Y-3.2051
X12.4557Y-3.2839
X12.4557Y-3.3626
X12.4557Y-5.1972
X12.4557Y-5.276
X12.4557Y-5.3547
X12.4557Y-5.4335
X12.4557Y-5.5122
X12.4557Y-7.3469
X12.4557Y-7.4256
X12.4557Y-7.5043
X12.4557Y-7.5831
X12.4557Y-7.6618
X12.4557Y-9.4965
X12.4557Y-9.5752
X12.4557Y-9.6539
X12.4557Y-9.7327
X12.4557Y-9.8114
X12.4667Y-2.8913
X12.4667Y-5.0409
X12.4667Y-7.1906
X12.4667Y-9.3402
X12.5006Y-2.7461
X12.5006Y-4.8957
X12.5006Y-7.0453
X12.5006Y-9.1949
X12.5024Y-3.5638
X12.5024Y-5.7134
X12.5024Y-7.863
X12.5024Y-10.0126
X12.511Y-3.9512
X12.511Y-6.1008
X12.511Y-8.2504
X12.511Y-10.4
X12.5283Y-3.6524
X12.5283Y-5.802
X12.5283Y-7.9516
X12.5283Y-10.1012
X12.5413Y-2.1976
X12.5413Y-4.3472
X12.5413Y-6.4969
X12.5413Y-8.6465
X12.5617Y-3.9067
X12.5617Y-6.0563
X12.5617Y-8.2059
X12.5617Y-10.3555
X12.5744Y-3.6094
X12.5744Y-5.7591
X12.5744Y-7.9087
X12.5744Y-10.0583
X12.6028Y-3.5646
X12.6028Y-5.7142
X12.6028Y-7.8638
X12.6028Y-10.0134
X12.6181Y-3.7957
X12.6181Y-5.9453
X12.6181Y-8.0949
X12.6181Y-10.2445
X12.6211Y-2.5587
X12.6211Y-4.7083
X12.6211Y-6.8579
X12.6211Y-9.0075
X12.6215Y-2.7335
X12.6215Y-4.8831
X12.6215Y-7.0327
X12.6215Y-9.1823
X12.6439Y-2.8909
X12.6439Y-5.0406
X12.6439Y-7.1902
X12.6439Y-9.3398
X12.652Y-3.622
X12.652Y-5.7717
X12.652Y-7.9213
X12.652Y-10.0709
X12.6528Y-3.6646
X12.6528Y-5.8142
X12.6528Y-7.9638
X12.6528Y-10.1134
X12.6598Y-3.9299
X12.6598Y-6.0795
X12.6598Y-8.2291
X12.6598Y-10.3787
X12.6608Y-2.5189
X12.6608Y-2.7154
X12.6608Y-4.6685
X12.6608Y-4.865
X12.6608Y-6.8181
X12.6608Y-7.0146
X12.6608Y-8.9677
X12.6608Y-9.1642
X12.7203Y-2.8909
X12.7203Y-5.0406
X12.7203Y-7.1902
X12.7203Y-9.3398
X12.7417Y-3.6646
X12.7417Y-5.8142
X12.7417Y-7.9638
X12.7417Y-10.1134
X12.7453Y-3.824
X12.7453Y-5.9736
X12.7453Y-8.1232
X12.7453Y-10.2728
X12.7906Y-2.315
X12.7906Y-4.4646
X12.7906Y-6.6142
X12.7906Y-8.7638
X12.7984Y-2.6484
X12.7984Y-4.798
X12.7984Y-6.9476
X12.7984Y-9.0972
X12.803Y-3.5654
X12.803Y-5.715
X12.803Y-7.8646
X12.803Y-10.0142
X12.8244Y-3.7913
X12.8244Y-5.9409
X12.8244Y-8.0906
X12.8244Y-10.2402
X12.826Y-3.6972
X12.826Y-5.8469
X12.826Y-7.9965
X12.826Y-10.1461
X12.8346Y-2.5996
X12.8346Y-4.7492
X12.8346Y-6.8988
X12.8346Y-9.0484
X12.852Y-3.4476
X12.852Y-5.5972
X12.852Y-7.7469
X12.852Y-9.8965
X12.863Y-3.735
X12.863Y-5.8846
X12.863Y-8.0343
X12.863Y-10.1839
X12.8707Y-2.7397
X12.8707Y-4.8894
X12.8707Y-7.039
X12.8707Y-9.1886
X12.8754Y-2.8831
X12.8754Y-5.0327
X12.8754Y-7.1823
X12.8754Y-9.3319
X12.8762Y-2.9815
X12.8762Y-5.1311
X12.8762Y-7.2807
X12.8762Y-9.4303
X12.8982Y-3.6634
X12.8982Y-5.813
X12.8982Y-7.9626
X12.8982Y-10.1122
X12.9272Y-3.7608
X12.9272Y-5.9104
X12.9272Y-8.06
X12.9272Y-10.2096
X13.0254Y-3.7874
X13.0254Y-5.937
X13.0254Y-8.0866
X13.0254Y-10.2362
X13.1628Y-3.8362
X13.1628Y-5.9858
X13.1628Y-8.1354
X13.1628Y-10.285
X13.1663Y-3.6398
X13.1663Y-5.7894
X13.1663Y-7.939
X13.1663Y-10.0886
T2
X1.9879Y-3.6227
X1.9879Y-3.8613
X1.9879Y-5.7723
X1.9879Y-6.0109
X1.9879Y-7.9219
X1.9879Y-8.1605
X1.9879Y-10.0716
X1.9879Y-10.3101
X2.1879Y-3.6227
X2.1879Y-3.8613
X2.1879Y-5.7723
X2.1879Y-6.0109
X2.1879Y-7.9219
X2.1879Y-8.1605
X2.1879Y-10.0716
X2.1879Y-10.3101
X2.3879Y-3.6227
X2.3879Y-3.8613
X2.3879Y-5.7723
X2.3879Y-6.0109
X2.3879Y-7.9219
X2.3879Y-8.1605
X2.3879Y-10.0716
X2.3879Y-10.3101
X2.5879Y-3.6227
X2.5879Y-3.8613
X2.5879Y-5.7723
X2.5879Y-6.0109
X2.5879Y-7.9219
X2.5879Y-8.1605
X2.5879Y-10.0716
X2.5879Y-10.3101
X2.7972Y-3.861
X2.7972Y-6.0106
X2.7972Y-8.1602
X2.7972Y-10.3098
X2.9972Y-3.861
X2.9972Y-6.0106
X2.9972Y-8.1602
X2.9972Y-10.3098
X3.1972Y-3.861
X3.1972Y-6.0106
X3.1972Y-8.1602
X3.1972Y-10.3098
X3.3972Y-3.861
X3.3972Y-6.0106
X3.3972Y-8.1602
X3.3972Y-10.3098
X4.3501Y-3.6227
X4.3501Y-3.8613
X4.3501Y-5.7723
X4.3501Y-6.0109
X4.3501Y-7.9219
X4.3501Y-8.1605
X4.3501Y-10.0716
X4.3501Y-10.3101
X4.5501Y-3.6227
X4.5501Y-3.8613
X4.5501Y-5.7723
X4.5501Y-6.0109
X4.5501Y-7.9219
X4.5501Y-8.1605
X4.5501Y-10.0716
X4.5501Y-10.3101
X4.7501Y-3.6227
X4.7501Y-3.8613
X4.7501Y-5.7723
X4.7501Y-6.0109
X4.7501Y-7.9219
X4.7501Y-8.1605
X4.7501Y-10.0716
X4.7501Y-10.3101
X4.9501Y-3.6227
X4.9501Y-3.8613
X4.9501Y-5.7723
X4.9501Y-6.0109
X4.9501Y-7.9219
X4.9501Y-8.1605
X4.9501Y-10.0716
X4.9501Y-10.3101
X5.1594Y-3.861
X5.1594Y-6.0106
X5.1594Y-8.1602
X5.1594Y-10.3098
X5.3594Y-3.861
X5.3594Y-6.0106
X5.3594Y-8.1602
X5.3594Y-10.3098
X5.5594Y-3.861
X5.5594Y-6.0106
X5.5594Y-8.1602
X5.5594Y-10.3098
X5.7594Y-3.861
X5.7594Y-6.0106
X5.7594Y-8.1602
X5.7594Y-10.3098
X6.7123Y-3.6227
X6.7123Y-3.8613
X6.7123Y-5.7723
X6.7123Y-6.0109
X6.7123Y-7.9219
X6.7123Y-8.1605
X6.7123Y-10.0716
X6.7123Y-10.3101
X6.9123Y-3.6227
X6.9123Y-3.8613
X6.9123Y-5.7723
X6.9123Y-6.0109
X6.9123Y-7.9219
X6.9123Y-8.1605
X6.9123Y-10.0716
X6.9123Y-10.3101
X7.1123Y-3.6227
X7.1123Y-3.8613
X7.1123Y-5.7723
X7.1123Y-6.0109
X7.1123Y-7.9219
X7.1123Y-8.1605
X7.1123Y-10.0716
X7.1123Y-10.3101
X7.3123Y-3.6227
X7.3123Y-3.8613
X7.3123Y-5.7723
X7.3123Y-6.0109
X7.3123Y-7.9219
X7.3123Y-8.1605
X7.3123Y-10.0716
X7.3123Y-10.3101
X7.5217Y-3.861
X7.5217Y-6.0106
X7.5217Y-8.1602
X7.5217Y-10.3098
X7.7217Y-3.861
X7.7217Y-6.0106
X7.7217Y-8.1602
X7.7217Y-10.3098
X7.9217Y-3.861
X7.9217Y-6.0106
X7.9217Y-8.1602
X7.9217Y-10.3098
X8.1217Y-3.861
X8.1217Y-6.0106
X8.1217Y-8.1602
X8.1217Y-10.3098
X9.0745Y-3.6227
X9.0745Y-3.8613
X9.0745Y-5.7723
X9.0745Y-6.0109
X9.0745Y-7.9219
X9.0745Y-8.1605
X9.0745Y-10.0716
X9.0745Y-10.3101
X9.2745Y-3.6227
X9.2745Y-3.8613
X9.2745Y-5.7723
X9.2745Y-6.0109
X9.2745Y-7.9219
X9.2745Y-8.1605
X9.2745Y-10.0716
X9.2745Y-10.3101
X9.4745Y-3.6227
X9.4745Y-3.8613
X9.4745Y-5.7723
X9.4745Y-6.0109
X9.4745Y-7.9219
X9.4745Y-8.1605
X9.4745Y-10.0716
X9.4745Y-10.3101
X9.6745Y-3.6227
X9.6745Y-3.8613
X9.6745Y-5.7723
X9.6745Y-6.0109
X9.6745Y-7.9219
X9.6745Y-8.1605
X9.6745Y-10.0716
X9.6745Y-10.3101
X9.8839Y-3.861
X9.8839Y-6.0106
X9.8839Y-8.1602
X9.8839Y-10.3098
X10.0839Y-3.861
X10.0839Y-6.0106
X10.0839Y-8.1602
X10.0839Y-10.3098
X10.2839Y-3.861
X10.2839Y-6.0106
X10.2839Y-8.1602
X10.2839Y-10.3098
X10.4839Y-3.861
X10.4839Y-6.0106
X10.4839Y-8.1602
X10.4839Y-10.3098
X11.4367Y-3.6227
X11.4367Y-3.8613
X11.4367Y-5.7723
X11.4367Y-6.0109
X11.4367Y-7.9219
X11.4367Y-8.1605
X11.4367Y-10.0716
X11.4367Y-10.3101
X11.6367Y-3.6227
X11.6367Y-3.8613
X11.6367Y-5.7723
X11.6367Y-6.0109
X11.6367Y-7.9219
X11.6367Y-8.1605
X11.6367Y-10.0716
X11.6367Y-10.3101
X11.8367Y-3.6227
X11.8367Y-3.8613
X11.8367Y-5.7723
X11.8367Y-6.0109
X11.8367Y-7.9219
X11.8367Y-8.1605
X11.8367Y-10.0716
X11.8367Y-10.3101
X12.0367Y-3.6227
X12.0367Y-3.8613
X12.0367Y-5.7723
X12.0367Y-6.0109
X12.0367Y-7.9219
X12.0367Y-8.1605
X12.0367Y-10.0716
X12.0367Y-10.3101
X12.2461Y-3.861
X12.2461Y-6.0106
X12.2461Y-8.1602
X12.2461Y-10.3098
X12.4461Y-3.861
X12.4461Y-6.0106
X12.4461Y-8.1602
X12.4461Y-10.3098
X12.6461Y-3.861
X12.6461Y-6.0106
X12.6461Y-8.1602
X12.6461Y-10.3098
X12.8461Y-3.861
X12.8461Y-6.0106
X12.8461Y-8.1602
X12.8461Y-10.3098
T3
X2.3626Y-2.3248
X2.3626Y-2.4232
X2.3626Y-4.4744
X2.3626Y-4.5728
X2.3626Y-6.624
X2.3626Y-6.7224
X2.3626Y-8.7736
X2.3626Y-8.872
X3.1756Y-2.1535
X3.1756Y-2.252
X3.1756Y-2.3504
X3.1756Y-2.4488
X3.1756Y-4.3031
X3.1756Y-4.4016
X3.1756Y-4.5
X3.1756Y-4.5984
X3.1756Y-6.4528
X3.1756Y-6.5512
X3.1756Y-6.6496
X3.1756Y-6.748
X3.1756Y-8.6024
X3.1756Y-8.7008
X3.1756Y-8.7992
X3.1756Y-8.8976
X4.7248Y-2.3248
X4.7248Y-2.4232
X4.7248Y-4.4744
X4.7248Y-4.5728
X4.7248Y-6.624
X4.7248Y-6.7224
X4.7248Y-8.7736
X4.7248Y-8.872
X5.5378Y-2.1535
X5.5378Y-2.252
X5.5378Y-2.3504
X5.5378Y-2.4488
X5.5378Y-4.3031
X5.5378Y-4.4016
X5.5378Y-4.5
X5.5378Y-4.5984
X5.5378Y-6.4528
X5.5378Y-6.5512
X5.5378Y-6.6496
X5.5378Y-6.748
X5.5378Y-8.6024
X5.5378Y-8.7008
X5.5378Y-8.7992
X5.5378Y-8.8976
X7.087Y-2.3248
X7.087Y-2.4232
X7.087Y-4.4744
X7.087Y-4.5728
X7.087Y-6.624
X7.087Y-6.7224
X7.087Y-8.7736
X7.087Y-8.872
X7.9Y-2.1535
X7.9Y-2.252
X7.9Y-2.3504
X7.9Y-2.4488
X7.9Y-4.3031
X7.9Y-4.4016
X7.9Y-4.5
X7.9Y-4.5984
X7.9Y-6.4528
X7.9Y-6.5512
X7.9Y-6.6496
X7.9Y-6.748
X7.9Y-8.6024
X7.9Y-8.7008
X7.9Y-8.7992
X7.9Y-8.8976
X9.4492Y-2.3248
X9.4492Y-2.4232
X9.4492Y-4.4744
X9.4492Y-4.5728
X9.4492Y-6.624
X9.4492Y-6.7224
X9.4492Y-8.7736
X9.4492Y-8.872
X10.2622Y-2.1535
X10.2622Y-2.252
X10.2622Y-2.3504
X10.2622Y-2.4488
X10.2622Y-4.3031
X10.2622Y-4.4016
X10.2622Y-4.5
X10.2622Y-4.5984
X10.2622Y-6.4528
X10.2622Y-6.5512
X10.2622Y-6.6496
X10.2622Y-6.748
X10.2622Y-8.6024
X10.2622Y-8.7008
X10.2622Y-8.7992
X10.2622Y-8.8976
X11.8114Y-2.3248
X11.8114Y-2.4232
X11.8114Y-4.4744
X11.8114Y-4.5728
X11.8114Y-6.624
X11.8114Y-6.7224
X11.8114Y-8.7736
X11.8114Y-8.872
X12.6244Y-2.1535
X12.6244Y-2.252
X12.6244Y-2.3504
X12.6244Y-2.4488
X12.6244Y-4.3031
X12.6244Y-4.4016
X12.6244Y-4.5
X12.6244Y-4.5984
X12.6244Y-6.4528
X12.6244Y-6.5512
X12.6244Y-6.6496
X12.6244Y-6.748
X12.6244Y-8.6024
X12.6244Y-8.7008
X12.6244Y-8.7992
X12.6244Y-8.8976
T4
X2.9427Y-2.1543
X2.9427Y-2.2528
X2.9427Y-2.3512
X2.9427Y-2.4496
X2.9427Y-4.3039
X2.9427Y-4.4024
X2.9427Y-4.5008
X2.9427Y-4.5992
X2.9427Y-6.4535
X2.9427Y-6.552
X2.9427Y-6.6504
X2.9427Y-6.7488
X2.9427Y-8.6031
X2.9427Y-8.7016
X2.9427Y-8.8
X2.9427Y-8.8984
X5.3049Y-2.1543
X5.3049Y-2.2528
X5.3049Y-2.3512
X5.3049Y-2.4496
X5.3049Y-4.3039
X5.3049Y-4.4024
X5.3049Y-4.5008
X5.3049Y-4.5992
X5.3049Y-6.4535
X5.3049Y-6.552
X5.3049Y-6.6504
X5.3049Y-6.7488
X5.3049Y-8.6031
X5.3049Y-8.7016
X5.3049Y-8.8
X5.3049Y-8.8984
X7.6671Y-2.1543
X7.6671Y-2.2528
X7.6671Y-2.3512
X7.6671Y-2.4496
X7.6671Y-4.3039
X7.6671Y-4.4024
X7.6671Y-4.5008
X7.6671Y-4.5992
X7.6671Y-6.4535
X7.6671Y-6.552
X7.6671Y-6.6504
X7.6671Y-6.7488
X7.6671Y-8.6031
X7.6671Y-8.7016
X7.6671Y-8.8
X7.6671Y-8.8984
X10.0293Y-2.1543
X10.0293Y-2.2528
X10.0293Y-2.3512
X10.0293Y-2.4496
X10.0293Y-4.3039
X10.0293Y-4.4024
X10.0293Y-4.5008
X10.0293Y-4.5992
X10.0293Y-6.4535
X10.0293Y-6.552
X10.0293Y-6.6504
X10.0293Y-6.7488
X10.0293Y-8.6031
X10.0293Y-8.7016
X10.0293Y-8.8
X10.0293Y-8.8984
X12.3915Y-2.1543
X12.3915Y-2.2528
X12.3915Y-2.3512
X12.3915Y-2.4496
X12.3915Y-4.3039
X12.3915Y-4.4024
X12.3915Y-4.5008
X12.3915Y-4.5992
X12.3915Y-6.4535
X12.3915Y-6.552
X12.3915Y-6.6504
X12.3915Y-6.7488
X12.3915Y-8.6031
X12.3915Y-8.7016
X12.3915Y-8.8
X12.3915Y-8.8984
T5
X1.6297Y-3.8441
X1.6297Y-5.9937
X1.6297Y-8.1433
X1.6297Y-10.2929
X3.61Y-2.1906
X3.61Y-4.3402
X3.61Y-6.4898
X3.61Y-8.6394
X3.9919Y-3.8441
X3.9919Y-5.9937
X3.9919Y-8.1433
X3.9919Y-10.2929
X5.9722Y-2.1906
X5.9722Y-4.3402
X5.9722Y-6.4898
X5.9722Y-8.6394
X6.3541Y-3.8441
X6.3541Y-5.9937
X6.3541Y-8.1433
X6.3541Y-10.2929
X8.3344Y-2.1906
X8.3344Y-4.3402
X8.3344Y-6.4898
X8.3344Y-8.6394
X8.7163Y-3.8441
X8.7163Y-5.9937
X8.7163Y-8.1433
X8.7163Y-10.2929
X10.6967Y-2.1906
X10.6967Y-4.3402
X10.6967Y-6.4898
X10.6967Y-8.6394
X11.0785Y-3.8441
X11.0785Y-5.9937
X11.0785Y-8.1433
X11.0785Y-10.2929
X13.0589Y-2.1906
X13.0589Y-4.3402
X13.0589Y-6.4898
X13.0589Y-8.6394
M30
