%TF.GenerationSoftware,KiCad,Pcbnew,8.0.4*%
%TF.CreationDate,2024-11-04T15:19:49+09:00*%
%TF.ProjectId,L-SEAT V2.0,4c2d5345-4154-4205-9632-2e302e6b6963,rev?*%
%TF.SameCoordinates,Original*%
%TF.FileFunction,Paste,Bot*%
%TF.FilePolarity,Positive*%
%FSLAX46Y46*%
G04 Gerber Fmt 4.6, Leading zero omitted, Abs format (unit mm)*
G04 Created by KiCad (PCBNEW 8.0.4) date 2024-11-04 15:19:49*
%MOMM*%
%LPD*%
G01*
G04 APERTURE LIST*
G04 Aperture macros list*
%AMRoundRect*
0 Rectangle with rounded corners*
0 $1 Rounding radius*
0 $2 $3 $4 $5 $6 $7 $8 $9 X,Y pos of 4 corners*
0 Add a 4 corners polygon primitive as box body*
4,1,4,$2,$3,$4,$5,$6,$7,$8,$9,$2,$3,0*
0 Add four circle primitives for the rounded corners*
1,1,$1+$1,$2,$3*
1,1,$1+$1,$4,$5*
1,1,$1+$1,$6,$7*
1,1,$1+$1,$8,$9*
0 Add four rect primitives between the rounded corners*
20,1,$1+$1,$2,$3,$4,$5,0*
20,1,$1+$1,$4,$5,$6,$7,0*
20,1,$1+$1,$6,$7,$8,$9,0*
20,1,$1+$1,$8,$9,$2,$3,0*%
G04 Aperture macros list end*
%ADD10RoundRect,0.325000X-0.325000X0.325000X-0.325000X-0.325000X0.325000X-0.325000X0.325000X0.325000X0*%
%ADD11RoundRect,0.325000X-0.325000X-0.325000X0.325000X-0.325000X0.325000X0.325000X-0.325000X0.325000X0*%
%ADD12RoundRect,0.294118X1.705882X-0.705882X1.705882X0.705882X-1.705882X0.705882X-1.705882X-0.705882X0*%
%ADD13RoundRect,0.312500X-0.312500X0.437500X-0.312500X-0.437500X0.312500X-0.437500X0.312500X0.437500X0*%
%ADD14RoundRect,0.150000X0.700000X-0.150000X0.700000X0.150000X-0.700000X0.150000X-0.700000X-0.150000X0*%
%ADD15RoundRect,0.250000X1.100000X-0.250000X1.100000X0.250000X-1.100000X0.250000X-1.100000X-0.250000X0*%
%ADD16RoundRect,0.150000X0.150000X0.700000X-0.150000X0.700000X-0.150000X-0.700000X0.150000X-0.700000X0*%
%ADD17RoundRect,0.250000X0.250000X1.100000X-0.250000X1.100000X-0.250000X-1.100000X0.250000X-1.100000X0*%
%ADD18R,1.100000X1.000000*%
%ADD19R,0.700000X1.100000*%
%ADD20RoundRect,0.225000X0.225000X-0.775000X0.225000X0.775000X-0.225000X0.775000X-0.225000X-0.775000X0*%
%ADD21RoundRect,0.225000X-0.775000X-0.225000X0.775000X-0.225000X0.775000X0.225000X-0.775000X0.225000X0*%
%ADD22R,5.000000X5.000000*%
%ADD23R,1.500000X2.000000*%
%ADD24R,3.800000X2.000000*%
%ADD25R,1.800000X2.500000*%
%ADD26R,0.800000X1.600000*%
%ADD27R,1.200000X1.000000*%
G04 APERTURE END LIST*
D10*
%TO.C,R6*%
X304262000Y-252058000D03*
X304262000Y-254358000D03*
%TD*%
D11*
%TO.C,R4*%
X330845000Y-258740000D03*
X333145000Y-258740000D03*
%TD*%
D12*
%TO.C,J1*%
X278360000Y-225605000D03*
%TD*%
D13*
%TO.C,C7*%
X293395000Y-228440000D03*
X293395000Y-230840000D03*
%TD*%
D14*
%TO.C,J6*%
X280940000Y-238550000D03*
X280940000Y-237300000D03*
X280940000Y-236050000D03*
X280940000Y-234800000D03*
D15*
X277740000Y-240400000D03*
X277740000Y-232950000D03*
%TD*%
D13*
%TO.C,C5*%
X288895000Y-228440000D03*
X288895000Y-230840000D03*
%TD*%
%TO.C,C6*%
X291195000Y-228440000D03*
X291195000Y-230840000D03*
%TD*%
D16*
%TO.C,J05*%
X311346000Y-265074000D03*
X310096000Y-265074000D03*
X308846000Y-265074000D03*
X307596000Y-265074000D03*
X306346000Y-265074000D03*
X305096000Y-265074000D03*
D17*
X313196000Y-268274000D03*
X303246000Y-268274000D03*
%TD*%
D16*
%TO.C,J3*%
X297295000Y-265074000D03*
X296045000Y-265074000D03*
X294795000Y-265074000D03*
X293545000Y-265074000D03*
X292295000Y-265074000D03*
X291045000Y-265074000D03*
D17*
X299145000Y-268274000D03*
X289195000Y-268274000D03*
%TD*%
D18*
%TO.C,Q13*%
X301722000Y-258166000D03*
X301722000Y-260066000D03*
X299722000Y-259116000D03*
%TD*%
%TO.C,Q24*%
X321380000Y-258220000D03*
X321380000Y-260120000D03*
X319380000Y-259170000D03*
%TD*%
D19*
%TO.C,SW3*%
X323795000Y-217140000D03*
X323795000Y-221340000D03*
X325995000Y-217140000D03*
X325995000Y-221340000D03*
%TD*%
D14*
%TO.C,J8*%
X280940000Y-251615000D03*
X280940000Y-250365000D03*
X280940000Y-249115000D03*
X280940000Y-247865000D03*
X280940000Y-246615000D03*
X280940000Y-245365000D03*
D15*
X277740000Y-253465000D03*
X277740000Y-243515000D03*
%TD*%
D20*
%TO.C,U2*%
X327710000Y-252940000D03*
X326440000Y-252940000D03*
X325170000Y-252940000D03*
X323900000Y-252940000D03*
X322630000Y-252940000D03*
X321360000Y-252940000D03*
X320090000Y-252940000D03*
X318820000Y-252940000D03*
X317550000Y-252940000D03*
X316280000Y-252940000D03*
X315010000Y-252940000D03*
X313740000Y-252940000D03*
X312470000Y-252940000D03*
X311200000Y-252940000D03*
D21*
X309680000Y-250930000D03*
X309680000Y-249655000D03*
X309680000Y-248380000D03*
X309680000Y-247110000D03*
X309680000Y-245840000D03*
X309680000Y-244580000D03*
X309680000Y-243310000D03*
X309680000Y-242040000D03*
X309680000Y-240770000D03*
X309680000Y-239495000D03*
X309680000Y-238230000D03*
X309680000Y-236960000D03*
D20*
X311190000Y-234950000D03*
X312460000Y-234950000D03*
X313730000Y-234950000D03*
X315000000Y-234950000D03*
X316270000Y-234950000D03*
X317540000Y-234950000D03*
X318810000Y-234950000D03*
X320080000Y-234950000D03*
X321350000Y-234950000D03*
X322620000Y-234950000D03*
X323890000Y-234950000D03*
X325160000Y-234950000D03*
X326430000Y-234950000D03*
X327700000Y-234950000D03*
D22*
X320195000Y-244940000D03*
%TD*%
D10*
%TO.C,R62*%
X323650000Y-258010000D03*
X323650000Y-260310000D03*
%TD*%
D19*
%TO.C,SW6*%
X323795000Y-223840000D03*
X323795000Y-228040000D03*
X325995000Y-223840000D03*
X325995000Y-228040000D03*
%TD*%
D12*
%TO.C,J2*%
X278360000Y-220520000D03*
%TD*%
D13*
%TO.C,C2*%
X284295000Y-228440000D03*
X284295000Y-230840000D03*
%TD*%
D10*
%TO.C,R7*%
X303754000Y-257966000D03*
X303754000Y-260266000D03*
%TD*%
D18*
%TO.C,Q12*%
X301706000Y-252258000D03*
X301706000Y-254158000D03*
X299706000Y-253208000D03*
%TD*%
D23*
%TO.C,U1*%
X291570000Y-223470000D03*
X289270000Y-223470000D03*
X286970000Y-223470000D03*
D24*
X289270000Y-217170000D03*
%TD*%
D13*
%TO.C,C4*%
X286595000Y-228440000D03*
X286595000Y-230840000D03*
%TD*%
D25*
%TO.C,D1*%
X283290000Y-224940000D03*
X283290000Y-220940000D03*
%TD*%
D16*
%TO.C,J20*%
X325316000Y-265074000D03*
X324066000Y-265074000D03*
X322816000Y-265074000D03*
X321566000Y-265074000D03*
X320316000Y-265074000D03*
X319066000Y-265074000D03*
D17*
X327166000Y-268274000D03*
X317216000Y-268274000D03*
%TD*%
D26*
%TO.C,SW1*%
X296070000Y-219200000D03*
X299070000Y-219200000D03*
X300520000Y-219200000D03*
D27*
X302220000Y-215800000D03*
X294420000Y-215800000D03*
X302220000Y-218000000D03*
X294420000Y-218000000D03*
%TD*%
D10*
%TO.C,R6*%
X244262000Y-252058000D03*
X244262000Y-254358000D03*
%TD*%
D11*
%TO.C,R4*%
X270845000Y-258740000D03*
X273145000Y-258740000D03*
%TD*%
D12*
%TO.C,J1*%
X218360000Y-225605000D03*
%TD*%
D13*
%TO.C,C7*%
X233395000Y-228440000D03*
X233395000Y-230840000D03*
%TD*%
D14*
%TO.C,J6*%
X220940000Y-238550000D03*
X220940000Y-237300000D03*
X220940000Y-236050000D03*
X220940000Y-234800000D03*
D15*
X217740000Y-240400000D03*
X217740000Y-232950000D03*
%TD*%
D13*
%TO.C,C5*%
X228895000Y-228440000D03*
X228895000Y-230840000D03*
%TD*%
%TO.C,C6*%
X231195000Y-228440000D03*
X231195000Y-230840000D03*
%TD*%
D16*
%TO.C,J05*%
X251346000Y-265074000D03*
X250096000Y-265074000D03*
X248846000Y-265074000D03*
X247596000Y-265074000D03*
X246346000Y-265074000D03*
X245096000Y-265074000D03*
D17*
X253196000Y-268274000D03*
X243246000Y-268274000D03*
%TD*%
D16*
%TO.C,J3*%
X237295000Y-265074000D03*
X236045000Y-265074000D03*
X234795000Y-265074000D03*
X233545000Y-265074000D03*
X232295000Y-265074000D03*
X231045000Y-265074000D03*
D17*
X239145000Y-268274000D03*
X229195000Y-268274000D03*
%TD*%
D18*
%TO.C,Q13*%
X241722000Y-258166000D03*
X241722000Y-260066000D03*
X239722000Y-259116000D03*
%TD*%
%TO.C,Q24*%
X261380000Y-258220000D03*
X261380000Y-260120000D03*
X259380000Y-259170000D03*
%TD*%
D19*
%TO.C,SW3*%
X263795000Y-217140000D03*
X263795000Y-221340000D03*
X265995000Y-217140000D03*
X265995000Y-221340000D03*
%TD*%
D14*
%TO.C,J8*%
X220940000Y-251615000D03*
X220940000Y-250365000D03*
X220940000Y-249115000D03*
X220940000Y-247865000D03*
X220940000Y-246615000D03*
X220940000Y-245365000D03*
D15*
X217740000Y-253465000D03*
X217740000Y-243515000D03*
%TD*%
D20*
%TO.C,U2*%
X267710000Y-252940000D03*
X266440000Y-252940000D03*
X265170000Y-252940000D03*
X263900000Y-252940000D03*
X262630000Y-252940000D03*
X261360000Y-252940000D03*
X260090000Y-252940000D03*
X258820000Y-252940000D03*
X257550000Y-252940000D03*
X256280000Y-252940000D03*
X255010000Y-252940000D03*
X253740000Y-252940000D03*
X252470000Y-252940000D03*
X251200000Y-252940000D03*
D21*
X249680000Y-250930000D03*
X249680000Y-249655000D03*
X249680000Y-248380000D03*
X249680000Y-247110000D03*
X249680000Y-245840000D03*
X249680000Y-244580000D03*
X249680000Y-243310000D03*
X249680000Y-242040000D03*
X249680000Y-240770000D03*
X249680000Y-239495000D03*
X249680000Y-238230000D03*
X249680000Y-236960000D03*
D20*
X251190000Y-234950000D03*
X252460000Y-234950000D03*
X253730000Y-234950000D03*
X255000000Y-234950000D03*
X256270000Y-234950000D03*
X257540000Y-234950000D03*
X258810000Y-234950000D03*
X260080000Y-234950000D03*
X261350000Y-234950000D03*
X262620000Y-234950000D03*
X263890000Y-234950000D03*
X265160000Y-234950000D03*
X266430000Y-234950000D03*
X267700000Y-234950000D03*
D22*
X260195000Y-244940000D03*
%TD*%
D10*
%TO.C,R62*%
X263650000Y-258010000D03*
X263650000Y-260310000D03*
%TD*%
D19*
%TO.C,SW6*%
X263795000Y-223840000D03*
X263795000Y-228040000D03*
X265995000Y-223840000D03*
X265995000Y-228040000D03*
%TD*%
D12*
%TO.C,J2*%
X218360000Y-220520000D03*
%TD*%
D13*
%TO.C,C2*%
X224295000Y-228440000D03*
X224295000Y-230840000D03*
%TD*%
D10*
%TO.C,R7*%
X243754000Y-257966000D03*
X243754000Y-260266000D03*
%TD*%
D18*
%TO.C,Q12*%
X241706000Y-252258000D03*
X241706000Y-254158000D03*
X239706000Y-253208000D03*
%TD*%
D23*
%TO.C,U1*%
X231570000Y-223470000D03*
X229270000Y-223470000D03*
X226970000Y-223470000D03*
D24*
X229270000Y-217170000D03*
%TD*%
D13*
%TO.C,C4*%
X226595000Y-228440000D03*
X226595000Y-230840000D03*
%TD*%
D25*
%TO.C,D1*%
X223290000Y-224940000D03*
X223290000Y-220940000D03*
%TD*%
D16*
%TO.C,J20*%
X265316000Y-265074000D03*
X264066000Y-265074000D03*
X262816000Y-265074000D03*
X261566000Y-265074000D03*
X260316000Y-265074000D03*
X259066000Y-265074000D03*
D17*
X267166000Y-268274000D03*
X257216000Y-268274000D03*
%TD*%
D26*
%TO.C,SW1*%
X236070000Y-219200000D03*
X239070000Y-219200000D03*
X240520000Y-219200000D03*
D27*
X242220000Y-215800000D03*
X234420000Y-215800000D03*
X242220000Y-218000000D03*
X234420000Y-218000000D03*
%TD*%
D10*
%TO.C,R6*%
X184262000Y-252058000D03*
X184262000Y-254358000D03*
%TD*%
D11*
%TO.C,R4*%
X210845000Y-258740000D03*
X213145000Y-258740000D03*
%TD*%
D12*
%TO.C,J1*%
X158360000Y-225605000D03*
%TD*%
D13*
%TO.C,C7*%
X173395000Y-228440000D03*
X173395000Y-230840000D03*
%TD*%
D14*
%TO.C,J6*%
X160940000Y-238550000D03*
X160940000Y-237300000D03*
X160940000Y-236050000D03*
X160940000Y-234800000D03*
D15*
X157740000Y-240400000D03*
X157740000Y-232950000D03*
%TD*%
D13*
%TO.C,C5*%
X168895000Y-228440000D03*
X168895000Y-230840000D03*
%TD*%
%TO.C,C6*%
X171195000Y-228440000D03*
X171195000Y-230840000D03*
%TD*%
D16*
%TO.C,J05*%
X191346000Y-265074000D03*
X190096000Y-265074000D03*
X188846000Y-265074000D03*
X187596000Y-265074000D03*
X186346000Y-265074000D03*
X185096000Y-265074000D03*
D17*
X193196000Y-268274000D03*
X183246000Y-268274000D03*
%TD*%
D16*
%TO.C,J3*%
X177295000Y-265074000D03*
X176045000Y-265074000D03*
X174795000Y-265074000D03*
X173545000Y-265074000D03*
X172295000Y-265074000D03*
X171045000Y-265074000D03*
D17*
X179145000Y-268274000D03*
X169195000Y-268274000D03*
%TD*%
D18*
%TO.C,Q13*%
X181722000Y-258166000D03*
X181722000Y-260066000D03*
X179722000Y-259116000D03*
%TD*%
%TO.C,Q24*%
X201380000Y-258220000D03*
X201380000Y-260120000D03*
X199380000Y-259170000D03*
%TD*%
D19*
%TO.C,SW3*%
X203795000Y-217140000D03*
X203795000Y-221340000D03*
X205995000Y-217140000D03*
X205995000Y-221340000D03*
%TD*%
D14*
%TO.C,J8*%
X160940000Y-251615000D03*
X160940000Y-250365000D03*
X160940000Y-249115000D03*
X160940000Y-247865000D03*
X160940000Y-246615000D03*
X160940000Y-245365000D03*
D15*
X157740000Y-253465000D03*
X157740000Y-243515000D03*
%TD*%
D20*
%TO.C,U2*%
X207710000Y-252940000D03*
X206440000Y-252940000D03*
X205170000Y-252940000D03*
X203900000Y-252940000D03*
X202630000Y-252940000D03*
X201360000Y-252940000D03*
X200090000Y-252940000D03*
X198820000Y-252940000D03*
X197550000Y-252940000D03*
X196280000Y-252940000D03*
X195010000Y-252940000D03*
X193740000Y-252940000D03*
X192470000Y-252940000D03*
X191200000Y-252940000D03*
D21*
X189680000Y-250930000D03*
X189680000Y-249655000D03*
X189680000Y-248380000D03*
X189680000Y-247110000D03*
X189680000Y-245840000D03*
X189680000Y-244580000D03*
X189680000Y-243310000D03*
X189680000Y-242040000D03*
X189680000Y-240770000D03*
X189680000Y-239495000D03*
X189680000Y-238230000D03*
X189680000Y-236960000D03*
D20*
X191190000Y-234950000D03*
X192460000Y-234950000D03*
X193730000Y-234950000D03*
X195000000Y-234950000D03*
X196270000Y-234950000D03*
X197540000Y-234950000D03*
X198810000Y-234950000D03*
X200080000Y-234950000D03*
X201350000Y-234950000D03*
X202620000Y-234950000D03*
X203890000Y-234950000D03*
X205160000Y-234950000D03*
X206430000Y-234950000D03*
X207700000Y-234950000D03*
D22*
X200195000Y-244940000D03*
%TD*%
D10*
%TO.C,R62*%
X203650000Y-258010000D03*
X203650000Y-260310000D03*
%TD*%
D19*
%TO.C,SW6*%
X203795000Y-223840000D03*
X203795000Y-228040000D03*
X205995000Y-223840000D03*
X205995000Y-228040000D03*
%TD*%
D12*
%TO.C,J2*%
X158360000Y-220520000D03*
%TD*%
D13*
%TO.C,C2*%
X164295000Y-228440000D03*
X164295000Y-230840000D03*
%TD*%
D10*
%TO.C,R7*%
X183754000Y-257966000D03*
X183754000Y-260266000D03*
%TD*%
D18*
%TO.C,Q12*%
X181706000Y-252258000D03*
X181706000Y-254158000D03*
X179706000Y-253208000D03*
%TD*%
D23*
%TO.C,U1*%
X171570000Y-223470000D03*
X169270000Y-223470000D03*
X166970000Y-223470000D03*
D24*
X169270000Y-217170000D03*
%TD*%
D13*
%TO.C,C4*%
X166595000Y-228440000D03*
X166595000Y-230840000D03*
%TD*%
D25*
%TO.C,D1*%
X163290000Y-224940000D03*
X163290000Y-220940000D03*
%TD*%
D16*
%TO.C,J20*%
X205316000Y-265074000D03*
X204066000Y-265074000D03*
X202816000Y-265074000D03*
X201566000Y-265074000D03*
X200316000Y-265074000D03*
X199066000Y-265074000D03*
D17*
X207166000Y-268274000D03*
X197216000Y-268274000D03*
%TD*%
D26*
%TO.C,SW1*%
X176070000Y-219200000D03*
X179070000Y-219200000D03*
X180520000Y-219200000D03*
D27*
X182220000Y-215800000D03*
X174420000Y-215800000D03*
X182220000Y-218000000D03*
X174420000Y-218000000D03*
%TD*%
D10*
%TO.C,R6*%
X124262000Y-252058000D03*
X124262000Y-254358000D03*
%TD*%
D11*
%TO.C,R4*%
X150845000Y-258740000D03*
X153145000Y-258740000D03*
%TD*%
D12*
%TO.C,J1*%
X98360000Y-225605000D03*
%TD*%
D13*
%TO.C,C7*%
X113395000Y-228440000D03*
X113395000Y-230840000D03*
%TD*%
D14*
%TO.C,J6*%
X100940000Y-238550000D03*
X100940000Y-237300000D03*
X100940000Y-236050000D03*
X100940000Y-234800000D03*
D15*
X97740000Y-240400000D03*
X97740000Y-232950000D03*
%TD*%
D13*
%TO.C,C5*%
X108895000Y-228440000D03*
X108895000Y-230840000D03*
%TD*%
%TO.C,C6*%
X111195000Y-228440000D03*
X111195000Y-230840000D03*
%TD*%
D16*
%TO.C,J05*%
X131346000Y-265074000D03*
X130096000Y-265074000D03*
X128846000Y-265074000D03*
X127596000Y-265074000D03*
X126346000Y-265074000D03*
X125096000Y-265074000D03*
D17*
X133196000Y-268274000D03*
X123246000Y-268274000D03*
%TD*%
D16*
%TO.C,J3*%
X117295000Y-265074000D03*
X116045000Y-265074000D03*
X114795000Y-265074000D03*
X113545000Y-265074000D03*
X112295000Y-265074000D03*
X111045000Y-265074000D03*
D17*
X119145000Y-268274000D03*
X109195000Y-268274000D03*
%TD*%
D18*
%TO.C,Q13*%
X121722000Y-258166000D03*
X121722000Y-260066000D03*
X119722000Y-259116000D03*
%TD*%
%TO.C,Q24*%
X141380000Y-258220000D03*
X141380000Y-260120000D03*
X139380000Y-259170000D03*
%TD*%
D19*
%TO.C,SW3*%
X143795000Y-217140000D03*
X143795000Y-221340000D03*
X145995000Y-217140000D03*
X145995000Y-221340000D03*
%TD*%
D14*
%TO.C,J8*%
X100940000Y-251615000D03*
X100940000Y-250365000D03*
X100940000Y-249115000D03*
X100940000Y-247865000D03*
X100940000Y-246615000D03*
X100940000Y-245365000D03*
D15*
X97740000Y-253465000D03*
X97740000Y-243515000D03*
%TD*%
D20*
%TO.C,U2*%
X147710000Y-252940000D03*
X146440000Y-252940000D03*
X145170000Y-252940000D03*
X143900000Y-252940000D03*
X142630000Y-252940000D03*
X141360000Y-252940000D03*
X140090000Y-252940000D03*
X138820000Y-252940000D03*
X137550000Y-252940000D03*
X136280000Y-252940000D03*
X135010000Y-252940000D03*
X133740000Y-252940000D03*
X132470000Y-252940000D03*
X131200000Y-252940000D03*
D21*
X129680000Y-250930000D03*
X129680000Y-249655000D03*
X129680000Y-248380000D03*
X129680000Y-247110000D03*
X129680000Y-245840000D03*
X129680000Y-244580000D03*
X129680000Y-243310000D03*
X129680000Y-242040000D03*
X129680000Y-240770000D03*
X129680000Y-239495000D03*
X129680000Y-238230000D03*
X129680000Y-236960000D03*
D20*
X131190000Y-234950000D03*
X132460000Y-234950000D03*
X133730000Y-234950000D03*
X135000000Y-234950000D03*
X136270000Y-234950000D03*
X137540000Y-234950000D03*
X138810000Y-234950000D03*
X140080000Y-234950000D03*
X141350000Y-234950000D03*
X142620000Y-234950000D03*
X143890000Y-234950000D03*
X145160000Y-234950000D03*
X146430000Y-234950000D03*
X147700000Y-234950000D03*
D22*
X140195000Y-244940000D03*
%TD*%
D10*
%TO.C,R62*%
X143650000Y-258010000D03*
X143650000Y-260310000D03*
%TD*%
D19*
%TO.C,SW6*%
X143795000Y-223840000D03*
X143795000Y-228040000D03*
X145995000Y-223840000D03*
X145995000Y-228040000D03*
%TD*%
D12*
%TO.C,J2*%
X98360000Y-220520000D03*
%TD*%
D13*
%TO.C,C2*%
X104295000Y-228440000D03*
X104295000Y-230840000D03*
%TD*%
D10*
%TO.C,R7*%
X123754000Y-257966000D03*
X123754000Y-260266000D03*
%TD*%
D18*
%TO.C,Q12*%
X121706000Y-252258000D03*
X121706000Y-254158000D03*
X119706000Y-253208000D03*
%TD*%
D23*
%TO.C,U1*%
X111570000Y-223470000D03*
X109270000Y-223470000D03*
X106970000Y-223470000D03*
D24*
X109270000Y-217170000D03*
%TD*%
D13*
%TO.C,C4*%
X106595000Y-228440000D03*
X106595000Y-230840000D03*
%TD*%
D25*
%TO.C,D1*%
X103290000Y-224940000D03*
X103290000Y-220940000D03*
%TD*%
D16*
%TO.C,J20*%
X145316000Y-265074000D03*
X144066000Y-265074000D03*
X142816000Y-265074000D03*
X141566000Y-265074000D03*
X140316000Y-265074000D03*
X139066000Y-265074000D03*
D17*
X147166000Y-268274000D03*
X137216000Y-268274000D03*
%TD*%
D26*
%TO.C,SW1*%
X116070000Y-219200000D03*
X119070000Y-219200000D03*
X120520000Y-219200000D03*
D27*
X122220000Y-215800000D03*
X114420000Y-215800000D03*
X122220000Y-218000000D03*
X114420000Y-218000000D03*
%TD*%
D10*
%TO.C,R6*%
X64262000Y-252058000D03*
X64262000Y-254358000D03*
%TD*%
D11*
%TO.C,R4*%
X90845000Y-258740000D03*
X93145000Y-258740000D03*
%TD*%
D12*
%TO.C,J1*%
X38360000Y-225605000D03*
%TD*%
D13*
%TO.C,C7*%
X53395000Y-228440000D03*
X53395000Y-230840000D03*
%TD*%
D14*
%TO.C,J6*%
X40940000Y-238550000D03*
X40940000Y-237300000D03*
X40940000Y-236050000D03*
X40940000Y-234800000D03*
D15*
X37740000Y-240400000D03*
X37740000Y-232950000D03*
%TD*%
D13*
%TO.C,C5*%
X48895000Y-228440000D03*
X48895000Y-230840000D03*
%TD*%
%TO.C,C6*%
X51195000Y-228440000D03*
X51195000Y-230840000D03*
%TD*%
D16*
%TO.C,J05*%
X71346000Y-265074000D03*
X70096000Y-265074000D03*
X68846000Y-265074000D03*
X67596000Y-265074000D03*
X66346000Y-265074000D03*
X65096000Y-265074000D03*
D17*
X73196000Y-268274000D03*
X63246000Y-268274000D03*
%TD*%
D16*
%TO.C,J3*%
X57295000Y-265074000D03*
X56045000Y-265074000D03*
X54795000Y-265074000D03*
X53545000Y-265074000D03*
X52295000Y-265074000D03*
X51045000Y-265074000D03*
D17*
X59145000Y-268274000D03*
X49195000Y-268274000D03*
%TD*%
D18*
%TO.C,Q13*%
X61722000Y-258166000D03*
X61722000Y-260066000D03*
X59722000Y-259116000D03*
%TD*%
%TO.C,Q24*%
X81380000Y-258220000D03*
X81380000Y-260120000D03*
X79380000Y-259170000D03*
%TD*%
D19*
%TO.C,SW3*%
X83795000Y-217140000D03*
X83795000Y-221340000D03*
X85995000Y-217140000D03*
X85995000Y-221340000D03*
%TD*%
D14*
%TO.C,J8*%
X40940000Y-251615000D03*
X40940000Y-250365000D03*
X40940000Y-249115000D03*
X40940000Y-247865000D03*
X40940000Y-246615000D03*
X40940000Y-245365000D03*
D15*
X37740000Y-253465000D03*
X37740000Y-243515000D03*
%TD*%
D20*
%TO.C,U2*%
X87710000Y-252940000D03*
X86440000Y-252940000D03*
X85170000Y-252940000D03*
X83900000Y-252940000D03*
X82630000Y-252940000D03*
X81360000Y-252940000D03*
X80090000Y-252940000D03*
X78820000Y-252940000D03*
X77550000Y-252940000D03*
X76280000Y-252940000D03*
X75010000Y-252940000D03*
X73740000Y-252940000D03*
X72470000Y-252940000D03*
X71200000Y-252940000D03*
D21*
X69680000Y-250930000D03*
X69680000Y-249655000D03*
X69680000Y-248380000D03*
X69680000Y-247110000D03*
X69680000Y-245840000D03*
X69680000Y-244580000D03*
X69680000Y-243310000D03*
X69680000Y-242040000D03*
X69680000Y-240770000D03*
X69680000Y-239495000D03*
X69680000Y-238230000D03*
X69680000Y-236960000D03*
D20*
X71190000Y-234950000D03*
X72460000Y-234950000D03*
X73730000Y-234950000D03*
X75000000Y-234950000D03*
X76270000Y-234950000D03*
X77540000Y-234950000D03*
X78810000Y-234950000D03*
X80080000Y-234950000D03*
X81350000Y-234950000D03*
X82620000Y-234950000D03*
X83890000Y-234950000D03*
X85160000Y-234950000D03*
X86430000Y-234950000D03*
X87700000Y-234950000D03*
D22*
X80195000Y-244940000D03*
%TD*%
D10*
%TO.C,R62*%
X83650000Y-258010000D03*
X83650000Y-260310000D03*
%TD*%
D19*
%TO.C,SW6*%
X83795000Y-223840000D03*
X83795000Y-228040000D03*
X85995000Y-223840000D03*
X85995000Y-228040000D03*
%TD*%
D12*
%TO.C,J2*%
X38360000Y-220520000D03*
%TD*%
D13*
%TO.C,C2*%
X44295000Y-228440000D03*
X44295000Y-230840000D03*
%TD*%
D10*
%TO.C,R7*%
X63754000Y-257966000D03*
X63754000Y-260266000D03*
%TD*%
D18*
%TO.C,Q12*%
X61706000Y-252258000D03*
X61706000Y-254158000D03*
X59706000Y-253208000D03*
%TD*%
D23*
%TO.C,U1*%
X51570000Y-223470000D03*
X49270000Y-223470000D03*
X46970000Y-223470000D03*
D24*
X49270000Y-217170000D03*
%TD*%
D13*
%TO.C,C4*%
X46595000Y-228440000D03*
X46595000Y-230840000D03*
%TD*%
D25*
%TO.C,D1*%
X43290000Y-224940000D03*
X43290000Y-220940000D03*
%TD*%
D16*
%TO.C,J20*%
X85316000Y-265074000D03*
X84066000Y-265074000D03*
X82816000Y-265074000D03*
X81566000Y-265074000D03*
X80316000Y-265074000D03*
X79066000Y-265074000D03*
D17*
X87166000Y-268274000D03*
X77216000Y-268274000D03*
%TD*%
D26*
%TO.C,SW1*%
X56070000Y-219200000D03*
X59070000Y-219200000D03*
X60520000Y-219200000D03*
D27*
X62220000Y-215800000D03*
X54420000Y-215800000D03*
X62220000Y-218000000D03*
X54420000Y-218000000D03*
%TD*%
D10*
%TO.C,R6*%
X304262000Y-197458000D03*
X304262000Y-199758000D03*
%TD*%
D11*
%TO.C,R4*%
X330845000Y-204140000D03*
X333145000Y-204140000D03*
%TD*%
D12*
%TO.C,J1*%
X278360000Y-171005000D03*
%TD*%
D13*
%TO.C,C7*%
X293395000Y-173840000D03*
X293395000Y-176240000D03*
%TD*%
D14*
%TO.C,J6*%
X280940000Y-183950000D03*
X280940000Y-182700000D03*
X280940000Y-181450000D03*
X280940000Y-180200000D03*
D15*
X277740000Y-185800000D03*
X277740000Y-178350000D03*
%TD*%
D13*
%TO.C,C5*%
X288895000Y-173840000D03*
X288895000Y-176240000D03*
%TD*%
%TO.C,C6*%
X291195000Y-173840000D03*
X291195000Y-176240000D03*
%TD*%
D16*
%TO.C,J05*%
X311346000Y-210474000D03*
X310096000Y-210474000D03*
X308846000Y-210474000D03*
X307596000Y-210474000D03*
X306346000Y-210474000D03*
X305096000Y-210474000D03*
D17*
X313196000Y-213674000D03*
X303246000Y-213674000D03*
%TD*%
D16*
%TO.C,J3*%
X297295000Y-210474000D03*
X296045000Y-210474000D03*
X294795000Y-210474000D03*
X293545000Y-210474000D03*
X292295000Y-210474000D03*
X291045000Y-210474000D03*
D17*
X299145000Y-213674000D03*
X289195000Y-213674000D03*
%TD*%
D18*
%TO.C,Q13*%
X301722000Y-203566000D03*
X301722000Y-205466000D03*
X299722000Y-204516000D03*
%TD*%
%TO.C,Q24*%
X321380000Y-203620000D03*
X321380000Y-205520000D03*
X319380000Y-204570000D03*
%TD*%
D19*
%TO.C,SW3*%
X323795000Y-162540000D03*
X323795000Y-166740000D03*
X325995000Y-162540000D03*
X325995000Y-166740000D03*
%TD*%
D14*
%TO.C,J8*%
X280940000Y-197015000D03*
X280940000Y-195765000D03*
X280940000Y-194515000D03*
X280940000Y-193265000D03*
X280940000Y-192015000D03*
X280940000Y-190765000D03*
D15*
X277740000Y-198865000D03*
X277740000Y-188915000D03*
%TD*%
D20*
%TO.C,U2*%
X327710000Y-198340000D03*
X326440000Y-198340000D03*
X325170000Y-198340000D03*
X323900000Y-198340000D03*
X322630000Y-198340000D03*
X321360000Y-198340000D03*
X320090000Y-198340000D03*
X318820000Y-198340000D03*
X317550000Y-198340000D03*
X316280000Y-198340000D03*
X315010000Y-198340000D03*
X313740000Y-198340000D03*
X312470000Y-198340000D03*
X311200000Y-198340000D03*
D21*
X309680000Y-196330000D03*
X309680000Y-195055000D03*
X309680000Y-193780000D03*
X309680000Y-192510000D03*
X309680000Y-191240000D03*
X309680000Y-189980000D03*
X309680000Y-188710000D03*
X309680000Y-187440000D03*
X309680000Y-186170000D03*
X309680000Y-184895000D03*
X309680000Y-183630000D03*
X309680000Y-182360000D03*
D20*
X311190000Y-180350000D03*
X312460000Y-180350000D03*
X313730000Y-180350000D03*
X315000000Y-180350000D03*
X316270000Y-180350000D03*
X317540000Y-180350000D03*
X318810000Y-180350000D03*
X320080000Y-180350000D03*
X321350000Y-180350000D03*
X322620000Y-180350000D03*
X323890000Y-180350000D03*
X325160000Y-180350000D03*
X326430000Y-180350000D03*
X327700000Y-180350000D03*
D22*
X320195000Y-190340000D03*
%TD*%
D10*
%TO.C,R62*%
X323650000Y-203410000D03*
X323650000Y-205710000D03*
%TD*%
D19*
%TO.C,SW6*%
X323795000Y-169240000D03*
X323795000Y-173440000D03*
X325995000Y-169240000D03*
X325995000Y-173440000D03*
%TD*%
D12*
%TO.C,J2*%
X278360000Y-165920000D03*
%TD*%
D13*
%TO.C,C2*%
X284295000Y-173840000D03*
X284295000Y-176240000D03*
%TD*%
D10*
%TO.C,R7*%
X303754000Y-203366000D03*
X303754000Y-205666000D03*
%TD*%
D18*
%TO.C,Q12*%
X301706000Y-197658000D03*
X301706000Y-199558000D03*
X299706000Y-198608000D03*
%TD*%
D23*
%TO.C,U1*%
X291570000Y-168870000D03*
X289270000Y-168870000D03*
X286970000Y-168870000D03*
D24*
X289270000Y-162570000D03*
%TD*%
D13*
%TO.C,C4*%
X286595000Y-173840000D03*
X286595000Y-176240000D03*
%TD*%
D25*
%TO.C,D1*%
X283290000Y-170340000D03*
X283290000Y-166340000D03*
%TD*%
D16*
%TO.C,J20*%
X325316000Y-210474000D03*
X324066000Y-210474000D03*
X322816000Y-210474000D03*
X321566000Y-210474000D03*
X320316000Y-210474000D03*
X319066000Y-210474000D03*
D17*
X327166000Y-213674000D03*
X317216000Y-213674000D03*
%TD*%
D26*
%TO.C,SW1*%
X296070000Y-164600000D03*
X299070000Y-164600000D03*
X300520000Y-164600000D03*
D27*
X302220000Y-161200000D03*
X294420000Y-161200000D03*
X302220000Y-163400000D03*
X294420000Y-163400000D03*
%TD*%
D10*
%TO.C,R6*%
X244262000Y-197458000D03*
X244262000Y-199758000D03*
%TD*%
D11*
%TO.C,R4*%
X270845000Y-204140000D03*
X273145000Y-204140000D03*
%TD*%
D12*
%TO.C,J1*%
X218360000Y-171005000D03*
%TD*%
D13*
%TO.C,C7*%
X233395000Y-173840000D03*
X233395000Y-176240000D03*
%TD*%
D14*
%TO.C,J6*%
X220940000Y-183950000D03*
X220940000Y-182700000D03*
X220940000Y-181450000D03*
X220940000Y-180200000D03*
D15*
X217740000Y-185800000D03*
X217740000Y-178350000D03*
%TD*%
D13*
%TO.C,C5*%
X228895000Y-173840000D03*
X228895000Y-176240000D03*
%TD*%
%TO.C,C6*%
X231195000Y-173840000D03*
X231195000Y-176240000D03*
%TD*%
D16*
%TO.C,J05*%
X251346000Y-210474000D03*
X250096000Y-210474000D03*
X248846000Y-210474000D03*
X247596000Y-210474000D03*
X246346000Y-210474000D03*
X245096000Y-210474000D03*
D17*
X253196000Y-213674000D03*
X243246000Y-213674000D03*
%TD*%
D16*
%TO.C,J3*%
X237295000Y-210474000D03*
X236045000Y-210474000D03*
X234795000Y-210474000D03*
X233545000Y-210474000D03*
X232295000Y-210474000D03*
X231045000Y-210474000D03*
D17*
X239145000Y-213674000D03*
X229195000Y-213674000D03*
%TD*%
D18*
%TO.C,Q13*%
X241722000Y-203566000D03*
X241722000Y-205466000D03*
X239722000Y-204516000D03*
%TD*%
%TO.C,Q24*%
X261380000Y-203620000D03*
X261380000Y-205520000D03*
X259380000Y-204570000D03*
%TD*%
D19*
%TO.C,SW3*%
X263795000Y-162540000D03*
X263795000Y-166740000D03*
X265995000Y-162540000D03*
X265995000Y-166740000D03*
%TD*%
D14*
%TO.C,J8*%
X220940000Y-197015000D03*
X220940000Y-195765000D03*
X220940000Y-194515000D03*
X220940000Y-193265000D03*
X220940000Y-192015000D03*
X220940000Y-190765000D03*
D15*
X217740000Y-198865000D03*
X217740000Y-188915000D03*
%TD*%
D20*
%TO.C,U2*%
X267710000Y-198340000D03*
X266440000Y-198340000D03*
X265170000Y-198340000D03*
X263900000Y-198340000D03*
X262630000Y-198340000D03*
X261360000Y-198340000D03*
X260090000Y-198340000D03*
X258820000Y-198340000D03*
X257550000Y-198340000D03*
X256280000Y-198340000D03*
X255010000Y-198340000D03*
X253740000Y-198340000D03*
X252470000Y-198340000D03*
X251200000Y-198340000D03*
D21*
X249680000Y-196330000D03*
X249680000Y-195055000D03*
X249680000Y-193780000D03*
X249680000Y-192510000D03*
X249680000Y-191240000D03*
X249680000Y-189980000D03*
X249680000Y-188710000D03*
X249680000Y-187440000D03*
X249680000Y-186170000D03*
X249680000Y-184895000D03*
X249680000Y-183630000D03*
X249680000Y-182360000D03*
D20*
X251190000Y-180350000D03*
X252460000Y-180350000D03*
X253730000Y-180350000D03*
X255000000Y-180350000D03*
X256270000Y-180350000D03*
X257540000Y-180350000D03*
X258810000Y-180350000D03*
X260080000Y-180350000D03*
X261350000Y-180350000D03*
X262620000Y-180350000D03*
X263890000Y-180350000D03*
X265160000Y-180350000D03*
X266430000Y-180350000D03*
X267700000Y-180350000D03*
D22*
X260195000Y-190340000D03*
%TD*%
D10*
%TO.C,R62*%
X263650000Y-203410000D03*
X263650000Y-205710000D03*
%TD*%
D19*
%TO.C,SW6*%
X263795000Y-169240000D03*
X263795000Y-173440000D03*
X265995000Y-169240000D03*
X265995000Y-173440000D03*
%TD*%
D12*
%TO.C,J2*%
X218360000Y-165920000D03*
%TD*%
D13*
%TO.C,C2*%
X224295000Y-173840000D03*
X224295000Y-176240000D03*
%TD*%
D10*
%TO.C,R7*%
X243754000Y-203366000D03*
X243754000Y-205666000D03*
%TD*%
D18*
%TO.C,Q12*%
X241706000Y-197658000D03*
X241706000Y-199558000D03*
X239706000Y-198608000D03*
%TD*%
D23*
%TO.C,U1*%
X231570000Y-168870000D03*
X229270000Y-168870000D03*
X226970000Y-168870000D03*
D24*
X229270000Y-162570000D03*
%TD*%
D13*
%TO.C,C4*%
X226595000Y-173840000D03*
X226595000Y-176240000D03*
%TD*%
D25*
%TO.C,D1*%
X223290000Y-170340000D03*
X223290000Y-166340000D03*
%TD*%
D16*
%TO.C,J20*%
X265316000Y-210474000D03*
X264066000Y-210474000D03*
X262816000Y-210474000D03*
X261566000Y-210474000D03*
X260316000Y-210474000D03*
X259066000Y-210474000D03*
D17*
X267166000Y-213674000D03*
X257216000Y-213674000D03*
%TD*%
D26*
%TO.C,SW1*%
X236070000Y-164600000D03*
X239070000Y-164600000D03*
X240520000Y-164600000D03*
D27*
X242220000Y-161200000D03*
X234420000Y-161200000D03*
X242220000Y-163400000D03*
X234420000Y-163400000D03*
%TD*%
D10*
%TO.C,R6*%
X184262000Y-197458000D03*
X184262000Y-199758000D03*
%TD*%
D11*
%TO.C,R4*%
X210845000Y-204140000D03*
X213145000Y-204140000D03*
%TD*%
D12*
%TO.C,J1*%
X158360000Y-171005000D03*
%TD*%
D13*
%TO.C,C7*%
X173395000Y-173840000D03*
X173395000Y-176240000D03*
%TD*%
D14*
%TO.C,J6*%
X160940000Y-183950000D03*
X160940000Y-182700000D03*
X160940000Y-181450000D03*
X160940000Y-180200000D03*
D15*
X157740000Y-185800000D03*
X157740000Y-178350000D03*
%TD*%
D13*
%TO.C,C5*%
X168895000Y-173840000D03*
X168895000Y-176240000D03*
%TD*%
%TO.C,C6*%
X171195000Y-173840000D03*
X171195000Y-176240000D03*
%TD*%
D16*
%TO.C,J05*%
X191346000Y-210474000D03*
X190096000Y-210474000D03*
X188846000Y-210474000D03*
X187596000Y-210474000D03*
X186346000Y-210474000D03*
X185096000Y-210474000D03*
D17*
X193196000Y-213674000D03*
X183246000Y-213674000D03*
%TD*%
D16*
%TO.C,J3*%
X177295000Y-210474000D03*
X176045000Y-210474000D03*
X174795000Y-210474000D03*
X173545000Y-210474000D03*
X172295000Y-210474000D03*
X171045000Y-210474000D03*
D17*
X179145000Y-213674000D03*
X169195000Y-213674000D03*
%TD*%
D18*
%TO.C,Q13*%
X181722000Y-203566000D03*
X181722000Y-205466000D03*
X179722000Y-204516000D03*
%TD*%
%TO.C,Q24*%
X201380000Y-203620000D03*
X201380000Y-205520000D03*
X199380000Y-204570000D03*
%TD*%
D19*
%TO.C,SW3*%
X203795000Y-162540000D03*
X203795000Y-166740000D03*
X205995000Y-162540000D03*
X205995000Y-166740000D03*
%TD*%
D14*
%TO.C,J8*%
X160940000Y-197015000D03*
X160940000Y-195765000D03*
X160940000Y-194515000D03*
X160940000Y-193265000D03*
X160940000Y-192015000D03*
X160940000Y-190765000D03*
D15*
X157740000Y-198865000D03*
X157740000Y-188915000D03*
%TD*%
D20*
%TO.C,U2*%
X207710000Y-198340000D03*
X206440000Y-198340000D03*
X205170000Y-198340000D03*
X203900000Y-198340000D03*
X202630000Y-198340000D03*
X201360000Y-198340000D03*
X200090000Y-198340000D03*
X198820000Y-198340000D03*
X197550000Y-198340000D03*
X196280000Y-198340000D03*
X195010000Y-198340000D03*
X193740000Y-198340000D03*
X192470000Y-198340000D03*
X191200000Y-198340000D03*
D21*
X189680000Y-196330000D03*
X189680000Y-195055000D03*
X189680000Y-193780000D03*
X189680000Y-192510000D03*
X189680000Y-191240000D03*
X189680000Y-189980000D03*
X189680000Y-188710000D03*
X189680000Y-187440000D03*
X189680000Y-186170000D03*
X189680000Y-184895000D03*
X189680000Y-183630000D03*
X189680000Y-182360000D03*
D20*
X191190000Y-180350000D03*
X192460000Y-180350000D03*
X193730000Y-180350000D03*
X195000000Y-180350000D03*
X196270000Y-180350000D03*
X197540000Y-180350000D03*
X198810000Y-180350000D03*
X200080000Y-180350000D03*
X201350000Y-180350000D03*
X202620000Y-180350000D03*
X203890000Y-180350000D03*
X205160000Y-180350000D03*
X206430000Y-180350000D03*
X207700000Y-180350000D03*
D22*
X200195000Y-190340000D03*
%TD*%
D10*
%TO.C,R62*%
X203650000Y-203410000D03*
X203650000Y-205710000D03*
%TD*%
D19*
%TO.C,SW6*%
X203795000Y-169240000D03*
X203795000Y-173440000D03*
X205995000Y-169240000D03*
X205995000Y-173440000D03*
%TD*%
D12*
%TO.C,J2*%
X158360000Y-165920000D03*
%TD*%
D13*
%TO.C,C2*%
X164295000Y-173840000D03*
X164295000Y-176240000D03*
%TD*%
D10*
%TO.C,R7*%
X183754000Y-203366000D03*
X183754000Y-205666000D03*
%TD*%
D18*
%TO.C,Q12*%
X181706000Y-197658000D03*
X181706000Y-199558000D03*
X179706000Y-198608000D03*
%TD*%
D23*
%TO.C,U1*%
X171570000Y-168870000D03*
X169270000Y-168870000D03*
X166970000Y-168870000D03*
D24*
X169270000Y-162570000D03*
%TD*%
D13*
%TO.C,C4*%
X166595000Y-173840000D03*
X166595000Y-176240000D03*
%TD*%
D25*
%TO.C,D1*%
X163290000Y-170340000D03*
X163290000Y-166340000D03*
%TD*%
D16*
%TO.C,J20*%
X205316000Y-210474000D03*
X204066000Y-210474000D03*
X202816000Y-210474000D03*
X201566000Y-210474000D03*
X200316000Y-210474000D03*
X199066000Y-210474000D03*
D17*
X207166000Y-213674000D03*
X197216000Y-213674000D03*
%TD*%
D26*
%TO.C,SW1*%
X176070000Y-164600000D03*
X179070000Y-164600000D03*
X180520000Y-164600000D03*
D27*
X182220000Y-161200000D03*
X174420000Y-161200000D03*
X182220000Y-163400000D03*
X174420000Y-163400000D03*
%TD*%
D10*
%TO.C,R6*%
X124262000Y-197458000D03*
X124262000Y-199758000D03*
%TD*%
D11*
%TO.C,R4*%
X150845000Y-204140000D03*
X153145000Y-204140000D03*
%TD*%
D12*
%TO.C,J1*%
X98360000Y-171005000D03*
%TD*%
D13*
%TO.C,C7*%
X113395000Y-173840000D03*
X113395000Y-176240000D03*
%TD*%
D14*
%TO.C,J6*%
X100940000Y-183950000D03*
X100940000Y-182700000D03*
X100940000Y-181450000D03*
X100940000Y-180200000D03*
D15*
X97740000Y-185800000D03*
X97740000Y-178350000D03*
%TD*%
D13*
%TO.C,C5*%
X108895000Y-173840000D03*
X108895000Y-176240000D03*
%TD*%
%TO.C,C6*%
X111195000Y-173840000D03*
X111195000Y-176240000D03*
%TD*%
D16*
%TO.C,J05*%
X131346000Y-210474000D03*
X130096000Y-210474000D03*
X128846000Y-210474000D03*
X127596000Y-210474000D03*
X126346000Y-210474000D03*
X125096000Y-210474000D03*
D17*
X133196000Y-213674000D03*
X123246000Y-213674000D03*
%TD*%
D16*
%TO.C,J3*%
X117295000Y-210474000D03*
X116045000Y-210474000D03*
X114795000Y-210474000D03*
X113545000Y-210474000D03*
X112295000Y-210474000D03*
X111045000Y-210474000D03*
D17*
X119145000Y-213674000D03*
X109195000Y-213674000D03*
%TD*%
D18*
%TO.C,Q13*%
X121722000Y-203566000D03*
X121722000Y-205466000D03*
X119722000Y-204516000D03*
%TD*%
%TO.C,Q24*%
X141380000Y-203620000D03*
X141380000Y-205520000D03*
X139380000Y-204570000D03*
%TD*%
D19*
%TO.C,SW3*%
X143795000Y-162540000D03*
X143795000Y-166740000D03*
X145995000Y-162540000D03*
X145995000Y-166740000D03*
%TD*%
D14*
%TO.C,J8*%
X100940000Y-197015000D03*
X100940000Y-195765000D03*
X100940000Y-194515000D03*
X100940000Y-193265000D03*
X100940000Y-192015000D03*
X100940000Y-190765000D03*
D15*
X97740000Y-198865000D03*
X97740000Y-188915000D03*
%TD*%
D20*
%TO.C,U2*%
X147710000Y-198340000D03*
X146440000Y-198340000D03*
X145170000Y-198340000D03*
X143900000Y-198340000D03*
X142630000Y-198340000D03*
X141360000Y-198340000D03*
X140090000Y-198340000D03*
X138820000Y-198340000D03*
X137550000Y-198340000D03*
X136280000Y-198340000D03*
X135010000Y-198340000D03*
X133740000Y-198340000D03*
X132470000Y-198340000D03*
X131200000Y-198340000D03*
D21*
X129680000Y-196330000D03*
X129680000Y-195055000D03*
X129680000Y-193780000D03*
X129680000Y-192510000D03*
X129680000Y-191240000D03*
X129680000Y-189980000D03*
X129680000Y-188710000D03*
X129680000Y-187440000D03*
X129680000Y-186170000D03*
X129680000Y-184895000D03*
X129680000Y-183630000D03*
X129680000Y-182360000D03*
D20*
X131190000Y-180350000D03*
X132460000Y-180350000D03*
X133730000Y-180350000D03*
X135000000Y-180350000D03*
X136270000Y-180350000D03*
X137540000Y-180350000D03*
X138810000Y-180350000D03*
X140080000Y-180350000D03*
X141350000Y-180350000D03*
X142620000Y-180350000D03*
X143890000Y-180350000D03*
X145160000Y-180350000D03*
X146430000Y-180350000D03*
X147700000Y-180350000D03*
D22*
X140195000Y-190340000D03*
%TD*%
D10*
%TO.C,R62*%
X143650000Y-203410000D03*
X143650000Y-205710000D03*
%TD*%
D19*
%TO.C,SW6*%
X143795000Y-169240000D03*
X143795000Y-173440000D03*
X145995000Y-169240000D03*
X145995000Y-173440000D03*
%TD*%
D12*
%TO.C,J2*%
X98360000Y-165920000D03*
%TD*%
D13*
%TO.C,C2*%
X104295000Y-173840000D03*
X104295000Y-176240000D03*
%TD*%
D10*
%TO.C,R7*%
X123754000Y-203366000D03*
X123754000Y-205666000D03*
%TD*%
D18*
%TO.C,Q12*%
X121706000Y-197658000D03*
X121706000Y-199558000D03*
X119706000Y-198608000D03*
%TD*%
D23*
%TO.C,U1*%
X111570000Y-168870000D03*
X109270000Y-168870000D03*
X106970000Y-168870000D03*
D24*
X109270000Y-162570000D03*
%TD*%
D13*
%TO.C,C4*%
X106595000Y-173840000D03*
X106595000Y-176240000D03*
%TD*%
D25*
%TO.C,D1*%
X103290000Y-170340000D03*
X103290000Y-166340000D03*
%TD*%
D16*
%TO.C,J20*%
X145316000Y-210474000D03*
X144066000Y-210474000D03*
X142816000Y-210474000D03*
X141566000Y-210474000D03*
X140316000Y-210474000D03*
X139066000Y-210474000D03*
D17*
X147166000Y-213674000D03*
X137216000Y-213674000D03*
%TD*%
D26*
%TO.C,SW1*%
X116070000Y-164600000D03*
X119070000Y-164600000D03*
X120520000Y-164600000D03*
D27*
X122220000Y-161200000D03*
X114420000Y-161200000D03*
X122220000Y-163400000D03*
X114420000Y-163400000D03*
%TD*%
D10*
%TO.C,R6*%
X64262000Y-197458000D03*
X64262000Y-199758000D03*
%TD*%
D11*
%TO.C,R4*%
X90845000Y-204140000D03*
X93145000Y-204140000D03*
%TD*%
D12*
%TO.C,J1*%
X38360000Y-171005000D03*
%TD*%
D13*
%TO.C,C7*%
X53395000Y-173840000D03*
X53395000Y-176240000D03*
%TD*%
D14*
%TO.C,J6*%
X40940000Y-183950000D03*
X40940000Y-182700000D03*
X40940000Y-181450000D03*
X40940000Y-180200000D03*
D15*
X37740000Y-185800000D03*
X37740000Y-178350000D03*
%TD*%
D13*
%TO.C,C5*%
X48895000Y-173840000D03*
X48895000Y-176240000D03*
%TD*%
%TO.C,C6*%
X51195000Y-173840000D03*
X51195000Y-176240000D03*
%TD*%
D16*
%TO.C,J05*%
X71346000Y-210474000D03*
X70096000Y-210474000D03*
X68846000Y-210474000D03*
X67596000Y-210474000D03*
X66346000Y-210474000D03*
X65096000Y-210474000D03*
D17*
X73196000Y-213674000D03*
X63246000Y-213674000D03*
%TD*%
D16*
%TO.C,J3*%
X57295000Y-210474000D03*
X56045000Y-210474000D03*
X54795000Y-210474000D03*
X53545000Y-210474000D03*
X52295000Y-210474000D03*
X51045000Y-210474000D03*
D17*
X59145000Y-213674000D03*
X49195000Y-213674000D03*
%TD*%
D18*
%TO.C,Q13*%
X61722000Y-203566000D03*
X61722000Y-205466000D03*
X59722000Y-204516000D03*
%TD*%
%TO.C,Q24*%
X81380000Y-203620000D03*
X81380000Y-205520000D03*
X79380000Y-204570000D03*
%TD*%
D19*
%TO.C,SW3*%
X83795000Y-162540000D03*
X83795000Y-166740000D03*
X85995000Y-162540000D03*
X85995000Y-166740000D03*
%TD*%
D14*
%TO.C,J8*%
X40940000Y-197015000D03*
X40940000Y-195765000D03*
X40940000Y-194515000D03*
X40940000Y-193265000D03*
X40940000Y-192015000D03*
X40940000Y-190765000D03*
D15*
X37740000Y-198865000D03*
X37740000Y-188915000D03*
%TD*%
D20*
%TO.C,U2*%
X87710000Y-198340000D03*
X86440000Y-198340000D03*
X85170000Y-198340000D03*
X83900000Y-198340000D03*
X82630000Y-198340000D03*
X81360000Y-198340000D03*
X80090000Y-198340000D03*
X78820000Y-198340000D03*
X77550000Y-198340000D03*
X76280000Y-198340000D03*
X75010000Y-198340000D03*
X73740000Y-198340000D03*
X72470000Y-198340000D03*
X71200000Y-198340000D03*
D21*
X69680000Y-196330000D03*
X69680000Y-195055000D03*
X69680000Y-193780000D03*
X69680000Y-192510000D03*
X69680000Y-191240000D03*
X69680000Y-189980000D03*
X69680000Y-188710000D03*
X69680000Y-187440000D03*
X69680000Y-186170000D03*
X69680000Y-184895000D03*
X69680000Y-183630000D03*
X69680000Y-182360000D03*
D20*
X71190000Y-180350000D03*
X72460000Y-180350000D03*
X73730000Y-180350000D03*
X75000000Y-180350000D03*
X76270000Y-180350000D03*
X77540000Y-180350000D03*
X78810000Y-180350000D03*
X80080000Y-180350000D03*
X81350000Y-180350000D03*
X82620000Y-180350000D03*
X83890000Y-180350000D03*
X85160000Y-180350000D03*
X86430000Y-180350000D03*
X87700000Y-180350000D03*
D22*
X80195000Y-190340000D03*
%TD*%
D10*
%TO.C,R62*%
X83650000Y-203410000D03*
X83650000Y-205710000D03*
%TD*%
D19*
%TO.C,SW6*%
X83795000Y-169240000D03*
X83795000Y-173440000D03*
X85995000Y-169240000D03*
X85995000Y-173440000D03*
%TD*%
D12*
%TO.C,J2*%
X38360000Y-165920000D03*
%TD*%
D13*
%TO.C,C2*%
X44295000Y-173840000D03*
X44295000Y-176240000D03*
%TD*%
D10*
%TO.C,R7*%
X63754000Y-203366000D03*
X63754000Y-205666000D03*
%TD*%
D18*
%TO.C,Q12*%
X61706000Y-197658000D03*
X61706000Y-199558000D03*
X59706000Y-198608000D03*
%TD*%
D23*
%TO.C,U1*%
X51570000Y-168870000D03*
X49270000Y-168870000D03*
X46970000Y-168870000D03*
D24*
X49270000Y-162570000D03*
%TD*%
D13*
%TO.C,C4*%
X46595000Y-173840000D03*
X46595000Y-176240000D03*
%TD*%
D25*
%TO.C,D1*%
X43290000Y-170340000D03*
X43290000Y-166340000D03*
%TD*%
D16*
%TO.C,J20*%
X85316000Y-210474000D03*
X84066000Y-210474000D03*
X82816000Y-210474000D03*
X81566000Y-210474000D03*
X80316000Y-210474000D03*
X79066000Y-210474000D03*
D17*
X87166000Y-213674000D03*
X77216000Y-213674000D03*
%TD*%
D26*
%TO.C,SW1*%
X56070000Y-164600000D03*
X59070000Y-164600000D03*
X60520000Y-164600000D03*
D27*
X62220000Y-161200000D03*
X54420000Y-161200000D03*
X62220000Y-163400000D03*
X54420000Y-163400000D03*
%TD*%
D10*
%TO.C,R6*%
X304262000Y-142858000D03*
X304262000Y-145158000D03*
%TD*%
D11*
%TO.C,R4*%
X330845000Y-149540000D03*
X333145000Y-149540000D03*
%TD*%
D12*
%TO.C,J1*%
X278360000Y-116405000D03*
%TD*%
D13*
%TO.C,C7*%
X293395000Y-119240000D03*
X293395000Y-121640000D03*
%TD*%
D14*
%TO.C,J6*%
X280940000Y-129350000D03*
X280940000Y-128100000D03*
X280940000Y-126850000D03*
X280940000Y-125600000D03*
D15*
X277740000Y-131200000D03*
X277740000Y-123750000D03*
%TD*%
D13*
%TO.C,C5*%
X288895000Y-119240000D03*
X288895000Y-121640000D03*
%TD*%
%TO.C,C6*%
X291195000Y-119240000D03*
X291195000Y-121640000D03*
%TD*%
D16*
%TO.C,J05*%
X311346000Y-155874000D03*
X310096000Y-155874000D03*
X308846000Y-155874000D03*
X307596000Y-155874000D03*
X306346000Y-155874000D03*
X305096000Y-155874000D03*
D17*
X313196000Y-159074000D03*
X303246000Y-159074000D03*
%TD*%
D16*
%TO.C,J3*%
X297295000Y-155874000D03*
X296045000Y-155874000D03*
X294795000Y-155874000D03*
X293545000Y-155874000D03*
X292295000Y-155874000D03*
X291045000Y-155874000D03*
D17*
X299145000Y-159074000D03*
X289195000Y-159074000D03*
%TD*%
D18*
%TO.C,Q13*%
X301722000Y-148966000D03*
X301722000Y-150866000D03*
X299722000Y-149916000D03*
%TD*%
%TO.C,Q24*%
X321380000Y-149020000D03*
X321380000Y-150920000D03*
X319380000Y-149970000D03*
%TD*%
D19*
%TO.C,SW3*%
X323795000Y-107940000D03*
X323795000Y-112140000D03*
X325995000Y-107940000D03*
X325995000Y-112140000D03*
%TD*%
D14*
%TO.C,J8*%
X280940000Y-142415000D03*
X280940000Y-141165000D03*
X280940000Y-139915000D03*
X280940000Y-138665000D03*
X280940000Y-137415000D03*
X280940000Y-136165000D03*
D15*
X277740000Y-144265000D03*
X277740000Y-134315000D03*
%TD*%
D20*
%TO.C,U2*%
X327710000Y-143740000D03*
X326440000Y-143740000D03*
X325170000Y-143740000D03*
X323900000Y-143740000D03*
X322630000Y-143740000D03*
X321360000Y-143740000D03*
X320090000Y-143740000D03*
X318820000Y-143740000D03*
X317550000Y-143740000D03*
X316280000Y-143740000D03*
X315010000Y-143740000D03*
X313740000Y-143740000D03*
X312470000Y-143740000D03*
X311200000Y-143740000D03*
D21*
X309680000Y-141730000D03*
X309680000Y-140455000D03*
X309680000Y-139180000D03*
X309680000Y-137910000D03*
X309680000Y-136640000D03*
X309680000Y-135380000D03*
X309680000Y-134110000D03*
X309680000Y-132840000D03*
X309680000Y-131570000D03*
X309680000Y-130295000D03*
X309680000Y-129030000D03*
X309680000Y-127760000D03*
D20*
X311190000Y-125750000D03*
X312460000Y-125750000D03*
X313730000Y-125750000D03*
X315000000Y-125750000D03*
X316270000Y-125750000D03*
X317540000Y-125750000D03*
X318810000Y-125750000D03*
X320080000Y-125750000D03*
X321350000Y-125750000D03*
X322620000Y-125750000D03*
X323890000Y-125750000D03*
X325160000Y-125750000D03*
X326430000Y-125750000D03*
X327700000Y-125750000D03*
D22*
X320195000Y-135740000D03*
%TD*%
D10*
%TO.C,R62*%
X323650000Y-148810000D03*
X323650000Y-151110000D03*
%TD*%
D19*
%TO.C,SW6*%
X323795000Y-114640000D03*
X323795000Y-118840000D03*
X325995000Y-114640000D03*
X325995000Y-118840000D03*
%TD*%
D12*
%TO.C,J2*%
X278360000Y-111320000D03*
%TD*%
D13*
%TO.C,C2*%
X284295000Y-119240000D03*
X284295000Y-121640000D03*
%TD*%
D10*
%TO.C,R7*%
X303754000Y-148766000D03*
X303754000Y-151066000D03*
%TD*%
D18*
%TO.C,Q12*%
X301706000Y-143058000D03*
X301706000Y-144958000D03*
X299706000Y-144008000D03*
%TD*%
D23*
%TO.C,U1*%
X291570000Y-114270000D03*
X289270000Y-114270000D03*
X286970000Y-114270000D03*
D24*
X289270000Y-107970000D03*
%TD*%
D13*
%TO.C,C4*%
X286595000Y-119240000D03*
X286595000Y-121640000D03*
%TD*%
D25*
%TO.C,D1*%
X283290000Y-115740000D03*
X283290000Y-111740000D03*
%TD*%
D16*
%TO.C,J20*%
X325316000Y-155874000D03*
X324066000Y-155874000D03*
X322816000Y-155874000D03*
X321566000Y-155874000D03*
X320316000Y-155874000D03*
X319066000Y-155874000D03*
D17*
X327166000Y-159074000D03*
X317216000Y-159074000D03*
%TD*%
D26*
%TO.C,SW1*%
X296070000Y-110000000D03*
X299070000Y-110000000D03*
X300520000Y-110000000D03*
D27*
X302220000Y-106600000D03*
X294420000Y-106600000D03*
X302220000Y-108800000D03*
X294420000Y-108800000D03*
%TD*%
D10*
%TO.C,R6*%
X244262000Y-142858000D03*
X244262000Y-145158000D03*
%TD*%
D11*
%TO.C,R4*%
X270845000Y-149540000D03*
X273145000Y-149540000D03*
%TD*%
D12*
%TO.C,J1*%
X218360000Y-116405000D03*
%TD*%
D13*
%TO.C,C7*%
X233395000Y-119240000D03*
X233395000Y-121640000D03*
%TD*%
D14*
%TO.C,J6*%
X220940000Y-129350000D03*
X220940000Y-128100000D03*
X220940000Y-126850000D03*
X220940000Y-125600000D03*
D15*
X217740000Y-131200000D03*
X217740000Y-123750000D03*
%TD*%
D13*
%TO.C,C5*%
X228895000Y-119240000D03*
X228895000Y-121640000D03*
%TD*%
%TO.C,C6*%
X231195000Y-119240000D03*
X231195000Y-121640000D03*
%TD*%
D16*
%TO.C,J05*%
X251346000Y-155874000D03*
X250096000Y-155874000D03*
X248846000Y-155874000D03*
X247596000Y-155874000D03*
X246346000Y-155874000D03*
X245096000Y-155874000D03*
D17*
X253196000Y-159074000D03*
X243246000Y-159074000D03*
%TD*%
D16*
%TO.C,J3*%
X237295000Y-155874000D03*
X236045000Y-155874000D03*
X234795000Y-155874000D03*
X233545000Y-155874000D03*
X232295000Y-155874000D03*
X231045000Y-155874000D03*
D17*
X239145000Y-159074000D03*
X229195000Y-159074000D03*
%TD*%
D18*
%TO.C,Q13*%
X241722000Y-148966000D03*
X241722000Y-150866000D03*
X239722000Y-149916000D03*
%TD*%
%TO.C,Q24*%
X261380000Y-149020000D03*
X261380000Y-150920000D03*
X259380000Y-149970000D03*
%TD*%
D19*
%TO.C,SW3*%
X263795000Y-107940000D03*
X263795000Y-112140000D03*
X265995000Y-107940000D03*
X265995000Y-112140000D03*
%TD*%
D14*
%TO.C,J8*%
X220940000Y-142415000D03*
X220940000Y-141165000D03*
X220940000Y-139915000D03*
X220940000Y-138665000D03*
X220940000Y-137415000D03*
X220940000Y-136165000D03*
D15*
X217740000Y-144265000D03*
X217740000Y-134315000D03*
%TD*%
D20*
%TO.C,U2*%
X267710000Y-143740000D03*
X266440000Y-143740000D03*
X265170000Y-143740000D03*
X263900000Y-143740000D03*
X262630000Y-143740000D03*
X261360000Y-143740000D03*
X260090000Y-143740000D03*
X258820000Y-143740000D03*
X257550000Y-143740000D03*
X256280000Y-143740000D03*
X255010000Y-143740000D03*
X253740000Y-143740000D03*
X252470000Y-143740000D03*
X251200000Y-143740000D03*
D21*
X249680000Y-141730000D03*
X249680000Y-140455000D03*
X249680000Y-139180000D03*
X249680000Y-137910000D03*
X249680000Y-136640000D03*
X249680000Y-135380000D03*
X249680000Y-134110000D03*
X249680000Y-132840000D03*
X249680000Y-131570000D03*
X249680000Y-130295000D03*
X249680000Y-129030000D03*
X249680000Y-127760000D03*
D20*
X251190000Y-125750000D03*
X252460000Y-125750000D03*
X253730000Y-125750000D03*
X255000000Y-125750000D03*
X256270000Y-125750000D03*
X257540000Y-125750000D03*
X258810000Y-125750000D03*
X260080000Y-125750000D03*
X261350000Y-125750000D03*
X262620000Y-125750000D03*
X263890000Y-125750000D03*
X265160000Y-125750000D03*
X266430000Y-125750000D03*
X267700000Y-125750000D03*
D22*
X260195000Y-135740000D03*
%TD*%
D10*
%TO.C,R62*%
X263650000Y-148810000D03*
X263650000Y-151110000D03*
%TD*%
D19*
%TO.C,SW6*%
X263795000Y-114640000D03*
X263795000Y-118840000D03*
X265995000Y-114640000D03*
X265995000Y-118840000D03*
%TD*%
D12*
%TO.C,J2*%
X218360000Y-111320000D03*
%TD*%
D13*
%TO.C,C2*%
X224295000Y-119240000D03*
X224295000Y-121640000D03*
%TD*%
D10*
%TO.C,R7*%
X243754000Y-148766000D03*
X243754000Y-151066000D03*
%TD*%
D18*
%TO.C,Q12*%
X241706000Y-143058000D03*
X241706000Y-144958000D03*
X239706000Y-144008000D03*
%TD*%
D23*
%TO.C,U1*%
X231570000Y-114270000D03*
X229270000Y-114270000D03*
X226970000Y-114270000D03*
D24*
X229270000Y-107970000D03*
%TD*%
D13*
%TO.C,C4*%
X226595000Y-119240000D03*
X226595000Y-121640000D03*
%TD*%
D25*
%TO.C,D1*%
X223290000Y-115740000D03*
X223290000Y-111740000D03*
%TD*%
D16*
%TO.C,J20*%
X265316000Y-155874000D03*
X264066000Y-155874000D03*
X262816000Y-155874000D03*
X261566000Y-155874000D03*
X260316000Y-155874000D03*
X259066000Y-155874000D03*
D17*
X267166000Y-159074000D03*
X257216000Y-159074000D03*
%TD*%
D26*
%TO.C,SW1*%
X236070000Y-110000000D03*
X239070000Y-110000000D03*
X240520000Y-110000000D03*
D27*
X242220000Y-106600000D03*
X234420000Y-106600000D03*
X242220000Y-108800000D03*
X234420000Y-108800000D03*
%TD*%
D10*
%TO.C,R6*%
X184262000Y-142858000D03*
X184262000Y-145158000D03*
%TD*%
D11*
%TO.C,R4*%
X210845000Y-149540000D03*
X213145000Y-149540000D03*
%TD*%
D12*
%TO.C,J1*%
X158360000Y-116405000D03*
%TD*%
D13*
%TO.C,C7*%
X173395000Y-119240000D03*
X173395000Y-121640000D03*
%TD*%
D14*
%TO.C,J6*%
X160940000Y-129350000D03*
X160940000Y-128100000D03*
X160940000Y-126850000D03*
X160940000Y-125600000D03*
D15*
X157740000Y-131200000D03*
X157740000Y-123750000D03*
%TD*%
D13*
%TO.C,C5*%
X168895000Y-119240000D03*
X168895000Y-121640000D03*
%TD*%
%TO.C,C6*%
X171195000Y-119240000D03*
X171195000Y-121640000D03*
%TD*%
D16*
%TO.C,J05*%
X191346000Y-155874000D03*
X190096000Y-155874000D03*
X188846000Y-155874000D03*
X187596000Y-155874000D03*
X186346000Y-155874000D03*
X185096000Y-155874000D03*
D17*
X193196000Y-159074000D03*
X183246000Y-159074000D03*
%TD*%
D16*
%TO.C,J3*%
X177295000Y-155874000D03*
X176045000Y-155874000D03*
X174795000Y-155874000D03*
X173545000Y-155874000D03*
X172295000Y-155874000D03*
X171045000Y-155874000D03*
D17*
X179145000Y-159074000D03*
X169195000Y-159074000D03*
%TD*%
D18*
%TO.C,Q13*%
X181722000Y-148966000D03*
X181722000Y-150866000D03*
X179722000Y-149916000D03*
%TD*%
%TO.C,Q24*%
X201380000Y-149020000D03*
X201380000Y-150920000D03*
X199380000Y-149970000D03*
%TD*%
D19*
%TO.C,SW3*%
X203795000Y-107940000D03*
X203795000Y-112140000D03*
X205995000Y-107940000D03*
X205995000Y-112140000D03*
%TD*%
D14*
%TO.C,J8*%
X160940000Y-142415000D03*
X160940000Y-141165000D03*
X160940000Y-139915000D03*
X160940000Y-138665000D03*
X160940000Y-137415000D03*
X160940000Y-136165000D03*
D15*
X157740000Y-144265000D03*
X157740000Y-134315000D03*
%TD*%
D20*
%TO.C,U2*%
X207710000Y-143740000D03*
X206440000Y-143740000D03*
X205170000Y-143740000D03*
X203900000Y-143740000D03*
X202630000Y-143740000D03*
X201360000Y-143740000D03*
X200090000Y-143740000D03*
X198820000Y-143740000D03*
X197550000Y-143740000D03*
X196280000Y-143740000D03*
X195010000Y-143740000D03*
X193740000Y-143740000D03*
X192470000Y-143740000D03*
X191200000Y-143740000D03*
D21*
X189680000Y-141730000D03*
X189680000Y-140455000D03*
X189680000Y-139180000D03*
X189680000Y-137910000D03*
X189680000Y-136640000D03*
X189680000Y-135380000D03*
X189680000Y-134110000D03*
X189680000Y-132840000D03*
X189680000Y-131570000D03*
X189680000Y-130295000D03*
X189680000Y-129030000D03*
X189680000Y-127760000D03*
D20*
X191190000Y-125750000D03*
X192460000Y-125750000D03*
X193730000Y-125750000D03*
X195000000Y-125750000D03*
X196270000Y-125750000D03*
X197540000Y-125750000D03*
X198810000Y-125750000D03*
X200080000Y-125750000D03*
X201350000Y-125750000D03*
X202620000Y-125750000D03*
X203890000Y-125750000D03*
X205160000Y-125750000D03*
X206430000Y-125750000D03*
X207700000Y-125750000D03*
D22*
X200195000Y-135740000D03*
%TD*%
D10*
%TO.C,R62*%
X203650000Y-148810000D03*
X203650000Y-151110000D03*
%TD*%
D19*
%TO.C,SW6*%
X203795000Y-114640000D03*
X203795000Y-118840000D03*
X205995000Y-114640000D03*
X205995000Y-118840000D03*
%TD*%
D12*
%TO.C,J2*%
X158360000Y-111320000D03*
%TD*%
D13*
%TO.C,C2*%
X164295000Y-119240000D03*
X164295000Y-121640000D03*
%TD*%
D10*
%TO.C,R7*%
X183754000Y-148766000D03*
X183754000Y-151066000D03*
%TD*%
D18*
%TO.C,Q12*%
X181706000Y-143058000D03*
X181706000Y-144958000D03*
X179706000Y-144008000D03*
%TD*%
D23*
%TO.C,U1*%
X171570000Y-114270000D03*
X169270000Y-114270000D03*
X166970000Y-114270000D03*
D24*
X169270000Y-107970000D03*
%TD*%
D13*
%TO.C,C4*%
X166595000Y-119240000D03*
X166595000Y-121640000D03*
%TD*%
D25*
%TO.C,D1*%
X163290000Y-115740000D03*
X163290000Y-111740000D03*
%TD*%
D16*
%TO.C,J20*%
X205316000Y-155874000D03*
X204066000Y-155874000D03*
X202816000Y-155874000D03*
X201566000Y-155874000D03*
X200316000Y-155874000D03*
X199066000Y-155874000D03*
D17*
X207166000Y-159074000D03*
X197216000Y-159074000D03*
%TD*%
D26*
%TO.C,SW1*%
X176070000Y-110000000D03*
X179070000Y-110000000D03*
X180520000Y-110000000D03*
D27*
X182220000Y-106600000D03*
X174420000Y-106600000D03*
X182220000Y-108800000D03*
X174420000Y-108800000D03*
%TD*%
D10*
%TO.C,R6*%
X124262000Y-142858000D03*
X124262000Y-145158000D03*
%TD*%
D11*
%TO.C,R4*%
X150845000Y-149540000D03*
X153145000Y-149540000D03*
%TD*%
D12*
%TO.C,J1*%
X98360000Y-116405000D03*
%TD*%
D13*
%TO.C,C7*%
X113395000Y-119240000D03*
X113395000Y-121640000D03*
%TD*%
D14*
%TO.C,J6*%
X100940000Y-129350000D03*
X100940000Y-128100000D03*
X100940000Y-126850000D03*
X100940000Y-125600000D03*
D15*
X97740000Y-131200000D03*
X97740000Y-123750000D03*
%TD*%
D13*
%TO.C,C5*%
X108895000Y-119240000D03*
X108895000Y-121640000D03*
%TD*%
%TO.C,C6*%
X111195000Y-119240000D03*
X111195000Y-121640000D03*
%TD*%
D16*
%TO.C,J05*%
X131346000Y-155874000D03*
X130096000Y-155874000D03*
X128846000Y-155874000D03*
X127596000Y-155874000D03*
X126346000Y-155874000D03*
X125096000Y-155874000D03*
D17*
X133196000Y-159074000D03*
X123246000Y-159074000D03*
%TD*%
D16*
%TO.C,J3*%
X117295000Y-155874000D03*
X116045000Y-155874000D03*
X114795000Y-155874000D03*
X113545000Y-155874000D03*
X112295000Y-155874000D03*
X111045000Y-155874000D03*
D17*
X119145000Y-159074000D03*
X109195000Y-159074000D03*
%TD*%
D18*
%TO.C,Q13*%
X121722000Y-148966000D03*
X121722000Y-150866000D03*
X119722000Y-149916000D03*
%TD*%
%TO.C,Q24*%
X141380000Y-149020000D03*
X141380000Y-150920000D03*
X139380000Y-149970000D03*
%TD*%
D19*
%TO.C,SW3*%
X143795000Y-107940000D03*
X143795000Y-112140000D03*
X145995000Y-107940000D03*
X145995000Y-112140000D03*
%TD*%
D14*
%TO.C,J8*%
X100940000Y-142415000D03*
X100940000Y-141165000D03*
X100940000Y-139915000D03*
X100940000Y-138665000D03*
X100940000Y-137415000D03*
X100940000Y-136165000D03*
D15*
X97740000Y-144265000D03*
X97740000Y-134315000D03*
%TD*%
D20*
%TO.C,U2*%
X147710000Y-143740000D03*
X146440000Y-143740000D03*
X145170000Y-143740000D03*
X143900000Y-143740000D03*
X142630000Y-143740000D03*
X141360000Y-143740000D03*
X140090000Y-143740000D03*
X138820000Y-143740000D03*
X137550000Y-143740000D03*
X136280000Y-143740000D03*
X135010000Y-143740000D03*
X133740000Y-143740000D03*
X132470000Y-143740000D03*
X131200000Y-143740000D03*
D21*
X129680000Y-141730000D03*
X129680000Y-140455000D03*
X129680000Y-139180000D03*
X129680000Y-137910000D03*
X129680000Y-136640000D03*
X129680000Y-135380000D03*
X129680000Y-134110000D03*
X129680000Y-132840000D03*
X129680000Y-131570000D03*
X129680000Y-130295000D03*
X129680000Y-129030000D03*
X129680000Y-127760000D03*
D20*
X131190000Y-125750000D03*
X132460000Y-125750000D03*
X133730000Y-125750000D03*
X135000000Y-125750000D03*
X136270000Y-125750000D03*
X137540000Y-125750000D03*
X138810000Y-125750000D03*
X140080000Y-125750000D03*
X141350000Y-125750000D03*
X142620000Y-125750000D03*
X143890000Y-125750000D03*
X145160000Y-125750000D03*
X146430000Y-125750000D03*
X147700000Y-125750000D03*
D22*
X140195000Y-135740000D03*
%TD*%
D10*
%TO.C,R62*%
X143650000Y-148810000D03*
X143650000Y-151110000D03*
%TD*%
D19*
%TO.C,SW6*%
X143795000Y-114640000D03*
X143795000Y-118840000D03*
X145995000Y-114640000D03*
X145995000Y-118840000D03*
%TD*%
D12*
%TO.C,J2*%
X98360000Y-111320000D03*
%TD*%
D13*
%TO.C,C2*%
X104295000Y-119240000D03*
X104295000Y-121640000D03*
%TD*%
D10*
%TO.C,R7*%
X123754000Y-148766000D03*
X123754000Y-151066000D03*
%TD*%
D18*
%TO.C,Q12*%
X121706000Y-143058000D03*
X121706000Y-144958000D03*
X119706000Y-144008000D03*
%TD*%
D23*
%TO.C,U1*%
X111570000Y-114270000D03*
X109270000Y-114270000D03*
X106970000Y-114270000D03*
D24*
X109270000Y-107970000D03*
%TD*%
D13*
%TO.C,C4*%
X106595000Y-119240000D03*
X106595000Y-121640000D03*
%TD*%
D25*
%TO.C,D1*%
X103290000Y-115740000D03*
X103290000Y-111740000D03*
%TD*%
D16*
%TO.C,J20*%
X145316000Y-155874000D03*
X144066000Y-155874000D03*
X142816000Y-155874000D03*
X141566000Y-155874000D03*
X140316000Y-155874000D03*
X139066000Y-155874000D03*
D17*
X147166000Y-159074000D03*
X137216000Y-159074000D03*
%TD*%
D26*
%TO.C,SW1*%
X116070000Y-110000000D03*
X119070000Y-110000000D03*
X120520000Y-110000000D03*
D27*
X122220000Y-106600000D03*
X114420000Y-106600000D03*
X122220000Y-108800000D03*
X114420000Y-108800000D03*
%TD*%
D10*
%TO.C,R6*%
X64262000Y-142858000D03*
X64262000Y-145158000D03*
%TD*%
D11*
%TO.C,R4*%
X90845000Y-149540000D03*
X93145000Y-149540000D03*
%TD*%
D12*
%TO.C,J1*%
X38360000Y-116405000D03*
%TD*%
D13*
%TO.C,C7*%
X53395000Y-119240000D03*
X53395000Y-121640000D03*
%TD*%
D14*
%TO.C,J6*%
X40940000Y-129350000D03*
X40940000Y-128100000D03*
X40940000Y-126850000D03*
X40940000Y-125600000D03*
D15*
X37740000Y-131200000D03*
X37740000Y-123750000D03*
%TD*%
D13*
%TO.C,C5*%
X48895000Y-119240000D03*
X48895000Y-121640000D03*
%TD*%
%TO.C,C6*%
X51195000Y-119240000D03*
X51195000Y-121640000D03*
%TD*%
D16*
%TO.C,J05*%
X71346000Y-155874000D03*
X70096000Y-155874000D03*
X68846000Y-155874000D03*
X67596000Y-155874000D03*
X66346000Y-155874000D03*
X65096000Y-155874000D03*
D17*
X73196000Y-159074000D03*
X63246000Y-159074000D03*
%TD*%
D16*
%TO.C,J3*%
X57295000Y-155874000D03*
X56045000Y-155874000D03*
X54795000Y-155874000D03*
X53545000Y-155874000D03*
X52295000Y-155874000D03*
X51045000Y-155874000D03*
D17*
X59145000Y-159074000D03*
X49195000Y-159074000D03*
%TD*%
D18*
%TO.C,Q13*%
X61722000Y-148966000D03*
X61722000Y-150866000D03*
X59722000Y-149916000D03*
%TD*%
%TO.C,Q24*%
X81380000Y-149020000D03*
X81380000Y-150920000D03*
X79380000Y-149970000D03*
%TD*%
D19*
%TO.C,SW3*%
X83795000Y-107940000D03*
X83795000Y-112140000D03*
X85995000Y-107940000D03*
X85995000Y-112140000D03*
%TD*%
D14*
%TO.C,J8*%
X40940000Y-142415000D03*
X40940000Y-141165000D03*
X40940000Y-139915000D03*
X40940000Y-138665000D03*
X40940000Y-137415000D03*
X40940000Y-136165000D03*
D15*
X37740000Y-144265000D03*
X37740000Y-134315000D03*
%TD*%
D20*
%TO.C,U2*%
X87710000Y-143740000D03*
X86440000Y-143740000D03*
X85170000Y-143740000D03*
X83900000Y-143740000D03*
X82630000Y-143740000D03*
X81360000Y-143740000D03*
X80090000Y-143740000D03*
X78820000Y-143740000D03*
X77550000Y-143740000D03*
X76280000Y-143740000D03*
X75010000Y-143740000D03*
X73740000Y-143740000D03*
X72470000Y-143740000D03*
X71200000Y-143740000D03*
D21*
X69680000Y-141730000D03*
X69680000Y-140455000D03*
X69680000Y-139180000D03*
X69680000Y-137910000D03*
X69680000Y-136640000D03*
X69680000Y-135380000D03*
X69680000Y-134110000D03*
X69680000Y-132840000D03*
X69680000Y-131570000D03*
X69680000Y-130295000D03*
X69680000Y-129030000D03*
X69680000Y-127760000D03*
D20*
X71190000Y-125750000D03*
X72460000Y-125750000D03*
X73730000Y-125750000D03*
X75000000Y-125750000D03*
X76270000Y-125750000D03*
X77540000Y-125750000D03*
X78810000Y-125750000D03*
X80080000Y-125750000D03*
X81350000Y-125750000D03*
X82620000Y-125750000D03*
X83890000Y-125750000D03*
X85160000Y-125750000D03*
X86430000Y-125750000D03*
X87700000Y-125750000D03*
D22*
X80195000Y-135740000D03*
%TD*%
D10*
%TO.C,R62*%
X83650000Y-148810000D03*
X83650000Y-151110000D03*
%TD*%
D19*
%TO.C,SW6*%
X83795000Y-114640000D03*
X83795000Y-118840000D03*
X85995000Y-114640000D03*
X85995000Y-118840000D03*
%TD*%
D12*
%TO.C,J2*%
X38360000Y-111320000D03*
%TD*%
D13*
%TO.C,C2*%
X44295000Y-119240000D03*
X44295000Y-121640000D03*
%TD*%
D10*
%TO.C,R7*%
X63754000Y-148766000D03*
X63754000Y-151066000D03*
%TD*%
D18*
%TO.C,Q12*%
X61706000Y-143058000D03*
X61706000Y-144958000D03*
X59706000Y-144008000D03*
%TD*%
D23*
%TO.C,U1*%
X51570000Y-114270000D03*
X49270000Y-114270000D03*
X46970000Y-114270000D03*
D24*
X49270000Y-107970000D03*
%TD*%
D13*
%TO.C,C4*%
X46595000Y-119240000D03*
X46595000Y-121640000D03*
%TD*%
D25*
%TO.C,D1*%
X43290000Y-115740000D03*
X43290000Y-111740000D03*
%TD*%
D16*
%TO.C,J20*%
X85316000Y-155874000D03*
X84066000Y-155874000D03*
X82816000Y-155874000D03*
X81566000Y-155874000D03*
X80316000Y-155874000D03*
X79066000Y-155874000D03*
D17*
X87166000Y-159074000D03*
X77216000Y-159074000D03*
%TD*%
D26*
%TO.C,SW1*%
X56070000Y-110000000D03*
X59070000Y-110000000D03*
X60520000Y-110000000D03*
D27*
X62220000Y-106600000D03*
X54420000Y-106600000D03*
X62220000Y-108800000D03*
X54420000Y-108800000D03*
%TD*%
D10*
%TO.C,R6*%
X304262000Y-88258000D03*
X304262000Y-90558000D03*
%TD*%
D11*
%TO.C,R4*%
X330845000Y-94940000D03*
X333145000Y-94940000D03*
%TD*%
D12*
%TO.C,J1*%
X278360000Y-61805000D03*
%TD*%
D13*
%TO.C,C7*%
X293395000Y-64640000D03*
X293395000Y-67040000D03*
%TD*%
D14*
%TO.C,J6*%
X280940000Y-74750000D03*
X280940000Y-73500000D03*
X280940000Y-72250000D03*
X280940000Y-71000000D03*
D15*
X277740000Y-76600000D03*
X277740000Y-69150000D03*
%TD*%
D13*
%TO.C,C5*%
X288895000Y-64640000D03*
X288895000Y-67040000D03*
%TD*%
%TO.C,C6*%
X291195000Y-64640000D03*
X291195000Y-67040000D03*
%TD*%
D16*
%TO.C,J05*%
X311346000Y-101274000D03*
X310096000Y-101274000D03*
X308846000Y-101274000D03*
X307596000Y-101274000D03*
X306346000Y-101274000D03*
X305096000Y-101274000D03*
D17*
X313196000Y-104474000D03*
X303246000Y-104474000D03*
%TD*%
D16*
%TO.C,J3*%
X297295000Y-101274000D03*
X296045000Y-101274000D03*
X294795000Y-101274000D03*
X293545000Y-101274000D03*
X292295000Y-101274000D03*
X291045000Y-101274000D03*
D17*
X299145000Y-104474000D03*
X289195000Y-104474000D03*
%TD*%
D18*
%TO.C,Q13*%
X301722000Y-94366000D03*
X301722000Y-96266000D03*
X299722000Y-95316000D03*
%TD*%
%TO.C,Q24*%
X321380000Y-94420000D03*
X321380000Y-96320000D03*
X319380000Y-95370000D03*
%TD*%
D19*
%TO.C,SW3*%
X323795000Y-53340000D03*
X323795000Y-57540000D03*
X325995000Y-53340000D03*
X325995000Y-57540000D03*
%TD*%
D14*
%TO.C,J8*%
X280940000Y-87815000D03*
X280940000Y-86565000D03*
X280940000Y-85315000D03*
X280940000Y-84065000D03*
X280940000Y-82815000D03*
X280940000Y-81565000D03*
D15*
X277740000Y-89665000D03*
X277740000Y-79715000D03*
%TD*%
D20*
%TO.C,U2*%
X327710000Y-89140000D03*
X326440000Y-89140000D03*
X325170000Y-89140000D03*
X323900000Y-89140000D03*
X322630000Y-89140000D03*
X321360000Y-89140000D03*
X320090000Y-89140000D03*
X318820000Y-89140000D03*
X317550000Y-89140000D03*
X316280000Y-89140000D03*
X315010000Y-89140000D03*
X313740000Y-89140000D03*
X312470000Y-89140000D03*
X311200000Y-89140000D03*
D21*
X309680000Y-87130000D03*
X309680000Y-85855000D03*
X309680000Y-84580000D03*
X309680000Y-83310000D03*
X309680000Y-82040000D03*
X309680000Y-80780000D03*
X309680000Y-79510000D03*
X309680000Y-78240000D03*
X309680000Y-76970000D03*
X309680000Y-75695000D03*
X309680000Y-74430000D03*
X309680000Y-73160000D03*
D20*
X311190000Y-71150000D03*
X312460000Y-71150000D03*
X313730000Y-71150000D03*
X315000000Y-71150000D03*
X316270000Y-71150000D03*
X317540000Y-71150000D03*
X318810000Y-71150000D03*
X320080000Y-71150000D03*
X321350000Y-71150000D03*
X322620000Y-71150000D03*
X323890000Y-71150000D03*
X325160000Y-71150000D03*
X326430000Y-71150000D03*
X327700000Y-71150000D03*
D22*
X320195000Y-81140000D03*
%TD*%
D10*
%TO.C,R62*%
X323650000Y-94210000D03*
X323650000Y-96510000D03*
%TD*%
D19*
%TO.C,SW6*%
X323795000Y-60040000D03*
X323795000Y-64240000D03*
X325995000Y-60040000D03*
X325995000Y-64240000D03*
%TD*%
D12*
%TO.C,J2*%
X278360000Y-56720000D03*
%TD*%
D13*
%TO.C,C2*%
X284295000Y-64640000D03*
X284295000Y-67040000D03*
%TD*%
D10*
%TO.C,R7*%
X303754000Y-94166000D03*
X303754000Y-96466000D03*
%TD*%
D18*
%TO.C,Q12*%
X301706000Y-88458000D03*
X301706000Y-90358000D03*
X299706000Y-89408000D03*
%TD*%
D23*
%TO.C,U1*%
X291570000Y-59670000D03*
X289270000Y-59670000D03*
X286970000Y-59670000D03*
D24*
X289270000Y-53370000D03*
%TD*%
D13*
%TO.C,C4*%
X286595000Y-64640000D03*
X286595000Y-67040000D03*
%TD*%
D25*
%TO.C,D1*%
X283290000Y-61140000D03*
X283290000Y-57140000D03*
%TD*%
D16*
%TO.C,J20*%
X325316000Y-101274000D03*
X324066000Y-101274000D03*
X322816000Y-101274000D03*
X321566000Y-101274000D03*
X320316000Y-101274000D03*
X319066000Y-101274000D03*
D17*
X327166000Y-104474000D03*
X317216000Y-104474000D03*
%TD*%
D26*
%TO.C,SW1*%
X296070000Y-55400000D03*
X299070000Y-55400000D03*
X300520000Y-55400000D03*
D27*
X302220000Y-52000000D03*
X294420000Y-52000000D03*
X302220000Y-54200000D03*
X294420000Y-54200000D03*
%TD*%
D10*
%TO.C,R6*%
X244262000Y-88258000D03*
X244262000Y-90558000D03*
%TD*%
D11*
%TO.C,R4*%
X270845000Y-94940000D03*
X273145000Y-94940000D03*
%TD*%
D12*
%TO.C,J1*%
X218360000Y-61805000D03*
%TD*%
D13*
%TO.C,C7*%
X233395000Y-64640000D03*
X233395000Y-67040000D03*
%TD*%
D14*
%TO.C,J6*%
X220940000Y-74750000D03*
X220940000Y-73500000D03*
X220940000Y-72250000D03*
X220940000Y-71000000D03*
D15*
X217740000Y-76600000D03*
X217740000Y-69150000D03*
%TD*%
D13*
%TO.C,C5*%
X228895000Y-64640000D03*
X228895000Y-67040000D03*
%TD*%
%TO.C,C6*%
X231195000Y-64640000D03*
X231195000Y-67040000D03*
%TD*%
D16*
%TO.C,J05*%
X251346000Y-101274000D03*
X250096000Y-101274000D03*
X248846000Y-101274000D03*
X247596000Y-101274000D03*
X246346000Y-101274000D03*
X245096000Y-101274000D03*
D17*
X253196000Y-104474000D03*
X243246000Y-104474000D03*
%TD*%
D16*
%TO.C,J3*%
X237295000Y-101274000D03*
X236045000Y-101274000D03*
X234795000Y-101274000D03*
X233545000Y-101274000D03*
X232295000Y-101274000D03*
X231045000Y-101274000D03*
D17*
X239145000Y-104474000D03*
X229195000Y-104474000D03*
%TD*%
D18*
%TO.C,Q13*%
X241722000Y-94366000D03*
X241722000Y-96266000D03*
X239722000Y-95316000D03*
%TD*%
%TO.C,Q24*%
X261380000Y-94420000D03*
X261380000Y-96320000D03*
X259380000Y-95370000D03*
%TD*%
D19*
%TO.C,SW3*%
X263795000Y-53340000D03*
X263795000Y-57540000D03*
X265995000Y-53340000D03*
X265995000Y-57540000D03*
%TD*%
D14*
%TO.C,J8*%
X220940000Y-87815000D03*
X220940000Y-86565000D03*
X220940000Y-85315000D03*
X220940000Y-84065000D03*
X220940000Y-82815000D03*
X220940000Y-81565000D03*
D15*
X217740000Y-89665000D03*
X217740000Y-79715000D03*
%TD*%
D20*
%TO.C,U2*%
X267710000Y-89140000D03*
X266440000Y-89140000D03*
X265170000Y-89140000D03*
X263900000Y-89140000D03*
X262630000Y-89140000D03*
X261360000Y-89140000D03*
X260090000Y-89140000D03*
X258820000Y-89140000D03*
X257550000Y-89140000D03*
X256280000Y-89140000D03*
X255010000Y-89140000D03*
X253740000Y-89140000D03*
X252470000Y-89140000D03*
X251200000Y-89140000D03*
D21*
X249680000Y-87130000D03*
X249680000Y-85855000D03*
X249680000Y-84580000D03*
X249680000Y-83310000D03*
X249680000Y-82040000D03*
X249680000Y-80780000D03*
X249680000Y-79510000D03*
X249680000Y-78240000D03*
X249680000Y-76970000D03*
X249680000Y-75695000D03*
X249680000Y-74430000D03*
X249680000Y-73160000D03*
D20*
X251190000Y-71150000D03*
X252460000Y-71150000D03*
X253730000Y-71150000D03*
X255000000Y-71150000D03*
X256270000Y-71150000D03*
X257540000Y-71150000D03*
X258810000Y-71150000D03*
X260080000Y-71150000D03*
X261350000Y-71150000D03*
X262620000Y-71150000D03*
X263890000Y-71150000D03*
X265160000Y-71150000D03*
X266430000Y-71150000D03*
X267700000Y-71150000D03*
D22*
X260195000Y-81140000D03*
%TD*%
D10*
%TO.C,R62*%
X263650000Y-94210000D03*
X263650000Y-96510000D03*
%TD*%
D19*
%TO.C,SW6*%
X263795000Y-60040000D03*
X263795000Y-64240000D03*
X265995000Y-60040000D03*
X265995000Y-64240000D03*
%TD*%
D12*
%TO.C,J2*%
X218360000Y-56720000D03*
%TD*%
D13*
%TO.C,C2*%
X224295000Y-64640000D03*
X224295000Y-67040000D03*
%TD*%
D10*
%TO.C,R7*%
X243754000Y-94166000D03*
X243754000Y-96466000D03*
%TD*%
D18*
%TO.C,Q12*%
X241706000Y-88458000D03*
X241706000Y-90358000D03*
X239706000Y-89408000D03*
%TD*%
D23*
%TO.C,U1*%
X231570000Y-59670000D03*
X229270000Y-59670000D03*
X226970000Y-59670000D03*
D24*
X229270000Y-53370000D03*
%TD*%
D13*
%TO.C,C4*%
X226595000Y-64640000D03*
X226595000Y-67040000D03*
%TD*%
D25*
%TO.C,D1*%
X223290000Y-61140000D03*
X223290000Y-57140000D03*
%TD*%
D16*
%TO.C,J20*%
X265316000Y-101274000D03*
X264066000Y-101274000D03*
X262816000Y-101274000D03*
X261566000Y-101274000D03*
X260316000Y-101274000D03*
X259066000Y-101274000D03*
D17*
X267166000Y-104474000D03*
X257216000Y-104474000D03*
%TD*%
D26*
%TO.C,SW1*%
X236070000Y-55400000D03*
X239070000Y-55400000D03*
X240520000Y-55400000D03*
D27*
X242220000Y-52000000D03*
X234420000Y-52000000D03*
X242220000Y-54200000D03*
X234420000Y-54200000D03*
%TD*%
D10*
%TO.C,R6*%
X184262000Y-88258000D03*
X184262000Y-90558000D03*
%TD*%
D11*
%TO.C,R4*%
X210845000Y-94940000D03*
X213145000Y-94940000D03*
%TD*%
D12*
%TO.C,J1*%
X158360000Y-61805000D03*
%TD*%
D13*
%TO.C,C7*%
X173395000Y-64640000D03*
X173395000Y-67040000D03*
%TD*%
D14*
%TO.C,J6*%
X160940000Y-74750000D03*
X160940000Y-73500000D03*
X160940000Y-72250000D03*
X160940000Y-71000000D03*
D15*
X157740000Y-76600000D03*
X157740000Y-69150000D03*
%TD*%
D13*
%TO.C,C5*%
X168895000Y-64640000D03*
X168895000Y-67040000D03*
%TD*%
%TO.C,C6*%
X171195000Y-64640000D03*
X171195000Y-67040000D03*
%TD*%
D16*
%TO.C,J05*%
X191346000Y-101274000D03*
X190096000Y-101274000D03*
X188846000Y-101274000D03*
X187596000Y-101274000D03*
X186346000Y-101274000D03*
X185096000Y-101274000D03*
D17*
X193196000Y-104474000D03*
X183246000Y-104474000D03*
%TD*%
D16*
%TO.C,J3*%
X177295000Y-101274000D03*
X176045000Y-101274000D03*
X174795000Y-101274000D03*
X173545000Y-101274000D03*
X172295000Y-101274000D03*
X171045000Y-101274000D03*
D17*
X179145000Y-104474000D03*
X169195000Y-104474000D03*
%TD*%
D18*
%TO.C,Q13*%
X181722000Y-94366000D03*
X181722000Y-96266000D03*
X179722000Y-95316000D03*
%TD*%
%TO.C,Q24*%
X201380000Y-94420000D03*
X201380000Y-96320000D03*
X199380000Y-95370000D03*
%TD*%
D19*
%TO.C,SW3*%
X203795000Y-53340000D03*
X203795000Y-57540000D03*
X205995000Y-53340000D03*
X205995000Y-57540000D03*
%TD*%
D14*
%TO.C,J8*%
X160940000Y-87815000D03*
X160940000Y-86565000D03*
X160940000Y-85315000D03*
X160940000Y-84065000D03*
X160940000Y-82815000D03*
X160940000Y-81565000D03*
D15*
X157740000Y-89665000D03*
X157740000Y-79715000D03*
%TD*%
D20*
%TO.C,U2*%
X207710000Y-89140000D03*
X206440000Y-89140000D03*
X205170000Y-89140000D03*
X203900000Y-89140000D03*
X202630000Y-89140000D03*
X201360000Y-89140000D03*
X200090000Y-89140000D03*
X198820000Y-89140000D03*
X197550000Y-89140000D03*
X196280000Y-89140000D03*
X195010000Y-89140000D03*
X193740000Y-89140000D03*
X192470000Y-89140000D03*
X191200000Y-89140000D03*
D21*
X189680000Y-87130000D03*
X189680000Y-85855000D03*
X189680000Y-84580000D03*
X189680000Y-83310000D03*
X189680000Y-82040000D03*
X189680000Y-80780000D03*
X189680000Y-79510000D03*
X189680000Y-78240000D03*
X189680000Y-76970000D03*
X189680000Y-75695000D03*
X189680000Y-74430000D03*
X189680000Y-73160000D03*
D20*
X191190000Y-71150000D03*
X192460000Y-71150000D03*
X193730000Y-71150000D03*
X195000000Y-71150000D03*
X196270000Y-71150000D03*
X197540000Y-71150000D03*
X198810000Y-71150000D03*
X200080000Y-71150000D03*
X201350000Y-71150000D03*
X202620000Y-71150000D03*
X203890000Y-71150000D03*
X205160000Y-71150000D03*
X206430000Y-71150000D03*
X207700000Y-71150000D03*
D22*
X200195000Y-81140000D03*
%TD*%
D10*
%TO.C,R62*%
X203650000Y-94210000D03*
X203650000Y-96510000D03*
%TD*%
D19*
%TO.C,SW6*%
X203795000Y-60040000D03*
X203795000Y-64240000D03*
X205995000Y-60040000D03*
X205995000Y-64240000D03*
%TD*%
D12*
%TO.C,J2*%
X158360000Y-56720000D03*
%TD*%
D13*
%TO.C,C2*%
X164295000Y-64640000D03*
X164295000Y-67040000D03*
%TD*%
D10*
%TO.C,R7*%
X183754000Y-94166000D03*
X183754000Y-96466000D03*
%TD*%
D18*
%TO.C,Q12*%
X181706000Y-88458000D03*
X181706000Y-90358000D03*
X179706000Y-89408000D03*
%TD*%
D23*
%TO.C,U1*%
X171570000Y-59670000D03*
X169270000Y-59670000D03*
X166970000Y-59670000D03*
D24*
X169270000Y-53370000D03*
%TD*%
D13*
%TO.C,C4*%
X166595000Y-64640000D03*
X166595000Y-67040000D03*
%TD*%
D25*
%TO.C,D1*%
X163290000Y-61140000D03*
X163290000Y-57140000D03*
%TD*%
D16*
%TO.C,J20*%
X205316000Y-101274000D03*
X204066000Y-101274000D03*
X202816000Y-101274000D03*
X201566000Y-101274000D03*
X200316000Y-101274000D03*
X199066000Y-101274000D03*
D17*
X207166000Y-104474000D03*
X197216000Y-104474000D03*
%TD*%
D26*
%TO.C,SW1*%
X176070000Y-55400000D03*
X179070000Y-55400000D03*
X180520000Y-55400000D03*
D27*
X182220000Y-52000000D03*
X174420000Y-52000000D03*
X182220000Y-54200000D03*
X174420000Y-54200000D03*
%TD*%
D10*
%TO.C,R6*%
X124262000Y-88258000D03*
X124262000Y-90558000D03*
%TD*%
D11*
%TO.C,R4*%
X150845000Y-94940000D03*
X153145000Y-94940000D03*
%TD*%
D12*
%TO.C,J1*%
X98360000Y-61805000D03*
%TD*%
D13*
%TO.C,C7*%
X113395000Y-64640000D03*
X113395000Y-67040000D03*
%TD*%
D14*
%TO.C,J6*%
X100940000Y-74750000D03*
X100940000Y-73500000D03*
X100940000Y-72250000D03*
X100940000Y-71000000D03*
D15*
X97740000Y-76600000D03*
X97740000Y-69150000D03*
%TD*%
D13*
%TO.C,C5*%
X108895000Y-64640000D03*
X108895000Y-67040000D03*
%TD*%
%TO.C,C6*%
X111195000Y-64640000D03*
X111195000Y-67040000D03*
%TD*%
D16*
%TO.C,J05*%
X131346000Y-101274000D03*
X130096000Y-101274000D03*
X128846000Y-101274000D03*
X127596000Y-101274000D03*
X126346000Y-101274000D03*
X125096000Y-101274000D03*
D17*
X133196000Y-104474000D03*
X123246000Y-104474000D03*
%TD*%
D16*
%TO.C,J3*%
X117295000Y-101274000D03*
X116045000Y-101274000D03*
X114795000Y-101274000D03*
X113545000Y-101274000D03*
X112295000Y-101274000D03*
X111045000Y-101274000D03*
D17*
X119145000Y-104474000D03*
X109195000Y-104474000D03*
%TD*%
D18*
%TO.C,Q13*%
X121722000Y-94366000D03*
X121722000Y-96266000D03*
X119722000Y-95316000D03*
%TD*%
%TO.C,Q24*%
X141380000Y-94420000D03*
X141380000Y-96320000D03*
X139380000Y-95370000D03*
%TD*%
D19*
%TO.C,SW3*%
X143795000Y-53340000D03*
X143795000Y-57540000D03*
X145995000Y-53340000D03*
X145995000Y-57540000D03*
%TD*%
D14*
%TO.C,J8*%
X100940000Y-87815000D03*
X100940000Y-86565000D03*
X100940000Y-85315000D03*
X100940000Y-84065000D03*
X100940000Y-82815000D03*
X100940000Y-81565000D03*
D15*
X97740000Y-89665000D03*
X97740000Y-79715000D03*
%TD*%
D20*
%TO.C,U2*%
X147710000Y-89140000D03*
X146440000Y-89140000D03*
X145170000Y-89140000D03*
X143900000Y-89140000D03*
X142630000Y-89140000D03*
X141360000Y-89140000D03*
X140090000Y-89140000D03*
X138820000Y-89140000D03*
X137550000Y-89140000D03*
X136280000Y-89140000D03*
X135010000Y-89140000D03*
X133740000Y-89140000D03*
X132470000Y-89140000D03*
X131200000Y-89140000D03*
D21*
X129680000Y-87130000D03*
X129680000Y-85855000D03*
X129680000Y-84580000D03*
X129680000Y-83310000D03*
X129680000Y-82040000D03*
X129680000Y-80780000D03*
X129680000Y-79510000D03*
X129680000Y-78240000D03*
X129680000Y-76970000D03*
X129680000Y-75695000D03*
X129680000Y-74430000D03*
X129680000Y-73160000D03*
D20*
X131190000Y-71150000D03*
X132460000Y-71150000D03*
X133730000Y-71150000D03*
X135000000Y-71150000D03*
X136270000Y-71150000D03*
X137540000Y-71150000D03*
X138810000Y-71150000D03*
X140080000Y-71150000D03*
X141350000Y-71150000D03*
X142620000Y-71150000D03*
X143890000Y-71150000D03*
X145160000Y-71150000D03*
X146430000Y-71150000D03*
X147700000Y-71150000D03*
D22*
X140195000Y-81140000D03*
%TD*%
D10*
%TO.C,R62*%
X143650000Y-94210000D03*
X143650000Y-96510000D03*
%TD*%
D19*
%TO.C,SW6*%
X143795000Y-60040000D03*
X143795000Y-64240000D03*
X145995000Y-60040000D03*
X145995000Y-64240000D03*
%TD*%
D12*
%TO.C,J2*%
X98360000Y-56720000D03*
%TD*%
D13*
%TO.C,C2*%
X104295000Y-64640000D03*
X104295000Y-67040000D03*
%TD*%
D10*
%TO.C,R7*%
X123754000Y-94166000D03*
X123754000Y-96466000D03*
%TD*%
D18*
%TO.C,Q12*%
X121706000Y-88458000D03*
X121706000Y-90358000D03*
X119706000Y-89408000D03*
%TD*%
D23*
%TO.C,U1*%
X111570000Y-59670000D03*
X109270000Y-59670000D03*
X106970000Y-59670000D03*
D24*
X109270000Y-53370000D03*
%TD*%
D13*
%TO.C,C4*%
X106595000Y-64640000D03*
X106595000Y-67040000D03*
%TD*%
D25*
%TO.C,D1*%
X103290000Y-61140000D03*
X103290000Y-57140000D03*
%TD*%
D16*
%TO.C,J20*%
X145316000Y-101274000D03*
X144066000Y-101274000D03*
X142816000Y-101274000D03*
X141566000Y-101274000D03*
X140316000Y-101274000D03*
X139066000Y-101274000D03*
D17*
X147166000Y-104474000D03*
X137216000Y-104474000D03*
%TD*%
D26*
%TO.C,SW1*%
X116070000Y-55400000D03*
X119070000Y-55400000D03*
X120520000Y-55400000D03*
D27*
X122220000Y-52000000D03*
X114420000Y-52000000D03*
X122220000Y-54200000D03*
X114420000Y-54200000D03*
%TD*%
D26*
%TO.C,SW1*%
X56070000Y-55400000D03*
X59070000Y-55400000D03*
X60520000Y-55400000D03*
D27*
X62220000Y-52000000D03*
X54420000Y-52000000D03*
X62220000Y-54200000D03*
X54420000Y-54200000D03*
%TD*%
D10*
%TO.C,R7*%
X63754000Y-94166000D03*
X63754000Y-96466000D03*
%TD*%
D13*
%TO.C,C2*%
X44295000Y-64640000D03*
X44295000Y-67040000D03*
%TD*%
D16*
%TO.C,J20*%
X85316000Y-101274000D03*
X84066000Y-101274000D03*
X82816000Y-101274000D03*
X81566000Y-101274000D03*
X80316000Y-101274000D03*
X79066000Y-101274000D03*
D17*
X87166000Y-104474000D03*
X77216000Y-104474000D03*
%TD*%
D13*
%TO.C,C4*%
X46595000Y-64640000D03*
X46595000Y-67040000D03*
%TD*%
D18*
%TO.C,Q12*%
X61706000Y-88458000D03*
X61706000Y-90358000D03*
X59706000Y-89408000D03*
%TD*%
D23*
%TO.C,U1*%
X51570000Y-59670000D03*
X49270000Y-59670000D03*
X46970000Y-59670000D03*
D24*
X49270000Y-53370000D03*
%TD*%
D25*
%TO.C,D1*%
X43290000Y-61140000D03*
X43290000Y-57140000D03*
%TD*%
D12*
%TO.C,J2*%
X38360000Y-56720000D03*
%TD*%
D19*
%TO.C,SW6*%
X83795000Y-60040000D03*
X83795000Y-64240000D03*
X85995000Y-60040000D03*
X85995000Y-64240000D03*
%TD*%
D10*
%TO.C,R62*%
X83650000Y-94210000D03*
X83650000Y-96510000D03*
%TD*%
D20*
%TO.C,U2*%
X87710000Y-89140000D03*
X86440000Y-89140000D03*
X85170000Y-89140000D03*
X83900000Y-89140000D03*
X82630000Y-89140000D03*
X81360000Y-89140000D03*
X80090000Y-89140000D03*
X78820000Y-89140000D03*
X77550000Y-89140000D03*
X76280000Y-89140000D03*
X75010000Y-89140000D03*
X73740000Y-89140000D03*
X72470000Y-89140000D03*
X71200000Y-89140000D03*
D21*
X69680000Y-87130000D03*
X69680000Y-85855000D03*
X69680000Y-84580000D03*
X69680000Y-83310000D03*
X69680000Y-82040000D03*
X69680000Y-80780000D03*
X69680000Y-79510000D03*
X69680000Y-78240000D03*
X69680000Y-76970000D03*
X69680000Y-75695000D03*
X69680000Y-74430000D03*
X69680000Y-73160000D03*
D20*
X71190000Y-71150000D03*
X72460000Y-71150000D03*
X73730000Y-71150000D03*
X75000000Y-71150000D03*
X76270000Y-71150000D03*
X77540000Y-71150000D03*
X78810000Y-71150000D03*
X80080000Y-71150000D03*
X81350000Y-71150000D03*
X82620000Y-71150000D03*
X83890000Y-71150000D03*
X85160000Y-71150000D03*
X86430000Y-71150000D03*
X87700000Y-71150000D03*
D22*
X80195000Y-81140000D03*
%TD*%
D14*
%TO.C,J8*%
X40940000Y-87815000D03*
X40940000Y-86565000D03*
X40940000Y-85315000D03*
X40940000Y-84065000D03*
X40940000Y-82815000D03*
X40940000Y-81565000D03*
D15*
X37740000Y-89665000D03*
X37740000Y-79715000D03*
%TD*%
D19*
%TO.C,SW3*%
X83795000Y-53340000D03*
X83795000Y-57540000D03*
X85995000Y-53340000D03*
X85995000Y-57540000D03*
%TD*%
D18*
%TO.C,Q24*%
X81380000Y-94420000D03*
X81380000Y-96320000D03*
X79380000Y-95370000D03*
%TD*%
%TO.C,Q13*%
X61722000Y-94366000D03*
X61722000Y-96266000D03*
X59722000Y-95316000D03*
%TD*%
D16*
%TO.C,J3*%
X57295000Y-101274000D03*
X56045000Y-101274000D03*
X54795000Y-101274000D03*
X53545000Y-101274000D03*
X52295000Y-101274000D03*
X51045000Y-101274000D03*
D17*
X59145000Y-104474000D03*
X49195000Y-104474000D03*
%TD*%
D16*
%TO.C,J05*%
X71346000Y-101274000D03*
X70096000Y-101274000D03*
X68846000Y-101274000D03*
X67596000Y-101274000D03*
X66346000Y-101274000D03*
X65096000Y-101274000D03*
D17*
X73196000Y-104474000D03*
X63246000Y-104474000D03*
%TD*%
D13*
%TO.C,C6*%
X51195000Y-64640000D03*
X51195000Y-67040000D03*
%TD*%
D14*
%TO.C,J6*%
X40940000Y-74750000D03*
X40940000Y-73500000D03*
X40940000Y-72250000D03*
X40940000Y-71000000D03*
D15*
X37740000Y-76600000D03*
X37740000Y-69150000D03*
%TD*%
D13*
%TO.C,C7*%
X53395000Y-64640000D03*
X53395000Y-67040000D03*
%TD*%
D12*
%TO.C,J1*%
X38360000Y-61805000D03*
%TD*%
D11*
%TO.C,R4*%
X90845000Y-94940000D03*
X93145000Y-94940000D03*
%TD*%
D10*
%TO.C,R6*%
X64262000Y-88258000D03*
X64262000Y-90558000D03*
%TD*%
D13*
%TO.C,C5*%
X48895000Y-64640000D03*
X48895000Y-67040000D03*
%TD*%
M02*
