M48
; DRILL file {KiCad 8.0.4} date 2024-11-04T15:19:37+0900
; FORMAT={-:-/ absolute / inch / decimal}
; #@! TF.CreationDate,2024-11-04T15:19:37+09:00
; #@! TF.GenerationSoftware,Kicad,Pcbnew,8.0.4
; #@! TF.FileFunction,NonPlated,1,2,NPTH
FMAT,2
INCH
; #@! TA.AperFunction,NonPlated,NPTH,ComponentDrill
T1C0.0295
%
G90
G05
T1
X2.237Y-2.0906
X2.237Y-4.2402
X2.237Y-6.3898
X2.237Y-8.5394
X2.3551Y-2.0906
X2.3551Y-4.2402
X2.3551Y-6.3898
X2.3551Y-8.5394
X4.5992Y-2.0906
X4.5992Y-4.2402
X4.5992Y-6.3898
X4.5992Y-8.5394
X4.7173Y-2.0906
X4.7173Y-4.2402
X4.7173Y-6.3898
X4.7173Y-8.5394
X6.9614Y-2.0906
X6.9614Y-4.2402
X6.9614Y-6.3898
X6.9614Y-8.5394
X7.0795Y-2.0906
X7.0795Y-4.2402
X7.0795Y-6.3898
X7.0795Y-8.5394
X9.3236Y-2.0906
X9.3236Y-4.2402
X9.3236Y-6.3898
X9.3236Y-8.5394
X9.4417Y-2.0906
X9.4417Y-4.2402
X9.4417Y-6.3898
X9.4417Y-8.5394
X11.6858Y-2.0906
X11.6858Y-4.2402
X11.6858Y-6.3898
X11.6858Y-8.5394
X11.8039Y-2.0906
X11.8039Y-4.2402
X11.8039Y-6.3898
X11.8039Y-8.5394
M30
