%TF.GenerationSoftware,KiCad,Pcbnew,8.0.4*%
%TF.CreationDate,2024-11-04T15:19:49+09:00*%
%TF.ProjectId,L-SEAT V2.0,4c2d5345-4154-4205-9632-2e302e6b6963,rev?*%
%TF.SameCoordinates,Original*%
%TF.FileFunction,Paste,Top*%
%TF.FilePolarity,Positive*%
%FSLAX46Y46*%
G04 Gerber Fmt 4.6, Leading zero omitted, Abs format (unit mm)*
G04 Created by KiCad (PCBNEW 8.0.4) date 2024-11-04 15:19:49*
%MOMM*%
%LPD*%
G01*
G04 APERTURE LIST*
G04 Aperture macros list*
%AMRoundRect*
0 Rectangle with rounded corners*
0 $1 Rounding radius*
0 $2 $3 $4 $5 $6 $7 $8 $9 X,Y pos of 4 corners*
0 Add a 4 corners polygon primitive as box body*
4,1,4,$2,$3,$4,$5,$6,$7,$8,$9,$2,$3,0*
0 Add four circle primitives for the rounded corners*
1,1,$1+$1,$2,$3*
1,1,$1+$1,$4,$5*
1,1,$1+$1,$6,$7*
1,1,$1+$1,$8,$9*
0 Add four rect primitives between the rounded corners*
20,1,$1+$1,$2,$3,$4,$5,0*
20,1,$1+$1,$4,$5,$6,$7,0*
20,1,$1+$1,$6,$7,$8,$9,0*
20,1,$1+$1,$8,$9,$2,$3,0*%
G04 Aperture macros list end*
%ADD10RoundRect,0.325000X0.325000X-0.325000X0.325000X0.325000X-0.325000X0.325000X-0.325000X-0.325000X0*%
%ADD11R,1.100000X1.000000*%
%ADD12RoundRect,0.312500X-0.437500X-0.312500X0.437500X-0.312500X0.437500X0.312500X-0.437500X0.312500X0*%
%ADD13RoundRect,0.325000X-0.325000X-0.325000X0.325000X-0.325000X0.325000X0.325000X-0.325000X0.325000X0*%
%ADD14RoundRect,0.325000X-0.325000X0.325000X-0.325000X-0.325000X0.325000X-0.325000X0.325000X0.325000X0*%
%ADD15RoundRect,0.300000X-1.450000X-0.950000X1.450000X-0.950000X1.450000X0.950000X-1.450000X0.950000X0*%
%ADD16RoundRect,0.163800X-0.711200X-0.136200X0.711200X-0.136200X0.711200X0.136200X-0.711200X0.136200X0*%
%ADD17RoundRect,0.325000X0.325000X0.325000X-0.325000X0.325000X-0.325000X-0.325000X0.325000X-0.325000X0*%
%ADD18RoundRect,0.250000X1.500000X0.550000X-1.500000X0.550000X-1.500000X-0.550000X1.500000X-0.550000X0*%
%ADD19R,1.000000X1.100000*%
%ADD20R,1.500000X1.250000*%
G04 APERTURE END LIST*
D10*
%TO.C,R14*%
X301495000Y-240190000D03*
X301495000Y-237890000D03*
%TD*%
%TO.C,R16*%
X301495000Y-245190000D03*
X301495000Y-242890000D03*
%TD*%
%TO.C,R13*%
X301495000Y-235190000D03*
X301495000Y-232890000D03*
%TD*%
D11*
%TO.C,Q4*%
X284295000Y-237600000D03*
X284295000Y-235700000D03*
X282295000Y-236650000D03*
%TD*%
%TO.C,Q11*%
X298895000Y-250300000D03*
X298895000Y-248400000D03*
X296895000Y-249350000D03*
%TD*%
D10*
%TO.C,R44*%
X317145000Y-220740000D03*
X317145000Y-218440000D03*
%TD*%
D11*
%TO.C,Q7*%
X299095000Y-239990000D03*
X299095000Y-238090000D03*
X297095000Y-239040000D03*
%TD*%
D12*
%TO.C,C10*%
X330795000Y-258740000D03*
X333195000Y-258740000D03*
%TD*%
D10*
%TO.C,R9*%
X286795000Y-242800000D03*
X286795000Y-240500000D03*
%TD*%
%TO.C,R8*%
X286795000Y-237800000D03*
X286795000Y-235500000D03*
%TD*%
%TO.C,R1*%
X286795000Y-232800000D03*
X286795000Y-230500000D03*
%TD*%
D13*
%TO.C,R2*%
X305390000Y-218890000D03*
X307690000Y-218890000D03*
%TD*%
D14*
%TO.C,R46*%
X312090000Y-221130000D03*
X312090000Y-223430000D03*
%TD*%
D10*
%TO.C,R19*%
X294795000Y-235190000D03*
X294795000Y-232890000D03*
%TD*%
D11*
%TO.C,Q6*%
X299095000Y-234990000D03*
X299095000Y-233090000D03*
X297095000Y-234040000D03*
%TD*%
%TO.C,Q10*%
X284200000Y-255450000D03*
X284200000Y-253550000D03*
X282200000Y-254500000D03*
%TD*%
D15*
%TO.C,MO2*%
X278350000Y-218150000D03*
X278320000Y-226720000D03*
X293450000Y-218130000D03*
X293450000Y-226720000D03*
%TD*%
D10*
%TO.C,R15*%
X294795000Y-245190000D03*
X294795000Y-242890000D03*
%TD*%
%TO.C,R10*%
X279995000Y-232800000D03*
X279995000Y-230500000D03*
%TD*%
%TO.C,R24*%
X301495000Y-250500000D03*
X301495000Y-248200000D03*
%TD*%
D16*
%TO.C,U4*%
X319020000Y-232535000D03*
X319020000Y-233805000D03*
X319020000Y-235075000D03*
X319020000Y-236345000D03*
X325370000Y-236345000D03*
X325370000Y-235075000D03*
X325370000Y-233805000D03*
X325370000Y-232535000D03*
%TD*%
D10*
%TO.C,R45*%
X317145000Y-225890000D03*
X317145000Y-223590000D03*
%TD*%
D14*
%TO.C,R17*%
X280000000Y-248250000D03*
X280000000Y-250550000D03*
%TD*%
D17*
%TO.C,R42*%
X315545000Y-234840000D03*
X313245000Y-234840000D03*
%TD*%
D11*
%TO.C,Q1*%
X284295000Y-232600000D03*
X284295000Y-230700000D03*
X282295000Y-231650000D03*
%TD*%
D18*
%TO.C,C9*%
X325070000Y-250570000D03*
X319470000Y-250570000D03*
%TD*%
D11*
%TO.C,Q5*%
X284295000Y-242600000D03*
X284295000Y-240700000D03*
X282295000Y-241650000D03*
%TD*%
D12*
%TO.C,C3*%
X328095000Y-232540000D03*
X330495000Y-232540000D03*
%TD*%
D10*
%TO.C,R11*%
X279995000Y-237800000D03*
X279995000Y-235500000D03*
%TD*%
D14*
%TO.C,R21*%
X280000000Y-253400000D03*
X280000000Y-255700000D03*
%TD*%
D19*
%TO.C,D3*%
X324075000Y-227850000D03*
X325975000Y-227850000D03*
X325025000Y-225850000D03*
%TD*%
D17*
%TO.C,R3*%
X333145000Y-261240000D03*
X330845000Y-261240000D03*
%TD*%
D10*
%TO.C,R22*%
X286700000Y-255650000D03*
X286700000Y-253350000D03*
%TD*%
%TO.C,R20*%
X294795000Y-240190000D03*
X294795000Y-237890000D03*
%TD*%
%TO.C,R18*%
X286800000Y-250500000D03*
X286800000Y-248200000D03*
%TD*%
D17*
%TO.C,R43*%
X315545000Y-232440000D03*
X313245000Y-232440000D03*
%TD*%
D10*
%TO.C,R23*%
X294795000Y-250500000D03*
X294795000Y-248200000D03*
%TD*%
D20*
%TO.C,D2*%
X305290000Y-216560000D03*
X307790000Y-216560000D03*
%TD*%
D13*
%TO.C,R5*%
X330845000Y-256240000D03*
X333145000Y-256240000D03*
%TD*%
D17*
%TO.C,R41*%
X315545000Y-237240000D03*
X313245000Y-237240000D03*
%TD*%
D10*
%TO.C,R12*%
X279995000Y-242800000D03*
X279995000Y-240500000D03*
%TD*%
D11*
%TO.C,Q8*%
X298895000Y-244990000D03*
X298895000Y-243090000D03*
X296895000Y-244040000D03*
%TD*%
%TO.C,Q9*%
X284400000Y-250300000D03*
X284400000Y-248400000D03*
X282400000Y-249350000D03*
%TD*%
D10*
%TO.C,R14*%
X241495000Y-240190000D03*
X241495000Y-237890000D03*
%TD*%
%TO.C,R16*%
X241495000Y-245190000D03*
X241495000Y-242890000D03*
%TD*%
%TO.C,R13*%
X241495000Y-235190000D03*
X241495000Y-232890000D03*
%TD*%
D11*
%TO.C,Q4*%
X224295000Y-237600000D03*
X224295000Y-235700000D03*
X222295000Y-236650000D03*
%TD*%
%TO.C,Q11*%
X238895000Y-250300000D03*
X238895000Y-248400000D03*
X236895000Y-249350000D03*
%TD*%
D10*
%TO.C,R44*%
X257145000Y-220740000D03*
X257145000Y-218440000D03*
%TD*%
D11*
%TO.C,Q7*%
X239095000Y-239990000D03*
X239095000Y-238090000D03*
X237095000Y-239040000D03*
%TD*%
D12*
%TO.C,C10*%
X270795000Y-258740000D03*
X273195000Y-258740000D03*
%TD*%
D10*
%TO.C,R9*%
X226795000Y-242800000D03*
X226795000Y-240500000D03*
%TD*%
%TO.C,R8*%
X226795000Y-237800000D03*
X226795000Y-235500000D03*
%TD*%
%TO.C,R1*%
X226795000Y-232800000D03*
X226795000Y-230500000D03*
%TD*%
D13*
%TO.C,R2*%
X245390000Y-218890000D03*
X247690000Y-218890000D03*
%TD*%
D14*
%TO.C,R46*%
X252090000Y-221130000D03*
X252090000Y-223430000D03*
%TD*%
D10*
%TO.C,R19*%
X234795000Y-235190000D03*
X234795000Y-232890000D03*
%TD*%
D11*
%TO.C,Q6*%
X239095000Y-234990000D03*
X239095000Y-233090000D03*
X237095000Y-234040000D03*
%TD*%
%TO.C,Q10*%
X224200000Y-255450000D03*
X224200000Y-253550000D03*
X222200000Y-254500000D03*
%TD*%
D15*
%TO.C,MO2*%
X218350000Y-218150000D03*
X218320000Y-226720000D03*
X233450000Y-218130000D03*
X233450000Y-226720000D03*
%TD*%
D10*
%TO.C,R15*%
X234795000Y-245190000D03*
X234795000Y-242890000D03*
%TD*%
%TO.C,R10*%
X219995000Y-232800000D03*
X219995000Y-230500000D03*
%TD*%
%TO.C,R24*%
X241495000Y-250500000D03*
X241495000Y-248200000D03*
%TD*%
D16*
%TO.C,U4*%
X259020000Y-232535000D03*
X259020000Y-233805000D03*
X259020000Y-235075000D03*
X259020000Y-236345000D03*
X265370000Y-236345000D03*
X265370000Y-235075000D03*
X265370000Y-233805000D03*
X265370000Y-232535000D03*
%TD*%
D10*
%TO.C,R45*%
X257145000Y-225890000D03*
X257145000Y-223590000D03*
%TD*%
D14*
%TO.C,R17*%
X220000000Y-248250000D03*
X220000000Y-250550000D03*
%TD*%
D17*
%TO.C,R42*%
X255545000Y-234840000D03*
X253245000Y-234840000D03*
%TD*%
D11*
%TO.C,Q1*%
X224295000Y-232600000D03*
X224295000Y-230700000D03*
X222295000Y-231650000D03*
%TD*%
D18*
%TO.C,C9*%
X265070000Y-250570000D03*
X259470000Y-250570000D03*
%TD*%
D11*
%TO.C,Q5*%
X224295000Y-242600000D03*
X224295000Y-240700000D03*
X222295000Y-241650000D03*
%TD*%
D12*
%TO.C,C3*%
X268095000Y-232540000D03*
X270495000Y-232540000D03*
%TD*%
D10*
%TO.C,R11*%
X219995000Y-237800000D03*
X219995000Y-235500000D03*
%TD*%
D14*
%TO.C,R21*%
X220000000Y-253400000D03*
X220000000Y-255700000D03*
%TD*%
D19*
%TO.C,D3*%
X264075000Y-227850000D03*
X265975000Y-227850000D03*
X265025000Y-225850000D03*
%TD*%
D17*
%TO.C,R3*%
X273145000Y-261240000D03*
X270845000Y-261240000D03*
%TD*%
D10*
%TO.C,R22*%
X226700000Y-255650000D03*
X226700000Y-253350000D03*
%TD*%
%TO.C,R20*%
X234795000Y-240190000D03*
X234795000Y-237890000D03*
%TD*%
%TO.C,R18*%
X226800000Y-250500000D03*
X226800000Y-248200000D03*
%TD*%
D17*
%TO.C,R43*%
X255545000Y-232440000D03*
X253245000Y-232440000D03*
%TD*%
D10*
%TO.C,R23*%
X234795000Y-250500000D03*
X234795000Y-248200000D03*
%TD*%
D20*
%TO.C,D2*%
X245290000Y-216560000D03*
X247790000Y-216560000D03*
%TD*%
D13*
%TO.C,R5*%
X270845000Y-256240000D03*
X273145000Y-256240000D03*
%TD*%
D17*
%TO.C,R41*%
X255545000Y-237240000D03*
X253245000Y-237240000D03*
%TD*%
D10*
%TO.C,R12*%
X219995000Y-242800000D03*
X219995000Y-240500000D03*
%TD*%
D11*
%TO.C,Q8*%
X238895000Y-244990000D03*
X238895000Y-243090000D03*
X236895000Y-244040000D03*
%TD*%
%TO.C,Q9*%
X224400000Y-250300000D03*
X224400000Y-248400000D03*
X222400000Y-249350000D03*
%TD*%
D10*
%TO.C,R14*%
X181495000Y-240190000D03*
X181495000Y-237890000D03*
%TD*%
%TO.C,R16*%
X181495000Y-245190000D03*
X181495000Y-242890000D03*
%TD*%
%TO.C,R13*%
X181495000Y-235190000D03*
X181495000Y-232890000D03*
%TD*%
D11*
%TO.C,Q4*%
X164295000Y-237600000D03*
X164295000Y-235700000D03*
X162295000Y-236650000D03*
%TD*%
%TO.C,Q11*%
X178895000Y-250300000D03*
X178895000Y-248400000D03*
X176895000Y-249350000D03*
%TD*%
D10*
%TO.C,R44*%
X197145000Y-220740000D03*
X197145000Y-218440000D03*
%TD*%
D11*
%TO.C,Q7*%
X179095000Y-239990000D03*
X179095000Y-238090000D03*
X177095000Y-239040000D03*
%TD*%
D12*
%TO.C,C10*%
X210795000Y-258740000D03*
X213195000Y-258740000D03*
%TD*%
D10*
%TO.C,R9*%
X166795000Y-242800000D03*
X166795000Y-240500000D03*
%TD*%
%TO.C,R8*%
X166795000Y-237800000D03*
X166795000Y-235500000D03*
%TD*%
%TO.C,R1*%
X166795000Y-232800000D03*
X166795000Y-230500000D03*
%TD*%
D13*
%TO.C,R2*%
X185390000Y-218890000D03*
X187690000Y-218890000D03*
%TD*%
D14*
%TO.C,R46*%
X192090000Y-221130000D03*
X192090000Y-223430000D03*
%TD*%
D10*
%TO.C,R19*%
X174795000Y-235190000D03*
X174795000Y-232890000D03*
%TD*%
D11*
%TO.C,Q6*%
X179095000Y-234990000D03*
X179095000Y-233090000D03*
X177095000Y-234040000D03*
%TD*%
%TO.C,Q10*%
X164200000Y-255450000D03*
X164200000Y-253550000D03*
X162200000Y-254500000D03*
%TD*%
D15*
%TO.C,MO2*%
X158350000Y-218150000D03*
X158320000Y-226720000D03*
X173450000Y-218130000D03*
X173450000Y-226720000D03*
%TD*%
D10*
%TO.C,R15*%
X174795000Y-245190000D03*
X174795000Y-242890000D03*
%TD*%
%TO.C,R10*%
X159995000Y-232800000D03*
X159995000Y-230500000D03*
%TD*%
%TO.C,R24*%
X181495000Y-250500000D03*
X181495000Y-248200000D03*
%TD*%
D16*
%TO.C,U4*%
X199020000Y-232535000D03*
X199020000Y-233805000D03*
X199020000Y-235075000D03*
X199020000Y-236345000D03*
X205370000Y-236345000D03*
X205370000Y-235075000D03*
X205370000Y-233805000D03*
X205370000Y-232535000D03*
%TD*%
D10*
%TO.C,R45*%
X197145000Y-225890000D03*
X197145000Y-223590000D03*
%TD*%
D14*
%TO.C,R17*%
X160000000Y-248250000D03*
X160000000Y-250550000D03*
%TD*%
D17*
%TO.C,R42*%
X195545000Y-234840000D03*
X193245000Y-234840000D03*
%TD*%
D11*
%TO.C,Q1*%
X164295000Y-232600000D03*
X164295000Y-230700000D03*
X162295000Y-231650000D03*
%TD*%
D18*
%TO.C,C9*%
X205070000Y-250570000D03*
X199470000Y-250570000D03*
%TD*%
D11*
%TO.C,Q5*%
X164295000Y-242600000D03*
X164295000Y-240700000D03*
X162295000Y-241650000D03*
%TD*%
D12*
%TO.C,C3*%
X208095000Y-232540000D03*
X210495000Y-232540000D03*
%TD*%
D10*
%TO.C,R11*%
X159995000Y-237800000D03*
X159995000Y-235500000D03*
%TD*%
D14*
%TO.C,R21*%
X160000000Y-253400000D03*
X160000000Y-255700000D03*
%TD*%
D19*
%TO.C,D3*%
X204075000Y-227850000D03*
X205975000Y-227850000D03*
X205025000Y-225850000D03*
%TD*%
D17*
%TO.C,R3*%
X213145000Y-261240000D03*
X210845000Y-261240000D03*
%TD*%
D10*
%TO.C,R22*%
X166700000Y-255650000D03*
X166700000Y-253350000D03*
%TD*%
%TO.C,R20*%
X174795000Y-240190000D03*
X174795000Y-237890000D03*
%TD*%
%TO.C,R18*%
X166800000Y-250500000D03*
X166800000Y-248200000D03*
%TD*%
D17*
%TO.C,R43*%
X195545000Y-232440000D03*
X193245000Y-232440000D03*
%TD*%
D10*
%TO.C,R23*%
X174795000Y-250500000D03*
X174795000Y-248200000D03*
%TD*%
D20*
%TO.C,D2*%
X185290000Y-216560000D03*
X187790000Y-216560000D03*
%TD*%
D13*
%TO.C,R5*%
X210845000Y-256240000D03*
X213145000Y-256240000D03*
%TD*%
D17*
%TO.C,R41*%
X195545000Y-237240000D03*
X193245000Y-237240000D03*
%TD*%
D10*
%TO.C,R12*%
X159995000Y-242800000D03*
X159995000Y-240500000D03*
%TD*%
D11*
%TO.C,Q8*%
X178895000Y-244990000D03*
X178895000Y-243090000D03*
X176895000Y-244040000D03*
%TD*%
%TO.C,Q9*%
X164400000Y-250300000D03*
X164400000Y-248400000D03*
X162400000Y-249350000D03*
%TD*%
D10*
%TO.C,R14*%
X121495000Y-240190000D03*
X121495000Y-237890000D03*
%TD*%
%TO.C,R16*%
X121495000Y-245190000D03*
X121495000Y-242890000D03*
%TD*%
%TO.C,R13*%
X121495000Y-235190000D03*
X121495000Y-232890000D03*
%TD*%
D11*
%TO.C,Q4*%
X104295000Y-237600000D03*
X104295000Y-235700000D03*
X102295000Y-236650000D03*
%TD*%
%TO.C,Q11*%
X118895000Y-250300000D03*
X118895000Y-248400000D03*
X116895000Y-249350000D03*
%TD*%
D10*
%TO.C,R44*%
X137145000Y-220740000D03*
X137145000Y-218440000D03*
%TD*%
D11*
%TO.C,Q7*%
X119095000Y-239990000D03*
X119095000Y-238090000D03*
X117095000Y-239040000D03*
%TD*%
D12*
%TO.C,C10*%
X150795000Y-258740000D03*
X153195000Y-258740000D03*
%TD*%
D10*
%TO.C,R9*%
X106795000Y-242800000D03*
X106795000Y-240500000D03*
%TD*%
%TO.C,R8*%
X106795000Y-237800000D03*
X106795000Y-235500000D03*
%TD*%
%TO.C,R1*%
X106795000Y-232800000D03*
X106795000Y-230500000D03*
%TD*%
D13*
%TO.C,R2*%
X125390000Y-218890000D03*
X127690000Y-218890000D03*
%TD*%
D14*
%TO.C,R46*%
X132090000Y-221130000D03*
X132090000Y-223430000D03*
%TD*%
D10*
%TO.C,R19*%
X114795000Y-235190000D03*
X114795000Y-232890000D03*
%TD*%
D11*
%TO.C,Q6*%
X119095000Y-234990000D03*
X119095000Y-233090000D03*
X117095000Y-234040000D03*
%TD*%
%TO.C,Q10*%
X104200000Y-255450000D03*
X104200000Y-253550000D03*
X102200000Y-254500000D03*
%TD*%
D15*
%TO.C,MO2*%
X98350000Y-218150000D03*
X98320000Y-226720000D03*
X113450000Y-218130000D03*
X113450000Y-226720000D03*
%TD*%
D10*
%TO.C,R15*%
X114795000Y-245190000D03*
X114795000Y-242890000D03*
%TD*%
%TO.C,R10*%
X99995000Y-232800000D03*
X99995000Y-230500000D03*
%TD*%
%TO.C,R24*%
X121495000Y-250500000D03*
X121495000Y-248200000D03*
%TD*%
D16*
%TO.C,U4*%
X139020000Y-232535000D03*
X139020000Y-233805000D03*
X139020000Y-235075000D03*
X139020000Y-236345000D03*
X145370000Y-236345000D03*
X145370000Y-235075000D03*
X145370000Y-233805000D03*
X145370000Y-232535000D03*
%TD*%
D10*
%TO.C,R45*%
X137145000Y-225890000D03*
X137145000Y-223590000D03*
%TD*%
D14*
%TO.C,R17*%
X100000000Y-248250000D03*
X100000000Y-250550000D03*
%TD*%
D17*
%TO.C,R42*%
X135545000Y-234840000D03*
X133245000Y-234840000D03*
%TD*%
D11*
%TO.C,Q1*%
X104295000Y-232600000D03*
X104295000Y-230700000D03*
X102295000Y-231650000D03*
%TD*%
D18*
%TO.C,C9*%
X145070000Y-250570000D03*
X139470000Y-250570000D03*
%TD*%
D11*
%TO.C,Q5*%
X104295000Y-242600000D03*
X104295000Y-240700000D03*
X102295000Y-241650000D03*
%TD*%
D12*
%TO.C,C3*%
X148095000Y-232540000D03*
X150495000Y-232540000D03*
%TD*%
D10*
%TO.C,R11*%
X99995000Y-237800000D03*
X99995000Y-235500000D03*
%TD*%
D14*
%TO.C,R21*%
X100000000Y-253400000D03*
X100000000Y-255700000D03*
%TD*%
D19*
%TO.C,D3*%
X144075000Y-227850000D03*
X145975000Y-227850000D03*
X145025000Y-225850000D03*
%TD*%
D17*
%TO.C,R3*%
X153145000Y-261240000D03*
X150845000Y-261240000D03*
%TD*%
D10*
%TO.C,R22*%
X106700000Y-255650000D03*
X106700000Y-253350000D03*
%TD*%
%TO.C,R20*%
X114795000Y-240190000D03*
X114795000Y-237890000D03*
%TD*%
%TO.C,R18*%
X106800000Y-250500000D03*
X106800000Y-248200000D03*
%TD*%
D17*
%TO.C,R43*%
X135545000Y-232440000D03*
X133245000Y-232440000D03*
%TD*%
D10*
%TO.C,R23*%
X114795000Y-250500000D03*
X114795000Y-248200000D03*
%TD*%
D20*
%TO.C,D2*%
X125290000Y-216560000D03*
X127790000Y-216560000D03*
%TD*%
D13*
%TO.C,R5*%
X150845000Y-256240000D03*
X153145000Y-256240000D03*
%TD*%
D17*
%TO.C,R41*%
X135545000Y-237240000D03*
X133245000Y-237240000D03*
%TD*%
D10*
%TO.C,R12*%
X99995000Y-242800000D03*
X99995000Y-240500000D03*
%TD*%
D11*
%TO.C,Q8*%
X118895000Y-244990000D03*
X118895000Y-243090000D03*
X116895000Y-244040000D03*
%TD*%
%TO.C,Q9*%
X104400000Y-250300000D03*
X104400000Y-248400000D03*
X102400000Y-249350000D03*
%TD*%
D10*
%TO.C,R14*%
X61495000Y-240190000D03*
X61495000Y-237890000D03*
%TD*%
%TO.C,R16*%
X61495000Y-245190000D03*
X61495000Y-242890000D03*
%TD*%
%TO.C,R13*%
X61495000Y-235190000D03*
X61495000Y-232890000D03*
%TD*%
D11*
%TO.C,Q4*%
X44295000Y-237600000D03*
X44295000Y-235700000D03*
X42295000Y-236650000D03*
%TD*%
%TO.C,Q11*%
X58895000Y-250300000D03*
X58895000Y-248400000D03*
X56895000Y-249350000D03*
%TD*%
D10*
%TO.C,R44*%
X77145000Y-220740000D03*
X77145000Y-218440000D03*
%TD*%
D11*
%TO.C,Q7*%
X59095000Y-239990000D03*
X59095000Y-238090000D03*
X57095000Y-239040000D03*
%TD*%
D12*
%TO.C,C10*%
X90795000Y-258740000D03*
X93195000Y-258740000D03*
%TD*%
D10*
%TO.C,R9*%
X46795000Y-242800000D03*
X46795000Y-240500000D03*
%TD*%
%TO.C,R8*%
X46795000Y-237800000D03*
X46795000Y-235500000D03*
%TD*%
%TO.C,R1*%
X46795000Y-232800000D03*
X46795000Y-230500000D03*
%TD*%
D13*
%TO.C,R2*%
X65390000Y-218890000D03*
X67690000Y-218890000D03*
%TD*%
D14*
%TO.C,R46*%
X72090000Y-221130000D03*
X72090000Y-223430000D03*
%TD*%
D10*
%TO.C,R19*%
X54795000Y-235190000D03*
X54795000Y-232890000D03*
%TD*%
D11*
%TO.C,Q6*%
X59095000Y-234990000D03*
X59095000Y-233090000D03*
X57095000Y-234040000D03*
%TD*%
%TO.C,Q10*%
X44200000Y-255450000D03*
X44200000Y-253550000D03*
X42200000Y-254500000D03*
%TD*%
D15*
%TO.C,MO2*%
X38350000Y-218150000D03*
X38320000Y-226720000D03*
X53450000Y-218130000D03*
X53450000Y-226720000D03*
%TD*%
D10*
%TO.C,R15*%
X54795000Y-245190000D03*
X54795000Y-242890000D03*
%TD*%
%TO.C,R10*%
X39995000Y-232800000D03*
X39995000Y-230500000D03*
%TD*%
%TO.C,R24*%
X61495000Y-250500000D03*
X61495000Y-248200000D03*
%TD*%
D16*
%TO.C,U4*%
X79020000Y-232535000D03*
X79020000Y-233805000D03*
X79020000Y-235075000D03*
X79020000Y-236345000D03*
X85370000Y-236345000D03*
X85370000Y-235075000D03*
X85370000Y-233805000D03*
X85370000Y-232535000D03*
%TD*%
D10*
%TO.C,R45*%
X77145000Y-225890000D03*
X77145000Y-223590000D03*
%TD*%
D14*
%TO.C,R17*%
X40000000Y-248250000D03*
X40000000Y-250550000D03*
%TD*%
D17*
%TO.C,R42*%
X75545000Y-234840000D03*
X73245000Y-234840000D03*
%TD*%
D11*
%TO.C,Q1*%
X44295000Y-232600000D03*
X44295000Y-230700000D03*
X42295000Y-231650000D03*
%TD*%
D18*
%TO.C,C9*%
X85070000Y-250570000D03*
X79470000Y-250570000D03*
%TD*%
D11*
%TO.C,Q5*%
X44295000Y-242600000D03*
X44295000Y-240700000D03*
X42295000Y-241650000D03*
%TD*%
D12*
%TO.C,C3*%
X88095000Y-232540000D03*
X90495000Y-232540000D03*
%TD*%
D10*
%TO.C,R11*%
X39995000Y-237800000D03*
X39995000Y-235500000D03*
%TD*%
D14*
%TO.C,R21*%
X40000000Y-253400000D03*
X40000000Y-255700000D03*
%TD*%
D19*
%TO.C,D3*%
X84075000Y-227850000D03*
X85975000Y-227850000D03*
X85025000Y-225850000D03*
%TD*%
D17*
%TO.C,R3*%
X93145000Y-261240000D03*
X90845000Y-261240000D03*
%TD*%
D10*
%TO.C,R22*%
X46700000Y-255650000D03*
X46700000Y-253350000D03*
%TD*%
%TO.C,R20*%
X54795000Y-240190000D03*
X54795000Y-237890000D03*
%TD*%
%TO.C,R18*%
X46800000Y-250500000D03*
X46800000Y-248200000D03*
%TD*%
D17*
%TO.C,R43*%
X75545000Y-232440000D03*
X73245000Y-232440000D03*
%TD*%
D10*
%TO.C,R23*%
X54795000Y-250500000D03*
X54795000Y-248200000D03*
%TD*%
D20*
%TO.C,D2*%
X65290000Y-216560000D03*
X67790000Y-216560000D03*
%TD*%
D13*
%TO.C,R5*%
X90845000Y-256240000D03*
X93145000Y-256240000D03*
%TD*%
D17*
%TO.C,R41*%
X75545000Y-237240000D03*
X73245000Y-237240000D03*
%TD*%
D10*
%TO.C,R12*%
X39995000Y-242800000D03*
X39995000Y-240500000D03*
%TD*%
D11*
%TO.C,Q8*%
X58895000Y-244990000D03*
X58895000Y-243090000D03*
X56895000Y-244040000D03*
%TD*%
%TO.C,Q9*%
X44400000Y-250300000D03*
X44400000Y-248400000D03*
X42400000Y-249350000D03*
%TD*%
D10*
%TO.C,R14*%
X301495000Y-185590000D03*
X301495000Y-183290000D03*
%TD*%
%TO.C,R16*%
X301495000Y-190590000D03*
X301495000Y-188290000D03*
%TD*%
%TO.C,R13*%
X301495000Y-180590000D03*
X301495000Y-178290000D03*
%TD*%
D11*
%TO.C,Q4*%
X284295000Y-183000000D03*
X284295000Y-181100000D03*
X282295000Y-182050000D03*
%TD*%
%TO.C,Q11*%
X298895000Y-195700000D03*
X298895000Y-193800000D03*
X296895000Y-194750000D03*
%TD*%
D10*
%TO.C,R44*%
X317145000Y-166140000D03*
X317145000Y-163840000D03*
%TD*%
D11*
%TO.C,Q7*%
X299095000Y-185390000D03*
X299095000Y-183490000D03*
X297095000Y-184440000D03*
%TD*%
D12*
%TO.C,C10*%
X330795000Y-204140000D03*
X333195000Y-204140000D03*
%TD*%
D10*
%TO.C,R9*%
X286795000Y-188200000D03*
X286795000Y-185900000D03*
%TD*%
%TO.C,R8*%
X286795000Y-183200000D03*
X286795000Y-180900000D03*
%TD*%
%TO.C,R1*%
X286795000Y-178200000D03*
X286795000Y-175900000D03*
%TD*%
D13*
%TO.C,R2*%
X305390000Y-164290000D03*
X307690000Y-164290000D03*
%TD*%
D14*
%TO.C,R46*%
X312090000Y-166530000D03*
X312090000Y-168830000D03*
%TD*%
D10*
%TO.C,R19*%
X294795000Y-180590000D03*
X294795000Y-178290000D03*
%TD*%
D11*
%TO.C,Q6*%
X299095000Y-180390000D03*
X299095000Y-178490000D03*
X297095000Y-179440000D03*
%TD*%
%TO.C,Q10*%
X284200000Y-200850000D03*
X284200000Y-198950000D03*
X282200000Y-199900000D03*
%TD*%
D15*
%TO.C,MO2*%
X278350000Y-163550000D03*
X278320000Y-172120000D03*
X293450000Y-163530000D03*
X293450000Y-172120000D03*
%TD*%
D10*
%TO.C,R15*%
X294795000Y-190590000D03*
X294795000Y-188290000D03*
%TD*%
%TO.C,R10*%
X279995000Y-178200000D03*
X279995000Y-175900000D03*
%TD*%
%TO.C,R24*%
X301495000Y-195900000D03*
X301495000Y-193600000D03*
%TD*%
D16*
%TO.C,U4*%
X319020000Y-177935000D03*
X319020000Y-179205000D03*
X319020000Y-180475000D03*
X319020000Y-181745000D03*
X325370000Y-181745000D03*
X325370000Y-180475000D03*
X325370000Y-179205000D03*
X325370000Y-177935000D03*
%TD*%
D10*
%TO.C,R45*%
X317145000Y-171290000D03*
X317145000Y-168990000D03*
%TD*%
D14*
%TO.C,R17*%
X280000000Y-193650000D03*
X280000000Y-195950000D03*
%TD*%
D17*
%TO.C,R42*%
X315545000Y-180240000D03*
X313245000Y-180240000D03*
%TD*%
D11*
%TO.C,Q1*%
X284295000Y-178000000D03*
X284295000Y-176100000D03*
X282295000Y-177050000D03*
%TD*%
D18*
%TO.C,C9*%
X325070000Y-195970000D03*
X319470000Y-195970000D03*
%TD*%
D11*
%TO.C,Q5*%
X284295000Y-188000000D03*
X284295000Y-186100000D03*
X282295000Y-187050000D03*
%TD*%
D12*
%TO.C,C3*%
X328095000Y-177940000D03*
X330495000Y-177940000D03*
%TD*%
D10*
%TO.C,R11*%
X279995000Y-183200000D03*
X279995000Y-180900000D03*
%TD*%
D14*
%TO.C,R21*%
X280000000Y-198800000D03*
X280000000Y-201100000D03*
%TD*%
D19*
%TO.C,D3*%
X324075000Y-173250000D03*
X325975000Y-173250000D03*
X325025000Y-171250000D03*
%TD*%
D17*
%TO.C,R3*%
X333145000Y-206640000D03*
X330845000Y-206640000D03*
%TD*%
D10*
%TO.C,R22*%
X286700000Y-201050000D03*
X286700000Y-198750000D03*
%TD*%
%TO.C,R20*%
X294795000Y-185590000D03*
X294795000Y-183290000D03*
%TD*%
%TO.C,R18*%
X286800000Y-195900000D03*
X286800000Y-193600000D03*
%TD*%
D17*
%TO.C,R43*%
X315545000Y-177840000D03*
X313245000Y-177840000D03*
%TD*%
D10*
%TO.C,R23*%
X294795000Y-195900000D03*
X294795000Y-193600000D03*
%TD*%
D20*
%TO.C,D2*%
X305290000Y-161960000D03*
X307790000Y-161960000D03*
%TD*%
D13*
%TO.C,R5*%
X330845000Y-201640000D03*
X333145000Y-201640000D03*
%TD*%
D17*
%TO.C,R41*%
X315545000Y-182640000D03*
X313245000Y-182640000D03*
%TD*%
D10*
%TO.C,R12*%
X279995000Y-188200000D03*
X279995000Y-185900000D03*
%TD*%
D11*
%TO.C,Q8*%
X298895000Y-190390000D03*
X298895000Y-188490000D03*
X296895000Y-189440000D03*
%TD*%
%TO.C,Q9*%
X284400000Y-195700000D03*
X284400000Y-193800000D03*
X282400000Y-194750000D03*
%TD*%
D10*
%TO.C,R14*%
X241495000Y-185590000D03*
X241495000Y-183290000D03*
%TD*%
%TO.C,R16*%
X241495000Y-190590000D03*
X241495000Y-188290000D03*
%TD*%
%TO.C,R13*%
X241495000Y-180590000D03*
X241495000Y-178290000D03*
%TD*%
D11*
%TO.C,Q4*%
X224295000Y-183000000D03*
X224295000Y-181100000D03*
X222295000Y-182050000D03*
%TD*%
%TO.C,Q11*%
X238895000Y-195700000D03*
X238895000Y-193800000D03*
X236895000Y-194750000D03*
%TD*%
D10*
%TO.C,R44*%
X257145000Y-166140000D03*
X257145000Y-163840000D03*
%TD*%
D11*
%TO.C,Q7*%
X239095000Y-185390000D03*
X239095000Y-183490000D03*
X237095000Y-184440000D03*
%TD*%
D12*
%TO.C,C10*%
X270795000Y-204140000D03*
X273195000Y-204140000D03*
%TD*%
D10*
%TO.C,R9*%
X226795000Y-188200000D03*
X226795000Y-185900000D03*
%TD*%
%TO.C,R8*%
X226795000Y-183200000D03*
X226795000Y-180900000D03*
%TD*%
%TO.C,R1*%
X226795000Y-178200000D03*
X226795000Y-175900000D03*
%TD*%
D13*
%TO.C,R2*%
X245390000Y-164290000D03*
X247690000Y-164290000D03*
%TD*%
D14*
%TO.C,R46*%
X252090000Y-166530000D03*
X252090000Y-168830000D03*
%TD*%
D10*
%TO.C,R19*%
X234795000Y-180590000D03*
X234795000Y-178290000D03*
%TD*%
D11*
%TO.C,Q6*%
X239095000Y-180390000D03*
X239095000Y-178490000D03*
X237095000Y-179440000D03*
%TD*%
%TO.C,Q10*%
X224200000Y-200850000D03*
X224200000Y-198950000D03*
X222200000Y-199900000D03*
%TD*%
D15*
%TO.C,MO2*%
X218350000Y-163550000D03*
X218320000Y-172120000D03*
X233450000Y-163530000D03*
X233450000Y-172120000D03*
%TD*%
D10*
%TO.C,R15*%
X234795000Y-190590000D03*
X234795000Y-188290000D03*
%TD*%
%TO.C,R10*%
X219995000Y-178200000D03*
X219995000Y-175900000D03*
%TD*%
%TO.C,R24*%
X241495000Y-195900000D03*
X241495000Y-193600000D03*
%TD*%
D16*
%TO.C,U4*%
X259020000Y-177935000D03*
X259020000Y-179205000D03*
X259020000Y-180475000D03*
X259020000Y-181745000D03*
X265370000Y-181745000D03*
X265370000Y-180475000D03*
X265370000Y-179205000D03*
X265370000Y-177935000D03*
%TD*%
D10*
%TO.C,R45*%
X257145000Y-171290000D03*
X257145000Y-168990000D03*
%TD*%
D14*
%TO.C,R17*%
X220000000Y-193650000D03*
X220000000Y-195950000D03*
%TD*%
D17*
%TO.C,R42*%
X255545000Y-180240000D03*
X253245000Y-180240000D03*
%TD*%
D11*
%TO.C,Q1*%
X224295000Y-178000000D03*
X224295000Y-176100000D03*
X222295000Y-177050000D03*
%TD*%
D18*
%TO.C,C9*%
X265070000Y-195970000D03*
X259470000Y-195970000D03*
%TD*%
D11*
%TO.C,Q5*%
X224295000Y-188000000D03*
X224295000Y-186100000D03*
X222295000Y-187050000D03*
%TD*%
D12*
%TO.C,C3*%
X268095000Y-177940000D03*
X270495000Y-177940000D03*
%TD*%
D10*
%TO.C,R11*%
X219995000Y-183200000D03*
X219995000Y-180900000D03*
%TD*%
D14*
%TO.C,R21*%
X220000000Y-198800000D03*
X220000000Y-201100000D03*
%TD*%
D19*
%TO.C,D3*%
X264075000Y-173250000D03*
X265975000Y-173250000D03*
X265025000Y-171250000D03*
%TD*%
D17*
%TO.C,R3*%
X273145000Y-206640000D03*
X270845000Y-206640000D03*
%TD*%
D10*
%TO.C,R22*%
X226700000Y-201050000D03*
X226700000Y-198750000D03*
%TD*%
%TO.C,R20*%
X234795000Y-185590000D03*
X234795000Y-183290000D03*
%TD*%
%TO.C,R18*%
X226800000Y-195900000D03*
X226800000Y-193600000D03*
%TD*%
D17*
%TO.C,R43*%
X255545000Y-177840000D03*
X253245000Y-177840000D03*
%TD*%
D10*
%TO.C,R23*%
X234795000Y-195900000D03*
X234795000Y-193600000D03*
%TD*%
D20*
%TO.C,D2*%
X245290000Y-161960000D03*
X247790000Y-161960000D03*
%TD*%
D13*
%TO.C,R5*%
X270845000Y-201640000D03*
X273145000Y-201640000D03*
%TD*%
D17*
%TO.C,R41*%
X255545000Y-182640000D03*
X253245000Y-182640000D03*
%TD*%
D10*
%TO.C,R12*%
X219995000Y-188200000D03*
X219995000Y-185900000D03*
%TD*%
D11*
%TO.C,Q8*%
X238895000Y-190390000D03*
X238895000Y-188490000D03*
X236895000Y-189440000D03*
%TD*%
%TO.C,Q9*%
X224400000Y-195700000D03*
X224400000Y-193800000D03*
X222400000Y-194750000D03*
%TD*%
D10*
%TO.C,R14*%
X181495000Y-185590000D03*
X181495000Y-183290000D03*
%TD*%
%TO.C,R16*%
X181495000Y-190590000D03*
X181495000Y-188290000D03*
%TD*%
%TO.C,R13*%
X181495000Y-180590000D03*
X181495000Y-178290000D03*
%TD*%
D11*
%TO.C,Q4*%
X164295000Y-183000000D03*
X164295000Y-181100000D03*
X162295000Y-182050000D03*
%TD*%
%TO.C,Q11*%
X178895000Y-195700000D03*
X178895000Y-193800000D03*
X176895000Y-194750000D03*
%TD*%
D10*
%TO.C,R44*%
X197145000Y-166140000D03*
X197145000Y-163840000D03*
%TD*%
D11*
%TO.C,Q7*%
X179095000Y-185390000D03*
X179095000Y-183490000D03*
X177095000Y-184440000D03*
%TD*%
D12*
%TO.C,C10*%
X210795000Y-204140000D03*
X213195000Y-204140000D03*
%TD*%
D10*
%TO.C,R9*%
X166795000Y-188200000D03*
X166795000Y-185900000D03*
%TD*%
%TO.C,R8*%
X166795000Y-183200000D03*
X166795000Y-180900000D03*
%TD*%
%TO.C,R1*%
X166795000Y-178200000D03*
X166795000Y-175900000D03*
%TD*%
D13*
%TO.C,R2*%
X185390000Y-164290000D03*
X187690000Y-164290000D03*
%TD*%
D14*
%TO.C,R46*%
X192090000Y-166530000D03*
X192090000Y-168830000D03*
%TD*%
D10*
%TO.C,R19*%
X174795000Y-180590000D03*
X174795000Y-178290000D03*
%TD*%
D11*
%TO.C,Q6*%
X179095000Y-180390000D03*
X179095000Y-178490000D03*
X177095000Y-179440000D03*
%TD*%
%TO.C,Q10*%
X164200000Y-200850000D03*
X164200000Y-198950000D03*
X162200000Y-199900000D03*
%TD*%
D15*
%TO.C,MO2*%
X158350000Y-163550000D03*
X158320000Y-172120000D03*
X173450000Y-163530000D03*
X173450000Y-172120000D03*
%TD*%
D10*
%TO.C,R15*%
X174795000Y-190590000D03*
X174795000Y-188290000D03*
%TD*%
%TO.C,R10*%
X159995000Y-178200000D03*
X159995000Y-175900000D03*
%TD*%
%TO.C,R24*%
X181495000Y-195900000D03*
X181495000Y-193600000D03*
%TD*%
D16*
%TO.C,U4*%
X199020000Y-177935000D03*
X199020000Y-179205000D03*
X199020000Y-180475000D03*
X199020000Y-181745000D03*
X205370000Y-181745000D03*
X205370000Y-180475000D03*
X205370000Y-179205000D03*
X205370000Y-177935000D03*
%TD*%
D10*
%TO.C,R45*%
X197145000Y-171290000D03*
X197145000Y-168990000D03*
%TD*%
D14*
%TO.C,R17*%
X160000000Y-193650000D03*
X160000000Y-195950000D03*
%TD*%
D17*
%TO.C,R42*%
X195545000Y-180240000D03*
X193245000Y-180240000D03*
%TD*%
D11*
%TO.C,Q1*%
X164295000Y-178000000D03*
X164295000Y-176100000D03*
X162295000Y-177050000D03*
%TD*%
D18*
%TO.C,C9*%
X205070000Y-195970000D03*
X199470000Y-195970000D03*
%TD*%
D11*
%TO.C,Q5*%
X164295000Y-188000000D03*
X164295000Y-186100000D03*
X162295000Y-187050000D03*
%TD*%
D12*
%TO.C,C3*%
X208095000Y-177940000D03*
X210495000Y-177940000D03*
%TD*%
D10*
%TO.C,R11*%
X159995000Y-183200000D03*
X159995000Y-180900000D03*
%TD*%
D14*
%TO.C,R21*%
X160000000Y-198800000D03*
X160000000Y-201100000D03*
%TD*%
D19*
%TO.C,D3*%
X204075000Y-173250000D03*
X205975000Y-173250000D03*
X205025000Y-171250000D03*
%TD*%
D17*
%TO.C,R3*%
X213145000Y-206640000D03*
X210845000Y-206640000D03*
%TD*%
D10*
%TO.C,R22*%
X166700000Y-201050000D03*
X166700000Y-198750000D03*
%TD*%
%TO.C,R20*%
X174795000Y-185590000D03*
X174795000Y-183290000D03*
%TD*%
%TO.C,R18*%
X166800000Y-195900000D03*
X166800000Y-193600000D03*
%TD*%
D17*
%TO.C,R43*%
X195545000Y-177840000D03*
X193245000Y-177840000D03*
%TD*%
D10*
%TO.C,R23*%
X174795000Y-195900000D03*
X174795000Y-193600000D03*
%TD*%
D20*
%TO.C,D2*%
X185290000Y-161960000D03*
X187790000Y-161960000D03*
%TD*%
D13*
%TO.C,R5*%
X210845000Y-201640000D03*
X213145000Y-201640000D03*
%TD*%
D17*
%TO.C,R41*%
X195545000Y-182640000D03*
X193245000Y-182640000D03*
%TD*%
D10*
%TO.C,R12*%
X159995000Y-188200000D03*
X159995000Y-185900000D03*
%TD*%
D11*
%TO.C,Q8*%
X178895000Y-190390000D03*
X178895000Y-188490000D03*
X176895000Y-189440000D03*
%TD*%
%TO.C,Q9*%
X164400000Y-195700000D03*
X164400000Y-193800000D03*
X162400000Y-194750000D03*
%TD*%
D10*
%TO.C,R14*%
X121495000Y-185590000D03*
X121495000Y-183290000D03*
%TD*%
%TO.C,R16*%
X121495000Y-190590000D03*
X121495000Y-188290000D03*
%TD*%
%TO.C,R13*%
X121495000Y-180590000D03*
X121495000Y-178290000D03*
%TD*%
D11*
%TO.C,Q4*%
X104295000Y-183000000D03*
X104295000Y-181100000D03*
X102295000Y-182050000D03*
%TD*%
%TO.C,Q11*%
X118895000Y-195700000D03*
X118895000Y-193800000D03*
X116895000Y-194750000D03*
%TD*%
D10*
%TO.C,R44*%
X137145000Y-166140000D03*
X137145000Y-163840000D03*
%TD*%
D11*
%TO.C,Q7*%
X119095000Y-185390000D03*
X119095000Y-183490000D03*
X117095000Y-184440000D03*
%TD*%
D12*
%TO.C,C10*%
X150795000Y-204140000D03*
X153195000Y-204140000D03*
%TD*%
D10*
%TO.C,R9*%
X106795000Y-188200000D03*
X106795000Y-185900000D03*
%TD*%
%TO.C,R8*%
X106795000Y-183200000D03*
X106795000Y-180900000D03*
%TD*%
%TO.C,R1*%
X106795000Y-178200000D03*
X106795000Y-175900000D03*
%TD*%
D13*
%TO.C,R2*%
X125390000Y-164290000D03*
X127690000Y-164290000D03*
%TD*%
D14*
%TO.C,R46*%
X132090000Y-166530000D03*
X132090000Y-168830000D03*
%TD*%
D10*
%TO.C,R19*%
X114795000Y-180590000D03*
X114795000Y-178290000D03*
%TD*%
D11*
%TO.C,Q6*%
X119095000Y-180390000D03*
X119095000Y-178490000D03*
X117095000Y-179440000D03*
%TD*%
%TO.C,Q10*%
X104200000Y-200850000D03*
X104200000Y-198950000D03*
X102200000Y-199900000D03*
%TD*%
D15*
%TO.C,MO2*%
X98350000Y-163550000D03*
X98320000Y-172120000D03*
X113450000Y-163530000D03*
X113450000Y-172120000D03*
%TD*%
D10*
%TO.C,R15*%
X114795000Y-190590000D03*
X114795000Y-188290000D03*
%TD*%
%TO.C,R10*%
X99995000Y-178200000D03*
X99995000Y-175900000D03*
%TD*%
%TO.C,R24*%
X121495000Y-195900000D03*
X121495000Y-193600000D03*
%TD*%
D16*
%TO.C,U4*%
X139020000Y-177935000D03*
X139020000Y-179205000D03*
X139020000Y-180475000D03*
X139020000Y-181745000D03*
X145370000Y-181745000D03*
X145370000Y-180475000D03*
X145370000Y-179205000D03*
X145370000Y-177935000D03*
%TD*%
D10*
%TO.C,R45*%
X137145000Y-171290000D03*
X137145000Y-168990000D03*
%TD*%
D14*
%TO.C,R17*%
X100000000Y-193650000D03*
X100000000Y-195950000D03*
%TD*%
D17*
%TO.C,R42*%
X135545000Y-180240000D03*
X133245000Y-180240000D03*
%TD*%
D11*
%TO.C,Q1*%
X104295000Y-178000000D03*
X104295000Y-176100000D03*
X102295000Y-177050000D03*
%TD*%
D18*
%TO.C,C9*%
X145070000Y-195970000D03*
X139470000Y-195970000D03*
%TD*%
D11*
%TO.C,Q5*%
X104295000Y-188000000D03*
X104295000Y-186100000D03*
X102295000Y-187050000D03*
%TD*%
D12*
%TO.C,C3*%
X148095000Y-177940000D03*
X150495000Y-177940000D03*
%TD*%
D10*
%TO.C,R11*%
X99995000Y-183200000D03*
X99995000Y-180900000D03*
%TD*%
D14*
%TO.C,R21*%
X100000000Y-198800000D03*
X100000000Y-201100000D03*
%TD*%
D19*
%TO.C,D3*%
X144075000Y-173250000D03*
X145975000Y-173250000D03*
X145025000Y-171250000D03*
%TD*%
D17*
%TO.C,R3*%
X153145000Y-206640000D03*
X150845000Y-206640000D03*
%TD*%
D10*
%TO.C,R22*%
X106700000Y-201050000D03*
X106700000Y-198750000D03*
%TD*%
%TO.C,R20*%
X114795000Y-185590000D03*
X114795000Y-183290000D03*
%TD*%
%TO.C,R18*%
X106800000Y-195900000D03*
X106800000Y-193600000D03*
%TD*%
D17*
%TO.C,R43*%
X135545000Y-177840000D03*
X133245000Y-177840000D03*
%TD*%
D10*
%TO.C,R23*%
X114795000Y-195900000D03*
X114795000Y-193600000D03*
%TD*%
D20*
%TO.C,D2*%
X125290000Y-161960000D03*
X127790000Y-161960000D03*
%TD*%
D13*
%TO.C,R5*%
X150845000Y-201640000D03*
X153145000Y-201640000D03*
%TD*%
D17*
%TO.C,R41*%
X135545000Y-182640000D03*
X133245000Y-182640000D03*
%TD*%
D10*
%TO.C,R12*%
X99995000Y-188200000D03*
X99995000Y-185900000D03*
%TD*%
D11*
%TO.C,Q8*%
X118895000Y-190390000D03*
X118895000Y-188490000D03*
X116895000Y-189440000D03*
%TD*%
%TO.C,Q9*%
X104400000Y-195700000D03*
X104400000Y-193800000D03*
X102400000Y-194750000D03*
%TD*%
D10*
%TO.C,R14*%
X61495000Y-185590000D03*
X61495000Y-183290000D03*
%TD*%
%TO.C,R16*%
X61495000Y-190590000D03*
X61495000Y-188290000D03*
%TD*%
%TO.C,R13*%
X61495000Y-180590000D03*
X61495000Y-178290000D03*
%TD*%
D11*
%TO.C,Q4*%
X44295000Y-183000000D03*
X44295000Y-181100000D03*
X42295000Y-182050000D03*
%TD*%
%TO.C,Q11*%
X58895000Y-195700000D03*
X58895000Y-193800000D03*
X56895000Y-194750000D03*
%TD*%
D10*
%TO.C,R44*%
X77145000Y-166140000D03*
X77145000Y-163840000D03*
%TD*%
D11*
%TO.C,Q7*%
X59095000Y-185390000D03*
X59095000Y-183490000D03*
X57095000Y-184440000D03*
%TD*%
D12*
%TO.C,C10*%
X90795000Y-204140000D03*
X93195000Y-204140000D03*
%TD*%
D10*
%TO.C,R9*%
X46795000Y-188200000D03*
X46795000Y-185900000D03*
%TD*%
%TO.C,R8*%
X46795000Y-183200000D03*
X46795000Y-180900000D03*
%TD*%
%TO.C,R1*%
X46795000Y-178200000D03*
X46795000Y-175900000D03*
%TD*%
D13*
%TO.C,R2*%
X65390000Y-164290000D03*
X67690000Y-164290000D03*
%TD*%
D14*
%TO.C,R46*%
X72090000Y-166530000D03*
X72090000Y-168830000D03*
%TD*%
D10*
%TO.C,R19*%
X54795000Y-180590000D03*
X54795000Y-178290000D03*
%TD*%
D11*
%TO.C,Q6*%
X59095000Y-180390000D03*
X59095000Y-178490000D03*
X57095000Y-179440000D03*
%TD*%
%TO.C,Q10*%
X44200000Y-200850000D03*
X44200000Y-198950000D03*
X42200000Y-199900000D03*
%TD*%
D15*
%TO.C,MO2*%
X38350000Y-163550000D03*
X38320000Y-172120000D03*
X53450000Y-163530000D03*
X53450000Y-172120000D03*
%TD*%
D10*
%TO.C,R15*%
X54795000Y-190590000D03*
X54795000Y-188290000D03*
%TD*%
%TO.C,R10*%
X39995000Y-178200000D03*
X39995000Y-175900000D03*
%TD*%
%TO.C,R24*%
X61495000Y-195900000D03*
X61495000Y-193600000D03*
%TD*%
D16*
%TO.C,U4*%
X79020000Y-177935000D03*
X79020000Y-179205000D03*
X79020000Y-180475000D03*
X79020000Y-181745000D03*
X85370000Y-181745000D03*
X85370000Y-180475000D03*
X85370000Y-179205000D03*
X85370000Y-177935000D03*
%TD*%
D10*
%TO.C,R45*%
X77145000Y-171290000D03*
X77145000Y-168990000D03*
%TD*%
D14*
%TO.C,R17*%
X40000000Y-193650000D03*
X40000000Y-195950000D03*
%TD*%
D17*
%TO.C,R42*%
X75545000Y-180240000D03*
X73245000Y-180240000D03*
%TD*%
D11*
%TO.C,Q1*%
X44295000Y-178000000D03*
X44295000Y-176100000D03*
X42295000Y-177050000D03*
%TD*%
D18*
%TO.C,C9*%
X85070000Y-195970000D03*
X79470000Y-195970000D03*
%TD*%
D11*
%TO.C,Q5*%
X44295000Y-188000000D03*
X44295000Y-186100000D03*
X42295000Y-187050000D03*
%TD*%
D12*
%TO.C,C3*%
X88095000Y-177940000D03*
X90495000Y-177940000D03*
%TD*%
D10*
%TO.C,R11*%
X39995000Y-183200000D03*
X39995000Y-180900000D03*
%TD*%
D14*
%TO.C,R21*%
X40000000Y-198800000D03*
X40000000Y-201100000D03*
%TD*%
D19*
%TO.C,D3*%
X84075000Y-173250000D03*
X85975000Y-173250000D03*
X85025000Y-171250000D03*
%TD*%
D17*
%TO.C,R3*%
X93145000Y-206640000D03*
X90845000Y-206640000D03*
%TD*%
D10*
%TO.C,R22*%
X46700000Y-201050000D03*
X46700000Y-198750000D03*
%TD*%
%TO.C,R20*%
X54795000Y-185590000D03*
X54795000Y-183290000D03*
%TD*%
%TO.C,R18*%
X46800000Y-195900000D03*
X46800000Y-193600000D03*
%TD*%
D17*
%TO.C,R43*%
X75545000Y-177840000D03*
X73245000Y-177840000D03*
%TD*%
D10*
%TO.C,R23*%
X54795000Y-195900000D03*
X54795000Y-193600000D03*
%TD*%
D20*
%TO.C,D2*%
X65290000Y-161960000D03*
X67790000Y-161960000D03*
%TD*%
D13*
%TO.C,R5*%
X90845000Y-201640000D03*
X93145000Y-201640000D03*
%TD*%
D17*
%TO.C,R41*%
X75545000Y-182640000D03*
X73245000Y-182640000D03*
%TD*%
D10*
%TO.C,R12*%
X39995000Y-188200000D03*
X39995000Y-185900000D03*
%TD*%
D11*
%TO.C,Q8*%
X58895000Y-190390000D03*
X58895000Y-188490000D03*
X56895000Y-189440000D03*
%TD*%
%TO.C,Q9*%
X44400000Y-195700000D03*
X44400000Y-193800000D03*
X42400000Y-194750000D03*
%TD*%
D10*
%TO.C,R14*%
X301495000Y-130990000D03*
X301495000Y-128690000D03*
%TD*%
%TO.C,R16*%
X301495000Y-135990000D03*
X301495000Y-133690000D03*
%TD*%
%TO.C,R13*%
X301495000Y-125990000D03*
X301495000Y-123690000D03*
%TD*%
D11*
%TO.C,Q4*%
X284295000Y-128400000D03*
X284295000Y-126500000D03*
X282295000Y-127450000D03*
%TD*%
%TO.C,Q11*%
X298895000Y-141100000D03*
X298895000Y-139200000D03*
X296895000Y-140150000D03*
%TD*%
D10*
%TO.C,R44*%
X317145000Y-111540000D03*
X317145000Y-109240000D03*
%TD*%
D11*
%TO.C,Q7*%
X299095000Y-130790000D03*
X299095000Y-128890000D03*
X297095000Y-129840000D03*
%TD*%
D12*
%TO.C,C10*%
X330795000Y-149540000D03*
X333195000Y-149540000D03*
%TD*%
D10*
%TO.C,R9*%
X286795000Y-133600000D03*
X286795000Y-131300000D03*
%TD*%
%TO.C,R8*%
X286795000Y-128600000D03*
X286795000Y-126300000D03*
%TD*%
%TO.C,R1*%
X286795000Y-123600000D03*
X286795000Y-121300000D03*
%TD*%
D13*
%TO.C,R2*%
X305390000Y-109690000D03*
X307690000Y-109690000D03*
%TD*%
D14*
%TO.C,R46*%
X312090000Y-111930000D03*
X312090000Y-114230000D03*
%TD*%
D10*
%TO.C,R19*%
X294795000Y-125990000D03*
X294795000Y-123690000D03*
%TD*%
D11*
%TO.C,Q6*%
X299095000Y-125790000D03*
X299095000Y-123890000D03*
X297095000Y-124840000D03*
%TD*%
%TO.C,Q10*%
X284200000Y-146250000D03*
X284200000Y-144350000D03*
X282200000Y-145300000D03*
%TD*%
D15*
%TO.C,MO2*%
X278350000Y-108950000D03*
X278320000Y-117520000D03*
X293450000Y-108930000D03*
X293450000Y-117520000D03*
%TD*%
D10*
%TO.C,R15*%
X294795000Y-135990000D03*
X294795000Y-133690000D03*
%TD*%
%TO.C,R10*%
X279995000Y-123600000D03*
X279995000Y-121300000D03*
%TD*%
%TO.C,R24*%
X301495000Y-141300000D03*
X301495000Y-139000000D03*
%TD*%
D16*
%TO.C,U4*%
X319020000Y-123335000D03*
X319020000Y-124605000D03*
X319020000Y-125875000D03*
X319020000Y-127145000D03*
X325370000Y-127145000D03*
X325370000Y-125875000D03*
X325370000Y-124605000D03*
X325370000Y-123335000D03*
%TD*%
D10*
%TO.C,R45*%
X317145000Y-116690000D03*
X317145000Y-114390000D03*
%TD*%
D14*
%TO.C,R17*%
X280000000Y-139050000D03*
X280000000Y-141350000D03*
%TD*%
D17*
%TO.C,R42*%
X315545000Y-125640000D03*
X313245000Y-125640000D03*
%TD*%
D11*
%TO.C,Q1*%
X284295000Y-123400000D03*
X284295000Y-121500000D03*
X282295000Y-122450000D03*
%TD*%
D18*
%TO.C,C9*%
X325070000Y-141370000D03*
X319470000Y-141370000D03*
%TD*%
D11*
%TO.C,Q5*%
X284295000Y-133400000D03*
X284295000Y-131500000D03*
X282295000Y-132450000D03*
%TD*%
D12*
%TO.C,C3*%
X328095000Y-123340000D03*
X330495000Y-123340000D03*
%TD*%
D10*
%TO.C,R11*%
X279995000Y-128600000D03*
X279995000Y-126300000D03*
%TD*%
D14*
%TO.C,R21*%
X280000000Y-144200000D03*
X280000000Y-146500000D03*
%TD*%
D19*
%TO.C,D3*%
X324075000Y-118650000D03*
X325975000Y-118650000D03*
X325025000Y-116650000D03*
%TD*%
D17*
%TO.C,R3*%
X333145000Y-152040000D03*
X330845000Y-152040000D03*
%TD*%
D10*
%TO.C,R22*%
X286700000Y-146450000D03*
X286700000Y-144150000D03*
%TD*%
%TO.C,R20*%
X294795000Y-130990000D03*
X294795000Y-128690000D03*
%TD*%
%TO.C,R18*%
X286800000Y-141300000D03*
X286800000Y-139000000D03*
%TD*%
D17*
%TO.C,R43*%
X315545000Y-123240000D03*
X313245000Y-123240000D03*
%TD*%
D10*
%TO.C,R23*%
X294795000Y-141300000D03*
X294795000Y-139000000D03*
%TD*%
D20*
%TO.C,D2*%
X305290000Y-107360000D03*
X307790000Y-107360000D03*
%TD*%
D13*
%TO.C,R5*%
X330845000Y-147040000D03*
X333145000Y-147040000D03*
%TD*%
D17*
%TO.C,R41*%
X315545000Y-128040000D03*
X313245000Y-128040000D03*
%TD*%
D10*
%TO.C,R12*%
X279995000Y-133600000D03*
X279995000Y-131300000D03*
%TD*%
D11*
%TO.C,Q8*%
X298895000Y-135790000D03*
X298895000Y-133890000D03*
X296895000Y-134840000D03*
%TD*%
%TO.C,Q9*%
X284400000Y-141100000D03*
X284400000Y-139200000D03*
X282400000Y-140150000D03*
%TD*%
D10*
%TO.C,R14*%
X241495000Y-130990000D03*
X241495000Y-128690000D03*
%TD*%
%TO.C,R16*%
X241495000Y-135990000D03*
X241495000Y-133690000D03*
%TD*%
%TO.C,R13*%
X241495000Y-125990000D03*
X241495000Y-123690000D03*
%TD*%
D11*
%TO.C,Q4*%
X224295000Y-128400000D03*
X224295000Y-126500000D03*
X222295000Y-127450000D03*
%TD*%
%TO.C,Q11*%
X238895000Y-141100000D03*
X238895000Y-139200000D03*
X236895000Y-140150000D03*
%TD*%
D10*
%TO.C,R44*%
X257145000Y-111540000D03*
X257145000Y-109240000D03*
%TD*%
D11*
%TO.C,Q7*%
X239095000Y-130790000D03*
X239095000Y-128890000D03*
X237095000Y-129840000D03*
%TD*%
D12*
%TO.C,C10*%
X270795000Y-149540000D03*
X273195000Y-149540000D03*
%TD*%
D10*
%TO.C,R9*%
X226795000Y-133600000D03*
X226795000Y-131300000D03*
%TD*%
%TO.C,R8*%
X226795000Y-128600000D03*
X226795000Y-126300000D03*
%TD*%
%TO.C,R1*%
X226795000Y-123600000D03*
X226795000Y-121300000D03*
%TD*%
D13*
%TO.C,R2*%
X245390000Y-109690000D03*
X247690000Y-109690000D03*
%TD*%
D14*
%TO.C,R46*%
X252090000Y-111930000D03*
X252090000Y-114230000D03*
%TD*%
D10*
%TO.C,R19*%
X234795000Y-125990000D03*
X234795000Y-123690000D03*
%TD*%
D11*
%TO.C,Q6*%
X239095000Y-125790000D03*
X239095000Y-123890000D03*
X237095000Y-124840000D03*
%TD*%
%TO.C,Q10*%
X224200000Y-146250000D03*
X224200000Y-144350000D03*
X222200000Y-145300000D03*
%TD*%
D15*
%TO.C,MO2*%
X218350000Y-108950000D03*
X218320000Y-117520000D03*
X233450000Y-108930000D03*
X233450000Y-117520000D03*
%TD*%
D10*
%TO.C,R15*%
X234795000Y-135990000D03*
X234795000Y-133690000D03*
%TD*%
%TO.C,R10*%
X219995000Y-123600000D03*
X219995000Y-121300000D03*
%TD*%
%TO.C,R24*%
X241495000Y-141300000D03*
X241495000Y-139000000D03*
%TD*%
D16*
%TO.C,U4*%
X259020000Y-123335000D03*
X259020000Y-124605000D03*
X259020000Y-125875000D03*
X259020000Y-127145000D03*
X265370000Y-127145000D03*
X265370000Y-125875000D03*
X265370000Y-124605000D03*
X265370000Y-123335000D03*
%TD*%
D10*
%TO.C,R45*%
X257145000Y-116690000D03*
X257145000Y-114390000D03*
%TD*%
D14*
%TO.C,R17*%
X220000000Y-139050000D03*
X220000000Y-141350000D03*
%TD*%
D17*
%TO.C,R42*%
X255545000Y-125640000D03*
X253245000Y-125640000D03*
%TD*%
D11*
%TO.C,Q1*%
X224295000Y-123400000D03*
X224295000Y-121500000D03*
X222295000Y-122450000D03*
%TD*%
D18*
%TO.C,C9*%
X265070000Y-141370000D03*
X259470000Y-141370000D03*
%TD*%
D11*
%TO.C,Q5*%
X224295000Y-133400000D03*
X224295000Y-131500000D03*
X222295000Y-132450000D03*
%TD*%
D12*
%TO.C,C3*%
X268095000Y-123340000D03*
X270495000Y-123340000D03*
%TD*%
D10*
%TO.C,R11*%
X219995000Y-128600000D03*
X219995000Y-126300000D03*
%TD*%
D14*
%TO.C,R21*%
X220000000Y-144200000D03*
X220000000Y-146500000D03*
%TD*%
D19*
%TO.C,D3*%
X264075000Y-118650000D03*
X265975000Y-118650000D03*
X265025000Y-116650000D03*
%TD*%
D17*
%TO.C,R3*%
X273145000Y-152040000D03*
X270845000Y-152040000D03*
%TD*%
D10*
%TO.C,R22*%
X226700000Y-146450000D03*
X226700000Y-144150000D03*
%TD*%
%TO.C,R20*%
X234795000Y-130990000D03*
X234795000Y-128690000D03*
%TD*%
%TO.C,R18*%
X226800000Y-141300000D03*
X226800000Y-139000000D03*
%TD*%
D17*
%TO.C,R43*%
X255545000Y-123240000D03*
X253245000Y-123240000D03*
%TD*%
D10*
%TO.C,R23*%
X234795000Y-141300000D03*
X234795000Y-139000000D03*
%TD*%
D20*
%TO.C,D2*%
X245290000Y-107360000D03*
X247790000Y-107360000D03*
%TD*%
D13*
%TO.C,R5*%
X270845000Y-147040000D03*
X273145000Y-147040000D03*
%TD*%
D17*
%TO.C,R41*%
X255545000Y-128040000D03*
X253245000Y-128040000D03*
%TD*%
D10*
%TO.C,R12*%
X219995000Y-133600000D03*
X219995000Y-131300000D03*
%TD*%
D11*
%TO.C,Q8*%
X238895000Y-135790000D03*
X238895000Y-133890000D03*
X236895000Y-134840000D03*
%TD*%
%TO.C,Q9*%
X224400000Y-141100000D03*
X224400000Y-139200000D03*
X222400000Y-140150000D03*
%TD*%
D10*
%TO.C,R14*%
X181495000Y-130990000D03*
X181495000Y-128690000D03*
%TD*%
%TO.C,R16*%
X181495000Y-135990000D03*
X181495000Y-133690000D03*
%TD*%
%TO.C,R13*%
X181495000Y-125990000D03*
X181495000Y-123690000D03*
%TD*%
D11*
%TO.C,Q4*%
X164295000Y-128400000D03*
X164295000Y-126500000D03*
X162295000Y-127450000D03*
%TD*%
%TO.C,Q11*%
X178895000Y-141100000D03*
X178895000Y-139200000D03*
X176895000Y-140150000D03*
%TD*%
D10*
%TO.C,R44*%
X197145000Y-111540000D03*
X197145000Y-109240000D03*
%TD*%
D11*
%TO.C,Q7*%
X179095000Y-130790000D03*
X179095000Y-128890000D03*
X177095000Y-129840000D03*
%TD*%
D12*
%TO.C,C10*%
X210795000Y-149540000D03*
X213195000Y-149540000D03*
%TD*%
D10*
%TO.C,R9*%
X166795000Y-133600000D03*
X166795000Y-131300000D03*
%TD*%
%TO.C,R8*%
X166795000Y-128600000D03*
X166795000Y-126300000D03*
%TD*%
%TO.C,R1*%
X166795000Y-123600000D03*
X166795000Y-121300000D03*
%TD*%
D13*
%TO.C,R2*%
X185390000Y-109690000D03*
X187690000Y-109690000D03*
%TD*%
D14*
%TO.C,R46*%
X192090000Y-111930000D03*
X192090000Y-114230000D03*
%TD*%
D10*
%TO.C,R19*%
X174795000Y-125990000D03*
X174795000Y-123690000D03*
%TD*%
D11*
%TO.C,Q6*%
X179095000Y-125790000D03*
X179095000Y-123890000D03*
X177095000Y-124840000D03*
%TD*%
%TO.C,Q10*%
X164200000Y-146250000D03*
X164200000Y-144350000D03*
X162200000Y-145300000D03*
%TD*%
D15*
%TO.C,MO2*%
X158350000Y-108950000D03*
X158320000Y-117520000D03*
X173450000Y-108930000D03*
X173450000Y-117520000D03*
%TD*%
D10*
%TO.C,R15*%
X174795000Y-135990000D03*
X174795000Y-133690000D03*
%TD*%
%TO.C,R10*%
X159995000Y-123600000D03*
X159995000Y-121300000D03*
%TD*%
%TO.C,R24*%
X181495000Y-141300000D03*
X181495000Y-139000000D03*
%TD*%
D16*
%TO.C,U4*%
X199020000Y-123335000D03*
X199020000Y-124605000D03*
X199020000Y-125875000D03*
X199020000Y-127145000D03*
X205370000Y-127145000D03*
X205370000Y-125875000D03*
X205370000Y-124605000D03*
X205370000Y-123335000D03*
%TD*%
D10*
%TO.C,R45*%
X197145000Y-116690000D03*
X197145000Y-114390000D03*
%TD*%
D14*
%TO.C,R17*%
X160000000Y-139050000D03*
X160000000Y-141350000D03*
%TD*%
D17*
%TO.C,R42*%
X195545000Y-125640000D03*
X193245000Y-125640000D03*
%TD*%
D11*
%TO.C,Q1*%
X164295000Y-123400000D03*
X164295000Y-121500000D03*
X162295000Y-122450000D03*
%TD*%
D18*
%TO.C,C9*%
X205070000Y-141370000D03*
X199470000Y-141370000D03*
%TD*%
D11*
%TO.C,Q5*%
X164295000Y-133400000D03*
X164295000Y-131500000D03*
X162295000Y-132450000D03*
%TD*%
D12*
%TO.C,C3*%
X208095000Y-123340000D03*
X210495000Y-123340000D03*
%TD*%
D10*
%TO.C,R11*%
X159995000Y-128600000D03*
X159995000Y-126300000D03*
%TD*%
D14*
%TO.C,R21*%
X160000000Y-144200000D03*
X160000000Y-146500000D03*
%TD*%
D19*
%TO.C,D3*%
X204075000Y-118650000D03*
X205975000Y-118650000D03*
X205025000Y-116650000D03*
%TD*%
D17*
%TO.C,R3*%
X213145000Y-152040000D03*
X210845000Y-152040000D03*
%TD*%
D10*
%TO.C,R22*%
X166700000Y-146450000D03*
X166700000Y-144150000D03*
%TD*%
%TO.C,R20*%
X174795000Y-130990000D03*
X174795000Y-128690000D03*
%TD*%
%TO.C,R18*%
X166800000Y-141300000D03*
X166800000Y-139000000D03*
%TD*%
D17*
%TO.C,R43*%
X195545000Y-123240000D03*
X193245000Y-123240000D03*
%TD*%
D10*
%TO.C,R23*%
X174795000Y-141300000D03*
X174795000Y-139000000D03*
%TD*%
D20*
%TO.C,D2*%
X185290000Y-107360000D03*
X187790000Y-107360000D03*
%TD*%
D13*
%TO.C,R5*%
X210845000Y-147040000D03*
X213145000Y-147040000D03*
%TD*%
D17*
%TO.C,R41*%
X195545000Y-128040000D03*
X193245000Y-128040000D03*
%TD*%
D10*
%TO.C,R12*%
X159995000Y-133600000D03*
X159995000Y-131300000D03*
%TD*%
D11*
%TO.C,Q8*%
X178895000Y-135790000D03*
X178895000Y-133890000D03*
X176895000Y-134840000D03*
%TD*%
%TO.C,Q9*%
X164400000Y-141100000D03*
X164400000Y-139200000D03*
X162400000Y-140150000D03*
%TD*%
D10*
%TO.C,R14*%
X121495000Y-130990000D03*
X121495000Y-128690000D03*
%TD*%
%TO.C,R16*%
X121495000Y-135990000D03*
X121495000Y-133690000D03*
%TD*%
%TO.C,R13*%
X121495000Y-125990000D03*
X121495000Y-123690000D03*
%TD*%
D11*
%TO.C,Q4*%
X104295000Y-128400000D03*
X104295000Y-126500000D03*
X102295000Y-127450000D03*
%TD*%
%TO.C,Q11*%
X118895000Y-141100000D03*
X118895000Y-139200000D03*
X116895000Y-140150000D03*
%TD*%
D10*
%TO.C,R44*%
X137145000Y-111540000D03*
X137145000Y-109240000D03*
%TD*%
D11*
%TO.C,Q7*%
X119095000Y-130790000D03*
X119095000Y-128890000D03*
X117095000Y-129840000D03*
%TD*%
D12*
%TO.C,C10*%
X150795000Y-149540000D03*
X153195000Y-149540000D03*
%TD*%
D10*
%TO.C,R9*%
X106795000Y-133600000D03*
X106795000Y-131300000D03*
%TD*%
%TO.C,R8*%
X106795000Y-128600000D03*
X106795000Y-126300000D03*
%TD*%
%TO.C,R1*%
X106795000Y-123600000D03*
X106795000Y-121300000D03*
%TD*%
D13*
%TO.C,R2*%
X125390000Y-109690000D03*
X127690000Y-109690000D03*
%TD*%
D14*
%TO.C,R46*%
X132090000Y-111930000D03*
X132090000Y-114230000D03*
%TD*%
D10*
%TO.C,R19*%
X114795000Y-125990000D03*
X114795000Y-123690000D03*
%TD*%
D11*
%TO.C,Q6*%
X119095000Y-125790000D03*
X119095000Y-123890000D03*
X117095000Y-124840000D03*
%TD*%
%TO.C,Q10*%
X104200000Y-146250000D03*
X104200000Y-144350000D03*
X102200000Y-145300000D03*
%TD*%
D15*
%TO.C,MO2*%
X98350000Y-108950000D03*
X98320000Y-117520000D03*
X113450000Y-108930000D03*
X113450000Y-117520000D03*
%TD*%
D10*
%TO.C,R15*%
X114795000Y-135990000D03*
X114795000Y-133690000D03*
%TD*%
%TO.C,R10*%
X99995000Y-123600000D03*
X99995000Y-121300000D03*
%TD*%
%TO.C,R24*%
X121495000Y-141300000D03*
X121495000Y-139000000D03*
%TD*%
D16*
%TO.C,U4*%
X139020000Y-123335000D03*
X139020000Y-124605000D03*
X139020000Y-125875000D03*
X139020000Y-127145000D03*
X145370000Y-127145000D03*
X145370000Y-125875000D03*
X145370000Y-124605000D03*
X145370000Y-123335000D03*
%TD*%
D10*
%TO.C,R45*%
X137145000Y-116690000D03*
X137145000Y-114390000D03*
%TD*%
D14*
%TO.C,R17*%
X100000000Y-139050000D03*
X100000000Y-141350000D03*
%TD*%
D17*
%TO.C,R42*%
X135545000Y-125640000D03*
X133245000Y-125640000D03*
%TD*%
D11*
%TO.C,Q1*%
X104295000Y-123400000D03*
X104295000Y-121500000D03*
X102295000Y-122450000D03*
%TD*%
D18*
%TO.C,C9*%
X145070000Y-141370000D03*
X139470000Y-141370000D03*
%TD*%
D11*
%TO.C,Q5*%
X104295000Y-133400000D03*
X104295000Y-131500000D03*
X102295000Y-132450000D03*
%TD*%
D12*
%TO.C,C3*%
X148095000Y-123340000D03*
X150495000Y-123340000D03*
%TD*%
D10*
%TO.C,R11*%
X99995000Y-128600000D03*
X99995000Y-126300000D03*
%TD*%
D14*
%TO.C,R21*%
X100000000Y-144200000D03*
X100000000Y-146500000D03*
%TD*%
D19*
%TO.C,D3*%
X144075000Y-118650000D03*
X145975000Y-118650000D03*
X145025000Y-116650000D03*
%TD*%
D17*
%TO.C,R3*%
X153145000Y-152040000D03*
X150845000Y-152040000D03*
%TD*%
D10*
%TO.C,R22*%
X106700000Y-146450000D03*
X106700000Y-144150000D03*
%TD*%
%TO.C,R20*%
X114795000Y-130990000D03*
X114795000Y-128690000D03*
%TD*%
%TO.C,R18*%
X106800000Y-141300000D03*
X106800000Y-139000000D03*
%TD*%
D17*
%TO.C,R43*%
X135545000Y-123240000D03*
X133245000Y-123240000D03*
%TD*%
D10*
%TO.C,R23*%
X114795000Y-141300000D03*
X114795000Y-139000000D03*
%TD*%
D20*
%TO.C,D2*%
X125290000Y-107360000D03*
X127790000Y-107360000D03*
%TD*%
D13*
%TO.C,R5*%
X150845000Y-147040000D03*
X153145000Y-147040000D03*
%TD*%
D17*
%TO.C,R41*%
X135545000Y-128040000D03*
X133245000Y-128040000D03*
%TD*%
D10*
%TO.C,R12*%
X99995000Y-133600000D03*
X99995000Y-131300000D03*
%TD*%
D11*
%TO.C,Q8*%
X118895000Y-135790000D03*
X118895000Y-133890000D03*
X116895000Y-134840000D03*
%TD*%
%TO.C,Q9*%
X104400000Y-141100000D03*
X104400000Y-139200000D03*
X102400000Y-140150000D03*
%TD*%
D10*
%TO.C,R14*%
X61495000Y-130990000D03*
X61495000Y-128690000D03*
%TD*%
%TO.C,R16*%
X61495000Y-135990000D03*
X61495000Y-133690000D03*
%TD*%
%TO.C,R13*%
X61495000Y-125990000D03*
X61495000Y-123690000D03*
%TD*%
D11*
%TO.C,Q4*%
X44295000Y-128400000D03*
X44295000Y-126500000D03*
X42295000Y-127450000D03*
%TD*%
%TO.C,Q11*%
X58895000Y-141100000D03*
X58895000Y-139200000D03*
X56895000Y-140150000D03*
%TD*%
D10*
%TO.C,R44*%
X77145000Y-111540000D03*
X77145000Y-109240000D03*
%TD*%
D11*
%TO.C,Q7*%
X59095000Y-130790000D03*
X59095000Y-128890000D03*
X57095000Y-129840000D03*
%TD*%
D12*
%TO.C,C10*%
X90795000Y-149540000D03*
X93195000Y-149540000D03*
%TD*%
D10*
%TO.C,R9*%
X46795000Y-133600000D03*
X46795000Y-131300000D03*
%TD*%
%TO.C,R8*%
X46795000Y-128600000D03*
X46795000Y-126300000D03*
%TD*%
%TO.C,R1*%
X46795000Y-123600000D03*
X46795000Y-121300000D03*
%TD*%
D13*
%TO.C,R2*%
X65390000Y-109690000D03*
X67690000Y-109690000D03*
%TD*%
D14*
%TO.C,R46*%
X72090000Y-111930000D03*
X72090000Y-114230000D03*
%TD*%
D10*
%TO.C,R19*%
X54795000Y-125990000D03*
X54795000Y-123690000D03*
%TD*%
D11*
%TO.C,Q6*%
X59095000Y-125790000D03*
X59095000Y-123890000D03*
X57095000Y-124840000D03*
%TD*%
%TO.C,Q10*%
X44200000Y-146250000D03*
X44200000Y-144350000D03*
X42200000Y-145300000D03*
%TD*%
D15*
%TO.C,MO2*%
X38350000Y-108950000D03*
X38320000Y-117520000D03*
X53450000Y-108930000D03*
X53450000Y-117520000D03*
%TD*%
D10*
%TO.C,R15*%
X54795000Y-135990000D03*
X54795000Y-133690000D03*
%TD*%
%TO.C,R10*%
X39995000Y-123600000D03*
X39995000Y-121300000D03*
%TD*%
%TO.C,R24*%
X61495000Y-141300000D03*
X61495000Y-139000000D03*
%TD*%
D16*
%TO.C,U4*%
X79020000Y-123335000D03*
X79020000Y-124605000D03*
X79020000Y-125875000D03*
X79020000Y-127145000D03*
X85370000Y-127145000D03*
X85370000Y-125875000D03*
X85370000Y-124605000D03*
X85370000Y-123335000D03*
%TD*%
D10*
%TO.C,R45*%
X77145000Y-116690000D03*
X77145000Y-114390000D03*
%TD*%
D14*
%TO.C,R17*%
X40000000Y-139050000D03*
X40000000Y-141350000D03*
%TD*%
D17*
%TO.C,R42*%
X75545000Y-125640000D03*
X73245000Y-125640000D03*
%TD*%
D11*
%TO.C,Q1*%
X44295000Y-123400000D03*
X44295000Y-121500000D03*
X42295000Y-122450000D03*
%TD*%
D18*
%TO.C,C9*%
X85070000Y-141370000D03*
X79470000Y-141370000D03*
%TD*%
D11*
%TO.C,Q5*%
X44295000Y-133400000D03*
X44295000Y-131500000D03*
X42295000Y-132450000D03*
%TD*%
D12*
%TO.C,C3*%
X88095000Y-123340000D03*
X90495000Y-123340000D03*
%TD*%
D10*
%TO.C,R11*%
X39995000Y-128600000D03*
X39995000Y-126300000D03*
%TD*%
D14*
%TO.C,R21*%
X40000000Y-144200000D03*
X40000000Y-146500000D03*
%TD*%
D19*
%TO.C,D3*%
X84075000Y-118650000D03*
X85975000Y-118650000D03*
X85025000Y-116650000D03*
%TD*%
D17*
%TO.C,R3*%
X93145000Y-152040000D03*
X90845000Y-152040000D03*
%TD*%
D10*
%TO.C,R22*%
X46700000Y-146450000D03*
X46700000Y-144150000D03*
%TD*%
%TO.C,R20*%
X54795000Y-130990000D03*
X54795000Y-128690000D03*
%TD*%
%TO.C,R18*%
X46800000Y-141300000D03*
X46800000Y-139000000D03*
%TD*%
D17*
%TO.C,R43*%
X75545000Y-123240000D03*
X73245000Y-123240000D03*
%TD*%
D10*
%TO.C,R23*%
X54795000Y-141300000D03*
X54795000Y-139000000D03*
%TD*%
D20*
%TO.C,D2*%
X65290000Y-107360000D03*
X67790000Y-107360000D03*
%TD*%
D13*
%TO.C,R5*%
X90845000Y-147040000D03*
X93145000Y-147040000D03*
%TD*%
D17*
%TO.C,R41*%
X75545000Y-128040000D03*
X73245000Y-128040000D03*
%TD*%
D10*
%TO.C,R12*%
X39995000Y-133600000D03*
X39995000Y-131300000D03*
%TD*%
D11*
%TO.C,Q8*%
X58895000Y-135790000D03*
X58895000Y-133890000D03*
X56895000Y-134840000D03*
%TD*%
%TO.C,Q9*%
X44400000Y-141100000D03*
X44400000Y-139200000D03*
X42400000Y-140150000D03*
%TD*%
D10*
%TO.C,R14*%
X301495000Y-76390000D03*
X301495000Y-74090000D03*
%TD*%
%TO.C,R16*%
X301495000Y-81390000D03*
X301495000Y-79090000D03*
%TD*%
%TO.C,R13*%
X301495000Y-71390000D03*
X301495000Y-69090000D03*
%TD*%
D11*
%TO.C,Q4*%
X284295000Y-73800000D03*
X284295000Y-71900000D03*
X282295000Y-72850000D03*
%TD*%
%TO.C,Q11*%
X298895000Y-86500000D03*
X298895000Y-84600000D03*
X296895000Y-85550000D03*
%TD*%
D10*
%TO.C,R44*%
X317145000Y-56940000D03*
X317145000Y-54640000D03*
%TD*%
D11*
%TO.C,Q7*%
X299095000Y-76190000D03*
X299095000Y-74290000D03*
X297095000Y-75240000D03*
%TD*%
D12*
%TO.C,C10*%
X330795000Y-94940000D03*
X333195000Y-94940000D03*
%TD*%
D10*
%TO.C,R9*%
X286795000Y-79000000D03*
X286795000Y-76700000D03*
%TD*%
%TO.C,R8*%
X286795000Y-74000000D03*
X286795000Y-71700000D03*
%TD*%
%TO.C,R1*%
X286795000Y-69000000D03*
X286795000Y-66700000D03*
%TD*%
D13*
%TO.C,R2*%
X305390000Y-55090000D03*
X307690000Y-55090000D03*
%TD*%
D14*
%TO.C,R46*%
X312090000Y-57330000D03*
X312090000Y-59630000D03*
%TD*%
D10*
%TO.C,R19*%
X294795000Y-71390000D03*
X294795000Y-69090000D03*
%TD*%
D11*
%TO.C,Q6*%
X299095000Y-71190000D03*
X299095000Y-69290000D03*
X297095000Y-70240000D03*
%TD*%
%TO.C,Q10*%
X284200000Y-91650000D03*
X284200000Y-89750000D03*
X282200000Y-90700000D03*
%TD*%
D15*
%TO.C,MO2*%
X278350000Y-54350000D03*
X278320000Y-62920000D03*
X293450000Y-54330000D03*
X293450000Y-62920000D03*
%TD*%
D10*
%TO.C,R15*%
X294795000Y-81390000D03*
X294795000Y-79090000D03*
%TD*%
%TO.C,R10*%
X279995000Y-69000000D03*
X279995000Y-66700000D03*
%TD*%
%TO.C,R24*%
X301495000Y-86700000D03*
X301495000Y-84400000D03*
%TD*%
D16*
%TO.C,U4*%
X319020000Y-68735000D03*
X319020000Y-70005000D03*
X319020000Y-71275000D03*
X319020000Y-72545000D03*
X325370000Y-72545000D03*
X325370000Y-71275000D03*
X325370000Y-70005000D03*
X325370000Y-68735000D03*
%TD*%
D10*
%TO.C,R45*%
X317145000Y-62090000D03*
X317145000Y-59790000D03*
%TD*%
D14*
%TO.C,R17*%
X280000000Y-84450000D03*
X280000000Y-86750000D03*
%TD*%
D17*
%TO.C,R42*%
X315545000Y-71040000D03*
X313245000Y-71040000D03*
%TD*%
D11*
%TO.C,Q1*%
X284295000Y-68800000D03*
X284295000Y-66900000D03*
X282295000Y-67850000D03*
%TD*%
D18*
%TO.C,C9*%
X325070000Y-86770000D03*
X319470000Y-86770000D03*
%TD*%
D11*
%TO.C,Q5*%
X284295000Y-78800000D03*
X284295000Y-76900000D03*
X282295000Y-77850000D03*
%TD*%
D12*
%TO.C,C3*%
X328095000Y-68740000D03*
X330495000Y-68740000D03*
%TD*%
D10*
%TO.C,R11*%
X279995000Y-74000000D03*
X279995000Y-71700000D03*
%TD*%
D14*
%TO.C,R21*%
X280000000Y-89600000D03*
X280000000Y-91900000D03*
%TD*%
D19*
%TO.C,D3*%
X324075000Y-64050000D03*
X325975000Y-64050000D03*
X325025000Y-62050000D03*
%TD*%
D17*
%TO.C,R3*%
X333145000Y-97440000D03*
X330845000Y-97440000D03*
%TD*%
D10*
%TO.C,R22*%
X286700000Y-91850000D03*
X286700000Y-89550000D03*
%TD*%
%TO.C,R20*%
X294795000Y-76390000D03*
X294795000Y-74090000D03*
%TD*%
%TO.C,R18*%
X286800000Y-86700000D03*
X286800000Y-84400000D03*
%TD*%
D17*
%TO.C,R43*%
X315545000Y-68640000D03*
X313245000Y-68640000D03*
%TD*%
D10*
%TO.C,R23*%
X294795000Y-86700000D03*
X294795000Y-84400000D03*
%TD*%
D20*
%TO.C,D2*%
X305290000Y-52760000D03*
X307790000Y-52760000D03*
%TD*%
D13*
%TO.C,R5*%
X330845000Y-92440000D03*
X333145000Y-92440000D03*
%TD*%
D17*
%TO.C,R41*%
X315545000Y-73440000D03*
X313245000Y-73440000D03*
%TD*%
D10*
%TO.C,R12*%
X279995000Y-79000000D03*
X279995000Y-76700000D03*
%TD*%
D11*
%TO.C,Q8*%
X298895000Y-81190000D03*
X298895000Y-79290000D03*
X296895000Y-80240000D03*
%TD*%
%TO.C,Q9*%
X284400000Y-86500000D03*
X284400000Y-84600000D03*
X282400000Y-85550000D03*
%TD*%
D10*
%TO.C,R14*%
X241495000Y-76390000D03*
X241495000Y-74090000D03*
%TD*%
%TO.C,R16*%
X241495000Y-81390000D03*
X241495000Y-79090000D03*
%TD*%
%TO.C,R13*%
X241495000Y-71390000D03*
X241495000Y-69090000D03*
%TD*%
D11*
%TO.C,Q4*%
X224295000Y-73800000D03*
X224295000Y-71900000D03*
X222295000Y-72850000D03*
%TD*%
%TO.C,Q11*%
X238895000Y-86500000D03*
X238895000Y-84600000D03*
X236895000Y-85550000D03*
%TD*%
D10*
%TO.C,R44*%
X257145000Y-56940000D03*
X257145000Y-54640000D03*
%TD*%
D11*
%TO.C,Q7*%
X239095000Y-76190000D03*
X239095000Y-74290000D03*
X237095000Y-75240000D03*
%TD*%
D12*
%TO.C,C10*%
X270795000Y-94940000D03*
X273195000Y-94940000D03*
%TD*%
D10*
%TO.C,R9*%
X226795000Y-79000000D03*
X226795000Y-76700000D03*
%TD*%
%TO.C,R8*%
X226795000Y-74000000D03*
X226795000Y-71700000D03*
%TD*%
%TO.C,R1*%
X226795000Y-69000000D03*
X226795000Y-66700000D03*
%TD*%
D13*
%TO.C,R2*%
X245390000Y-55090000D03*
X247690000Y-55090000D03*
%TD*%
D14*
%TO.C,R46*%
X252090000Y-57330000D03*
X252090000Y-59630000D03*
%TD*%
D10*
%TO.C,R19*%
X234795000Y-71390000D03*
X234795000Y-69090000D03*
%TD*%
D11*
%TO.C,Q6*%
X239095000Y-71190000D03*
X239095000Y-69290000D03*
X237095000Y-70240000D03*
%TD*%
%TO.C,Q10*%
X224200000Y-91650000D03*
X224200000Y-89750000D03*
X222200000Y-90700000D03*
%TD*%
D15*
%TO.C,MO2*%
X218350000Y-54350000D03*
X218320000Y-62920000D03*
X233450000Y-54330000D03*
X233450000Y-62920000D03*
%TD*%
D10*
%TO.C,R15*%
X234795000Y-81390000D03*
X234795000Y-79090000D03*
%TD*%
%TO.C,R10*%
X219995000Y-69000000D03*
X219995000Y-66700000D03*
%TD*%
%TO.C,R24*%
X241495000Y-86700000D03*
X241495000Y-84400000D03*
%TD*%
D16*
%TO.C,U4*%
X259020000Y-68735000D03*
X259020000Y-70005000D03*
X259020000Y-71275000D03*
X259020000Y-72545000D03*
X265370000Y-72545000D03*
X265370000Y-71275000D03*
X265370000Y-70005000D03*
X265370000Y-68735000D03*
%TD*%
D10*
%TO.C,R45*%
X257145000Y-62090000D03*
X257145000Y-59790000D03*
%TD*%
D14*
%TO.C,R17*%
X220000000Y-84450000D03*
X220000000Y-86750000D03*
%TD*%
D17*
%TO.C,R42*%
X255545000Y-71040000D03*
X253245000Y-71040000D03*
%TD*%
D11*
%TO.C,Q1*%
X224295000Y-68800000D03*
X224295000Y-66900000D03*
X222295000Y-67850000D03*
%TD*%
D18*
%TO.C,C9*%
X265070000Y-86770000D03*
X259470000Y-86770000D03*
%TD*%
D11*
%TO.C,Q5*%
X224295000Y-78800000D03*
X224295000Y-76900000D03*
X222295000Y-77850000D03*
%TD*%
D12*
%TO.C,C3*%
X268095000Y-68740000D03*
X270495000Y-68740000D03*
%TD*%
D10*
%TO.C,R11*%
X219995000Y-74000000D03*
X219995000Y-71700000D03*
%TD*%
D14*
%TO.C,R21*%
X220000000Y-89600000D03*
X220000000Y-91900000D03*
%TD*%
D19*
%TO.C,D3*%
X264075000Y-64050000D03*
X265975000Y-64050000D03*
X265025000Y-62050000D03*
%TD*%
D17*
%TO.C,R3*%
X273145000Y-97440000D03*
X270845000Y-97440000D03*
%TD*%
D10*
%TO.C,R22*%
X226700000Y-91850000D03*
X226700000Y-89550000D03*
%TD*%
%TO.C,R20*%
X234795000Y-76390000D03*
X234795000Y-74090000D03*
%TD*%
%TO.C,R18*%
X226800000Y-86700000D03*
X226800000Y-84400000D03*
%TD*%
D17*
%TO.C,R43*%
X255545000Y-68640000D03*
X253245000Y-68640000D03*
%TD*%
D10*
%TO.C,R23*%
X234795000Y-86700000D03*
X234795000Y-84400000D03*
%TD*%
D20*
%TO.C,D2*%
X245290000Y-52760000D03*
X247790000Y-52760000D03*
%TD*%
D13*
%TO.C,R5*%
X270845000Y-92440000D03*
X273145000Y-92440000D03*
%TD*%
D17*
%TO.C,R41*%
X255545000Y-73440000D03*
X253245000Y-73440000D03*
%TD*%
D10*
%TO.C,R12*%
X219995000Y-79000000D03*
X219995000Y-76700000D03*
%TD*%
D11*
%TO.C,Q8*%
X238895000Y-81190000D03*
X238895000Y-79290000D03*
X236895000Y-80240000D03*
%TD*%
%TO.C,Q9*%
X224400000Y-86500000D03*
X224400000Y-84600000D03*
X222400000Y-85550000D03*
%TD*%
D10*
%TO.C,R14*%
X181495000Y-76390000D03*
X181495000Y-74090000D03*
%TD*%
%TO.C,R16*%
X181495000Y-81390000D03*
X181495000Y-79090000D03*
%TD*%
%TO.C,R13*%
X181495000Y-71390000D03*
X181495000Y-69090000D03*
%TD*%
D11*
%TO.C,Q4*%
X164295000Y-73800000D03*
X164295000Y-71900000D03*
X162295000Y-72850000D03*
%TD*%
%TO.C,Q11*%
X178895000Y-86500000D03*
X178895000Y-84600000D03*
X176895000Y-85550000D03*
%TD*%
D10*
%TO.C,R44*%
X197145000Y-56940000D03*
X197145000Y-54640000D03*
%TD*%
D11*
%TO.C,Q7*%
X179095000Y-76190000D03*
X179095000Y-74290000D03*
X177095000Y-75240000D03*
%TD*%
D12*
%TO.C,C10*%
X210795000Y-94940000D03*
X213195000Y-94940000D03*
%TD*%
D10*
%TO.C,R9*%
X166795000Y-79000000D03*
X166795000Y-76700000D03*
%TD*%
%TO.C,R8*%
X166795000Y-74000000D03*
X166795000Y-71700000D03*
%TD*%
%TO.C,R1*%
X166795000Y-69000000D03*
X166795000Y-66700000D03*
%TD*%
D13*
%TO.C,R2*%
X185390000Y-55090000D03*
X187690000Y-55090000D03*
%TD*%
D14*
%TO.C,R46*%
X192090000Y-57330000D03*
X192090000Y-59630000D03*
%TD*%
D10*
%TO.C,R19*%
X174795000Y-71390000D03*
X174795000Y-69090000D03*
%TD*%
D11*
%TO.C,Q6*%
X179095000Y-71190000D03*
X179095000Y-69290000D03*
X177095000Y-70240000D03*
%TD*%
%TO.C,Q10*%
X164200000Y-91650000D03*
X164200000Y-89750000D03*
X162200000Y-90700000D03*
%TD*%
D15*
%TO.C,MO2*%
X158350000Y-54350000D03*
X158320000Y-62920000D03*
X173450000Y-54330000D03*
X173450000Y-62920000D03*
%TD*%
D10*
%TO.C,R15*%
X174795000Y-81390000D03*
X174795000Y-79090000D03*
%TD*%
%TO.C,R10*%
X159995000Y-69000000D03*
X159995000Y-66700000D03*
%TD*%
%TO.C,R24*%
X181495000Y-86700000D03*
X181495000Y-84400000D03*
%TD*%
D16*
%TO.C,U4*%
X199020000Y-68735000D03*
X199020000Y-70005000D03*
X199020000Y-71275000D03*
X199020000Y-72545000D03*
X205370000Y-72545000D03*
X205370000Y-71275000D03*
X205370000Y-70005000D03*
X205370000Y-68735000D03*
%TD*%
D10*
%TO.C,R45*%
X197145000Y-62090000D03*
X197145000Y-59790000D03*
%TD*%
D14*
%TO.C,R17*%
X160000000Y-84450000D03*
X160000000Y-86750000D03*
%TD*%
D17*
%TO.C,R42*%
X195545000Y-71040000D03*
X193245000Y-71040000D03*
%TD*%
D11*
%TO.C,Q1*%
X164295000Y-68800000D03*
X164295000Y-66900000D03*
X162295000Y-67850000D03*
%TD*%
D18*
%TO.C,C9*%
X205070000Y-86770000D03*
X199470000Y-86770000D03*
%TD*%
D11*
%TO.C,Q5*%
X164295000Y-78800000D03*
X164295000Y-76900000D03*
X162295000Y-77850000D03*
%TD*%
D12*
%TO.C,C3*%
X208095000Y-68740000D03*
X210495000Y-68740000D03*
%TD*%
D10*
%TO.C,R11*%
X159995000Y-74000000D03*
X159995000Y-71700000D03*
%TD*%
D14*
%TO.C,R21*%
X160000000Y-89600000D03*
X160000000Y-91900000D03*
%TD*%
D19*
%TO.C,D3*%
X204075000Y-64050000D03*
X205975000Y-64050000D03*
X205025000Y-62050000D03*
%TD*%
D17*
%TO.C,R3*%
X213145000Y-97440000D03*
X210845000Y-97440000D03*
%TD*%
D10*
%TO.C,R22*%
X166700000Y-91850000D03*
X166700000Y-89550000D03*
%TD*%
%TO.C,R20*%
X174795000Y-76390000D03*
X174795000Y-74090000D03*
%TD*%
%TO.C,R18*%
X166800000Y-86700000D03*
X166800000Y-84400000D03*
%TD*%
D17*
%TO.C,R43*%
X195545000Y-68640000D03*
X193245000Y-68640000D03*
%TD*%
D10*
%TO.C,R23*%
X174795000Y-86700000D03*
X174795000Y-84400000D03*
%TD*%
D20*
%TO.C,D2*%
X185290000Y-52760000D03*
X187790000Y-52760000D03*
%TD*%
D13*
%TO.C,R5*%
X210845000Y-92440000D03*
X213145000Y-92440000D03*
%TD*%
D17*
%TO.C,R41*%
X195545000Y-73440000D03*
X193245000Y-73440000D03*
%TD*%
D10*
%TO.C,R12*%
X159995000Y-79000000D03*
X159995000Y-76700000D03*
%TD*%
D11*
%TO.C,Q8*%
X178895000Y-81190000D03*
X178895000Y-79290000D03*
X176895000Y-80240000D03*
%TD*%
%TO.C,Q9*%
X164400000Y-86500000D03*
X164400000Y-84600000D03*
X162400000Y-85550000D03*
%TD*%
D10*
%TO.C,R14*%
X121495000Y-76390000D03*
X121495000Y-74090000D03*
%TD*%
%TO.C,R16*%
X121495000Y-81390000D03*
X121495000Y-79090000D03*
%TD*%
%TO.C,R13*%
X121495000Y-71390000D03*
X121495000Y-69090000D03*
%TD*%
D11*
%TO.C,Q4*%
X104295000Y-73800000D03*
X104295000Y-71900000D03*
X102295000Y-72850000D03*
%TD*%
%TO.C,Q11*%
X118895000Y-86500000D03*
X118895000Y-84600000D03*
X116895000Y-85550000D03*
%TD*%
D10*
%TO.C,R44*%
X137145000Y-56940000D03*
X137145000Y-54640000D03*
%TD*%
D11*
%TO.C,Q7*%
X119095000Y-76190000D03*
X119095000Y-74290000D03*
X117095000Y-75240000D03*
%TD*%
D12*
%TO.C,C10*%
X150795000Y-94940000D03*
X153195000Y-94940000D03*
%TD*%
D10*
%TO.C,R9*%
X106795000Y-79000000D03*
X106795000Y-76700000D03*
%TD*%
%TO.C,R8*%
X106795000Y-74000000D03*
X106795000Y-71700000D03*
%TD*%
%TO.C,R1*%
X106795000Y-69000000D03*
X106795000Y-66700000D03*
%TD*%
D13*
%TO.C,R2*%
X125390000Y-55090000D03*
X127690000Y-55090000D03*
%TD*%
D14*
%TO.C,R46*%
X132090000Y-57330000D03*
X132090000Y-59630000D03*
%TD*%
D10*
%TO.C,R19*%
X114795000Y-71390000D03*
X114795000Y-69090000D03*
%TD*%
D11*
%TO.C,Q6*%
X119095000Y-71190000D03*
X119095000Y-69290000D03*
X117095000Y-70240000D03*
%TD*%
%TO.C,Q10*%
X104200000Y-91650000D03*
X104200000Y-89750000D03*
X102200000Y-90700000D03*
%TD*%
D15*
%TO.C,MO2*%
X98350000Y-54350000D03*
X98320000Y-62920000D03*
X113450000Y-54330000D03*
X113450000Y-62920000D03*
%TD*%
D10*
%TO.C,R15*%
X114795000Y-81390000D03*
X114795000Y-79090000D03*
%TD*%
%TO.C,R10*%
X99995000Y-69000000D03*
X99995000Y-66700000D03*
%TD*%
%TO.C,R24*%
X121495000Y-86700000D03*
X121495000Y-84400000D03*
%TD*%
D16*
%TO.C,U4*%
X139020000Y-68735000D03*
X139020000Y-70005000D03*
X139020000Y-71275000D03*
X139020000Y-72545000D03*
X145370000Y-72545000D03*
X145370000Y-71275000D03*
X145370000Y-70005000D03*
X145370000Y-68735000D03*
%TD*%
D10*
%TO.C,R45*%
X137145000Y-62090000D03*
X137145000Y-59790000D03*
%TD*%
D14*
%TO.C,R17*%
X100000000Y-84450000D03*
X100000000Y-86750000D03*
%TD*%
D17*
%TO.C,R42*%
X135545000Y-71040000D03*
X133245000Y-71040000D03*
%TD*%
D11*
%TO.C,Q1*%
X104295000Y-68800000D03*
X104295000Y-66900000D03*
X102295000Y-67850000D03*
%TD*%
D18*
%TO.C,C9*%
X145070000Y-86770000D03*
X139470000Y-86770000D03*
%TD*%
D11*
%TO.C,Q5*%
X104295000Y-78800000D03*
X104295000Y-76900000D03*
X102295000Y-77850000D03*
%TD*%
D12*
%TO.C,C3*%
X148095000Y-68740000D03*
X150495000Y-68740000D03*
%TD*%
D10*
%TO.C,R11*%
X99995000Y-74000000D03*
X99995000Y-71700000D03*
%TD*%
D14*
%TO.C,R21*%
X100000000Y-89600000D03*
X100000000Y-91900000D03*
%TD*%
D19*
%TO.C,D3*%
X144075000Y-64050000D03*
X145975000Y-64050000D03*
X145025000Y-62050000D03*
%TD*%
D17*
%TO.C,R3*%
X153145000Y-97440000D03*
X150845000Y-97440000D03*
%TD*%
D10*
%TO.C,R22*%
X106700000Y-91850000D03*
X106700000Y-89550000D03*
%TD*%
%TO.C,R20*%
X114795000Y-76390000D03*
X114795000Y-74090000D03*
%TD*%
%TO.C,R18*%
X106800000Y-86700000D03*
X106800000Y-84400000D03*
%TD*%
D17*
%TO.C,R43*%
X135545000Y-68640000D03*
X133245000Y-68640000D03*
%TD*%
D10*
%TO.C,R23*%
X114795000Y-86700000D03*
X114795000Y-84400000D03*
%TD*%
D20*
%TO.C,D2*%
X125290000Y-52760000D03*
X127790000Y-52760000D03*
%TD*%
D13*
%TO.C,R5*%
X150845000Y-92440000D03*
X153145000Y-92440000D03*
%TD*%
D17*
%TO.C,R41*%
X135545000Y-73440000D03*
X133245000Y-73440000D03*
%TD*%
D10*
%TO.C,R12*%
X99995000Y-79000000D03*
X99995000Y-76700000D03*
%TD*%
D11*
%TO.C,Q8*%
X118895000Y-81190000D03*
X118895000Y-79290000D03*
X116895000Y-80240000D03*
%TD*%
%TO.C,Q9*%
X104400000Y-86500000D03*
X104400000Y-84600000D03*
X102400000Y-85550000D03*
%TD*%
%TO.C,Q9*%
X44400000Y-86500000D03*
X44400000Y-84600000D03*
X42400000Y-85550000D03*
%TD*%
D17*
%TO.C,R43*%
X75545000Y-68640000D03*
X73245000Y-68640000D03*
%TD*%
D10*
%TO.C,R18*%
X46800000Y-86700000D03*
X46800000Y-84400000D03*
%TD*%
D14*
%TO.C,R17*%
X40000000Y-84450000D03*
X40000000Y-86750000D03*
%TD*%
D10*
%TO.C,R45*%
X77145000Y-62090000D03*
X77145000Y-59790000D03*
%TD*%
D16*
%TO.C,U4*%
X79020000Y-68735000D03*
X79020000Y-70005000D03*
X79020000Y-71275000D03*
X79020000Y-72545000D03*
X85370000Y-72545000D03*
X85370000Y-71275000D03*
X85370000Y-70005000D03*
X85370000Y-68735000D03*
%TD*%
D10*
%TO.C,R24*%
X61495000Y-86700000D03*
X61495000Y-84400000D03*
%TD*%
%TO.C,R15*%
X54795000Y-81390000D03*
X54795000Y-79090000D03*
%TD*%
%TO.C,R10*%
X39995000Y-69000000D03*
X39995000Y-66700000D03*
%TD*%
D11*
%TO.C,Q5*%
X44295000Y-78800000D03*
X44295000Y-76900000D03*
X42295000Y-77850000D03*
%TD*%
D18*
%TO.C,C9*%
X85070000Y-86770000D03*
X79470000Y-86770000D03*
%TD*%
D17*
%TO.C,R42*%
X75545000Y-71040000D03*
X73245000Y-71040000D03*
%TD*%
D11*
%TO.C,Q1*%
X44295000Y-68800000D03*
X44295000Y-66900000D03*
X42295000Y-67850000D03*
%TD*%
D12*
%TO.C,C10*%
X90795000Y-94940000D03*
X93195000Y-94940000D03*
%TD*%
D11*
%TO.C,Q10*%
X44200000Y-91650000D03*
X44200000Y-89750000D03*
X42200000Y-90700000D03*
%TD*%
D15*
%TO.C,MO2*%
X38350000Y-54350000D03*
X38320000Y-62920000D03*
X53450000Y-54330000D03*
X53450000Y-62920000D03*
%TD*%
D11*
%TO.C,Q6*%
X59095000Y-71190000D03*
X59095000Y-69290000D03*
X57095000Y-70240000D03*
%TD*%
D10*
%TO.C,R19*%
X54795000Y-71390000D03*
X54795000Y-69090000D03*
%TD*%
D14*
%TO.C,R46*%
X72090000Y-57330000D03*
X72090000Y-59630000D03*
%TD*%
D13*
%TO.C,R2*%
X65390000Y-55090000D03*
X67690000Y-55090000D03*
%TD*%
D10*
%TO.C,R1*%
X46795000Y-69000000D03*
X46795000Y-66700000D03*
%TD*%
%TO.C,R8*%
X46795000Y-74000000D03*
X46795000Y-71700000D03*
%TD*%
%TO.C,R9*%
X46795000Y-79000000D03*
X46795000Y-76700000D03*
%TD*%
%TO.C,R22*%
X46700000Y-91850000D03*
X46700000Y-89550000D03*
%TD*%
%TO.C,R20*%
X54795000Y-76390000D03*
X54795000Y-74090000D03*
%TD*%
D19*
%TO.C,D3*%
X84075000Y-64050000D03*
X85975000Y-64050000D03*
X85025000Y-62050000D03*
%TD*%
D17*
%TO.C,R3*%
X93145000Y-97440000D03*
X90845000Y-97440000D03*
%TD*%
D14*
%TO.C,R21*%
X40000000Y-89600000D03*
X40000000Y-91900000D03*
%TD*%
D10*
%TO.C,R11*%
X39995000Y-74000000D03*
X39995000Y-71700000D03*
%TD*%
D12*
%TO.C,C3*%
X88095000Y-68740000D03*
X90495000Y-68740000D03*
%TD*%
D11*
%TO.C,Q8*%
X58895000Y-81190000D03*
X58895000Y-79290000D03*
X56895000Y-80240000D03*
%TD*%
D10*
%TO.C,R12*%
X39995000Y-79000000D03*
X39995000Y-76700000D03*
%TD*%
D17*
%TO.C,R41*%
X75545000Y-73440000D03*
X73245000Y-73440000D03*
%TD*%
D13*
%TO.C,R5*%
X90845000Y-92440000D03*
X93145000Y-92440000D03*
%TD*%
D20*
%TO.C,D2*%
X65290000Y-52760000D03*
X67790000Y-52760000D03*
%TD*%
D10*
%TO.C,R23*%
X54795000Y-86700000D03*
X54795000Y-84400000D03*
%TD*%
D11*
%TO.C,Q7*%
X59095000Y-76190000D03*
X59095000Y-74290000D03*
X57095000Y-75240000D03*
%TD*%
D10*
%TO.C,R44*%
X77145000Y-56940000D03*
X77145000Y-54640000D03*
%TD*%
D11*
%TO.C,Q11*%
X58895000Y-86500000D03*
X58895000Y-84600000D03*
X56895000Y-85550000D03*
%TD*%
%TO.C,Q4*%
X44295000Y-73800000D03*
X44295000Y-71900000D03*
X42295000Y-72850000D03*
%TD*%
D10*
%TO.C,R16*%
X61495000Y-81390000D03*
X61495000Y-79090000D03*
%TD*%
%TO.C,R14*%
X61495000Y-76390000D03*
X61495000Y-74090000D03*
%TD*%
%TO.C,R13*%
X61495000Y-71390000D03*
X61495000Y-69090000D03*
%TD*%
M02*
