%TF.GenerationSoftware,KiCad,Pcbnew,8.0.4*%
%TF.CreationDate,2024-11-04T15:16:17+09:00*%
%TF.ProjectId,L-CON V3.0,4c2d434f-4e20-4563-932e-302e6b696361,rev?*%
%TF.SameCoordinates,Original*%
%TF.FileFunction,Paste,Bot*%
%TF.FilePolarity,Positive*%
%FSLAX46Y46*%
G04 Gerber Fmt 4.6, Leading zero omitted, Abs format (unit mm)*
G04 Created by KiCad (PCBNEW 8.0.4) date 2024-11-04 15:16:17*
%MOMM*%
%LPD*%
G01*
G04 APERTURE LIST*
G04 Aperture macros list*
%AMRoundRect*
0 Rectangle with rounded corners*
0 $1 Rounding radius*
0 $2 $3 $4 $5 $6 $7 $8 $9 X,Y pos of 4 corners*
0 Add a 4 corners polygon primitive as box body*
4,1,4,$2,$3,$4,$5,$6,$7,$8,$9,$2,$3,0*
0 Add four circle primitives for the rounded corners*
1,1,$1+$1,$2,$3*
1,1,$1+$1,$4,$5*
1,1,$1+$1,$6,$7*
1,1,$1+$1,$8,$9*
0 Add four rect primitives between the rounded corners*
20,1,$1+$1,$2,$3,$4,$5,0*
20,1,$1+$1,$4,$5,$6,$7,0*
20,1,$1+$1,$6,$7,$8,$9,0*
20,1,$1+$1,$8,$9,$2,$3,0*%
G04 Aperture macros list end*
%ADD10RoundRect,0.325000X-0.325000X-0.325000X0.325000X-0.325000X0.325000X0.325000X-0.325000X0.325000X0*%
%ADD11RoundRect,0.312500X-0.437500X-0.312500X0.437500X-0.312500X0.437500X0.312500X-0.437500X0.312500X0*%
%ADD12RoundRect,0.325000X0.325000X0.325000X-0.325000X0.325000X-0.325000X-0.325000X0.325000X-0.325000X0*%
%ADD13R,0.900000X1.200000*%
%ADD14RoundRect,0.325000X0.325000X-0.325000X0.325000X0.325000X-0.325000X0.325000X-0.325000X-0.325000X0*%
%ADD15R,2.000000X3.000000*%
%ADD16R,1.500000X2.500000*%
%ADD17R,2.750000X3.050000*%
%ADD18RoundRect,0.325000X-0.325000X0.325000X-0.325000X-0.325000X0.325000X-0.325000X0.325000X0.325000X0*%
%ADD19R,1.000000X1.100000*%
%ADD20R,2.500000X1.800000*%
%ADD21R,1.200000X0.900000*%
%ADD22RoundRect,0.163800X0.136200X-0.711200X0.136200X0.711200X-0.136200X0.711200X-0.136200X-0.711200X0*%
%ADD23RoundRect,0.250000X-1.500000X-0.550000X1.500000X-0.550000X1.500000X0.550000X-1.500000X0.550000X0*%
%ADD24RoundRect,0.312500X0.312500X-0.437500X0.312500X0.437500X-0.312500X0.437500X-0.312500X-0.437500X0*%
G04 APERTURE END LIST*
D10*
%TO.C,R25*%
X129285000Y-204910000D03*
X126985000Y-204910000D03*
%TD*%
D11*
%TO.C,C6*%
X47955000Y-222060000D03*
X45555000Y-222060000D03*
%TD*%
D12*
%TO.C,R4*%
X112715000Y-151100000D03*
X115015000Y-151100000D03*
%TD*%
D10*
%TO.C,R34*%
X118715000Y-189260000D03*
X116415000Y-189260000D03*
%TD*%
D12*
%TO.C,R45*%
X88725000Y-143850000D03*
X91025000Y-143850000D03*
%TD*%
D13*
%TO.C,D16*%
X155625000Y-216350000D03*
X152325000Y-216350000D03*
%TD*%
D14*
%TO.C,R44*%
X95375000Y-152500000D03*
X95375000Y-154800000D03*
%TD*%
D10*
%TO.C,R12*%
X144345000Y-168830000D03*
X142045000Y-168830000D03*
%TD*%
D11*
%TO.C,C2*%
X115065000Y-158100000D03*
X112665000Y-158100000D03*
%TD*%
D10*
%TO.C,R2*%
X115015000Y-153600000D03*
X112715000Y-153600000D03*
%TD*%
D15*
%TO.C,Q2*%
X75760000Y-216243000D03*
D16*
X71194000Y-216243000D03*
D17*
X71955000Y-225225000D03*
X75005000Y-225225000D03*
X71955000Y-221875000D03*
X75005000Y-221875000D03*
%TD*%
D15*
%TO.C,Q7*%
X89487500Y-216243000D03*
D16*
X84921500Y-216243000D03*
D17*
X85682500Y-225225000D03*
X88732500Y-225225000D03*
X85682500Y-221875000D03*
X88732500Y-221875000D03*
%TD*%
D11*
%TO.C,C10*%
X47955000Y-213060000D03*
X45555000Y-213060000D03*
%TD*%
D12*
%TO.C,R15*%
X84625000Y-229350000D03*
X86925000Y-229350000D03*
%TD*%
D18*
%TO.C,R46*%
X93075000Y-154800000D03*
X93075000Y-152500000D03*
%TD*%
D13*
%TO.C,D14*%
X138025000Y-216350000D03*
X134725000Y-216350000D03*
%TD*%
D19*
%TO.C,Q4*%
X128135000Y-209020000D03*
X129085000Y-207020000D03*
X127185000Y-207020000D03*
%TD*%
D20*
%TO.C,D18*%
X156375000Y-237550000D03*
X152375000Y-237550000D03*
%TD*%
D12*
%TO.C,R28*%
X153225000Y-229350000D03*
X155525000Y-229350000D03*
%TD*%
%TO.C,R42*%
X103825000Y-154800000D03*
X106125000Y-154800000D03*
%TD*%
D15*
%TO.C,Q11*%
X104487500Y-216243000D03*
D16*
X99921500Y-216243000D03*
D17*
X100682500Y-225225000D03*
X103732500Y-225225000D03*
X100682500Y-221875000D03*
X103732500Y-221875000D03*
%TD*%
D20*
%TO.C,D3*%
X64975000Y-237550000D03*
X60975000Y-237550000D03*
%TD*%
%TO.C,D9*%
X87875000Y-237550000D03*
X83875000Y-237550000D03*
%TD*%
D10*
%TO.C,R10*%
X77570000Y-151775000D03*
X75270000Y-151775000D03*
%TD*%
D19*
%TO.C,D25*%
X82250000Y-152050000D03*
X83200000Y-150050000D03*
X81300000Y-150050000D03*
%TD*%
D11*
%TO.C,C7*%
X47955000Y-219810000D03*
X45555000Y-219810000D03*
%TD*%
%TO.C,C9*%
X47955000Y-215310000D03*
X45555000Y-215310000D03*
%TD*%
D10*
%TO.C,R39*%
X71400000Y-151775000D03*
X69100000Y-151775000D03*
%TD*%
D20*
%TO.C,D12*%
X110675000Y-237550000D03*
X106675000Y-237550000D03*
%TD*%
D12*
%TO.C,R6*%
X61825000Y-229350000D03*
X64125000Y-229350000D03*
%TD*%
D20*
%TO.C,D24*%
X140850000Y-237550000D03*
X136850000Y-237550000D03*
%TD*%
D21*
%TO.C,D7*%
X68750000Y-178000000D03*
X68750000Y-174700000D03*
%TD*%
D19*
%TO.C,Q17*%
X148975000Y-212550000D03*
X149925000Y-210550000D03*
X148025000Y-210550000D03*
%TD*%
D21*
%TO.C,D26*%
X132307500Y-175025000D03*
X132307500Y-178325000D03*
%TD*%
D22*
%TO.C,U4*%
X89980000Y-150475000D03*
X88710000Y-150475000D03*
X87440000Y-150475000D03*
X86170000Y-150475000D03*
X86170000Y-156825000D03*
X87440000Y-156825000D03*
X88710000Y-156825000D03*
X89980000Y-156825000D03*
%TD*%
D23*
%TO.C,C1*%
X100975000Y-146750000D03*
X95375000Y-146750000D03*
%TD*%
D19*
%TO.C,Q14*%
X117565000Y-193260000D03*
X118515000Y-191260000D03*
X116615000Y-191260000D03*
%TD*%
D10*
%TO.C,R35*%
X71400000Y-154275000D03*
X69100000Y-154275000D03*
%TD*%
%TO.C,R48*%
X144355000Y-177250000D03*
X142055000Y-177250000D03*
%TD*%
%TO.C,R3*%
X115015000Y-155850000D03*
X112715000Y-155850000D03*
%TD*%
D13*
%TO.C,D19*%
X87875000Y-174900000D03*
X91175000Y-174900000D03*
%TD*%
D12*
%TO.C,R41*%
X103825000Y-157340000D03*
X106125000Y-157340000D03*
%TD*%
D10*
%TO.C,R29*%
X150125000Y-208150000D03*
X147825000Y-208150000D03*
%TD*%
D12*
%TO.C,R43*%
X103825000Y-152260000D03*
X106125000Y-152260000D03*
%TD*%
D24*
%TO.C,C5*%
X129200000Y-175475000D03*
X129200000Y-177875000D03*
%TD*%
D12*
%TO.C,R23*%
X122825000Y-229350000D03*
X125125000Y-229350000D03*
%TD*%
D20*
%TO.C,D13*%
X125975000Y-237550000D03*
X121975000Y-237550000D03*
%TD*%
D18*
%TO.C,R11*%
X158995000Y-212370000D03*
X158995000Y-210070000D03*
%TD*%
D12*
%TO.C,R40*%
X138025000Y-229350000D03*
X140325000Y-229350000D03*
%TD*%
D11*
%TO.C,C8*%
X47955000Y-217560000D03*
X45555000Y-217560000D03*
%TD*%
D10*
%TO.C,R1*%
X77570000Y-154275000D03*
X75270000Y-154275000D03*
%TD*%
D15*
%TO.C,Q13*%
X117505000Y-216243000D03*
D16*
X112939000Y-216243000D03*
D17*
X113700000Y-225225000D03*
X116750000Y-225225000D03*
X113700000Y-221875000D03*
X116750000Y-221875000D03*
%TD*%
D12*
%TO.C,R22*%
X107525000Y-229350000D03*
X109825000Y-229350000D03*
%TD*%
D13*
%TO.C,D14*%
X138025000Y-115750000D03*
X134725000Y-115750000D03*
%TD*%
D15*
%TO.C,Q2*%
X75760000Y-115643000D03*
D16*
X71194000Y-115643000D03*
D17*
X71955000Y-124625000D03*
X75005000Y-124625000D03*
X71955000Y-121275000D03*
X75005000Y-121275000D03*
%TD*%
D10*
%TO.C,R2*%
X115015000Y-53000000D03*
X112715000Y-53000000D03*
%TD*%
D11*
%TO.C,C2*%
X115065000Y-57500000D03*
X112665000Y-57500000D03*
%TD*%
D19*
%TO.C,Q4*%
X128135000Y-108420000D03*
X129085000Y-106420000D03*
X127185000Y-106420000D03*
%TD*%
D15*
%TO.C,Q7*%
X89487500Y-115643000D03*
D16*
X84921500Y-115643000D03*
D17*
X85682500Y-124625000D03*
X88732500Y-124625000D03*
X85682500Y-121275000D03*
X88732500Y-121275000D03*
%TD*%
D10*
%TO.C,R12*%
X144345000Y-68230000D03*
X142045000Y-68230000D03*
%TD*%
D18*
%TO.C,R46*%
X93075000Y-54200000D03*
X93075000Y-51900000D03*
%TD*%
D12*
%TO.C,R15*%
X84625000Y-128750000D03*
X86925000Y-128750000D03*
%TD*%
D14*
%TO.C,R44*%
X95375000Y-51900000D03*
X95375000Y-54200000D03*
%TD*%
D13*
%TO.C,D16*%
X155625000Y-115750000D03*
X152325000Y-115750000D03*
%TD*%
D11*
%TO.C,C10*%
X47955000Y-112460000D03*
X45555000Y-112460000D03*
%TD*%
D10*
%TO.C,R25*%
X129285000Y-104310000D03*
X126985000Y-104310000D03*
%TD*%
D12*
%TO.C,R45*%
X88725000Y-43250000D03*
X91025000Y-43250000D03*
%TD*%
D10*
%TO.C,R34*%
X118715000Y-88660000D03*
X116415000Y-88660000D03*
%TD*%
D12*
%TO.C,R4*%
X112715000Y-50500000D03*
X115015000Y-50500000D03*
%TD*%
D11*
%TO.C,C6*%
X47955000Y-121460000D03*
X45555000Y-121460000D03*
%TD*%
D20*
%TO.C,D12*%
X110675000Y-136950000D03*
X106675000Y-136950000D03*
%TD*%
D10*
%TO.C,R39*%
X71400000Y-51175000D03*
X69100000Y-51175000D03*
%TD*%
D11*
%TO.C,C7*%
X47955000Y-119210000D03*
X45555000Y-119210000D03*
%TD*%
%TO.C,C9*%
X47955000Y-114710000D03*
X45555000Y-114710000D03*
%TD*%
D19*
%TO.C,D25*%
X82250000Y-51450000D03*
X83200000Y-49450000D03*
X81300000Y-49450000D03*
%TD*%
D21*
%TO.C,D7*%
X68750000Y-77400000D03*
X68750000Y-74100000D03*
%TD*%
D10*
%TO.C,R10*%
X77570000Y-51175000D03*
X75270000Y-51175000D03*
%TD*%
D20*
%TO.C,D24*%
X140850000Y-136950000D03*
X136850000Y-136950000D03*
%TD*%
D12*
%TO.C,R6*%
X61825000Y-128750000D03*
X64125000Y-128750000D03*
%TD*%
D15*
%TO.C,Q11*%
X104487500Y-115643000D03*
D16*
X99921500Y-115643000D03*
D17*
X100682500Y-124625000D03*
X103732500Y-124625000D03*
X100682500Y-121275000D03*
X103732500Y-121275000D03*
%TD*%
D20*
%TO.C,D9*%
X87875000Y-136950000D03*
X83875000Y-136950000D03*
%TD*%
D12*
%TO.C,R28*%
X153225000Y-128750000D03*
X155525000Y-128750000D03*
%TD*%
%TO.C,R42*%
X103825000Y-54200000D03*
X106125000Y-54200000D03*
%TD*%
D20*
%TO.C,D18*%
X156375000Y-136950000D03*
X152375000Y-136950000D03*
%TD*%
%TO.C,D3*%
X64975000Y-136950000D03*
X60975000Y-136950000D03*
%TD*%
%TO.C,D13*%
X125975000Y-136950000D03*
X121975000Y-136950000D03*
%TD*%
D24*
%TO.C,C5*%
X129200000Y-74875000D03*
X129200000Y-77275000D03*
%TD*%
D10*
%TO.C,R1*%
X77570000Y-53675000D03*
X75270000Y-53675000D03*
%TD*%
D12*
%TO.C,R40*%
X138025000Y-128750000D03*
X140325000Y-128750000D03*
%TD*%
%TO.C,R23*%
X122825000Y-128750000D03*
X125125000Y-128750000D03*
%TD*%
%TO.C,R41*%
X103825000Y-56740000D03*
X106125000Y-56740000D03*
%TD*%
D10*
%TO.C,R29*%
X150125000Y-107550000D03*
X147825000Y-107550000D03*
%TD*%
D13*
%TO.C,D19*%
X87875000Y-74300000D03*
X91175000Y-74300000D03*
%TD*%
D12*
%TO.C,R43*%
X103825000Y-51660000D03*
X106125000Y-51660000D03*
%TD*%
D10*
%TO.C,R3*%
X115015000Y-55250000D03*
X112715000Y-55250000D03*
%TD*%
%TO.C,R48*%
X144355000Y-76650000D03*
X142055000Y-76650000D03*
%TD*%
%TO.C,R35*%
X71400000Y-53675000D03*
X69100000Y-53675000D03*
%TD*%
D11*
%TO.C,C8*%
X47955000Y-116960000D03*
X45555000Y-116960000D03*
%TD*%
D19*
%TO.C,Q14*%
X117565000Y-92660000D03*
X118515000Y-90660000D03*
X116615000Y-90660000D03*
%TD*%
D18*
%TO.C,R11*%
X158995000Y-111770000D03*
X158995000Y-109470000D03*
%TD*%
D19*
%TO.C,Q17*%
X148975000Y-111950000D03*
X149925000Y-109950000D03*
X148025000Y-109950000D03*
%TD*%
D23*
%TO.C,C1*%
X100975000Y-46150000D03*
X95375000Y-46150000D03*
%TD*%
D22*
%TO.C,U4*%
X89980000Y-49875000D03*
X88710000Y-49875000D03*
X87440000Y-49875000D03*
X86170000Y-49875000D03*
X86170000Y-56225000D03*
X87440000Y-56225000D03*
X88710000Y-56225000D03*
X89980000Y-56225000D03*
%TD*%
D21*
%TO.C,D26*%
X132307500Y-74425000D03*
X132307500Y-77725000D03*
%TD*%
D15*
%TO.C,Q13*%
X117505000Y-115643000D03*
D16*
X112939000Y-115643000D03*
D17*
X113700000Y-124625000D03*
X116750000Y-124625000D03*
X113700000Y-121275000D03*
X116750000Y-121275000D03*
%TD*%
D12*
%TO.C,R22*%
X107525000Y-128750000D03*
X109825000Y-128750000D03*
%TD*%
M02*
