M48
; DRILL file {KiCad 8.0.7} date 2025-01-08T09:27:07+0900
; FORMAT={-:-/ absolute / inch / decimal}
; #@! TF.CreationDate,2025-01-08T09:27:07+09:00
; #@! TF.GenerationSoftware,Kicad,Pcbnew,8.0.7
; #@! TF.FileFunction,NonPlated,1,2,NPTH
FMAT,2
INCH
; #@! TA.AperFunction,NonPlated,NPTH,ComponentDrill
T1C0.1220
%
G90
G05
T1
X2.372Y-1.0807
X2.372Y-1.5728
X2.372Y-2.8307
X2.372Y-3.3228
X2.372Y-4.5807
X2.372Y-5.0728
X2.372Y-6.3307
X2.372Y-6.8228
X3.8996Y-1.0807
X3.8996Y-1.5728
X3.8996Y-2.8307
X3.8996Y-3.3228
X3.8996Y-4.5807
X3.8996Y-5.0728
X3.8996Y-6.3307
X3.8996Y-6.8228
X5.4272Y-1.0807
X5.4272Y-1.5728
X5.4272Y-2.8307
X5.4272Y-3.3228
X5.4272Y-4.5807
X5.4272Y-5.0728
X5.4272Y-6.3307
X5.4272Y-6.8228
X6.9547Y-1.0807
X6.9547Y-1.5728
X6.9547Y-2.8307
X6.9547Y-3.3228
X6.9547Y-4.5807
X6.9547Y-5.0728
X6.9547Y-6.3307
X6.9547Y-6.8228
X8.4823Y-1.0807
X8.4823Y-1.5728
X8.4823Y-2.8307
X8.4823Y-3.3228
X8.4823Y-4.5807
X8.4823Y-5.0728
X8.4823Y-6.3307
X8.4823Y-6.8228
M30
