%TF.GenerationSoftware,KiCad,Pcbnew,8.0.7*%
%TF.CreationDate,2025-01-08T09:27:09+09:00*%
%TF.ProjectId,waveShare-7inch-rs485,77617665-5368-4617-9265-2d37696e6368,rev?*%
%TF.SameCoordinates,Original*%
%TF.FileFunction,Paste,Bot*%
%TF.FilePolarity,Positive*%
%FSLAX46Y46*%
G04 Gerber Fmt 4.6, Leading zero omitted, Abs format (unit mm)*
G04 Created by KiCad (PCBNEW 8.0.7) date 2025-01-08 09:27:09*
%MOMM*%
%LPD*%
G01*
G04 APERTURE LIST*
G04 Aperture macros list*
%AMRoundRect*
0 Rectangle with rounded corners*
0 $1 Rounding radius*
0 $2 $3 $4 $5 $6 $7 $8 $9 X,Y pos of 4 corners*
0 Add a 4 corners polygon primitive as box body*
4,1,4,$2,$3,$4,$5,$6,$7,$8,$9,$2,$3,0*
0 Add four circle primitives for the rounded corners*
1,1,$1+$1,$2,$3*
1,1,$1+$1,$4,$5*
1,1,$1+$1,$6,$7*
1,1,$1+$1,$8,$9*
0 Add four rect primitives between the rounded corners*
20,1,$1+$1,$2,$3,$4,$5,0*
20,1,$1+$1,$4,$5,$6,$7,0*
20,1,$1+$1,$6,$7,$8,$9,0*
20,1,$1+$1,$8,$9,$2,$3,0*%
G04 Aperture macros list end*
%ADD10RoundRect,0.312500X-0.312500X0.437500X-0.312500X-0.437500X0.312500X-0.437500X0.312500X0.437500X0*%
%ADD11RoundRect,0.325000X-0.325000X-0.325000X0.325000X-0.325000X0.325000X0.325000X-0.325000X0.325000X0*%
%ADD12RoundRect,0.325000X0.325000X0.325000X-0.325000X0.325000X-0.325000X-0.325000X0.325000X-0.325000X0*%
%ADD13RoundRect,0.264600X1.235400X-0.635400X1.235400X0.635400X-1.235400X0.635400X-1.235400X-0.635400X0*%
%ADD14RoundRect,0.250000X1.250000X-0.650000X1.250000X0.650000X-1.250000X0.650000X-1.250000X-0.650000X0*%
G04 APERTURE END LIST*
D10*
%TO.C,C3*%
X204360000Y-158930000D03*
X204360000Y-161330000D03*
%TD*%
D11*
%TO.C,R2*%
X207980000Y-161310000D03*
X210280000Y-161310000D03*
%TD*%
D12*
%TO.C,R10*%
X210280000Y-174000000D03*
X207980000Y-174000000D03*
%TD*%
D13*
%TO.C,J5*%
X218970000Y-170810000D03*
D14*
X218970000Y-168310000D03*
X218970000Y-165810000D03*
X218970000Y-163310000D03*
%TD*%
D10*
%TO.C,C3*%
X165560000Y-158930000D03*
X165560000Y-161330000D03*
%TD*%
D11*
%TO.C,R2*%
X169180000Y-161310000D03*
X171480000Y-161310000D03*
%TD*%
D12*
%TO.C,R10*%
X171480000Y-174000000D03*
X169180000Y-174000000D03*
%TD*%
D13*
%TO.C,J5*%
X180170000Y-170810000D03*
D14*
X180170000Y-168310000D03*
X180170000Y-165810000D03*
X180170000Y-163310000D03*
%TD*%
D10*
%TO.C,C3*%
X126760000Y-158930000D03*
X126760000Y-161330000D03*
%TD*%
D11*
%TO.C,R2*%
X130380000Y-161310000D03*
X132680000Y-161310000D03*
%TD*%
D12*
%TO.C,R10*%
X132680000Y-174000000D03*
X130380000Y-174000000D03*
%TD*%
D13*
%TO.C,J5*%
X141370000Y-170810000D03*
D14*
X141370000Y-168310000D03*
X141370000Y-165810000D03*
X141370000Y-163310000D03*
%TD*%
D10*
%TO.C,C3*%
X87960000Y-158930000D03*
X87960000Y-161330000D03*
%TD*%
D11*
%TO.C,R2*%
X91580000Y-161310000D03*
X93880000Y-161310000D03*
%TD*%
D12*
%TO.C,R10*%
X93880000Y-174000000D03*
X91580000Y-174000000D03*
%TD*%
D13*
%TO.C,J5*%
X102570000Y-170810000D03*
D14*
X102570000Y-168310000D03*
X102570000Y-165810000D03*
X102570000Y-163310000D03*
%TD*%
D10*
%TO.C,C3*%
X49160000Y-158930000D03*
X49160000Y-161330000D03*
%TD*%
D11*
%TO.C,R2*%
X52780000Y-161310000D03*
X55080000Y-161310000D03*
%TD*%
D12*
%TO.C,R10*%
X55080000Y-174000000D03*
X52780000Y-174000000D03*
%TD*%
D13*
%TO.C,J5*%
X63770000Y-170810000D03*
D14*
X63770000Y-168310000D03*
X63770000Y-165810000D03*
X63770000Y-163310000D03*
%TD*%
D10*
%TO.C,C3*%
X204360000Y-114480000D03*
X204360000Y-116880000D03*
%TD*%
D11*
%TO.C,R2*%
X207980000Y-116860000D03*
X210280000Y-116860000D03*
%TD*%
D12*
%TO.C,R10*%
X210280000Y-129550000D03*
X207980000Y-129550000D03*
%TD*%
D13*
%TO.C,J5*%
X218970000Y-126360000D03*
D14*
X218970000Y-123860000D03*
X218970000Y-121360000D03*
X218970000Y-118860000D03*
%TD*%
D10*
%TO.C,C3*%
X165560000Y-114480000D03*
X165560000Y-116880000D03*
%TD*%
D11*
%TO.C,R2*%
X169180000Y-116860000D03*
X171480000Y-116860000D03*
%TD*%
D12*
%TO.C,R10*%
X171480000Y-129550000D03*
X169180000Y-129550000D03*
%TD*%
D13*
%TO.C,J5*%
X180170000Y-126360000D03*
D14*
X180170000Y-123860000D03*
X180170000Y-121360000D03*
X180170000Y-118860000D03*
%TD*%
D10*
%TO.C,C3*%
X126760000Y-114480000D03*
X126760000Y-116880000D03*
%TD*%
D11*
%TO.C,R2*%
X130380000Y-116860000D03*
X132680000Y-116860000D03*
%TD*%
D12*
%TO.C,R10*%
X132680000Y-129550000D03*
X130380000Y-129550000D03*
%TD*%
D13*
%TO.C,J5*%
X141370000Y-126360000D03*
D14*
X141370000Y-123860000D03*
X141370000Y-121360000D03*
X141370000Y-118860000D03*
%TD*%
D10*
%TO.C,C3*%
X87960000Y-114480000D03*
X87960000Y-116880000D03*
%TD*%
D11*
%TO.C,R2*%
X91580000Y-116860000D03*
X93880000Y-116860000D03*
%TD*%
D12*
%TO.C,R10*%
X93880000Y-129550000D03*
X91580000Y-129550000D03*
%TD*%
D13*
%TO.C,J5*%
X102570000Y-126360000D03*
D14*
X102570000Y-123860000D03*
X102570000Y-121360000D03*
X102570000Y-118860000D03*
%TD*%
D10*
%TO.C,C3*%
X49160000Y-114480000D03*
X49160000Y-116880000D03*
%TD*%
D11*
%TO.C,R2*%
X52780000Y-116860000D03*
X55080000Y-116860000D03*
%TD*%
D12*
%TO.C,R10*%
X55080000Y-129550000D03*
X52780000Y-129550000D03*
%TD*%
D13*
%TO.C,J5*%
X63770000Y-126360000D03*
D14*
X63770000Y-123860000D03*
X63770000Y-121360000D03*
X63770000Y-118860000D03*
%TD*%
D10*
%TO.C,C3*%
X204360000Y-70030000D03*
X204360000Y-72430000D03*
%TD*%
D11*
%TO.C,R2*%
X207980000Y-72410000D03*
X210280000Y-72410000D03*
%TD*%
D12*
%TO.C,R10*%
X210280000Y-85100000D03*
X207980000Y-85100000D03*
%TD*%
D13*
%TO.C,J5*%
X218970000Y-81910000D03*
D14*
X218970000Y-79410000D03*
X218970000Y-76910000D03*
X218970000Y-74410000D03*
%TD*%
D10*
%TO.C,C3*%
X165560000Y-70030000D03*
X165560000Y-72430000D03*
%TD*%
D11*
%TO.C,R2*%
X169180000Y-72410000D03*
X171480000Y-72410000D03*
%TD*%
D12*
%TO.C,R10*%
X171480000Y-85100000D03*
X169180000Y-85100000D03*
%TD*%
D13*
%TO.C,J5*%
X180170000Y-81910000D03*
D14*
X180170000Y-79410000D03*
X180170000Y-76910000D03*
X180170000Y-74410000D03*
%TD*%
D10*
%TO.C,C3*%
X126760000Y-70030000D03*
X126760000Y-72430000D03*
%TD*%
D11*
%TO.C,R2*%
X130380000Y-72410000D03*
X132680000Y-72410000D03*
%TD*%
D12*
%TO.C,R10*%
X132680000Y-85100000D03*
X130380000Y-85100000D03*
%TD*%
D13*
%TO.C,J5*%
X141370000Y-81910000D03*
D14*
X141370000Y-79410000D03*
X141370000Y-76910000D03*
X141370000Y-74410000D03*
%TD*%
D10*
%TO.C,C3*%
X87960000Y-70030000D03*
X87960000Y-72430000D03*
%TD*%
D11*
%TO.C,R2*%
X91580000Y-72410000D03*
X93880000Y-72410000D03*
%TD*%
D12*
%TO.C,R10*%
X93880000Y-85100000D03*
X91580000Y-85100000D03*
%TD*%
D13*
%TO.C,J5*%
X102570000Y-81910000D03*
D14*
X102570000Y-79410000D03*
X102570000Y-76910000D03*
X102570000Y-74410000D03*
%TD*%
D10*
%TO.C,C3*%
X49160000Y-70030000D03*
X49160000Y-72430000D03*
%TD*%
D11*
%TO.C,R2*%
X52780000Y-72410000D03*
X55080000Y-72410000D03*
%TD*%
D12*
%TO.C,R10*%
X55080000Y-85100000D03*
X52780000Y-85100000D03*
%TD*%
D13*
%TO.C,J5*%
X63770000Y-81910000D03*
D14*
X63770000Y-79410000D03*
X63770000Y-76910000D03*
X63770000Y-74410000D03*
%TD*%
D10*
%TO.C,C3*%
X204360000Y-25580000D03*
X204360000Y-27980000D03*
%TD*%
D11*
%TO.C,R2*%
X207980000Y-27960000D03*
X210280000Y-27960000D03*
%TD*%
D12*
%TO.C,R10*%
X210280000Y-40650000D03*
X207980000Y-40650000D03*
%TD*%
D13*
%TO.C,J5*%
X218970000Y-37460000D03*
D14*
X218970000Y-34960000D03*
X218970000Y-32460000D03*
X218970000Y-29960000D03*
%TD*%
D10*
%TO.C,C3*%
X165560000Y-25580000D03*
X165560000Y-27980000D03*
%TD*%
D11*
%TO.C,R2*%
X169180000Y-27960000D03*
X171480000Y-27960000D03*
%TD*%
D12*
%TO.C,R10*%
X171480000Y-40650000D03*
X169180000Y-40650000D03*
%TD*%
D13*
%TO.C,J5*%
X180170000Y-37460000D03*
D14*
X180170000Y-34960000D03*
X180170000Y-32460000D03*
X180170000Y-29960000D03*
%TD*%
D10*
%TO.C,C3*%
X126760000Y-25580000D03*
X126760000Y-27980000D03*
%TD*%
D11*
%TO.C,R2*%
X130380000Y-27960000D03*
X132680000Y-27960000D03*
%TD*%
D12*
%TO.C,R10*%
X132680000Y-40650000D03*
X130380000Y-40650000D03*
%TD*%
D13*
%TO.C,J5*%
X141370000Y-37460000D03*
D14*
X141370000Y-34960000D03*
X141370000Y-32460000D03*
X141370000Y-29960000D03*
%TD*%
D10*
%TO.C,C3*%
X87960000Y-25580000D03*
X87960000Y-27980000D03*
%TD*%
D11*
%TO.C,R2*%
X91580000Y-27960000D03*
X93880000Y-27960000D03*
%TD*%
D12*
%TO.C,R10*%
X93880000Y-40650000D03*
X91580000Y-40650000D03*
%TD*%
D13*
%TO.C,J5*%
X102570000Y-37460000D03*
D14*
X102570000Y-34960000D03*
X102570000Y-32460000D03*
X102570000Y-29960000D03*
%TD*%
D13*
%TO.C,J5*%
X63770000Y-37460000D03*
D14*
X63770000Y-34960000D03*
X63770000Y-32460000D03*
X63770000Y-29960000D03*
%TD*%
D12*
%TO.C,R10*%
X55080000Y-40650000D03*
X52780000Y-40650000D03*
%TD*%
D11*
%TO.C,R2*%
X52780000Y-27960000D03*
X55080000Y-27960000D03*
%TD*%
D10*
%TO.C,C3*%
X49160000Y-25580000D03*
X49160000Y-27980000D03*
%TD*%
M02*
