%TF.GenerationSoftware,KiCad,Pcbnew,8.0.7*%
%TF.CreationDate,2025-01-08T09:27:09+09:00*%
%TF.ProjectId,waveShare-7inch-rs485,77617665-5368-4617-9265-2d37696e6368,rev?*%
%TF.SameCoordinates,Original*%
%TF.FileFunction,Paste,Top*%
%TF.FilePolarity,Positive*%
%FSLAX46Y46*%
G04 Gerber Fmt 4.6, Leading zero omitted, Abs format (unit mm)*
G04 Created by KiCad (PCBNEW 8.0.7) date 2025-01-08 09:27:09*
%MOMM*%
%LPD*%
G01*
G04 APERTURE LIST*
G04 Aperture macros list*
%AMRoundRect*
0 Rectangle with rounded corners*
0 $1 Rounding radius*
0 $2 $3 $4 $5 $6 $7 $8 $9 X,Y pos of 4 corners*
0 Add a 4 corners polygon primitive as box body*
4,1,4,$2,$3,$4,$5,$6,$7,$8,$9,$2,$3,0*
0 Add four circle primitives for the rounded corners*
1,1,$1+$1,$2,$3*
1,1,$1+$1,$4,$5*
1,1,$1+$1,$6,$7*
1,1,$1+$1,$8,$9*
0 Add four rect primitives between the rounded corners*
20,1,$1+$1,$2,$3,$4,$5,0*
20,1,$1+$1,$4,$5,$6,$7,0*
20,1,$1+$1,$6,$7,$8,$9,0*
20,1,$1+$1,$8,$9,$2,$3,0*%
G04 Aperture macros list end*
%ADD10R,1.000000X1.100000*%
%ADD11RoundRect,0.325000X-0.325000X0.325000X-0.325000X-0.325000X0.325000X-0.325000X0.325000X0.325000X0*%
%ADD12RoundRect,0.300000X-1.450000X-0.950000X1.450000X-0.950000X1.450000X0.950000X-1.450000X0.950000X0*%
%ADD13RoundRect,0.175000X2.000000X-0.175000X2.000000X0.175000X-2.000000X0.175000X-2.000000X-0.175000X0*%
%ADD14RoundRect,0.200000X1.075000X-0.200000X1.075000X0.200000X-1.075000X0.200000X-1.075000X-0.200000X0*%
%ADD15RoundRect,0.197095X1.552905X-0.752905X1.552905X0.752905X-1.552905X0.752905X-1.552905X-0.752905X0*%
%ADD16RoundRect,0.294118X-0.705882X-1.205882X0.705882X-1.205882X0.705882X1.205882X-0.705882X1.205882X0*%
%ADD17R,2.500000X1.800000*%
%ADD18RoundRect,0.312500X-0.312500X0.437500X-0.312500X-0.437500X0.312500X-0.437500X0.312500X0.437500X0*%
G04 APERTURE END LIST*
D10*
%TO.C,Q1*%
X207400000Y-193125000D03*
X205500000Y-193125000D03*
X206450000Y-195125000D03*
%TD*%
D11*
%TO.C,R1*%
X203300000Y-192700000D03*
X203300000Y-195000000D03*
%TD*%
D12*
%TO.C,MO1*%
X184390000Y-185300000D03*
X184360000Y-193870000D03*
X199490000Y-185280000D03*
X199490000Y-193870000D03*
%TD*%
D13*
%TO.C,J4*%
X205760000Y-163480000D03*
X205760000Y-164500000D03*
X205760000Y-165520000D03*
X205760000Y-166540000D03*
X205760000Y-167560000D03*
X205760000Y-168580000D03*
X205760000Y-169600000D03*
X205760000Y-170620000D03*
D14*
X204860000Y-160100000D03*
X204860000Y-161310000D03*
X204860000Y-172790000D03*
X204860000Y-174000000D03*
D15*
X215200000Y-176050000D03*
X215200000Y-158050000D03*
%TD*%
D16*
%TO.C,P1*%
X186190000Y-199475000D03*
X188730000Y-199475000D03*
X191270000Y-199475000D03*
X193810000Y-199475000D03*
%TD*%
D17*
%TO.C,D1*%
X194850000Y-181225000D03*
X190850000Y-181225000D03*
%TD*%
D18*
%TO.C,C1*%
X183425000Y-163975000D03*
X183425000Y-166375000D03*
%TD*%
D16*
%TO.C,P2*%
X200720000Y-199500000D03*
X203260000Y-199500000D03*
X205800000Y-199500000D03*
X208340000Y-199500000D03*
X210880000Y-199500000D03*
%TD*%
D10*
%TO.C,Q1*%
X168600000Y-193125000D03*
X166700000Y-193125000D03*
X167650000Y-195125000D03*
%TD*%
D11*
%TO.C,R1*%
X164500000Y-192700000D03*
X164500000Y-195000000D03*
%TD*%
D12*
%TO.C,MO1*%
X145590000Y-185300000D03*
X145560000Y-193870000D03*
X160690000Y-185280000D03*
X160690000Y-193870000D03*
%TD*%
D13*
%TO.C,J4*%
X166960000Y-163480000D03*
X166960000Y-164500000D03*
X166960000Y-165520000D03*
X166960000Y-166540000D03*
X166960000Y-167560000D03*
X166960000Y-168580000D03*
X166960000Y-169600000D03*
X166960000Y-170620000D03*
D14*
X166060000Y-160100000D03*
X166060000Y-161310000D03*
X166060000Y-172790000D03*
X166060000Y-174000000D03*
D15*
X176400000Y-176050000D03*
X176400000Y-158050000D03*
%TD*%
D16*
%TO.C,P1*%
X147390000Y-199475000D03*
X149930000Y-199475000D03*
X152470000Y-199475000D03*
X155010000Y-199475000D03*
%TD*%
D17*
%TO.C,D1*%
X156050000Y-181225000D03*
X152050000Y-181225000D03*
%TD*%
D18*
%TO.C,C1*%
X144625000Y-163975000D03*
X144625000Y-166375000D03*
%TD*%
D16*
%TO.C,P2*%
X161920000Y-199500000D03*
X164460000Y-199500000D03*
X167000000Y-199500000D03*
X169540000Y-199500000D03*
X172080000Y-199500000D03*
%TD*%
D10*
%TO.C,Q1*%
X129800000Y-193125000D03*
X127900000Y-193125000D03*
X128850000Y-195125000D03*
%TD*%
D11*
%TO.C,R1*%
X125700000Y-192700000D03*
X125700000Y-195000000D03*
%TD*%
D12*
%TO.C,MO1*%
X106790000Y-185300000D03*
X106760000Y-193870000D03*
X121890000Y-185280000D03*
X121890000Y-193870000D03*
%TD*%
D13*
%TO.C,J4*%
X128160000Y-163480000D03*
X128160000Y-164500000D03*
X128160000Y-165520000D03*
X128160000Y-166540000D03*
X128160000Y-167560000D03*
X128160000Y-168580000D03*
X128160000Y-169600000D03*
X128160000Y-170620000D03*
D14*
X127260000Y-160100000D03*
X127260000Y-161310000D03*
X127260000Y-172790000D03*
X127260000Y-174000000D03*
D15*
X137600000Y-176050000D03*
X137600000Y-158050000D03*
%TD*%
D16*
%TO.C,P1*%
X108590000Y-199475000D03*
X111130000Y-199475000D03*
X113670000Y-199475000D03*
X116210000Y-199475000D03*
%TD*%
D17*
%TO.C,D1*%
X117250000Y-181225000D03*
X113250000Y-181225000D03*
%TD*%
D18*
%TO.C,C1*%
X105825000Y-163975000D03*
X105825000Y-166375000D03*
%TD*%
D16*
%TO.C,P2*%
X123120000Y-199500000D03*
X125660000Y-199500000D03*
X128200000Y-199500000D03*
X130740000Y-199500000D03*
X133280000Y-199500000D03*
%TD*%
D10*
%TO.C,Q1*%
X91000000Y-193125000D03*
X89100000Y-193125000D03*
X90050000Y-195125000D03*
%TD*%
D11*
%TO.C,R1*%
X86900000Y-192700000D03*
X86900000Y-195000000D03*
%TD*%
D12*
%TO.C,MO1*%
X67990000Y-185300000D03*
X67960000Y-193870000D03*
X83090000Y-185280000D03*
X83090000Y-193870000D03*
%TD*%
D13*
%TO.C,J4*%
X89360000Y-163480000D03*
X89360000Y-164500000D03*
X89360000Y-165520000D03*
X89360000Y-166540000D03*
X89360000Y-167560000D03*
X89360000Y-168580000D03*
X89360000Y-169600000D03*
X89360000Y-170620000D03*
D14*
X88460000Y-160100000D03*
X88460000Y-161310000D03*
X88460000Y-172790000D03*
X88460000Y-174000000D03*
D15*
X98800000Y-176050000D03*
X98800000Y-158050000D03*
%TD*%
D16*
%TO.C,P1*%
X69790000Y-199475000D03*
X72330000Y-199475000D03*
X74870000Y-199475000D03*
X77410000Y-199475000D03*
%TD*%
D17*
%TO.C,D1*%
X78450000Y-181225000D03*
X74450000Y-181225000D03*
%TD*%
D18*
%TO.C,C1*%
X67025000Y-163975000D03*
X67025000Y-166375000D03*
%TD*%
D16*
%TO.C,P2*%
X84320000Y-199500000D03*
X86860000Y-199500000D03*
X89400000Y-199500000D03*
X91940000Y-199500000D03*
X94480000Y-199500000D03*
%TD*%
D10*
%TO.C,Q1*%
X52200000Y-193125000D03*
X50300000Y-193125000D03*
X51250000Y-195125000D03*
%TD*%
D11*
%TO.C,R1*%
X48100000Y-192700000D03*
X48100000Y-195000000D03*
%TD*%
D12*
%TO.C,MO1*%
X29190000Y-185300000D03*
X29160000Y-193870000D03*
X44290000Y-185280000D03*
X44290000Y-193870000D03*
%TD*%
D13*
%TO.C,J4*%
X50560000Y-163480000D03*
X50560000Y-164500000D03*
X50560000Y-165520000D03*
X50560000Y-166540000D03*
X50560000Y-167560000D03*
X50560000Y-168580000D03*
X50560000Y-169600000D03*
X50560000Y-170620000D03*
D14*
X49660000Y-160100000D03*
X49660000Y-161310000D03*
X49660000Y-172790000D03*
X49660000Y-174000000D03*
D15*
X60000000Y-176050000D03*
X60000000Y-158050000D03*
%TD*%
D16*
%TO.C,P1*%
X30990000Y-199475000D03*
X33530000Y-199475000D03*
X36070000Y-199475000D03*
X38610000Y-199475000D03*
%TD*%
D17*
%TO.C,D1*%
X39650000Y-181225000D03*
X35650000Y-181225000D03*
%TD*%
D18*
%TO.C,C1*%
X28225000Y-163975000D03*
X28225000Y-166375000D03*
%TD*%
D16*
%TO.C,P2*%
X45520000Y-199500000D03*
X48060000Y-199500000D03*
X50600000Y-199500000D03*
X53140000Y-199500000D03*
X55680000Y-199500000D03*
%TD*%
D10*
%TO.C,Q1*%
X207400000Y-148675000D03*
X205500000Y-148675000D03*
X206450000Y-150675000D03*
%TD*%
D11*
%TO.C,R1*%
X203300000Y-148250000D03*
X203300000Y-150550000D03*
%TD*%
D12*
%TO.C,MO1*%
X184390000Y-140850000D03*
X184360000Y-149420000D03*
X199490000Y-140830000D03*
X199490000Y-149420000D03*
%TD*%
D13*
%TO.C,J4*%
X205760000Y-119030000D03*
X205760000Y-120050000D03*
X205760000Y-121070000D03*
X205760000Y-122090000D03*
X205760000Y-123110000D03*
X205760000Y-124130000D03*
X205760000Y-125150000D03*
X205760000Y-126170000D03*
D14*
X204860000Y-115650000D03*
X204860000Y-116860000D03*
X204860000Y-128340000D03*
X204860000Y-129550000D03*
D15*
X215200000Y-131600000D03*
X215200000Y-113600000D03*
%TD*%
D16*
%TO.C,P1*%
X186190000Y-155025000D03*
X188730000Y-155025000D03*
X191270000Y-155025000D03*
X193810000Y-155025000D03*
%TD*%
D17*
%TO.C,D1*%
X194850000Y-136775000D03*
X190850000Y-136775000D03*
%TD*%
D18*
%TO.C,C1*%
X183425000Y-119525000D03*
X183425000Y-121925000D03*
%TD*%
D16*
%TO.C,P2*%
X200720000Y-155050000D03*
X203260000Y-155050000D03*
X205800000Y-155050000D03*
X208340000Y-155050000D03*
X210880000Y-155050000D03*
%TD*%
D10*
%TO.C,Q1*%
X168600000Y-148675000D03*
X166700000Y-148675000D03*
X167650000Y-150675000D03*
%TD*%
D11*
%TO.C,R1*%
X164500000Y-148250000D03*
X164500000Y-150550000D03*
%TD*%
D12*
%TO.C,MO1*%
X145590000Y-140850000D03*
X145560000Y-149420000D03*
X160690000Y-140830000D03*
X160690000Y-149420000D03*
%TD*%
D13*
%TO.C,J4*%
X166960000Y-119030000D03*
X166960000Y-120050000D03*
X166960000Y-121070000D03*
X166960000Y-122090000D03*
X166960000Y-123110000D03*
X166960000Y-124130000D03*
X166960000Y-125150000D03*
X166960000Y-126170000D03*
D14*
X166060000Y-115650000D03*
X166060000Y-116860000D03*
X166060000Y-128340000D03*
X166060000Y-129550000D03*
D15*
X176400000Y-131600000D03*
X176400000Y-113600000D03*
%TD*%
D16*
%TO.C,P1*%
X147390000Y-155025000D03*
X149930000Y-155025000D03*
X152470000Y-155025000D03*
X155010000Y-155025000D03*
%TD*%
D17*
%TO.C,D1*%
X156050000Y-136775000D03*
X152050000Y-136775000D03*
%TD*%
D18*
%TO.C,C1*%
X144625000Y-119525000D03*
X144625000Y-121925000D03*
%TD*%
D16*
%TO.C,P2*%
X161920000Y-155050000D03*
X164460000Y-155050000D03*
X167000000Y-155050000D03*
X169540000Y-155050000D03*
X172080000Y-155050000D03*
%TD*%
D10*
%TO.C,Q1*%
X129800000Y-148675000D03*
X127900000Y-148675000D03*
X128850000Y-150675000D03*
%TD*%
D11*
%TO.C,R1*%
X125700000Y-148250000D03*
X125700000Y-150550000D03*
%TD*%
D12*
%TO.C,MO1*%
X106790000Y-140850000D03*
X106760000Y-149420000D03*
X121890000Y-140830000D03*
X121890000Y-149420000D03*
%TD*%
D13*
%TO.C,J4*%
X128160000Y-119030000D03*
X128160000Y-120050000D03*
X128160000Y-121070000D03*
X128160000Y-122090000D03*
X128160000Y-123110000D03*
X128160000Y-124130000D03*
X128160000Y-125150000D03*
X128160000Y-126170000D03*
D14*
X127260000Y-115650000D03*
X127260000Y-116860000D03*
X127260000Y-128340000D03*
X127260000Y-129550000D03*
D15*
X137600000Y-131600000D03*
X137600000Y-113600000D03*
%TD*%
D16*
%TO.C,P1*%
X108590000Y-155025000D03*
X111130000Y-155025000D03*
X113670000Y-155025000D03*
X116210000Y-155025000D03*
%TD*%
D17*
%TO.C,D1*%
X117250000Y-136775000D03*
X113250000Y-136775000D03*
%TD*%
D18*
%TO.C,C1*%
X105825000Y-119525000D03*
X105825000Y-121925000D03*
%TD*%
D16*
%TO.C,P2*%
X123120000Y-155050000D03*
X125660000Y-155050000D03*
X128200000Y-155050000D03*
X130740000Y-155050000D03*
X133280000Y-155050000D03*
%TD*%
D10*
%TO.C,Q1*%
X91000000Y-148675000D03*
X89100000Y-148675000D03*
X90050000Y-150675000D03*
%TD*%
D11*
%TO.C,R1*%
X86900000Y-148250000D03*
X86900000Y-150550000D03*
%TD*%
D12*
%TO.C,MO1*%
X67990000Y-140850000D03*
X67960000Y-149420000D03*
X83090000Y-140830000D03*
X83090000Y-149420000D03*
%TD*%
D13*
%TO.C,J4*%
X89360000Y-119030000D03*
X89360000Y-120050000D03*
X89360000Y-121070000D03*
X89360000Y-122090000D03*
X89360000Y-123110000D03*
X89360000Y-124130000D03*
X89360000Y-125150000D03*
X89360000Y-126170000D03*
D14*
X88460000Y-115650000D03*
X88460000Y-116860000D03*
X88460000Y-128340000D03*
X88460000Y-129550000D03*
D15*
X98800000Y-131600000D03*
X98800000Y-113600000D03*
%TD*%
D16*
%TO.C,P1*%
X69790000Y-155025000D03*
X72330000Y-155025000D03*
X74870000Y-155025000D03*
X77410000Y-155025000D03*
%TD*%
D17*
%TO.C,D1*%
X78450000Y-136775000D03*
X74450000Y-136775000D03*
%TD*%
D18*
%TO.C,C1*%
X67025000Y-119525000D03*
X67025000Y-121925000D03*
%TD*%
D16*
%TO.C,P2*%
X84320000Y-155050000D03*
X86860000Y-155050000D03*
X89400000Y-155050000D03*
X91940000Y-155050000D03*
X94480000Y-155050000D03*
%TD*%
D10*
%TO.C,Q1*%
X52200000Y-148675000D03*
X50300000Y-148675000D03*
X51250000Y-150675000D03*
%TD*%
D11*
%TO.C,R1*%
X48100000Y-148250000D03*
X48100000Y-150550000D03*
%TD*%
D12*
%TO.C,MO1*%
X29190000Y-140850000D03*
X29160000Y-149420000D03*
X44290000Y-140830000D03*
X44290000Y-149420000D03*
%TD*%
D13*
%TO.C,J4*%
X50560000Y-119030000D03*
X50560000Y-120050000D03*
X50560000Y-121070000D03*
X50560000Y-122090000D03*
X50560000Y-123110000D03*
X50560000Y-124130000D03*
X50560000Y-125150000D03*
X50560000Y-126170000D03*
D14*
X49660000Y-115650000D03*
X49660000Y-116860000D03*
X49660000Y-128340000D03*
X49660000Y-129550000D03*
D15*
X60000000Y-131600000D03*
X60000000Y-113600000D03*
%TD*%
D16*
%TO.C,P1*%
X30990000Y-155025000D03*
X33530000Y-155025000D03*
X36070000Y-155025000D03*
X38610000Y-155025000D03*
%TD*%
D17*
%TO.C,D1*%
X39650000Y-136775000D03*
X35650000Y-136775000D03*
%TD*%
D18*
%TO.C,C1*%
X28225000Y-119525000D03*
X28225000Y-121925000D03*
%TD*%
D16*
%TO.C,P2*%
X45520000Y-155050000D03*
X48060000Y-155050000D03*
X50600000Y-155050000D03*
X53140000Y-155050000D03*
X55680000Y-155050000D03*
%TD*%
D10*
%TO.C,Q1*%
X207400000Y-104225000D03*
X205500000Y-104225000D03*
X206450000Y-106225000D03*
%TD*%
D11*
%TO.C,R1*%
X203300000Y-103800000D03*
X203300000Y-106100000D03*
%TD*%
D12*
%TO.C,MO1*%
X184390000Y-96400000D03*
X184360000Y-104970000D03*
X199490000Y-96380000D03*
X199490000Y-104970000D03*
%TD*%
D13*
%TO.C,J4*%
X205760000Y-74580000D03*
X205760000Y-75600000D03*
X205760000Y-76620000D03*
X205760000Y-77640000D03*
X205760000Y-78660000D03*
X205760000Y-79680000D03*
X205760000Y-80700000D03*
X205760000Y-81720000D03*
D14*
X204860000Y-71200000D03*
X204860000Y-72410000D03*
X204860000Y-83890000D03*
X204860000Y-85100000D03*
D15*
X215200000Y-87150000D03*
X215200000Y-69150000D03*
%TD*%
D16*
%TO.C,P1*%
X186190000Y-110575000D03*
X188730000Y-110575000D03*
X191270000Y-110575000D03*
X193810000Y-110575000D03*
%TD*%
D17*
%TO.C,D1*%
X194850000Y-92325000D03*
X190850000Y-92325000D03*
%TD*%
D18*
%TO.C,C1*%
X183425000Y-75075000D03*
X183425000Y-77475000D03*
%TD*%
D16*
%TO.C,P2*%
X200720000Y-110600000D03*
X203260000Y-110600000D03*
X205800000Y-110600000D03*
X208340000Y-110600000D03*
X210880000Y-110600000D03*
%TD*%
D10*
%TO.C,Q1*%
X168600000Y-104225000D03*
X166700000Y-104225000D03*
X167650000Y-106225000D03*
%TD*%
D11*
%TO.C,R1*%
X164500000Y-103800000D03*
X164500000Y-106100000D03*
%TD*%
D12*
%TO.C,MO1*%
X145590000Y-96400000D03*
X145560000Y-104970000D03*
X160690000Y-96380000D03*
X160690000Y-104970000D03*
%TD*%
D13*
%TO.C,J4*%
X166960000Y-74580000D03*
X166960000Y-75600000D03*
X166960000Y-76620000D03*
X166960000Y-77640000D03*
X166960000Y-78660000D03*
X166960000Y-79680000D03*
X166960000Y-80700000D03*
X166960000Y-81720000D03*
D14*
X166060000Y-71200000D03*
X166060000Y-72410000D03*
X166060000Y-83890000D03*
X166060000Y-85100000D03*
D15*
X176400000Y-87150000D03*
X176400000Y-69150000D03*
%TD*%
D16*
%TO.C,P1*%
X147390000Y-110575000D03*
X149930000Y-110575000D03*
X152470000Y-110575000D03*
X155010000Y-110575000D03*
%TD*%
D17*
%TO.C,D1*%
X156050000Y-92325000D03*
X152050000Y-92325000D03*
%TD*%
D18*
%TO.C,C1*%
X144625000Y-75075000D03*
X144625000Y-77475000D03*
%TD*%
D16*
%TO.C,P2*%
X161920000Y-110600000D03*
X164460000Y-110600000D03*
X167000000Y-110600000D03*
X169540000Y-110600000D03*
X172080000Y-110600000D03*
%TD*%
D10*
%TO.C,Q1*%
X129800000Y-104225000D03*
X127900000Y-104225000D03*
X128850000Y-106225000D03*
%TD*%
D11*
%TO.C,R1*%
X125700000Y-103800000D03*
X125700000Y-106100000D03*
%TD*%
D12*
%TO.C,MO1*%
X106790000Y-96400000D03*
X106760000Y-104970000D03*
X121890000Y-96380000D03*
X121890000Y-104970000D03*
%TD*%
D13*
%TO.C,J4*%
X128160000Y-74580000D03*
X128160000Y-75600000D03*
X128160000Y-76620000D03*
X128160000Y-77640000D03*
X128160000Y-78660000D03*
X128160000Y-79680000D03*
X128160000Y-80700000D03*
X128160000Y-81720000D03*
D14*
X127260000Y-71200000D03*
X127260000Y-72410000D03*
X127260000Y-83890000D03*
X127260000Y-85100000D03*
D15*
X137600000Y-87150000D03*
X137600000Y-69150000D03*
%TD*%
D16*
%TO.C,P1*%
X108590000Y-110575000D03*
X111130000Y-110575000D03*
X113670000Y-110575000D03*
X116210000Y-110575000D03*
%TD*%
D17*
%TO.C,D1*%
X117250000Y-92325000D03*
X113250000Y-92325000D03*
%TD*%
D18*
%TO.C,C1*%
X105825000Y-75075000D03*
X105825000Y-77475000D03*
%TD*%
D16*
%TO.C,P2*%
X123120000Y-110600000D03*
X125660000Y-110600000D03*
X128200000Y-110600000D03*
X130740000Y-110600000D03*
X133280000Y-110600000D03*
%TD*%
D10*
%TO.C,Q1*%
X91000000Y-104225000D03*
X89100000Y-104225000D03*
X90050000Y-106225000D03*
%TD*%
D11*
%TO.C,R1*%
X86900000Y-103800000D03*
X86900000Y-106100000D03*
%TD*%
D12*
%TO.C,MO1*%
X67990000Y-96400000D03*
X67960000Y-104970000D03*
X83090000Y-96380000D03*
X83090000Y-104970000D03*
%TD*%
D13*
%TO.C,J4*%
X89360000Y-74580000D03*
X89360000Y-75600000D03*
X89360000Y-76620000D03*
X89360000Y-77640000D03*
X89360000Y-78660000D03*
X89360000Y-79680000D03*
X89360000Y-80700000D03*
X89360000Y-81720000D03*
D14*
X88460000Y-71200000D03*
X88460000Y-72410000D03*
X88460000Y-83890000D03*
X88460000Y-85100000D03*
D15*
X98800000Y-87150000D03*
X98800000Y-69150000D03*
%TD*%
D16*
%TO.C,P1*%
X69790000Y-110575000D03*
X72330000Y-110575000D03*
X74870000Y-110575000D03*
X77410000Y-110575000D03*
%TD*%
D17*
%TO.C,D1*%
X78450000Y-92325000D03*
X74450000Y-92325000D03*
%TD*%
D18*
%TO.C,C1*%
X67025000Y-75075000D03*
X67025000Y-77475000D03*
%TD*%
D16*
%TO.C,P2*%
X84320000Y-110600000D03*
X86860000Y-110600000D03*
X89400000Y-110600000D03*
X91940000Y-110600000D03*
X94480000Y-110600000D03*
%TD*%
D10*
%TO.C,Q1*%
X52200000Y-104225000D03*
X50300000Y-104225000D03*
X51250000Y-106225000D03*
%TD*%
D11*
%TO.C,R1*%
X48100000Y-103800000D03*
X48100000Y-106100000D03*
%TD*%
D12*
%TO.C,MO1*%
X29190000Y-96400000D03*
X29160000Y-104970000D03*
X44290000Y-96380000D03*
X44290000Y-104970000D03*
%TD*%
D13*
%TO.C,J4*%
X50560000Y-74580000D03*
X50560000Y-75600000D03*
X50560000Y-76620000D03*
X50560000Y-77640000D03*
X50560000Y-78660000D03*
X50560000Y-79680000D03*
X50560000Y-80700000D03*
X50560000Y-81720000D03*
D14*
X49660000Y-71200000D03*
X49660000Y-72410000D03*
X49660000Y-83890000D03*
X49660000Y-85100000D03*
D15*
X60000000Y-87150000D03*
X60000000Y-69150000D03*
%TD*%
D16*
%TO.C,P1*%
X30990000Y-110575000D03*
X33530000Y-110575000D03*
X36070000Y-110575000D03*
X38610000Y-110575000D03*
%TD*%
D17*
%TO.C,D1*%
X39650000Y-92325000D03*
X35650000Y-92325000D03*
%TD*%
D18*
%TO.C,C1*%
X28225000Y-75075000D03*
X28225000Y-77475000D03*
%TD*%
D16*
%TO.C,P2*%
X45520000Y-110600000D03*
X48060000Y-110600000D03*
X50600000Y-110600000D03*
X53140000Y-110600000D03*
X55680000Y-110600000D03*
%TD*%
D10*
%TO.C,Q1*%
X207400000Y-59775000D03*
X205500000Y-59775000D03*
X206450000Y-61775000D03*
%TD*%
D11*
%TO.C,R1*%
X203300000Y-59350000D03*
X203300000Y-61650000D03*
%TD*%
D12*
%TO.C,MO1*%
X184390000Y-51950000D03*
X184360000Y-60520000D03*
X199490000Y-51930000D03*
X199490000Y-60520000D03*
%TD*%
D13*
%TO.C,J4*%
X205760000Y-30130000D03*
X205760000Y-31150000D03*
X205760000Y-32170000D03*
X205760000Y-33190000D03*
X205760000Y-34210000D03*
X205760000Y-35230000D03*
X205760000Y-36250000D03*
X205760000Y-37270000D03*
D14*
X204860000Y-26750000D03*
X204860000Y-27960000D03*
X204860000Y-39440000D03*
X204860000Y-40650000D03*
D15*
X215200000Y-42700000D03*
X215200000Y-24700000D03*
%TD*%
D16*
%TO.C,P1*%
X186190000Y-66125000D03*
X188730000Y-66125000D03*
X191270000Y-66125000D03*
X193810000Y-66125000D03*
%TD*%
D17*
%TO.C,D1*%
X194850000Y-47875000D03*
X190850000Y-47875000D03*
%TD*%
D18*
%TO.C,C1*%
X183425000Y-30625000D03*
X183425000Y-33025000D03*
%TD*%
D16*
%TO.C,P2*%
X200720000Y-66150000D03*
X203260000Y-66150000D03*
X205800000Y-66150000D03*
X208340000Y-66150000D03*
X210880000Y-66150000D03*
%TD*%
D10*
%TO.C,Q1*%
X168600000Y-59775000D03*
X166700000Y-59775000D03*
X167650000Y-61775000D03*
%TD*%
D11*
%TO.C,R1*%
X164500000Y-59350000D03*
X164500000Y-61650000D03*
%TD*%
D12*
%TO.C,MO1*%
X145590000Y-51950000D03*
X145560000Y-60520000D03*
X160690000Y-51930000D03*
X160690000Y-60520000D03*
%TD*%
D13*
%TO.C,J4*%
X166960000Y-30130000D03*
X166960000Y-31150000D03*
X166960000Y-32170000D03*
X166960000Y-33190000D03*
X166960000Y-34210000D03*
X166960000Y-35230000D03*
X166960000Y-36250000D03*
X166960000Y-37270000D03*
D14*
X166060000Y-26750000D03*
X166060000Y-27960000D03*
X166060000Y-39440000D03*
X166060000Y-40650000D03*
D15*
X176400000Y-42700000D03*
X176400000Y-24700000D03*
%TD*%
D16*
%TO.C,P1*%
X147390000Y-66125000D03*
X149930000Y-66125000D03*
X152470000Y-66125000D03*
X155010000Y-66125000D03*
%TD*%
D17*
%TO.C,D1*%
X156050000Y-47875000D03*
X152050000Y-47875000D03*
%TD*%
D18*
%TO.C,C1*%
X144625000Y-30625000D03*
X144625000Y-33025000D03*
%TD*%
D16*
%TO.C,P2*%
X161920000Y-66150000D03*
X164460000Y-66150000D03*
X167000000Y-66150000D03*
X169540000Y-66150000D03*
X172080000Y-66150000D03*
%TD*%
D10*
%TO.C,Q1*%
X129800000Y-59775000D03*
X127900000Y-59775000D03*
X128850000Y-61775000D03*
%TD*%
D11*
%TO.C,R1*%
X125700000Y-59350000D03*
X125700000Y-61650000D03*
%TD*%
D12*
%TO.C,MO1*%
X106790000Y-51950000D03*
X106760000Y-60520000D03*
X121890000Y-51930000D03*
X121890000Y-60520000D03*
%TD*%
D13*
%TO.C,J4*%
X128160000Y-30130000D03*
X128160000Y-31150000D03*
X128160000Y-32170000D03*
X128160000Y-33190000D03*
X128160000Y-34210000D03*
X128160000Y-35230000D03*
X128160000Y-36250000D03*
X128160000Y-37270000D03*
D14*
X127260000Y-26750000D03*
X127260000Y-27960000D03*
X127260000Y-39440000D03*
X127260000Y-40650000D03*
D15*
X137600000Y-42700000D03*
X137600000Y-24700000D03*
%TD*%
D16*
%TO.C,P1*%
X108590000Y-66125000D03*
X111130000Y-66125000D03*
X113670000Y-66125000D03*
X116210000Y-66125000D03*
%TD*%
D17*
%TO.C,D1*%
X117250000Y-47875000D03*
X113250000Y-47875000D03*
%TD*%
D18*
%TO.C,C1*%
X105825000Y-30625000D03*
X105825000Y-33025000D03*
%TD*%
D16*
%TO.C,P2*%
X123120000Y-66150000D03*
X125660000Y-66150000D03*
X128200000Y-66150000D03*
X130740000Y-66150000D03*
X133280000Y-66150000D03*
%TD*%
D10*
%TO.C,Q1*%
X91000000Y-59775000D03*
X89100000Y-59775000D03*
X90050000Y-61775000D03*
%TD*%
D11*
%TO.C,R1*%
X86900000Y-59350000D03*
X86900000Y-61650000D03*
%TD*%
D12*
%TO.C,MO1*%
X67990000Y-51950000D03*
X67960000Y-60520000D03*
X83090000Y-51930000D03*
X83090000Y-60520000D03*
%TD*%
D13*
%TO.C,J4*%
X89360000Y-30130000D03*
X89360000Y-31150000D03*
X89360000Y-32170000D03*
X89360000Y-33190000D03*
X89360000Y-34210000D03*
X89360000Y-35230000D03*
X89360000Y-36250000D03*
X89360000Y-37270000D03*
D14*
X88460000Y-26750000D03*
X88460000Y-27960000D03*
X88460000Y-39440000D03*
X88460000Y-40650000D03*
D15*
X98800000Y-42700000D03*
X98800000Y-24700000D03*
%TD*%
D16*
%TO.C,P1*%
X69790000Y-66125000D03*
X72330000Y-66125000D03*
X74870000Y-66125000D03*
X77410000Y-66125000D03*
%TD*%
D17*
%TO.C,D1*%
X78450000Y-47875000D03*
X74450000Y-47875000D03*
%TD*%
D18*
%TO.C,C1*%
X67025000Y-30625000D03*
X67025000Y-33025000D03*
%TD*%
D16*
%TO.C,P2*%
X84320000Y-66150000D03*
X86860000Y-66150000D03*
X89400000Y-66150000D03*
X91940000Y-66150000D03*
X94480000Y-66150000D03*
%TD*%
D17*
%TO.C,D1*%
X39650000Y-47875000D03*
X35650000Y-47875000D03*
%TD*%
D16*
%TO.C,P2*%
X45520000Y-66150000D03*
X48060000Y-66150000D03*
X50600000Y-66150000D03*
X53140000Y-66150000D03*
X55680000Y-66150000D03*
%TD*%
D18*
%TO.C,C1*%
X28225000Y-30625000D03*
X28225000Y-33025000D03*
%TD*%
D10*
%TO.C,Q1*%
X52200000Y-59775000D03*
X50300000Y-59775000D03*
X51250000Y-61775000D03*
%TD*%
D13*
%TO.C,J4*%
X50560000Y-30130000D03*
X50560000Y-31150000D03*
X50560000Y-32170000D03*
X50560000Y-33190000D03*
X50560000Y-34210000D03*
X50560000Y-35230000D03*
X50560000Y-36250000D03*
X50560000Y-37270000D03*
D14*
X49660000Y-26750000D03*
X49660000Y-27960000D03*
X49660000Y-39440000D03*
X49660000Y-40650000D03*
D15*
X60000000Y-42700000D03*
X60000000Y-24700000D03*
%TD*%
D11*
%TO.C,R1*%
X48100000Y-59350000D03*
X48100000Y-61650000D03*
%TD*%
D12*
%TO.C,MO1*%
X29190000Y-51950000D03*
X29160000Y-60520000D03*
X44290000Y-51930000D03*
X44290000Y-60520000D03*
%TD*%
D16*
%TO.C,P1*%
X30990000Y-66125000D03*
X33530000Y-66125000D03*
X36070000Y-66125000D03*
X38610000Y-66125000D03*
%TD*%
M02*
