%TF.GenerationSoftware,KiCad,Pcbnew,8.0.7*%
%TF.CreationDate,2025-01-08T09:27:09+09:00*%
%TF.ProjectId,waveShare-7inch-rs485,77617665-5368-4617-9265-2d37696e6368,rev?*%
%TF.SameCoordinates,Original*%
%TF.FileFunction,Legend,Bot*%
%TF.FilePolarity,Positive*%
%FSLAX46Y46*%
G04 Gerber Fmt 4.6, Leading zero omitted, Abs format (unit mm)*
G04 Created by KiCad (PCBNEW 8.0.7) date 2025-01-08 09:27:09*
%MOMM*%
%LPD*%
G01*
G04 APERTURE LIST*
%ADD10C,0.150000*%
%ADD11C,0.120000*%
%ADD12C,0.200000*%
G04 APERTURE END LIST*
D10*
X202864819Y-159463333D02*
X202864819Y-158891905D01*
X202864819Y-159177619D02*
X201864819Y-159177619D01*
X201864819Y-159177619D02*
X202007676Y-159082381D01*
X202007676Y-159082381D02*
X202102914Y-158987143D01*
X202102914Y-158987143D02*
X202150533Y-158891905D01*
X201864819Y-160082381D02*
X201864819Y-160177619D01*
X201864819Y-160177619D02*
X201912438Y-160272857D01*
X201912438Y-160272857D02*
X201960057Y-160320476D01*
X201960057Y-160320476D02*
X202055295Y-160368095D01*
X202055295Y-160368095D02*
X202245771Y-160415714D01*
X202245771Y-160415714D02*
X202483866Y-160415714D01*
X202483866Y-160415714D02*
X202674342Y-160368095D01*
X202674342Y-160368095D02*
X202769580Y-160320476D01*
X202769580Y-160320476D02*
X202817200Y-160272857D01*
X202817200Y-160272857D02*
X202864819Y-160177619D01*
X202864819Y-160177619D02*
X202864819Y-160082381D01*
X202864819Y-160082381D02*
X202817200Y-159987143D01*
X202817200Y-159987143D02*
X202769580Y-159939524D01*
X202769580Y-159939524D02*
X202674342Y-159891905D01*
X202674342Y-159891905D02*
X202483866Y-159844286D01*
X202483866Y-159844286D02*
X202245771Y-159844286D01*
X202245771Y-159844286D02*
X202055295Y-159891905D01*
X202055295Y-159891905D02*
X201960057Y-159939524D01*
X201960057Y-159939524D02*
X201912438Y-159987143D01*
X201912438Y-159987143D02*
X201864819Y-160082381D01*
X201864819Y-161272857D02*
X201864819Y-161082381D01*
X201864819Y-161082381D02*
X201912438Y-160987143D01*
X201912438Y-160987143D02*
X201960057Y-160939524D01*
X201960057Y-160939524D02*
X202102914Y-160844286D01*
X202102914Y-160844286D02*
X202293390Y-160796667D01*
X202293390Y-160796667D02*
X202674342Y-160796667D01*
X202674342Y-160796667D02*
X202769580Y-160844286D01*
X202769580Y-160844286D02*
X202817200Y-160891905D01*
X202817200Y-160891905D02*
X202864819Y-160987143D01*
X202864819Y-160987143D02*
X202864819Y-161177619D01*
X202864819Y-161177619D02*
X202817200Y-161272857D01*
X202817200Y-161272857D02*
X202769580Y-161320476D01*
X202769580Y-161320476D02*
X202674342Y-161368095D01*
X202674342Y-161368095D02*
X202436247Y-161368095D01*
X202436247Y-161368095D02*
X202341009Y-161320476D01*
X202341009Y-161320476D02*
X202293390Y-161272857D01*
X202293390Y-161272857D02*
X202245771Y-161177619D01*
X202245771Y-161177619D02*
X202245771Y-160987143D01*
X202245771Y-160987143D02*
X202293390Y-160891905D01*
X202293390Y-160891905D02*
X202341009Y-160844286D01*
X202341009Y-160844286D02*
X202436247Y-160796667D01*
X210487142Y-158860057D02*
X210439523Y-158812438D01*
X210439523Y-158812438D02*
X210344285Y-158764819D01*
X210344285Y-158764819D02*
X210106190Y-158764819D01*
X210106190Y-158764819D02*
X210010952Y-158812438D01*
X210010952Y-158812438D02*
X209963333Y-158860057D01*
X209963333Y-158860057D02*
X209915714Y-158955295D01*
X209915714Y-158955295D02*
X209915714Y-159050533D01*
X209915714Y-159050533D02*
X209963333Y-159193390D01*
X209963333Y-159193390D02*
X210534761Y-159764819D01*
X210534761Y-159764819D02*
X209915714Y-159764819D01*
X209487142Y-159764819D02*
X209487142Y-158764819D01*
X208915714Y-159764819D02*
X209344285Y-159193390D01*
X208915714Y-158764819D02*
X209487142Y-159336247D01*
X208534761Y-159764819D02*
X208296666Y-159764819D01*
X208296666Y-159764819D02*
X208296666Y-159574342D01*
X208296666Y-159574342D02*
X208391904Y-159526723D01*
X208391904Y-159526723D02*
X208487142Y-159431485D01*
X208487142Y-159431485D02*
X208534761Y-159288628D01*
X208534761Y-159288628D02*
X208534761Y-159050533D01*
X208534761Y-159050533D02*
X208487142Y-158907676D01*
X208487142Y-158907676D02*
X208391904Y-158812438D01*
X208391904Y-158812438D02*
X208249047Y-158764819D01*
X208249047Y-158764819D02*
X208058571Y-158764819D01*
X208058571Y-158764819D02*
X207915714Y-158812438D01*
X207915714Y-158812438D02*
X207820476Y-158907676D01*
X207820476Y-158907676D02*
X207772857Y-159050533D01*
X207772857Y-159050533D02*
X207772857Y-159288628D01*
X207772857Y-159288628D02*
X207820476Y-159431485D01*
X207820476Y-159431485D02*
X207915714Y-159526723D01*
X207915714Y-159526723D02*
X208010952Y-159574342D01*
X208010952Y-159574342D02*
X208010952Y-159764819D01*
X208010952Y-159764819D02*
X207772857Y-159764819D01*
X210416904Y-172594819D02*
X210988332Y-172594819D01*
X210702618Y-172594819D02*
X210702618Y-171594819D01*
X210702618Y-171594819D02*
X210797856Y-171737676D01*
X210797856Y-171737676D02*
X210893094Y-171832914D01*
X210893094Y-171832914D02*
X210988332Y-171880533D01*
X209797856Y-171594819D02*
X209702618Y-171594819D01*
X209702618Y-171594819D02*
X209607380Y-171642438D01*
X209607380Y-171642438D02*
X209559761Y-171690057D01*
X209559761Y-171690057D02*
X209512142Y-171785295D01*
X209512142Y-171785295D02*
X209464523Y-171975771D01*
X209464523Y-171975771D02*
X209464523Y-172213866D01*
X209464523Y-172213866D02*
X209512142Y-172404342D01*
X209512142Y-172404342D02*
X209559761Y-172499580D01*
X209559761Y-172499580D02*
X209607380Y-172547200D01*
X209607380Y-172547200D02*
X209702618Y-172594819D01*
X209702618Y-172594819D02*
X209797856Y-172594819D01*
X209797856Y-172594819D02*
X209893094Y-172547200D01*
X209893094Y-172547200D02*
X209940713Y-172499580D01*
X209940713Y-172499580D02*
X209988332Y-172404342D01*
X209988332Y-172404342D02*
X210035951Y-172213866D01*
X210035951Y-172213866D02*
X210035951Y-171975771D01*
X210035951Y-171975771D02*
X209988332Y-171785295D01*
X209988332Y-171785295D02*
X209940713Y-171690057D01*
X209940713Y-171690057D02*
X209893094Y-171642438D01*
X209893094Y-171642438D02*
X209797856Y-171594819D01*
X209035951Y-172594819D02*
X209035951Y-171594819D01*
X208464523Y-172594819D02*
X208893094Y-172023390D01*
X208464523Y-171594819D02*
X209035951Y-172166247D01*
X208083570Y-172594819D02*
X207845475Y-172594819D01*
X207845475Y-172594819D02*
X207845475Y-172404342D01*
X207845475Y-172404342D02*
X207940713Y-172356723D01*
X207940713Y-172356723D02*
X208035951Y-172261485D01*
X208035951Y-172261485D02*
X208083570Y-172118628D01*
X208083570Y-172118628D02*
X208083570Y-171880533D01*
X208083570Y-171880533D02*
X208035951Y-171737676D01*
X208035951Y-171737676D02*
X207940713Y-171642438D01*
X207940713Y-171642438D02*
X207797856Y-171594819D01*
X207797856Y-171594819D02*
X207607380Y-171594819D01*
X207607380Y-171594819D02*
X207464523Y-171642438D01*
X207464523Y-171642438D02*
X207369285Y-171737676D01*
X207369285Y-171737676D02*
X207321666Y-171880533D01*
X207321666Y-171880533D02*
X207321666Y-172118628D01*
X207321666Y-172118628D02*
X207369285Y-172261485D01*
X207369285Y-172261485D02*
X207464523Y-172356723D01*
X207464523Y-172356723D02*
X207559761Y-172404342D01*
X207559761Y-172404342D02*
X207559761Y-172594819D01*
X207559761Y-172594819D02*
X207321666Y-172594819D01*
X164064819Y-159463333D02*
X164064819Y-158891905D01*
X164064819Y-159177619D02*
X163064819Y-159177619D01*
X163064819Y-159177619D02*
X163207676Y-159082381D01*
X163207676Y-159082381D02*
X163302914Y-158987143D01*
X163302914Y-158987143D02*
X163350533Y-158891905D01*
X163064819Y-160082381D02*
X163064819Y-160177619D01*
X163064819Y-160177619D02*
X163112438Y-160272857D01*
X163112438Y-160272857D02*
X163160057Y-160320476D01*
X163160057Y-160320476D02*
X163255295Y-160368095D01*
X163255295Y-160368095D02*
X163445771Y-160415714D01*
X163445771Y-160415714D02*
X163683866Y-160415714D01*
X163683866Y-160415714D02*
X163874342Y-160368095D01*
X163874342Y-160368095D02*
X163969580Y-160320476D01*
X163969580Y-160320476D02*
X164017200Y-160272857D01*
X164017200Y-160272857D02*
X164064819Y-160177619D01*
X164064819Y-160177619D02*
X164064819Y-160082381D01*
X164064819Y-160082381D02*
X164017200Y-159987143D01*
X164017200Y-159987143D02*
X163969580Y-159939524D01*
X163969580Y-159939524D02*
X163874342Y-159891905D01*
X163874342Y-159891905D02*
X163683866Y-159844286D01*
X163683866Y-159844286D02*
X163445771Y-159844286D01*
X163445771Y-159844286D02*
X163255295Y-159891905D01*
X163255295Y-159891905D02*
X163160057Y-159939524D01*
X163160057Y-159939524D02*
X163112438Y-159987143D01*
X163112438Y-159987143D02*
X163064819Y-160082381D01*
X163064819Y-161272857D02*
X163064819Y-161082381D01*
X163064819Y-161082381D02*
X163112438Y-160987143D01*
X163112438Y-160987143D02*
X163160057Y-160939524D01*
X163160057Y-160939524D02*
X163302914Y-160844286D01*
X163302914Y-160844286D02*
X163493390Y-160796667D01*
X163493390Y-160796667D02*
X163874342Y-160796667D01*
X163874342Y-160796667D02*
X163969580Y-160844286D01*
X163969580Y-160844286D02*
X164017200Y-160891905D01*
X164017200Y-160891905D02*
X164064819Y-160987143D01*
X164064819Y-160987143D02*
X164064819Y-161177619D01*
X164064819Y-161177619D02*
X164017200Y-161272857D01*
X164017200Y-161272857D02*
X163969580Y-161320476D01*
X163969580Y-161320476D02*
X163874342Y-161368095D01*
X163874342Y-161368095D02*
X163636247Y-161368095D01*
X163636247Y-161368095D02*
X163541009Y-161320476D01*
X163541009Y-161320476D02*
X163493390Y-161272857D01*
X163493390Y-161272857D02*
X163445771Y-161177619D01*
X163445771Y-161177619D02*
X163445771Y-160987143D01*
X163445771Y-160987143D02*
X163493390Y-160891905D01*
X163493390Y-160891905D02*
X163541009Y-160844286D01*
X163541009Y-160844286D02*
X163636247Y-160796667D01*
X171687142Y-158860057D02*
X171639523Y-158812438D01*
X171639523Y-158812438D02*
X171544285Y-158764819D01*
X171544285Y-158764819D02*
X171306190Y-158764819D01*
X171306190Y-158764819D02*
X171210952Y-158812438D01*
X171210952Y-158812438D02*
X171163333Y-158860057D01*
X171163333Y-158860057D02*
X171115714Y-158955295D01*
X171115714Y-158955295D02*
X171115714Y-159050533D01*
X171115714Y-159050533D02*
X171163333Y-159193390D01*
X171163333Y-159193390D02*
X171734761Y-159764819D01*
X171734761Y-159764819D02*
X171115714Y-159764819D01*
X170687142Y-159764819D02*
X170687142Y-158764819D01*
X170115714Y-159764819D02*
X170544285Y-159193390D01*
X170115714Y-158764819D02*
X170687142Y-159336247D01*
X169734761Y-159764819D02*
X169496666Y-159764819D01*
X169496666Y-159764819D02*
X169496666Y-159574342D01*
X169496666Y-159574342D02*
X169591904Y-159526723D01*
X169591904Y-159526723D02*
X169687142Y-159431485D01*
X169687142Y-159431485D02*
X169734761Y-159288628D01*
X169734761Y-159288628D02*
X169734761Y-159050533D01*
X169734761Y-159050533D02*
X169687142Y-158907676D01*
X169687142Y-158907676D02*
X169591904Y-158812438D01*
X169591904Y-158812438D02*
X169449047Y-158764819D01*
X169449047Y-158764819D02*
X169258571Y-158764819D01*
X169258571Y-158764819D02*
X169115714Y-158812438D01*
X169115714Y-158812438D02*
X169020476Y-158907676D01*
X169020476Y-158907676D02*
X168972857Y-159050533D01*
X168972857Y-159050533D02*
X168972857Y-159288628D01*
X168972857Y-159288628D02*
X169020476Y-159431485D01*
X169020476Y-159431485D02*
X169115714Y-159526723D01*
X169115714Y-159526723D02*
X169210952Y-159574342D01*
X169210952Y-159574342D02*
X169210952Y-159764819D01*
X169210952Y-159764819D02*
X168972857Y-159764819D01*
X171616904Y-172594819D02*
X172188332Y-172594819D01*
X171902618Y-172594819D02*
X171902618Y-171594819D01*
X171902618Y-171594819D02*
X171997856Y-171737676D01*
X171997856Y-171737676D02*
X172093094Y-171832914D01*
X172093094Y-171832914D02*
X172188332Y-171880533D01*
X170997856Y-171594819D02*
X170902618Y-171594819D01*
X170902618Y-171594819D02*
X170807380Y-171642438D01*
X170807380Y-171642438D02*
X170759761Y-171690057D01*
X170759761Y-171690057D02*
X170712142Y-171785295D01*
X170712142Y-171785295D02*
X170664523Y-171975771D01*
X170664523Y-171975771D02*
X170664523Y-172213866D01*
X170664523Y-172213866D02*
X170712142Y-172404342D01*
X170712142Y-172404342D02*
X170759761Y-172499580D01*
X170759761Y-172499580D02*
X170807380Y-172547200D01*
X170807380Y-172547200D02*
X170902618Y-172594819D01*
X170902618Y-172594819D02*
X170997856Y-172594819D01*
X170997856Y-172594819D02*
X171093094Y-172547200D01*
X171093094Y-172547200D02*
X171140713Y-172499580D01*
X171140713Y-172499580D02*
X171188332Y-172404342D01*
X171188332Y-172404342D02*
X171235951Y-172213866D01*
X171235951Y-172213866D02*
X171235951Y-171975771D01*
X171235951Y-171975771D02*
X171188332Y-171785295D01*
X171188332Y-171785295D02*
X171140713Y-171690057D01*
X171140713Y-171690057D02*
X171093094Y-171642438D01*
X171093094Y-171642438D02*
X170997856Y-171594819D01*
X170235951Y-172594819D02*
X170235951Y-171594819D01*
X169664523Y-172594819D02*
X170093094Y-172023390D01*
X169664523Y-171594819D02*
X170235951Y-172166247D01*
X169283570Y-172594819D02*
X169045475Y-172594819D01*
X169045475Y-172594819D02*
X169045475Y-172404342D01*
X169045475Y-172404342D02*
X169140713Y-172356723D01*
X169140713Y-172356723D02*
X169235951Y-172261485D01*
X169235951Y-172261485D02*
X169283570Y-172118628D01*
X169283570Y-172118628D02*
X169283570Y-171880533D01*
X169283570Y-171880533D02*
X169235951Y-171737676D01*
X169235951Y-171737676D02*
X169140713Y-171642438D01*
X169140713Y-171642438D02*
X168997856Y-171594819D01*
X168997856Y-171594819D02*
X168807380Y-171594819D01*
X168807380Y-171594819D02*
X168664523Y-171642438D01*
X168664523Y-171642438D02*
X168569285Y-171737676D01*
X168569285Y-171737676D02*
X168521666Y-171880533D01*
X168521666Y-171880533D02*
X168521666Y-172118628D01*
X168521666Y-172118628D02*
X168569285Y-172261485D01*
X168569285Y-172261485D02*
X168664523Y-172356723D01*
X168664523Y-172356723D02*
X168759761Y-172404342D01*
X168759761Y-172404342D02*
X168759761Y-172594819D01*
X168759761Y-172594819D02*
X168521666Y-172594819D01*
X125264819Y-159463333D02*
X125264819Y-158891905D01*
X125264819Y-159177619D02*
X124264819Y-159177619D01*
X124264819Y-159177619D02*
X124407676Y-159082381D01*
X124407676Y-159082381D02*
X124502914Y-158987143D01*
X124502914Y-158987143D02*
X124550533Y-158891905D01*
X124264819Y-160082381D02*
X124264819Y-160177619D01*
X124264819Y-160177619D02*
X124312438Y-160272857D01*
X124312438Y-160272857D02*
X124360057Y-160320476D01*
X124360057Y-160320476D02*
X124455295Y-160368095D01*
X124455295Y-160368095D02*
X124645771Y-160415714D01*
X124645771Y-160415714D02*
X124883866Y-160415714D01*
X124883866Y-160415714D02*
X125074342Y-160368095D01*
X125074342Y-160368095D02*
X125169580Y-160320476D01*
X125169580Y-160320476D02*
X125217200Y-160272857D01*
X125217200Y-160272857D02*
X125264819Y-160177619D01*
X125264819Y-160177619D02*
X125264819Y-160082381D01*
X125264819Y-160082381D02*
X125217200Y-159987143D01*
X125217200Y-159987143D02*
X125169580Y-159939524D01*
X125169580Y-159939524D02*
X125074342Y-159891905D01*
X125074342Y-159891905D02*
X124883866Y-159844286D01*
X124883866Y-159844286D02*
X124645771Y-159844286D01*
X124645771Y-159844286D02*
X124455295Y-159891905D01*
X124455295Y-159891905D02*
X124360057Y-159939524D01*
X124360057Y-159939524D02*
X124312438Y-159987143D01*
X124312438Y-159987143D02*
X124264819Y-160082381D01*
X124264819Y-161272857D02*
X124264819Y-161082381D01*
X124264819Y-161082381D02*
X124312438Y-160987143D01*
X124312438Y-160987143D02*
X124360057Y-160939524D01*
X124360057Y-160939524D02*
X124502914Y-160844286D01*
X124502914Y-160844286D02*
X124693390Y-160796667D01*
X124693390Y-160796667D02*
X125074342Y-160796667D01*
X125074342Y-160796667D02*
X125169580Y-160844286D01*
X125169580Y-160844286D02*
X125217200Y-160891905D01*
X125217200Y-160891905D02*
X125264819Y-160987143D01*
X125264819Y-160987143D02*
X125264819Y-161177619D01*
X125264819Y-161177619D02*
X125217200Y-161272857D01*
X125217200Y-161272857D02*
X125169580Y-161320476D01*
X125169580Y-161320476D02*
X125074342Y-161368095D01*
X125074342Y-161368095D02*
X124836247Y-161368095D01*
X124836247Y-161368095D02*
X124741009Y-161320476D01*
X124741009Y-161320476D02*
X124693390Y-161272857D01*
X124693390Y-161272857D02*
X124645771Y-161177619D01*
X124645771Y-161177619D02*
X124645771Y-160987143D01*
X124645771Y-160987143D02*
X124693390Y-160891905D01*
X124693390Y-160891905D02*
X124741009Y-160844286D01*
X124741009Y-160844286D02*
X124836247Y-160796667D01*
X132887142Y-158860057D02*
X132839523Y-158812438D01*
X132839523Y-158812438D02*
X132744285Y-158764819D01*
X132744285Y-158764819D02*
X132506190Y-158764819D01*
X132506190Y-158764819D02*
X132410952Y-158812438D01*
X132410952Y-158812438D02*
X132363333Y-158860057D01*
X132363333Y-158860057D02*
X132315714Y-158955295D01*
X132315714Y-158955295D02*
X132315714Y-159050533D01*
X132315714Y-159050533D02*
X132363333Y-159193390D01*
X132363333Y-159193390D02*
X132934761Y-159764819D01*
X132934761Y-159764819D02*
X132315714Y-159764819D01*
X131887142Y-159764819D02*
X131887142Y-158764819D01*
X131315714Y-159764819D02*
X131744285Y-159193390D01*
X131315714Y-158764819D02*
X131887142Y-159336247D01*
X130934761Y-159764819D02*
X130696666Y-159764819D01*
X130696666Y-159764819D02*
X130696666Y-159574342D01*
X130696666Y-159574342D02*
X130791904Y-159526723D01*
X130791904Y-159526723D02*
X130887142Y-159431485D01*
X130887142Y-159431485D02*
X130934761Y-159288628D01*
X130934761Y-159288628D02*
X130934761Y-159050533D01*
X130934761Y-159050533D02*
X130887142Y-158907676D01*
X130887142Y-158907676D02*
X130791904Y-158812438D01*
X130791904Y-158812438D02*
X130649047Y-158764819D01*
X130649047Y-158764819D02*
X130458571Y-158764819D01*
X130458571Y-158764819D02*
X130315714Y-158812438D01*
X130315714Y-158812438D02*
X130220476Y-158907676D01*
X130220476Y-158907676D02*
X130172857Y-159050533D01*
X130172857Y-159050533D02*
X130172857Y-159288628D01*
X130172857Y-159288628D02*
X130220476Y-159431485D01*
X130220476Y-159431485D02*
X130315714Y-159526723D01*
X130315714Y-159526723D02*
X130410952Y-159574342D01*
X130410952Y-159574342D02*
X130410952Y-159764819D01*
X130410952Y-159764819D02*
X130172857Y-159764819D01*
X132816904Y-172594819D02*
X133388332Y-172594819D01*
X133102618Y-172594819D02*
X133102618Y-171594819D01*
X133102618Y-171594819D02*
X133197856Y-171737676D01*
X133197856Y-171737676D02*
X133293094Y-171832914D01*
X133293094Y-171832914D02*
X133388332Y-171880533D01*
X132197856Y-171594819D02*
X132102618Y-171594819D01*
X132102618Y-171594819D02*
X132007380Y-171642438D01*
X132007380Y-171642438D02*
X131959761Y-171690057D01*
X131959761Y-171690057D02*
X131912142Y-171785295D01*
X131912142Y-171785295D02*
X131864523Y-171975771D01*
X131864523Y-171975771D02*
X131864523Y-172213866D01*
X131864523Y-172213866D02*
X131912142Y-172404342D01*
X131912142Y-172404342D02*
X131959761Y-172499580D01*
X131959761Y-172499580D02*
X132007380Y-172547200D01*
X132007380Y-172547200D02*
X132102618Y-172594819D01*
X132102618Y-172594819D02*
X132197856Y-172594819D01*
X132197856Y-172594819D02*
X132293094Y-172547200D01*
X132293094Y-172547200D02*
X132340713Y-172499580D01*
X132340713Y-172499580D02*
X132388332Y-172404342D01*
X132388332Y-172404342D02*
X132435951Y-172213866D01*
X132435951Y-172213866D02*
X132435951Y-171975771D01*
X132435951Y-171975771D02*
X132388332Y-171785295D01*
X132388332Y-171785295D02*
X132340713Y-171690057D01*
X132340713Y-171690057D02*
X132293094Y-171642438D01*
X132293094Y-171642438D02*
X132197856Y-171594819D01*
X131435951Y-172594819D02*
X131435951Y-171594819D01*
X130864523Y-172594819D02*
X131293094Y-172023390D01*
X130864523Y-171594819D02*
X131435951Y-172166247D01*
X130483570Y-172594819D02*
X130245475Y-172594819D01*
X130245475Y-172594819D02*
X130245475Y-172404342D01*
X130245475Y-172404342D02*
X130340713Y-172356723D01*
X130340713Y-172356723D02*
X130435951Y-172261485D01*
X130435951Y-172261485D02*
X130483570Y-172118628D01*
X130483570Y-172118628D02*
X130483570Y-171880533D01*
X130483570Y-171880533D02*
X130435951Y-171737676D01*
X130435951Y-171737676D02*
X130340713Y-171642438D01*
X130340713Y-171642438D02*
X130197856Y-171594819D01*
X130197856Y-171594819D02*
X130007380Y-171594819D01*
X130007380Y-171594819D02*
X129864523Y-171642438D01*
X129864523Y-171642438D02*
X129769285Y-171737676D01*
X129769285Y-171737676D02*
X129721666Y-171880533D01*
X129721666Y-171880533D02*
X129721666Y-172118628D01*
X129721666Y-172118628D02*
X129769285Y-172261485D01*
X129769285Y-172261485D02*
X129864523Y-172356723D01*
X129864523Y-172356723D02*
X129959761Y-172404342D01*
X129959761Y-172404342D02*
X129959761Y-172594819D01*
X129959761Y-172594819D02*
X129721666Y-172594819D01*
X86464819Y-159463333D02*
X86464819Y-158891905D01*
X86464819Y-159177619D02*
X85464819Y-159177619D01*
X85464819Y-159177619D02*
X85607676Y-159082381D01*
X85607676Y-159082381D02*
X85702914Y-158987143D01*
X85702914Y-158987143D02*
X85750533Y-158891905D01*
X85464819Y-160082381D02*
X85464819Y-160177619D01*
X85464819Y-160177619D02*
X85512438Y-160272857D01*
X85512438Y-160272857D02*
X85560057Y-160320476D01*
X85560057Y-160320476D02*
X85655295Y-160368095D01*
X85655295Y-160368095D02*
X85845771Y-160415714D01*
X85845771Y-160415714D02*
X86083866Y-160415714D01*
X86083866Y-160415714D02*
X86274342Y-160368095D01*
X86274342Y-160368095D02*
X86369580Y-160320476D01*
X86369580Y-160320476D02*
X86417200Y-160272857D01*
X86417200Y-160272857D02*
X86464819Y-160177619D01*
X86464819Y-160177619D02*
X86464819Y-160082381D01*
X86464819Y-160082381D02*
X86417200Y-159987143D01*
X86417200Y-159987143D02*
X86369580Y-159939524D01*
X86369580Y-159939524D02*
X86274342Y-159891905D01*
X86274342Y-159891905D02*
X86083866Y-159844286D01*
X86083866Y-159844286D02*
X85845771Y-159844286D01*
X85845771Y-159844286D02*
X85655295Y-159891905D01*
X85655295Y-159891905D02*
X85560057Y-159939524D01*
X85560057Y-159939524D02*
X85512438Y-159987143D01*
X85512438Y-159987143D02*
X85464819Y-160082381D01*
X85464819Y-161272857D02*
X85464819Y-161082381D01*
X85464819Y-161082381D02*
X85512438Y-160987143D01*
X85512438Y-160987143D02*
X85560057Y-160939524D01*
X85560057Y-160939524D02*
X85702914Y-160844286D01*
X85702914Y-160844286D02*
X85893390Y-160796667D01*
X85893390Y-160796667D02*
X86274342Y-160796667D01*
X86274342Y-160796667D02*
X86369580Y-160844286D01*
X86369580Y-160844286D02*
X86417200Y-160891905D01*
X86417200Y-160891905D02*
X86464819Y-160987143D01*
X86464819Y-160987143D02*
X86464819Y-161177619D01*
X86464819Y-161177619D02*
X86417200Y-161272857D01*
X86417200Y-161272857D02*
X86369580Y-161320476D01*
X86369580Y-161320476D02*
X86274342Y-161368095D01*
X86274342Y-161368095D02*
X86036247Y-161368095D01*
X86036247Y-161368095D02*
X85941009Y-161320476D01*
X85941009Y-161320476D02*
X85893390Y-161272857D01*
X85893390Y-161272857D02*
X85845771Y-161177619D01*
X85845771Y-161177619D02*
X85845771Y-160987143D01*
X85845771Y-160987143D02*
X85893390Y-160891905D01*
X85893390Y-160891905D02*
X85941009Y-160844286D01*
X85941009Y-160844286D02*
X86036247Y-160796667D01*
X94087142Y-158860057D02*
X94039523Y-158812438D01*
X94039523Y-158812438D02*
X93944285Y-158764819D01*
X93944285Y-158764819D02*
X93706190Y-158764819D01*
X93706190Y-158764819D02*
X93610952Y-158812438D01*
X93610952Y-158812438D02*
X93563333Y-158860057D01*
X93563333Y-158860057D02*
X93515714Y-158955295D01*
X93515714Y-158955295D02*
X93515714Y-159050533D01*
X93515714Y-159050533D02*
X93563333Y-159193390D01*
X93563333Y-159193390D02*
X94134761Y-159764819D01*
X94134761Y-159764819D02*
X93515714Y-159764819D01*
X93087142Y-159764819D02*
X93087142Y-158764819D01*
X92515714Y-159764819D02*
X92944285Y-159193390D01*
X92515714Y-158764819D02*
X93087142Y-159336247D01*
X92134761Y-159764819D02*
X91896666Y-159764819D01*
X91896666Y-159764819D02*
X91896666Y-159574342D01*
X91896666Y-159574342D02*
X91991904Y-159526723D01*
X91991904Y-159526723D02*
X92087142Y-159431485D01*
X92087142Y-159431485D02*
X92134761Y-159288628D01*
X92134761Y-159288628D02*
X92134761Y-159050533D01*
X92134761Y-159050533D02*
X92087142Y-158907676D01*
X92087142Y-158907676D02*
X91991904Y-158812438D01*
X91991904Y-158812438D02*
X91849047Y-158764819D01*
X91849047Y-158764819D02*
X91658571Y-158764819D01*
X91658571Y-158764819D02*
X91515714Y-158812438D01*
X91515714Y-158812438D02*
X91420476Y-158907676D01*
X91420476Y-158907676D02*
X91372857Y-159050533D01*
X91372857Y-159050533D02*
X91372857Y-159288628D01*
X91372857Y-159288628D02*
X91420476Y-159431485D01*
X91420476Y-159431485D02*
X91515714Y-159526723D01*
X91515714Y-159526723D02*
X91610952Y-159574342D01*
X91610952Y-159574342D02*
X91610952Y-159764819D01*
X91610952Y-159764819D02*
X91372857Y-159764819D01*
X94016904Y-172594819D02*
X94588332Y-172594819D01*
X94302618Y-172594819D02*
X94302618Y-171594819D01*
X94302618Y-171594819D02*
X94397856Y-171737676D01*
X94397856Y-171737676D02*
X94493094Y-171832914D01*
X94493094Y-171832914D02*
X94588332Y-171880533D01*
X93397856Y-171594819D02*
X93302618Y-171594819D01*
X93302618Y-171594819D02*
X93207380Y-171642438D01*
X93207380Y-171642438D02*
X93159761Y-171690057D01*
X93159761Y-171690057D02*
X93112142Y-171785295D01*
X93112142Y-171785295D02*
X93064523Y-171975771D01*
X93064523Y-171975771D02*
X93064523Y-172213866D01*
X93064523Y-172213866D02*
X93112142Y-172404342D01*
X93112142Y-172404342D02*
X93159761Y-172499580D01*
X93159761Y-172499580D02*
X93207380Y-172547200D01*
X93207380Y-172547200D02*
X93302618Y-172594819D01*
X93302618Y-172594819D02*
X93397856Y-172594819D01*
X93397856Y-172594819D02*
X93493094Y-172547200D01*
X93493094Y-172547200D02*
X93540713Y-172499580D01*
X93540713Y-172499580D02*
X93588332Y-172404342D01*
X93588332Y-172404342D02*
X93635951Y-172213866D01*
X93635951Y-172213866D02*
X93635951Y-171975771D01*
X93635951Y-171975771D02*
X93588332Y-171785295D01*
X93588332Y-171785295D02*
X93540713Y-171690057D01*
X93540713Y-171690057D02*
X93493094Y-171642438D01*
X93493094Y-171642438D02*
X93397856Y-171594819D01*
X92635951Y-172594819D02*
X92635951Y-171594819D01*
X92064523Y-172594819D02*
X92493094Y-172023390D01*
X92064523Y-171594819D02*
X92635951Y-172166247D01*
X91683570Y-172594819D02*
X91445475Y-172594819D01*
X91445475Y-172594819D02*
X91445475Y-172404342D01*
X91445475Y-172404342D02*
X91540713Y-172356723D01*
X91540713Y-172356723D02*
X91635951Y-172261485D01*
X91635951Y-172261485D02*
X91683570Y-172118628D01*
X91683570Y-172118628D02*
X91683570Y-171880533D01*
X91683570Y-171880533D02*
X91635951Y-171737676D01*
X91635951Y-171737676D02*
X91540713Y-171642438D01*
X91540713Y-171642438D02*
X91397856Y-171594819D01*
X91397856Y-171594819D02*
X91207380Y-171594819D01*
X91207380Y-171594819D02*
X91064523Y-171642438D01*
X91064523Y-171642438D02*
X90969285Y-171737676D01*
X90969285Y-171737676D02*
X90921666Y-171880533D01*
X90921666Y-171880533D02*
X90921666Y-172118628D01*
X90921666Y-172118628D02*
X90969285Y-172261485D01*
X90969285Y-172261485D02*
X91064523Y-172356723D01*
X91064523Y-172356723D02*
X91159761Y-172404342D01*
X91159761Y-172404342D02*
X91159761Y-172594819D01*
X91159761Y-172594819D02*
X90921666Y-172594819D01*
X47664819Y-159463333D02*
X47664819Y-158891905D01*
X47664819Y-159177619D02*
X46664819Y-159177619D01*
X46664819Y-159177619D02*
X46807676Y-159082381D01*
X46807676Y-159082381D02*
X46902914Y-158987143D01*
X46902914Y-158987143D02*
X46950533Y-158891905D01*
X46664819Y-160082381D02*
X46664819Y-160177619D01*
X46664819Y-160177619D02*
X46712438Y-160272857D01*
X46712438Y-160272857D02*
X46760057Y-160320476D01*
X46760057Y-160320476D02*
X46855295Y-160368095D01*
X46855295Y-160368095D02*
X47045771Y-160415714D01*
X47045771Y-160415714D02*
X47283866Y-160415714D01*
X47283866Y-160415714D02*
X47474342Y-160368095D01*
X47474342Y-160368095D02*
X47569580Y-160320476D01*
X47569580Y-160320476D02*
X47617200Y-160272857D01*
X47617200Y-160272857D02*
X47664819Y-160177619D01*
X47664819Y-160177619D02*
X47664819Y-160082381D01*
X47664819Y-160082381D02*
X47617200Y-159987143D01*
X47617200Y-159987143D02*
X47569580Y-159939524D01*
X47569580Y-159939524D02*
X47474342Y-159891905D01*
X47474342Y-159891905D02*
X47283866Y-159844286D01*
X47283866Y-159844286D02*
X47045771Y-159844286D01*
X47045771Y-159844286D02*
X46855295Y-159891905D01*
X46855295Y-159891905D02*
X46760057Y-159939524D01*
X46760057Y-159939524D02*
X46712438Y-159987143D01*
X46712438Y-159987143D02*
X46664819Y-160082381D01*
X46664819Y-161272857D02*
X46664819Y-161082381D01*
X46664819Y-161082381D02*
X46712438Y-160987143D01*
X46712438Y-160987143D02*
X46760057Y-160939524D01*
X46760057Y-160939524D02*
X46902914Y-160844286D01*
X46902914Y-160844286D02*
X47093390Y-160796667D01*
X47093390Y-160796667D02*
X47474342Y-160796667D01*
X47474342Y-160796667D02*
X47569580Y-160844286D01*
X47569580Y-160844286D02*
X47617200Y-160891905D01*
X47617200Y-160891905D02*
X47664819Y-160987143D01*
X47664819Y-160987143D02*
X47664819Y-161177619D01*
X47664819Y-161177619D02*
X47617200Y-161272857D01*
X47617200Y-161272857D02*
X47569580Y-161320476D01*
X47569580Y-161320476D02*
X47474342Y-161368095D01*
X47474342Y-161368095D02*
X47236247Y-161368095D01*
X47236247Y-161368095D02*
X47141009Y-161320476D01*
X47141009Y-161320476D02*
X47093390Y-161272857D01*
X47093390Y-161272857D02*
X47045771Y-161177619D01*
X47045771Y-161177619D02*
X47045771Y-160987143D01*
X47045771Y-160987143D02*
X47093390Y-160891905D01*
X47093390Y-160891905D02*
X47141009Y-160844286D01*
X47141009Y-160844286D02*
X47236247Y-160796667D01*
X55287142Y-158860057D02*
X55239523Y-158812438D01*
X55239523Y-158812438D02*
X55144285Y-158764819D01*
X55144285Y-158764819D02*
X54906190Y-158764819D01*
X54906190Y-158764819D02*
X54810952Y-158812438D01*
X54810952Y-158812438D02*
X54763333Y-158860057D01*
X54763333Y-158860057D02*
X54715714Y-158955295D01*
X54715714Y-158955295D02*
X54715714Y-159050533D01*
X54715714Y-159050533D02*
X54763333Y-159193390D01*
X54763333Y-159193390D02*
X55334761Y-159764819D01*
X55334761Y-159764819D02*
X54715714Y-159764819D01*
X54287142Y-159764819D02*
X54287142Y-158764819D01*
X53715714Y-159764819D02*
X54144285Y-159193390D01*
X53715714Y-158764819D02*
X54287142Y-159336247D01*
X53334761Y-159764819D02*
X53096666Y-159764819D01*
X53096666Y-159764819D02*
X53096666Y-159574342D01*
X53096666Y-159574342D02*
X53191904Y-159526723D01*
X53191904Y-159526723D02*
X53287142Y-159431485D01*
X53287142Y-159431485D02*
X53334761Y-159288628D01*
X53334761Y-159288628D02*
X53334761Y-159050533D01*
X53334761Y-159050533D02*
X53287142Y-158907676D01*
X53287142Y-158907676D02*
X53191904Y-158812438D01*
X53191904Y-158812438D02*
X53049047Y-158764819D01*
X53049047Y-158764819D02*
X52858571Y-158764819D01*
X52858571Y-158764819D02*
X52715714Y-158812438D01*
X52715714Y-158812438D02*
X52620476Y-158907676D01*
X52620476Y-158907676D02*
X52572857Y-159050533D01*
X52572857Y-159050533D02*
X52572857Y-159288628D01*
X52572857Y-159288628D02*
X52620476Y-159431485D01*
X52620476Y-159431485D02*
X52715714Y-159526723D01*
X52715714Y-159526723D02*
X52810952Y-159574342D01*
X52810952Y-159574342D02*
X52810952Y-159764819D01*
X52810952Y-159764819D02*
X52572857Y-159764819D01*
X55216904Y-172594819D02*
X55788332Y-172594819D01*
X55502618Y-172594819D02*
X55502618Y-171594819D01*
X55502618Y-171594819D02*
X55597856Y-171737676D01*
X55597856Y-171737676D02*
X55693094Y-171832914D01*
X55693094Y-171832914D02*
X55788332Y-171880533D01*
X54597856Y-171594819D02*
X54502618Y-171594819D01*
X54502618Y-171594819D02*
X54407380Y-171642438D01*
X54407380Y-171642438D02*
X54359761Y-171690057D01*
X54359761Y-171690057D02*
X54312142Y-171785295D01*
X54312142Y-171785295D02*
X54264523Y-171975771D01*
X54264523Y-171975771D02*
X54264523Y-172213866D01*
X54264523Y-172213866D02*
X54312142Y-172404342D01*
X54312142Y-172404342D02*
X54359761Y-172499580D01*
X54359761Y-172499580D02*
X54407380Y-172547200D01*
X54407380Y-172547200D02*
X54502618Y-172594819D01*
X54502618Y-172594819D02*
X54597856Y-172594819D01*
X54597856Y-172594819D02*
X54693094Y-172547200D01*
X54693094Y-172547200D02*
X54740713Y-172499580D01*
X54740713Y-172499580D02*
X54788332Y-172404342D01*
X54788332Y-172404342D02*
X54835951Y-172213866D01*
X54835951Y-172213866D02*
X54835951Y-171975771D01*
X54835951Y-171975771D02*
X54788332Y-171785295D01*
X54788332Y-171785295D02*
X54740713Y-171690057D01*
X54740713Y-171690057D02*
X54693094Y-171642438D01*
X54693094Y-171642438D02*
X54597856Y-171594819D01*
X53835951Y-172594819D02*
X53835951Y-171594819D01*
X53264523Y-172594819D02*
X53693094Y-172023390D01*
X53264523Y-171594819D02*
X53835951Y-172166247D01*
X52883570Y-172594819D02*
X52645475Y-172594819D01*
X52645475Y-172594819D02*
X52645475Y-172404342D01*
X52645475Y-172404342D02*
X52740713Y-172356723D01*
X52740713Y-172356723D02*
X52835951Y-172261485D01*
X52835951Y-172261485D02*
X52883570Y-172118628D01*
X52883570Y-172118628D02*
X52883570Y-171880533D01*
X52883570Y-171880533D02*
X52835951Y-171737676D01*
X52835951Y-171737676D02*
X52740713Y-171642438D01*
X52740713Y-171642438D02*
X52597856Y-171594819D01*
X52597856Y-171594819D02*
X52407380Y-171594819D01*
X52407380Y-171594819D02*
X52264523Y-171642438D01*
X52264523Y-171642438D02*
X52169285Y-171737676D01*
X52169285Y-171737676D02*
X52121666Y-171880533D01*
X52121666Y-171880533D02*
X52121666Y-172118628D01*
X52121666Y-172118628D02*
X52169285Y-172261485D01*
X52169285Y-172261485D02*
X52264523Y-172356723D01*
X52264523Y-172356723D02*
X52359761Y-172404342D01*
X52359761Y-172404342D02*
X52359761Y-172594819D01*
X52359761Y-172594819D02*
X52121666Y-172594819D01*
X202864819Y-115013333D02*
X202864819Y-114441905D01*
X202864819Y-114727619D02*
X201864819Y-114727619D01*
X201864819Y-114727619D02*
X202007676Y-114632381D01*
X202007676Y-114632381D02*
X202102914Y-114537143D01*
X202102914Y-114537143D02*
X202150533Y-114441905D01*
X201864819Y-115632381D02*
X201864819Y-115727619D01*
X201864819Y-115727619D02*
X201912438Y-115822857D01*
X201912438Y-115822857D02*
X201960057Y-115870476D01*
X201960057Y-115870476D02*
X202055295Y-115918095D01*
X202055295Y-115918095D02*
X202245771Y-115965714D01*
X202245771Y-115965714D02*
X202483866Y-115965714D01*
X202483866Y-115965714D02*
X202674342Y-115918095D01*
X202674342Y-115918095D02*
X202769580Y-115870476D01*
X202769580Y-115870476D02*
X202817200Y-115822857D01*
X202817200Y-115822857D02*
X202864819Y-115727619D01*
X202864819Y-115727619D02*
X202864819Y-115632381D01*
X202864819Y-115632381D02*
X202817200Y-115537143D01*
X202817200Y-115537143D02*
X202769580Y-115489524D01*
X202769580Y-115489524D02*
X202674342Y-115441905D01*
X202674342Y-115441905D02*
X202483866Y-115394286D01*
X202483866Y-115394286D02*
X202245771Y-115394286D01*
X202245771Y-115394286D02*
X202055295Y-115441905D01*
X202055295Y-115441905D02*
X201960057Y-115489524D01*
X201960057Y-115489524D02*
X201912438Y-115537143D01*
X201912438Y-115537143D02*
X201864819Y-115632381D01*
X201864819Y-116822857D02*
X201864819Y-116632381D01*
X201864819Y-116632381D02*
X201912438Y-116537143D01*
X201912438Y-116537143D02*
X201960057Y-116489524D01*
X201960057Y-116489524D02*
X202102914Y-116394286D01*
X202102914Y-116394286D02*
X202293390Y-116346667D01*
X202293390Y-116346667D02*
X202674342Y-116346667D01*
X202674342Y-116346667D02*
X202769580Y-116394286D01*
X202769580Y-116394286D02*
X202817200Y-116441905D01*
X202817200Y-116441905D02*
X202864819Y-116537143D01*
X202864819Y-116537143D02*
X202864819Y-116727619D01*
X202864819Y-116727619D02*
X202817200Y-116822857D01*
X202817200Y-116822857D02*
X202769580Y-116870476D01*
X202769580Y-116870476D02*
X202674342Y-116918095D01*
X202674342Y-116918095D02*
X202436247Y-116918095D01*
X202436247Y-116918095D02*
X202341009Y-116870476D01*
X202341009Y-116870476D02*
X202293390Y-116822857D01*
X202293390Y-116822857D02*
X202245771Y-116727619D01*
X202245771Y-116727619D02*
X202245771Y-116537143D01*
X202245771Y-116537143D02*
X202293390Y-116441905D01*
X202293390Y-116441905D02*
X202341009Y-116394286D01*
X202341009Y-116394286D02*
X202436247Y-116346667D01*
X210487142Y-114410057D02*
X210439523Y-114362438D01*
X210439523Y-114362438D02*
X210344285Y-114314819D01*
X210344285Y-114314819D02*
X210106190Y-114314819D01*
X210106190Y-114314819D02*
X210010952Y-114362438D01*
X210010952Y-114362438D02*
X209963333Y-114410057D01*
X209963333Y-114410057D02*
X209915714Y-114505295D01*
X209915714Y-114505295D02*
X209915714Y-114600533D01*
X209915714Y-114600533D02*
X209963333Y-114743390D01*
X209963333Y-114743390D02*
X210534761Y-115314819D01*
X210534761Y-115314819D02*
X209915714Y-115314819D01*
X209487142Y-115314819D02*
X209487142Y-114314819D01*
X208915714Y-115314819D02*
X209344285Y-114743390D01*
X208915714Y-114314819D02*
X209487142Y-114886247D01*
X208534761Y-115314819D02*
X208296666Y-115314819D01*
X208296666Y-115314819D02*
X208296666Y-115124342D01*
X208296666Y-115124342D02*
X208391904Y-115076723D01*
X208391904Y-115076723D02*
X208487142Y-114981485D01*
X208487142Y-114981485D02*
X208534761Y-114838628D01*
X208534761Y-114838628D02*
X208534761Y-114600533D01*
X208534761Y-114600533D02*
X208487142Y-114457676D01*
X208487142Y-114457676D02*
X208391904Y-114362438D01*
X208391904Y-114362438D02*
X208249047Y-114314819D01*
X208249047Y-114314819D02*
X208058571Y-114314819D01*
X208058571Y-114314819D02*
X207915714Y-114362438D01*
X207915714Y-114362438D02*
X207820476Y-114457676D01*
X207820476Y-114457676D02*
X207772857Y-114600533D01*
X207772857Y-114600533D02*
X207772857Y-114838628D01*
X207772857Y-114838628D02*
X207820476Y-114981485D01*
X207820476Y-114981485D02*
X207915714Y-115076723D01*
X207915714Y-115076723D02*
X208010952Y-115124342D01*
X208010952Y-115124342D02*
X208010952Y-115314819D01*
X208010952Y-115314819D02*
X207772857Y-115314819D01*
X210416904Y-128144819D02*
X210988332Y-128144819D01*
X210702618Y-128144819D02*
X210702618Y-127144819D01*
X210702618Y-127144819D02*
X210797856Y-127287676D01*
X210797856Y-127287676D02*
X210893094Y-127382914D01*
X210893094Y-127382914D02*
X210988332Y-127430533D01*
X209797856Y-127144819D02*
X209702618Y-127144819D01*
X209702618Y-127144819D02*
X209607380Y-127192438D01*
X209607380Y-127192438D02*
X209559761Y-127240057D01*
X209559761Y-127240057D02*
X209512142Y-127335295D01*
X209512142Y-127335295D02*
X209464523Y-127525771D01*
X209464523Y-127525771D02*
X209464523Y-127763866D01*
X209464523Y-127763866D02*
X209512142Y-127954342D01*
X209512142Y-127954342D02*
X209559761Y-128049580D01*
X209559761Y-128049580D02*
X209607380Y-128097200D01*
X209607380Y-128097200D02*
X209702618Y-128144819D01*
X209702618Y-128144819D02*
X209797856Y-128144819D01*
X209797856Y-128144819D02*
X209893094Y-128097200D01*
X209893094Y-128097200D02*
X209940713Y-128049580D01*
X209940713Y-128049580D02*
X209988332Y-127954342D01*
X209988332Y-127954342D02*
X210035951Y-127763866D01*
X210035951Y-127763866D02*
X210035951Y-127525771D01*
X210035951Y-127525771D02*
X209988332Y-127335295D01*
X209988332Y-127335295D02*
X209940713Y-127240057D01*
X209940713Y-127240057D02*
X209893094Y-127192438D01*
X209893094Y-127192438D02*
X209797856Y-127144819D01*
X209035951Y-128144819D02*
X209035951Y-127144819D01*
X208464523Y-128144819D02*
X208893094Y-127573390D01*
X208464523Y-127144819D02*
X209035951Y-127716247D01*
X208083570Y-128144819D02*
X207845475Y-128144819D01*
X207845475Y-128144819D02*
X207845475Y-127954342D01*
X207845475Y-127954342D02*
X207940713Y-127906723D01*
X207940713Y-127906723D02*
X208035951Y-127811485D01*
X208035951Y-127811485D02*
X208083570Y-127668628D01*
X208083570Y-127668628D02*
X208083570Y-127430533D01*
X208083570Y-127430533D02*
X208035951Y-127287676D01*
X208035951Y-127287676D02*
X207940713Y-127192438D01*
X207940713Y-127192438D02*
X207797856Y-127144819D01*
X207797856Y-127144819D02*
X207607380Y-127144819D01*
X207607380Y-127144819D02*
X207464523Y-127192438D01*
X207464523Y-127192438D02*
X207369285Y-127287676D01*
X207369285Y-127287676D02*
X207321666Y-127430533D01*
X207321666Y-127430533D02*
X207321666Y-127668628D01*
X207321666Y-127668628D02*
X207369285Y-127811485D01*
X207369285Y-127811485D02*
X207464523Y-127906723D01*
X207464523Y-127906723D02*
X207559761Y-127954342D01*
X207559761Y-127954342D02*
X207559761Y-128144819D01*
X207559761Y-128144819D02*
X207321666Y-128144819D01*
X164064819Y-115013333D02*
X164064819Y-114441905D01*
X164064819Y-114727619D02*
X163064819Y-114727619D01*
X163064819Y-114727619D02*
X163207676Y-114632381D01*
X163207676Y-114632381D02*
X163302914Y-114537143D01*
X163302914Y-114537143D02*
X163350533Y-114441905D01*
X163064819Y-115632381D02*
X163064819Y-115727619D01*
X163064819Y-115727619D02*
X163112438Y-115822857D01*
X163112438Y-115822857D02*
X163160057Y-115870476D01*
X163160057Y-115870476D02*
X163255295Y-115918095D01*
X163255295Y-115918095D02*
X163445771Y-115965714D01*
X163445771Y-115965714D02*
X163683866Y-115965714D01*
X163683866Y-115965714D02*
X163874342Y-115918095D01*
X163874342Y-115918095D02*
X163969580Y-115870476D01*
X163969580Y-115870476D02*
X164017200Y-115822857D01*
X164017200Y-115822857D02*
X164064819Y-115727619D01*
X164064819Y-115727619D02*
X164064819Y-115632381D01*
X164064819Y-115632381D02*
X164017200Y-115537143D01*
X164017200Y-115537143D02*
X163969580Y-115489524D01*
X163969580Y-115489524D02*
X163874342Y-115441905D01*
X163874342Y-115441905D02*
X163683866Y-115394286D01*
X163683866Y-115394286D02*
X163445771Y-115394286D01*
X163445771Y-115394286D02*
X163255295Y-115441905D01*
X163255295Y-115441905D02*
X163160057Y-115489524D01*
X163160057Y-115489524D02*
X163112438Y-115537143D01*
X163112438Y-115537143D02*
X163064819Y-115632381D01*
X163064819Y-116822857D02*
X163064819Y-116632381D01*
X163064819Y-116632381D02*
X163112438Y-116537143D01*
X163112438Y-116537143D02*
X163160057Y-116489524D01*
X163160057Y-116489524D02*
X163302914Y-116394286D01*
X163302914Y-116394286D02*
X163493390Y-116346667D01*
X163493390Y-116346667D02*
X163874342Y-116346667D01*
X163874342Y-116346667D02*
X163969580Y-116394286D01*
X163969580Y-116394286D02*
X164017200Y-116441905D01*
X164017200Y-116441905D02*
X164064819Y-116537143D01*
X164064819Y-116537143D02*
X164064819Y-116727619D01*
X164064819Y-116727619D02*
X164017200Y-116822857D01*
X164017200Y-116822857D02*
X163969580Y-116870476D01*
X163969580Y-116870476D02*
X163874342Y-116918095D01*
X163874342Y-116918095D02*
X163636247Y-116918095D01*
X163636247Y-116918095D02*
X163541009Y-116870476D01*
X163541009Y-116870476D02*
X163493390Y-116822857D01*
X163493390Y-116822857D02*
X163445771Y-116727619D01*
X163445771Y-116727619D02*
X163445771Y-116537143D01*
X163445771Y-116537143D02*
X163493390Y-116441905D01*
X163493390Y-116441905D02*
X163541009Y-116394286D01*
X163541009Y-116394286D02*
X163636247Y-116346667D01*
X171687142Y-114410057D02*
X171639523Y-114362438D01*
X171639523Y-114362438D02*
X171544285Y-114314819D01*
X171544285Y-114314819D02*
X171306190Y-114314819D01*
X171306190Y-114314819D02*
X171210952Y-114362438D01*
X171210952Y-114362438D02*
X171163333Y-114410057D01*
X171163333Y-114410057D02*
X171115714Y-114505295D01*
X171115714Y-114505295D02*
X171115714Y-114600533D01*
X171115714Y-114600533D02*
X171163333Y-114743390D01*
X171163333Y-114743390D02*
X171734761Y-115314819D01*
X171734761Y-115314819D02*
X171115714Y-115314819D01*
X170687142Y-115314819D02*
X170687142Y-114314819D01*
X170115714Y-115314819D02*
X170544285Y-114743390D01*
X170115714Y-114314819D02*
X170687142Y-114886247D01*
X169734761Y-115314819D02*
X169496666Y-115314819D01*
X169496666Y-115314819D02*
X169496666Y-115124342D01*
X169496666Y-115124342D02*
X169591904Y-115076723D01*
X169591904Y-115076723D02*
X169687142Y-114981485D01*
X169687142Y-114981485D02*
X169734761Y-114838628D01*
X169734761Y-114838628D02*
X169734761Y-114600533D01*
X169734761Y-114600533D02*
X169687142Y-114457676D01*
X169687142Y-114457676D02*
X169591904Y-114362438D01*
X169591904Y-114362438D02*
X169449047Y-114314819D01*
X169449047Y-114314819D02*
X169258571Y-114314819D01*
X169258571Y-114314819D02*
X169115714Y-114362438D01*
X169115714Y-114362438D02*
X169020476Y-114457676D01*
X169020476Y-114457676D02*
X168972857Y-114600533D01*
X168972857Y-114600533D02*
X168972857Y-114838628D01*
X168972857Y-114838628D02*
X169020476Y-114981485D01*
X169020476Y-114981485D02*
X169115714Y-115076723D01*
X169115714Y-115076723D02*
X169210952Y-115124342D01*
X169210952Y-115124342D02*
X169210952Y-115314819D01*
X169210952Y-115314819D02*
X168972857Y-115314819D01*
X171616904Y-128144819D02*
X172188332Y-128144819D01*
X171902618Y-128144819D02*
X171902618Y-127144819D01*
X171902618Y-127144819D02*
X171997856Y-127287676D01*
X171997856Y-127287676D02*
X172093094Y-127382914D01*
X172093094Y-127382914D02*
X172188332Y-127430533D01*
X170997856Y-127144819D02*
X170902618Y-127144819D01*
X170902618Y-127144819D02*
X170807380Y-127192438D01*
X170807380Y-127192438D02*
X170759761Y-127240057D01*
X170759761Y-127240057D02*
X170712142Y-127335295D01*
X170712142Y-127335295D02*
X170664523Y-127525771D01*
X170664523Y-127525771D02*
X170664523Y-127763866D01*
X170664523Y-127763866D02*
X170712142Y-127954342D01*
X170712142Y-127954342D02*
X170759761Y-128049580D01*
X170759761Y-128049580D02*
X170807380Y-128097200D01*
X170807380Y-128097200D02*
X170902618Y-128144819D01*
X170902618Y-128144819D02*
X170997856Y-128144819D01*
X170997856Y-128144819D02*
X171093094Y-128097200D01*
X171093094Y-128097200D02*
X171140713Y-128049580D01*
X171140713Y-128049580D02*
X171188332Y-127954342D01*
X171188332Y-127954342D02*
X171235951Y-127763866D01*
X171235951Y-127763866D02*
X171235951Y-127525771D01*
X171235951Y-127525771D02*
X171188332Y-127335295D01*
X171188332Y-127335295D02*
X171140713Y-127240057D01*
X171140713Y-127240057D02*
X171093094Y-127192438D01*
X171093094Y-127192438D02*
X170997856Y-127144819D01*
X170235951Y-128144819D02*
X170235951Y-127144819D01*
X169664523Y-128144819D02*
X170093094Y-127573390D01*
X169664523Y-127144819D02*
X170235951Y-127716247D01*
X169283570Y-128144819D02*
X169045475Y-128144819D01*
X169045475Y-128144819D02*
X169045475Y-127954342D01*
X169045475Y-127954342D02*
X169140713Y-127906723D01*
X169140713Y-127906723D02*
X169235951Y-127811485D01*
X169235951Y-127811485D02*
X169283570Y-127668628D01*
X169283570Y-127668628D02*
X169283570Y-127430533D01*
X169283570Y-127430533D02*
X169235951Y-127287676D01*
X169235951Y-127287676D02*
X169140713Y-127192438D01*
X169140713Y-127192438D02*
X168997856Y-127144819D01*
X168997856Y-127144819D02*
X168807380Y-127144819D01*
X168807380Y-127144819D02*
X168664523Y-127192438D01*
X168664523Y-127192438D02*
X168569285Y-127287676D01*
X168569285Y-127287676D02*
X168521666Y-127430533D01*
X168521666Y-127430533D02*
X168521666Y-127668628D01*
X168521666Y-127668628D02*
X168569285Y-127811485D01*
X168569285Y-127811485D02*
X168664523Y-127906723D01*
X168664523Y-127906723D02*
X168759761Y-127954342D01*
X168759761Y-127954342D02*
X168759761Y-128144819D01*
X168759761Y-128144819D02*
X168521666Y-128144819D01*
X125264819Y-115013333D02*
X125264819Y-114441905D01*
X125264819Y-114727619D02*
X124264819Y-114727619D01*
X124264819Y-114727619D02*
X124407676Y-114632381D01*
X124407676Y-114632381D02*
X124502914Y-114537143D01*
X124502914Y-114537143D02*
X124550533Y-114441905D01*
X124264819Y-115632381D02*
X124264819Y-115727619D01*
X124264819Y-115727619D02*
X124312438Y-115822857D01*
X124312438Y-115822857D02*
X124360057Y-115870476D01*
X124360057Y-115870476D02*
X124455295Y-115918095D01*
X124455295Y-115918095D02*
X124645771Y-115965714D01*
X124645771Y-115965714D02*
X124883866Y-115965714D01*
X124883866Y-115965714D02*
X125074342Y-115918095D01*
X125074342Y-115918095D02*
X125169580Y-115870476D01*
X125169580Y-115870476D02*
X125217200Y-115822857D01*
X125217200Y-115822857D02*
X125264819Y-115727619D01*
X125264819Y-115727619D02*
X125264819Y-115632381D01*
X125264819Y-115632381D02*
X125217200Y-115537143D01*
X125217200Y-115537143D02*
X125169580Y-115489524D01*
X125169580Y-115489524D02*
X125074342Y-115441905D01*
X125074342Y-115441905D02*
X124883866Y-115394286D01*
X124883866Y-115394286D02*
X124645771Y-115394286D01*
X124645771Y-115394286D02*
X124455295Y-115441905D01*
X124455295Y-115441905D02*
X124360057Y-115489524D01*
X124360057Y-115489524D02*
X124312438Y-115537143D01*
X124312438Y-115537143D02*
X124264819Y-115632381D01*
X124264819Y-116822857D02*
X124264819Y-116632381D01*
X124264819Y-116632381D02*
X124312438Y-116537143D01*
X124312438Y-116537143D02*
X124360057Y-116489524D01*
X124360057Y-116489524D02*
X124502914Y-116394286D01*
X124502914Y-116394286D02*
X124693390Y-116346667D01*
X124693390Y-116346667D02*
X125074342Y-116346667D01*
X125074342Y-116346667D02*
X125169580Y-116394286D01*
X125169580Y-116394286D02*
X125217200Y-116441905D01*
X125217200Y-116441905D02*
X125264819Y-116537143D01*
X125264819Y-116537143D02*
X125264819Y-116727619D01*
X125264819Y-116727619D02*
X125217200Y-116822857D01*
X125217200Y-116822857D02*
X125169580Y-116870476D01*
X125169580Y-116870476D02*
X125074342Y-116918095D01*
X125074342Y-116918095D02*
X124836247Y-116918095D01*
X124836247Y-116918095D02*
X124741009Y-116870476D01*
X124741009Y-116870476D02*
X124693390Y-116822857D01*
X124693390Y-116822857D02*
X124645771Y-116727619D01*
X124645771Y-116727619D02*
X124645771Y-116537143D01*
X124645771Y-116537143D02*
X124693390Y-116441905D01*
X124693390Y-116441905D02*
X124741009Y-116394286D01*
X124741009Y-116394286D02*
X124836247Y-116346667D01*
X132887142Y-114410057D02*
X132839523Y-114362438D01*
X132839523Y-114362438D02*
X132744285Y-114314819D01*
X132744285Y-114314819D02*
X132506190Y-114314819D01*
X132506190Y-114314819D02*
X132410952Y-114362438D01*
X132410952Y-114362438D02*
X132363333Y-114410057D01*
X132363333Y-114410057D02*
X132315714Y-114505295D01*
X132315714Y-114505295D02*
X132315714Y-114600533D01*
X132315714Y-114600533D02*
X132363333Y-114743390D01*
X132363333Y-114743390D02*
X132934761Y-115314819D01*
X132934761Y-115314819D02*
X132315714Y-115314819D01*
X131887142Y-115314819D02*
X131887142Y-114314819D01*
X131315714Y-115314819D02*
X131744285Y-114743390D01*
X131315714Y-114314819D02*
X131887142Y-114886247D01*
X130934761Y-115314819D02*
X130696666Y-115314819D01*
X130696666Y-115314819D02*
X130696666Y-115124342D01*
X130696666Y-115124342D02*
X130791904Y-115076723D01*
X130791904Y-115076723D02*
X130887142Y-114981485D01*
X130887142Y-114981485D02*
X130934761Y-114838628D01*
X130934761Y-114838628D02*
X130934761Y-114600533D01*
X130934761Y-114600533D02*
X130887142Y-114457676D01*
X130887142Y-114457676D02*
X130791904Y-114362438D01*
X130791904Y-114362438D02*
X130649047Y-114314819D01*
X130649047Y-114314819D02*
X130458571Y-114314819D01*
X130458571Y-114314819D02*
X130315714Y-114362438D01*
X130315714Y-114362438D02*
X130220476Y-114457676D01*
X130220476Y-114457676D02*
X130172857Y-114600533D01*
X130172857Y-114600533D02*
X130172857Y-114838628D01*
X130172857Y-114838628D02*
X130220476Y-114981485D01*
X130220476Y-114981485D02*
X130315714Y-115076723D01*
X130315714Y-115076723D02*
X130410952Y-115124342D01*
X130410952Y-115124342D02*
X130410952Y-115314819D01*
X130410952Y-115314819D02*
X130172857Y-115314819D01*
X132816904Y-128144819D02*
X133388332Y-128144819D01*
X133102618Y-128144819D02*
X133102618Y-127144819D01*
X133102618Y-127144819D02*
X133197856Y-127287676D01*
X133197856Y-127287676D02*
X133293094Y-127382914D01*
X133293094Y-127382914D02*
X133388332Y-127430533D01*
X132197856Y-127144819D02*
X132102618Y-127144819D01*
X132102618Y-127144819D02*
X132007380Y-127192438D01*
X132007380Y-127192438D02*
X131959761Y-127240057D01*
X131959761Y-127240057D02*
X131912142Y-127335295D01*
X131912142Y-127335295D02*
X131864523Y-127525771D01*
X131864523Y-127525771D02*
X131864523Y-127763866D01*
X131864523Y-127763866D02*
X131912142Y-127954342D01*
X131912142Y-127954342D02*
X131959761Y-128049580D01*
X131959761Y-128049580D02*
X132007380Y-128097200D01*
X132007380Y-128097200D02*
X132102618Y-128144819D01*
X132102618Y-128144819D02*
X132197856Y-128144819D01*
X132197856Y-128144819D02*
X132293094Y-128097200D01*
X132293094Y-128097200D02*
X132340713Y-128049580D01*
X132340713Y-128049580D02*
X132388332Y-127954342D01*
X132388332Y-127954342D02*
X132435951Y-127763866D01*
X132435951Y-127763866D02*
X132435951Y-127525771D01*
X132435951Y-127525771D02*
X132388332Y-127335295D01*
X132388332Y-127335295D02*
X132340713Y-127240057D01*
X132340713Y-127240057D02*
X132293094Y-127192438D01*
X132293094Y-127192438D02*
X132197856Y-127144819D01*
X131435951Y-128144819D02*
X131435951Y-127144819D01*
X130864523Y-128144819D02*
X131293094Y-127573390D01*
X130864523Y-127144819D02*
X131435951Y-127716247D01*
X130483570Y-128144819D02*
X130245475Y-128144819D01*
X130245475Y-128144819D02*
X130245475Y-127954342D01*
X130245475Y-127954342D02*
X130340713Y-127906723D01*
X130340713Y-127906723D02*
X130435951Y-127811485D01*
X130435951Y-127811485D02*
X130483570Y-127668628D01*
X130483570Y-127668628D02*
X130483570Y-127430533D01*
X130483570Y-127430533D02*
X130435951Y-127287676D01*
X130435951Y-127287676D02*
X130340713Y-127192438D01*
X130340713Y-127192438D02*
X130197856Y-127144819D01*
X130197856Y-127144819D02*
X130007380Y-127144819D01*
X130007380Y-127144819D02*
X129864523Y-127192438D01*
X129864523Y-127192438D02*
X129769285Y-127287676D01*
X129769285Y-127287676D02*
X129721666Y-127430533D01*
X129721666Y-127430533D02*
X129721666Y-127668628D01*
X129721666Y-127668628D02*
X129769285Y-127811485D01*
X129769285Y-127811485D02*
X129864523Y-127906723D01*
X129864523Y-127906723D02*
X129959761Y-127954342D01*
X129959761Y-127954342D02*
X129959761Y-128144819D01*
X129959761Y-128144819D02*
X129721666Y-128144819D01*
X86464819Y-115013333D02*
X86464819Y-114441905D01*
X86464819Y-114727619D02*
X85464819Y-114727619D01*
X85464819Y-114727619D02*
X85607676Y-114632381D01*
X85607676Y-114632381D02*
X85702914Y-114537143D01*
X85702914Y-114537143D02*
X85750533Y-114441905D01*
X85464819Y-115632381D02*
X85464819Y-115727619D01*
X85464819Y-115727619D02*
X85512438Y-115822857D01*
X85512438Y-115822857D02*
X85560057Y-115870476D01*
X85560057Y-115870476D02*
X85655295Y-115918095D01*
X85655295Y-115918095D02*
X85845771Y-115965714D01*
X85845771Y-115965714D02*
X86083866Y-115965714D01*
X86083866Y-115965714D02*
X86274342Y-115918095D01*
X86274342Y-115918095D02*
X86369580Y-115870476D01*
X86369580Y-115870476D02*
X86417200Y-115822857D01*
X86417200Y-115822857D02*
X86464819Y-115727619D01*
X86464819Y-115727619D02*
X86464819Y-115632381D01*
X86464819Y-115632381D02*
X86417200Y-115537143D01*
X86417200Y-115537143D02*
X86369580Y-115489524D01*
X86369580Y-115489524D02*
X86274342Y-115441905D01*
X86274342Y-115441905D02*
X86083866Y-115394286D01*
X86083866Y-115394286D02*
X85845771Y-115394286D01*
X85845771Y-115394286D02*
X85655295Y-115441905D01*
X85655295Y-115441905D02*
X85560057Y-115489524D01*
X85560057Y-115489524D02*
X85512438Y-115537143D01*
X85512438Y-115537143D02*
X85464819Y-115632381D01*
X85464819Y-116822857D02*
X85464819Y-116632381D01*
X85464819Y-116632381D02*
X85512438Y-116537143D01*
X85512438Y-116537143D02*
X85560057Y-116489524D01*
X85560057Y-116489524D02*
X85702914Y-116394286D01*
X85702914Y-116394286D02*
X85893390Y-116346667D01*
X85893390Y-116346667D02*
X86274342Y-116346667D01*
X86274342Y-116346667D02*
X86369580Y-116394286D01*
X86369580Y-116394286D02*
X86417200Y-116441905D01*
X86417200Y-116441905D02*
X86464819Y-116537143D01*
X86464819Y-116537143D02*
X86464819Y-116727619D01*
X86464819Y-116727619D02*
X86417200Y-116822857D01*
X86417200Y-116822857D02*
X86369580Y-116870476D01*
X86369580Y-116870476D02*
X86274342Y-116918095D01*
X86274342Y-116918095D02*
X86036247Y-116918095D01*
X86036247Y-116918095D02*
X85941009Y-116870476D01*
X85941009Y-116870476D02*
X85893390Y-116822857D01*
X85893390Y-116822857D02*
X85845771Y-116727619D01*
X85845771Y-116727619D02*
X85845771Y-116537143D01*
X85845771Y-116537143D02*
X85893390Y-116441905D01*
X85893390Y-116441905D02*
X85941009Y-116394286D01*
X85941009Y-116394286D02*
X86036247Y-116346667D01*
X94087142Y-114410057D02*
X94039523Y-114362438D01*
X94039523Y-114362438D02*
X93944285Y-114314819D01*
X93944285Y-114314819D02*
X93706190Y-114314819D01*
X93706190Y-114314819D02*
X93610952Y-114362438D01*
X93610952Y-114362438D02*
X93563333Y-114410057D01*
X93563333Y-114410057D02*
X93515714Y-114505295D01*
X93515714Y-114505295D02*
X93515714Y-114600533D01*
X93515714Y-114600533D02*
X93563333Y-114743390D01*
X93563333Y-114743390D02*
X94134761Y-115314819D01*
X94134761Y-115314819D02*
X93515714Y-115314819D01*
X93087142Y-115314819D02*
X93087142Y-114314819D01*
X92515714Y-115314819D02*
X92944285Y-114743390D01*
X92515714Y-114314819D02*
X93087142Y-114886247D01*
X92134761Y-115314819D02*
X91896666Y-115314819D01*
X91896666Y-115314819D02*
X91896666Y-115124342D01*
X91896666Y-115124342D02*
X91991904Y-115076723D01*
X91991904Y-115076723D02*
X92087142Y-114981485D01*
X92087142Y-114981485D02*
X92134761Y-114838628D01*
X92134761Y-114838628D02*
X92134761Y-114600533D01*
X92134761Y-114600533D02*
X92087142Y-114457676D01*
X92087142Y-114457676D02*
X91991904Y-114362438D01*
X91991904Y-114362438D02*
X91849047Y-114314819D01*
X91849047Y-114314819D02*
X91658571Y-114314819D01*
X91658571Y-114314819D02*
X91515714Y-114362438D01*
X91515714Y-114362438D02*
X91420476Y-114457676D01*
X91420476Y-114457676D02*
X91372857Y-114600533D01*
X91372857Y-114600533D02*
X91372857Y-114838628D01*
X91372857Y-114838628D02*
X91420476Y-114981485D01*
X91420476Y-114981485D02*
X91515714Y-115076723D01*
X91515714Y-115076723D02*
X91610952Y-115124342D01*
X91610952Y-115124342D02*
X91610952Y-115314819D01*
X91610952Y-115314819D02*
X91372857Y-115314819D01*
X94016904Y-128144819D02*
X94588332Y-128144819D01*
X94302618Y-128144819D02*
X94302618Y-127144819D01*
X94302618Y-127144819D02*
X94397856Y-127287676D01*
X94397856Y-127287676D02*
X94493094Y-127382914D01*
X94493094Y-127382914D02*
X94588332Y-127430533D01*
X93397856Y-127144819D02*
X93302618Y-127144819D01*
X93302618Y-127144819D02*
X93207380Y-127192438D01*
X93207380Y-127192438D02*
X93159761Y-127240057D01*
X93159761Y-127240057D02*
X93112142Y-127335295D01*
X93112142Y-127335295D02*
X93064523Y-127525771D01*
X93064523Y-127525771D02*
X93064523Y-127763866D01*
X93064523Y-127763866D02*
X93112142Y-127954342D01*
X93112142Y-127954342D02*
X93159761Y-128049580D01*
X93159761Y-128049580D02*
X93207380Y-128097200D01*
X93207380Y-128097200D02*
X93302618Y-128144819D01*
X93302618Y-128144819D02*
X93397856Y-128144819D01*
X93397856Y-128144819D02*
X93493094Y-128097200D01*
X93493094Y-128097200D02*
X93540713Y-128049580D01*
X93540713Y-128049580D02*
X93588332Y-127954342D01*
X93588332Y-127954342D02*
X93635951Y-127763866D01*
X93635951Y-127763866D02*
X93635951Y-127525771D01*
X93635951Y-127525771D02*
X93588332Y-127335295D01*
X93588332Y-127335295D02*
X93540713Y-127240057D01*
X93540713Y-127240057D02*
X93493094Y-127192438D01*
X93493094Y-127192438D02*
X93397856Y-127144819D01*
X92635951Y-128144819D02*
X92635951Y-127144819D01*
X92064523Y-128144819D02*
X92493094Y-127573390D01*
X92064523Y-127144819D02*
X92635951Y-127716247D01*
X91683570Y-128144819D02*
X91445475Y-128144819D01*
X91445475Y-128144819D02*
X91445475Y-127954342D01*
X91445475Y-127954342D02*
X91540713Y-127906723D01*
X91540713Y-127906723D02*
X91635951Y-127811485D01*
X91635951Y-127811485D02*
X91683570Y-127668628D01*
X91683570Y-127668628D02*
X91683570Y-127430533D01*
X91683570Y-127430533D02*
X91635951Y-127287676D01*
X91635951Y-127287676D02*
X91540713Y-127192438D01*
X91540713Y-127192438D02*
X91397856Y-127144819D01*
X91397856Y-127144819D02*
X91207380Y-127144819D01*
X91207380Y-127144819D02*
X91064523Y-127192438D01*
X91064523Y-127192438D02*
X90969285Y-127287676D01*
X90969285Y-127287676D02*
X90921666Y-127430533D01*
X90921666Y-127430533D02*
X90921666Y-127668628D01*
X90921666Y-127668628D02*
X90969285Y-127811485D01*
X90969285Y-127811485D02*
X91064523Y-127906723D01*
X91064523Y-127906723D02*
X91159761Y-127954342D01*
X91159761Y-127954342D02*
X91159761Y-128144819D01*
X91159761Y-128144819D02*
X90921666Y-128144819D01*
X47664819Y-115013333D02*
X47664819Y-114441905D01*
X47664819Y-114727619D02*
X46664819Y-114727619D01*
X46664819Y-114727619D02*
X46807676Y-114632381D01*
X46807676Y-114632381D02*
X46902914Y-114537143D01*
X46902914Y-114537143D02*
X46950533Y-114441905D01*
X46664819Y-115632381D02*
X46664819Y-115727619D01*
X46664819Y-115727619D02*
X46712438Y-115822857D01*
X46712438Y-115822857D02*
X46760057Y-115870476D01*
X46760057Y-115870476D02*
X46855295Y-115918095D01*
X46855295Y-115918095D02*
X47045771Y-115965714D01*
X47045771Y-115965714D02*
X47283866Y-115965714D01*
X47283866Y-115965714D02*
X47474342Y-115918095D01*
X47474342Y-115918095D02*
X47569580Y-115870476D01*
X47569580Y-115870476D02*
X47617200Y-115822857D01*
X47617200Y-115822857D02*
X47664819Y-115727619D01*
X47664819Y-115727619D02*
X47664819Y-115632381D01*
X47664819Y-115632381D02*
X47617200Y-115537143D01*
X47617200Y-115537143D02*
X47569580Y-115489524D01*
X47569580Y-115489524D02*
X47474342Y-115441905D01*
X47474342Y-115441905D02*
X47283866Y-115394286D01*
X47283866Y-115394286D02*
X47045771Y-115394286D01*
X47045771Y-115394286D02*
X46855295Y-115441905D01*
X46855295Y-115441905D02*
X46760057Y-115489524D01*
X46760057Y-115489524D02*
X46712438Y-115537143D01*
X46712438Y-115537143D02*
X46664819Y-115632381D01*
X46664819Y-116822857D02*
X46664819Y-116632381D01*
X46664819Y-116632381D02*
X46712438Y-116537143D01*
X46712438Y-116537143D02*
X46760057Y-116489524D01*
X46760057Y-116489524D02*
X46902914Y-116394286D01*
X46902914Y-116394286D02*
X47093390Y-116346667D01*
X47093390Y-116346667D02*
X47474342Y-116346667D01*
X47474342Y-116346667D02*
X47569580Y-116394286D01*
X47569580Y-116394286D02*
X47617200Y-116441905D01*
X47617200Y-116441905D02*
X47664819Y-116537143D01*
X47664819Y-116537143D02*
X47664819Y-116727619D01*
X47664819Y-116727619D02*
X47617200Y-116822857D01*
X47617200Y-116822857D02*
X47569580Y-116870476D01*
X47569580Y-116870476D02*
X47474342Y-116918095D01*
X47474342Y-116918095D02*
X47236247Y-116918095D01*
X47236247Y-116918095D02*
X47141009Y-116870476D01*
X47141009Y-116870476D02*
X47093390Y-116822857D01*
X47093390Y-116822857D02*
X47045771Y-116727619D01*
X47045771Y-116727619D02*
X47045771Y-116537143D01*
X47045771Y-116537143D02*
X47093390Y-116441905D01*
X47093390Y-116441905D02*
X47141009Y-116394286D01*
X47141009Y-116394286D02*
X47236247Y-116346667D01*
X55287142Y-114410057D02*
X55239523Y-114362438D01*
X55239523Y-114362438D02*
X55144285Y-114314819D01*
X55144285Y-114314819D02*
X54906190Y-114314819D01*
X54906190Y-114314819D02*
X54810952Y-114362438D01*
X54810952Y-114362438D02*
X54763333Y-114410057D01*
X54763333Y-114410057D02*
X54715714Y-114505295D01*
X54715714Y-114505295D02*
X54715714Y-114600533D01*
X54715714Y-114600533D02*
X54763333Y-114743390D01*
X54763333Y-114743390D02*
X55334761Y-115314819D01*
X55334761Y-115314819D02*
X54715714Y-115314819D01*
X54287142Y-115314819D02*
X54287142Y-114314819D01*
X53715714Y-115314819D02*
X54144285Y-114743390D01*
X53715714Y-114314819D02*
X54287142Y-114886247D01*
X53334761Y-115314819D02*
X53096666Y-115314819D01*
X53096666Y-115314819D02*
X53096666Y-115124342D01*
X53096666Y-115124342D02*
X53191904Y-115076723D01*
X53191904Y-115076723D02*
X53287142Y-114981485D01*
X53287142Y-114981485D02*
X53334761Y-114838628D01*
X53334761Y-114838628D02*
X53334761Y-114600533D01*
X53334761Y-114600533D02*
X53287142Y-114457676D01*
X53287142Y-114457676D02*
X53191904Y-114362438D01*
X53191904Y-114362438D02*
X53049047Y-114314819D01*
X53049047Y-114314819D02*
X52858571Y-114314819D01*
X52858571Y-114314819D02*
X52715714Y-114362438D01*
X52715714Y-114362438D02*
X52620476Y-114457676D01*
X52620476Y-114457676D02*
X52572857Y-114600533D01*
X52572857Y-114600533D02*
X52572857Y-114838628D01*
X52572857Y-114838628D02*
X52620476Y-114981485D01*
X52620476Y-114981485D02*
X52715714Y-115076723D01*
X52715714Y-115076723D02*
X52810952Y-115124342D01*
X52810952Y-115124342D02*
X52810952Y-115314819D01*
X52810952Y-115314819D02*
X52572857Y-115314819D01*
X55216904Y-128144819D02*
X55788332Y-128144819D01*
X55502618Y-128144819D02*
X55502618Y-127144819D01*
X55502618Y-127144819D02*
X55597856Y-127287676D01*
X55597856Y-127287676D02*
X55693094Y-127382914D01*
X55693094Y-127382914D02*
X55788332Y-127430533D01*
X54597856Y-127144819D02*
X54502618Y-127144819D01*
X54502618Y-127144819D02*
X54407380Y-127192438D01*
X54407380Y-127192438D02*
X54359761Y-127240057D01*
X54359761Y-127240057D02*
X54312142Y-127335295D01*
X54312142Y-127335295D02*
X54264523Y-127525771D01*
X54264523Y-127525771D02*
X54264523Y-127763866D01*
X54264523Y-127763866D02*
X54312142Y-127954342D01*
X54312142Y-127954342D02*
X54359761Y-128049580D01*
X54359761Y-128049580D02*
X54407380Y-128097200D01*
X54407380Y-128097200D02*
X54502618Y-128144819D01*
X54502618Y-128144819D02*
X54597856Y-128144819D01*
X54597856Y-128144819D02*
X54693094Y-128097200D01*
X54693094Y-128097200D02*
X54740713Y-128049580D01*
X54740713Y-128049580D02*
X54788332Y-127954342D01*
X54788332Y-127954342D02*
X54835951Y-127763866D01*
X54835951Y-127763866D02*
X54835951Y-127525771D01*
X54835951Y-127525771D02*
X54788332Y-127335295D01*
X54788332Y-127335295D02*
X54740713Y-127240057D01*
X54740713Y-127240057D02*
X54693094Y-127192438D01*
X54693094Y-127192438D02*
X54597856Y-127144819D01*
X53835951Y-128144819D02*
X53835951Y-127144819D01*
X53264523Y-128144819D02*
X53693094Y-127573390D01*
X53264523Y-127144819D02*
X53835951Y-127716247D01*
X52883570Y-128144819D02*
X52645475Y-128144819D01*
X52645475Y-128144819D02*
X52645475Y-127954342D01*
X52645475Y-127954342D02*
X52740713Y-127906723D01*
X52740713Y-127906723D02*
X52835951Y-127811485D01*
X52835951Y-127811485D02*
X52883570Y-127668628D01*
X52883570Y-127668628D02*
X52883570Y-127430533D01*
X52883570Y-127430533D02*
X52835951Y-127287676D01*
X52835951Y-127287676D02*
X52740713Y-127192438D01*
X52740713Y-127192438D02*
X52597856Y-127144819D01*
X52597856Y-127144819D02*
X52407380Y-127144819D01*
X52407380Y-127144819D02*
X52264523Y-127192438D01*
X52264523Y-127192438D02*
X52169285Y-127287676D01*
X52169285Y-127287676D02*
X52121666Y-127430533D01*
X52121666Y-127430533D02*
X52121666Y-127668628D01*
X52121666Y-127668628D02*
X52169285Y-127811485D01*
X52169285Y-127811485D02*
X52264523Y-127906723D01*
X52264523Y-127906723D02*
X52359761Y-127954342D01*
X52359761Y-127954342D02*
X52359761Y-128144819D01*
X52359761Y-128144819D02*
X52121666Y-128144819D01*
X202864819Y-70563333D02*
X202864819Y-69991905D01*
X202864819Y-70277619D02*
X201864819Y-70277619D01*
X201864819Y-70277619D02*
X202007676Y-70182381D01*
X202007676Y-70182381D02*
X202102914Y-70087143D01*
X202102914Y-70087143D02*
X202150533Y-69991905D01*
X201864819Y-71182381D02*
X201864819Y-71277619D01*
X201864819Y-71277619D02*
X201912438Y-71372857D01*
X201912438Y-71372857D02*
X201960057Y-71420476D01*
X201960057Y-71420476D02*
X202055295Y-71468095D01*
X202055295Y-71468095D02*
X202245771Y-71515714D01*
X202245771Y-71515714D02*
X202483866Y-71515714D01*
X202483866Y-71515714D02*
X202674342Y-71468095D01*
X202674342Y-71468095D02*
X202769580Y-71420476D01*
X202769580Y-71420476D02*
X202817200Y-71372857D01*
X202817200Y-71372857D02*
X202864819Y-71277619D01*
X202864819Y-71277619D02*
X202864819Y-71182381D01*
X202864819Y-71182381D02*
X202817200Y-71087143D01*
X202817200Y-71087143D02*
X202769580Y-71039524D01*
X202769580Y-71039524D02*
X202674342Y-70991905D01*
X202674342Y-70991905D02*
X202483866Y-70944286D01*
X202483866Y-70944286D02*
X202245771Y-70944286D01*
X202245771Y-70944286D02*
X202055295Y-70991905D01*
X202055295Y-70991905D02*
X201960057Y-71039524D01*
X201960057Y-71039524D02*
X201912438Y-71087143D01*
X201912438Y-71087143D02*
X201864819Y-71182381D01*
X201864819Y-72372857D02*
X201864819Y-72182381D01*
X201864819Y-72182381D02*
X201912438Y-72087143D01*
X201912438Y-72087143D02*
X201960057Y-72039524D01*
X201960057Y-72039524D02*
X202102914Y-71944286D01*
X202102914Y-71944286D02*
X202293390Y-71896667D01*
X202293390Y-71896667D02*
X202674342Y-71896667D01*
X202674342Y-71896667D02*
X202769580Y-71944286D01*
X202769580Y-71944286D02*
X202817200Y-71991905D01*
X202817200Y-71991905D02*
X202864819Y-72087143D01*
X202864819Y-72087143D02*
X202864819Y-72277619D01*
X202864819Y-72277619D02*
X202817200Y-72372857D01*
X202817200Y-72372857D02*
X202769580Y-72420476D01*
X202769580Y-72420476D02*
X202674342Y-72468095D01*
X202674342Y-72468095D02*
X202436247Y-72468095D01*
X202436247Y-72468095D02*
X202341009Y-72420476D01*
X202341009Y-72420476D02*
X202293390Y-72372857D01*
X202293390Y-72372857D02*
X202245771Y-72277619D01*
X202245771Y-72277619D02*
X202245771Y-72087143D01*
X202245771Y-72087143D02*
X202293390Y-71991905D01*
X202293390Y-71991905D02*
X202341009Y-71944286D01*
X202341009Y-71944286D02*
X202436247Y-71896667D01*
X210487142Y-69960057D02*
X210439523Y-69912438D01*
X210439523Y-69912438D02*
X210344285Y-69864819D01*
X210344285Y-69864819D02*
X210106190Y-69864819D01*
X210106190Y-69864819D02*
X210010952Y-69912438D01*
X210010952Y-69912438D02*
X209963333Y-69960057D01*
X209963333Y-69960057D02*
X209915714Y-70055295D01*
X209915714Y-70055295D02*
X209915714Y-70150533D01*
X209915714Y-70150533D02*
X209963333Y-70293390D01*
X209963333Y-70293390D02*
X210534761Y-70864819D01*
X210534761Y-70864819D02*
X209915714Y-70864819D01*
X209487142Y-70864819D02*
X209487142Y-69864819D01*
X208915714Y-70864819D02*
X209344285Y-70293390D01*
X208915714Y-69864819D02*
X209487142Y-70436247D01*
X208534761Y-70864819D02*
X208296666Y-70864819D01*
X208296666Y-70864819D02*
X208296666Y-70674342D01*
X208296666Y-70674342D02*
X208391904Y-70626723D01*
X208391904Y-70626723D02*
X208487142Y-70531485D01*
X208487142Y-70531485D02*
X208534761Y-70388628D01*
X208534761Y-70388628D02*
X208534761Y-70150533D01*
X208534761Y-70150533D02*
X208487142Y-70007676D01*
X208487142Y-70007676D02*
X208391904Y-69912438D01*
X208391904Y-69912438D02*
X208249047Y-69864819D01*
X208249047Y-69864819D02*
X208058571Y-69864819D01*
X208058571Y-69864819D02*
X207915714Y-69912438D01*
X207915714Y-69912438D02*
X207820476Y-70007676D01*
X207820476Y-70007676D02*
X207772857Y-70150533D01*
X207772857Y-70150533D02*
X207772857Y-70388628D01*
X207772857Y-70388628D02*
X207820476Y-70531485D01*
X207820476Y-70531485D02*
X207915714Y-70626723D01*
X207915714Y-70626723D02*
X208010952Y-70674342D01*
X208010952Y-70674342D02*
X208010952Y-70864819D01*
X208010952Y-70864819D02*
X207772857Y-70864819D01*
X210416904Y-83694819D02*
X210988332Y-83694819D01*
X210702618Y-83694819D02*
X210702618Y-82694819D01*
X210702618Y-82694819D02*
X210797856Y-82837676D01*
X210797856Y-82837676D02*
X210893094Y-82932914D01*
X210893094Y-82932914D02*
X210988332Y-82980533D01*
X209797856Y-82694819D02*
X209702618Y-82694819D01*
X209702618Y-82694819D02*
X209607380Y-82742438D01*
X209607380Y-82742438D02*
X209559761Y-82790057D01*
X209559761Y-82790057D02*
X209512142Y-82885295D01*
X209512142Y-82885295D02*
X209464523Y-83075771D01*
X209464523Y-83075771D02*
X209464523Y-83313866D01*
X209464523Y-83313866D02*
X209512142Y-83504342D01*
X209512142Y-83504342D02*
X209559761Y-83599580D01*
X209559761Y-83599580D02*
X209607380Y-83647200D01*
X209607380Y-83647200D02*
X209702618Y-83694819D01*
X209702618Y-83694819D02*
X209797856Y-83694819D01*
X209797856Y-83694819D02*
X209893094Y-83647200D01*
X209893094Y-83647200D02*
X209940713Y-83599580D01*
X209940713Y-83599580D02*
X209988332Y-83504342D01*
X209988332Y-83504342D02*
X210035951Y-83313866D01*
X210035951Y-83313866D02*
X210035951Y-83075771D01*
X210035951Y-83075771D02*
X209988332Y-82885295D01*
X209988332Y-82885295D02*
X209940713Y-82790057D01*
X209940713Y-82790057D02*
X209893094Y-82742438D01*
X209893094Y-82742438D02*
X209797856Y-82694819D01*
X209035951Y-83694819D02*
X209035951Y-82694819D01*
X208464523Y-83694819D02*
X208893094Y-83123390D01*
X208464523Y-82694819D02*
X209035951Y-83266247D01*
X208083570Y-83694819D02*
X207845475Y-83694819D01*
X207845475Y-83694819D02*
X207845475Y-83504342D01*
X207845475Y-83504342D02*
X207940713Y-83456723D01*
X207940713Y-83456723D02*
X208035951Y-83361485D01*
X208035951Y-83361485D02*
X208083570Y-83218628D01*
X208083570Y-83218628D02*
X208083570Y-82980533D01*
X208083570Y-82980533D02*
X208035951Y-82837676D01*
X208035951Y-82837676D02*
X207940713Y-82742438D01*
X207940713Y-82742438D02*
X207797856Y-82694819D01*
X207797856Y-82694819D02*
X207607380Y-82694819D01*
X207607380Y-82694819D02*
X207464523Y-82742438D01*
X207464523Y-82742438D02*
X207369285Y-82837676D01*
X207369285Y-82837676D02*
X207321666Y-82980533D01*
X207321666Y-82980533D02*
X207321666Y-83218628D01*
X207321666Y-83218628D02*
X207369285Y-83361485D01*
X207369285Y-83361485D02*
X207464523Y-83456723D01*
X207464523Y-83456723D02*
X207559761Y-83504342D01*
X207559761Y-83504342D02*
X207559761Y-83694819D01*
X207559761Y-83694819D02*
X207321666Y-83694819D01*
X164064819Y-70563333D02*
X164064819Y-69991905D01*
X164064819Y-70277619D02*
X163064819Y-70277619D01*
X163064819Y-70277619D02*
X163207676Y-70182381D01*
X163207676Y-70182381D02*
X163302914Y-70087143D01*
X163302914Y-70087143D02*
X163350533Y-69991905D01*
X163064819Y-71182381D02*
X163064819Y-71277619D01*
X163064819Y-71277619D02*
X163112438Y-71372857D01*
X163112438Y-71372857D02*
X163160057Y-71420476D01*
X163160057Y-71420476D02*
X163255295Y-71468095D01*
X163255295Y-71468095D02*
X163445771Y-71515714D01*
X163445771Y-71515714D02*
X163683866Y-71515714D01*
X163683866Y-71515714D02*
X163874342Y-71468095D01*
X163874342Y-71468095D02*
X163969580Y-71420476D01*
X163969580Y-71420476D02*
X164017200Y-71372857D01*
X164017200Y-71372857D02*
X164064819Y-71277619D01*
X164064819Y-71277619D02*
X164064819Y-71182381D01*
X164064819Y-71182381D02*
X164017200Y-71087143D01*
X164017200Y-71087143D02*
X163969580Y-71039524D01*
X163969580Y-71039524D02*
X163874342Y-70991905D01*
X163874342Y-70991905D02*
X163683866Y-70944286D01*
X163683866Y-70944286D02*
X163445771Y-70944286D01*
X163445771Y-70944286D02*
X163255295Y-70991905D01*
X163255295Y-70991905D02*
X163160057Y-71039524D01*
X163160057Y-71039524D02*
X163112438Y-71087143D01*
X163112438Y-71087143D02*
X163064819Y-71182381D01*
X163064819Y-72372857D02*
X163064819Y-72182381D01*
X163064819Y-72182381D02*
X163112438Y-72087143D01*
X163112438Y-72087143D02*
X163160057Y-72039524D01*
X163160057Y-72039524D02*
X163302914Y-71944286D01*
X163302914Y-71944286D02*
X163493390Y-71896667D01*
X163493390Y-71896667D02*
X163874342Y-71896667D01*
X163874342Y-71896667D02*
X163969580Y-71944286D01*
X163969580Y-71944286D02*
X164017200Y-71991905D01*
X164017200Y-71991905D02*
X164064819Y-72087143D01*
X164064819Y-72087143D02*
X164064819Y-72277619D01*
X164064819Y-72277619D02*
X164017200Y-72372857D01*
X164017200Y-72372857D02*
X163969580Y-72420476D01*
X163969580Y-72420476D02*
X163874342Y-72468095D01*
X163874342Y-72468095D02*
X163636247Y-72468095D01*
X163636247Y-72468095D02*
X163541009Y-72420476D01*
X163541009Y-72420476D02*
X163493390Y-72372857D01*
X163493390Y-72372857D02*
X163445771Y-72277619D01*
X163445771Y-72277619D02*
X163445771Y-72087143D01*
X163445771Y-72087143D02*
X163493390Y-71991905D01*
X163493390Y-71991905D02*
X163541009Y-71944286D01*
X163541009Y-71944286D02*
X163636247Y-71896667D01*
X171687142Y-69960057D02*
X171639523Y-69912438D01*
X171639523Y-69912438D02*
X171544285Y-69864819D01*
X171544285Y-69864819D02*
X171306190Y-69864819D01*
X171306190Y-69864819D02*
X171210952Y-69912438D01*
X171210952Y-69912438D02*
X171163333Y-69960057D01*
X171163333Y-69960057D02*
X171115714Y-70055295D01*
X171115714Y-70055295D02*
X171115714Y-70150533D01*
X171115714Y-70150533D02*
X171163333Y-70293390D01*
X171163333Y-70293390D02*
X171734761Y-70864819D01*
X171734761Y-70864819D02*
X171115714Y-70864819D01*
X170687142Y-70864819D02*
X170687142Y-69864819D01*
X170115714Y-70864819D02*
X170544285Y-70293390D01*
X170115714Y-69864819D02*
X170687142Y-70436247D01*
X169734761Y-70864819D02*
X169496666Y-70864819D01*
X169496666Y-70864819D02*
X169496666Y-70674342D01*
X169496666Y-70674342D02*
X169591904Y-70626723D01*
X169591904Y-70626723D02*
X169687142Y-70531485D01*
X169687142Y-70531485D02*
X169734761Y-70388628D01*
X169734761Y-70388628D02*
X169734761Y-70150533D01*
X169734761Y-70150533D02*
X169687142Y-70007676D01*
X169687142Y-70007676D02*
X169591904Y-69912438D01*
X169591904Y-69912438D02*
X169449047Y-69864819D01*
X169449047Y-69864819D02*
X169258571Y-69864819D01*
X169258571Y-69864819D02*
X169115714Y-69912438D01*
X169115714Y-69912438D02*
X169020476Y-70007676D01*
X169020476Y-70007676D02*
X168972857Y-70150533D01*
X168972857Y-70150533D02*
X168972857Y-70388628D01*
X168972857Y-70388628D02*
X169020476Y-70531485D01*
X169020476Y-70531485D02*
X169115714Y-70626723D01*
X169115714Y-70626723D02*
X169210952Y-70674342D01*
X169210952Y-70674342D02*
X169210952Y-70864819D01*
X169210952Y-70864819D02*
X168972857Y-70864819D01*
X171616904Y-83694819D02*
X172188332Y-83694819D01*
X171902618Y-83694819D02*
X171902618Y-82694819D01*
X171902618Y-82694819D02*
X171997856Y-82837676D01*
X171997856Y-82837676D02*
X172093094Y-82932914D01*
X172093094Y-82932914D02*
X172188332Y-82980533D01*
X170997856Y-82694819D02*
X170902618Y-82694819D01*
X170902618Y-82694819D02*
X170807380Y-82742438D01*
X170807380Y-82742438D02*
X170759761Y-82790057D01*
X170759761Y-82790057D02*
X170712142Y-82885295D01*
X170712142Y-82885295D02*
X170664523Y-83075771D01*
X170664523Y-83075771D02*
X170664523Y-83313866D01*
X170664523Y-83313866D02*
X170712142Y-83504342D01*
X170712142Y-83504342D02*
X170759761Y-83599580D01*
X170759761Y-83599580D02*
X170807380Y-83647200D01*
X170807380Y-83647200D02*
X170902618Y-83694819D01*
X170902618Y-83694819D02*
X170997856Y-83694819D01*
X170997856Y-83694819D02*
X171093094Y-83647200D01*
X171093094Y-83647200D02*
X171140713Y-83599580D01*
X171140713Y-83599580D02*
X171188332Y-83504342D01*
X171188332Y-83504342D02*
X171235951Y-83313866D01*
X171235951Y-83313866D02*
X171235951Y-83075771D01*
X171235951Y-83075771D02*
X171188332Y-82885295D01*
X171188332Y-82885295D02*
X171140713Y-82790057D01*
X171140713Y-82790057D02*
X171093094Y-82742438D01*
X171093094Y-82742438D02*
X170997856Y-82694819D01*
X170235951Y-83694819D02*
X170235951Y-82694819D01*
X169664523Y-83694819D02*
X170093094Y-83123390D01*
X169664523Y-82694819D02*
X170235951Y-83266247D01*
X169283570Y-83694819D02*
X169045475Y-83694819D01*
X169045475Y-83694819D02*
X169045475Y-83504342D01*
X169045475Y-83504342D02*
X169140713Y-83456723D01*
X169140713Y-83456723D02*
X169235951Y-83361485D01*
X169235951Y-83361485D02*
X169283570Y-83218628D01*
X169283570Y-83218628D02*
X169283570Y-82980533D01*
X169283570Y-82980533D02*
X169235951Y-82837676D01*
X169235951Y-82837676D02*
X169140713Y-82742438D01*
X169140713Y-82742438D02*
X168997856Y-82694819D01*
X168997856Y-82694819D02*
X168807380Y-82694819D01*
X168807380Y-82694819D02*
X168664523Y-82742438D01*
X168664523Y-82742438D02*
X168569285Y-82837676D01*
X168569285Y-82837676D02*
X168521666Y-82980533D01*
X168521666Y-82980533D02*
X168521666Y-83218628D01*
X168521666Y-83218628D02*
X168569285Y-83361485D01*
X168569285Y-83361485D02*
X168664523Y-83456723D01*
X168664523Y-83456723D02*
X168759761Y-83504342D01*
X168759761Y-83504342D02*
X168759761Y-83694819D01*
X168759761Y-83694819D02*
X168521666Y-83694819D01*
X125264819Y-70563333D02*
X125264819Y-69991905D01*
X125264819Y-70277619D02*
X124264819Y-70277619D01*
X124264819Y-70277619D02*
X124407676Y-70182381D01*
X124407676Y-70182381D02*
X124502914Y-70087143D01*
X124502914Y-70087143D02*
X124550533Y-69991905D01*
X124264819Y-71182381D02*
X124264819Y-71277619D01*
X124264819Y-71277619D02*
X124312438Y-71372857D01*
X124312438Y-71372857D02*
X124360057Y-71420476D01*
X124360057Y-71420476D02*
X124455295Y-71468095D01*
X124455295Y-71468095D02*
X124645771Y-71515714D01*
X124645771Y-71515714D02*
X124883866Y-71515714D01*
X124883866Y-71515714D02*
X125074342Y-71468095D01*
X125074342Y-71468095D02*
X125169580Y-71420476D01*
X125169580Y-71420476D02*
X125217200Y-71372857D01*
X125217200Y-71372857D02*
X125264819Y-71277619D01*
X125264819Y-71277619D02*
X125264819Y-71182381D01*
X125264819Y-71182381D02*
X125217200Y-71087143D01*
X125217200Y-71087143D02*
X125169580Y-71039524D01*
X125169580Y-71039524D02*
X125074342Y-70991905D01*
X125074342Y-70991905D02*
X124883866Y-70944286D01*
X124883866Y-70944286D02*
X124645771Y-70944286D01*
X124645771Y-70944286D02*
X124455295Y-70991905D01*
X124455295Y-70991905D02*
X124360057Y-71039524D01*
X124360057Y-71039524D02*
X124312438Y-71087143D01*
X124312438Y-71087143D02*
X124264819Y-71182381D01*
X124264819Y-72372857D02*
X124264819Y-72182381D01*
X124264819Y-72182381D02*
X124312438Y-72087143D01*
X124312438Y-72087143D02*
X124360057Y-72039524D01*
X124360057Y-72039524D02*
X124502914Y-71944286D01*
X124502914Y-71944286D02*
X124693390Y-71896667D01*
X124693390Y-71896667D02*
X125074342Y-71896667D01*
X125074342Y-71896667D02*
X125169580Y-71944286D01*
X125169580Y-71944286D02*
X125217200Y-71991905D01*
X125217200Y-71991905D02*
X125264819Y-72087143D01*
X125264819Y-72087143D02*
X125264819Y-72277619D01*
X125264819Y-72277619D02*
X125217200Y-72372857D01*
X125217200Y-72372857D02*
X125169580Y-72420476D01*
X125169580Y-72420476D02*
X125074342Y-72468095D01*
X125074342Y-72468095D02*
X124836247Y-72468095D01*
X124836247Y-72468095D02*
X124741009Y-72420476D01*
X124741009Y-72420476D02*
X124693390Y-72372857D01*
X124693390Y-72372857D02*
X124645771Y-72277619D01*
X124645771Y-72277619D02*
X124645771Y-72087143D01*
X124645771Y-72087143D02*
X124693390Y-71991905D01*
X124693390Y-71991905D02*
X124741009Y-71944286D01*
X124741009Y-71944286D02*
X124836247Y-71896667D01*
X132887142Y-69960057D02*
X132839523Y-69912438D01*
X132839523Y-69912438D02*
X132744285Y-69864819D01*
X132744285Y-69864819D02*
X132506190Y-69864819D01*
X132506190Y-69864819D02*
X132410952Y-69912438D01*
X132410952Y-69912438D02*
X132363333Y-69960057D01*
X132363333Y-69960057D02*
X132315714Y-70055295D01*
X132315714Y-70055295D02*
X132315714Y-70150533D01*
X132315714Y-70150533D02*
X132363333Y-70293390D01*
X132363333Y-70293390D02*
X132934761Y-70864819D01*
X132934761Y-70864819D02*
X132315714Y-70864819D01*
X131887142Y-70864819D02*
X131887142Y-69864819D01*
X131315714Y-70864819D02*
X131744285Y-70293390D01*
X131315714Y-69864819D02*
X131887142Y-70436247D01*
X130934761Y-70864819D02*
X130696666Y-70864819D01*
X130696666Y-70864819D02*
X130696666Y-70674342D01*
X130696666Y-70674342D02*
X130791904Y-70626723D01*
X130791904Y-70626723D02*
X130887142Y-70531485D01*
X130887142Y-70531485D02*
X130934761Y-70388628D01*
X130934761Y-70388628D02*
X130934761Y-70150533D01*
X130934761Y-70150533D02*
X130887142Y-70007676D01*
X130887142Y-70007676D02*
X130791904Y-69912438D01*
X130791904Y-69912438D02*
X130649047Y-69864819D01*
X130649047Y-69864819D02*
X130458571Y-69864819D01*
X130458571Y-69864819D02*
X130315714Y-69912438D01*
X130315714Y-69912438D02*
X130220476Y-70007676D01*
X130220476Y-70007676D02*
X130172857Y-70150533D01*
X130172857Y-70150533D02*
X130172857Y-70388628D01*
X130172857Y-70388628D02*
X130220476Y-70531485D01*
X130220476Y-70531485D02*
X130315714Y-70626723D01*
X130315714Y-70626723D02*
X130410952Y-70674342D01*
X130410952Y-70674342D02*
X130410952Y-70864819D01*
X130410952Y-70864819D02*
X130172857Y-70864819D01*
X132816904Y-83694819D02*
X133388332Y-83694819D01*
X133102618Y-83694819D02*
X133102618Y-82694819D01*
X133102618Y-82694819D02*
X133197856Y-82837676D01*
X133197856Y-82837676D02*
X133293094Y-82932914D01*
X133293094Y-82932914D02*
X133388332Y-82980533D01*
X132197856Y-82694819D02*
X132102618Y-82694819D01*
X132102618Y-82694819D02*
X132007380Y-82742438D01*
X132007380Y-82742438D02*
X131959761Y-82790057D01*
X131959761Y-82790057D02*
X131912142Y-82885295D01*
X131912142Y-82885295D02*
X131864523Y-83075771D01*
X131864523Y-83075771D02*
X131864523Y-83313866D01*
X131864523Y-83313866D02*
X131912142Y-83504342D01*
X131912142Y-83504342D02*
X131959761Y-83599580D01*
X131959761Y-83599580D02*
X132007380Y-83647200D01*
X132007380Y-83647200D02*
X132102618Y-83694819D01*
X132102618Y-83694819D02*
X132197856Y-83694819D01*
X132197856Y-83694819D02*
X132293094Y-83647200D01*
X132293094Y-83647200D02*
X132340713Y-83599580D01*
X132340713Y-83599580D02*
X132388332Y-83504342D01*
X132388332Y-83504342D02*
X132435951Y-83313866D01*
X132435951Y-83313866D02*
X132435951Y-83075771D01*
X132435951Y-83075771D02*
X132388332Y-82885295D01*
X132388332Y-82885295D02*
X132340713Y-82790057D01*
X132340713Y-82790057D02*
X132293094Y-82742438D01*
X132293094Y-82742438D02*
X132197856Y-82694819D01*
X131435951Y-83694819D02*
X131435951Y-82694819D01*
X130864523Y-83694819D02*
X131293094Y-83123390D01*
X130864523Y-82694819D02*
X131435951Y-83266247D01*
X130483570Y-83694819D02*
X130245475Y-83694819D01*
X130245475Y-83694819D02*
X130245475Y-83504342D01*
X130245475Y-83504342D02*
X130340713Y-83456723D01*
X130340713Y-83456723D02*
X130435951Y-83361485D01*
X130435951Y-83361485D02*
X130483570Y-83218628D01*
X130483570Y-83218628D02*
X130483570Y-82980533D01*
X130483570Y-82980533D02*
X130435951Y-82837676D01*
X130435951Y-82837676D02*
X130340713Y-82742438D01*
X130340713Y-82742438D02*
X130197856Y-82694819D01*
X130197856Y-82694819D02*
X130007380Y-82694819D01*
X130007380Y-82694819D02*
X129864523Y-82742438D01*
X129864523Y-82742438D02*
X129769285Y-82837676D01*
X129769285Y-82837676D02*
X129721666Y-82980533D01*
X129721666Y-82980533D02*
X129721666Y-83218628D01*
X129721666Y-83218628D02*
X129769285Y-83361485D01*
X129769285Y-83361485D02*
X129864523Y-83456723D01*
X129864523Y-83456723D02*
X129959761Y-83504342D01*
X129959761Y-83504342D02*
X129959761Y-83694819D01*
X129959761Y-83694819D02*
X129721666Y-83694819D01*
X86464819Y-70563333D02*
X86464819Y-69991905D01*
X86464819Y-70277619D02*
X85464819Y-70277619D01*
X85464819Y-70277619D02*
X85607676Y-70182381D01*
X85607676Y-70182381D02*
X85702914Y-70087143D01*
X85702914Y-70087143D02*
X85750533Y-69991905D01*
X85464819Y-71182381D02*
X85464819Y-71277619D01*
X85464819Y-71277619D02*
X85512438Y-71372857D01*
X85512438Y-71372857D02*
X85560057Y-71420476D01*
X85560057Y-71420476D02*
X85655295Y-71468095D01*
X85655295Y-71468095D02*
X85845771Y-71515714D01*
X85845771Y-71515714D02*
X86083866Y-71515714D01*
X86083866Y-71515714D02*
X86274342Y-71468095D01*
X86274342Y-71468095D02*
X86369580Y-71420476D01*
X86369580Y-71420476D02*
X86417200Y-71372857D01*
X86417200Y-71372857D02*
X86464819Y-71277619D01*
X86464819Y-71277619D02*
X86464819Y-71182381D01*
X86464819Y-71182381D02*
X86417200Y-71087143D01*
X86417200Y-71087143D02*
X86369580Y-71039524D01*
X86369580Y-71039524D02*
X86274342Y-70991905D01*
X86274342Y-70991905D02*
X86083866Y-70944286D01*
X86083866Y-70944286D02*
X85845771Y-70944286D01*
X85845771Y-70944286D02*
X85655295Y-70991905D01*
X85655295Y-70991905D02*
X85560057Y-71039524D01*
X85560057Y-71039524D02*
X85512438Y-71087143D01*
X85512438Y-71087143D02*
X85464819Y-71182381D01*
X85464819Y-72372857D02*
X85464819Y-72182381D01*
X85464819Y-72182381D02*
X85512438Y-72087143D01*
X85512438Y-72087143D02*
X85560057Y-72039524D01*
X85560057Y-72039524D02*
X85702914Y-71944286D01*
X85702914Y-71944286D02*
X85893390Y-71896667D01*
X85893390Y-71896667D02*
X86274342Y-71896667D01*
X86274342Y-71896667D02*
X86369580Y-71944286D01*
X86369580Y-71944286D02*
X86417200Y-71991905D01*
X86417200Y-71991905D02*
X86464819Y-72087143D01*
X86464819Y-72087143D02*
X86464819Y-72277619D01*
X86464819Y-72277619D02*
X86417200Y-72372857D01*
X86417200Y-72372857D02*
X86369580Y-72420476D01*
X86369580Y-72420476D02*
X86274342Y-72468095D01*
X86274342Y-72468095D02*
X86036247Y-72468095D01*
X86036247Y-72468095D02*
X85941009Y-72420476D01*
X85941009Y-72420476D02*
X85893390Y-72372857D01*
X85893390Y-72372857D02*
X85845771Y-72277619D01*
X85845771Y-72277619D02*
X85845771Y-72087143D01*
X85845771Y-72087143D02*
X85893390Y-71991905D01*
X85893390Y-71991905D02*
X85941009Y-71944286D01*
X85941009Y-71944286D02*
X86036247Y-71896667D01*
X94087142Y-69960057D02*
X94039523Y-69912438D01*
X94039523Y-69912438D02*
X93944285Y-69864819D01*
X93944285Y-69864819D02*
X93706190Y-69864819D01*
X93706190Y-69864819D02*
X93610952Y-69912438D01*
X93610952Y-69912438D02*
X93563333Y-69960057D01*
X93563333Y-69960057D02*
X93515714Y-70055295D01*
X93515714Y-70055295D02*
X93515714Y-70150533D01*
X93515714Y-70150533D02*
X93563333Y-70293390D01*
X93563333Y-70293390D02*
X94134761Y-70864819D01*
X94134761Y-70864819D02*
X93515714Y-70864819D01*
X93087142Y-70864819D02*
X93087142Y-69864819D01*
X92515714Y-70864819D02*
X92944285Y-70293390D01*
X92515714Y-69864819D02*
X93087142Y-70436247D01*
X92134761Y-70864819D02*
X91896666Y-70864819D01*
X91896666Y-70864819D02*
X91896666Y-70674342D01*
X91896666Y-70674342D02*
X91991904Y-70626723D01*
X91991904Y-70626723D02*
X92087142Y-70531485D01*
X92087142Y-70531485D02*
X92134761Y-70388628D01*
X92134761Y-70388628D02*
X92134761Y-70150533D01*
X92134761Y-70150533D02*
X92087142Y-70007676D01*
X92087142Y-70007676D02*
X91991904Y-69912438D01*
X91991904Y-69912438D02*
X91849047Y-69864819D01*
X91849047Y-69864819D02*
X91658571Y-69864819D01*
X91658571Y-69864819D02*
X91515714Y-69912438D01*
X91515714Y-69912438D02*
X91420476Y-70007676D01*
X91420476Y-70007676D02*
X91372857Y-70150533D01*
X91372857Y-70150533D02*
X91372857Y-70388628D01*
X91372857Y-70388628D02*
X91420476Y-70531485D01*
X91420476Y-70531485D02*
X91515714Y-70626723D01*
X91515714Y-70626723D02*
X91610952Y-70674342D01*
X91610952Y-70674342D02*
X91610952Y-70864819D01*
X91610952Y-70864819D02*
X91372857Y-70864819D01*
X94016904Y-83694819D02*
X94588332Y-83694819D01*
X94302618Y-83694819D02*
X94302618Y-82694819D01*
X94302618Y-82694819D02*
X94397856Y-82837676D01*
X94397856Y-82837676D02*
X94493094Y-82932914D01*
X94493094Y-82932914D02*
X94588332Y-82980533D01*
X93397856Y-82694819D02*
X93302618Y-82694819D01*
X93302618Y-82694819D02*
X93207380Y-82742438D01*
X93207380Y-82742438D02*
X93159761Y-82790057D01*
X93159761Y-82790057D02*
X93112142Y-82885295D01*
X93112142Y-82885295D02*
X93064523Y-83075771D01*
X93064523Y-83075771D02*
X93064523Y-83313866D01*
X93064523Y-83313866D02*
X93112142Y-83504342D01*
X93112142Y-83504342D02*
X93159761Y-83599580D01*
X93159761Y-83599580D02*
X93207380Y-83647200D01*
X93207380Y-83647200D02*
X93302618Y-83694819D01*
X93302618Y-83694819D02*
X93397856Y-83694819D01*
X93397856Y-83694819D02*
X93493094Y-83647200D01*
X93493094Y-83647200D02*
X93540713Y-83599580D01*
X93540713Y-83599580D02*
X93588332Y-83504342D01*
X93588332Y-83504342D02*
X93635951Y-83313866D01*
X93635951Y-83313866D02*
X93635951Y-83075771D01*
X93635951Y-83075771D02*
X93588332Y-82885295D01*
X93588332Y-82885295D02*
X93540713Y-82790057D01*
X93540713Y-82790057D02*
X93493094Y-82742438D01*
X93493094Y-82742438D02*
X93397856Y-82694819D01*
X92635951Y-83694819D02*
X92635951Y-82694819D01*
X92064523Y-83694819D02*
X92493094Y-83123390D01*
X92064523Y-82694819D02*
X92635951Y-83266247D01*
X91683570Y-83694819D02*
X91445475Y-83694819D01*
X91445475Y-83694819D02*
X91445475Y-83504342D01*
X91445475Y-83504342D02*
X91540713Y-83456723D01*
X91540713Y-83456723D02*
X91635951Y-83361485D01*
X91635951Y-83361485D02*
X91683570Y-83218628D01*
X91683570Y-83218628D02*
X91683570Y-82980533D01*
X91683570Y-82980533D02*
X91635951Y-82837676D01*
X91635951Y-82837676D02*
X91540713Y-82742438D01*
X91540713Y-82742438D02*
X91397856Y-82694819D01*
X91397856Y-82694819D02*
X91207380Y-82694819D01*
X91207380Y-82694819D02*
X91064523Y-82742438D01*
X91064523Y-82742438D02*
X90969285Y-82837676D01*
X90969285Y-82837676D02*
X90921666Y-82980533D01*
X90921666Y-82980533D02*
X90921666Y-83218628D01*
X90921666Y-83218628D02*
X90969285Y-83361485D01*
X90969285Y-83361485D02*
X91064523Y-83456723D01*
X91064523Y-83456723D02*
X91159761Y-83504342D01*
X91159761Y-83504342D02*
X91159761Y-83694819D01*
X91159761Y-83694819D02*
X90921666Y-83694819D01*
X47664819Y-70563333D02*
X47664819Y-69991905D01*
X47664819Y-70277619D02*
X46664819Y-70277619D01*
X46664819Y-70277619D02*
X46807676Y-70182381D01*
X46807676Y-70182381D02*
X46902914Y-70087143D01*
X46902914Y-70087143D02*
X46950533Y-69991905D01*
X46664819Y-71182381D02*
X46664819Y-71277619D01*
X46664819Y-71277619D02*
X46712438Y-71372857D01*
X46712438Y-71372857D02*
X46760057Y-71420476D01*
X46760057Y-71420476D02*
X46855295Y-71468095D01*
X46855295Y-71468095D02*
X47045771Y-71515714D01*
X47045771Y-71515714D02*
X47283866Y-71515714D01*
X47283866Y-71515714D02*
X47474342Y-71468095D01*
X47474342Y-71468095D02*
X47569580Y-71420476D01*
X47569580Y-71420476D02*
X47617200Y-71372857D01*
X47617200Y-71372857D02*
X47664819Y-71277619D01*
X47664819Y-71277619D02*
X47664819Y-71182381D01*
X47664819Y-71182381D02*
X47617200Y-71087143D01*
X47617200Y-71087143D02*
X47569580Y-71039524D01*
X47569580Y-71039524D02*
X47474342Y-70991905D01*
X47474342Y-70991905D02*
X47283866Y-70944286D01*
X47283866Y-70944286D02*
X47045771Y-70944286D01*
X47045771Y-70944286D02*
X46855295Y-70991905D01*
X46855295Y-70991905D02*
X46760057Y-71039524D01*
X46760057Y-71039524D02*
X46712438Y-71087143D01*
X46712438Y-71087143D02*
X46664819Y-71182381D01*
X46664819Y-72372857D02*
X46664819Y-72182381D01*
X46664819Y-72182381D02*
X46712438Y-72087143D01*
X46712438Y-72087143D02*
X46760057Y-72039524D01*
X46760057Y-72039524D02*
X46902914Y-71944286D01*
X46902914Y-71944286D02*
X47093390Y-71896667D01*
X47093390Y-71896667D02*
X47474342Y-71896667D01*
X47474342Y-71896667D02*
X47569580Y-71944286D01*
X47569580Y-71944286D02*
X47617200Y-71991905D01*
X47617200Y-71991905D02*
X47664819Y-72087143D01*
X47664819Y-72087143D02*
X47664819Y-72277619D01*
X47664819Y-72277619D02*
X47617200Y-72372857D01*
X47617200Y-72372857D02*
X47569580Y-72420476D01*
X47569580Y-72420476D02*
X47474342Y-72468095D01*
X47474342Y-72468095D02*
X47236247Y-72468095D01*
X47236247Y-72468095D02*
X47141009Y-72420476D01*
X47141009Y-72420476D02*
X47093390Y-72372857D01*
X47093390Y-72372857D02*
X47045771Y-72277619D01*
X47045771Y-72277619D02*
X47045771Y-72087143D01*
X47045771Y-72087143D02*
X47093390Y-71991905D01*
X47093390Y-71991905D02*
X47141009Y-71944286D01*
X47141009Y-71944286D02*
X47236247Y-71896667D01*
X55287142Y-69960057D02*
X55239523Y-69912438D01*
X55239523Y-69912438D02*
X55144285Y-69864819D01*
X55144285Y-69864819D02*
X54906190Y-69864819D01*
X54906190Y-69864819D02*
X54810952Y-69912438D01*
X54810952Y-69912438D02*
X54763333Y-69960057D01*
X54763333Y-69960057D02*
X54715714Y-70055295D01*
X54715714Y-70055295D02*
X54715714Y-70150533D01*
X54715714Y-70150533D02*
X54763333Y-70293390D01*
X54763333Y-70293390D02*
X55334761Y-70864819D01*
X55334761Y-70864819D02*
X54715714Y-70864819D01*
X54287142Y-70864819D02*
X54287142Y-69864819D01*
X53715714Y-70864819D02*
X54144285Y-70293390D01*
X53715714Y-69864819D02*
X54287142Y-70436247D01*
X53334761Y-70864819D02*
X53096666Y-70864819D01*
X53096666Y-70864819D02*
X53096666Y-70674342D01*
X53096666Y-70674342D02*
X53191904Y-70626723D01*
X53191904Y-70626723D02*
X53287142Y-70531485D01*
X53287142Y-70531485D02*
X53334761Y-70388628D01*
X53334761Y-70388628D02*
X53334761Y-70150533D01*
X53334761Y-70150533D02*
X53287142Y-70007676D01*
X53287142Y-70007676D02*
X53191904Y-69912438D01*
X53191904Y-69912438D02*
X53049047Y-69864819D01*
X53049047Y-69864819D02*
X52858571Y-69864819D01*
X52858571Y-69864819D02*
X52715714Y-69912438D01*
X52715714Y-69912438D02*
X52620476Y-70007676D01*
X52620476Y-70007676D02*
X52572857Y-70150533D01*
X52572857Y-70150533D02*
X52572857Y-70388628D01*
X52572857Y-70388628D02*
X52620476Y-70531485D01*
X52620476Y-70531485D02*
X52715714Y-70626723D01*
X52715714Y-70626723D02*
X52810952Y-70674342D01*
X52810952Y-70674342D02*
X52810952Y-70864819D01*
X52810952Y-70864819D02*
X52572857Y-70864819D01*
X55216904Y-83694819D02*
X55788332Y-83694819D01*
X55502618Y-83694819D02*
X55502618Y-82694819D01*
X55502618Y-82694819D02*
X55597856Y-82837676D01*
X55597856Y-82837676D02*
X55693094Y-82932914D01*
X55693094Y-82932914D02*
X55788332Y-82980533D01*
X54597856Y-82694819D02*
X54502618Y-82694819D01*
X54502618Y-82694819D02*
X54407380Y-82742438D01*
X54407380Y-82742438D02*
X54359761Y-82790057D01*
X54359761Y-82790057D02*
X54312142Y-82885295D01*
X54312142Y-82885295D02*
X54264523Y-83075771D01*
X54264523Y-83075771D02*
X54264523Y-83313866D01*
X54264523Y-83313866D02*
X54312142Y-83504342D01*
X54312142Y-83504342D02*
X54359761Y-83599580D01*
X54359761Y-83599580D02*
X54407380Y-83647200D01*
X54407380Y-83647200D02*
X54502618Y-83694819D01*
X54502618Y-83694819D02*
X54597856Y-83694819D01*
X54597856Y-83694819D02*
X54693094Y-83647200D01*
X54693094Y-83647200D02*
X54740713Y-83599580D01*
X54740713Y-83599580D02*
X54788332Y-83504342D01*
X54788332Y-83504342D02*
X54835951Y-83313866D01*
X54835951Y-83313866D02*
X54835951Y-83075771D01*
X54835951Y-83075771D02*
X54788332Y-82885295D01*
X54788332Y-82885295D02*
X54740713Y-82790057D01*
X54740713Y-82790057D02*
X54693094Y-82742438D01*
X54693094Y-82742438D02*
X54597856Y-82694819D01*
X53835951Y-83694819D02*
X53835951Y-82694819D01*
X53264523Y-83694819D02*
X53693094Y-83123390D01*
X53264523Y-82694819D02*
X53835951Y-83266247D01*
X52883570Y-83694819D02*
X52645475Y-83694819D01*
X52645475Y-83694819D02*
X52645475Y-83504342D01*
X52645475Y-83504342D02*
X52740713Y-83456723D01*
X52740713Y-83456723D02*
X52835951Y-83361485D01*
X52835951Y-83361485D02*
X52883570Y-83218628D01*
X52883570Y-83218628D02*
X52883570Y-82980533D01*
X52883570Y-82980533D02*
X52835951Y-82837676D01*
X52835951Y-82837676D02*
X52740713Y-82742438D01*
X52740713Y-82742438D02*
X52597856Y-82694819D01*
X52597856Y-82694819D02*
X52407380Y-82694819D01*
X52407380Y-82694819D02*
X52264523Y-82742438D01*
X52264523Y-82742438D02*
X52169285Y-82837676D01*
X52169285Y-82837676D02*
X52121666Y-82980533D01*
X52121666Y-82980533D02*
X52121666Y-83218628D01*
X52121666Y-83218628D02*
X52169285Y-83361485D01*
X52169285Y-83361485D02*
X52264523Y-83456723D01*
X52264523Y-83456723D02*
X52359761Y-83504342D01*
X52359761Y-83504342D02*
X52359761Y-83694819D01*
X52359761Y-83694819D02*
X52121666Y-83694819D01*
X202864819Y-26113333D02*
X202864819Y-25541905D01*
X202864819Y-25827619D02*
X201864819Y-25827619D01*
X201864819Y-25827619D02*
X202007676Y-25732381D01*
X202007676Y-25732381D02*
X202102914Y-25637143D01*
X202102914Y-25637143D02*
X202150533Y-25541905D01*
X201864819Y-26732381D02*
X201864819Y-26827619D01*
X201864819Y-26827619D02*
X201912438Y-26922857D01*
X201912438Y-26922857D02*
X201960057Y-26970476D01*
X201960057Y-26970476D02*
X202055295Y-27018095D01*
X202055295Y-27018095D02*
X202245771Y-27065714D01*
X202245771Y-27065714D02*
X202483866Y-27065714D01*
X202483866Y-27065714D02*
X202674342Y-27018095D01*
X202674342Y-27018095D02*
X202769580Y-26970476D01*
X202769580Y-26970476D02*
X202817200Y-26922857D01*
X202817200Y-26922857D02*
X202864819Y-26827619D01*
X202864819Y-26827619D02*
X202864819Y-26732381D01*
X202864819Y-26732381D02*
X202817200Y-26637143D01*
X202817200Y-26637143D02*
X202769580Y-26589524D01*
X202769580Y-26589524D02*
X202674342Y-26541905D01*
X202674342Y-26541905D02*
X202483866Y-26494286D01*
X202483866Y-26494286D02*
X202245771Y-26494286D01*
X202245771Y-26494286D02*
X202055295Y-26541905D01*
X202055295Y-26541905D02*
X201960057Y-26589524D01*
X201960057Y-26589524D02*
X201912438Y-26637143D01*
X201912438Y-26637143D02*
X201864819Y-26732381D01*
X201864819Y-27922857D02*
X201864819Y-27732381D01*
X201864819Y-27732381D02*
X201912438Y-27637143D01*
X201912438Y-27637143D02*
X201960057Y-27589524D01*
X201960057Y-27589524D02*
X202102914Y-27494286D01*
X202102914Y-27494286D02*
X202293390Y-27446667D01*
X202293390Y-27446667D02*
X202674342Y-27446667D01*
X202674342Y-27446667D02*
X202769580Y-27494286D01*
X202769580Y-27494286D02*
X202817200Y-27541905D01*
X202817200Y-27541905D02*
X202864819Y-27637143D01*
X202864819Y-27637143D02*
X202864819Y-27827619D01*
X202864819Y-27827619D02*
X202817200Y-27922857D01*
X202817200Y-27922857D02*
X202769580Y-27970476D01*
X202769580Y-27970476D02*
X202674342Y-28018095D01*
X202674342Y-28018095D02*
X202436247Y-28018095D01*
X202436247Y-28018095D02*
X202341009Y-27970476D01*
X202341009Y-27970476D02*
X202293390Y-27922857D01*
X202293390Y-27922857D02*
X202245771Y-27827619D01*
X202245771Y-27827619D02*
X202245771Y-27637143D01*
X202245771Y-27637143D02*
X202293390Y-27541905D01*
X202293390Y-27541905D02*
X202341009Y-27494286D01*
X202341009Y-27494286D02*
X202436247Y-27446667D01*
X210487142Y-25510057D02*
X210439523Y-25462438D01*
X210439523Y-25462438D02*
X210344285Y-25414819D01*
X210344285Y-25414819D02*
X210106190Y-25414819D01*
X210106190Y-25414819D02*
X210010952Y-25462438D01*
X210010952Y-25462438D02*
X209963333Y-25510057D01*
X209963333Y-25510057D02*
X209915714Y-25605295D01*
X209915714Y-25605295D02*
X209915714Y-25700533D01*
X209915714Y-25700533D02*
X209963333Y-25843390D01*
X209963333Y-25843390D02*
X210534761Y-26414819D01*
X210534761Y-26414819D02*
X209915714Y-26414819D01*
X209487142Y-26414819D02*
X209487142Y-25414819D01*
X208915714Y-26414819D02*
X209344285Y-25843390D01*
X208915714Y-25414819D02*
X209487142Y-25986247D01*
X208534761Y-26414819D02*
X208296666Y-26414819D01*
X208296666Y-26414819D02*
X208296666Y-26224342D01*
X208296666Y-26224342D02*
X208391904Y-26176723D01*
X208391904Y-26176723D02*
X208487142Y-26081485D01*
X208487142Y-26081485D02*
X208534761Y-25938628D01*
X208534761Y-25938628D02*
X208534761Y-25700533D01*
X208534761Y-25700533D02*
X208487142Y-25557676D01*
X208487142Y-25557676D02*
X208391904Y-25462438D01*
X208391904Y-25462438D02*
X208249047Y-25414819D01*
X208249047Y-25414819D02*
X208058571Y-25414819D01*
X208058571Y-25414819D02*
X207915714Y-25462438D01*
X207915714Y-25462438D02*
X207820476Y-25557676D01*
X207820476Y-25557676D02*
X207772857Y-25700533D01*
X207772857Y-25700533D02*
X207772857Y-25938628D01*
X207772857Y-25938628D02*
X207820476Y-26081485D01*
X207820476Y-26081485D02*
X207915714Y-26176723D01*
X207915714Y-26176723D02*
X208010952Y-26224342D01*
X208010952Y-26224342D02*
X208010952Y-26414819D01*
X208010952Y-26414819D02*
X207772857Y-26414819D01*
X210416904Y-39244819D02*
X210988332Y-39244819D01*
X210702618Y-39244819D02*
X210702618Y-38244819D01*
X210702618Y-38244819D02*
X210797856Y-38387676D01*
X210797856Y-38387676D02*
X210893094Y-38482914D01*
X210893094Y-38482914D02*
X210988332Y-38530533D01*
X209797856Y-38244819D02*
X209702618Y-38244819D01*
X209702618Y-38244819D02*
X209607380Y-38292438D01*
X209607380Y-38292438D02*
X209559761Y-38340057D01*
X209559761Y-38340057D02*
X209512142Y-38435295D01*
X209512142Y-38435295D02*
X209464523Y-38625771D01*
X209464523Y-38625771D02*
X209464523Y-38863866D01*
X209464523Y-38863866D02*
X209512142Y-39054342D01*
X209512142Y-39054342D02*
X209559761Y-39149580D01*
X209559761Y-39149580D02*
X209607380Y-39197200D01*
X209607380Y-39197200D02*
X209702618Y-39244819D01*
X209702618Y-39244819D02*
X209797856Y-39244819D01*
X209797856Y-39244819D02*
X209893094Y-39197200D01*
X209893094Y-39197200D02*
X209940713Y-39149580D01*
X209940713Y-39149580D02*
X209988332Y-39054342D01*
X209988332Y-39054342D02*
X210035951Y-38863866D01*
X210035951Y-38863866D02*
X210035951Y-38625771D01*
X210035951Y-38625771D02*
X209988332Y-38435295D01*
X209988332Y-38435295D02*
X209940713Y-38340057D01*
X209940713Y-38340057D02*
X209893094Y-38292438D01*
X209893094Y-38292438D02*
X209797856Y-38244819D01*
X209035951Y-39244819D02*
X209035951Y-38244819D01*
X208464523Y-39244819D02*
X208893094Y-38673390D01*
X208464523Y-38244819D02*
X209035951Y-38816247D01*
X208083570Y-39244819D02*
X207845475Y-39244819D01*
X207845475Y-39244819D02*
X207845475Y-39054342D01*
X207845475Y-39054342D02*
X207940713Y-39006723D01*
X207940713Y-39006723D02*
X208035951Y-38911485D01*
X208035951Y-38911485D02*
X208083570Y-38768628D01*
X208083570Y-38768628D02*
X208083570Y-38530533D01*
X208083570Y-38530533D02*
X208035951Y-38387676D01*
X208035951Y-38387676D02*
X207940713Y-38292438D01*
X207940713Y-38292438D02*
X207797856Y-38244819D01*
X207797856Y-38244819D02*
X207607380Y-38244819D01*
X207607380Y-38244819D02*
X207464523Y-38292438D01*
X207464523Y-38292438D02*
X207369285Y-38387676D01*
X207369285Y-38387676D02*
X207321666Y-38530533D01*
X207321666Y-38530533D02*
X207321666Y-38768628D01*
X207321666Y-38768628D02*
X207369285Y-38911485D01*
X207369285Y-38911485D02*
X207464523Y-39006723D01*
X207464523Y-39006723D02*
X207559761Y-39054342D01*
X207559761Y-39054342D02*
X207559761Y-39244819D01*
X207559761Y-39244819D02*
X207321666Y-39244819D01*
X164064819Y-26113333D02*
X164064819Y-25541905D01*
X164064819Y-25827619D02*
X163064819Y-25827619D01*
X163064819Y-25827619D02*
X163207676Y-25732381D01*
X163207676Y-25732381D02*
X163302914Y-25637143D01*
X163302914Y-25637143D02*
X163350533Y-25541905D01*
X163064819Y-26732381D02*
X163064819Y-26827619D01*
X163064819Y-26827619D02*
X163112438Y-26922857D01*
X163112438Y-26922857D02*
X163160057Y-26970476D01*
X163160057Y-26970476D02*
X163255295Y-27018095D01*
X163255295Y-27018095D02*
X163445771Y-27065714D01*
X163445771Y-27065714D02*
X163683866Y-27065714D01*
X163683866Y-27065714D02*
X163874342Y-27018095D01*
X163874342Y-27018095D02*
X163969580Y-26970476D01*
X163969580Y-26970476D02*
X164017200Y-26922857D01*
X164017200Y-26922857D02*
X164064819Y-26827619D01*
X164064819Y-26827619D02*
X164064819Y-26732381D01*
X164064819Y-26732381D02*
X164017200Y-26637143D01*
X164017200Y-26637143D02*
X163969580Y-26589524D01*
X163969580Y-26589524D02*
X163874342Y-26541905D01*
X163874342Y-26541905D02*
X163683866Y-26494286D01*
X163683866Y-26494286D02*
X163445771Y-26494286D01*
X163445771Y-26494286D02*
X163255295Y-26541905D01*
X163255295Y-26541905D02*
X163160057Y-26589524D01*
X163160057Y-26589524D02*
X163112438Y-26637143D01*
X163112438Y-26637143D02*
X163064819Y-26732381D01*
X163064819Y-27922857D02*
X163064819Y-27732381D01*
X163064819Y-27732381D02*
X163112438Y-27637143D01*
X163112438Y-27637143D02*
X163160057Y-27589524D01*
X163160057Y-27589524D02*
X163302914Y-27494286D01*
X163302914Y-27494286D02*
X163493390Y-27446667D01*
X163493390Y-27446667D02*
X163874342Y-27446667D01*
X163874342Y-27446667D02*
X163969580Y-27494286D01*
X163969580Y-27494286D02*
X164017200Y-27541905D01*
X164017200Y-27541905D02*
X164064819Y-27637143D01*
X164064819Y-27637143D02*
X164064819Y-27827619D01*
X164064819Y-27827619D02*
X164017200Y-27922857D01*
X164017200Y-27922857D02*
X163969580Y-27970476D01*
X163969580Y-27970476D02*
X163874342Y-28018095D01*
X163874342Y-28018095D02*
X163636247Y-28018095D01*
X163636247Y-28018095D02*
X163541009Y-27970476D01*
X163541009Y-27970476D02*
X163493390Y-27922857D01*
X163493390Y-27922857D02*
X163445771Y-27827619D01*
X163445771Y-27827619D02*
X163445771Y-27637143D01*
X163445771Y-27637143D02*
X163493390Y-27541905D01*
X163493390Y-27541905D02*
X163541009Y-27494286D01*
X163541009Y-27494286D02*
X163636247Y-27446667D01*
X171687142Y-25510057D02*
X171639523Y-25462438D01*
X171639523Y-25462438D02*
X171544285Y-25414819D01*
X171544285Y-25414819D02*
X171306190Y-25414819D01*
X171306190Y-25414819D02*
X171210952Y-25462438D01*
X171210952Y-25462438D02*
X171163333Y-25510057D01*
X171163333Y-25510057D02*
X171115714Y-25605295D01*
X171115714Y-25605295D02*
X171115714Y-25700533D01*
X171115714Y-25700533D02*
X171163333Y-25843390D01*
X171163333Y-25843390D02*
X171734761Y-26414819D01*
X171734761Y-26414819D02*
X171115714Y-26414819D01*
X170687142Y-26414819D02*
X170687142Y-25414819D01*
X170115714Y-26414819D02*
X170544285Y-25843390D01*
X170115714Y-25414819D02*
X170687142Y-25986247D01*
X169734761Y-26414819D02*
X169496666Y-26414819D01*
X169496666Y-26414819D02*
X169496666Y-26224342D01*
X169496666Y-26224342D02*
X169591904Y-26176723D01*
X169591904Y-26176723D02*
X169687142Y-26081485D01*
X169687142Y-26081485D02*
X169734761Y-25938628D01*
X169734761Y-25938628D02*
X169734761Y-25700533D01*
X169734761Y-25700533D02*
X169687142Y-25557676D01*
X169687142Y-25557676D02*
X169591904Y-25462438D01*
X169591904Y-25462438D02*
X169449047Y-25414819D01*
X169449047Y-25414819D02*
X169258571Y-25414819D01*
X169258571Y-25414819D02*
X169115714Y-25462438D01*
X169115714Y-25462438D02*
X169020476Y-25557676D01*
X169020476Y-25557676D02*
X168972857Y-25700533D01*
X168972857Y-25700533D02*
X168972857Y-25938628D01*
X168972857Y-25938628D02*
X169020476Y-26081485D01*
X169020476Y-26081485D02*
X169115714Y-26176723D01*
X169115714Y-26176723D02*
X169210952Y-26224342D01*
X169210952Y-26224342D02*
X169210952Y-26414819D01*
X169210952Y-26414819D02*
X168972857Y-26414819D01*
X171616904Y-39244819D02*
X172188332Y-39244819D01*
X171902618Y-39244819D02*
X171902618Y-38244819D01*
X171902618Y-38244819D02*
X171997856Y-38387676D01*
X171997856Y-38387676D02*
X172093094Y-38482914D01*
X172093094Y-38482914D02*
X172188332Y-38530533D01*
X170997856Y-38244819D02*
X170902618Y-38244819D01*
X170902618Y-38244819D02*
X170807380Y-38292438D01*
X170807380Y-38292438D02*
X170759761Y-38340057D01*
X170759761Y-38340057D02*
X170712142Y-38435295D01*
X170712142Y-38435295D02*
X170664523Y-38625771D01*
X170664523Y-38625771D02*
X170664523Y-38863866D01*
X170664523Y-38863866D02*
X170712142Y-39054342D01*
X170712142Y-39054342D02*
X170759761Y-39149580D01*
X170759761Y-39149580D02*
X170807380Y-39197200D01*
X170807380Y-39197200D02*
X170902618Y-39244819D01*
X170902618Y-39244819D02*
X170997856Y-39244819D01*
X170997856Y-39244819D02*
X171093094Y-39197200D01*
X171093094Y-39197200D02*
X171140713Y-39149580D01*
X171140713Y-39149580D02*
X171188332Y-39054342D01*
X171188332Y-39054342D02*
X171235951Y-38863866D01*
X171235951Y-38863866D02*
X171235951Y-38625771D01*
X171235951Y-38625771D02*
X171188332Y-38435295D01*
X171188332Y-38435295D02*
X171140713Y-38340057D01*
X171140713Y-38340057D02*
X171093094Y-38292438D01*
X171093094Y-38292438D02*
X170997856Y-38244819D01*
X170235951Y-39244819D02*
X170235951Y-38244819D01*
X169664523Y-39244819D02*
X170093094Y-38673390D01*
X169664523Y-38244819D02*
X170235951Y-38816247D01*
X169283570Y-39244819D02*
X169045475Y-39244819D01*
X169045475Y-39244819D02*
X169045475Y-39054342D01*
X169045475Y-39054342D02*
X169140713Y-39006723D01*
X169140713Y-39006723D02*
X169235951Y-38911485D01*
X169235951Y-38911485D02*
X169283570Y-38768628D01*
X169283570Y-38768628D02*
X169283570Y-38530533D01*
X169283570Y-38530533D02*
X169235951Y-38387676D01*
X169235951Y-38387676D02*
X169140713Y-38292438D01*
X169140713Y-38292438D02*
X168997856Y-38244819D01*
X168997856Y-38244819D02*
X168807380Y-38244819D01*
X168807380Y-38244819D02*
X168664523Y-38292438D01*
X168664523Y-38292438D02*
X168569285Y-38387676D01*
X168569285Y-38387676D02*
X168521666Y-38530533D01*
X168521666Y-38530533D02*
X168521666Y-38768628D01*
X168521666Y-38768628D02*
X168569285Y-38911485D01*
X168569285Y-38911485D02*
X168664523Y-39006723D01*
X168664523Y-39006723D02*
X168759761Y-39054342D01*
X168759761Y-39054342D02*
X168759761Y-39244819D01*
X168759761Y-39244819D02*
X168521666Y-39244819D01*
X125264819Y-26113333D02*
X125264819Y-25541905D01*
X125264819Y-25827619D02*
X124264819Y-25827619D01*
X124264819Y-25827619D02*
X124407676Y-25732381D01*
X124407676Y-25732381D02*
X124502914Y-25637143D01*
X124502914Y-25637143D02*
X124550533Y-25541905D01*
X124264819Y-26732381D02*
X124264819Y-26827619D01*
X124264819Y-26827619D02*
X124312438Y-26922857D01*
X124312438Y-26922857D02*
X124360057Y-26970476D01*
X124360057Y-26970476D02*
X124455295Y-27018095D01*
X124455295Y-27018095D02*
X124645771Y-27065714D01*
X124645771Y-27065714D02*
X124883866Y-27065714D01*
X124883866Y-27065714D02*
X125074342Y-27018095D01*
X125074342Y-27018095D02*
X125169580Y-26970476D01*
X125169580Y-26970476D02*
X125217200Y-26922857D01*
X125217200Y-26922857D02*
X125264819Y-26827619D01*
X125264819Y-26827619D02*
X125264819Y-26732381D01*
X125264819Y-26732381D02*
X125217200Y-26637143D01*
X125217200Y-26637143D02*
X125169580Y-26589524D01*
X125169580Y-26589524D02*
X125074342Y-26541905D01*
X125074342Y-26541905D02*
X124883866Y-26494286D01*
X124883866Y-26494286D02*
X124645771Y-26494286D01*
X124645771Y-26494286D02*
X124455295Y-26541905D01*
X124455295Y-26541905D02*
X124360057Y-26589524D01*
X124360057Y-26589524D02*
X124312438Y-26637143D01*
X124312438Y-26637143D02*
X124264819Y-26732381D01*
X124264819Y-27922857D02*
X124264819Y-27732381D01*
X124264819Y-27732381D02*
X124312438Y-27637143D01*
X124312438Y-27637143D02*
X124360057Y-27589524D01*
X124360057Y-27589524D02*
X124502914Y-27494286D01*
X124502914Y-27494286D02*
X124693390Y-27446667D01*
X124693390Y-27446667D02*
X125074342Y-27446667D01*
X125074342Y-27446667D02*
X125169580Y-27494286D01*
X125169580Y-27494286D02*
X125217200Y-27541905D01*
X125217200Y-27541905D02*
X125264819Y-27637143D01*
X125264819Y-27637143D02*
X125264819Y-27827619D01*
X125264819Y-27827619D02*
X125217200Y-27922857D01*
X125217200Y-27922857D02*
X125169580Y-27970476D01*
X125169580Y-27970476D02*
X125074342Y-28018095D01*
X125074342Y-28018095D02*
X124836247Y-28018095D01*
X124836247Y-28018095D02*
X124741009Y-27970476D01*
X124741009Y-27970476D02*
X124693390Y-27922857D01*
X124693390Y-27922857D02*
X124645771Y-27827619D01*
X124645771Y-27827619D02*
X124645771Y-27637143D01*
X124645771Y-27637143D02*
X124693390Y-27541905D01*
X124693390Y-27541905D02*
X124741009Y-27494286D01*
X124741009Y-27494286D02*
X124836247Y-27446667D01*
X132887142Y-25510057D02*
X132839523Y-25462438D01*
X132839523Y-25462438D02*
X132744285Y-25414819D01*
X132744285Y-25414819D02*
X132506190Y-25414819D01*
X132506190Y-25414819D02*
X132410952Y-25462438D01*
X132410952Y-25462438D02*
X132363333Y-25510057D01*
X132363333Y-25510057D02*
X132315714Y-25605295D01*
X132315714Y-25605295D02*
X132315714Y-25700533D01*
X132315714Y-25700533D02*
X132363333Y-25843390D01*
X132363333Y-25843390D02*
X132934761Y-26414819D01*
X132934761Y-26414819D02*
X132315714Y-26414819D01*
X131887142Y-26414819D02*
X131887142Y-25414819D01*
X131315714Y-26414819D02*
X131744285Y-25843390D01*
X131315714Y-25414819D02*
X131887142Y-25986247D01*
X130934761Y-26414819D02*
X130696666Y-26414819D01*
X130696666Y-26414819D02*
X130696666Y-26224342D01*
X130696666Y-26224342D02*
X130791904Y-26176723D01*
X130791904Y-26176723D02*
X130887142Y-26081485D01*
X130887142Y-26081485D02*
X130934761Y-25938628D01*
X130934761Y-25938628D02*
X130934761Y-25700533D01*
X130934761Y-25700533D02*
X130887142Y-25557676D01*
X130887142Y-25557676D02*
X130791904Y-25462438D01*
X130791904Y-25462438D02*
X130649047Y-25414819D01*
X130649047Y-25414819D02*
X130458571Y-25414819D01*
X130458571Y-25414819D02*
X130315714Y-25462438D01*
X130315714Y-25462438D02*
X130220476Y-25557676D01*
X130220476Y-25557676D02*
X130172857Y-25700533D01*
X130172857Y-25700533D02*
X130172857Y-25938628D01*
X130172857Y-25938628D02*
X130220476Y-26081485D01*
X130220476Y-26081485D02*
X130315714Y-26176723D01*
X130315714Y-26176723D02*
X130410952Y-26224342D01*
X130410952Y-26224342D02*
X130410952Y-26414819D01*
X130410952Y-26414819D02*
X130172857Y-26414819D01*
X132816904Y-39244819D02*
X133388332Y-39244819D01*
X133102618Y-39244819D02*
X133102618Y-38244819D01*
X133102618Y-38244819D02*
X133197856Y-38387676D01*
X133197856Y-38387676D02*
X133293094Y-38482914D01*
X133293094Y-38482914D02*
X133388332Y-38530533D01*
X132197856Y-38244819D02*
X132102618Y-38244819D01*
X132102618Y-38244819D02*
X132007380Y-38292438D01*
X132007380Y-38292438D02*
X131959761Y-38340057D01*
X131959761Y-38340057D02*
X131912142Y-38435295D01*
X131912142Y-38435295D02*
X131864523Y-38625771D01*
X131864523Y-38625771D02*
X131864523Y-38863866D01*
X131864523Y-38863866D02*
X131912142Y-39054342D01*
X131912142Y-39054342D02*
X131959761Y-39149580D01*
X131959761Y-39149580D02*
X132007380Y-39197200D01*
X132007380Y-39197200D02*
X132102618Y-39244819D01*
X132102618Y-39244819D02*
X132197856Y-39244819D01*
X132197856Y-39244819D02*
X132293094Y-39197200D01*
X132293094Y-39197200D02*
X132340713Y-39149580D01*
X132340713Y-39149580D02*
X132388332Y-39054342D01*
X132388332Y-39054342D02*
X132435951Y-38863866D01*
X132435951Y-38863866D02*
X132435951Y-38625771D01*
X132435951Y-38625771D02*
X132388332Y-38435295D01*
X132388332Y-38435295D02*
X132340713Y-38340057D01*
X132340713Y-38340057D02*
X132293094Y-38292438D01*
X132293094Y-38292438D02*
X132197856Y-38244819D01*
X131435951Y-39244819D02*
X131435951Y-38244819D01*
X130864523Y-39244819D02*
X131293094Y-38673390D01*
X130864523Y-38244819D02*
X131435951Y-38816247D01*
X130483570Y-39244819D02*
X130245475Y-39244819D01*
X130245475Y-39244819D02*
X130245475Y-39054342D01*
X130245475Y-39054342D02*
X130340713Y-39006723D01*
X130340713Y-39006723D02*
X130435951Y-38911485D01*
X130435951Y-38911485D02*
X130483570Y-38768628D01*
X130483570Y-38768628D02*
X130483570Y-38530533D01*
X130483570Y-38530533D02*
X130435951Y-38387676D01*
X130435951Y-38387676D02*
X130340713Y-38292438D01*
X130340713Y-38292438D02*
X130197856Y-38244819D01*
X130197856Y-38244819D02*
X130007380Y-38244819D01*
X130007380Y-38244819D02*
X129864523Y-38292438D01*
X129864523Y-38292438D02*
X129769285Y-38387676D01*
X129769285Y-38387676D02*
X129721666Y-38530533D01*
X129721666Y-38530533D02*
X129721666Y-38768628D01*
X129721666Y-38768628D02*
X129769285Y-38911485D01*
X129769285Y-38911485D02*
X129864523Y-39006723D01*
X129864523Y-39006723D02*
X129959761Y-39054342D01*
X129959761Y-39054342D02*
X129959761Y-39244819D01*
X129959761Y-39244819D02*
X129721666Y-39244819D01*
X86464819Y-26113333D02*
X86464819Y-25541905D01*
X86464819Y-25827619D02*
X85464819Y-25827619D01*
X85464819Y-25827619D02*
X85607676Y-25732381D01*
X85607676Y-25732381D02*
X85702914Y-25637143D01*
X85702914Y-25637143D02*
X85750533Y-25541905D01*
X85464819Y-26732381D02*
X85464819Y-26827619D01*
X85464819Y-26827619D02*
X85512438Y-26922857D01*
X85512438Y-26922857D02*
X85560057Y-26970476D01*
X85560057Y-26970476D02*
X85655295Y-27018095D01*
X85655295Y-27018095D02*
X85845771Y-27065714D01*
X85845771Y-27065714D02*
X86083866Y-27065714D01*
X86083866Y-27065714D02*
X86274342Y-27018095D01*
X86274342Y-27018095D02*
X86369580Y-26970476D01*
X86369580Y-26970476D02*
X86417200Y-26922857D01*
X86417200Y-26922857D02*
X86464819Y-26827619D01*
X86464819Y-26827619D02*
X86464819Y-26732381D01*
X86464819Y-26732381D02*
X86417200Y-26637143D01*
X86417200Y-26637143D02*
X86369580Y-26589524D01*
X86369580Y-26589524D02*
X86274342Y-26541905D01*
X86274342Y-26541905D02*
X86083866Y-26494286D01*
X86083866Y-26494286D02*
X85845771Y-26494286D01*
X85845771Y-26494286D02*
X85655295Y-26541905D01*
X85655295Y-26541905D02*
X85560057Y-26589524D01*
X85560057Y-26589524D02*
X85512438Y-26637143D01*
X85512438Y-26637143D02*
X85464819Y-26732381D01*
X85464819Y-27922857D02*
X85464819Y-27732381D01*
X85464819Y-27732381D02*
X85512438Y-27637143D01*
X85512438Y-27637143D02*
X85560057Y-27589524D01*
X85560057Y-27589524D02*
X85702914Y-27494286D01*
X85702914Y-27494286D02*
X85893390Y-27446667D01*
X85893390Y-27446667D02*
X86274342Y-27446667D01*
X86274342Y-27446667D02*
X86369580Y-27494286D01*
X86369580Y-27494286D02*
X86417200Y-27541905D01*
X86417200Y-27541905D02*
X86464819Y-27637143D01*
X86464819Y-27637143D02*
X86464819Y-27827619D01*
X86464819Y-27827619D02*
X86417200Y-27922857D01*
X86417200Y-27922857D02*
X86369580Y-27970476D01*
X86369580Y-27970476D02*
X86274342Y-28018095D01*
X86274342Y-28018095D02*
X86036247Y-28018095D01*
X86036247Y-28018095D02*
X85941009Y-27970476D01*
X85941009Y-27970476D02*
X85893390Y-27922857D01*
X85893390Y-27922857D02*
X85845771Y-27827619D01*
X85845771Y-27827619D02*
X85845771Y-27637143D01*
X85845771Y-27637143D02*
X85893390Y-27541905D01*
X85893390Y-27541905D02*
X85941009Y-27494286D01*
X85941009Y-27494286D02*
X86036247Y-27446667D01*
X94087142Y-25510057D02*
X94039523Y-25462438D01*
X94039523Y-25462438D02*
X93944285Y-25414819D01*
X93944285Y-25414819D02*
X93706190Y-25414819D01*
X93706190Y-25414819D02*
X93610952Y-25462438D01*
X93610952Y-25462438D02*
X93563333Y-25510057D01*
X93563333Y-25510057D02*
X93515714Y-25605295D01*
X93515714Y-25605295D02*
X93515714Y-25700533D01*
X93515714Y-25700533D02*
X93563333Y-25843390D01*
X93563333Y-25843390D02*
X94134761Y-26414819D01*
X94134761Y-26414819D02*
X93515714Y-26414819D01*
X93087142Y-26414819D02*
X93087142Y-25414819D01*
X92515714Y-26414819D02*
X92944285Y-25843390D01*
X92515714Y-25414819D02*
X93087142Y-25986247D01*
X92134761Y-26414819D02*
X91896666Y-26414819D01*
X91896666Y-26414819D02*
X91896666Y-26224342D01*
X91896666Y-26224342D02*
X91991904Y-26176723D01*
X91991904Y-26176723D02*
X92087142Y-26081485D01*
X92087142Y-26081485D02*
X92134761Y-25938628D01*
X92134761Y-25938628D02*
X92134761Y-25700533D01*
X92134761Y-25700533D02*
X92087142Y-25557676D01*
X92087142Y-25557676D02*
X91991904Y-25462438D01*
X91991904Y-25462438D02*
X91849047Y-25414819D01*
X91849047Y-25414819D02*
X91658571Y-25414819D01*
X91658571Y-25414819D02*
X91515714Y-25462438D01*
X91515714Y-25462438D02*
X91420476Y-25557676D01*
X91420476Y-25557676D02*
X91372857Y-25700533D01*
X91372857Y-25700533D02*
X91372857Y-25938628D01*
X91372857Y-25938628D02*
X91420476Y-26081485D01*
X91420476Y-26081485D02*
X91515714Y-26176723D01*
X91515714Y-26176723D02*
X91610952Y-26224342D01*
X91610952Y-26224342D02*
X91610952Y-26414819D01*
X91610952Y-26414819D02*
X91372857Y-26414819D01*
X94016904Y-39244819D02*
X94588332Y-39244819D01*
X94302618Y-39244819D02*
X94302618Y-38244819D01*
X94302618Y-38244819D02*
X94397856Y-38387676D01*
X94397856Y-38387676D02*
X94493094Y-38482914D01*
X94493094Y-38482914D02*
X94588332Y-38530533D01*
X93397856Y-38244819D02*
X93302618Y-38244819D01*
X93302618Y-38244819D02*
X93207380Y-38292438D01*
X93207380Y-38292438D02*
X93159761Y-38340057D01*
X93159761Y-38340057D02*
X93112142Y-38435295D01*
X93112142Y-38435295D02*
X93064523Y-38625771D01*
X93064523Y-38625771D02*
X93064523Y-38863866D01*
X93064523Y-38863866D02*
X93112142Y-39054342D01*
X93112142Y-39054342D02*
X93159761Y-39149580D01*
X93159761Y-39149580D02*
X93207380Y-39197200D01*
X93207380Y-39197200D02*
X93302618Y-39244819D01*
X93302618Y-39244819D02*
X93397856Y-39244819D01*
X93397856Y-39244819D02*
X93493094Y-39197200D01*
X93493094Y-39197200D02*
X93540713Y-39149580D01*
X93540713Y-39149580D02*
X93588332Y-39054342D01*
X93588332Y-39054342D02*
X93635951Y-38863866D01*
X93635951Y-38863866D02*
X93635951Y-38625771D01*
X93635951Y-38625771D02*
X93588332Y-38435295D01*
X93588332Y-38435295D02*
X93540713Y-38340057D01*
X93540713Y-38340057D02*
X93493094Y-38292438D01*
X93493094Y-38292438D02*
X93397856Y-38244819D01*
X92635951Y-39244819D02*
X92635951Y-38244819D01*
X92064523Y-39244819D02*
X92493094Y-38673390D01*
X92064523Y-38244819D02*
X92635951Y-38816247D01*
X91683570Y-39244819D02*
X91445475Y-39244819D01*
X91445475Y-39244819D02*
X91445475Y-39054342D01*
X91445475Y-39054342D02*
X91540713Y-39006723D01*
X91540713Y-39006723D02*
X91635951Y-38911485D01*
X91635951Y-38911485D02*
X91683570Y-38768628D01*
X91683570Y-38768628D02*
X91683570Y-38530533D01*
X91683570Y-38530533D02*
X91635951Y-38387676D01*
X91635951Y-38387676D02*
X91540713Y-38292438D01*
X91540713Y-38292438D02*
X91397856Y-38244819D01*
X91397856Y-38244819D02*
X91207380Y-38244819D01*
X91207380Y-38244819D02*
X91064523Y-38292438D01*
X91064523Y-38292438D02*
X90969285Y-38387676D01*
X90969285Y-38387676D02*
X90921666Y-38530533D01*
X90921666Y-38530533D02*
X90921666Y-38768628D01*
X90921666Y-38768628D02*
X90969285Y-38911485D01*
X90969285Y-38911485D02*
X91064523Y-39006723D01*
X91064523Y-39006723D02*
X91159761Y-39054342D01*
X91159761Y-39054342D02*
X91159761Y-39244819D01*
X91159761Y-39244819D02*
X90921666Y-39244819D01*
X55216904Y-39244819D02*
X55788332Y-39244819D01*
X55502618Y-39244819D02*
X55502618Y-38244819D01*
X55502618Y-38244819D02*
X55597856Y-38387676D01*
X55597856Y-38387676D02*
X55693094Y-38482914D01*
X55693094Y-38482914D02*
X55788332Y-38530533D01*
X54597856Y-38244819D02*
X54502618Y-38244819D01*
X54502618Y-38244819D02*
X54407380Y-38292438D01*
X54407380Y-38292438D02*
X54359761Y-38340057D01*
X54359761Y-38340057D02*
X54312142Y-38435295D01*
X54312142Y-38435295D02*
X54264523Y-38625771D01*
X54264523Y-38625771D02*
X54264523Y-38863866D01*
X54264523Y-38863866D02*
X54312142Y-39054342D01*
X54312142Y-39054342D02*
X54359761Y-39149580D01*
X54359761Y-39149580D02*
X54407380Y-39197200D01*
X54407380Y-39197200D02*
X54502618Y-39244819D01*
X54502618Y-39244819D02*
X54597856Y-39244819D01*
X54597856Y-39244819D02*
X54693094Y-39197200D01*
X54693094Y-39197200D02*
X54740713Y-39149580D01*
X54740713Y-39149580D02*
X54788332Y-39054342D01*
X54788332Y-39054342D02*
X54835951Y-38863866D01*
X54835951Y-38863866D02*
X54835951Y-38625771D01*
X54835951Y-38625771D02*
X54788332Y-38435295D01*
X54788332Y-38435295D02*
X54740713Y-38340057D01*
X54740713Y-38340057D02*
X54693094Y-38292438D01*
X54693094Y-38292438D02*
X54597856Y-38244819D01*
X53835951Y-39244819D02*
X53835951Y-38244819D01*
X53264523Y-39244819D02*
X53693094Y-38673390D01*
X53264523Y-38244819D02*
X53835951Y-38816247D01*
X52883570Y-39244819D02*
X52645475Y-39244819D01*
X52645475Y-39244819D02*
X52645475Y-39054342D01*
X52645475Y-39054342D02*
X52740713Y-39006723D01*
X52740713Y-39006723D02*
X52835951Y-38911485D01*
X52835951Y-38911485D02*
X52883570Y-38768628D01*
X52883570Y-38768628D02*
X52883570Y-38530533D01*
X52883570Y-38530533D02*
X52835951Y-38387676D01*
X52835951Y-38387676D02*
X52740713Y-38292438D01*
X52740713Y-38292438D02*
X52597856Y-38244819D01*
X52597856Y-38244819D02*
X52407380Y-38244819D01*
X52407380Y-38244819D02*
X52264523Y-38292438D01*
X52264523Y-38292438D02*
X52169285Y-38387676D01*
X52169285Y-38387676D02*
X52121666Y-38530533D01*
X52121666Y-38530533D02*
X52121666Y-38768628D01*
X52121666Y-38768628D02*
X52169285Y-38911485D01*
X52169285Y-38911485D02*
X52264523Y-39006723D01*
X52264523Y-39006723D02*
X52359761Y-39054342D01*
X52359761Y-39054342D02*
X52359761Y-39244819D01*
X52359761Y-39244819D02*
X52121666Y-39244819D01*
X55287142Y-25510057D02*
X55239523Y-25462438D01*
X55239523Y-25462438D02*
X55144285Y-25414819D01*
X55144285Y-25414819D02*
X54906190Y-25414819D01*
X54906190Y-25414819D02*
X54810952Y-25462438D01*
X54810952Y-25462438D02*
X54763333Y-25510057D01*
X54763333Y-25510057D02*
X54715714Y-25605295D01*
X54715714Y-25605295D02*
X54715714Y-25700533D01*
X54715714Y-25700533D02*
X54763333Y-25843390D01*
X54763333Y-25843390D02*
X55334761Y-26414819D01*
X55334761Y-26414819D02*
X54715714Y-26414819D01*
X54287142Y-26414819D02*
X54287142Y-25414819D01*
X53715714Y-26414819D02*
X54144285Y-25843390D01*
X53715714Y-25414819D02*
X54287142Y-25986247D01*
X53334761Y-26414819D02*
X53096666Y-26414819D01*
X53096666Y-26414819D02*
X53096666Y-26224342D01*
X53096666Y-26224342D02*
X53191904Y-26176723D01*
X53191904Y-26176723D02*
X53287142Y-26081485D01*
X53287142Y-26081485D02*
X53334761Y-25938628D01*
X53334761Y-25938628D02*
X53334761Y-25700533D01*
X53334761Y-25700533D02*
X53287142Y-25557676D01*
X53287142Y-25557676D02*
X53191904Y-25462438D01*
X53191904Y-25462438D02*
X53049047Y-25414819D01*
X53049047Y-25414819D02*
X52858571Y-25414819D01*
X52858571Y-25414819D02*
X52715714Y-25462438D01*
X52715714Y-25462438D02*
X52620476Y-25557676D01*
X52620476Y-25557676D02*
X52572857Y-25700533D01*
X52572857Y-25700533D02*
X52572857Y-25938628D01*
X52572857Y-25938628D02*
X52620476Y-26081485D01*
X52620476Y-26081485D02*
X52715714Y-26176723D01*
X52715714Y-26176723D02*
X52810952Y-26224342D01*
X52810952Y-26224342D02*
X52810952Y-26414819D01*
X52810952Y-26414819D02*
X52572857Y-26414819D01*
X47664819Y-26113333D02*
X47664819Y-25541905D01*
X47664819Y-25827619D02*
X46664819Y-25827619D01*
X46664819Y-25827619D02*
X46807676Y-25732381D01*
X46807676Y-25732381D02*
X46902914Y-25637143D01*
X46902914Y-25637143D02*
X46950533Y-25541905D01*
X46664819Y-26732381D02*
X46664819Y-26827619D01*
X46664819Y-26827619D02*
X46712438Y-26922857D01*
X46712438Y-26922857D02*
X46760057Y-26970476D01*
X46760057Y-26970476D02*
X46855295Y-27018095D01*
X46855295Y-27018095D02*
X47045771Y-27065714D01*
X47045771Y-27065714D02*
X47283866Y-27065714D01*
X47283866Y-27065714D02*
X47474342Y-27018095D01*
X47474342Y-27018095D02*
X47569580Y-26970476D01*
X47569580Y-26970476D02*
X47617200Y-26922857D01*
X47617200Y-26922857D02*
X47664819Y-26827619D01*
X47664819Y-26827619D02*
X47664819Y-26732381D01*
X47664819Y-26732381D02*
X47617200Y-26637143D01*
X47617200Y-26637143D02*
X47569580Y-26589524D01*
X47569580Y-26589524D02*
X47474342Y-26541905D01*
X47474342Y-26541905D02*
X47283866Y-26494286D01*
X47283866Y-26494286D02*
X47045771Y-26494286D01*
X47045771Y-26494286D02*
X46855295Y-26541905D01*
X46855295Y-26541905D02*
X46760057Y-26589524D01*
X46760057Y-26589524D02*
X46712438Y-26637143D01*
X46712438Y-26637143D02*
X46664819Y-26732381D01*
X46664819Y-27922857D02*
X46664819Y-27732381D01*
X46664819Y-27732381D02*
X46712438Y-27637143D01*
X46712438Y-27637143D02*
X46760057Y-27589524D01*
X46760057Y-27589524D02*
X46902914Y-27494286D01*
X46902914Y-27494286D02*
X47093390Y-27446667D01*
X47093390Y-27446667D02*
X47474342Y-27446667D01*
X47474342Y-27446667D02*
X47569580Y-27494286D01*
X47569580Y-27494286D02*
X47617200Y-27541905D01*
X47617200Y-27541905D02*
X47664819Y-27637143D01*
X47664819Y-27637143D02*
X47664819Y-27827619D01*
X47664819Y-27827619D02*
X47617200Y-27922857D01*
X47617200Y-27922857D02*
X47569580Y-27970476D01*
X47569580Y-27970476D02*
X47474342Y-28018095D01*
X47474342Y-28018095D02*
X47236247Y-28018095D01*
X47236247Y-28018095D02*
X47141009Y-27970476D01*
X47141009Y-27970476D02*
X47093390Y-27922857D01*
X47093390Y-27922857D02*
X47045771Y-27827619D01*
X47045771Y-27827619D02*
X47045771Y-27637143D01*
X47045771Y-27637143D02*
X47093390Y-27541905D01*
X47093390Y-27541905D02*
X47141009Y-27494286D01*
X47141009Y-27494286D02*
X47236247Y-27446667D01*
D11*
%TO.C,C3*%
X203360000Y-157880000D02*
X203360000Y-162380000D01*
X203360000Y-162380000D02*
X205360000Y-162380000D01*
X203510000Y-159630000D02*
X203510000Y-160630000D01*
X204360000Y-159705000D02*
X204360000Y-159980000D01*
X204360000Y-160555000D02*
X204360000Y-160330000D01*
X204710000Y-159980000D02*
X204010000Y-159980000D01*
X204710000Y-160280000D02*
X204010000Y-160280000D01*
X205210000Y-160630000D02*
X205210000Y-159630000D01*
X205360000Y-157880000D02*
X203360000Y-157880000D01*
X205360000Y-162380000D02*
X205360000Y-157880000D01*
%TO.C,R2*%
X206780000Y-160310000D02*
X206780000Y-162310000D01*
X206780000Y-162310000D02*
X211480000Y-162310000D01*
D12*
X208880000Y-161060000D02*
X208680000Y-161510000D01*
X209130000Y-161560000D02*
X208880000Y-161060000D01*
X209380000Y-161060000D02*
X209130000Y-161560000D01*
X209580000Y-161510000D02*
X209380000Y-161060000D01*
D11*
X211480000Y-160310000D02*
X206780000Y-160310000D01*
X211480000Y-162310000D02*
X211480000Y-160310000D01*
%TO.C,R10*%
X206780000Y-173000000D02*
X211480000Y-173000000D01*
X206780000Y-175000000D02*
X206780000Y-173000000D01*
D12*
X208880000Y-174250000D02*
X208680000Y-173800000D01*
X209130000Y-173750000D02*
X208880000Y-174250000D01*
X209380000Y-174250000D02*
X209130000Y-173750000D01*
X209580000Y-173800000D02*
X209380000Y-174250000D01*
D11*
X211480000Y-173000000D02*
X211480000Y-175000000D01*
X211480000Y-175000000D02*
X206780000Y-175000000D01*
%TO.C,J5*%
X220630000Y-160750000D02*
X220630000Y-162320000D01*
X220630000Y-173370000D02*
X220630000Y-171800000D01*
%TO.C,C3*%
X164560000Y-157880000D02*
X164560000Y-162380000D01*
X164560000Y-162380000D02*
X166560000Y-162380000D01*
X164710000Y-159630000D02*
X164710000Y-160630000D01*
X165560000Y-159705000D02*
X165560000Y-159980000D01*
X165560000Y-160555000D02*
X165560000Y-160330000D01*
X165910000Y-159980000D02*
X165210000Y-159980000D01*
X165910000Y-160280000D02*
X165210000Y-160280000D01*
X166410000Y-160630000D02*
X166410000Y-159630000D01*
X166560000Y-157880000D02*
X164560000Y-157880000D01*
X166560000Y-162380000D02*
X166560000Y-157880000D01*
%TO.C,R2*%
X167980000Y-160310000D02*
X167980000Y-162310000D01*
X167980000Y-162310000D02*
X172680000Y-162310000D01*
D12*
X170080000Y-161060000D02*
X169880000Y-161510000D01*
X170330000Y-161560000D02*
X170080000Y-161060000D01*
X170580000Y-161060000D02*
X170330000Y-161560000D01*
X170780000Y-161510000D02*
X170580000Y-161060000D01*
D11*
X172680000Y-160310000D02*
X167980000Y-160310000D01*
X172680000Y-162310000D02*
X172680000Y-160310000D01*
%TO.C,R10*%
X167980000Y-173000000D02*
X172680000Y-173000000D01*
X167980000Y-175000000D02*
X167980000Y-173000000D01*
D12*
X170080000Y-174250000D02*
X169880000Y-173800000D01*
X170330000Y-173750000D02*
X170080000Y-174250000D01*
X170580000Y-174250000D02*
X170330000Y-173750000D01*
X170780000Y-173800000D02*
X170580000Y-174250000D01*
D11*
X172680000Y-173000000D02*
X172680000Y-175000000D01*
X172680000Y-175000000D02*
X167980000Y-175000000D01*
%TO.C,J5*%
X181830000Y-160750000D02*
X181830000Y-162320000D01*
X181830000Y-173370000D02*
X181830000Y-171800000D01*
%TO.C,C3*%
X125760000Y-157880000D02*
X125760000Y-162380000D01*
X125760000Y-162380000D02*
X127760000Y-162380000D01*
X125910000Y-159630000D02*
X125910000Y-160630000D01*
X126760000Y-159705000D02*
X126760000Y-159980000D01*
X126760000Y-160555000D02*
X126760000Y-160330000D01*
X127110000Y-159980000D02*
X126410000Y-159980000D01*
X127110000Y-160280000D02*
X126410000Y-160280000D01*
X127610000Y-160630000D02*
X127610000Y-159630000D01*
X127760000Y-157880000D02*
X125760000Y-157880000D01*
X127760000Y-162380000D02*
X127760000Y-157880000D01*
%TO.C,R2*%
X129180000Y-160310000D02*
X129180000Y-162310000D01*
X129180000Y-162310000D02*
X133880000Y-162310000D01*
D12*
X131280000Y-161060000D02*
X131080000Y-161510000D01*
X131530000Y-161560000D02*
X131280000Y-161060000D01*
X131780000Y-161060000D02*
X131530000Y-161560000D01*
X131980000Y-161510000D02*
X131780000Y-161060000D01*
D11*
X133880000Y-160310000D02*
X129180000Y-160310000D01*
X133880000Y-162310000D02*
X133880000Y-160310000D01*
%TO.C,R10*%
X129180000Y-173000000D02*
X133880000Y-173000000D01*
X129180000Y-175000000D02*
X129180000Y-173000000D01*
D12*
X131280000Y-174250000D02*
X131080000Y-173800000D01*
X131530000Y-173750000D02*
X131280000Y-174250000D01*
X131780000Y-174250000D02*
X131530000Y-173750000D01*
X131980000Y-173800000D02*
X131780000Y-174250000D01*
D11*
X133880000Y-173000000D02*
X133880000Y-175000000D01*
X133880000Y-175000000D02*
X129180000Y-175000000D01*
%TO.C,J5*%
X143030000Y-160750000D02*
X143030000Y-162320000D01*
X143030000Y-173370000D02*
X143030000Y-171800000D01*
%TO.C,C3*%
X86960000Y-157880000D02*
X86960000Y-162380000D01*
X86960000Y-162380000D02*
X88960000Y-162380000D01*
X87110000Y-159630000D02*
X87110000Y-160630000D01*
X87960000Y-159705000D02*
X87960000Y-159980000D01*
X87960000Y-160555000D02*
X87960000Y-160330000D01*
X88310000Y-159980000D02*
X87610000Y-159980000D01*
X88310000Y-160280000D02*
X87610000Y-160280000D01*
X88810000Y-160630000D02*
X88810000Y-159630000D01*
X88960000Y-157880000D02*
X86960000Y-157880000D01*
X88960000Y-162380000D02*
X88960000Y-157880000D01*
%TO.C,R2*%
X90380000Y-160310000D02*
X90380000Y-162310000D01*
X90380000Y-162310000D02*
X95080000Y-162310000D01*
D12*
X92480000Y-161060000D02*
X92280000Y-161510000D01*
X92730000Y-161560000D02*
X92480000Y-161060000D01*
X92980000Y-161060000D02*
X92730000Y-161560000D01*
X93180000Y-161510000D02*
X92980000Y-161060000D01*
D11*
X95080000Y-160310000D02*
X90380000Y-160310000D01*
X95080000Y-162310000D02*
X95080000Y-160310000D01*
%TO.C,R10*%
X90380000Y-173000000D02*
X95080000Y-173000000D01*
X90380000Y-175000000D02*
X90380000Y-173000000D01*
D12*
X92480000Y-174250000D02*
X92280000Y-173800000D01*
X92730000Y-173750000D02*
X92480000Y-174250000D01*
X92980000Y-174250000D02*
X92730000Y-173750000D01*
X93180000Y-173800000D02*
X92980000Y-174250000D01*
D11*
X95080000Y-173000000D02*
X95080000Y-175000000D01*
X95080000Y-175000000D02*
X90380000Y-175000000D01*
%TO.C,J5*%
X104230000Y-160750000D02*
X104230000Y-162320000D01*
X104230000Y-173370000D02*
X104230000Y-171800000D01*
%TO.C,C3*%
X48160000Y-157880000D02*
X48160000Y-162380000D01*
X48160000Y-162380000D02*
X50160000Y-162380000D01*
X48310000Y-159630000D02*
X48310000Y-160630000D01*
X49160000Y-159705000D02*
X49160000Y-159980000D01*
X49160000Y-160555000D02*
X49160000Y-160330000D01*
X49510000Y-159980000D02*
X48810000Y-159980000D01*
X49510000Y-160280000D02*
X48810000Y-160280000D01*
X50010000Y-160630000D02*
X50010000Y-159630000D01*
X50160000Y-157880000D02*
X48160000Y-157880000D01*
X50160000Y-162380000D02*
X50160000Y-157880000D01*
%TO.C,R2*%
X51580000Y-160310000D02*
X51580000Y-162310000D01*
X51580000Y-162310000D02*
X56280000Y-162310000D01*
D12*
X53680000Y-161060000D02*
X53480000Y-161510000D01*
X53930000Y-161560000D02*
X53680000Y-161060000D01*
X54180000Y-161060000D02*
X53930000Y-161560000D01*
X54380000Y-161510000D02*
X54180000Y-161060000D01*
D11*
X56280000Y-160310000D02*
X51580000Y-160310000D01*
X56280000Y-162310000D02*
X56280000Y-160310000D01*
%TO.C,R10*%
X51580000Y-173000000D02*
X56280000Y-173000000D01*
X51580000Y-175000000D02*
X51580000Y-173000000D01*
D12*
X53680000Y-174250000D02*
X53480000Y-173800000D01*
X53930000Y-173750000D02*
X53680000Y-174250000D01*
X54180000Y-174250000D02*
X53930000Y-173750000D01*
X54380000Y-173800000D02*
X54180000Y-174250000D01*
D11*
X56280000Y-173000000D02*
X56280000Y-175000000D01*
X56280000Y-175000000D02*
X51580000Y-175000000D01*
%TO.C,J5*%
X65430000Y-160750000D02*
X65430000Y-162320000D01*
X65430000Y-173370000D02*
X65430000Y-171800000D01*
%TO.C,C3*%
X203360000Y-113430000D02*
X203360000Y-117930000D01*
X203360000Y-117930000D02*
X205360000Y-117930000D01*
X203510000Y-115180000D02*
X203510000Y-116180000D01*
X204360000Y-115255000D02*
X204360000Y-115530000D01*
X204360000Y-116105000D02*
X204360000Y-115880000D01*
X204710000Y-115530000D02*
X204010000Y-115530000D01*
X204710000Y-115830000D02*
X204010000Y-115830000D01*
X205210000Y-116180000D02*
X205210000Y-115180000D01*
X205360000Y-113430000D02*
X203360000Y-113430000D01*
X205360000Y-117930000D02*
X205360000Y-113430000D01*
%TO.C,R2*%
X206780000Y-115860000D02*
X206780000Y-117860000D01*
X206780000Y-117860000D02*
X211480000Y-117860000D01*
D12*
X208880000Y-116610000D02*
X208680000Y-117060000D01*
X209130000Y-117110000D02*
X208880000Y-116610000D01*
X209380000Y-116610000D02*
X209130000Y-117110000D01*
X209580000Y-117060000D02*
X209380000Y-116610000D01*
D11*
X211480000Y-115860000D02*
X206780000Y-115860000D01*
X211480000Y-117860000D02*
X211480000Y-115860000D01*
%TO.C,R10*%
X206780000Y-128550000D02*
X211480000Y-128550000D01*
X206780000Y-130550000D02*
X206780000Y-128550000D01*
D12*
X208880000Y-129800000D02*
X208680000Y-129350000D01*
X209130000Y-129300000D02*
X208880000Y-129800000D01*
X209380000Y-129800000D02*
X209130000Y-129300000D01*
X209580000Y-129350000D02*
X209380000Y-129800000D01*
D11*
X211480000Y-128550000D02*
X211480000Y-130550000D01*
X211480000Y-130550000D02*
X206780000Y-130550000D01*
%TO.C,J5*%
X220630000Y-116300000D02*
X220630000Y-117870000D01*
X220630000Y-128920000D02*
X220630000Y-127350000D01*
%TO.C,C3*%
X164560000Y-113430000D02*
X164560000Y-117930000D01*
X164560000Y-117930000D02*
X166560000Y-117930000D01*
X164710000Y-115180000D02*
X164710000Y-116180000D01*
X165560000Y-115255000D02*
X165560000Y-115530000D01*
X165560000Y-116105000D02*
X165560000Y-115880000D01*
X165910000Y-115530000D02*
X165210000Y-115530000D01*
X165910000Y-115830000D02*
X165210000Y-115830000D01*
X166410000Y-116180000D02*
X166410000Y-115180000D01*
X166560000Y-113430000D02*
X164560000Y-113430000D01*
X166560000Y-117930000D02*
X166560000Y-113430000D01*
%TO.C,R2*%
X167980000Y-115860000D02*
X167980000Y-117860000D01*
X167980000Y-117860000D02*
X172680000Y-117860000D01*
D12*
X170080000Y-116610000D02*
X169880000Y-117060000D01*
X170330000Y-117110000D02*
X170080000Y-116610000D01*
X170580000Y-116610000D02*
X170330000Y-117110000D01*
X170780000Y-117060000D02*
X170580000Y-116610000D01*
D11*
X172680000Y-115860000D02*
X167980000Y-115860000D01*
X172680000Y-117860000D02*
X172680000Y-115860000D01*
%TO.C,R10*%
X167980000Y-128550000D02*
X172680000Y-128550000D01*
X167980000Y-130550000D02*
X167980000Y-128550000D01*
D12*
X170080000Y-129800000D02*
X169880000Y-129350000D01*
X170330000Y-129300000D02*
X170080000Y-129800000D01*
X170580000Y-129800000D02*
X170330000Y-129300000D01*
X170780000Y-129350000D02*
X170580000Y-129800000D01*
D11*
X172680000Y-128550000D02*
X172680000Y-130550000D01*
X172680000Y-130550000D02*
X167980000Y-130550000D01*
%TO.C,J5*%
X181830000Y-116300000D02*
X181830000Y-117870000D01*
X181830000Y-128920000D02*
X181830000Y-127350000D01*
%TO.C,C3*%
X125760000Y-113430000D02*
X125760000Y-117930000D01*
X125760000Y-117930000D02*
X127760000Y-117930000D01*
X125910000Y-115180000D02*
X125910000Y-116180000D01*
X126760000Y-115255000D02*
X126760000Y-115530000D01*
X126760000Y-116105000D02*
X126760000Y-115880000D01*
X127110000Y-115530000D02*
X126410000Y-115530000D01*
X127110000Y-115830000D02*
X126410000Y-115830000D01*
X127610000Y-116180000D02*
X127610000Y-115180000D01*
X127760000Y-113430000D02*
X125760000Y-113430000D01*
X127760000Y-117930000D02*
X127760000Y-113430000D01*
%TO.C,R2*%
X129180000Y-115860000D02*
X129180000Y-117860000D01*
X129180000Y-117860000D02*
X133880000Y-117860000D01*
D12*
X131280000Y-116610000D02*
X131080000Y-117060000D01*
X131530000Y-117110000D02*
X131280000Y-116610000D01*
X131780000Y-116610000D02*
X131530000Y-117110000D01*
X131980000Y-117060000D02*
X131780000Y-116610000D01*
D11*
X133880000Y-115860000D02*
X129180000Y-115860000D01*
X133880000Y-117860000D02*
X133880000Y-115860000D01*
%TO.C,R10*%
X129180000Y-128550000D02*
X133880000Y-128550000D01*
X129180000Y-130550000D02*
X129180000Y-128550000D01*
D12*
X131280000Y-129800000D02*
X131080000Y-129350000D01*
X131530000Y-129300000D02*
X131280000Y-129800000D01*
X131780000Y-129800000D02*
X131530000Y-129300000D01*
X131980000Y-129350000D02*
X131780000Y-129800000D01*
D11*
X133880000Y-128550000D02*
X133880000Y-130550000D01*
X133880000Y-130550000D02*
X129180000Y-130550000D01*
%TO.C,J5*%
X143030000Y-116300000D02*
X143030000Y-117870000D01*
X143030000Y-128920000D02*
X143030000Y-127350000D01*
%TO.C,C3*%
X86960000Y-113430000D02*
X86960000Y-117930000D01*
X86960000Y-117930000D02*
X88960000Y-117930000D01*
X87110000Y-115180000D02*
X87110000Y-116180000D01*
X87960000Y-115255000D02*
X87960000Y-115530000D01*
X87960000Y-116105000D02*
X87960000Y-115880000D01*
X88310000Y-115530000D02*
X87610000Y-115530000D01*
X88310000Y-115830000D02*
X87610000Y-115830000D01*
X88810000Y-116180000D02*
X88810000Y-115180000D01*
X88960000Y-113430000D02*
X86960000Y-113430000D01*
X88960000Y-117930000D02*
X88960000Y-113430000D01*
%TO.C,R2*%
X90380000Y-115860000D02*
X90380000Y-117860000D01*
X90380000Y-117860000D02*
X95080000Y-117860000D01*
D12*
X92480000Y-116610000D02*
X92280000Y-117060000D01*
X92730000Y-117110000D02*
X92480000Y-116610000D01*
X92980000Y-116610000D02*
X92730000Y-117110000D01*
X93180000Y-117060000D02*
X92980000Y-116610000D01*
D11*
X95080000Y-115860000D02*
X90380000Y-115860000D01*
X95080000Y-117860000D02*
X95080000Y-115860000D01*
%TO.C,R10*%
X90380000Y-128550000D02*
X95080000Y-128550000D01*
X90380000Y-130550000D02*
X90380000Y-128550000D01*
D12*
X92480000Y-129800000D02*
X92280000Y-129350000D01*
X92730000Y-129300000D02*
X92480000Y-129800000D01*
X92980000Y-129800000D02*
X92730000Y-129300000D01*
X93180000Y-129350000D02*
X92980000Y-129800000D01*
D11*
X95080000Y-128550000D02*
X95080000Y-130550000D01*
X95080000Y-130550000D02*
X90380000Y-130550000D01*
%TO.C,J5*%
X104230000Y-116300000D02*
X104230000Y-117870000D01*
X104230000Y-128920000D02*
X104230000Y-127350000D01*
%TO.C,C3*%
X48160000Y-113430000D02*
X48160000Y-117930000D01*
X48160000Y-117930000D02*
X50160000Y-117930000D01*
X48310000Y-115180000D02*
X48310000Y-116180000D01*
X49160000Y-115255000D02*
X49160000Y-115530000D01*
X49160000Y-116105000D02*
X49160000Y-115880000D01*
X49510000Y-115530000D02*
X48810000Y-115530000D01*
X49510000Y-115830000D02*
X48810000Y-115830000D01*
X50010000Y-116180000D02*
X50010000Y-115180000D01*
X50160000Y-113430000D02*
X48160000Y-113430000D01*
X50160000Y-117930000D02*
X50160000Y-113430000D01*
%TO.C,R2*%
X51580000Y-115860000D02*
X51580000Y-117860000D01*
X51580000Y-117860000D02*
X56280000Y-117860000D01*
D12*
X53680000Y-116610000D02*
X53480000Y-117060000D01*
X53930000Y-117110000D02*
X53680000Y-116610000D01*
X54180000Y-116610000D02*
X53930000Y-117110000D01*
X54380000Y-117060000D02*
X54180000Y-116610000D01*
D11*
X56280000Y-115860000D02*
X51580000Y-115860000D01*
X56280000Y-117860000D02*
X56280000Y-115860000D01*
%TO.C,R10*%
X51580000Y-128550000D02*
X56280000Y-128550000D01*
X51580000Y-130550000D02*
X51580000Y-128550000D01*
D12*
X53680000Y-129800000D02*
X53480000Y-129350000D01*
X53930000Y-129300000D02*
X53680000Y-129800000D01*
X54180000Y-129800000D02*
X53930000Y-129300000D01*
X54380000Y-129350000D02*
X54180000Y-129800000D01*
D11*
X56280000Y-128550000D02*
X56280000Y-130550000D01*
X56280000Y-130550000D02*
X51580000Y-130550000D01*
%TO.C,J5*%
X65430000Y-116300000D02*
X65430000Y-117870000D01*
X65430000Y-128920000D02*
X65430000Y-127350000D01*
%TO.C,C3*%
X203360000Y-68980000D02*
X203360000Y-73480000D01*
X203360000Y-73480000D02*
X205360000Y-73480000D01*
X203510000Y-70730000D02*
X203510000Y-71730000D01*
X204360000Y-70805000D02*
X204360000Y-71080000D01*
X204360000Y-71655000D02*
X204360000Y-71430000D01*
X204710000Y-71080000D02*
X204010000Y-71080000D01*
X204710000Y-71380000D02*
X204010000Y-71380000D01*
X205210000Y-71730000D02*
X205210000Y-70730000D01*
X205360000Y-68980000D02*
X203360000Y-68980000D01*
X205360000Y-73480000D02*
X205360000Y-68980000D01*
%TO.C,R2*%
X206780000Y-71410000D02*
X206780000Y-73410000D01*
X206780000Y-73410000D02*
X211480000Y-73410000D01*
D12*
X208880000Y-72160000D02*
X208680000Y-72610000D01*
X209130000Y-72660000D02*
X208880000Y-72160000D01*
X209380000Y-72160000D02*
X209130000Y-72660000D01*
X209580000Y-72610000D02*
X209380000Y-72160000D01*
D11*
X211480000Y-71410000D02*
X206780000Y-71410000D01*
X211480000Y-73410000D02*
X211480000Y-71410000D01*
%TO.C,R10*%
X206780000Y-84100000D02*
X211480000Y-84100000D01*
X206780000Y-86100000D02*
X206780000Y-84100000D01*
D12*
X208880000Y-85350000D02*
X208680000Y-84900000D01*
X209130000Y-84850000D02*
X208880000Y-85350000D01*
X209380000Y-85350000D02*
X209130000Y-84850000D01*
X209580000Y-84900000D02*
X209380000Y-85350000D01*
D11*
X211480000Y-84100000D02*
X211480000Y-86100000D01*
X211480000Y-86100000D02*
X206780000Y-86100000D01*
%TO.C,J5*%
X220630000Y-71850000D02*
X220630000Y-73420000D01*
X220630000Y-84470000D02*
X220630000Y-82900000D01*
%TO.C,C3*%
X164560000Y-68980000D02*
X164560000Y-73480000D01*
X164560000Y-73480000D02*
X166560000Y-73480000D01*
X164710000Y-70730000D02*
X164710000Y-71730000D01*
X165560000Y-70805000D02*
X165560000Y-71080000D01*
X165560000Y-71655000D02*
X165560000Y-71430000D01*
X165910000Y-71080000D02*
X165210000Y-71080000D01*
X165910000Y-71380000D02*
X165210000Y-71380000D01*
X166410000Y-71730000D02*
X166410000Y-70730000D01*
X166560000Y-68980000D02*
X164560000Y-68980000D01*
X166560000Y-73480000D02*
X166560000Y-68980000D01*
%TO.C,R2*%
X167980000Y-71410000D02*
X167980000Y-73410000D01*
X167980000Y-73410000D02*
X172680000Y-73410000D01*
D12*
X170080000Y-72160000D02*
X169880000Y-72610000D01*
X170330000Y-72660000D02*
X170080000Y-72160000D01*
X170580000Y-72160000D02*
X170330000Y-72660000D01*
X170780000Y-72610000D02*
X170580000Y-72160000D01*
D11*
X172680000Y-71410000D02*
X167980000Y-71410000D01*
X172680000Y-73410000D02*
X172680000Y-71410000D01*
%TO.C,R10*%
X167980000Y-84100000D02*
X172680000Y-84100000D01*
X167980000Y-86100000D02*
X167980000Y-84100000D01*
D12*
X170080000Y-85350000D02*
X169880000Y-84900000D01*
X170330000Y-84850000D02*
X170080000Y-85350000D01*
X170580000Y-85350000D02*
X170330000Y-84850000D01*
X170780000Y-84900000D02*
X170580000Y-85350000D01*
D11*
X172680000Y-84100000D02*
X172680000Y-86100000D01*
X172680000Y-86100000D02*
X167980000Y-86100000D01*
%TO.C,J5*%
X181830000Y-71850000D02*
X181830000Y-73420000D01*
X181830000Y-84470000D02*
X181830000Y-82900000D01*
%TO.C,C3*%
X125760000Y-68980000D02*
X125760000Y-73480000D01*
X125760000Y-73480000D02*
X127760000Y-73480000D01*
X125910000Y-70730000D02*
X125910000Y-71730000D01*
X126760000Y-70805000D02*
X126760000Y-71080000D01*
X126760000Y-71655000D02*
X126760000Y-71430000D01*
X127110000Y-71080000D02*
X126410000Y-71080000D01*
X127110000Y-71380000D02*
X126410000Y-71380000D01*
X127610000Y-71730000D02*
X127610000Y-70730000D01*
X127760000Y-68980000D02*
X125760000Y-68980000D01*
X127760000Y-73480000D02*
X127760000Y-68980000D01*
%TO.C,R2*%
X129180000Y-71410000D02*
X129180000Y-73410000D01*
X129180000Y-73410000D02*
X133880000Y-73410000D01*
D12*
X131280000Y-72160000D02*
X131080000Y-72610000D01*
X131530000Y-72660000D02*
X131280000Y-72160000D01*
X131780000Y-72160000D02*
X131530000Y-72660000D01*
X131980000Y-72610000D02*
X131780000Y-72160000D01*
D11*
X133880000Y-71410000D02*
X129180000Y-71410000D01*
X133880000Y-73410000D02*
X133880000Y-71410000D01*
%TO.C,R10*%
X129180000Y-84100000D02*
X133880000Y-84100000D01*
X129180000Y-86100000D02*
X129180000Y-84100000D01*
D12*
X131280000Y-85350000D02*
X131080000Y-84900000D01*
X131530000Y-84850000D02*
X131280000Y-85350000D01*
X131780000Y-85350000D02*
X131530000Y-84850000D01*
X131980000Y-84900000D02*
X131780000Y-85350000D01*
D11*
X133880000Y-84100000D02*
X133880000Y-86100000D01*
X133880000Y-86100000D02*
X129180000Y-86100000D01*
%TO.C,J5*%
X143030000Y-71850000D02*
X143030000Y-73420000D01*
X143030000Y-84470000D02*
X143030000Y-82900000D01*
%TO.C,C3*%
X86960000Y-68980000D02*
X86960000Y-73480000D01*
X86960000Y-73480000D02*
X88960000Y-73480000D01*
X87110000Y-70730000D02*
X87110000Y-71730000D01*
X87960000Y-70805000D02*
X87960000Y-71080000D01*
X87960000Y-71655000D02*
X87960000Y-71430000D01*
X88310000Y-71080000D02*
X87610000Y-71080000D01*
X88310000Y-71380000D02*
X87610000Y-71380000D01*
X88810000Y-71730000D02*
X88810000Y-70730000D01*
X88960000Y-68980000D02*
X86960000Y-68980000D01*
X88960000Y-73480000D02*
X88960000Y-68980000D01*
%TO.C,R2*%
X90380000Y-71410000D02*
X90380000Y-73410000D01*
X90380000Y-73410000D02*
X95080000Y-73410000D01*
D12*
X92480000Y-72160000D02*
X92280000Y-72610000D01*
X92730000Y-72660000D02*
X92480000Y-72160000D01*
X92980000Y-72160000D02*
X92730000Y-72660000D01*
X93180000Y-72610000D02*
X92980000Y-72160000D01*
D11*
X95080000Y-71410000D02*
X90380000Y-71410000D01*
X95080000Y-73410000D02*
X95080000Y-71410000D01*
%TO.C,R10*%
X90380000Y-84100000D02*
X95080000Y-84100000D01*
X90380000Y-86100000D02*
X90380000Y-84100000D01*
D12*
X92480000Y-85350000D02*
X92280000Y-84900000D01*
X92730000Y-84850000D02*
X92480000Y-85350000D01*
X92980000Y-85350000D02*
X92730000Y-84850000D01*
X93180000Y-84900000D02*
X92980000Y-85350000D01*
D11*
X95080000Y-84100000D02*
X95080000Y-86100000D01*
X95080000Y-86100000D02*
X90380000Y-86100000D01*
%TO.C,J5*%
X104230000Y-71850000D02*
X104230000Y-73420000D01*
X104230000Y-84470000D02*
X104230000Y-82900000D01*
%TO.C,C3*%
X48160000Y-68980000D02*
X48160000Y-73480000D01*
X48160000Y-73480000D02*
X50160000Y-73480000D01*
X48310000Y-70730000D02*
X48310000Y-71730000D01*
X49160000Y-70805000D02*
X49160000Y-71080000D01*
X49160000Y-71655000D02*
X49160000Y-71430000D01*
X49510000Y-71080000D02*
X48810000Y-71080000D01*
X49510000Y-71380000D02*
X48810000Y-71380000D01*
X50010000Y-71730000D02*
X50010000Y-70730000D01*
X50160000Y-68980000D02*
X48160000Y-68980000D01*
X50160000Y-73480000D02*
X50160000Y-68980000D01*
%TO.C,R2*%
X51580000Y-71410000D02*
X51580000Y-73410000D01*
X51580000Y-73410000D02*
X56280000Y-73410000D01*
D12*
X53680000Y-72160000D02*
X53480000Y-72610000D01*
X53930000Y-72660000D02*
X53680000Y-72160000D01*
X54180000Y-72160000D02*
X53930000Y-72660000D01*
X54380000Y-72610000D02*
X54180000Y-72160000D01*
D11*
X56280000Y-71410000D02*
X51580000Y-71410000D01*
X56280000Y-73410000D02*
X56280000Y-71410000D01*
%TO.C,R10*%
X51580000Y-84100000D02*
X56280000Y-84100000D01*
X51580000Y-86100000D02*
X51580000Y-84100000D01*
D12*
X53680000Y-85350000D02*
X53480000Y-84900000D01*
X53930000Y-84850000D02*
X53680000Y-85350000D01*
X54180000Y-85350000D02*
X53930000Y-84850000D01*
X54380000Y-84900000D02*
X54180000Y-85350000D01*
D11*
X56280000Y-84100000D02*
X56280000Y-86100000D01*
X56280000Y-86100000D02*
X51580000Y-86100000D01*
%TO.C,J5*%
X65430000Y-71850000D02*
X65430000Y-73420000D01*
X65430000Y-84470000D02*
X65430000Y-82900000D01*
%TO.C,C3*%
X203360000Y-24530000D02*
X203360000Y-29030000D01*
X203360000Y-29030000D02*
X205360000Y-29030000D01*
X203510000Y-26280000D02*
X203510000Y-27280000D01*
X204360000Y-26355000D02*
X204360000Y-26630000D01*
X204360000Y-27205000D02*
X204360000Y-26980000D01*
X204710000Y-26630000D02*
X204010000Y-26630000D01*
X204710000Y-26930000D02*
X204010000Y-26930000D01*
X205210000Y-27280000D02*
X205210000Y-26280000D01*
X205360000Y-24530000D02*
X203360000Y-24530000D01*
X205360000Y-29030000D02*
X205360000Y-24530000D01*
%TO.C,R2*%
X206780000Y-26960000D02*
X206780000Y-28960000D01*
X206780000Y-28960000D02*
X211480000Y-28960000D01*
D12*
X208880000Y-27710000D02*
X208680000Y-28160000D01*
X209130000Y-28210000D02*
X208880000Y-27710000D01*
X209380000Y-27710000D02*
X209130000Y-28210000D01*
X209580000Y-28160000D02*
X209380000Y-27710000D01*
D11*
X211480000Y-26960000D02*
X206780000Y-26960000D01*
X211480000Y-28960000D02*
X211480000Y-26960000D01*
%TO.C,R10*%
X206780000Y-39650000D02*
X211480000Y-39650000D01*
X206780000Y-41650000D02*
X206780000Y-39650000D01*
D12*
X208880000Y-40900000D02*
X208680000Y-40450000D01*
X209130000Y-40400000D02*
X208880000Y-40900000D01*
X209380000Y-40900000D02*
X209130000Y-40400000D01*
X209580000Y-40450000D02*
X209380000Y-40900000D01*
D11*
X211480000Y-39650000D02*
X211480000Y-41650000D01*
X211480000Y-41650000D02*
X206780000Y-41650000D01*
%TO.C,J5*%
X220630000Y-27400000D02*
X220630000Y-28970000D01*
X220630000Y-40020000D02*
X220630000Y-38450000D01*
%TO.C,C3*%
X164560000Y-24530000D02*
X164560000Y-29030000D01*
X164560000Y-29030000D02*
X166560000Y-29030000D01*
X164710000Y-26280000D02*
X164710000Y-27280000D01*
X165560000Y-26355000D02*
X165560000Y-26630000D01*
X165560000Y-27205000D02*
X165560000Y-26980000D01*
X165910000Y-26630000D02*
X165210000Y-26630000D01*
X165910000Y-26930000D02*
X165210000Y-26930000D01*
X166410000Y-27280000D02*
X166410000Y-26280000D01*
X166560000Y-24530000D02*
X164560000Y-24530000D01*
X166560000Y-29030000D02*
X166560000Y-24530000D01*
%TO.C,R2*%
X167980000Y-26960000D02*
X167980000Y-28960000D01*
X167980000Y-28960000D02*
X172680000Y-28960000D01*
D12*
X170080000Y-27710000D02*
X169880000Y-28160000D01*
X170330000Y-28210000D02*
X170080000Y-27710000D01*
X170580000Y-27710000D02*
X170330000Y-28210000D01*
X170780000Y-28160000D02*
X170580000Y-27710000D01*
D11*
X172680000Y-26960000D02*
X167980000Y-26960000D01*
X172680000Y-28960000D02*
X172680000Y-26960000D01*
%TO.C,R10*%
X167980000Y-39650000D02*
X172680000Y-39650000D01*
X167980000Y-41650000D02*
X167980000Y-39650000D01*
D12*
X170080000Y-40900000D02*
X169880000Y-40450000D01*
X170330000Y-40400000D02*
X170080000Y-40900000D01*
X170580000Y-40900000D02*
X170330000Y-40400000D01*
X170780000Y-40450000D02*
X170580000Y-40900000D01*
D11*
X172680000Y-39650000D02*
X172680000Y-41650000D01*
X172680000Y-41650000D02*
X167980000Y-41650000D01*
%TO.C,J5*%
X181830000Y-27400000D02*
X181830000Y-28970000D01*
X181830000Y-40020000D02*
X181830000Y-38450000D01*
%TO.C,C3*%
X125760000Y-24530000D02*
X125760000Y-29030000D01*
X125760000Y-29030000D02*
X127760000Y-29030000D01*
X125910000Y-26280000D02*
X125910000Y-27280000D01*
X126760000Y-26355000D02*
X126760000Y-26630000D01*
X126760000Y-27205000D02*
X126760000Y-26980000D01*
X127110000Y-26630000D02*
X126410000Y-26630000D01*
X127110000Y-26930000D02*
X126410000Y-26930000D01*
X127610000Y-27280000D02*
X127610000Y-26280000D01*
X127760000Y-24530000D02*
X125760000Y-24530000D01*
X127760000Y-29030000D02*
X127760000Y-24530000D01*
%TO.C,R2*%
X129180000Y-26960000D02*
X129180000Y-28960000D01*
X129180000Y-28960000D02*
X133880000Y-28960000D01*
D12*
X131280000Y-27710000D02*
X131080000Y-28160000D01*
X131530000Y-28210000D02*
X131280000Y-27710000D01*
X131780000Y-27710000D02*
X131530000Y-28210000D01*
X131980000Y-28160000D02*
X131780000Y-27710000D01*
D11*
X133880000Y-26960000D02*
X129180000Y-26960000D01*
X133880000Y-28960000D02*
X133880000Y-26960000D01*
%TO.C,R10*%
X129180000Y-39650000D02*
X133880000Y-39650000D01*
X129180000Y-41650000D02*
X129180000Y-39650000D01*
D12*
X131280000Y-40900000D02*
X131080000Y-40450000D01*
X131530000Y-40400000D02*
X131280000Y-40900000D01*
X131780000Y-40900000D02*
X131530000Y-40400000D01*
X131980000Y-40450000D02*
X131780000Y-40900000D01*
D11*
X133880000Y-39650000D02*
X133880000Y-41650000D01*
X133880000Y-41650000D02*
X129180000Y-41650000D01*
%TO.C,J5*%
X143030000Y-27400000D02*
X143030000Y-28970000D01*
X143030000Y-40020000D02*
X143030000Y-38450000D01*
%TO.C,C3*%
X86960000Y-24530000D02*
X86960000Y-29030000D01*
X86960000Y-29030000D02*
X88960000Y-29030000D01*
X87110000Y-26280000D02*
X87110000Y-27280000D01*
X87960000Y-26355000D02*
X87960000Y-26630000D01*
X87960000Y-27205000D02*
X87960000Y-26980000D01*
X88310000Y-26630000D02*
X87610000Y-26630000D01*
X88310000Y-26930000D02*
X87610000Y-26930000D01*
X88810000Y-27280000D02*
X88810000Y-26280000D01*
X88960000Y-24530000D02*
X86960000Y-24530000D01*
X88960000Y-29030000D02*
X88960000Y-24530000D01*
%TO.C,R2*%
X90380000Y-26960000D02*
X90380000Y-28960000D01*
X90380000Y-28960000D02*
X95080000Y-28960000D01*
D12*
X92480000Y-27710000D02*
X92280000Y-28160000D01*
X92730000Y-28210000D02*
X92480000Y-27710000D01*
X92980000Y-27710000D02*
X92730000Y-28210000D01*
X93180000Y-28160000D02*
X92980000Y-27710000D01*
D11*
X95080000Y-26960000D02*
X90380000Y-26960000D01*
X95080000Y-28960000D02*
X95080000Y-26960000D01*
%TO.C,R10*%
X90380000Y-39650000D02*
X95080000Y-39650000D01*
X90380000Y-41650000D02*
X90380000Y-39650000D01*
D12*
X92480000Y-40900000D02*
X92280000Y-40450000D01*
X92730000Y-40400000D02*
X92480000Y-40900000D01*
X92980000Y-40900000D02*
X92730000Y-40400000D01*
X93180000Y-40450000D02*
X92980000Y-40900000D01*
D11*
X95080000Y-39650000D02*
X95080000Y-41650000D01*
X95080000Y-41650000D02*
X90380000Y-41650000D01*
%TO.C,J5*%
X104230000Y-27400000D02*
X104230000Y-28970000D01*
X104230000Y-40020000D02*
X104230000Y-38450000D01*
X65430000Y-27400000D02*
X65430000Y-28970000D01*
X65430000Y-40020000D02*
X65430000Y-38450000D01*
%TO.C,R10*%
X51580000Y-39650000D02*
X56280000Y-39650000D01*
X51580000Y-41650000D02*
X51580000Y-39650000D01*
D12*
X53680000Y-40900000D02*
X53480000Y-40450000D01*
X53930000Y-40400000D02*
X53680000Y-40900000D01*
X54180000Y-40900000D02*
X53930000Y-40400000D01*
X54380000Y-40450000D02*
X54180000Y-40900000D01*
D11*
X56280000Y-39650000D02*
X56280000Y-41650000D01*
X56280000Y-41650000D02*
X51580000Y-41650000D01*
%TO.C,R2*%
X51580000Y-26960000D02*
X51580000Y-28960000D01*
X51580000Y-28960000D02*
X56280000Y-28960000D01*
D12*
X53680000Y-27710000D02*
X53480000Y-28160000D01*
X53930000Y-28210000D02*
X53680000Y-27710000D01*
X54180000Y-27710000D02*
X53930000Y-28210000D01*
X54380000Y-28160000D02*
X54180000Y-27710000D01*
D11*
X56280000Y-26960000D02*
X51580000Y-26960000D01*
X56280000Y-28960000D02*
X56280000Y-26960000D01*
%TO.C,C3*%
X48160000Y-24530000D02*
X48160000Y-29030000D01*
X48160000Y-29030000D02*
X50160000Y-29030000D01*
X48310000Y-26280000D02*
X48310000Y-27280000D01*
X49160000Y-26355000D02*
X49160000Y-26630000D01*
X49160000Y-27205000D02*
X49160000Y-26980000D01*
X49510000Y-26630000D02*
X48810000Y-26630000D01*
X49510000Y-26930000D02*
X48810000Y-26930000D01*
X50010000Y-27280000D02*
X50010000Y-26280000D01*
X50160000Y-24530000D02*
X48160000Y-24530000D01*
X50160000Y-29030000D02*
X50160000Y-24530000D01*
%TD*%
M02*
