%TF.GenerationSoftware,KiCad,Pcbnew,8.0.7*%
%TF.CreationDate,2025-01-08T09:27:09+09:00*%
%TF.ProjectId,waveShare-7inch-rs485,77617665-5368-4617-9265-2d37696e6368,rev?*%
%TF.SameCoordinates,Original*%
%TF.FileFunction,Soldermask,Bot*%
%TF.FilePolarity,Negative*%
%FSLAX46Y46*%
G04 Gerber Fmt 4.6, Leading zero omitted, Abs format (unit mm)*
G04 Created by KiCad (PCBNEW 8.0.7) date 2025-01-08 09:27:09*
%MOMM*%
%LPD*%
G01*
G04 APERTURE LIST*
G04 Aperture macros list*
%AMRoundRect*
0 Rectangle with rounded corners*
0 $1 Rounding radius*
0 $2 $3 $4 $5 $6 $7 $8 $9 X,Y pos of 4 corners*
0 Add a 4 corners polygon primitive as box body*
4,1,4,$2,$3,$4,$5,$6,$7,$8,$9,$2,$3,0*
0 Add four circle primitives for the rounded corners*
1,1,$1+$1,$2,$3*
1,1,$1+$1,$4,$5*
1,1,$1+$1,$6,$7*
1,1,$1+$1,$8,$9*
0 Add four rect primitives between the rounded corners*
20,1,$1+$1,$2,$3,$4,$5,0*
20,1,$1+$1,$4,$5,$6,$7,0*
20,1,$1+$1,$6,$7,$8,$9,0*
20,1,$1+$1,$8,$9,$2,$3,0*%
G04 Aperture macros list end*
%ADD10RoundRect,0.312500X-0.312500X0.437500X-0.312500X-0.437500X0.312500X-0.437500X0.312500X0.437500X0*%
%ADD11RoundRect,0.249900X-0.600100X-0.675100X0.600100X-0.675100X0.600100X0.675100X-0.600100X0.675100X0*%
%ADD12O,1.700000X1.850000*%
%ADD13RoundRect,0.325000X-0.325000X-0.325000X0.325000X-0.325000X0.325000X0.325000X-0.325000X0.325000X0*%
%ADD14C,3.170000*%
%ADD15RoundRect,0.325000X0.325000X0.325000X-0.325000X0.325000X-0.325000X-0.325000X0.325000X-0.325000X0*%
%ADD16RoundRect,0.264600X1.235400X-0.635400X1.235400X0.635400X-1.235400X0.635400X-1.235400X-0.635400X0*%
%ADD17RoundRect,0.250000X1.250000X-0.650000X1.250000X0.650000X-1.250000X0.650000X-1.250000X-0.650000X0*%
%ADD18RoundRect,0.249900X-0.675100X0.600100X-0.675100X-0.600100X0.675100X-0.600100X0.675100X0.600100X0*%
%ADD19O,1.850000X1.700000*%
%ADD20R,1.700000X1.700000*%
%ADD21O,1.700000X1.700000*%
%ADD22O,5.000000X12.000000*%
%ADD23R,1.600000X1.600000*%
%ADD24C,1.600000*%
G04 APERTURE END LIST*
D10*
%TO.C,C3*%
X204360000Y-158930000D03*
X204360000Y-161330000D03*
%TD*%
D11*
%TO.C,J1*%
X184920000Y-160360000D03*
D12*
X187420000Y-160360000D03*
X189920000Y-160360000D03*
X192420000Y-160360000D03*
%TD*%
D13*
%TO.C,R2*%
X207980000Y-161310000D03*
X210280000Y-161310000D03*
%TD*%
D14*
%TO.C,J4*%
X215450000Y-173300000D03*
X215450000Y-160800000D03*
%TD*%
D15*
%TO.C,R10*%
X210280000Y-174000000D03*
X207980000Y-174000000D03*
%TD*%
D16*
%TO.C,J5*%
X218970000Y-170810000D03*
D17*
X218970000Y-168310000D03*
X218970000Y-165810000D03*
X218970000Y-163310000D03*
%TD*%
D18*
%TO.C,J2*%
X199570000Y-159680000D03*
D19*
X199570000Y-162180000D03*
X199570000Y-164680000D03*
X199570000Y-167180000D03*
%TD*%
D20*
%TO.C,DS1307*%
X216750000Y-182315000D03*
D21*
X216750000Y-184855000D03*
X216750000Y-187395000D03*
X216750000Y-189935000D03*
X216750000Y-192475000D03*
X216750000Y-195015000D03*
X216750000Y-197555000D03*
%TD*%
D22*
%TO.C,J3*%
X184910000Y-174740000D03*
%TD*%
D23*
%TO.C,C9*%
X200840000Y-179780000D03*
D24*
X200840000Y-177280000D03*
%TD*%
D10*
%TO.C,C3*%
X165560000Y-158930000D03*
X165560000Y-161330000D03*
%TD*%
D11*
%TO.C,J1*%
X146120000Y-160360000D03*
D12*
X148620000Y-160360000D03*
X151120000Y-160360000D03*
X153620000Y-160360000D03*
%TD*%
D13*
%TO.C,R2*%
X169180000Y-161310000D03*
X171480000Y-161310000D03*
%TD*%
D14*
%TO.C,J4*%
X176650000Y-173300000D03*
X176650000Y-160800000D03*
%TD*%
D15*
%TO.C,R10*%
X171480000Y-174000000D03*
X169180000Y-174000000D03*
%TD*%
D16*
%TO.C,J5*%
X180170000Y-170810000D03*
D17*
X180170000Y-168310000D03*
X180170000Y-165810000D03*
X180170000Y-163310000D03*
%TD*%
D18*
%TO.C,J2*%
X160770000Y-159680000D03*
D19*
X160770000Y-162180000D03*
X160770000Y-164680000D03*
X160770000Y-167180000D03*
%TD*%
D20*
%TO.C,DS1307*%
X177950000Y-182315000D03*
D21*
X177950000Y-184855000D03*
X177950000Y-187395000D03*
X177950000Y-189935000D03*
X177950000Y-192475000D03*
X177950000Y-195015000D03*
X177950000Y-197555000D03*
%TD*%
D22*
%TO.C,J3*%
X146110000Y-174740000D03*
%TD*%
D23*
%TO.C,C9*%
X162040000Y-179780000D03*
D24*
X162040000Y-177280000D03*
%TD*%
D10*
%TO.C,C3*%
X126760000Y-158930000D03*
X126760000Y-161330000D03*
%TD*%
D11*
%TO.C,J1*%
X107320000Y-160360000D03*
D12*
X109820000Y-160360000D03*
X112320000Y-160360000D03*
X114820000Y-160360000D03*
%TD*%
D13*
%TO.C,R2*%
X130380000Y-161310000D03*
X132680000Y-161310000D03*
%TD*%
D14*
%TO.C,J4*%
X137850000Y-173300000D03*
X137850000Y-160800000D03*
%TD*%
D15*
%TO.C,R10*%
X132680000Y-174000000D03*
X130380000Y-174000000D03*
%TD*%
D16*
%TO.C,J5*%
X141370000Y-170810000D03*
D17*
X141370000Y-168310000D03*
X141370000Y-165810000D03*
X141370000Y-163310000D03*
%TD*%
D18*
%TO.C,J2*%
X121970000Y-159680000D03*
D19*
X121970000Y-162180000D03*
X121970000Y-164680000D03*
X121970000Y-167180000D03*
%TD*%
D20*
%TO.C,DS1307*%
X139150000Y-182315000D03*
D21*
X139150000Y-184855000D03*
X139150000Y-187395000D03*
X139150000Y-189935000D03*
X139150000Y-192475000D03*
X139150000Y-195015000D03*
X139150000Y-197555000D03*
%TD*%
D22*
%TO.C,J3*%
X107310000Y-174740000D03*
%TD*%
D23*
%TO.C,C9*%
X123240000Y-179780000D03*
D24*
X123240000Y-177280000D03*
%TD*%
D10*
%TO.C,C3*%
X87960000Y-158930000D03*
X87960000Y-161330000D03*
%TD*%
D11*
%TO.C,J1*%
X68520000Y-160360000D03*
D12*
X71020000Y-160360000D03*
X73520000Y-160360000D03*
X76020000Y-160360000D03*
%TD*%
D13*
%TO.C,R2*%
X91580000Y-161310000D03*
X93880000Y-161310000D03*
%TD*%
D14*
%TO.C,J4*%
X99050000Y-173300000D03*
X99050000Y-160800000D03*
%TD*%
D15*
%TO.C,R10*%
X93880000Y-174000000D03*
X91580000Y-174000000D03*
%TD*%
D16*
%TO.C,J5*%
X102570000Y-170810000D03*
D17*
X102570000Y-168310000D03*
X102570000Y-165810000D03*
X102570000Y-163310000D03*
%TD*%
D18*
%TO.C,J2*%
X83170000Y-159680000D03*
D19*
X83170000Y-162180000D03*
X83170000Y-164680000D03*
X83170000Y-167180000D03*
%TD*%
D20*
%TO.C,DS1307*%
X100350000Y-182315000D03*
D21*
X100350000Y-184855000D03*
X100350000Y-187395000D03*
X100350000Y-189935000D03*
X100350000Y-192475000D03*
X100350000Y-195015000D03*
X100350000Y-197555000D03*
%TD*%
D22*
%TO.C,J3*%
X68510000Y-174740000D03*
%TD*%
D23*
%TO.C,C9*%
X84440000Y-179780000D03*
D24*
X84440000Y-177280000D03*
%TD*%
D10*
%TO.C,C3*%
X49160000Y-158930000D03*
X49160000Y-161330000D03*
%TD*%
D11*
%TO.C,J1*%
X29720000Y-160360000D03*
D12*
X32220000Y-160360000D03*
X34720000Y-160360000D03*
X37220000Y-160360000D03*
%TD*%
D13*
%TO.C,R2*%
X52780000Y-161310000D03*
X55080000Y-161310000D03*
%TD*%
D14*
%TO.C,J4*%
X60250000Y-173300000D03*
X60250000Y-160800000D03*
%TD*%
D15*
%TO.C,R10*%
X55080000Y-174000000D03*
X52780000Y-174000000D03*
%TD*%
D16*
%TO.C,J5*%
X63770000Y-170810000D03*
D17*
X63770000Y-168310000D03*
X63770000Y-165810000D03*
X63770000Y-163310000D03*
%TD*%
D18*
%TO.C,J2*%
X44370000Y-159680000D03*
D19*
X44370000Y-162180000D03*
X44370000Y-164680000D03*
X44370000Y-167180000D03*
%TD*%
D20*
%TO.C,DS1307*%
X61550000Y-182315000D03*
D21*
X61550000Y-184855000D03*
X61550000Y-187395000D03*
X61550000Y-189935000D03*
X61550000Y-192475000D03*
X61550000Y-195015000D03*
X61550000Y-197555000D03*
%TD*%
D22*
%TO.C,J3*%
X29710000Y-174740000D03*
%TD*%
D23*
%TO.C,C9*%
X45640000Y-179780000D03*
D24*
X45640000Y-177280000D03*
%TD*%
D10*
%TO.C,C3*%
X204360000Y-114480000D03*
X204360000Y-116880000D03*
%TD*%
D11*
%TO.C,J1*%
X184920000Y-115910000D03*
D12*
X187420000Y-115910000D03*
X189920000Y-115910000D03*
X192420000Y-115910000D03*
%TD*%
D13*
%TO.C,R2*%
X207980000Y-116860000D03*
X210280000Y-116860000D03*
%TD*%
D14*
%TO.C,J4*%
X215450000Y-128850000D03*
X215450000Y-116350000D03*
%TD*%
D15*
%TO.C,R10*%
X210280000Y-129550000D03*
X207980000Y-129550000D03*
%TD*%
D16*
%TO.C,J5*%
X218970000Y-126360000D03*
D17*
X218970000Y-123860000D03*
X218970000Y-121360000D03*
X218970000Y-118860000D03*
%TD*%
D18*
%TO.C,J2*%
X199570000Y-115230000D03*
D19*
X199570000Y-117730000D03*
X199570000Y-120230000D03*
X199570000Y-122730000D03*
%TD*%
D20*
%TO.C,DS1307*%
X216750000Y-137865000D03*
D21*
X216750000Y-140405000D03*
X216750000Y-142945000D03*
X216750000Y-145485000D03*
X216750000Y-148025000D03*
X216750000Y-150565000D03*
X216750000Y-153105000D03*
%TD*%
D22*
%TO.C,J3*%
X184910000Y-130290000D03*
%TD*%
D23*
%TO.C,C9*%
X200840000Y-135330000D03*
D24*
X200840000Y-132830000D03*
%TD*%
D10*
%TO.C,C3*%
X165560000Y-114480000D03*
X165560000Y-116880000D03*
%TD*%
D11*
%TO.C,J1*%
X146120000Y-115910000D03*
D12*
X148620000Y-115910000D03*
X151120000Y-115910000D03*
X153620000Y-115910000D03*
%TD*%
D13*
%TO.C,R2*%
X169180000Y-116860000D03*
X171480000Y-116860000D03*
%TD*%
D14*
%TO.C,J4*%
X176650000Y-128850000D03*
X176650000Y-116350000D03*
%TD*%
D15*
%TO.C,R10*%
X171480000Y-129550000D03*
X169180000Y-129550000D03*
%TD*%
D16*
%TO.C,J5*%
X180170000Y-126360000D03*
D17*
X180170000Y-123860000D03*
X180170000Y-121360000D03*
X180170000Y-118860000D03*
%TD*%
D18*
%TO.C,J2*%
X160770000Y-115230000D03*
D19*
X160770000Y-117730000D03*
X160770000Y-120230000D03*
X160770000Y-122730000D03*
%TD*%
D20*
%TO.C,DS1307*%
X177950000Y-137865000D03*
D21*
X177950000Y-140405000D03*
X177950000Y-142945000D03*
X177950000Y-145485000D03*
X177950000Y-148025000D03*
X177950000Y-150565000D03*
X177950000Y-153105000D03*
%TD*%
D22*
%TO.C,J3*%
X146110000Y-130290000D03*
%TD*%
D23*
%TO.C,C9*%
X162040000Y-135330000D03*
D24*
X162040000Y-132830000D03*
%TD*%
D10*
%TO.C,C3*%
X126760000Y-114480000D03*
X126760000Y-116880000D03*
%TD*%
D11*
%TO.C,J1*%
X107320000Y-115910000D03*
D12*
X109820000Y-115910000D03*
X112320000Y-115910000D03*
X114820000Y-115910000D03*
%TD*%
D13*
%TO.C,R2*%
X130380000Y-116860000D03*
X132680000Y-116860000D03*
%TD*%
D14*
%TO.C,J4*%
X137850000Y-128850000D03*
X137850000Y-116350000D03*
%TD*%
D15*
%TO.C,R10*%
X132680000Y-129550000D03*
X130380000Y-129550000D03*
%TD*%
D16*
%TO.C,J5*%
X141370000Y-126360000D03*
D17*
X141370000Y-123860000D03*
X141370000Y-121360000D03*
X141370000Y-118860000D03*
%TD*%
D18*
%TO.C,J2*%
X121970000Y-115230000D03*
D19*
X121970000Y-117730000D03*
X121970000Y-120230000D03*
X121970000Y-122730000D03*
%TD*%
D20*
%TO.C,DS1307*%
X139150000Y-137865000D03*
D21*
X139150000Y-140405000D03*
X139150000Y-142945000D03*
X139150000Y-145485000D03*
X139150000Y-148025000D03*
X139150000Y-150565000D03*
X139150000Y-153105000D03*
%TD*%
D22*
%TO.C,J3*%
X107310000Y-130290000D03*
%TD*%
D23*
%TO.C,C9*%
X123240000Y-135330000D03*
D24*
X123240000Y-132830000D03*
%TD*%
D10*
%TO.C,C3*%
X87960000Y-114480000D03*
X87960000Y-116880000D03*
%TD*%
D11*
%TO.C,J1*%
X68520000Y-115910000D03*
D12*
X71020000Y-115910000D03*
X73520000Y-115910000D03*
X76020000Y-115910000D03*
%TD*%
D13*
%TO.C,R2*%
X91580000Y-116860000D03*
X93880000Y-116860000D03*
%TD*%
D14*
%TO.C,J4*%
X99050000Y-128850000D03*
X99050000Y-116350000D03*
%TD*%
D15*
%TO.C,R10*%
X93880000Y-129550000D03*
X91580000Y-129550000D03*
%TD*%
D16*
%TO.C,J5*%
X102570000Y-126360000D03*
D17*
X102570000Y-123860000D03*
X102570000Y-121360000D03*
X102570000Y-118860000D03*
%TD*%
D18*
%TO.C,J2*%
X83170000Y-115230000D03*
D19*
X83170000Y-117730000D03*
X83170000Y-120230000D03*
X83170000Y-122730000D03*
%TD*%
D20*
%TO.C,DS1307*%
X100350000Y-137865000D03*
D21*
X100350000Y-140405000D03*
X100350000Y-142945000D03*
X100350000Y-145485000D03*
X100350000Y-148025000D03*
X100350000Y-150565000D03*
X100350000Y-153105000D03*
%TD*%
D22*
%TO.C,J3*%
X68510000Y-130290000D03*
%TD*%
D23*
%TO.C,C9*%
X84440000Y-135330000D03*
D24*
X84440000Y-132830000D03*
%TD*%
D10*
%TO.C,C3*%
X49160000Y-114480000D03*
X49160000Y-116880000D03*
%TD*%
D11*
%TO.C,J1*%
X29720000Y-115910000D03*
D12*
X32220000Y-115910000D03*
X34720000Y-115910000D03*
X37220000Y-115910000D03*
%TD*%
D13*
%TO.C,R2*%
X52780000Y-116860000D03*
X55080000Y-116860000D03*
%TD*%
D14*
%TO.C,J4*%
X60250000Y-128850000D03*
X60250000Y-116350000D03*
%TD*%
D15*
%TO.C,R10*%
X55080000Y-129550000D03*
X52780000Y-129550000D03*
%TD*%
D16*
%TO.C,J5*%
X63770000Y-126360000D03*
D17*
X63770000Y-123860000D03*
X63770000Y-121360000D03*
X63770000Y-118860000D03*
%TD*%
D18*
%TO.C,J2*%
X44370000Y-115230000D03*
D19*
X44370000Y-117730000D03*
X44370000Y-120230000D03*
X44370000Y-122730000D03*
%TD*%
D20*
%TO.C,DS1307*%
X61550000Y-137865000D03*
D21*
X61550000Y-140405000D03*
X61550000Y-142945000D03*
X61550000Y-145485000D03*
X61550000Y-148025000D03*
X61550000Y-150565000D03*
X61550000Y-153105000D03*
%TD*%
D22*
%TO.C,J3*%
X29710000Y-130290000D03*
%TD*%
D23*
%TO.C,C9*%
X45640000Y-135330000D03*
D24*
X45640000Y-132830000D03*
%TD*%
D10*
%TO.C,C3*%
X204360000Y-70030000D03*
X204360000Y-72430000D03*
%TD*%
D11*
%TO.C,J1*%
X184920000Y-71460000D03*
D12*
X187420000Y-71460000D03*
X189920000Y-71460000D03*
X192420000Y-71460000D03*
%TD*%
D13*
%TO.C,R2*%
X207980000Y-72410000D03*
X210280000Y-72410000D03*
%TD*%
D14*
%TO.C,J4*%
X215450000Y-84400000D03*
X215450000Y-71900000D03*
%TD*%
D15*
%TO.C,R10*%
X210280000Y-85100000D03*
X207980000Y-85100000D03*
%TD*%
D16*
%TO.C,J5*%
X218970000Y-81910000D03*
D17*
X218970000Y-79410000D03*
X218970000Y-76910000D03*
X218970000Y-74410000D03*
%TD*%
D18*
%TO.C,J2*%
X199570000Y-70780000D03*
D19*
X199570000Y-73280000D03*
X199570000Y-75780000D03*
X199570000Y-78280000D03*
%TD*%
D20*
%TO.C,DS1307*%
X216750000Y-93415000D03*
D21*
X216750000Y-95955000D03*
X216750000Y-98495000D03*
X216750000Y-101035000D03*
X216750000Y-103575000D03*
X216750000Y-106115000D03*
X216750000Y-108655000D03*
%TD*%
D22*
%TO.C,J3*%
X184910000Y-85840000D03*
%TD*%
D23*
%TO.C,C9*%
X200840000Y-90880000D03*
D24*
X200840000Y-88380000D03*
%TD*%
D10*
%TO.C,C3*%
X165560000Y-70030000D03*
X165560000Y-72430000D03*
%TD*%
D11*
%TO.C,J1*%
X146120000Y-71460000D03*
D12*
X148620000Y-71460000D03*
X151120000Y-71460000D03*
X153620000Y-71460000D03*
%TD*%
D13*
%TO.C,R2*%
X169180000Y-72410000D03*
X171480000Y-72410000D03*
%TD*%
D14*
%TO.C,J4*%
X176650000Y-84400000D03*
X176650000Y-71900000D03*
%TD*%
D15*
%TO.C,R10*%
X171480000Y-85100000D03*
X169180000Y-85100000D03*
%TD*%
D16*
%TO.C,J5*%
X180170000Y-81910000D03*
D17*
X180170000Y-79410000D03*
X180170000Y-76910000D03*
X180170000Y-74410000D03*
%TD*%
D18*
%TO.C,J2*%
X160770000Y-70780000D03*
D19*
X160770000Y-73280000D03*
X160770000Y-75780000D03*
X160770000Y-78280000D03*
%TD*%
D20*
%TO.C,DS1307*%
X177950000Y-93415000D03*
D21*
X177950000Y-95955000D03*
X177950000Y-98495000D03*
X177950000Y-101035000D03*
X177950000Y-103575000D03*
X177950000Y-106115000D03*
X177950000Y-108655000D03*
%TD*%
D22*
%TO.C,J3*%
X146110000Y-85840000D03*
%TD*%
D23*
%TO.C,C9*%
X162040000Y-90880000D03*
D24*
X162040000Y-88380000D03*
%TD*%
D10*
%TO.C,C3*%
X126760000Y-70030000D03*
X126760000Y-72430000D03*
%TD*%
D11*
%TO.C,J1*%
X107320000Y-71460000D03*
D12*
X109820000Y-71460000D03*
X112320000Y-71460000D03*
X114820000Y-71460000D03*
%TD*%
D13*
%TO.C,R2*%
X130380000Y-72410000D03*
X132680000Y-72410000D03*
%TD*%
D14*
%TO.C,J4*%
X137850000Y-84400000D03*
X137850000Y-71900000D03*
%TD*%
D15*
%TO.C,R10*%
X132680000Y-85100000D03*
X130380000Y-85100000D03*
%TD*%
D16*
%TO.C,J5*%
X141370000Y-81910000D03*
D17*
X141370000Y-79410000D03*
X141370000Y-76910000D03*
X141370000Y-74410000D03*
%TD*%
D18*
%TO.C,J2*%
X121970000Y-70780000D03*
D19*
X121970000Y-73280000D03*
X121970000Y-75780000D03*
X121970000Y-78280000D03*
%TD*%
D20*
%TO.C,DS1307*%
X139150000Y-93415000D03*
D21*
X139150000Y-95955000D03*
X139150000Y-98495000D03*
X139150000Y-101035000D03*
X139150000Y-103575000D03*
X139150000Y-106115000D03*
X139150000Y-108655000D03*
%TD*%
D22*
%TO.C,J3*%
X107310000Y-85840000D03*
%TD*%
D23*
%TO.C,C9*%
X123240000Y-90880000D03*
D24*
X123240000Y-88380000D03*
%TD*%
D10*
%TO.C,C3*%
X87960000Y-70030000D03*
X87960000Y-72430000D03*
%TD*%
D11*
%TO.C,J1*%
X68520000Y-71460000D03*
D12*
X71020000Y-71460000D03*
X73520000Y-71460000D03*
X76020000Y-71460000D03*
%TD*%
D13*
%TO.C,R2*%
X91580000Y-72410000D03*
X93880000Y-72410000D03*
%TD*%
D14*
%TO.C,J4*%
X99050000Y-84400000D03*
X99050000Y-71900000D03*
%TD*%
D15*
%TO.C,R10*%
X93880000Y-85100000D03*
X91580000Y-85100000D03*
%TD*%
D16*
%TO.C,J5*%
X102570000Y-81910000D03*
D17*
X102570000Y-79410000D03*
X102570000Y-76910000D03*
X102570000Y-74410000D03*
%TD*%
D18*
%TO.C,J2*%
X83170000Y-70780000D03*
D19*
X83170000Y-73280000D03*
X83170000Y-75780000D03*
X83170000Y-78280000D03*
%TD*%
D20*
%TO.C,DS1307*%
X100350000Y-93415000D03*
D21*
X100350000Y-95955000D03*
X100350000Y-98495000D03*
X100350000Y-101035000D03*
X100350000Y-103575000D03*
X100350000Y-106115000D03*
X100350000Y-108655000D03*
%TD*%
D22*
%TO.C,J3*%
X68510000Y-85840000D03*
%TD*%
D23*
%TO.C,C9*%
X84440000Y-90880000D03*
D24*
X84440000Y-88380000D03*
%TD*%
D10*
%TO.C,C3*%
X49160000Y-70030000D03*
X49160000Y-72430000D03*
%TD*%
D11*
%TO.C,J1*%
X29720000Y-71460000D03*
D12*
X32220000Y-71460000D03*
X34720000Y-71460000D03*
X37220000Y-71460000D03*
%TD*%
D13*
%TO.C,R2*%
X52780000Y-72410000D03*
X55080000Y-72410000D03*
%TD*%
D14*
%TO.C,J4*%
X60250000Y-84400000D03*
X60250000Y-71900000D03*
%TD*%
D15*
%TO.C,R10*%
X55080000Y-85100000D03*
X52780000Y-85100000D03*
%TD*%
D16*
%TO.C,J5*%
X63770000Y-81910000D03*
D17*
X63770000Y-79410000D03*
X63770000Y-76910000D03*
X63770000Y-74410000D03*
%TD*%
D18*
%TO.C,J2*%
X44370000Y-70780000D03*
D19*
X44370000Y-73280000D03*
X44370000Y-75780000D03*
X44370000Y-78280000D03*
%TD*%
D20*
%TO.C,DS1307*%
X61550000Y-93415000D03*
D21*
X61550000Y-95955000D03*
X61550000Y-98495000D03*
X61550000Y-101035000D03*
X61550000Y-103575000D03*
X61550000Y-106115000D03*
X61550000Y-108655000D03*
%TD*%
D22*
%TO.C,J3*%
X29710000Y-85840000D03*
%TD*%
D23*
%TO.C,C9*%
X45640000Y-90880000D03*
D24*
X45640000Y-88380000D03*
%TD*%
D10*
%TO.C,C3*%
X204360000Y-25580000D03*
X204360000Y-27980000D03*
%TD*%
D11*
%TO.C,J1*%
X184920000Y-27010000D03*
D12*
X187420000Y-27010000D03*
X189920000Y-27010000D03*
X192420000Y-27010000D03*
%TD*%
D13*
%TO.C,R2*%
X207980000Y-27960000D03*
X210280000Y-27960000D03*
%TD*%
D14*
%TO.C,J4*%
X215450000Y-39950000D03*
X215450000Y-27450000D03*
%TD*%
D15*
%TO.C,R10*%
X210280000Y-40650000D03*
X207980000Y-40650000D03*
%TD*%
D16*
%TO.C,J5*%
X218970000Y-37460000D03*
D17*
X218970000Y-34960000D03*
X218970000Y-32460000D03*
X218970000Y-29960000D03*
%TD*%
D18*
%TO.C,J2*%
X199570000Y-26330000D03*
D19*
X199570000Y-28830000D03*
X199570000Y-31330000D03*
X199570000Y-33830000D03*
%TD*%
D20*
%TO.C,DS1307*%
X216750000Y-48965000D03*
D21*
X216750000Y-51505000D03*
X216750000Y-54045000D03*
X216750000Y-56585000D03*
X216750000Y-59125000D03*
X216750000Y-61665000D03*
X216750000Y-64205000D03*
%TD*%
D22*
%TO.C,J3*%
X184910000Y-41390000D03*
%TD*%
D23*
%TO.C,C9*%
X200840000Y-46430000D03*
D24*
X200840000Y-43930000D03*
%TD*%
D10*
%TO.C,C3*%
X165560000Y-25580000D03*
X165560000Y-27980000D03*
%TD*%
D11*
%TO.C,J1*%
X146120000Y-27010000D03*
D12*
X148620000Y-27010000D03*
X151120000Y-27010000D03*
X153620000Y-27010000D03*
%TD*%
D13*
%TO.C,R2*%
X169180000Y-27960000D03*
X171480000Y-27960000D03*
%TD*%
D14*
%TO.C,J4*%
X176650000Y-39950000D03*
X176650000Y-27450000D03*
%TD*%
D15*
%TO.C,R10*%
X171480000Y-40650000D03*
X169180000Y-40650000D03*
%TD*%
D16*
%TO.C,J5*%
X180170000Y-37460000D03*
D17*
X180170000Y-34960000D03*
X180170000Y-32460000D03*
X180170000Y-29960000D03*
%TD*%
D18*
%TO.C,J2*%
X160770000Y-26330000D03*
D19*
X160770000Y-28830000D03*
X160770000Y-31330000D03*
X160770000Y-33830000D03*
%TD*%
D20*
%TO.C,DS1307*%
X177950000Y-48965000D03*
D21*
X177950000Y-51505000D03*
X177950000Y-54045000D03*
X177950000Y-56585000D03*
X177950000Y-59125000D03*
X177950000Y-61665000D03*
X177950000Y-64205000D03*
%TD*%
D22*
%TO.C,J3*%
X146110000Y-41390000D03*
%TD*%
D23*
%TO.C,C9*%
X162040000Y-46430000D03*
D24*
X162040000Y-43930000D03*
%TD*%
D10*
%TO.C,C3*%
X126760000Y-25580000D03*
X126760000Y-27980000D03*
%TD*%
D11*
%TO.C,J1*%
X107320000Y-27010000D03*
D12*
X109820000Y-27010000D03*
X112320000Y-27010000D03*
X114820000Y-27010000D03*
%TD*%
D13*
%TO.C,R2*%
X130380000Y-27960000D03*
X132680000Y-27960000D03*
%TD*%
D14*
%TO.C,J4*%
X137850000Y-39950000D03*
X137850000Y-27450000D03*
%TD*%
D15*
%TO.C,R10*%
X132680000Y-40650000D03*
X130380000Y-40650000D03*
%TD*%
D16*
%TO.C,J5*%
X141370000Y-37460000D03*
D17*
X141370000Y-34960000D03*
X141370000Y-32460000D03*
X141370000Y-29960000D03*
%TD*%
D18*
%TO.C,J2*%
X121970000Y-26330000D03*
D19*
X121970000Y-28830000D03*
X121970000Y-31330000D03*
X121970000Y-33830000D03*
%TD*%
D20*
%TO.C,DS1307*%
X139150000Y-48965000D03*
D21*
X139150000Y-51505000D03*
X139150000Y-54045000D03*
X139150000Y-56585000D03*
X139150000Y-59125000D03*
X139150000Y-61665000D03*
X139150000Y-64205000D03*
%TD*%
D22*
%TO.C,J3*%
X107310000Y-41390000D03*
%TD*%
D23*
%TO.C,C9*%
X123240000Y-46430000D03*
D24*
X123240000Y-43930000D03*
%TD*%
D10*
%TO.C,C3*%
X87960000Y-25580000D03*
X87960000Y-27980000D03*
%TD*%
D11*
%TO.C,J1*%
X68520000Y-27010000D03*
D12*
X71020000Y-27010000D03*
X73520000Y-27010000D03*
X76020000Y-27010000D03*
%TD*%
D13*
%TO.C,R2*%
X91580000Y-27960000D03*
X93880000Y-27960000D03*
%TD*%
D14*
%TO.C,J4*%
X99050000Y-39950000D03*
X99050000Y-27450000D03*
%TD*%
D15*
%TO.C,R10*%
X93880000Y-40650000D03*
X91580000Y-40650000D03*
%TD*%
D16*
%TO.C,J5*%
X102570000Y-37460000D03*
D17*
X102570000Y-34960000D03*
X102570000Y-32460000D03*
X102570000Y-29960000D03*
%TD*%
D18*
%TO.C,J2*%
X83170000Y-26330000D03*
D19*
X83170000Y-28830000D03*
X83170000Y-31330000D03*
X83170000Y-33830000D03*
%TD*%
D20*
%TO.C,DS1307*%
X100350000Y-48965000D03*
D21*
X100350000Y-51505000D03*
X100350000Y-54045000D03*
X100350000Y-56585000D03*
X100350000Y-59125000D03*
X100350000Y-61665000D03*
X100350000Y-64205000D03*
%TD*%
D22*
%TO.C,J3*%
X68510000Y-41390000D03*
%TD*%
D23*
%TO.C,C9*%
X84440000Y-46430000D03*
D24*
X84440000Y-43930000D03*
%TD*%
D20*
%TO.C,DS1307*%
X61550000Y-48965000D03*
D21*
X61550000Y-51505000D03*
X61550000Y-54045000D03*
X61550000Y-56585000D03*
X61550000Y-59125000D03*
X61550000Y-61665000D03*
X61550000Y-64205000D03*
%TD*%
D23*
%TO.C,C9*%
X45640000Y-46430000D03*
D24*
X45640000Y-43930000D03*
%TD*%
D22*
%TO.C,J3*%
X29710000Y-41390000D03*
%TD*%
D18*
%TO.C,J2*%
X44370000Y-26330000D03*
D19*
X44370000Y-28830000D03*
X44370000Y-31330000D03*
X44370000Y-33830000D03*
%TD*%
D14*
%TO.C,J4*%
X60250000Y-39950000D03*
X60250000Y-27450000D03*
%TD*%
D11*
%TO.C,J1*%
X29720000Y-27010000D03*
D12*
X32220000Y-27010000D03*
X34720000Y-27010000D03*
X37220000Y-27010000D03*
%TD*%
D16*
%TO.C,J5*%
X63770000Y-37460000D03*
D17*
X63770000Y-34960000D03*
X63770000Y-32460000D03*
X63770000Y-29960000D03*
%TD*%
D15*
%TO.C,R10*%
X55080000Y-40650000D03*
X52780000Y-40650000D03*
%TD*%
D13*
%TO.C,R2*%
X52780000Y-27960000D03*
X55080000Y-27960000D03*
%TD*%
D10*
%TO.C,C3*%
X49160000Y-25580000D03*
X49160000Y-27980000D03*
%TD*%
M02*
