M48
; DRILL file {KiCad 8.0.7} date 2025-01-08T09:27:07+0900
; FORMAT={-:-/ absolute / inch / decimal}
; #@! TF.CreationDate,2025-01-08T09:27:07+09:00
; #@! TF.GenerationSoftware,Kicad,Pcbnew,8.0.7
; #@! TF.FileFunction,Plated,1,2,PTH
FMAT,2
INCH
; #@! TA.AperFunction,Plated,PTH,ViaDrill
T1C0.0157
; #@! TA.AperFunction,Plated,PTH,ComponentDrill
T2C0.0315
; #@! TA.AperFunction,Plated,PTH,ComponentDrill
T3C0.0335
; #@! TA.AperFunction,Plated,PTH,ComponentDrill
T4C0.0394
; #@! TA.AperFunction,Plated,PTH,ComponentDrill
T5C0.0787
%
G90
G05
T1
X1.1102Y-2.5
X1.1102Y-4.25
X1.1102Y-6.0
X1.1102Y-7.75
X1.3201Y-2.6033
X1.3201Y-4.3533
X1.3201Y-6.1033
X1.3201Y-7.8533
X1.5089Y-2.2766
X1.5089Y-4.0266
X1.5089Y-5.7766
X1.5089Y-7.5266
X1.5817Y-2.6142
X1.5817Y-4.3642
X1.5817Y-6.1142
X1.5817Y-7.8642
X1.5819Y-0.9911
X1.5819Y-2.7411
X1.5819Y-4.4911
X1.5819Y-6.2411
X1.6169Y-1.4287
X1.6169Y-3.1787
X1.6169Y-4.9287
X1.6169Y-6.6787
X1.6193Y-2.5067
X1.6193Y-4.2567
X1.6193Y-6.0067
X1.6193Y-7.7567
X1.6925Y-1.4673
X1.6925Y-3.2173
X1.6925Y-4.9673
X1.6925Y-6.7173
X1.7352Y-2.4498
X1.7352Y-2.5689
X1.7352Y-4.1998
X1.7352Y-4.3189
X1.7352Y-5.9498
X1.7352Y-6.0689
X1.7352Y-7.6998
X1.7352Y-7.8189
X1.8181Y-1.1854
X1.8181Y-2.9354
X1.8181Y-4.6854
X1.8181Y-6.4354
X1.8185Y-1.2272
X1.8185Y-1.5654
X1.8185Y-2.9772
X1.8185Y-3.3154
X1.8185Y-4.7272
X1.8185Y-5.0654
X1.8185Y-6.4772
X1.8185Y-6.8154
X1.8713Y-1.3469
X1.8713Y-3.0969
X1.8713Y-4.8469
X1.8713Y-6.5969
X1.8949Y-1.387
X1.8949Y-3.137
X1.8949Y-4.887
X1.8949Y-6.637
X2.0138Y-1.6004
X2.0138Y-3.3504
X2.0138Y-5.1004
X2.0138Y-6.8504
X2.0213Y-1.1008
X2.0213Y-2.8508
X2.0213Y-4.6008
X2.0213Y-6.3508
X2.0689Y-2.4429
X2.0689Y-4.1929
X2.0689Y-5.9429
X2.0689Y-7.6929
X2.0915Y-2.5512
X2.0915Y-4.3012
X2.0915Y-6.0512
X2.0915Y-7.8012
X2.1087Y-1.7343
X2.1087Y-3.4843
X2.1087Y-5.2343
X2.1087Y-6.9843
X2.1425Y-1.4476
X2.1425Y-3.1976
X2.1425Y-4.9476
X2.1425Y-6.6976
X2.15Y-2.51
X2.15Y-4.26
X2.15Y-6.01
X2.15Y-7.76
X2.152Y-1.998
X2.152Y-3.748
X2.152Y-5.498
X2.152Y-7.248
X2.1685Y-0.9559
X2.1685Y-1.1406
X2.1685Y-2.7059
X2.1685Y-2.8906
X2.1685Y-4.4559
X2.1685Y-4.6406
X2.1685Y-6.2059
X2.1685Y-6.3906
X2.1919Y-2.5512
X2.1919Y-4.3012
X2.1919Y-6.0512
X2.1919Y-7.8012
X2.2224Y-2.187
X2.2224Y-3.937
X2.2224Y-5.687
X2.2224Y-7.437
X2.2386Y-0.9713
X2.2386Y-2.7213
X2.2386Y-4.4713
X2.2386Y-6.2213
X2.3075Y-1.4744
X2.3075Y-3.2244
X2.3075Y-4.9744
X2.3075Y-6.7244
X2.3292Y-2.6324
X2.3292Y-4.3824
X2.3292Y-6.1324
X2.3292Y-7.8824
X2.3953Y-1.2413
X2.3953Y-1.2945
X2.3953Y-2.9913
X2.3953Y-3.0445
X2.3953Y-4.7413
X2.3953Y-4.7945
X2.3953Y-6.4913
X2.3953Y-6.5445
X2.4421Y-1.3764
X2.4421Y-3.1264
X2.4421Y-4.8764
X2.4421Y-6.6264
X2.4437Y-1.4744
X2.4437Y-3.2244
X2.4437Y-4.9744
X2.4437Y-6.7244
X2.5106Y-0.9756
X2.5106Y-2.7256
X2.5106Y-4.4756
X2.5106Y-6.2256
X2.6378Y-2.5
X2.6378Y-4.25
X2.6378Y-6.0
X2.6378Y-7.75
X2.8476Y-2.6033
X2.8476Y-4.3533
X2.8476Y-6.1033
X2.8476Y-7.8533
X3.0364Y-2.2766
X3.0364Y-4.0266
X3.0364Y-5.7766
X3.0364Y-7.5266
X3.1093Y-2.6142
X3.1093Y-4.3642
X3.1093Y-6.1142
X3.1093Y-7.8642
X3.1094Y-0.9911
X3.1094Y-2.7411
X3.1094Y-4.4911
X3.1094Y-6.2411
X3.1445Y-1.4287
X3.1445Y-3.1787
X3.1445Y-4.9287
X3.1445Y-6.6787
X3.1469Y-2.5067
X3.1469Y-4.2567
X3.1469Y-6.0067
X3.1469Y-7.7567
X3.2201Y-1.4673
X3.2201Y-3.2173
X3.2201Y-4.9673
X3.2201Y-6.7173
X3.2628Y-2.4498
X3.2628Y-2.5689
X3.2628Y-4.1998
X3.2628Y-4.3189
X3.2628Y-5.9498
X3.2628Y-6.0689
X3.2628Y-7.6998
X3.2628Y-7.8189
X3.3457Y-1.1854
X3.3457Y-2.9354
X3.3457Y-4.6854
X3.3457Y-6.4354
X3.3461Y-1.2272
X3.3461Y-1.5654
X3.3461Y-2.9772
X3.3461Y-3.3154
X3.3461Y-4.7272
X3.3461Y-5.0654
X3.3461Y-6.4772
X3.3461Y-6.8154
X3.3988Y-1.3469
X3.3988Y-3.0969
X3.3988Y-4.8469
X3.3988Y-6.5969
X3.4224Y-1.387
X3.4224Y-3.137
X3.4224Y-4.887
X3.4224Y-6.637
X3.5413Y-1.6004
X3.5413Y-3.3504
X3.5413Y-5.1004
X3.5413Y-6.8504
X3.5488Y-1.1008
X3.5488Y-2.8508
X3.5488Y-4.6008
X3.5488Y-6.3508
X3.5965Y-2.4429
X3.5965Y-4.1929
X3.5965Y-5.9429
X3.5965Y-7.6929
X3.6191Y-2.5512
X3.6191Y-4.3012
X3.6191Y-6.0512
X3.6191Y-7.8012
X3.6362Y-1.7343
X3.6362Y-3.4843
X3.6362Y-5.2343
X3.6362Y-6.9843
X3.6701Y-1.4476
X3.6701Y-3.1976
X3.6701Y-4.9476
X3.6701Y-6.6976
X3.6776Y-2.51
X3.6776Y-4.26
X3.6776Y-6.01
X3.6776Y-7.76
X3.6795Y-1.998
X3.6795Y-3.748
X3.6795Y-5.498
X3.6795Y-7.248
X3.6961Y-0.9559
X3.6961Y-1.1406
X3.6961Y-2.7059
X3.6961Y-2.8906
X3.6961Y-4.4559
X3.6961Y-4.6406
X3.6961Y-6.2059
X3.6961Y-6.3906
X3.7195Y-2.5512
X3.7195Y-4.3012
X3.7195Y-6.0512
X3.7195Y-7.8012
X3.75Y-2.187
X3.75Y-3.937
X3.75Y-5.687
X3.75Y-7.437
X3.7661Y-0.9713
X3.7661Y-2.7213
X3.7661Y-4.4713
X3.7661Y-6.2213
X3.835Y-1.4744
X3.835Y-3.2244
X3.835Y-4.9744
X3.835Y-6.7244
X3.8568Y-2.6324
X3.8568Y-4.3824
X3.8568Y-6.1324
X3.8568Y-7.8824
X3.9228Y-1.2413
X3.9228Y-1.2945
X3.9228Y-2.9913
X3.9228Y-3.0445
X3.9228Y-4.7413
X3.9228Y-4.7945
X3.9228Y-6.4913
X3.9228Y-6.5445
X3.9697Y-1.3764
X3.9697Y-3.1264
X3.9697Y-4.8764
X3.9697Y-6.6264
X3.9713Y-1.4744
X3.9713Y-3.2244
X3.9713Y-4.9744
X3.9713Y-6.7244
X4.0382Y-0.9756
X4.0382Y-2.7256
X4.0382Y-4.4756
X4.0382Y-6.2256
X4.1654Y-2.5
X4.1654Y-4.25
X4.1654Y-6.0
X4.1654Y-7.75
X4.3752Y-2.6033
X4.3752Y-4.3533
X4.3752Y-6.1033
X4.3752Y-7.8533
X4.564Y-2.2766
X4.564Y-4.0266
X4.564Y-5.7766
X4.564Y-7.5266
X4.6368Y-2.6142
X4.6368Y-4.3642
X4.6368Y-6.1142
X4.6368Y-7.8642
X4.637Y-0.9911
X4.637Y-2.7411
X4.637Y-4.4911
X4.637Y-6.2411
X4.672Y-1.4287
X4.672Y-3.1787
X4.672Y-4.9287
X4.672Y-6.6787
X4.6744Y-2.5067
X4.6744Y-4.2567
X4.6744Y-6.0067
X4.6744Y-7.7567
X4.7476Y-1.4673
X4.7476Y-3.2173
X4.7476Y-4.9673
X4.7476Y-6.7173
X4.7904Y-2.4498
X4.7904Y-2.5689
X4.7904Y-4.1998
X4.7904Y-4.3189
X4.7904Y-5.9498
X4.7904Y-6.0689
X4.7904Y-7.6998
X4.7904Y-7.8189
X4.8732Y-1.1854
X4.8732Y-2.9354
X4.8732Y-4.6854
X4.8732Y-6.4354
X4.8736Y-1.2272
X4.8736Y-1.5654
X4.8736Y-2.9772
X4.8736Y-3.3154
X4.8736Y-4.7272
X4.8736Y-5.0654
X4.8736Y-6.4772
X4.8736Y-6.8154
X4.9264Y-1.3469
X4.9264Y-3.0969
X4.9264Y-4.8469
X4.9264Y-6.5969
X4.95Y-1.387
X4.95Y-3.137
X4.95Y-4.887
X4.95Y-6.637
X5.0689Y-1.6004
X5.0689Y-3.3504
X5.0689Y-5.1004
X5.0689Y-6.8504
X5.0764Y-1.1008
X5.0764Y-2.8508
X5.0764Y-4.6008
X5.0764Y-6.3508
X5.124Y-2.4429
X5.124Y-4.1929
X5.124Y-5.9429
X5.124Y-7.6929
X5.1467Y-2.5512
X5.1467Y-4.3012
X5.1467Y-6.0512
X5.1467Y-7.8012
X5.1638Y-1.7343
X5.1638Y-3.4843
X5.1638Y-5.2343
X5.1638Y-6.9843
X5.1976Y-1.4476
X5.1976Y-3.1976
X5.1976Y-4.9476
X5.1976Y-6.6976
X5.2051Y-2.51
X5.2051Y-4.26
X5.2051Y-6.01
X5.2051Y-7.76
X5.2071Y-1.998
X5.2071Y-3.748
X5.2071Y-5.498
X5.2071Y-7.248
X5.2236Y-0.9559
X5.2236Y-1.1406
X5.2236Y-2.7059
X5.2236Y-2.8906
X5.2236Y-4.4559
X5.2236Y-4.6406
X5.2236Y-6.2059
X5.2236Y-6.3906
X5.247Y-2.5512
X5.247Y-4.3012
X5.247Y-6.0512
X5.247Y-7.8012
X5.2776Y-2.187
X5.2776Y-3.937
X5.2776Y-5.687
X5.2776Y-7.437
X5.2937Y-0.9713
X5.2937Y-2.7213
X5.2937Y-4.4713
X5.2937Y-6.2213
X5.3626Y-1.4744
X5.3626Y-3.2244
X5.3626Y-4.9744
X5.3626Y-6.7244
X5.3844Y-2.6324
X5.3844Y-4.3824
X5.3844Y-6.1324
X5.3844Y-7.8824
X5.4504Y-1.2413
X5.4504Y-1.2945
X5.4504Y-2.9913
X5.4504Y-3.0445
X5.4504Y-4.7413
X5.4504Y-4.7945
X5.4504Y-6.4913
X5.4504Y-6.5445
X5.4972Y-1.3764
X5.4972Y-3.1264
X5.4972Y-4.8764
X5.4972Y-6.6264
X5.4988Y-1.4744
X5.4988Y-3.2244
X5.4988Y-4.9744
X5.4988Y-6.7244
X5.5657Y-0.9756
X5.5657Y-2.7256
X5.5657Y-4.4756
X5.5657Y-6.2256
X5.6929Y-2.5
X5.6929Y-4.25
X5.6929Y-6.0
X5.6929Y-7.75
X5.9028Y-2.6033
X5.9028Y-4.3533
X5.9028Y-6.1033
X5.9028Y-7.8533
X6.0915Y-2.2766
X6.0915Y-4.0266
X6.0915Y-5.7766
X6.0915Y-7.5266
X6.1644Y-2.6142
X6.1644Y-4.3642
X6.1644Y-6.1142
X6.1644Y-7.8642
X6.1646Y-0.9911
X6.1646Y-2.7411
X6.1646Y-4.4911
X6.1646Y-6.2411
X6.1996Y-1.4287
X6.1996Y-3.1787
X6.1996Y-4.9287
X6.1996Y-6.6787
X6.202Y-2.5067
X6.202Y-4.2567
X6.202Y-6.0067
X6.202Y-7.7567
X6.2752Y-1.4673
X6.2752Y-3.2173
X6.2752Y-4.9673
X6.2752Y-6.7173
X6.3179Y-2.4498
X6.3179Y-2.5689
X6.3179Y-4.1998
X6.3179Y-4.3189
X6.3179Y-5.9498
X6.3179Y-6.0689
X6.3179Y-7.6998
X6.3179Y-7.8189
X6.4008Y-1.1854
X6.4008Y-2.9354
X6.4008Y-4.6854
X6.4008Y-6.4354
X6.4012Y-1.2272
X6.4012Y-1.5654
X6.4012Y-2.9772
X6.4012Y-3.3154
X6.4012Y-4.7272
X6.4012Y-5.0654
X6.4012Y-6.4772
X6.4012Y-6.8154
X6.4539Y-1.3469
X6.4539Y-3.0969
X6.4539Y-4.8469
X6.4539Y-6.5969
X6.4776Y-1.387
X6.4776Y-3.137
X6.4776Y-4.887
X6.4776Y-6.637
X6.5965Y-1.6004
X6.5965Y-3.3504
X6.5965Y-5.1004
X6.5965Y-6.8504
X6.6039Y-1.1008
X6.6039Y-2.8508
X6.6039Y-4.6008
X6.6039Y-6.3508
X6.6516Y-2.4429
X6.6516Y-4.1929
X6.6516Y-5.9429
X6.6516Y-7.6929
X6.6742Y-2.5512
X6.6742Y-4.3012
X6.6742Y-6.0512
X6.6742Y-7.8012
X6.6913Y-1.7343
X6.6913Y-3.4843
X6.6913Y-5.2343
X6.6913Y-6.9843
X6.7252Y-1.4476
X6.7252Y-3.1976
X6.7252Y-4.9476
X6.7252Y-6.6976
X6.7327Y-2.51
X6.7327Y-4.26
X6.7327Y-6.01
X6.7327Y-7.76
X6.7346Y-1.998
X6.7346Y-3.748
X6.7346Y-5.498
X6.7346Y-7.248
X6.7512Y-0.9559
X6.7512Y-1.1406
X6.7512Y-2.7059
X6.7512Y-2.8906
X6.7512Y-4.4559
X6.7512Y-4.6406
X6.7512Y-6.2059
X6.7512Y-6.3906
X6.7746Y-2.5512
X6.7746Y-4.3012
X6.7746Y-6.0512
X6.7746Y-7.8012
X6.8051Y-2.187
X6.8051Y-3.937
X6.8051Y-5.687
X6.8051Y-7.437
X6.8213Y-0.9713
X6.8213Y-2.7213
X6.8213Y-4.4713
X6.8213Y-6.2213
X6.8902Y-1.4744
X6.8902Y-3.2244
X6.8902Y-4.9744
X6.8902Y-6.7244
X6.9119Y-2.6324
X6.9119Y-4.3824
X6.9119Y-6.1324
X6.9119Y-7.8824
X6.978Y-1.2413
X6.978Y-1.2945
X6.978Y-2.9913
X6.978Y-3.0445
X6.978Y-4.7413
X6.978Y-4.7945
X6.978Y-6.4913
X6.978Y-6.5445
X7.0248Y-1.3764
X7.0248Y-3.1264
X7.0248Y-4.8764
X7.0248Y-6.6264
X7.0264Y-1.4744
X7.0264Y-3.2244
X7.0264Y-4.9744
X7.0264Y-6.7244
X7.0933Y-0.9756
X7.0933Y-2.7256
X7.0933Y-4.4756
X7.0933Y-6.2256
X7.2205Y-2.5
X7.2205Y-4.25
X7.2205Y-6.0
X7.2205Y-7.75
X7.4303Y-2.6033
X7.4303Y-4.3533
X7.4303Y-6.1033
X7.4303Y-7.8533
X7.6191Y-2.2766
X7.6191Y-4.0266
X7.6191Y-5.7766
X7.6191Y-7.5266
X7.6919Y-2.6142
X7.6919Y-4.3642
X7.6919Y-6.1142
X7.6919Y-7.8642
X7.6921Y-0.9911
X7.6921Y-2.7411
X7.6921Y-4.4911
X7.6921Y-6.2411
X7.7272Y-1.4287
X7.7272Y-3.1787
X7.7272Y-4.9287
X7.7272Y-6.6787
X7.7295Y-2.5067
X7.7295Y-4.2567
X7.7295Y-6.0067
X7.7295Y-7.7567
X7.8028Y-1.4673
X7.8028Y-3.2173
X7.8028Y-4.9673
X7.8028Y-6.7173
X7.8455Y-2.4498
X7.8455Y-2.5689
X7.8455Y-4.1998
X7.8455Y-4.3189
X7.8455Y-5.9498
X7.8455Y-6.0689
X7.8455Y-7.6998
X7.8455Y-7.8189
X7.9283Y-1.1854
X7.9283Y-2.9354
X7.9283Y-4.6854
X7.9283Y-6.4354
X7.9287Y-1.2272
X7.9287Y-1.5654
X7.9287Y-2.9772
X7.9287Y-3.3154
X7.9287Y-4.7272
X7.9287Y-5.0654
X7.9287Y-6.4772
X7.9287Y-6.8154
X7.9815Y-1.3469
X7.9815Y-3.0969
X7.9815Y-4.8469
X7.9815Y-6.5969
X8.0051Y-1.387
X8.0051Y-3.137
X8.0051Y-4.887
X8.0051Y-6.637
X8.124Y-1.6004
X8.124Y-3.3504
X8.124Y-5.1004
X8.124Y-6.8504
X8.1315Y-1.1008
X8.1315Y-2.8508
X8.1315Y-4.6008
X8.1315Y-6.3508
X8.1791Y-2.4429
X8.1791Y-4.1929
X8.1791Y-5.9429
X8.1791Y-7.6929
X8.2018Y-2.5512
X8.2018Y-4.3012
X8.2018Y-6.0512
X8.2018Y-7.8012
X8.2189Y-1.7343
X8.2189Y-3.4843
X8.2189Y-5.2343
X8.2189Y-6.9843
X8.2528Y-1.4476
X8.2528Y-3.1976
X8.2528Y-4.9476
X8.2528Y-6.6976
X8.2602Y-2.51
X8.2602Y-4.26
X8.2602Y-6.01
X8.2602Y-7.76
X8.2622Y-1.998
X8.2622Y-3.748
X8.2622Y-5.498
X8.2622Y-7.248
X8.2787Y-0.9559
X8.2787Y-1.1406
X8.2787Y-2.7059
X8.2787Y-2.8906
X8.2787Y-4.4559
X8.2787Y-4.6406
X8.2787Y-6.2059
X8.2787Y-6.3906
X8.3022Y-2.5512
X8.3022Y-4.3012
X8.3022Y-6.0512
X8.3022Y-7.8012
X8.3327Y-2.187
X8.3327Y-3.937
X8.3327Y-5.687
X8.3327Y-7.437
X8.3488Y-0.9713
X8.3488Y-2.7213
X8.3488Y-4.4713
X8.3488Y-6.2213
X8.4177Y-1.4744
X8.4177Y-3.2244
X8.4177Y-4.9744
X8.4177Y-6.7244
X8.4395Y-2.6324
X8.4395Y-4.3824
X8.4395Y-6.1324
X8.4395Y-7.8824
X8.5055Y-1.2413
X8.5055Y-1.2945
X8.5055Y-2.9913
X8.5055Y-3.0445
X8.5055Y-4.7413
X8.5055Y-4.7945
X8.5055Y-6.4913
X8.5055Y-6.5445
X8.5524Y-1.3764
X8.5524Y-3.1264
X8.5524Y-4.8764
X8.5524Y-6.6264
X8.5539Y-1.4744
X8.5539Y-3.2244
X8.5539Y-4.9744
X8.5539Y-6.7244
X8.6209Y-0.9756
X8.6209Y-2.7256
X8.6209Y-4.4756
X8.6209Y-6.2256
T2
X1.7969Y-1.7295
X1.7969Y-1.828
X1.7969Y-3.4795
X1.7969Y-3.578
X1.7969Y-5.2295
X1.7969Y-5.328
X1.7969Y-6.9795
X1.7969Y-7.078
X3.3244Y-1.7295
X3.3244Y-1.828
X3.3244Y-3.4795
X3.3244Y-3.578
X3.3244Y-5.2295
X3.3244Y-5.328
X3.3244Y-6.9795
X3.3244Y-7.078
X4.852Y-1.7295
X4.852Y-1.828
X4.852Y-3.4795
X4.852Y-3.578
X4.852Y-5.2295
X4.852Y-5.328
X4.852Y-6.9795
X4.852Y-7.078
X6.3795Y-1.7295
X6.3795Y-1.828
X6.3795Y-3.4795
X6.3795Y-3.578
X6.3795Y-5.2295
X6.3795Y-5.328
X6.3795Y-6.9795
X6.3795Y-7.078
X7.9071Y-1.7295
X7.9071Y-1.828
X7.9071Y-3.4795
X7.9071Y-3.578
X7.9071Y-5.2295
X7.9071Y-5.328
X7.9071Y-6.9795
X7.9071Y-7.078
T3
X1.1701Y-1.0634
X1.1701Y-2.8134
X1.1701Y-4.5634
X1.1701Y-6.3134
X1.2685Y-1.0634
X1.2685Y-2.8134
X1.2685Y-4.5634
X1.2685Y-6.3134
X1.3669Y-1.0634
X1.3669Y-2.8134
X1.3669Y-4.5634
X1.3669Y-6.3134
X1.4654Y-1.0634
X1.4654Y-2.8134
X1.4654Y-4.5634
X1.4654Y-6.3134
X1.7469Y-1.0366
X1.7469Y-1.135
X1.7469Y-1.2335
X1.7469Y-1.3319
X1.7469Y-2.7866
X1.7469Y-2.885
X1.7469Y-2.9835
X1.7469Y-3.0819
X1.7469Y-4.5366
X1.7469Y-4.635
X1.7469Y-4.7335
X1.7469Y-4.8319
X1.7469Y-6.2866
X1.7469Y-6.385
X1.7469Y-6.4835
X1.7469Y-6.5819
X2.6976Y-1.0634
X2.6976Y-2.8134
X2.6976Y-4.5634
X2.6976Y-6.3134
X2.7961Y-1.0634
X2.7961Y-2.8134
X2.7961Y-4.5634
X2.7961Y-6.3134
X2.8945Y-1.0634
X2.8945Y-2.8134
X2.8945Y-4.5634
X2.8945Y-6.3134
X2.9929Y-1.0634
X2.9929Y-2.8134
X2.9929Y-4.5634
X2.9929Y-6.3134
X3.2744Y-1.0366
X3.2744Y-1.135
X3.2744Y-1.2335
X3.2744Y-1.3319
X3.2744Y-2.7866
X3.2744Y-2.885
X3.2744Y-2.9835
X3.2744Y-3.0819
X3.2744Y-4.5366
X3.2744Y-4.635
X3.2744Y-4.7335
X3.2744Y-4.8319
X3.2744Y-6.2866
X3.2744Y-6.385
X3.2744Y-6.4835
X3.2744Y-6.5819
X4.2252Y-1.0634
X4.2252Y-2.8134
X4.2252Y-4.5634
X4.2252Y-6.3134
X4.3236Y-1.0634
X4.3236Y-2.8134
X4.3236Y-4.5634
X4.3236Y-6.3134
X4.422Y-1.0634
X4.422Y-2.8134
X4.422Y-4.5634
X4.422Y-6.3134
X4.5205Y-1.0634
X4.5205Y-2.8134
X4.5205Y-4.5634
X4.5205Y-6.3134
X4.802Y-1.0366
X4.802Y-1.135
X4.802Y-1.2335
X4.802Y-1.3319
X4.802Y-2.7866
X4.802Y-2.885
X4.802Y-2.9835
X4.802Y-3.0819
X4.802Y-4.5366
X4.802Y-4.635
X4.802Y-4.7335
X4.802Y-4.8319
X4.802Y-6.2866
X4.802Y-6.385
X4.802Y-6.4835
X4.802Y-6.5819
X5.7528Y-1.0634
X5.7528Y-2.8134
X5.7528Y-4.5634
X5.7528Y-6.3134
X5.8512Y-1.0634
X5.8512Y-2.8134
X5.8512Y-4.5634
X5.8512Y-6.3134
X5.9496Y-1.0634
X5.9496Y-2.8134
X5.9496Y-4.5634
X5.9496Y-6.3134
X6.048Y-1.0634
X6.048Y-2.8134
X6.048Y-4.5634
X6.048Y-6.3134
X6.3295Y-1.0366
X6.3295Y-1.135
X6.3295Y-1.2335
X6.3295Y-1.3319
X6.3295Y-2.7866
X6.3295Y-2.885
X6.3295Y-2.9835
X6.3295Y-3.0819
X6.3295Y-4.5366
X6.3295Y-4.635
X6.3295Y-4.7335
X6.3295Y-4.8319
X6.3295Y-6.2866
X6.3295Y-6.385
X6.3295Y-6.4835
X6.3295Y-6.5819
X7.2803Y-1.0634
X7.2803Y-2.8134
X7.2803Y-4.5634
X7.2803Y-6.3134
X7.3787Y-1.0634
X7.3787Y-2.8134
X7.3787Y-4.5634
X7.3787Y-6.3134
X7.4772Y-1.0634
X7.4772Y-2.8134
X7.4772Y-4.5634
X7.4772Y-6.3134
X7.5756Y-1.0634
X7.5756Y-2.8134
X7.5756Y-4.5634
X7.5756Y-6.3134
X7.8571Y-1.0366
X7.8571Y-1.135
X7.8571Y-1.2335
X7.8571Y-1.3319
X7.8571Y-2.7866
X7.8571Y-2.885
X7.8571Y-2.9835
X7.8571Y-3.0819
X7.8571Y-4.5366
X7.8571Y-4.635
X7.8571Y-4.7335
X7.8571Y-4.8319
X7.8571Y-6.2866
X7.8571Y-6.385
X7.8571Y-6.4835
X7.8571Y-6.5819
T4
X2.4232Y-1.9278
X2.4232Y-2.0278
X2.4232Y-2.1278
X2.4232Y-2.2278
X2.4232Y-2.3278
X2.4232Y-2.4278
X2.4232Y-2.5278
X2.4232Y-3.6778
X2.4232Y-3.7778
X2.4232Y-3.8778
X2.4232Y-3.9778
X2.4232Y-4.0778
X2.4232Y-4.1778
X2.4232Y-4.2778
X2.4232Y-5.4278
X2.4232Y-5.5278
X2.4232Y-5.6278
X2.4232Y-5.7278
X2.4232Y-5.8278
X2.4232Y-5.9278
X2.4232Y-6.0278
X2.4232Y-7.1778
X2.4232Y-7.2778
X2.4232Y-7.3778
X2.4232Y-7.4778
X2.4232Y-7.5778
X2.4232Y-7.6778
X2.4232Y-7.7778
X3.9508Y-1.9278
X3.9508Y-2.0278
X3.9508Y-2.1278
X3.9508Y-2.2278
X3.9508Y-2.3278
X3.9508Y-2.4278
X3.9508Y-2.5278
X3.9508Y-3.6778
X3.9508Y-3.7778
X3.9508Y-3.8778
X3.9508Y-3.9778
X3.9508Y-4.0778
X3.9508Y-4.1778
X3.9508Y-4.2778
X3.9508Y-5.4278
X3.9508Y-5.5278
X3.9508Y-5.6278
X3.9508Y-5.7278
X3.9508Y-5.8278
X3.9508Y-5.9278
X3.9508Y-6.0278
X3.9508Y-7.1778
X3.9508Y-7.2778
X3.9508Y-7.3778
X3.9508Y-7.4778
X3.9508Y-7.5778
X3.9508Y-7.6778
X3.9508Y-7.7778
X5.4783Y-1.9278
X5.4783Y-2.0278
X5.4783Y-2.1278
X5.4783Y-2.2278
X5.4783Y-2.3278
X5.4783Y-2.4278
X5.4783Y-2.5278
X5.4783Y-3.6778
X5.4783Y-3.7778
X5.4783Y-3.8778
X5.4783Y-3.9778
X5.4783Y-4.0778
X5.4783Y-4.1778
X5.4783Y-4.2778
X5.4783Y-5.4278
X5.4783Y-5.5278
X5.4783Y-5.6278
X5.4783Y-5.7278
X5.4783Y-5.8278
X5.4783Y-5.9278
X5.4783Y-6.0278
X5.4783Y-7.1778
X5.4783Y-7.2778
X5.4783Y-7.3778
X5.4783Y-7.4778
X5.4783Y-7.5778
X5.4783Y-7.6778
X5.4783Y-7.7778
X7.0059Y-1.9278
X7.0059Y-2.0278
X7.0059Y-2.1278
X7.0059Y-2.2278
X7.0059Y-2.3278
X7.0059Y-2.4278
X7.0059Y-2.5278
X7.0059Y-3.6778
X7.0059Y-3.7778
X7.0059Y-3.8778
X7.0059Y-3.9778
X7.0059Y-4.0778
X7.0059Y-4.1778
X7.0059Y-4.2778
X7.0059Y-5.4278
X7.0059Y-5.5278
X7.0059Y-5.6278
X7.0059Y-5.7278
X7.0059Y-5.8278
X7.0059Y-5.9278
X7.0059Y-6.0278
X7.0059Y-7.1778
X7.0059Y-7.2778
X7.0059Y-7.3778
X7.0059Y-7.4778
X7.0059Y-7.5778
X7.0059Y-7.6778
X7.0059Y-7.7778
X8.5335Y-1.9278
X8.5335Y-2.0278
X8.5335Y-2.1278
X8.5335Y-2.2278
X8.5335Y-2.3278
X8.5335Y-2.4278
X8.5335Y-2.5278
X8.5335Y-3.6778
X8.5335Y-3.7778
X8.5335Y-3.8778
X8.5335Y-3.9778
X8.5335Y-4.0778
X8.5335Y-4.1778
X8.5335Y-4.2778
X8.5335Y-5.4278
X8.5335Y-5.5278
X8.5335Y-5.6278
X8.5335Y-5.7278
X8.5335Y-5.8278
X8.5335Y-5.9278
X8.5335Y-6.0278
X8.5335Y-7.1778
X8.5335Y-7.2778
X8.5335Y-7.3778
X8.5335Y-7.4778
X8.5335Y-7.5778
X8.5335Y-7.6778
X8.5335Y-7.7778
T5
G00X1.1697Y-1.7476
M15
G01X1.1697Y-1.5114
M16
G05
G00X1.1697Y-3.4976
M15
G01X1.1697Y-3.2614
M16
G05
G00X1.1697Y-5.2476
M15
G01X1.1697Y-5.0114
M16
G05
G00X1.1697Y-6.9976
M15
G01X1.1697Y-6.7614
M16
G05
G00X2.6972Y-1.7476
M15
G01X2.6972Y-1.5114
M16
G05
G00X2.6972Y-3.4976
M15
G01X2.6972Y-3.2614
M16
G05
G00X2.6972Y-5.2476
M15
G01X2.6972Y-5.0114
M16
G05
G00X2.6972Y-6.9976
M15
G01X2.6972Y-6.7614
M16
G05
G00X4.2248Y-1.7476
M15
G01X4.2248Y-1.5114
M16
G05
G00X4.2248Y-3.4976
M15
G01X4.2248Y-3.2614
M16
G05
G00X4.2248Y-5.2476
M15
G01X4.2248Y-5.0114
M16
G05
G00X4.2248Y-6.9976
M15
G01X4.2248Y-6.7614
M16
G05
G00X5.7524Y-1.7476
M15
G01X5.7524Y-1.5114
M16
G05
G00X5.7524Y-3.4976
M15
G01X5.7524Y-3.2614
M16
G05
G00X5.7524Y-5.2476
M15
G01X5.7524Y-5.0114
M16
G05
G00X5.7524Y-6.9976
M15
G01X5.7524Y-6.7614
M16
G05
G00X7.2799Y-1.7476
M15
G01X7.2799Y-1.5114
M16
G05
G00X7.2799Y-3.4976
M15
G01X7.2799Y-3.2614
M16
G05
G00X7.2799Y-5.2476
M15
G01X7.2799Y-5.0114
M16
G05
G00X7.2799Y-6.9976
M15
G01X7.2799Y-6.7614
M16
G05
M30
